<svg id="_x33_0" enable-background="new 0 0 64 64" height="512" viewBox="0 0 64 64" width="512" xmlns="http://www.w3.org/2000/svg"><g><path d="m21 20c1.654 0 3-1.346 3-3h-2c0 .551-.449 1-1 1s-1-.449-1-1h-2c0 1.654 1.346 3 3 3z"/><path d="m63 36v-8h-4.293c-.126-.841-.294-1.685-.504-2.522l3.963-1.647-3.054-7.388-3.974 1.647c-.439-.731-.917-1.445-1.431-2.136l3.036-3.045-5.655-5.655-3.033 3.044c-.683-.511-1.4-.991-2.145-1.437l1.647-3.973-7.388-3.054-1.647 3.963c-.837-.21-1.681-.378-2.522-.504v-4.293h-8v2.69c-1.076-1.619-2.914-2.69-5-2.69h-7.563c-7.961 0-14.437 6.476-14.437 14.437 0 3.857 1.502 7.483 4.23 10.21l5.77 5.767v1.95c-1.757.722-3 2.447-3 4.461 0 .837.074 1.68.219 2.505l1.781 10.092v10.578c0 1.103.897 2 2 2h12c1.103 0 2-.897 2-2v-2.678c.662.15 1.328.284 2 .384v4.294h8v-4.293c.841-.126 1.685-.294 2.522-.504l1.647 3.963 7.388-3.054-1.647-3.974c.74-.443 1.457-.921 2.144-1.43l3.036 3.036 5.654-5.654-3.036-3.036c.51-.687.988-1.404 1.431-2.144l3.973 1.647 3.054-7.388-3.963-1.647c.21-.838.379-1.682.504-2.522zm-56.355-11.768c-2.351-2.349-3.645-5.473-3.645-8.795 0-6.858 5.579-12.437 12.437-12.437h7.563c2.206 0 4 1.794 4 4 0 2.205-1.794 4-4 4h-6c-1.103 0-2-.897-2-2s.897-2 2-2h1v-2h-1c-2.206 0-4 1.794-4 4 0 1.318.649 2.48 1.635 3.209-1.117.94-1.893 2.252-2.142 3.746l-.161.964-.005-.005c-.588-.589-1.372-.914-2.206-.914-1.721 0-3.121 1.4-3.121 3.121v.171c0 2.668 1.483 5.067 3.87 6.261l.13.065v2.969zm27.355 30.768v-4.465l1.799-1.199c.329-.22.713-.336 1.201-.336.551 0 1 .449 1 1v1h2c1.103 0 2 .897 2 2s-.897 2-2 2zm6-6h-.172c-.416-1.164-1.543-2-2.919-2-.792 0-1.56.232-2.219.672l-1.993 1.328h-6.697v-3c0-5.004-2.846-9.349-7-11.521v-2.724l1.198-.342c3.416-.977 5.802-4.141 5.802-7.693v-1.102l2-1v-.618c0-2.061-.313-4.895-.982-7.326 1.618-.439 3.287-.674 4.982-.674 10.477 0 19 8.523 19 19 0 7.199-4.156 13.855-10.602 17.04-.133-.013-.262-.04-.398-.04zm-28.236-25.236c-1.705-.852-2.764-2.566-2.764-4.472v-.171c0-.618.503-1.121 1.121-1.121.3 0 .581.117.793.328l2.753 2.753.799-4.797c.252-1.513 1.293-2.755 2.725-3.284h5.809c.564 0 1.108-.084 1.626-.23.861 2.219 1.296 5.352 1.364 7.617l-1.99.995v2.338c0 .095-.019.186-.023.281l-6.977.001v1c0 1.834.847 3.505 2.254 4.599l-2.254.645v3.391c-1.261-.41-2.604-.637-4-.637v-8.618zm9.696 4.848-.332-.166c-1.006-.503-1.72-1.395-1.999-2.446h4.395c-.433 1.043-1.141 1.955-2.064 2.612zm2.54 17.388v3h-4.17l-2.262-12.064c-.073-.388-.206-.75-.363-1.096 3.984 1.654 6.795 5.584 6.795 10.16zm-11.175-11c1.358 0 2.526.969 2.777 2.304l2.293 12.23-2.45 1.633 1.109 1.664 2.749-1.831h12.697v4h-15.805c-1.945 0-3.601-1.39-3.939-3.305l-2.067-11.712c-.126-.711-.189-1.437-.189-2.158 0-1.557 1.268-2.825 2.825-2.825zm-.825 26v-5.737c1.09 1.072 2.568 1.737 4.195 1.737h7.805v4zm18 0v-4h4v4zm11.25-1.446-1.069-2.573c1.498-.069 2.775-.959 3.401-2.236l1.361 3.282zm18.304-18.304-1.526 3.692-3.761-1.559-.433.782c-.653 1.182-1.405 2.309-2.236 3.351l-.558.699 2.875 2.875-2.826 2.826-2.875-2.875-.699.558c-1.04.83-2.167 1.582-3.351 2.237l-.31.172c.087-.325.146-.658.146-1.008 0-1.164-.509-2.205-1.306-2.937 6.313-3.752 10.306-10.646 10.306-18.063 0-11.58-9.42-21-21-21-1.78 0-3.536.232-5.243.671 1.322-1.065 2.179-2.678 2.234-4.491.042-.005.082-.012.124-.017l.885-.102v-4.061h4v4.063l.887.101c1.313.149 2.641.414 3.948.788l.856.245 1.559-3.751 3.692 1.526-1.559 3.761.782.433c1.193.659 2.319 1.414 3.346 2.243l.701.565 2.878-2.888 2.826 2.826-2.875 2.885.557.698c.842 1.055 1.594 2.179 2.236 3.34l.433.782 3.761-1.559 1.526 3.692-3.751 1.559.245.856c.374 1.307.639 2.635.788 3.948l.101.887h4.063v4h-4.063l-.101.887c-.149 1.312-.414 2.64-.788 3.948l-.245.856z"/><path d="m42.707 33.707-1.414-1.414-2.707 2.707h-8.586v10h10v-8.586zm-4.707 9.293h-6v-6h4.586l-3.293 3.293 1.414 1.414 3.293-3.293z"/><path d="m40 22.414 2.707-2.707-1.414-1.414-2.707 2.707h-8.586v10h10zm-8 6.586v-6h4.586l-3.293 3.293 1.414 1.414 3.293-3.293v4.586z"/><path d="m42 27h4v2h-4z"/><path d="m42 41h4v2h-4z"/><path d="m42 37h6v2h-6z"/><path d="m42 23h2v2h-2z"/></g></svg>