<svg xmlns="http://www.w3.org/2000/svg" xmlns:xlink="http://www.w3.org/1999/xlink" width="1068.41" height="1068.41" viewBox="0 0 1068.41 1068.41"><defs><clipPath id="a"><path d="M710.325-469.165H357.36a34.507,34.507,0,0,1-34.552-34.387V-644.526A34.506,34.506,0,0,1,357.36-678.91H710.325a34.507,34.507,0,0,1,34.552,34.384v140.974a34.508,34.508,0,0,1-34.552,34.387M354.187-481.884v.515H394.14v-.515h319.9V-667.3H674.089v.516H353.639v184.9h.548"/></clipPath><linearGradient id="b" x1="-0.765" y1="3.237" x2="-0.765" y2="3.237" gradientUnits="objectBoundingBox"><stop offset="0"/><stop offset="0.5" stop-color="#4d4d4d"/><stop offset="1" stop-color="#1d1d1b"/></linearGradient><clipPath id="c"><path d="M735.77-574.039a8.5,8.5,0,0,1-8.521,8.48,8.5,8.5,0,0,1-8.519-8.48,8.5,8.5,0,0,1,8.519-8.479A8.5,8.5,0,0,1,735.77-574.039Z"/></clipPath><radialGradient id="d" cx="0.933" cy="1.138" r="0.818" gradientTransform="translate(-0.201 66.257)" gradientUnits="objectBoundingBox"><stop offset="0" stop-color="#4d4d4d"/><stop offset="0.547" stop-color="#4d4d4d"/><stop offset="1"/></radialGradient><clipPath id="e"><path d="M342.99-534.188a5.1,5.1,0,0,1-5.112,5.087,5.1,5.1,0,0,1-5.113-5.087v-79.7a5.1,5.1,0,0,1,5.113-5.088,5.1,5.1,0,0,1,5.112,5.088Z"/></clipPath><radialGradient id="f" cx="-0.529" cy="1.228" r="0.772" gradientTransform="matrix(0.043, 1, -2.806, 0.002, -43.58, 39.257)" xlink:href="#d"/><clipPath id="g"><path d="M394.14-481.37H354.187v-.515H394.14v.515"/></clipPath><linearGradient id="h" x1="-8.865" y1="936.28" x2="-8.862" y2="936.28" gradientUnits="objectBoundingBox"><stop offset="0"/><stop offset="0.5" stop-color="#363636"/><stop offset="1" stop-color="#141413"/></linearGradient><clipPath id="i"><path d="M714.044-481.885H711v-184.9H674.089v-.516h39.955v185.419"/></clipPath><linearGradient id="j" x1="-16.871" y1="3.599" x2="-16.868" y2="3.599" xlink:href="#h"/></defs><g transform="translate(0 1068.41)"><path d="M.509-1.745H1067.173V-1068.409H.509Z" fill="#5a8a92"/><path d="M968.276-1.745V-1068.409h100.134V-1.747l-100.134,0" fill="#a1cdcf"/><path d="M806.9-1.745V-1068.409H907.03V-1.747l-100.132,0" fill="#a1cdcf"/><path d="M645.518-1.745V-1068.409H745.651V-1.747l-100.133,0" fill="#a1cdcf"/><path d="M484.137-1.745V-1068.409H584.272V-1.748l-100.134,0" fill="#a1cdcf"/><path d="M322.758-1.745V-1068.409H422.892V-1.747l-100.134,0" fill="#a1cdcf"/><path d="M161.38-1.745V-1068.409H261.514V-1.747l-100.134,0" fill="#a1cdcf"/><path d="M0-1.745V-1068.409H100.134V-1.747L0-1.745" fill="#a1cdcf"/><path d="M246.71-663.065l45.157,11.021,48.565-29.676h44.305l-61.345,78.006s-31.889,19.8-40.653,34.912c0,0-41.992-63.742-36.029-94.264" fill="#d1a588"/><path d="M820.973-663.065l-45.157,11.021L727.249-681.72h-44.3l61.348,78.006s31.889,19.8,40.652,34.912c0,0,41.992-63.742,36.028-94.264" fill="#d1a588"/><g clip-path="url(#a)"><path d="M710.325-469.165H357.36a34.507,34.507,0,0,1-34.552-34.387V-644.526A34.506,34.506,0,0,1,357.36-678.91H710.325a34.507,34.507,0,0,1,34.552,34.384v140.974a34.508,34.508,0,0,1-34.552,34.387M354.187-481.884v.515H394.14v-.515h319.9V-667.3H674.089v.516H353.639v184.9h.548" fill="url(#b)"/></g><path d="M710.325-679.5H357.36a35.094,35.094,0,0,0-35.137,34.969v140.976A35.1,35.1,0,0,0,357.36-468.58H710.325a35.1,35.1,0,0,0,35.136-34.971V-644.526A35.094,35.094,0,0,0,710.325-679.5Zm0,1.169a33.885,33.885,0,0,1,33.968,33.8v140.976a33.886,33.886,0,0,1-33.968,33.8H357.36a33.884,33.884,0,0,1-33.968-33.8V-644.526a33.884,33.884,0,0,1,33.968-33.8H710.325"/><path d="M353.81-481.884H710.585v-184.9H353.81Z" fill="#6a8c92"/><path d="M677.508-481.884H711v-184.9H677.508Z" fill="#b8cecf"/><path d="M623.529-481.884v-184.9h33.493v184.9H623.529" fill="#b8cecf"/><path d="M569.552-481.884v-184.9h33.492v184.9H569.552" fill="#b8cecf"/><path d="M515.573-481.884v-184.9h33.492v184.9H515.573" fill="#b8cecf"/><path d="M461.595-481.884v-184.9h33.493v184.9H461.595" fill="#b8cecf"/><path d="M407.618-481.884v-184.9H441.11v184.9H407.618" fill="#b8cecf"/><path d="M353.639-481.884h33.493v-184.9H353.639Z" fill="#b8cecf"/><path d="M136.792-275.358c-31.646-23.248-119.868-43.161-119.868-43.161L0-310.862V0H130.37l11.153-244.361-4.732-31" fill="#5f7b92"/><path d="M428.027-449.043s9.748-.443,12.092,2.187c0,0-1.007,2.764-9.379,3.837,0,0-4.927-3.879-2.713-6.024" fill="#f9e8d5"/><path d="M428.027-449.043s6.195,4.621,2.713,6.024c0,0-16.151,5.484-30.665,4.64,0,0,4.847-13.387,27.952-10.664" fill="#f7cebb"/><path d="M452.9-703.585s8.232-.748,6.819,3.212c0,0-9.117,6.276-16.2,5.479l9.379-8.691" fill="#f9e8d5"/><path d="M427.339-705.46l25.557,1.875s2.5,4.676-4.939,8.077c0,0-12.771,4.316-20.619-9.952" fill="#f7cebb"/><path d="M148.226-308.711l-11.435,33.353L16.923-318.519l27.208-50.617,104.1,60.425" fill="#6198bc"/><path d="M118.074-297.859a6.133,6.133,0,0,0,6.148,6.119,6.132,6.132,0,0,0,6.148-6.119,6.134,6.134,0,0,0-6.148-6.12,6.135,6.135,0,0,0-6.148,6.12" fill="#9ecee2"/><g clip-path="url(#c)"><path d="M735.77-574.039a8.5,8.5,0,0,1-8.521,8.48,8.5,8.5,0,0,1-8.519-8.48,8.5,8.5,0,0,1,8.519-8.479,8.5,8.5,0,0,1,8.521,8.479" fill="url(#d)"/></g><path d="M735.77-574.039h-.584a7.843,7.843,0,0,1-2.324,5.581,7.929,7.929,0,0,1-5.613,2.315,7.928,7.928,0,0,1-5.611-2.315,7.843,7.843,0,0,1-2.324-5.581,7.848,7.848,0,0,1,2.324-5.581,7.927,7.927,0,0,1,5.611-2.313,7.928,7.928,0,0,1,5.613,2.313,7.845,7.845,0,0,1,2.324,5.581h1.168a9.084,9.084,0,0,0-9.105-9.063,9.083,9.083,0,0,0-9.1,9.063,9.083,9.083,0,0,0,9.1,9.064,9.084,9.084,0,0,0,9.105-9.064h-.584"/><g clip-path="url(#e)"><path d="M342.99-534.188a5.1,5.1,0,0,1-5.112,5.087,5.1,5.1,0,0,1-5.113-5.087v-79.7a5.1,5.1,0,0,1,5.113-5.088,5.1,5.1,0,0,1,5.112,5.088v79.7" fill="url(#f)"/></g><path d="M1068.411-310.534l-17.651-7.985s-88.222,19.913-119.869,43.161l-4.729,31L937.31,0h131.1V-310.534" fill="#5f7b92"/><path d="M639.656-449.043s-9.748-.443-12.091,2.187c0,0,1.007,2.764,9.379,3.837,0,0,4.927-3.879,2.712-6.024" fill="#f9e8d5"/><path d="M639.656-449.043s-6.193,4.621-2.712,6.024c0,0,16.149,5.484,30.665,4.64,0,0-4.847-13.387-27.953-10.664" fill="#f7cebb"/><path d="M614.788-703.585s-8.233-.748-6.817,3.212c0,0,9.112,6.276,16.2,5.479l-9.38-8.691" fill="#f9e8d5"/><path d="M640.345-705.46l-25.557,1.875s-2.5,4.676,4.937,8.077c0,0,12.771,4.316,20.62-9.952" fill="#f7cebb"/><path d="M1008.417-358.678,856.757-635.934s-17.041-36.457-35.784-27.131-5.112,31.372-5.112,31.372-74.979-89.876-80.09-89.876-95.425,16.109-95.425,16.109-8.52,19.5-32.375,5.087c0,0-6.82,11.023,9.369,22.047s51.124,0,51.124,0,20.563,5.616,58.785-3.392c0,0,39.195,76.308,52.828,99.2,0,0,32.376,78.852.851,101.745s-74.124-.848-114.17,5.088-39.192,28.828-39.192,28.828,31.524-9.329,40.044,8.477c0,0,57.085,11.871,85.2,11.023,0,0,92.871-4.24,137.174,26.285s54.531,78.852,54.531,78.852l63.9-36.459" fill="#ebbea1"/><path d="M919.456-308.711l11.435,33.353,119.869-43.161-27.208-50.617-104.1,60.425" fill="#6198bc"/><path d="M949.61-297.859a6.132,6.132,0,0,1-6.148,6.119,6.136,6.136,0,0,1-6.152-6.119,6.138,6.138,0,0,1,6.152-6.12,6.134,6.134,0,0,1,6.148,6.12" fill="#9ecee2"/><path d="M570.232-547.276v-.585h-72.2v-52.355h71.613v52.94h.584v0h.584v-54.108H496.867v54.692h73.949v-.584h-.584" fill="#fff"/><g clip-path="url(#g)"><path d="M394.14-481.37H354.187v-.515H394.14v.515" fill="url(#h)"/></g><path d="M387.132-481.884h7.008v-184.9h-7.008Z" fill="#4a6266"/><path d="M354.187-481.884h32.945v-184.9H354.187Z" fill="#809090"/><path d="M389.647-628.108v-.583H359.263v-21.332h29.8v21.915h.583v0h.583v-23.079H358.1v23.66H390.23v-.581h-.583" fill="#fff"/><path d="M387.107-630.382H361.22v-17.947h25.887v17.947" fill="#fff"/><path d="M390.774-561.157l-1.111,1.1L372.9-576.641l1.113-1.1,16.764,16.584" fill="#fff"/><path d="M371.63-582.041a2.14,2.14,0,0,1,0,3.047,2.2,2.2,0,0,1-3.08,0,2.139,2.139,0,0,1,0-3.047,2.193,2.193,0,0,1,3.079,0" fill="#fff"/><path d="M361.564-589.629l-.687.677,5.647,5.584.685-.677-5.645-5.584" fill="#fff"/><path d="M357.555-579.913l.083.957,7.952-.691-.083-.956-7.952.689" fill="#fff"/><path d="M362.5-570.628l.793.551,4.577-6.472-.792-.548-4.579,6.469" fill="#fff"/><path d="M372.87-568.411l.937-.248-2.067-7.627-.936.247,2.065,7.628" fill="#fff"/><path d="M370.7-592.917l.965.081-.7,7.868-.965-.083.7-7.867" fill="#fff"/><path d="M380.086-588.023l.559.783-6.541,4.531-.556-.784,6.539-4.529" fill="#fff"/><path d="M382.328-577.768l-.247.928-7.713-2.045.251-.927,7.709,2.044" fill="#fff"/><path d="M374.163-502.587a6.474,6.474,0,0,1-6.508-6.44,6.474,6.474,0,0,1,6.508-6.439,6.475,6.475,0,0,1,6.511,6.439A6.475,6.475,0,0,1,374.163-502.587Zm7.789-16.752v-4.884H366.378v4.884h-7.745v20.624H389.7v-20.624h-7.744" fill="#fff"/><g clip-path="url(#i)"><path d="M714.044-481.885H711v-184.9H674.089v-.516h39.955v185.419" fill="url(#j)"/></g><path d="M677.508-481.885h-3.419v-184.9h3.419v184.9" fill="#4a6266"/><path d="M711-481.885H677.508v-184.9H711v184.9" fill="#809090"/><path d="M694.065-638.185a3.87,3.87,0,0,1-3.888-3.849,3.87,3.87,0,0,1,3.888-3.849,3.873,3.873,0,0,1,3.895,3.849A3.873,3.873,0,0,1,694.065-638.185Zm4.659-10.016v-2.919h-9.311v2.919h-4.632v12.331h18.573V-648.2h-4.631" fill="#fff"/><path d="M703.354-613.957l-4.168,2.4v-3.989H684.781v12.543h14.405V-607l4.168,2.395v-9.355" fill="#fff"/><path d="M696.294-620.488a2.221,2.221,0,0,1-2.228,2.217,2.22,2.22,0,0,1-2.225-2.217v-10.34a2.221,2.221,0,0,1,2.225-2.217,2.222,2.222,0,0,1,2.228,2.217v10.34" fill="#333"/><path d="M696.294-630.828a2.223,2.223,0,0,1-2.228,2.217,2.222,2.222,0,0,1-2.225-2.217,2.221,2.221,0,0,1,2.225-2.217,2.222,2.222,0,0,1,2.228,2.217" fill="#fff"/><path d="M706.95-574.6a12.853,12.853,0,0,1-12.884,12.823A12.853,12.853,0,0,1,681.184-574.6a12.852,12.852,0,0,1,12.883-12.82A12.852,12.852,0,0,1,706.95-574.6" fill="#fff"/><path d="M701.486-574.6a7.4,7.4,0,0,1-7.42,7.383,7.4,7.4,0,0,1-7.419-7.383,7.4,7.4,0,0,1,7.419-7.381,7.4,7.4,0,0,1,7.42,7.381" fill="red"/><path d="M701.486-574.6H700.9a6.753,6.753,0,0,1-2,4.807,6.826,6.826,0,0,1-4.835,1.992,6.826,6.826,0,0,1-4.833-1.992,6.762,6.762,0,0,1-2-4.807,6.759,6.759,0,0,1,2-4.805,6.837,6.837,0,0,1,4.833-1.992,6.82,6.82,0,0,1,6.836,6.8h1.168a7.989,7.989,0,0,0-8-7.965,7.984,7.984,0,0,0-8,7.965,7.987,7.987,0,0,0,8,7.968,7.986,7.986,0,0,0,8-7.968h-.584" fill="#fff"/><path d="M709.762-492.157a3.207,3.207,0,0,1-3.213,3.2H681.585a3.2,3.2,0,0,1-3.212-3.2V-517.8a3.2,3.2,0,0,1,3.212-3.2h24.964a3.207,3.207,0,0,1,3.213,3.2v25.645" fill="#fff"/><path d="M59.265-358.678,210.926-635.934s17.041-36.457,35.784-27.131,5.112,31.372,5.112,31.372,74.98-89.876,80.092-89.876,95.425,16.109,95.425,16.109,8.52,19.5,32.376,5.087c0,0,6.817,11.023-9.371,22.047s-51.123,0-51.123,0-20.567,5.616-58.789-3.392c0,0-39.192,76.308-52.825,99.2,0,0-32.376,78.852-.852,101.745s74.125-.848,114.172,5.088,39.192,28.828,39.192,28.828-31.525-9.329-40.044,8.477c0,0-57.086,11.871-85.2,11.023,0,0-92.868-4.24-137.174,26.285s-54.529,78.852-54.529,78.852l-63.9-36.459" fill="#ebbea1"/><g transform="translate(626.16 -785.926) rotate(4.031)"><path d="M14.285,1.164A7.494,7.494,0,0,1,10.546.212a8.76,8.76,0,0,1-2.892-2.54A15.215,15.215,0,0,1,5.749-6.1,36.274,36.274,0,0,1,4.374-11.04,48.7,48.7,0,0,1,3.633-16.3q-.282-3.069-.353-5.926-.106-2.54-.106-5.714,0-2.645.035-4.585t.035-4.056a37.308,37.308,0,0,1,.494-6.666A12.612,12.612,0,0,1,3.527-45.5a8.839,8.839,0,0,1,1.481-5.079A9.856,9.856,0,0,1,9.135-54a14.1,14.1,0,0,1,5.89-1.2,6.311,6.311,0,0,1,2.328.459,4.981,4.981,0,0,1,1.94,1.27,2.469,2.469,0,0,1,.776,1.8,1.44,1.44,0,0,1-.6,1.2,2.285,2.285,0,0,1-1.411.423,5.328,5.328,0,0,1-1.552-.247,1.666,1.666,0,0,1-1.023-.635v.035H14.5v-.176a7.8,7.8,0,0,0-4.444,1.164,4.784,4.784,0,0,0-1.2,1.34A8.673,8.673,0,0,0,8.007-46.8a11.7,11.7,0,0,0-.423,2.01q-.141,1.27-.176,2.257-.035.6-.035,2.328,0,.847.106,2.5.106,1.622.106,2.469a14.574,14.574,0,0,1-.317,2.5,15.163,15.163,0,0,0-.317,2.54v1.728q0,3.668.176,7.724.071,2.293.282,4.091.247,1.8.67,4.162a22.1,22.1,0,0,0,.952,3.562,17.638,17.638,0,0,0,1.517,2.963A5.277,5.277,0,0,0,15.237-3.28a5.735,5.735,0,0,0,3.069-1.305,6,6,0,0,1,2.716-1.27,3.1,3.1,0,0,1,2.116,1.093A4.942,4.942,0,0,1,22.574-2.4,4.714,4.714,0,0,1,21.127-.67,8.224,8.224,0,0,1,19.046.388a12.787,12.787,0,0,1-2.4.6,17.8,17.8,0,0,1-2.363.176Z" fill="#fff"/><path d="M30.545.811A2.387,2.387,0,0,1,28.852.106a2.073,2.073,0,0,1-.741-1.587A6.977,6.977,0,0,1,28.358-3.1a8.364,8.364,0,0,0,.212-1.552q0-7.795-.705-24.655-.741-16.4-.741-24.619a1.337,1.337,0,0,1,.494-1.058,1.969,1.969,0,0,1,1.27-.423,2.07,2.07,0,0,1,1.517.635,1.873,1.873,0,0,1,.67,1.446q0,3.915.388,13.015.353,8.253.353,12.98l.071.882q.035.388.035.882a2.286,2.286,0,0,1-.035.529v.317q.282,6.7.282,18.835v1.834h5.5Q39.222-3,39.222-1.9a2.2,2.2,0,0,1-.529,1.446,1.673,1.673,0,0,1-1.305.6A2.167,2.167,0,0,1,36.647,0l-.353-.106a5.491,5.491,0,0,1-1.376.141L33.755-.035q-.529-.035-1.164-.035a2.528,2.528,0,0,1-2.046.882Z" fill="#fff"/><path d="M46.946-.106Q40.7-.106,40.7-2.257q0-1.728,2.187-1.728.494,0,.847.035l.67.071a.92.92,0,0,0,.811-.353,2.643,2.643,0,0,0,.247-1.34q0-5.855-.67-16.719-.67-10.828-.67-16.683l.071-3.7.071-3.668q0-2.152-.176-4.021a5.436,5.436,0,0,1-1.693.317A1.512,1.512,0,0,1,40.7-51.778a1.785,1.785,0,0,1,1.058-1.481,7.834,7.834,0,0,1,2.751-.988,29.253,29.253,0,0,1,5.114-.529,2.09,2.09,0,0,1,1.481.6,1.773,1.773,0,0,1,.635,1.376,2.1,2.1,0,0,1-.494,1.376,1.471,1.471,0,0,1-1.2.564,5.849,5.849,0,0,1-.705-.035H48.78a1.46,1.46,0,0,0-1.058.317,1.642,1.642,0,0,0-.317,1.164q0,7.336.882,21.127T49.168-7.16v2.786A10.462,10.462,0,0,1,50.65-4.48q3,0,3,2.54v.423l-1.8,1.234-1.9.071q-1.728.106-3,.106Z" fill="#fff"/><path d="M67.58,1.164A7.494,7.494,0,0,1,63.841.212a8.76,8.76,0,0,1-2.892-2.54,15.215,15.215,0,0,1-1.9-3.774,36.273,36.273,0,0,1-1.376-4.938,48.7,48.7,0,0,1-.741-5.255q-.282-3.069-.353-5.926-.106-2.54-.106-5.714,0-2.645.035-4.585t.035-4.056a37.308,37.308,0,0,1,.494-6.666,12.612,12.612,0,0,1-.212-2.257A8.839,8.839,0,0,1,58.3-50.579,9.856,9.856,0,0,1,62.43-54a14.1,14.1,0,0,1,5.89-1.2,6.311,6.311,0,0,1,2.328.459,4.981,4.981,0,0,1,1.94,1.27,2.469,2.469,0,0,1,.776,1.8,1.44,1.44,0,0,1-.6,1.2,2.285,2.285,0,0,1-1.411.423A5.328,5.328,0,0,1,69.8-50.3a1.666,1.666,0,0,1-1.023-.635v.035h-.988v-.176a7.8,7.8,0,0,0-4.444,1.164,4.784,4.784,0,0,0-1.2,1.34A8.672,8.672,0,0,0,61.3-46.8a11.7,11.7,0,0,0-.423,2.01q-.141,1.27-.176,2.257-.035.6-.035,2.328,0,.847.106,2.5.106,1.622.106,2.469a14.574,14.574,0,0,1-.317,2.5,15.164,15.164,0,0,0-.317,2.54v1.728q0,3.668.176,7.724.071,2.293.282,4.091.247,1.8.67,4.162a22.1,22.1,0,0,0,.952,3.562,17.637,17.637,0,0,0,1.517,2.963A5.277,5.277,0,0,0,68.532-3.28,5.735,5.735,0,0,0,71.6-4.585a6,6,0,0,1,2.716-1.27,3.1,3.1,0,0,1,2.116,1.093A4.942,4.942,0,0,1,75.868-2.4,4.713,4.713,0,0,1,74.422-.67,8.224,8.224,0,0,1,72.341.388a12.787,12.787,0,0,1-2.4.6,17.8,17.8,0,0,1-2.363.176Z" fill="#fff"/><path d="M97.525,1.693a3.548,3.548,0,0,1-.882-.141,3.426,3.426,0,0,0-.811-.141q-1.94-11.075-3.915-18.482a86.478,86.478,0,0,0-4.9-13.967q-.564.988-1.481,2.822a6.5,6.5,0,0,0-.776,2.152q-.035.176-.141,1.093-.071.882-.071,2.046,0,2.54.247,6.7Q85-11.78,85-9.523V-3.6Q85,.247,82.535.247q-2.116,0-2.116-4.056,0-3,.494-9.735.459-6.278.459-9.735l.071-6.208q.035-3.174.035-7.513a75.211,75.211,0,0,0-.529-8.324q-.529-4.726-.529-6.737a2.348,2.348,0,0,1,.6-1.622,1.873,1.873,0,0,1,1.446-.67q2.681,0,2.681,5.855l-.317,14.849Q85-34.037,86.2-37.176,88.5-43.137,91.141-49.2a40.536,40.536,0,0,1,2.61-5.114q1.234-1.975,1.9-1.975a2.034,2.034,0,0,1,1.446.564,1.71,1.71,0,0,1,.6,1.34q0,.705-3.915,8.959Q89.8-37.176,89.342-34.954v1.27q1.129,2.822,5.784,17.636Q99.818-1.27,99.818-.388a1.836,1.836,0,0,1-.705,1.446,2.312,2.312,0,0,1-1.587.635Z" fill="#fff"/><path d="M107.047-10.793q-.741,0-1.34-1.764a16.734,16.734,0,0,1-.635-5.326q0-1.376.141-5.185.141-3.562.141-5.89,0-3.1-.176-11.851T105-52.66a2.506,2.506,0,0,1,.917-1.94,3.153,3.153,0,0,1,2.152-.847,1.619,1.619,0,0,1,1.234.529,1.618,1.618,0,0,1,.529,1.234q0,5.784-.741,17.283-.776,11.216-.776,17.248,0,3.774-.106,5.5a8.043,8.043,0,0,1-.353,2.293.838.838,0,0,1-.811.564ZM105.742,1.622a2.284,2.284,0,0,1-1.658-.811,2.745,2.745,0,0,1-.741-1.975,3.293,3.293,0,0,1,.882-2.257,2.741,2.741,0,0,1,2.116-.988,2.609,2.609,0,0,1,2.152,1.023A3.761,3.761,0,0,1,109.3-.917q0,2.54-3.562,2.54Z" fill="#fff"/></g><path d="M639.65-859.394c-5.1-9.139-8.864-18.881-12.951-28.492-1.007-2.368-4.451-.328-3.452,2.017,4.085,9.612,7.851,19.353,12.949,28.493,1.257,2.252,4.712.236,3.453-2.019" fill="#fff"/><path d="M678.736-888.7a80.528,80.528,0,0,0-3.957,23.844c-.031,2.581,3.969,2.577,4,0a76.788,76.788,0,0,1,3.813-22.78c.792-2.463-3.071-3.509-3.856-1.064" fill="#fff"/><path d="M740.526-875.654a117.585,117.585,0,0,0-23.719,21.036c-1.66,1.953,1.156,4.8,2.829,2.828A113.8,113.8,0,0,1,742.544-872.2c2.123-1.437.124-4.905-2.017-3.455" fill="#fff"/><path d="M639.65-756.355c-5.1,9.139-8.864,18.881-12.951,28.492-1.007,2.368-4.451.327-3.452-2.019,4.085-9.611,7.851-19.353,12.949-28.493,1.257-2.252,4.712-.235,3.453,2.02" fill="#fff"/><path d="M678.736-727.046a80.52,80.52,0,0,1-3.957-23.843c-.031-2.581,3.969-2.577,4,0a76.8,76.8,0,0,0,3.813,22.78c.792,2.463-3.071,3.508-3.856,1.063" fill="#fff"/><path d="M740.526-740.1a117.578,117.578,0,0,1-23.719-21.035c-1.66-1.953,1.156-4.8,2.829-2.828a113.8,113.8,0,0,0,22.907,20.409c2.123,1.437.124,4.905-2.017,3.453" fill="#fff"/></g></svg>