<svg xmlns="http://www.w3.org/2000/svg" xmlns:xlink="http://www.w3.org/1999/xlink" width="603" height="602" viewBox="0 0 603 602"><defs><clipPath id="a"><path d="M229.9-452.993l165.112,4.172v-73.732L229.9-509.914v56.922" transform="translate(-229.901 522.552)"/></clipPath></defs><g transform="translate(-5143 -14388)"><g transform="translate(-13.37)"><rect width="302" height="302" transform="translate(5457.37 14388)" fill="#f5ab5a"/><rect width="301" height="302" transform="translate(5156.37 14388)" fill="#86d5b5"/><rect width="301" height="302" transform="translate(5156.37 14688)" fill="#655898"/><rect width="302" height="302" transform="translate(5457.37 14688)" fill="#f7921a"/></g><g transform="translate(-1102.321 678.001)"><path d="M306.316-453.042c-3.252,5.957-5.624,11.814-4.781,13.644s4.122,6.387,8.062,13.28,6.329,11.394,6.046,12.519c0,0,4.081-.14,4.643-3.8a43.85,43.85,0,0,1-2.954-7.735c-.845-3.517-2.684-12.3-5.778-15.119l3.624-10.258-8.862-2.532" transform="translate(6123.242 14352.541)" fill="#f8a570"/><path d="M313.979-426.648a8.371,8.371,0,0,0,4.273-3.618,6.4,6.4,0,0,0,3.067,2.684c2.109.843,2.532,2.674,3.094,4.361s-2.11,3.939-4.219,3.939-4.643,2.672-5.488,4.219-4.608,4.359-8.827,3.657-2.25-3.939,0-4.361,5.515-5.906,5.733-6.611,2.366-4.27,2.366-4.27" transform="translate(6124.178 14363.007)" fill="#353a4b"/><path d="M316.421-450.17c-.716,7.6-.578,14.872.759,16.376s6.661,5.087,12.431,10.538,9.366,9.065,9.425,10.223c0,0,3.861-1.319,3.339-4.982a44.126,44.126,0,0,1-5.075-6.544c-1.827-3.12-6.912-10.584-10.692-12.379l.4-11.451L316.42-450.17" transform="translate(6129.964 14353.86)" fill="#f8a570"/><path d="M335.752-429.263s-2.516,3.4-3.935,3.686c0,0,.107,5.972-.6,8.364s-4.923,5.908-3.8,7.6,6.344,1.547,8.73,0,1.679-5.626,2.664-7.455,2.411-2.878,2.974-4.427,1.127-3.234-1.125-4.781-4.914-2.981-4.914-2.981" transform="translate(6135.13 14363.468)" fill="#353a4b"/><path d="M310.3-464.314c-4.221,7.315-9,21.661-9,21.661s7.414,6.323,13.6,6.6l5.245-11.669v13.646s6.469,3.232,16.6-.142c0,0-1.689-12.237-1.127-20.254.4-5.62-2.557-11.252-2.557-11.252L310.3-464.314" transform="translate(6123.209 14346.715)" fill="#efefed"/><path d="M308.135-469.788c-.3-3.736-3.6-12.8-5.681-17.407s-.413-10.452.9-15.487,2.364-7.876,1.308-10.372-4.285-13.352-1.753-11.151,3.369,7.282,4.4,6.817,1.742-2.3,2.656-1.568-1.057,2.841-1.448,8.605-.154,19.388-.154,19.388l7.572,14.311-7.8,6.864" transform="translate(6123.291 14319.704)" fill="#f8a570"/><path d="M302.739-494.611c1.827,3.374,4.262,7.8,4.262,12.585v30.944c0,1.127,9.473,7.035,27.877,2.252,0,0,.745-1.405-1.691-8.156s-5.176-10.411-3.349-17.162c1.37-5.064,1.884-7.167,3.517-12.571.376-1.242-2.742-2.061-3.324-3.579-2.324-6.074-15.28-2.362-20.151-9.113l-7.14,4.8" transform="translate(6123.874 14331.232)" fill="#f14c33"/><path d="M321.368-495.206c-1.812,1.641-1.041,4.026-2.265,5.064s-7.2,2.4-8.483,1-.15-1.637.909-5.443,9.839-.621,9.839-.621" transform="translate(6127.233 14332.591)" fill="#f8a570"/><path d="M310.341-492.233h0a28.334,28.334,0,0,0,1.055-2.94,21.741,21.741,0,0,1-1.055,2.94m9.627-1.2c0-.01,0-.021.006-.033,0,.012,0,.023-.006.033h0" transform="translate(6127.367 14333.18)" fill="#f1462f"/><path d="M313.129-490.5a3.443,3.443,0,0,1-2.789-1.146,21.762,21.762,0,0,0,1.055-2.94h0c.4-1.424,1.87-1.868,3.563-1.868a22.214,22.214,0,0,1,6.276,1.247h0a3.608,3.608,0,0,0-1.261,2.326c0,.012,0,.023-.006.033-1.757,1-4.554,2.349-6.838,2.349" transform="translate(6127.367 14332.592)" fill="#f79460"/><path d="M321.791-507.612a8.428,8.428,0,0,0-10.238,5.289c-1.851,4.758-.411,3.74-1.438,5.141s-1.465,4.342,1.107,8.642,10.876.088,11.538-1.382c0,0,1.679.576,2.557-.5s2.059-3.474-.22-3.427a1.966,1.966,0,0,0,2.534-1.218c.827-1.884,2.6-9.72-5.84-12.546" transform="translate(6126.892 14327.299)" fill="#f8a570"/><path d="M323.16-491.42a4.479,4.479,0,0,1-2.645.541s1.08-5.056,1.987-6.546c0,0-3.427.232-4.852-.722a9.474,9.474,0,0,0,2.078-1.362,22.974,22.974,0,0,1-5.9-.44,5.566,5.566,0,0,1-3.814-3.19c.452-.257,2.277-.6,2.489-1.812.342-1.969,3.326-3.5,4.392-3.5,1.623,0,3.046.518,4.534.366s4.8.868,5.225,3.353a4.946,4.946,0,0,1,2.715,3.223c.535,2.322-.819,6.114-1.872,8.5-1.7,3.865-4.244,4.8-6.395,4.519l2.059-2.927" transform="translate(6127.216 14327.076)" fill="#49271b"/><path d="M320.179-496.213s.722-1.448,1.4-1.7,1.691-.1,1.152.994-1.487,3.573-3.526,2.87a20.948,20.948,0,0,1-2.7,1.641l2.026-2.292,1.652-1.508" transform="translate(6130.198 14331.869)" fill="#f8a570"/><path d="M318.375-478.98a103.737,103.737,0,0,0,9.907-12.108s-1.921-5.521-1.709-8.677,0-11.832-1.066-13.408-4.91-4.536-4.058-5.326,2.989,2.366,4.272,2.366.212-5.521.424-7.3,1.5-4.536,2.137-3.748,1.281,9.467,1.495,13.41,4.482,17.355,4.7,21.693-11.74,24.061-11.74,24.061l-4.357-10.966" transform="translate(6131.059 14318.409)" fill="#f8a570"/><path d="M321.455-496.517l6.465,8.843-5.237,12.2-4.375-18.026,3.147-3.012" transform="translate(6131.028 14332.563)" fill="#f14c33"/><path d="M316.012-444.9h0a33.782,33.782,0,0,1-13.737-6.949c-.613,1.72-.981,2.826-.981,2.826s7.414,6.323,13.6,6.6l1.115-2.481" transform="translate(6123.209 14353.088)" fill="#454a61"/><path d="M330.422-446.3a34.083,34.083,0,0,1-16.214.769v2.538s6.469,3.232,16.6-.142c0,0-.169-1.232-.383-3.164" transform="translate(6129.144 14355.639)" fill="#454a61"/><path d="M333.536-463.242s.481-.919-.607-4.811a23.318,23.318,0,0,1-11.178,3.98c-8.251.51-12.4-1.576-16.092-3.8v2.386c0,1.125,9.473,7.033,27.877,2.25" transform="translate(6125.216 14345.643)" fill="#353a4b"/><path d="M317.149-438.75a27.716,27.716,0,0,1-2.925-.44l.2-20.9,2.728,21.342" transform="translate(6129.152 14349.301)" fill="#e0e1de"/><path d="M317.554-442.233h0l-3.343-1h0l.025-2.534a27.716,27.716,0,0,0,2.925.44l.4,3.1" transform="translate(6129.144 14355.882)" fill="#41465b"/><g transform="translate(6320.303 13798.047)" clip-path="url(#a)"><path d="M229.911-509.789l-.016-.193,165.112-12.636.014.193-165.11,12.636" transform="translate(-229.903 522.522)" fill="#989b9f"/><path d="M229.909-506.725l-.014-.193,165.114-11.108.01.193-165.11,11.108" transform="translate(-229.903 524.632)" fill="#989b9f"/><path d="M229.908-503.66l-.012-.193,165.112-9.58.01.195-165.11,9.578" transform="translate(-229.903 526.742)" fill="#989b9f"/><path d="M229.907-500.594l-.01-.195,165.114-8.053.006.195-165.11,8.053" transform="translate(-229.903 528.853)" fill="#989b9f"/><path d="M229.906-497.532l-.008-.193,165.112-6.523.006.193-165.11,6.523" transform="translate(-229.902 530.963)" fill="#989b9f"/><path d="M229.9-494.466l-.006-.195,165.112-5,.006.195-165.112,5" transform="translate(-229.902 533.074)" fill="#989b9f"/><path d="M229.9-491.4l0-.195,165.112-3.466,0,.193L229.9-491.4" transform="translate(-229.901 535.184)" fill="#989b9f"/><path d="M229.9-488.338l0-.195,165.112-1.938,0,.193L229.9-488.338" transform="translate(-229.901 537.294)" fill="#989b9f"/><path d="M229.9-485.274v-.193l165.112-.413v.195l-165.112.411" transform="translate(-229.901 539.405)" fill="#989b9f"/><path d="M395.013-480.741,229.9-481.858l0-.193,165.112,1.115v.195" transform="translate(-229.901 541.164)" fill="#989b9f"/><path d="M395.011-475.666,229.9-478.313l0-.193,165.11,2.645,0,.195" transform="translate(-229.901 542.793)" fill="#989b9f"/><path d="M395.012-470.593,229.9-474.768l.006-.193,165.11,4.172,0,.195" transform="translate(-229.902 544.422)" fill="#989b9f"/><path d="M233.215-440.535h-.193v-83.911h.193v83.911" transform="translate(-228.466 521.681)" fill="#989b9f"/><path d="M237.307-440.535h-.195v-83.911h.195v83.911" transform="translate(-226.587 521.681)" fill="#989b9f"/><path d="M241.2-440.535h.195v-83.911H241.2Z" transform="translate(-224.706 521.681)" fill="#989b9f"/><path d="M245.3-440.535h.193v-83.911H245.3Z" transform="translate(-222.825 521.681)" fill="#989b9f"/><path d="M249.389-440.535h.195v-83.911h-.195Z" transform="translate(-220.945 521.681)" fill="#989b9f"/><path d="M253.481-440.535h.195v-83.911h-.195Z" transform="translate(-219.065 521.681)" fill="#989b9f"/><path d="M257.573-440.535h.195v-83.911h-.195Z" transform="translate(-217.185 521.681)" fill="#989b9f"/><path d="M261.665-440.535h.195v-83.911h-.195Z" transform="translate(-215.304 521.681)" fill="#989b9f"/><path d="M265.951-440.535h-.195v-83.911h.195v83.911" transform="translate(-213.424 521.681)" fill="#989b9f"/><path d="M270.043-440.535h-.195v-83.911h.195v83.911" transform="translate(-211.543 521.681)" fill="#989b9f"/><path d="M274.135-440.535h-.195v-83.911h.195v83.911" transform="translate(-209.663 521.681)" fill="#989b9f"/><path d="M278.227-440.535h-.195v-83.911h.195v83.911" transform="translate(-207.783 521.681)" fill="#989b9f"/><path d="M282.319-440.535h-.193v-83.911h.193v83.911" transform="translate(-205.902 521.681)" fill="#989b9f"/><path d="M286.411-440.535h-.195v-83.911h.195v83.911" transform="translate(-204.022 521.681)" fill="#989b9f"/><path d="M290.5-440.535h-.195v-83.911h.195v83.911" transform="translate(-202.141 521.681)" fill="#989b9f"/><path d="M294.595-440.535H294.4v-83.911h.193v83.911" transform="translate(-200.26 521.681)" fill="#989b9f"/><path d="M298.687-440.535h-.195v-83.911h.195v83.911" transform="translate(-198.381 521.681)" fill="#989b9f"/><path d="M302.779-440.535h-.195v-83.911h.195v83.911" transform="translate(-196.5 521.681)" fill="#989b9f"/><path d="M306.869-440.535h-.193v-83.911h.193v83.911" transform="translate(-194.62 521.681)" fill="#989b9f"/><path d="M310.963-440.535h-.195v-83.911h.195v83.911" transform="translate(-192.739 521.681)" fill="#989b9f"/><path d="M315.055-440.535h-.195v-83.911h.195v83.911" transform="translate(-190.859 521.681)" fill="#989b9f"/><path d="M319.145-440.535h-.193v-83.911h.193v83.911" transform="translate(-188.978 521.681)" fill="#989b9f"/><path d="M323.239-440.535h-.195v-83.911h.195v83.911" transform="translate(-187.098 521.681)" fill="#989b9f"/><path d="M327.331-440.535h-.193v-83.911h.193v83.911" transform="translate(-185.217 521.681)" fill="#989b9f"/><path d="M331.421-440.535h-.193v-83.911h.193v83.911" transform="translate(-183.337 521.681)" fill="#989b9f"/><path d="M335.515-440.535h-.195v-83.911h.195v83.911" transform="translate(-181.457 521.681)" fill="#989b9f"/><path d="M339.607-440.535h-.193v-83.911h.193v83.911" transform="translate(-179.576 521.681)" fill="#989b9f"/></g><path d="M230-508.64l-.148-1.94,165.11-12.636.15,1.94L230-508.64" transform="translate(6090.379 14320.293)" fill="#62676a"/><path d="M395-469.442l-165.112-4.172.051-1.946,165.11,4.172L395-469.442" transform="translate(6090.394 14342.192)" fill="#62676a"/><path d="M251.726-451.531c-3.775,4.32-4.914,6.362-6.4,10.66s-.808,12.869-2.536,19.385-3.75,8.553-3.75,8.553l6.126,2.528,14.025-38.773-7.469-2.353" transform="translate(6094.604 14353.235)" fill="#f8a570"/><path d="M251.855-446.479l.8-2.2h0l-.794,2.2h0" transform="translate(6100.491 14354.546)" fill="#fde0ce"/><path d="M253.738-445.511c-2.678,0-6.515-1.3-8.127-1.892l1.783-2.018-.481-.391c.21-.263.43-.533.664-.813a46.589,46.589,0,0,0,7.944,2.843l-.8,2.2a6.043,6.043,0,0,1-.987.072" transform="translate(6097.622 14353.651)" fill="#f79460"/><path d="M233.713-419.541c1.339-1.251,3.125-3.162,5.332-3.713s4.059-3.68,4.059-3.68a5.878,5.878,0,0,0,5.589,3.435s-2.5,4.875-2.435,7.463,1.477,6.87,2.837,8.315a3.349,3.349,0,0,1,.121,4.807c-1.349,1.639-5.317-2.168-8.317-5.585-4.871-5.548-8.9-9.446-7.187-11.042" transform="translate(6091.97 14364.538)" fill="#2b6c8b"/><path d="M267.776-478.076c1.234,15.782-.786,17.81-3.5,27.427A73.639,73.639,0,0,1,256.1-432.7s-10.764-2.713-11.011-5.426,14.8-45.131,14.8-45.131l7.891,5.18" transform="translate(6097.379 14338.656)" fill="#f9a83b"/><path d="M256.1-432.7l-.335-.088a46.588,46.588,0,0,1-7.944-2.843c-1.516-.773-2.652-1.635-2.732-2.495,0-.023,0-.049,0-.076.006-3.339,14.8-45.055,14.8-45.055l7.891,5.18c.255,3.252.37,5.92.372,8.191,0,.325,0,.64-.008.95-.121,8.018-1.788,10.935-3.863,18.287A73.637,73.637,0,0,1,256.1-432.7" transform="translate(6097.38 14338.656)" fill="#f79632"/><path d="M250.843-453.18c-5.1,2.631-6.9,4.11-9.864,7.562s-5.48,11.674-9.481,17.1-6.63,6.578-6.63,6.578l4.768,4.6,27.291-30.907-6.083-4.933" transform="translate(6088.089 14352.477)" fill="#f8a570"/><path d="M228.231-431.706c-2.59,1.526-8.261,4.157-7.893,5.429s2.345,3.742,3.33,7.07,3.7,9.742,6.288,9.495,1.975-4.931,1.358-8.138.082-8.053,2.273-10.534c0,0-3.219-4.215-3.116-5.348l-2.24,2.026" transform="translate(6086 14361.414)" fill="#2b6c8b"/><path d="M247.553-490.825a27.043,27.043,0,0,1,3.583-5.731c1.465-1.829,2.357-4.632,3.024-6.924,1.374-4.708,1.393-6.965,3.186-10.427s4.776-8.917,5.132-11.065.948-6.973,4.528-9.958,3.427-4.894,4.373-3.779c.5.594-2.89,4.106-2.652,4.425.138.183,1.641-.917,2.689-2.086.952-1.061,1.569-1.487,1.929-1.1.586.631-3.263,3.74-3.026,4.137.111.187.866-.356,1.693-.9.946-.621,1.991-1.24,2.289-.775.557.878-3.106,2.787-3.026,3.106.039.15.65-.142,1.323-.436.751-.327,1.58-.654,1.759-.36.341.557-2.923,2.388-3.559,2.944a40.3,40.3,0,0,0-4.059,4.3c-.856,1.226-1.831,3.9-2.547,10.267a33.917,33.917,0,0,1-4.059,12.735c-1.432,2.946-4.8,16.442-4.347,17.614,0,0-5.92-.578-7.274-2.012s-.956-3.98-.956-3.98" transform="translate(6098.489 14313.025)" fill="#f8a570"/><path d="M259.05-532.052c-.1-.02.358-.767,1.29-1.463.224-.181.465-.376.689-.594a4.489,4.489,0,0,0,.6-.74l.341-.453c.214-.148.047-.335.78-.523.666.23.471.539.547.615a1,1,0,0,1-.041.457,3.793,3.793,0,0,1-.265.638c-.413.7-.872,1.319-1.267,1.915-.165.271-.448.638-.416.691q.053.476.1.893a2.49,2.49,0,0,1-.455,1.921,1.457,1.457,0,0,0,.125-.508,3.869,3.869,0,0,0-.2-1.319c-.072-.288-.175-.521-.267-.94a2.05,2.05,0,0,1,.411-1.177c.372-.63.8-1.282,1.129-1.928l.212-.411.037-.105c.051-.1-.169-.039.294.148.356-.1-.033.07-.066.185l-.342.409a3.262,3.262,0,0,1-.821.773c-.292.2-.572.356-.827.5-.508.288-.959.457-1.226.654a.864.864,0,0,0-.362.366" transform="translate(6103.792 14314.499)" fill="#f8a570"/><path d="M239.487-483.153a27.785,27.785,0,0,1,3.077-6.264c1.314-2.034,1.932-5.005,2.38-7.432.915-4.982.7-7.3,2.176-11.048s3.968-9.662,4.11-11.908.239-7.265,3.6-10.707,3.007-5.389,4.094-4.342c.582.558-2.538,4.523-2.257,4.824.16.175,1.586-1.115,2.542-2.425.868-1.191,1.456-1.693,1.866-1.331.667.588-2.96,4.186-2.672,4.569.134.181.864-.469,1.668-1.119.9-.732,1.894-1.461,2.246-1.016.664.841-2.9,3.188-2.783,3.507.056.152.668-.224,1.337-.6.734-.411,1.533-.823,1.748-.543.407.537-2.754,2.761-3.349,3.4a41.879,41.879,0,0,0-3.717,4.844c-.753,1.35-1.471,4.2-1.537,10.818a35.063,35.063,0,0,1-2.832,13.509c-1.164,3.178-3.2,17.4-2.615,18.554,0,0-6.144.027-7.685-1.3s-1.4-3.989-1.4-3.989" transform="translate(6094.806 14314.815)" fill="#f8a570"/><path d="M248.393-477.862c-.054,0-.187,0-.381,0l-.193,0a25.636,25.636,0,0,1-5.78-.677c-.066-.019-.13-.039-.195-.06l-.152-.051c-.156-.056-.3-.117-.438-.181a2.432,2.432,0,0,1-.52-.327h0c-1.541-1.331-.685-3.627-.685-3.627.625-1.964,1.051-4.591,2.362-6.626s1.932-5.005,2.38-7.432c.915-4.982.7-7.3,2.176-11.048s3.968-9.662,4.11-11.908.239-7.265,3.6-10.707c2.75-2.812,3.014-4.626,3.61-4.626a.791.791,0,0,1,.485.284.283.283,0,0,1,.074.214c0,.952-2.349,4.026-2.349,4.552a.084.084,0,0,0,.017.058.051.051,0,0,0,.043.016,8.335,8.335,0,0,0,2.5-2.44c.683-.936,1.191-1.446,1.578-1.446a.43.43,0,0,1,.288.115.262.262,0,0,1,.082.208c0,.921-2.765,3.754-2.769,4.3a.08.08,0,0,0,.016.058.08.08,0,0,0,.07.031,6.409,6.409,0,0,0,1.6-1.15,4.523,4.523,0,0,1,1.942-1.152.371.371,0,0,1,.3.136.391.391,0,0,1,.082.249c0,.963-2.868,2.9-2.866,3.242a.038.038,0,0,0,0,.016c.01.025.031.035.066.035a5.57,5.57,0,0,0,1.271-.634,4.278,4.278,0,0,1,1.516-.634.273.273,0,0,1,.232.091.174.174,0,0,1,.035.117c0,.685-2.824,2.683-3.384,3.283a41.879,41.879,0,0,0-3.717,4.844c-.753,1.35-1.471,4.2-1.537,10.818a35.065,35.065,0,0,1-2.832,13.509c-1.022,2.793-2.717,14.115-2.719,17.6a2.7,2.7,0,0,0,.1.952h-.027m6.543-49.887c-.185.4-.378.788-.553,1.173a2.108,2.108,0,0,0-.3,1.255c.138.418.269.648.372.936a4,4,0,0,1,.342,1.335,1.533,1.533,0,0,1-.074.535,0,0,0,0,0,0,0,2.609,2.609,0,0,0,.263-2.024c-.06-.28-.126-.584-.195-.9a3.659,3.659,0,0,1,.356-.755c.342-.654.749-1.335,1.1-2.1a4.036,4.036,0,0,0,.206-.683,1.059,1.059,0,0,0-.006-.475c-.088-.072.08-.409-.629-.574-.736.271-.543.446-.747.619l-.3.5a4.567,4.567,0,0,1-.539.823c-.208.247-.434.473-.646.681-.885.815-1.271,1.629-1.172,1.64a.9.9,0,0,1,.333-.414c.255-.228.7-.452,1.193-.8.247-.173.518-.364.8-.6a2.143,2.143,0,0,0,.2-.173m.609-1.495c-.023-.021-.019-.035-.012-.035s.018.012.012.035" transform="translate(6094.957 14314.814)" fill="#f79460"/><path d="M250.762-524.12a0,0,0,0,1,0,0,1.533,1.533,0,0,0,.074-.535,4,4,0,0,0-.342-1.335c-.1-.288-.233-.518-.372-.936a2.108,2.108,0,0,1,.3-1.255c.175-.385.368-.778.553-1.173a2.174,2.174,0,0,1-.2.173c-.278.235-.549.426-.8.6-.492.348-.938.572-1.193.8a.9.9,0,0,0-.333.414c-.1-.012.286-.825,1.172-1.64.212-.208.438-.434.646-.681a4.57,4.57,0,0,0,.539-.823l.3-.5c.2-.173.012-.348.747-.619.708.165.541.5.629.574a1.06,1.06,0,0,1,.006.475,4.037,4.037,0,0,1-.206.683c-.35.765-.757,1.446-1.1,2.1a3.659,3.659,0,0,0-.356.755c.068.321.134.625.195.9a2.608,2.608,0,0,1-.263,2.024m.808-6.766c-.008,0-.012.014.012.035.006-.023-.006-.035-.012-.035" transform="translate(6098.92 14316.424)" fill="#f68654"/><path d="M245.488-443.257a24.028,24.028,0,0,1-5.832-7.669c.812-.541,1.726-1.086,2.806-1.675l2.75.1,4.92,3.989-4.643,5.256" transform="translate(6094.885 14352.743)" fill="#f79460"/><path d="M251.545-473.3c-3.7,4.439-2.96,8.385-2.96,13.072s-8.965,19.976-8.965,19.976a23.061,23.061,0,0,0,11.433,5.918s11.484-15.4,16.909-32.168c1.257-3.882,2.326-13.208,2.326-13.208l-18.742,6.41" transform="translate(6094.868 14340.287)" fill="#f9a83b"/><path d="M243.8-498.335c-2.055.658-3.587.121-4.608.862-3.116,2.261-3.33,6.657-1.1,10,1.73,2.6,10.2,11.075,12.171,15.02s.987,12.083,1.726,12.33,12.33,2.22,19.237-3.947,4.439-5.671,2.96-8.631-3.454-15.043-7.4-20.716-6.231-8.312-6.231-8.312-5.558-.689-7.333-4.758l-2.987,2.89a15.418,15.418,0,0,1-3.577,4.194,18.511,18.511,0,0,1-2.859,1.064" transform="translate(6093.482 14327.982)" fill="#f9a83b"/><path d="M255.044-494.388c-1.508-1.294-4.546-4.063-4.951-5.319s1.273-1.748,1.862-2.833-2.189-7-3.145-7.484-2.069-.909-2.415-2.1-2.645-3.156-5.108-3.336-4.56,19.778-4.56,19.778,4.9,2.384,5.967,5.122,6.628.107,8.816-1.775a13.829,13.829,0,0,1,3.534-2.057" transform="translate(6093.539 14323.858)" fill="#f8a570"/><path d="M230.52-506.743c.743-4.225,4.009-7.041,6.644-8.567,2.078-1.415,8.259-2.9,8.158-1a11.562,11.562,0,0,0,1.386,5.034,15.093,15.093,0,0,0,2.682,3.386l.284.306a1.615,1.615,0,0,1,.222,1.271c-.1.383-.195.175-.459-.029-.531-.383-1.164-.918-1.654.064-.64,1.277-.086,2.092,1.421,4.184s-.261,6.706-1.059,7.634c-.6.7-1.518.268-3.02,1.107-1.4.78-1.136,1.421-1.136,1.421-1.893-1.51-4.382-1.769-6.434-2.962s-8.142-5.509-7.033-11.846" transform="translate(6090.625 14323.053)" fill="#251a16"/><path d="M243.8-498.335c-2.055.658-3.587.121-4.608.862-3.116,2.261-3.33,6.657-1.1,10,1.73,2.6,10.2,11.075,12.171,15.02s.987,12.083,1.726,12.33,12.33,2.22,19.237-3.947,4.439-5.671,2.96-8.631-3.454-15.043-7.4-20.716-6.231-8.312-6.231-8.312-5.558-.689-7.333-4.758l-2.987,2.89a15.418,15.418,0,0,1-3.577,4.194,18.511,18.511,0,0,1-2.859,1.064" transform="translate(6093.482 14327.982)" fill="#4fb6d5"/><path d="M239.3-500.553c3.289,4.643,8.533,15.985,8.845,23.985a13.589,13.589,0,0,1,.868,1.442l.173.4c.525-8.076-4.947-20.416-8.658-25.937-.448.031-.856.07-1.228.107" transform="translate(6094.724 14330.658)" fill="#f9a83b"/><path d="M268.152-480.974c-.14-.512-.284-1.035-.434-1.567-6.973-4.779-16.405-13.206-21.994-21.3-.187.274-.413.584-.662.911,5.994,8.526,16.041,17.326,23.09,21.957" transform="translate(6097.369 14329.196)" fill="#f9a83b"/><path d="M290.946-537.185a11.435,11.435,0,0,1-11.435,11.435,11.436,11.436,0,0,1-11.437-11.435,11.436,11.436,0,0,1,11.437-11.435,11.435,11.435,0,0,1,11.435,11.435" transform="translate(6107.944 14308.619)" fill="#f9a83b"/><path d="M279.478-525.75h0m-.035,0h0m-.043,0h0m-.033,0h0m-.035,0h0m-.041,0h0m-.035,0h0m-.035,0a.021.021,0,0,1-.01,0,.017.017,0,0,0,.01,0m-.041,0h0m-.035,0-.01,0,.01,0m-.035,0h0m-.041,0h0m-.035,0a.015.015,0,0,0-.01,0,.015.015,0,0,1,.01,0m-.033,0-.012,0,.012,0m-.039,0h0m-.037,0h0m-.035,0h0m-.037,0h0m-.039,0-.008,0,.008,0m-.033,0a.018.018,0,0,1-.01,0,.018.018,0,0,0,.01,0m-.039,0h0m-.037,0h0m-.033,0h0m-.037,0a.007.007,0,0,1-.006,0,.007.007,0,0,0,.006,0m-.039,0h0m-.033,0a.024.024,0,0,0-.012,0,.024.024,0,0,1,.012,0m-.035,0h0m-.039,0h0m-.033,0-.014,0,.014,0m-.035,0h0m-.041,0a.033.033,0,0,1-.014,0,.033.033,0,0,0,.014,0m-.031,0a.048.048,0,0,0-.016,0,.048.048,0,0,1,.016,0m-.033,0-.014,0,.014,0m-.043-.006h0m-.031,0a.054.054,0,0,0-.017,0,.054.054,0,0,1,.017,0m-.031,0a.052.052,0,0,0-.018,0,.052.052,0,0,1,.018,0m-.045-.006a.06.06,0,0,1-.02,0l.02,0m-.031,0-.019,0,.019,0m-.031,0c-.021,0-.045-.008-.068-.01.023,0,.047.006.068.01m-.076-.012a.087.087,0,0,1-.021,0,.079.079,0,0,0,.021,0m-.029,0-.072-.012.072.012m-.076-.012-.025,0,.025,0m-.027,0a11.439,11.439,0,0,1-9.82-11.188,11.316,11.316,0,0,0,.893,4.287.051.051,0,0,1-.01-.012,11.45,11.45,0,0,0,8.936,6.912m-.452-3.123a11.318,11.318,0,0,1-4.972-1.142,13.247,13.247,0,0,0,3.067.362,13.132,13.132,0,0,0,9.022-3.587,12.145,12.145,0,0,1,3.232-2.228.274.274,0,0,0-.016.035l.018-.01a11.438,11.438,0,0,1-10.351,6.57m-3.555-5.755a7.613,7.613,0,0,1-5.815-2.446h0a11.436,11.436,0,0,1,11.437-11.435,11.379,11.379,0,0,1,5.661,1.5,12.371,12.371,0,0,0-2.252-.963c-.9.212-2.524,1.748-6.94,2.423a5.557,5.557,0,0,1-.819.062,13.167,13.167,0,0,1-2.793-.508A11.46,11.46,0,0,0,269-541.684h0a10.185,10.185,0,0,0,4.595,1.265,13.754,13.754,0,0,0,5.92-1.726,9.412,9.412,0,0,1,4.139-.9,14.491,14.491,0,0,1,5.1,1.018s0,0,0,0a.041.041,0,0,1,.014.006c.029.193.051.389.068.588-1.479.115-3.431.808-6.494,3.4a13.738,13.738,0,0,1-8.452,3.293m-5.815-2.32v0m0-.049v0m0-.035v0m22.872-.078v0m0-.035a.1.1,0,0,1,0-.023.1.1,0,0,0,0,.023m0-.035v0m0-.035v0m0-.033a11.335,11.335,0,0,0-1.033-4.567q-.2-.435-.415-.835a11.371,11.371,0,0,1,1.448,5.4" transform="translate(6107.944 14308.619)" fill="#fbc84c"/><path d="M276.418-532.916h0m-.045,0h0m-.033,0h0m-.033,0h0m-.045,0h0m-.033,0h0m-.033,0a.2.2,0,0,0-.033,0,.2.2,0,0,1,.033,0m-.045,0h0m-.033,0h0m-.033,0h0m-.043,0h0m-.035,0a.162.162,0,0,0-.031,0,.162.162,0,0,1,.031,0m-.033,0h0m-.043,0h0m-.035,0h0m-.031,0a.2.2,0,0,0-.033,0,.2.2,0,0,1,.033,0m-.043,0-.025,0,.025,0m-.035,0a.142.142,0,0,0-.027,0,.132.132,0,0,1,.027,0m-.033,0-.033,0,.033,0m-.041,0h0m-.035,0a.147.147,0,0,1-.029,0,.147.147,0,0,0,.029,0m-.033,0a.187.187,0,0,1-.033,0,.2.2,0,0,0,.033,0m-.043,0a.1.1,0,0,0-.023,0,.1.1,0,0,1,.023,0m-.033,0a.125.125,0,0,0-.027,0,.124.124,0,0,1,.027,0m-.033,0-.033,0,.033,0m-.041,0a.118.118,0,0,0-.025,0,.127.127,0,0,1,.025,0m-.037,0a.1.1,0,0,1-.023,0,.1.1,0,0,0,.023,0m-.031,0-.031,0,.031,0m-.043,0a.085.085,0,0,0-.021,0,.093.093,0,0,1,.021,0m-.035,0a.087.087,0,0,1-.021,0,.087.087,0,0,0,.021,0m-.031,0-.031,0,.031,0m-.045-.006h0m-.033,0a.054.054,0,0,0-.018,0,.054.054,0,0,1,.018,0m-.031,0a.153.153,0,0,1-.029,0,.155.155,0,0,0,.029,0m-.047,0a.033.033,0,0,0-.014,0,.033.033,0,0,1,.014,0m-.031,0-.014,0,.014,0m-.031,0-.027,0,.027,0m-.047-.006h0m-.031,0h0m-.08-.01-.008,0,.008,0m-.029,0h0m-.08-.012h0m-.029,0h0" transform="translate(6111.037 14315.785)" fill="#fde2b5"/><path d="M279.232-529.35h-.222a.2.2,0,0,0-.033,0h-.035a.018.018,0,0,1-.01,0h-.066l-.01,0h-.035a.162.162,0,0,0-.031,0h-.035a.015.015,0,0,0-.01,0h-.023l-.012,0h-.031a.2.2,0,0,0-.033,0h-.01l-.025,0h-.01a.132.132,0,0,0-.027,0h-.006l-.033,0-.008,0H278.5a.018.018,0,0,1-.01,0,.146.146,0,0,1-.029,0h0a.2.2,0,0,1-.033,0h-.01a.1.1,0,0,0-.023,0h-.01a.124.124,0,0,0-.027,0,.007.007,0,0,1-.006,0l-.033,0h-.008a.127.127,0,0,0-.025,0,.024.024,0,0,0-.012,0,.1.1,0,0,1-.023,0h-.008l-.031,0H278.2a.093.093,0,0,0-.021,0l-.014,0a.087.087,0,0,1-.021,0h-.01l-.031,0a.033.033,0,0,1-.014,0h-.018a.048.048,0,0,0-.016,0,.054.054,0,0,0-.018,0l-.014,0a.154.154,0,0,1-.029,0h-.018a.033.033,0,0,0-.014,0,.054.054,0,0,0-.017,0l-.014,0a.052.052,0,0,0-.018,0l-.027,0-.02,0h-.012l-.019,0h-.012c-.021,0-.045-.008-.068-.01l-.008,0a.08.08,0,0,1-.021,0h-.008l-.072-.012h0l-.025,0h0a11.45,11.45,0,0,1-8.936-6.912.051.051,0,0,0,.01.012,11.643,11.643,0,0,0,.913,1.732,13.411,13.411,0,0,0,2.59.9,11.317,11.317,0,0,0,4.972,1.142,11.438,11.438,0,0,0,10.351-6.57,10.275,10.275,0,0,1,1.545-.58,12.029,12.029,0,0,1-9.829,10.384h0m.035,0h0m.037,0h0m.037,0h0m.037,0h0m.035,0h0m.037,0,.023,0-.023,0m.037,0h0m.035,0a.114.114,0,0,1,.025,0,.114.114,0,0,0-.025,0m.037,0h0m.035,0a.12.12,0,0,1,.025,0,.119.119,0,0,0-.025,0m.037,0a.1.1,0,0,0,.025,0,.111.111,0,0,1-.025,0m.035,0h0m.037,0a.138.138,0,0,1,.027,0,.137.137,0,0,0-.027,0m.035,0a.147.147,0,0,1,.029,0,.146.146,0,0,0-.029,0m.037,0,.029,0-.029,0m.035,0a.182.182,0,0,0,.033,0,.182.182,0,0,1-.033,0m.035,0,.035,0-.035,0m.035,0a11.427,11.427,0,0,0,10.752-10.717c.016-.233.035-.465.035-.7h0a11.436,11.436,0,0,1-10.787,11.417" transform="translate(6108.223 14312.22)" fill="#f9b13d"/><path d="M283.745-540.731h0v0m0-.035h0m0-.018v0m0-.041v0m0-.039v0m0-.039v0" transform="translate(6115.145 14312.165)" fill="#fde2b5"/><path d="M284.431-539.3a11.462,11.462,0,0,0-.817-4.194h0c-.07-.173-.144-.344-.218-.512a11.337,11.337,0,0,1,1.033,4.567v.08a.1.1,0,0,0,0,.023v.035h0m-.817-4.194c-.037,0-.074-.006-.111-.01-.22-.018-.45-.031-.691-.031-.158,0-.323.006-.492.019-.018-.2-.039-.4-.068-.588a13.219,13.219,0,0,1,1.362.609h0" transform="translate(6114.459 14310.696)" fill="#f9b13d"/><path d="M284.561-535.607a10.315,10.315,0,0,1,6.344-3.053c.018-.261.041-.518.041-.78a11.442,11.442,0,0,0-.817-4.229c-1.637-.156-3.746-.045-7.788,3.382-3.824,3.246-10.45,5.028-14.266.846a11.377,11.377,0,0,0,1.808,6.155,13.184,13.184,0,0,0,14.679-2.322" transform="translate(6107.944 14310.875)" fill="#2b6c8b"/><path d="M275.91-529.466a11.427,11.427,0,0,0,11.415-11.067l-1.586.683a12.029,12.029,0,0,1-9.829,10.384" transform="translate(6111.545 14312.335)" fill="#2b6c8b"/><path d="M282.63-548.253c-.9.212-2.524,1.747-6.94,2.423a9.2,9.2,0,0,1-3.612-.446,11.458,11.458,0,0,0-3.372,4.423c3.583,1.765,5.949,1.746,10.514-.461,4.949-2.4,10.618.732,10.618.732a11.113,11.113,0,0,0-7.208-6.671" transform="translate(6108.234 14308.788)" fill="#2b6c8b"/><path d="M275.91-529.466a11.427,11.427,0,0,0,11.415-11.067l-1.586.683a12.029,12.029,0,0,1-9.829,10.384" transform="translate(6111.545 14312.335)" fill="#2b6c8b"/><path d="M282.63-548.253c-.9.212-2.524,1.747-6.94,2.423a9.2,9.2,0,0,1-3.612-.446,11.458,11.458,0,0,0-3.372,4.423c3.583,1.765,5.949,1.746,10.514-.461,4.949-2.4,10.618.732,10.618.732a11.113,11.113,0,0,0-7.208-6.671" transform="translate(6108.234 14308.788)" fill="#2b6c8b"/><path d="M281.574-539.648a.267.267,0,0,1,.016-.035l.018-.008c-.006.012-.01.023-.016.033l-.018.01" transform="translate(6114.147 14312.723)" fill="#a0a848"/><path d="M281.586-539.479c.006-.01.01-.021.016-.033a9.639,9.639,0,0,1,1.576-.566l-.047.019h0a10.3,10.3,0,0,0-1.545.58" transform="translate(6114.153 14312.544)" fill="#a19537"/><path d="M283.22-543.68c-.037,0-.074-.006-.111-.01.037,0,.074.008.111.01h0" transform="translate(6114.853 14310.885)" fill="#a19537"/><path d="M281.585-537.836a11.379,11.379,0,0,0,1.086-4.84c0-.343-.021-.679-.051-1.014.177-.014.346-.02.512-.02.235,0,.461.012.677.029.037,0,.074.008.111.01h0a11.441,11.441,0,0,1,.817,4.229h0l-.02.368h0l-1.539.664a9.638,9.638,0,0,0-1.576.566l-.018.008" transform="translate(6114.152 14310.876)" fill="#235878"/><path d="M275.91-529.466a12.029,12.029,0,0,0,9.829-10.384h0l1.586-.683h0l-.019.362,0,.051h-.014a11.431,11.431,0,0,1-3.565,7.551l-.027.025q-.359.336-.747.642l-.119.088c-.234.179-.475.352-.724.514l-.216.132c-.224.138-.453.274-.687.4l-.323.156c-.21.1-.422.2-.64.294l-.43.16c-.193.07-.387.144-.586.2-.179.055-.366.1-.551.142l-.514.127c-.23.047-.463.074-.7.107l-.411.06q-.563.056-1.142.056" transform="translate(6111.545 14312.335)" fill="#235878"/><path d="M282.256-544.1a.042.042,0,0,0-.014-.006s0,0,0,0l.016.006v0" transform="translate(6114.454 14310.693)" fill="#a0a848"/><path d="M283.614-543.49a13.2,13.2,0,0,0-1.362-.609v0a12.932,12.932,0,0,1,1.362.611" transform="translate(6114.459 14310.695)" fill="#a19537"/><path d="M283.856-542.607h0a12.932,12.932,0,0,0-1.362-.611l-.016-.006a11.421,11.421,0,0,0-.755-2.8,11.787,11.787,0,0,1,1.2,1.59l.056.093c.136.22.259.446.379.673.175.341.344.687.5,1.061" transform="translate(6114.216 14309.813)" fill="#235878"/></g><g transform="translate(-1277.095 581.57)"><path d="M426.571-10.817q-2.35-.263-4.7-.494c.016.163.028.3.028.386.008,1.009-5.589,4.081-8.133,5.3-2.423,1.16-3.817,2.079-2.815,3.8,1.225,2.106,4.183,2.175,7.8,1.14s2.852-1.931,8.3-4.435c2.434-1.121-.253-4.816-.459-5.62l-.018-.08" transform="translate(6089.575 14336.452)" fill="#454a61"/><path d="M443.113-10.288a8.984,8.984,0,0,1-.318-1.885q-2.372.367-4.739.781a14.065,14.065,0,0,1,.376,2.7c.025,3.32-.361,3.614-.217,7.761.118,3.369,2.805,4.358,6.073,3.379,2.139-.641,3.322-3.169,2.1-6.279-1.053-2.685-2.278-4.116-3.272-6.453" transform="translate(6095.892 14336.254)" fill="#454a61"/><path d="M447.452-12.291l0-.013c-.09-.984-.184-1.939-.292-2.795-.707-5.63-3-8.73-3.463-11.73-.935-6-7.053-33.915-7.053-33.915l-22.25.164c-1.056,7.8,3.008,26.77,2.816,31-.167,3.718-.6,6.937.385,12.337h0C419.333-4.127,418.674.648,418.674.648c2.611,1.895,9.165.889,9.165.889s-2.2-15.116-2.116-18.5l.007-.166.01-.172h0c.317-5-.656-9.465-.382-12.135.318-3.118.24-20.318,1.329-18.1s7.89,18.943,9.473,22.27,2.3,9.553,3.1,12.665c.169.653.448,1.556.782,2.606C441.2-6.316,442.2,2.526,442.2,2.526s5.749,1.119,7.649-.912c0,0-2.1-11.1-2.4-13.905" transform="translate(6090.402 14325.069)" fill="#90bd43"/><path d="M427.831-8.593a5.88,5.88,0,0,1-2.956,2.836c-2.113.72-4.214,2.943-7.828,3.589a6.7,6.7,0,0,1-6.11-2.2,1.619,1.619,0,0,0,.008,1.921c1.225,2.106,4.183,2.175,7.8,1.14s2.853-1.931,8.3-4.435c1.191-.548,1.155-1.711.784-2.851" transform="translate(6089.577 14337.078)" fill="#353a4b"/><path d="M414.38-53.508s11.706,4.578,23.413-1.946l-1.152-5.291L415.3-58.329l-1.092,3.193.174,1.628" transform="translate(6090.4 14325.069)" fill="#49271b"/><path d="M444.234.6c1.778-.531,2.871-2.375,2.5-4.763-.32.909-1.585,3.935-4.258,3.74-2.933-.213-4.045-1.3-4.183-1.444.546,2.616,3,3.348,5.945,2.467" transform="translate(6095.946 14338.098)" fill="#353a4b"/><path d="M432.234-89.1c-.628,1.54,1.309,1.5,4.086,1.462a25.519,25.519,0,0,1,6.835.548c5.352,1.43,14,2.872,16.412,2.575,2.006-.249,10.311-.732,14.771.286s13.817-3.194,13.817-3.194l-.059,8.377a57.176,57.176,0,0,1-7.349-1.287c-4.481-1.08-16.056,2.657-20.726,2.916-1.6.087-3.81-.038-6.166-.162-4.508-.239-9.565-.479-12.007.774-3.722,1.908-1.035,19.094,1.017,25.533,0,0-15.57,7.893-25.4,2.356a52.631,52.631,0,0,0,.3-5.436c.061-7.691.507-20.635-.128-21.729-.9-1.552-16.033-.773-18.934-1.863s-1.824-5.774,2.628-5.806A42.957,42.957,0,0,0,413.34-85.62a28.482,28.482,0,0,1,8.448-1.311c3.115-.112,3.323-2.116,3.323-2.116l7.122-.052" transform="translate(6086.459 14318.541)" fill="#f9a83b"/><path d="M470.943-80.283a24.522,24.522,0,0,0,5.74.923l.059-8.377s-9.358,4.211-13.817,3.194-12.765-.535-14.771-.286a7.267,7.267,0,0,1-1.152.02h0s-1.452,4.647,1.608,7.078c5.68.513,17.852-3.632,22.335-2.552" transform="translate(6097.873 14318.854)" fill="#fbcb8c"/><path d="M417.468-76.219c-.9-1.552-16.033-.773-18.934-1.863l-.016-.005.016.005c2.9,1.09,18.032.311,18.934,1.863h0m-18.956-1.872a.022.022,0,0,1-.011,0,.022.022,0,0,0,.011,0m-.018-.006a.033.033,0,0,1-.01,0,.033.033,0,0,0,.01,0m-.016-.006a.033.033,0,0,1-.01,0,.033.033,0,0,0,.01,0m-.016-.007a.021.021,0,0,1-.01,0,.021.021,0,0,0,.01,0m-.016-.006a.021.021,0,0,1-.01,0,.021.021,0,0,0,.01,0m-.015-.006-.01,0,.01,0m-.016-.006a.019.019,0,0,0-.01,0,.019.019,0,0,1,.01,0m-.016-.007-.01,0,.01,0m-.015-.006-.011,0,.011,0m-.016-.006a.048.048,0,0,0-.015-.006.048.048,0,0,1,.015.006m-.015-.008a.5.5,0,0,1-.048-.021.5.5,0,0,0,.048.021m-.048-.021-.015-.006.015.006m-.016-.008-.015-.006.015.006m-.016-.008a.044.044,0,0,1-.013-.006.044.044,0,0,0,.013.006m-.015-.006a.041.041,0,0,0-.013-.007.041.041,0,0,1,.013.007m-.016-.008-.011-.006.011.006m-.015-.008a.118.118,0,0,1-.013-.006.118.118,0,0,0,.013.006m-.015-.008-.015-.007.015.007m-.015-.007-.1-.059c.034.021.069.04.1.059m-.1-.059a.028.028,0,0,1-.013-.008.028.028,0,0,0,.013.008m-.015-.008a.093.093,0,0,0-.013-.008l.013.008m-.015-.008a.034.034,0,0,0-.013-.008.034.034,0,0,1,.013.008m-.013-.01a.039.039,0,0,1-.013-.008.028.028,0,0,0,.013.008m-.015-.008a.046.046,0,0,0-.013-.008l.013.008m-.013-.008-.082-.054.082.054m-.084-.056-.011-.008.011.008m-.015-.01a.037.037,0,0,0-.01-.006.037.037,0,0,1,.01.006m-.013-.01-.008-.006.008.006m-.013-.01-.008-.005.008.005m-.013-.01-.007,0,.007,0m-.013-.01s0,0-.007,0,0,0,.007,0m-.013-.01,0,0,0,0m-.013-.008s0,0,0,0,0,0,0,0m23.77-8.61h0m.034,0h0m1.585-.289a2.688,2.688,0,0,0,1.445-1.145l0,0a2.7,2.7,0,0,1-1.45,1.143" transform="translate(6086.633 14318.678)" fill="#fde2b5"/><path d="M417.641-76.22c-.9-1.552-16.033-.773-18.934-1.863l-.016-.005,0,0a.022.022,0,0,1-.011,0s0,0-.007,0a.033.033,0,0,1-.01,0s0,0-.007,0a.033.033,0,0,1-.01,0l-.007,0a.021.021,0,0,1-.01,0l-.007,0a.021.021,0,0,1-.01,0l0,0-.01,0-.007,0a.02.02,0,0,0-.01,0l-.007,0-.01,0,0,0-.011,0a.005.005,0,0,0,0,0,.049.049,0,0,0-.015-.006v0a.5.5,0,0,1-.048-.021h0l-.015-.006,0,0-.015-.006s0,0,0,0a.044.044,0,0,1-.013-.006h0a.041.041,0,0,0-.013-.007l0,0-.011-.006,0,0a.115.115,0,0,1-.013-.006s0,0,0,0l-.015-.007h0c-.034-.019-.069-.038-.1-.059h0a.028.028,0,0,1-.013-.008h0l-.013-.008h0a.034.034,0,0,0-.013-.008v0a.028.028,0,0,1-.013-.008h0l-.013-.008h0l-.082-.054h0L398.1-78.4l0,0a.037.037,0,0,0-.01-.006s0,0,0,0l-.008-.006,0,0-.008-.005,0-.005-.007,0-.007-.005s0,0-.007,0,0,0-.007-.006l0,0a.027.027,0,0,0-.01-.006s0,0,0,0c-1.821-1.394-.91-4.76,2.37-5.337.171-.02.335-.038.5-.059.148-.012.29-.032.446-.033a42.959,42.959,0,0,0,12.006-1.868,28.481,28.481,0,0,1,8.448-1.311h.036a5.13,5.13,0,0,0,1.583-.289,2.7,2.7,0,0,0,1.45-1.143l5.7,2.361a8.411,8.411,0,0,1-4.047.792c-.456,0-.923-.013-1.406-.024s-.979-.026-1.493-.026c-.148,0-.3,0-.445,0-2.871.046-13.223,5.59-12.877,6s7.08,1,7.355,3.179" transform="translate(6086.46 14318.679)" fill="#f79632"/><path d="M459.914-22.6a9.613,9.613,0,0,1-.346-1.271,16.212,16.212,0,0,1-.353-3.72,23.553,23.553,0,0,1,4.185-12.7q1.215-1.664,2.523-3.461a29.614,29.614,0,0,0,2.2-3.768,38.771,38.771,0,0,0,2.956-9c1.334-6.511,1.424-13.7,1.309-20.962-.008-3.64-.034-7.241-.274-10.759a68.661,68.661,0,0,0-1.348-10.182,38.957,38.957,0,0,0-3.089-8.958,29.376,29.376,0,0,0-2.26-3.745q-1.319-1.754-2.544-3.384a23.508,23.508,0,0,1-4.393-12.672,16.192,16.192,0,0,1,.3-3.725,9.8,9.8,0,0,1,.328-1.276,15.586,15.586,0,0,0,.005,4.952,20.833,20.833,0,0,0,1.5,5.408,26.951,26.951,0,0,0,3.725,6.135l2.821,3.234a28.894,28.894,0,0,1,2.67,3.911,37.235,37.235,0,0,1,3.745,9.447,61.619,61.619,0,0,1,1.7,10.626c.285,3.633.354,7.321.394,10.961.011,3.646,0,7.33-.233,10.97A62.106,62.106,0,0,1,473.885-55.9a37.3,37.3,0,0,1-3.605,9.5,28.4,28.4,0,0,1-2.621,3.96l-2.744,3.24a26.945,26.945,0,0,0-3.653,6.219,20.818,20.818,0,0,0-1.416,5.429,15.562,15.562,0,0,0,.069,4.953" transform="translate(6100.591 14308.619)" fill="#49271b"/><path d="M420.906-107.793c3.376-.59,8.758.75,9.891,7.656.226,1.386.029,2.421.235,3.522.819,4.388,1.647,6.6.013,9.24-2.046,3.3-2.631,4.615-4.8,4.714s-6.965-2.1-7.924-3.614a15.475,15.475,0,0,1-1.342-2.526s-.256.381-1.279-.349-3.013-4.542-1.065-4.616c0,0-1.686-6.483-.755-8.218s2.771-5.064,7.029-5.808" transform="translate(6090.26 14314.208)" fill="#fbcb8c"/><path d="M424.408-87.405a2.977,2.977,0,0,0,.733-.242,1.256,1.256,0,0,1-.733.242" transform="translate(6092.75 14318.875)" fill="#f89e36"/><path d="M418.3-89.182a3.184,3.184,0,0,1-.617-.671,15.475,15.475,0,0,1-1.342-2.526h0a15.482,15.482,0,0,0,1.342,2.526,3.244,3.244,0,0,0,.617.671" transform="translate(6090.893 14317.786)" fill="#feefd8"/><path d="M426.011-85.933a12.781,12.781,0,0,1-2.082-.22,15.814,15.814,0,0,1-5.446-2.666,3.245,3.245,0,0,1-.617-.671,15.476,15.476,0,0,1-1.342-2.526h0a.32.32,0,0,1-.266.095,1.476,1.476,0,0,1-.709-.249l.29-.139a16.5,16.5,0,0,1,7.3-1.651,5.14,5.14,0,0,1,2.6.486c1.517,1.032,2.725,6.02,1.44,7.276l0,0a2.977,2.977,0,0,1-.733.242c-.135.013-.282.019-.436.019" transform="translate(6090.71 14317.422)" fill="#fbc07a"/><path d="M430.024-72.265l-3.089.325a1.636,1.636,0,0,1-1.8-1.455l-.5-4.715,6.342-.666.494,4.714a1.632,1.632,0,0,1-1.453,1.8" transform="translate(6092.803 14320.918)" fill="#90bd43"/><path d="M426.47-72.853l.044,0,3.089-.325a1.633,1.633,0,0,0,1.463-1.619,1.633,1.633,0,0,1-1.463,1.619l-3.089.325-.044,0" transform="translate(6093.224 14321.833)" fill="#dd9d30"/><path d="M426.648-71.933a1.623,1.623,0,0,1-1.5-1.038,1.649,1.649,0,0,0,.832.244,1.344,1.344,0,0,0,.143-.008l3.089-.324a1.634,1.634,0,0,0,1.455-1.8l-.405-3.856.6-.064.494,4.714a1.61,1.61,0,0,1,.01.177,1.633,1.633,0,0,1-1.463,1.619l-3.089.325-.044,0c-.041,0-.084,0-.125,0" transform="translate(6092.921 14320.918)" fill="#7ead37"/><path d="M433.086-57.664h0c.946-.412,1.491-.688,1.491-.688h0s-.543.276-1.491.688" transform="translate(6094.748 14325.62)" fill="#fde2b5"/><path d="M433.084-57.793h0" transform="translate(6094.747 14325.749)" fill="#90a735"/><path d="M420.52-54.155h0m.008,0c6.291,0,12.644-2.418,15.45-3.638h0c-2.807,1.22-9.16,3.636-15.45,3.638" transform="translate(6091.854 14325.749)" fill="#492318"/><path d="M421.986-49.247h0a17.63,17.63,0,0,1-7.693-1.579l-.143-2.085a57,57,0,0,0,6.266.346c4.875,0,11.245-.658,14.773-3.678,0,0-2.027-21.936,2.734-22.863-1.348.691-1.857,3.387-1.857,6.852a74.443,74.443,0,0,0,2.874,18.682s-.545.276-1.491.688h0c-2.807,1.22-9.16,3.635-15.45,3.638h-.008" transform="translate(6090.387 14320.842)" fill="#f79632"/><path d="M412.707-100.587a2.282,2.282,0,0,1,1.558-2.252l-.779-.312c.892-.373,1.083-1.922,2.09-2.815a2.224,2.224,0,0,1,2.165-.452,1.573,1.573,0,0,1-.948-1.021c1.229.674,2.032-.868,3.676-1.451a1.69,1.69,0,0,1,2.223,1.01c.589-.353,2.078-.261,3.691.813a6.56,6.56,0,0,0,3.748.877c.051.661-1.086,1.205-1.086,1.205,1.832.579,2.4,3.4,2.185,4.592s1.07,2.077,1.07,2.077c-5.843-.063-6.663-2.484-6.663-2.484.184,1.356-2.871,2.166-3.712,2.487a3.472,3.472,0,0,0-1.434,1.284,3.285,3.285,0,0,1-.1-1.7,8.773,8.773,0,0,1-1.7,1.575,4.94,4.94,0,0,0-1.481,1.491c-.135,1.565-.172,3.668-.172,3.668-1.066-1.6-2.2-1.52-2.2-1.52s-2.1-5.287-2.129-7.075" transform="translate(6090.055 14313.954)" fill="#653e23"/><path d="M467.652-29.258,421.583-80.2l45.352-47.429.594.566L422.7-80.187,468.26-29.807l-.609.55" transform="translate(6092.099 14309.669)" fill="#8c5131"/><path d="M490.029-82.156l-67.552-6.67.043-.407,67.551,6.67-.041.407" transform="translate(6092.305 14318.511)" fill="#8c5131"/><path d="M477-83.407l-.748-1.558.054-.026,2.3,1.188q1.225.4,2.452.8-1.28.153-2.561.3l-2.492.717-.048-.032L477-83.407" transform="translate(6104.62 14319.486)" fill="#8c5131"/><path d="M471.463-87.685c2.707-1.148,3.353,1.388,3.586,5.077s-1.225,3.394-3.645,3.3-2.452-7.309.059-8.377" transform="translate(6103.151 14318.803)" fill="#fbcb8c"/><path d="M399.166-77.063c-3.783-.233-7.391-6.4,1.27-8.823,4.975-1.394,18.672-3.345,20.89-4.7s7.493-3.018,8.886-2.068,1.982,6.374.8,7.529-5.69-1.125-8.764-.927-16.623,9.385-23.081,8.986" transform="translate(6086 14317.658)" fill="#fbcb8c"/><path d="M414.155-42.316l-.379.077L408.7-67.048l.379-.079,5.072,24.81" transform="translate(6089.134 14323.601)" fill="#992424"/><path d="M407.751-67.015l.08.046,1.3.877-.673-3.282-1.38-.942.674,3.3" transform="translate(6088.759 14322.866)" fill="#992424"/><path d="M409.38-70.754l-.874,1.4.671,3.283a7.174,7.174,0,0,1,.878-1.394l-.674-3.292" transform="translate(6089.088 14322.765)" fill="#992424"/><path d="M414.384-43.288l-.382.044-2.971-26.5.384-.043,2.969,26.5" transform="translate(6089.669 14322.987)" fill="#4fb6d5"/><path d="M411.8-69.042l1.509-1.114-.049-.438-1.509,1.114-.049-.436,1.511-1.112-.049-.438-1.509,1.114-.051-.438,1.511-1.112-.049-.438-1.509,1.114-.051-.448-.381.044.051.446-1.719-.751.049.438,1.719.752.048.435-1.719-.751.051.438,1.719.752.048.436-1.717-.752.048.436,1.719.752.381-.041" transform="translate(6089.306 14322.399)" fill="#4fb6d5"/><path d="M410.21-65.488l4.035,26.359L410.21-65.488" transform="translate(6089.48 14323.978)" fill="#2b6c8b"/><path d="M414.473-39.153l-.382.059-4.037-26.359.382-.058,4.037,26.358" transform="translate(6089.444 14323.973)" fill="#2b6c8b"/><path d="M410.842-64.759l1.465-1.173-.066-.435-1.465,1.173-.067-.435,1.465-1.171-.066-.436-1.465,1.173-.067-.435,1.465-1.173-.067-.433-1.463,1.173-.069-.445-.377.057.067.445-1.747-.681.066.433,1.749.682.067.435-1.749-.683.066.437,1.749.68.067.433-1.749-.681.066.435,1.749.681.377-.058" transform="translate(6089.06 14323.375)" fill="#2b6c8b"/><path d="M414.153-43.53l-.305.015-.853-18.729.305-.013.853,18.727" transform="translate(6090.122 14324.722)" fill="#454a61"/><path d="M413.651-61.069a2.085,2.085,0,0,1,.29-1.48,1.987,1.987,0,0,1,1.212-.661l-.133-2.912a2.07,2.07,0,0,0-1.691,1.345,2.025,2.025,0,0,0-1.806-1.186l.133,2.912a2.154,2.154,0,0,1,1.368.663,2.392,2.392,0,0,1,.323,1.333l.3-.015" transform="translate(6089.783 14323.832)" fill="#49271b"/><path d="M416.811-33.155l-2.875.323L409.72-59.809l5.229-.586,1.862,27.24" transform="translate(6089.368 14325.15)" fill="#8c5131"/><path d="M416.811-33.155l-2.875.323L409.72-59.809l5.229-.586,1.862,27.24" transform="translate(6089.368 14325.15)" fill="#8c5131"/><path d="M413.186-32.834l-.207-1.286h.007l.2,1.286,2.875-.323-2.875.323m.722-27.531h0l.2-.021h0l-.2.022" transform="translate(6090.118 14325.152)" fill="#c19f8a"/><path d="M413.892-60.384h0l.1-.01-.1.01" transform="translate(6090.328 14325.15)" fill="#c6712a"/><path d="M413.184-32.832l-.2-1.286,2.195-.246-1.273-26,.292-.031,1.862,27.24-2.875.323" transform="translate(6090.119 14325.15)" fill="#6d3520"/><path d="M518.549-36.979,544.281.787,538.817-1.9,517.377-33.749l1.171-3.229" transform="translate(6114.156 14330.542)" fill="#743e2f"/><path d="M543.729.79,546.3.77,520.468-36.992l-.7,2.618L543.729.79" transform="translate(6114.708 14330.539)" fill="#b97044"/><path d="M513.364-10.865l2.456-.018,2.689.837-2.446.018-2.7-.837" transform="translate(6113.232 14336.551)" fill="#743e2f"/><path d="M520.552.222l-4.918.037L515.3-44.988l4.918-.038L520.552.222" transform="translate(6113.678 14328.689)" fill="#b97044"/><path d="M519.632.225l2.457-.018-.336-45.247-2.456.018L519.632.225" transform="translate(6114.598 14328.686)" fill="#94503a"/><path d="M521.882-113.518l-3.281.025.007.842c-7.7,4.065-13.4,21.986-13.239,43.443s6.122,39.291,13.879,43.24l.007.844,3.281-.024c9.3-.069,16.694-19.907,16.513-44.31s-7.867-44.128-17.166-44.06" transform="translate(6111.39 14312.918)" fill="#992424"/><path d="M536.381-69.439c.18,24.4-7.213,44.242-16.513,44.31S502.884-44.787,502.7-69.19s7.213-44.24,16.513-44.308S536.2-93.841,536.381-69.439" transform="translate(6110.776 14312.923)" fill="#f04335"/><path d="M533.449-70.632c.152,20.822-6.155,37.751-14.091,37.81S504.866-49.6,504.71-70.421s6.154-37.751,14.09-37.81,14.494,16.776,14.648,37.6" transform="translate(6111.239 14314.136)" fill="#fff"/><path d="M530.516-71.827c.126,17.241-5.1,31.26-11.668,31.307s-12-13.888-12.13-31.132,5.1-31.262,11.668-31.309,12,13.89,12.13,31.134" transform="translate(6111.701 14315.349)" fill="#f04335"/><path d="M527.583-73.024c.1,13.664-4.039,24.772-9.247,24.81s-9.509-11.007-9.609-24.669,4.037-24.771,9.245-24.81,9.509,11.006,9.611,24.669" transform="translate(6112.164 14316.563)" fill="#fff"/><path d="M524.65-74.218c.074,10.083-2.98,18.281-6.824,18.308s-7.017-8.121-7.091-18.2,2.979-18.28,6.822-18.31,7.017,8.123,7.093,18.206" transform="translate(6112.626 14317.775)" fill="#f04335"/><path d="M521.716-75.413c.049,6.5-1.921,11.789-4.4,11.809s-4.526-5.238-4.573-11.742,1.921-11.791,4.4-11.808,4.526,5.239,4.573,11.741" transform="translate(6113.089 14318.988)" fill="#fff"/><path d="M518.783-76.607c.023,2.923-.863,5.3-1.978,5.307s-2.034-2.356-2.055-5.279.864-5.3,1.98-5.307,2.034,2.354,2.054,5.279" transform="translate(6113.551 14320.202)" fill="#f04335"/><path d="M523.728-2.468,513.4-5.675l-.039-5.193,10.324,3.206.039,5.195" transform="translate(6113.232 14336.554)" fill="#b97044"/><path d="M519.564-8.939l2.457-.02,2.687.838-2.447.019-2.7-.837" transform="translate(6114.66 14336.993)" fill="#743e2f"/><path d="M524.2-8.278l-2.447.019.039,5.195,2.446-.018-.038-5.2" transform="translate(6115.165 14337.15)" fill="#94503a"/><path d="M516.618-41.668h0m0,0h0" transform="translate(6113.979 14329.462)" fill="#a3643f"/><path d="M516.036-113.5h0" transform="translate(6113.847 14312.923)" fill="#e1e2e1"/><path d="M516.129-113.5h0" transform="translate(6113.869 14312.923)" fill="#882021"/><path d="M519.82-25.129h-.01c-9.273-.013-16.928-19.707-17.109-44.061h0c-.007-.9,0-1.791.015-2.678.427,13.518,3.463,25.148,7.764,31.424,2.534,5.514,5.779,8.835,9.3,8.835h.043c7.936-.059,14.243-16.988,14.09-37.81-.082-11.051-1.967-20.978-4.9-27.853-2.511-9.207-6.222-15.4-10.812-16.131a6.768,6.768,0,0,1,.912-.094h.156c9.278,0,16.937,19.7,17.119,44.059,0,.286,0,.571,0,.856,0,24.01-7.324,43.386-16.516,43.454h-.048" transform="translate(6110.776 14312.923)" fill="#dc3f2f"/><path d="M518.322-34.646c-3.519,0-6.763-3.32-9.3-8.835,2.169,3.164,4.657,4.966,7.295,4.966h.043c8.208-.06,16.018-13.727,14.574-39.112a112.771,112.771,0,0,0-3.386-22.683c2.938,6.875,4.823,16.8,4.9,27.853.153,20.822-6.155,37.751-14.091,37.81h-.043" transform="translate(6112.233 14315.96)" fill="#e1e2e1"/></g><g transform="translate(-303.488 18.993)"><g transform="translate(5771.488 14453.531)"><path d="M22.211-224.223c-.091-2,6.149-11.344,12.247-13.036l-.265,5.061-5.859,7.672-4.906,2.14-1.217-1.837" transform="translate(4.272 247.299)" fill="#d2dfdf"/><path d="M25.756-172.855c.348,3.138-1.42,9.708-1.221,16.04.175,5.555,2.015,5.854,2.092,7.672.1,2.266-1.046,3.661-6.625,2.962s-13.774.707-14.471-.347A2.322,2.322,0,0,1,6.721-149.5c1-.586,2.055-.132,4.546-.632,6.1-1.22,8.074-2.5,8.248-4.762s-5.44-24.06-5.44-24.06l11.682,6.1" transform="translate(-5.333 280.481)" fill="#fbcb8c"/><path d="M77.811-180.477c3.537,3.477,15.13,17.614,18.885,20.57,3.5,2.757,6.992,5.025,11.653,5.933s4.133,1.406,3.415,2.423-3.1,1.778-9.588.444-8.945,1.065-10.743-.01-.742-5.917-1.676-7.53-16.253-11.9-18.625-15.147l6.679-6.682" transform="translate(32.114 279.615)" fill="#fbcb8c"/><path d="M71.613-198.378s9.116,7.452,14.425,11.047c5.928,4.009,13.734,7.4,20.01,11.235a85.178,85.178,0,0,1,9.588,6.626s-3.486,12.03-12.9,17.084c0,0-8.638-3.835-11.9-7.147S74.665-168.6,72.223-169.994s-11.611-2.718-18.793-2.23-9.277,1.523-14.159,3.442-11.679,5.588-12.377,6.285-2.092,5.927-2.092,5.927a34.848,34.848,0,0,1-15.342-6.8s0-12.2,2.615-14.819,19.369-9.143,27.2-17.98l32.341-2.209" transform="translate(-2.984 269.427)" fill="#efefed"/><path d="M62.206-198.378h0l-32.339,2.209a33.686,33.686,0,0,1-3.876,3.659H26c26.838.326,35.485-2.452,37.842-4.544-1.009-.812-1.639-1.324-1.639-1.324" transform="translate(6.423 269.427)" fill="#e1e2e1"/><path d="M33.177-233.618s6.129-.19,15.516-3.745,8.892.385,17.783-1.184,7.671-2.789,0-4.532-5.683,1.065-11.794.5-28.352,1.6-29.659,3.607c-.853,1.305-1.073,9.611,1.831,20.227l7.564-10.109-1.241-4.764" transform="translate(5.553 243.658)" fill="#fbcb8c"/><path d="M60.813-199.7s1.489,2.925.966,3.854-9.407,2.391-15.958,2.126-16.14-.266-17.361-1.2a5.756,5.756,0,0,1,2.615-4.914c2.79-1.728,29.738.132,29.738.132" transform="translate(7.828 268.179)" fill="#f04335"/><path d="M63.985-214.908c4.717-.565,10.159.32,15.082.157,4.634-.157,6.978-.81,10.028-.623,2.493.149,1.408,3.419,6.624,2.676s9.218-.611,4.023,1.483c-2.335.939-3.678,2.619-6.044,2.529-2.9-.107-5.163-2.021-6.145-1.929-1.784.165-23.569,3.517-23.569,3.517v-7.81" transform="translate(28.047 259.736)" fill="#fbcb8c"/><path d="M49.975-216.463c.7.8,6.624,1.473,13.423,1.473s12.188,6.85,17.783,9.59c3.836,1.877,12.026,1.519,12.026,2.391s2.1,9.812-7.667,16.089c0,0-12.03-3.312-18.829-9.764a101.492,101.492,0,0,1-2.342,18.133s-.74,1.569-9.137,1.919a37.87,37.87,0,0,1-8.939-.688c-2.718-.5-4.7-1.006-6.78-.533a17.985,17.985,0,0,1-6.1.523,7.064,7.064,0,0,1-1.4-4.607c.7-8.58-2.756-23.277-5.228-29.913-3.312-8.892-4.576-12.371-4.576-12.371a6.556,6.556,0,0,0,2.044-.5c4.184-1.722,9.61-8.381,10.2-12.538,0,0,4.4,10.766,5.445,12.538s1.787,4.128,5.191,5.316c5.022,1.751,4.881,2.944,4.881,2.944" transform="translate(4.272 247.299)" fill="#efefed"/><path d="M45.373-211.4c-2.032-1.684-7.6-12.72-7.6-12.72l3.343.182,7.828,1.316,1.576,2.6L46.844-211.4h-1.47" transform="translate(13.13 254.776)" fill="#fbcb8c"/><path d="M45.271-224.006a15.578,15.578,0,0,1,3.568,1.218s-.39,8.8-3.48,12.863l-2.742-1.542s4.523-6.479,3.588-9.509l-.935-3.029" transform="translate(15.886 254.842)" fill="#d2dfdf"/><path d="M59.554-195.463l-.005-.01a34.145,34.145,0,0,0-9.641-13.346c-5.421-4.31-9.761-14.218-9.761-14.218l1.709-1.05.047-.031L40.7-225.95H39.428a3.3,3.3,0,0,0-1.107.3c-.9.5-3.306,1.333-3.7,1.6-.068.046,8.409,13.381,13.6,17.635,5.485,4.488,10.316,11.486,10.345,14.718v.019a4.064,4.064,0,0,0,.982-3.778" transform="translate(11.337 253.736)" fill="#e1e2e1"/><path d="M37.911-229.27c.654,2.22.977,6.85.365,8.122-.214.444,3.117,3.155,6.348,3.8,2.2.437,4.148.37,4.259-.628.1-.944-1.738-3.841-.9-4.749s-8.786-6.5-8.786-6.5l-1.288-.042" transform="translate(13.207 251.846)" fill="#fbcb8c"/><path d="M47.949-221.01h0a2.032,2.032,0,0,1-.012-1.659,2.039,2.039,0,0,0,.014,1.659m-.013-1.661.006-.006-.006.006m.006-.008a.028.028,0,0,0,.006-.008.028.028,0,0,1-.006.008m.007-.01s0,0,.005,0,0,0-.005,0m.007-.006a.025.025,0,0,1,.006-.008.025.025,0,0,0-.006.008m.008-.01,0-.006,0,.006m.006-.008.006-.006-.006.006m.007-.008.006-.006a.2.2,0,0,0,.052-.138.2.2,0,0,1-.052.138l-.006.006m-9.415-2.218a.287.287,0,0,1-.011-.033c-.024-.414-.058-.828-.1-1.243v-.01l0,0a18.269,18.269,0,0,0-.538-3.04h0a21.273,21.273,0,0,1,.652,4.329" transform="translate(13.207 251.846)" fill="#feefd8"/><path d="M47.947-221.01c-5.936-.28-8.739-2.2-9.385-3.931a21.272,21.272,0,0,0-.652-4.329l1.288.042s8.834,5.13,8.838,6.36a.2.2,0,0,1-.052.138l-.006.006s0,0,0,0l-.006.006s0,0,0,0l0,.006,0,0a.025.025,0,0,0-.006.008s0,0,0,0,0,0-.005,0,0,0,0,0a.029.029,0,0,1-.006.008s0,0,0,0l-.006.006s0,0,0,0a2.031,2.031,0,0,0,.012,1.659" transform="translate(13.207 251.846)" fill="#fbc07a"/><path d="M53.923-232.482c.8.8,3.7,1,3.811,2.672,0,0,.686-.389.728-.843a19.354,19.354,0,0,0-.431-3.4c-.224-.973-1.922-2.511-3.1-3.914s-4.233-2.567-6.553-3.475-7.693-.278-9.262,2.933a5.972,5.972,0,0,0-4.367,5.312c-.668,4.592,1.5,9.988,3.31,11.854s3.432,1.534,3.432,1.534l7.7-10.867,4.729-1.8" transform="translate(11.337 244.702)" fill="#362622"/><path d="M41.514-227.261c-.794-1.069-2.135-1.847-3.061-1.073a2.382,2.382,0,0,0-.415,3.05c1.113,2.467,2.649,3.025,3.5,2.843a4.05,4.05,0,0,0,1.867,2.613c1.675,1.1,6.185,3.234,7.507,3.285a2.1,2.1,0,0,0,2.155-2.027c.024-.952.569-.693,1-1.314s-.11-.872-.11-.872.916-.218.772-.567-.49-1.337-.186-1.511,1.538-.429,1.313-1.155-1.355-2.546-1.243-3.5,1.18-1.753,1.371-2.228a12.692,12.692,0,0,0-.212-4.431s-2.042-3.847-7.516-1.2a13.094,13.094,0,0,0-6.746,8.082" transform="translate(13.08 247.86)" fill="#fbcb8c"/><path d="M54.728-231.667c-.214-1.176-1.361-1.657-2.341-2.883a3.636,3.636,0,0,1-2.81,2.812c-4,1.218-8.9,3.68-9.326,5.779,0,0-1.28-6.21,1.081-8.913s7.184-3.862,9.552-3.668,4.162,4.377,4.162,4.377l-.319,2.5" transform="translate(14.342 246.559)" fill="#362622"/><path d="M34.712-201.611c0,3.174-1.589,4.452-3.311,4.124-1.438-.274-2.609-2.885-2.854-5.852-.006.728-.029,1.433-.082,2.1a7.065,7.065,0,0,0,1.4,4.607,15.834,15.834,0,0,0,5.8-.169c2.9-.481,5.141-.1,8.758.458-2.51-.347-5.185-1.015-7.307-1.339-2.156-.331-2.4-3.925-2.4-3.925" transform="translate(7.821 266.604)" fill="#e1e2e1"/><path d="M61.778-196.7a3.559,3.559,0,0,0-.321-2.364c-.01,0-5.614,2.193-8.544,2.128a19.9,19.9,0,0,0,7.887-1.044s-2.313,4.935-32.341,2.209c1.221.931,10.811.931,17.361,1.2s15.435-1.2,15.958-2.126" transform="translate(7.828 269.033)" fill="#d83c2c"/><path d="M41.245-196.606c.814.033,1.7.031,2.63.006.965-1.471-.477-5.571-.477-5.571.3,4.565-.5,5.408-2.153,5.565" transform="translate(15.105 267.268)" fill="#e1e2e1"/><path d="M26.433-174.21c-1.94,2.019-2.83,5.421-3.234,5.26s-9.7-2.588-13.717-5.26c-.021.835-.023,1.362-.023,1.362a34.848,34.848,0,0,0,15.342,6.8s1.394-5.23,2.092-5.927,7.495-4.368,12.377-6.285,6.976-2.956,14.159-3.442c-11.254-.421-25.056,5.473-27,7.492" transform="translate(-2.984 278.905)" fill="#e1e2e1"/><path d="M39.043-195.989c3.312,7.536,3.852,40.364,4.386,40.228s4.336-7.155,4.385-7.85-3.876-29.252-6.134-32.338-2.637-.04-2.637-.04" transform="translate(13.851 270.024)" fill="#f04335"/><path d="M37.314-196.144c-1.567,1.444-3.195,30.263-3.69,32.529s4.608,5.23,4.608,5.23-.463-34.822,1.894-38.445l-2.812.686" transform="translate(10.748 270.308)" fill="#f04335"/><path d="M39.725-194.065h0c2.444,5.622,4.484,32.784,4.484,32.784s1.706-2.006,3.214-4.188c-.048.695-3.852,7.712-4.385,7.85-.472.121-.915-24.677-3.315-36.445" transform="translate(14.24 271.881)" fill="#d83c2c"/><path d="M35.527-189.41c-.011.215-1.017,21.227-1.017,21.729s2.628,3.439,3.648,3.228c.043,1.161.073,1.845.073,1.845s-5.1-2.965-4.608-5.23c.3-1.383,1.027-12.666,1.9-21.572" transform="translate(10.748 274.531)" fill="#d83c2c"/><path d="M79.97-162.681c9.415-5.055,12.9-17.084,12.9-17.084-4.572,7.574-13.384,12.9-13.384,12.9-7.671-5.327-25.279-12.455-30.028-13.423C51.9-178.9,64.8-173.142,68.067-169.828s11.9,7.147,11.9,7.147" transform="translate(19.78 279.722)" fill="#e1e2e1"/><path d="M77.175-212.757c-.035.056-5.476,8.848-8.083,8.327a62.409,62.409,0,0,1-18.521-6.2c6.8,6.452,18.829,9.764,18.829,9.764,5.884-3.783,7.452-8.523,7.775-11.892" transform="translate(20.412 261.244)" fill="#e1e2e1"/><path d="M61.323-216.956s-1.476,5.205-4.219,6.584c0,0,3.519-.82,5.669-6.032l-1.45-.552" transform="translate(24.13 258.855)" fill="#e1e2e1"/><path d="M60.194-217.439a9.662,9.662,0,0,1-3.542,4.05,9.471,9.471,0,0,0,4.927-3.291l-1.385-.759" transform="translate(23.874 258.579)" fill="#e1e2e1"/></g><g transform="translate(5881.337 14449.007)"><path d="M110.651-233.2c-6.163-4.268-15.172-9.245-13.75-10.9s5.69-3.32,8.772-1.9,4.267,4.2,6.4,6.134,4.5,4.061,4.5,4.061l-5.927,2.609" transform="translate(-96.75 246.541)" fill="#f8a570"/><path d="M140.07-164.676c.688,2.067-1.067,6.889.845,8.036s4.663,2.067,7.764,4.132,11.36,3.216,8.609,0-8.952-7.115-10.789-12.168-6.429,0-6.429,0" transform="translate(-72.143 291.854)" fill="#f8a570"/><path d="M164.064-208.831,110-242.289s-5.492,6.6-6.276,7.691c0,0,27.2,22.252,33.213,27.229s13.6,13.323,15.168,16.082,2.877,17.664,3.138,21.064,2.877,48.9,2.877,48.9,7.843,3.138,12.683,0c0,0,.655-40.274,1.439-43.674s3.184-16.114,3.184-16.114l-10.279-26.428a2.656,2.656,0,0,0-1.08-1.3" transform="translate(-92.784 248.961)" fill="#efefed"/><path d="M147.178-222.466c-3.226.523-6.061,2.226-6.061,5.4,0,2.088,2.167,16.21,4.172,19.871s6.149,8.509,14.032,5l-12.143-30.269" transform="translate(-71.501 260.242)" fill="#362622"/><path d="M193.108-222.037c1.262,2.824,4.509,8.63,4.509,10.823,0,1.339-19.553,12.986-22.093,14.206s-15.093,13.773-20.147,9.938-14.821-14.471-11.333-29.116a78.634,78.634,0,0,0,12.553-3.87c8.195-3.1,15.323-12.691,15.323-12.691a96.262,96.262,0,0,1,9.931,4.26c3.339,1.841,11.258,6.452,11.258,6.452" transform="translate(-70.255 254.39)" fill="#efefed"/><path d="M169.094-226.721l-7.553,10.827,16.894-6.634,2.969-3.306-4.318-1.475-7.992.588" transform="translate(-59.878 257.486)" fill="#f8a570"/><path d="M177.937-220.709c.136-1.557,6.03-2.906,7.546-9.39s-.01-10.712-3.1-13.291c-3.429-2.854-13.181-1.975-15.85,2.624l11.409,20.057" transform="translate(-57.039 247.403)" fill="#7b4e34"/><path d="M162.437-213.825,173.915-227.4l-5.473-3.544-8.475,18.028,2.471-.908" transform="translate(-60.774 255.418)" fill="#d2dfdf"/><path d="M165.421-239.1c-.381-.837,1.421-3.542,4.427-4.751s-4.251,5.22-4.251,5.22l-.176-.469" transform="translate(-57.698 247.986)" fill="#7b4e34"/><path d="M167.738-226.594c1.205.2,1.111,4.061-1.134,5.657a9.247,9.247,0,0,0,4.427,1.416c2.864.01,8.3.492,7.26-4.145a22.065,22.065,0,0,1-.467-5c.222-3.151,3.538-7.122-3.088-6.145-7.283,1.077-7,8.212-7,8.212" transform="translate(-56.997 253.133)" fill="#f8a570"/><path d="M167.438-225.783h0a4.856,4.856,0,0,0,.45-3.389l.015-.006a4.909,4.909,0,0,1-.462,3.4" transform="translate(-56.523 256.422)" fill="#d1c6b6"/><path d="M167.51-223.693h-.073a4.909,4.909,0,0,0,.462-3.4c2.854-1.216,9.04-5.762,9.04-5.762s.732,9.157-9.429,9.157" transform="translate(-56.522 254.333)" fill="#f79460"/><path d="M167.545-227.013l-.3,0,.3,0h0" transform="translate(-56.632 257.653)" fill="#d1c6b6"/><path d="M178.3-225.248c.071,3.975-6.827,4.68-9.925,4.745-3.2.067-3.458-1.031-3.2-2.092s-.021-1.667-.542-1.747-.726-.918-.23-1.379c0,0-.718-.678-.153-1.295s.065-1.05-.082-1.272-1.232-.492-1.142-1.239.983-.864,1.615-1.962.988-1.364.935-2.442a8.027,8.027,0,0,1,.548-4.253,9.329,9.329,0,0,1,3.847-4.751c1.126-.536,6.858.521,8.446,3.339s.623,9.254.623,9.254a1.647,1.647,0,0,1,2.448-.341c.96.724-.071,2.69-.488,3.693s-.406,2.22-1.734,2.3c-1,.059-.971-.554-.971-.554" transform="translate(-59.035 248.516)" fill="#f8a570"/><path d="M178.143-240c-.318-.663-.992-3.883,3.839-4.971s10.287,3.09,8.818,6.789-1.762,10.26,2.3,10.634,2.027,4.981-2.025,7.438.674,5.779.674,5.779-6.023.843-6.383-1.607c-.531-3.615,3.942-6.394,1.465-7.887s-5.682-2.431-5.787-3.552,2.8-15.517-2.387-11.408L178.143-240" transform="translate(-50.557 247.332)" fill="#7b4e34"/><path d="M166.528-241.517s-.061,1.891,3.013,3.981,7.461,5.408,7.507,7.557c0,0,4.207-3.207,3.05-7.335s-10.883-6.394-10.883-6.394l-1.858,1.362-.828.828" transform="translate(-57.04 248.153)" fill="#7b4e34"/><path d="M173.164-232.691c-3.119-.523-27.7.2-30.554,2.831-4.122,3.793,1.247,10.316,4.567,13.3s23.516-9.685,23.516-9.685l2.471-6.45" transform="translate(-71.501 254.333)" fill="#efefed"/><path d="M182.738-227.761c.232,2.182-2.737,5.492-2.737,5.492l-15.886,6.264-5.327,1.952s22.081-2.739,23.47-3.385,2.8-6.68,2.862-7.331-2.383-2.992-2.383-2.992" transform="translate(-61.444 257.229)" fill="#d2dfdf"/><path d="M155.886-212.927c.745-1.207,2.705-1.927,4.078-2.057s7.582-2.77,8.4-2.3c0,0-5.327,6.224-5.718,6.224h-5.1l-1.659-1.866" transform="translate(-63.096 263.16)" fill="#d2dfdf"/><path d="M188.135-219.025c1.868,2.349-12.218,25.886-13.892,27.631s-5.258,4.025-14.277-8.8l28.169-18.833" transform="translate(-60.774 262.201)" fill="#efefed"/><path d="M166.046-214.355c.339-6.285-5.806-6.082-8.427-3.044-1.23,1.364.142,3.7.5,3.458,1.8-1.23.377-2.151,1.343-1.774a.9.9,0,0,1,.481.525c.207,1.019-1.111,2.705-.159,3.724,0,0,5.925,3.4,6.262-2.889" transform="translate(-62.396 261.956)" fill="#f8a570"/><path d="M162.454-223.393c.2.912-6.864,11.547-11.16,9.477-3.4-1.636,1.983-8.915,1.983-8.915l9.176-.563" transform="translate(-66.349 259.715)" fill="#d2dfdf"/><path d="M152.152-218.6c.456,1.32,2.561.944,3.366,1.6.776.632-.628,3.429.862,3.088,3.912-.9,6.971-6.226,1.257-8.873s-5.486,4.18-5.486,4.18" transform="translate(-65.222 259.715)" fill="#f8a570"/><path d="M172.584-207.306c-1.259-2.716-2.274-6.843-3.121-8.542a3.767,3.767,0,0,0-1.1-1.429c-.448-.872-6.9,6.1-12.478,4.358,0,0,3.082,7.425,6.4,11.777,9.019,12.823,12.576,10.515,14.277,8.8,1.531-1.546-1.418-9.442-3.981-14.961" transform="translate(-63.096 263.153)" fill="#e1e2e1"/><path d="M142.773-230.878c-3.017.816-4.994,10.092,13.835,21.327,0,0,4.251-9.477,11.16-9.477,0,0,0-1.745-9.241-4.743-6.086-1.973-10.76-8.463-15.754-7.107" transform="translate(-71.663 255.35)" fill="#e1e2e1"/><path d="M167.66-242.839c-.7.423-1.753-.031-2.247.464a4.152,4.152,0,0,0-.341,4.611c1.121,1.967,7.871,2.86,8.528,6.774,0,0,1.944-4.787-1.975-7.881-4.544-3.586-3.965-3.969-3.965-3.969" transform="translate(-58.172 248.648)" fill="#7b4e34"/><path d="M155.892-216.129c-1.78.45-3.2-1.86-2.82-2.061,1.958-1.027,2.08.741,2.2-.4s2.632-.889,2.632-.889l-2.015,3.345" transform="translate(-64.733 261.932)" fill="#f8a570"/><path d="M150.534-187.344c-5.971,1.852-9.7,1.316-9.7,1.316a19.682,19.682,0,0,0,8.5.8,11.841,11.841,0,0,1-5.94,1.161s1.651,1.086,6.986,1.067l.155-4.343" transform="translate(-71.663 280.232)" fill="#e1e2e1"/><path d="M145.379-209.7c.6,5.9-1,16.886-.552,24.917a38.26,38.26,0,0,1-2.136,14.6,6.6,6.6,0,0,0,5.586-2.316s-.552-11.124-.523-19.821c.042-12-2.375-17.382-2.375-17.382" transform="translate(-70.606 267.505)" fill="#362622"/><path d="M144.114-211.775c-1.169,6.988-2.9,27.344-2.9,27.344L144.1-182.6l1.031-30.746-1.017,1.567" transform="translate(-71.443 265.435)" fill="#362622"/><path d="M151.9-153.3h0a14.528,14.528,0,0,1-10.2,0s-4.266-28.4-4.709-35.937c.858,14.5,2.193,37.732,2.193,37.732s7.843,3.138,12.683,0c0,0,.01-.655.031-1.8" transform="translate(-73.85 279.151)" fill="#e1e2e1"/><path d="M128.109-218.638c-2.092-1.4-22.823-20.005-22.823-20.005-.743.912-1.344,1.663-1.566,1.971,0,0,27.2,22.252,33.213,27.229a111.416,111.416,0,0,1,11.988,11.927c-2.725-6.078-18.72-19.727-20.812-21.122" transform="translate(-92.784 251.036)" fill="#e1e2e1"/></g></g><g transform="translate(-603.36 837.39)"><path d="M129.393-309.515a40.535,40.535,0,0,1-.655,7.4c-.689,3.186-.759,5.466-2.007,7.768s-.187,5.361,2.594,4.941,5.04-4.19,6.246-6.189,3.115-8.172,3.51-9.231,1.845-5.352,1.336-6.55-5.854-2.371-7.711-2.818-3.312,4.676-3.312,4.676" transform="translate(6170.962 14358.293)" fill="#454a61"/><path d="M128.783-290.211a2.52,2.52,0,0,1-2.5-2.117,2.485,2.485,0,0,0,1.535.509,3.137,3.137,0,0,0,.468-.036c2.782-.419,5.039-4.19,6.246-6.191s3.115-8.17,3.509-9.231a24.432,24.432,0,0,0,1.426-5.682,2,2,0,0,1,.908.738,1.845,1.845,0,0,1,.107.7,23.475,23.475,0,0,1-1.443,5.845l-.058.163c-.5,1.419-2.3,7.154-3.452,9.066-1.112,1.845-3.117,5.194-5.6,6.035a3.583,3.583,0,0,1-.642.156h0a3.236,3.236,0,0,1-.5.04" transform="translate(6171.007 14359.14)" fill="#2a2f40"/><path d="M93.063-299.948a40.441,40.441,0,0,1-6.5,3.607c-3.025,1.216-4.952,2.436-7.558,2.695s-4.543,2.849-2.636,4.919,6.294,1.823,8.625,1.7,8.513-2,9.612-2.269,5.467-1.472,6.172-2.566-.378-6.242-1.053-8.029-6.667-.058-6.667-.058" transform="translate(6136.895 14367.393)" fill="#454a61"/><path d="M82.36-290.487c-2.251,0-4.908-.29-6.28-1.778h0c1.372,1.488,4.03,1.778,6.281,1.778.877,0,1.692-.045,2.345-.078,2.331-.123,8.513-2,9.612-2.269s5.467-1.472,6.172-2.566l0-.007,0,.007c-.706,1.093-5.073,2.3-6.172,2.566s-7.281,2.146-9.612,2.269c-.653.033-1.468.078-2.346.078m-6.291-1.791a.032.032,0,0,1-.008-.009.032.032,0,0,0,.008.009m-.012-.013-.006-.007.006.007m-.014-.016,0,0,0,0m24.452-3.1s0,0,0,0,0,0,0,0m0-.007s0,0,0,0,0,0,0,0m0-.007a.048.048,0,0,0,.008-.011.049.049,0,0,1-.008.011m.009-.013,0,0,0,0m0-.007s0,0,0,0,0,0,0,0" transform="translate(6137.188 14370.932)" fill="#999da8"/><path d="M82.642-289.386c-2.251,0-4.909-.29-6.281-1.778h0l-.011-.013a.032.032,0,0,1-.008-.009s0,0,0,0l-.006-.007a.031.031,0,0,1-.008-.009l0,0a2.559,2.559,0,0,1-.7-1.829c1.431,1.68,4.138,2.012,6.437,2.012.9,0,1.746-.051,2.422-.091,2.41-.145,8.8-2.338,9.939-2.65s5.651-1.72,6.383-2.992l.091-.319a5.729,5.729,0,0,1-.1,2.737s0,0,0,0,0,0,0,0l0,0s0,0,0,0a.049.049,0,0,1-.008.011v0s0,0,0,0,0,0,0,0,0,0,0,0h0l0,.007c-.706,1.093-5.073,2.3-6.172,2.566s-7.281,2.146-9.612,2.269c-.653.033-1.468.078-2.345.078" transform="translate(6136.907 14369.83)" fill="#2a2f40"/><path d="M156.624-296.449c-3.7-1.66-9.126-5.553-15.015-9.287-5.5-3.487-13.956-4.339-15.733-5.31s-13.531-27.783-13.94-28.2-21.016,3.953-21.016,3.953c1.642,2.641,21.733,25.988,24.048,28.334s2.577,4.4,6.548,5.251,32.337,10.742,33.158,11.021,3.739-4.959,1.949-5.765" transform="translate(6147.205 14341.428)" fill="#f8a570"/><path d="M90.921-335.3s16.5,29.245,17.326,28.977,12.12-5.963,14.333-10.331l-10.644-22.6L90.921-335.3" transform="translate(6147.205 14341.438)" fill="#90bd43"/><path d="M108.235-306.957c-.961,0-17.25-28.865-17.314-28.977a15.516,15.516,0,0,0,4.348.6,17.5,17.5,0,0,0,4.715-.656,122.679,122.679,0,0,1,12.694-2.325l9.9,21.024h0c-1.307,2.579-5.78,5.622-9.394,7.734a48.454,48.454,0,0,1-4.939,2.6l-.012,0" transform="translate(6147.205 14342.072)" fill="#7ead37"/><path d="M103.374-334.508c.3.607,6.759,13.51,8.96,17.318.277-.27.535-.538.769-.8-1.827-3.224-6.328-12.1-8.774-16.993l-.956.477" transform="translate(6155.587 14344.313)" fill="#d83c2c"/><path d="M102.86-332.693c.27.54,5.419,10.831,8.1,15.777.289-.23.568-.46.837-.694-2.118-3.926-5.841-11.277-7.983-15.563l-.958.48" transform="translate(6155.241 14345.533)" fill="#d83c2c"/><path d="M121.968-341.768c1.534,2.639,2.975,6.463-.888,10.139s-9.807,11.317-23.438,20.276A52.061,52.061,0,0,1,96.3-293.811a156.272,156.272,0,0,0-3.588,21.568c-.008,1.234-5.3,1.048-6.668-.058,0,0,.96-31.777.548-36.743-.635-7.683-.635-7.683,4.879-12.446s13.724-14.63,13.724-14.63l16.777-5.649" transform="translate(6143.918 14339.746)" fill="#f8a570"/><path d="M87.388-319.8s5.912,7.634,14.839,10.177c0,0,8.3-11.2,11.4-13.573s14.283-9.664,7.435-18.572L102.289-337.4l-14.9,17.6" transform="translate(6144.826 14339.746)" fill="#90bd43"/><path d="M73.3-349.38c.321,1.015,1.026,3.75,1.894,6.615,1.142-.971,2.279-1.948,3.456-2.876a25.263,25.263,0,0,1-1.376-2.6,8.317,8.317,0,0,1-.721-4.232c.6-2.443,1.164-1.414.988-3.893s-.539-5.2-1.323-4.915-.448,2.871-.448,2.871-.953-4.286-2.406-4.3-3.118,2.8-3.6,4.7.783,4.261,1.142,5.448,1.731,1.077,2.4,3.183" transform="translate(6132.884 14325.651)" fill="#f8a570"/><path d="M158.732-343.614c-3.135-2.762-4.353-2.046-6.934-5.626s-11.419-15.157-13.472-15.581c-1.058-.219-5.409.123-10.014.464a108.684,108.684,0,0,1-11.148.5,19.44,19.44,0,0,0-10.119,2.4,4.961,4.961,0,0,1-3.27.573c-5.6,1.129-7.6.308-12.991,6.329a148.942,148.942,0,0,0-11.612,15.779s.8-.841-2.885-6.168c-1.343.7-2.473.248-3.79.993a39.3,39.3,0,0,0,3.792,10.815c1.488,3.025,2.454,2.07,5.073.031s12.778-11.935,12.778-11.935a45.289,45.289,0,0,0,4.342,14.65c3.657,7.154,2.669,11.262,3.215,11.676s4.922,2.224,10.691.616,13.175-2.108,16.061-3.05a14.145,14.145,0,0,0,5.369-3.529c.414-.408-4.2-8.252-7.463-11.975s-6.882-17.046-7.425-18.01c0,0,14.544-1.825,16.468-2.36a20.765,20.765,0,0,0,5.517,5.283c3.958,2.768,7.583,4.4,8.67,5.914s.095,5.234,1.863,7.576,1.189.047,3.637,2.463c.976.964,2.877.431,4.946-1.613s1.84-3.451-1.3-6.213" transform="translate(6134.802 14324.182)" fill="#f8a570"/><path d="M92.708-292.662a167.774,167.774,0,0,1,2.616-17.448h0c-6.451-.007-8.808-1.325-8.808-1.325-.193,9.354-.475,18.715-.475,18.715,1.364,1.106,6.66,1.292,6.668.058" transform="translate(6143.918 14360.166)" fill="#efefed"/><path d="M95.321-310.629c-.5,0-.938-.02-1.392-.036-1.378,7.025-2.334,15.112-2.34,16.076-.005,1-3.478,1.066-5.524.469-.016.564-.026.881-.026.881,1.364,1.107,6.66,1.292,6.668.058a167.771,167.771,0,0,1,2.616-17.448h0" transform="translate(6143.918 14360.685)" fill="#e1e2e1"/><path d="M118.021-310.495h0c8.686,2.931,17.947,6.159,18.412,6.318.821.281,3.739-4.959,1.949-5.762-3.7-1.662-9.126-5.555-15.015-9.289,0,0-1.118,7.817-5.345,8.734" transform="translate(6165.448 14354.92)" fill="#efefed"/><path d="M136.291-309.939c-3.7-1.662-9.125-5.555-15.014-9.289,0,0-.047.319-.152.821,5.391,3.469,10.31,6.927,13.739,8.468,1.488.665-.267,4.379-1.378,5.466l.856.3c.821.281,3.739-4.959,1.948-5.762" transform="translate(6167.537 14354.92)" fill="#e1e2e1"/><path d="M122.4-336.654c-2.222-2.534-4.6-9.5-6.071-14.008-.029-.087-.534-1.963.085-2.336s10.1-2.186,10.1-2.186c.013-1.963-2.446-9.7-2.448-9.7v0h0c-3.748.27-8.927,1.156-10.855,1.031a19.44,19.44,0,0,0-10.119,2.4,4.961,4.961,0,0,1-3.27.573c-5.6,1.129-8.355.31-13.749,6.329a89.989,89.989,0,0,0-7.687,9.1l0,0s.491,3.888,5.975,7.6c0,0,4.723-5.564,5.045-4.654a98.985,98.985,0,0,0,5.127,12.123c3.655,7.154,2.669,11.261,3.215,11.676s4.922,2.224,10.691.616,13.175-2.108,16.061-3.05a14.144,14.144,0,0,0,5.369-3.529c.414-.408-4.2-8.252-7.463-11.975" transform="translate(6138.761 14324.182)" fill="#f04335"/><path d="M98.057-367.638a16.9,16.9,0,0,0,.68,8.243s-6.383,5.544-9.785,4.97c0,0-.156-.1-.014-1.281s.27-4.1-.715-4.912,8.061-7.873,8.061-7.873l1.773.852" transform="translate(6145.338 14321.759)" fill="#f8a570"/><path d="M88.951-360.978a4.593,4.593,0,0,0-.7-2.746,4.6,4.6,0,0,1,.7,2.746h0" transform="translate(6145.411 14324.967)" fill="#fde0ce"/><path d="M88.677-362.05h0c0-.011,0-.022,0-.033h0c0,.011,0,.022,0,.033" transform="translate(6145.69 14326.071)" fill="#f03f31"/><path d="M88.292-360.862l-.008-.009.008.009m-.012-.013,0,0,0,0m-.011-.011,0,0,0,0m-.01-.009s0,0-.005,0,0,0,.005,0m-.012-.011s0,0,0,0,0,0,0,0m-.012-.011,0,0,0,0m-.01-.011s0,0,0,0,0,0,0,0m-.011-.009s0,0,0,0,0,0,0,0m-.012-.011s0,0,0,0,0,0,0,0m9.607-4.555a19.743,19.743,0,0,1,.215-2.476h0a19.827,19.827,0,0,0-.192,2.416l-.016.045a.156.156,0,0,1-.007.016" transform="translate(6145.372 14322.102)" fill="#fde0ce"/><path d="M89.131-357.735c-.055,0-.09,0-.1,0s0-.022,0-.033a4.6,4.6,0,0,0-.7-2.746l0,0-.008-.009s0,0,0,0l0,0-.007-.007,0,0s0,0-.005,0,0,0-.005,0l-.007-.007s0,0,0,0l-.009-.007,0,0-.008-.007s0,0,0,0l-.009-.007s0,0,0,0a.035.035,0,0,0-.01-.009s0,0,0,0a.039.039,0,0,1-.01-.009h0c-.985-.808,8.061-7.873,8.061-7.873l1.773.852a19.736,19.736,0,0,0-.215,2.476c-3.172,7.132-7.946,7.427-8.711,7.427" transform="translate(6145.338 14321.759)" fill="#f79460"/><path d="M86.087-368.885c-.707.928-3.643,1.546-3.516,3.264,0,0-.756-.3-.864-.759a20.206,20.206,0,0,1-.037-3.534c.092-1.026,1.61-2.836,2.618-4.435s3.962-3.219,6.2-4.473,6.849-1.557,8.864-.094a2.187,2.187,0,0,0-.017-1.691,2.044,2.044,0,0,1,.633,1.736s.749-1.852,1.925-2.122a2.866,2.866,0,0,0-1,2.472,2.456,2.456,0,0,1,1.945-.328s-1.433.219-1.223.781,2.627,1.151,3.956,5.747-.129,10.416-1.712,12.578-3.29,2.05-3.29,2.05l-9.4-10.017-5.087-1.176" transform="translate(6140.939 14313.343)" fill="#7b4e34"/><path d="M97.778-366.4c.66-1.2,1.921-2.189,2.974-1.526s1.235,1.771.856,3.056c-.79,2.677-2.281,3.462-3.18,3.4a4.169,4.169,0,0,1-1.539,2.931c-1.556,1.363-5.863,4.176-7.206,4.415a2.167,2.167,0,0,1-2.486-1.769c-.159-.97-.679-.627-1.208-1.2s-.01-.906-.01-.906-.967-.091-.868-.469.31-1.439-.025-1.57-1.631-.223-1.5-.995,1.027-2.793.777-3.746-1.452-1.624-1.712-2.084a13.053,13.053,0,0,1-.407-4.555s1.544-4.219,7.508-2.282a13.49,13.49,0,0,1,8.029,7.3" transform="translate(6141.324 14317.909)" fill="#f8a570"/><path d="M82.458-368.686c.054-1.229,3.122-1.827,3.516-3.264,0,0-.655.928,2.067,1.591s2.634,1.894,2.634,1.894a2.432,2.432,0,0,0-.948-2.5,7.246,7.246,0,0,1,3,2.481c.992,1.628,4.6,1.51,5.326,3.592,0,0,.433-6.523-2.36-8.952s-7.88-2.934-10.273-2.4-3.635,5.06-3.635,5.06l.676,2.5" transform="translate(6141.052 14316.406)" fill="#7b4e34"/><path d="M72.42-355.37a.8.8,0,0,1-.684-.364,14.1,14.1,0,0,1-.522-1.37,4,4,0,0,0-.41-.9.559.559,0,0,0-.091-.116l.15.065a3.624,3.624,0,0,1,.6.83c.209.346.381.892.631,1.218a.28.28,0,0,0,.247.156c.212,0,.479-.23.714-.509a13.307,13.307,0,0,0,1.55-2.525c.371-.736.573-1.258.573-1.258a6.744,6.744,0,0,1-.288,1.372,8.263,8.263,0,0,1-1.439,2.757,2.183,2.183,0,0,1-.74.569.592.592,0,0,1-.293.071m-1.706-2.746-.195-.083s.006-.007.019-.007a.29.29,0,0,1,.175.089" transform="translate(6133.471 14327.38)" fill="#ec915c"/><path d="M93.893-348.4a1.828,1.828,0,0,0,1.255-2.2,1.982,1.982,0,0,0-2.558-1.042,1.7,1.7,0,0,0-1.359,1.994,2.2,2.2,0,0,0,2.662,1.252Zm-2.666,7.3a15.881,15.881,0,0,0,3.444-4.946,3.3,3.3,0,0,1-1.27.658,4.622,4.622,0,0,1-5.732-3.061c-.786-2.677,1.183-5.727,4.282-6.637a5.365,5.365,0,0,1,6.741,3.748,7.477,7.477,0,0,1,.243,2.617,14.222,14.222,0,0,1-4.584,9.173l-3.124-1.553" transform="translate(6144.899 14330.622)" fill="#90bd43"/><path d="M93.807-311.737c1.4-2.086,7.409-10.7,14.617-15.915,7.079-5.12,7.148-8.062,7.227-11.471.016-.727.035-1.477.124-2.276l-.587-.067-.486.114c-.079.779-.1,1.506-.12,2.2-.076,3.253-.137,5.82-6.784,10.628-7.44,5.383-13.606,14.28-14.93,16.261.309.176.618.355.939.522" transform="translate(6148.515 14339.95)" fill="#f04335"/><path d="M105.276-324.306a27.417,27.417,0,0,1,3.33-2.69c3.733-2.728,8.379-6.126,7.882-12.99l-1.067.076c.456,6.273-3.743,9.343-7.446,12.051a27.941,27.941,0,0,0-3.463,2.807,160.219,160.219,0,0,0-10.454,12.832c.326.154.657.3.994.442,2.1-2.931,7.9-10.146,10.224-12.526" transform="translate(6149.316 14340.945)" fill="#f04335"/><path d="M107.053-354.768c1.248-.243,2.139-.415,2.139-.415.013-1.963-2.446-9.7-2.448-9.7v0h0c-.825.06-1.724.152-2.639.254.938,2.878,2.124,6.69,2.95,9.867" transform="translate(6156.079 14324.182)" fill="#90bd43"/><path d="M122.158-330.4c.414-.408-4.2-8.252-7.463-11.975-2.222-2.534-4.6-9.5-6.071-14.008,0,0,1.007,8.21,2.611,10.637s8.192,13.82,6.064,14.333a74.415,74.415,0,0,0-12.96,4.569c-3.537,1.812-10.583,2.809-14.523,1.359.043.582.083.941.222,1.049.547.415,4.922,2.224,10.691.616s13.175-2.108,16.061-3.05a14.145,14.145,0,0,0,5.369-3.529" transform="translate(6146.46 14329.906)" fill="#d83c2c"/><path d="M87.018-356.386s-1.605,6.249-2.9,8.036a11.951,11.951,0,0,1-3.622,2.8,18.851,18.851,0,0,0,2.431,1.968S87.266-348.7,87.9-348.3c-1.279-3.893-.582-5.394-.881-8.085" transform="translate(6140.186 14329.906)" fill="#d83c2c"/><path d="M84.351-345.078s.5-.593,1.19-1.356a27.983,27.983,0,0,1-6.063-7.734c-.374.5-.757.986-1.1,1.493l0,0s.491,3.888,5.975,7.6" transform="translate(6138.761 14331.399)" fill="#90bd43"/><path d="M81.959-348.189l-.028-.02.028.02s0,0,0,0h0c.024-.027.519-.609,1.189-1.354h0l-.106.118-.286.321-.1.114-.353.4-.031.038-.2.237-.031.036-.078.091" transform="translate(6141.153 14334.511)" fill="#d9eab7"/><path d="M81.948-348.736h0" transform="translate(6141.165 14335.056)" fill="#bd3826"/><path d="M82.659-349.546h0" transform="translate(6141.643 14334.511)" fill="#d9eab7"/><path d="M81.6-350.6s0,0,0,0l.014-.011s0,0,0,0a.066.066,0,0,0-.015.011" transform="translate(6140.933 14333.794)" fill="#da402a"/><path d="M83.369-348.83q-.959-.91-1.765-1.769a.066.066,0,0,1,.015-.011c.543.58,1.1,1.167,1.75,1.78h0" transform="translate(6140.933 14333.795)" fill="#bd3826"/><path d="M82.926-347.477l-.028-.02c-.538-.366-1-.732-1.441-1.1-.34-.283-.663-.569-.961-.85h0a19.522,19.522,0,0,0,1.856-1.16s0,0,0,0q.806.86,1.765,1.769h0c-.67.745-1.166,1.327-1.189,1.354h0s0,0,0,0" transform="translate(6140.186 14333.798)" fill="#7ead37"/><path d="M51.851-355.282c5.4,4.725,6.982,5.974,9.341,4.593s7.772-8.288,8.3-9.044c.784-1.122.308-3.7.308-4.772s3.212-4.27,1.926-4.335a9.219,9.219,0,0,0-5.155,2.171c-1.022,1.171-.7,2.57-.531,4.439.057.636-5.909,4.484-5.909,4.484s-4.3-4.078-7.81-5.687c-5.949-2.728-.47,8.149-.47,8.149" transform="translate(6119.355 14321.521)" fill="#f8a570"/><path d="M57.162-354.3c-1.114,0-2.321-.687-4.145-2.142a8.187,8.187,0,0,0,.591-1,6.064,6.064,0,0,0,3.44,1.43,3.129,3.129,0,0,0,.323-.016c1.156-.109,8.878-6.661,8.9-6.679-1.75,2.22-5.541,6.789-7.414,7.886a3.306,3.306,0,0,1-1.7.52" transform="translate(6121.689 14325.652)" fill="#f79460"/><path d="M55.755-305.184c-.6,4.167,2.693,6.046,5.006,6.487a7.108,7.108,0,0,0,2.377-.042,6.426,6.426,0,0,1,4.694.808,11.026,11.026,0,0,0,11.2.049c3.538-2.238,1.755-3.621-2-4.812a95.526,95.526,0,0,1-12.566-5.015c-3.463-1.832-3.347-2.235-4.88-1.508-3.3,1.568-3.234-.181-3.834,4.033" transform="translate(6123.484 14361.429)" fill="#454a61"/><path d="M49.565-343.167c.973-.161,23.161,13.653,25.572,16.772,2.306,2.983-.868,6.543-2.286,19.551-1.434,13.151-1.756,21.595-2.161,23.226s-5,1.664-5.779-.087-.844-7.706-1.62-14.063c-1.11-9.075-3.086-7.016,2.44-21.4L45.35-328.09l4.215-15.076" transform="translate(6116.528 14338.805)" fill="#f8a570"/><path d="M27.039-320.518c-2.747-1.02-4.947-1.249-6.938.007s-2.114,3.444-5.685,4.277S8.3-312.094,7.248-308.04,8.443-304.2,12-305.894s8.343-4.627,11.557-5.5c3.778-1.031,5.789-2.967,6.41-4.547,1.334-3.4-2.926-4.576-2.926-4.576" transform="translate(6090.704 14353.479)" fill="#454a61"/><path d="M40.783-329.875a83.948,83.948,0,0,0,18.99,13.082s2.854-4.5,8.732-15.46c0,0-9.078-5.535-10.283-6.84s-1.2-8.493-1.2-8.493l-15.561,9.149-.674,8.562" transform="translate(6113.454 14335.83)" fill="#4daee5"/><path d="M64.695-335.56c.389.906-2.924,24.114-5.374,27.2-2.343,2.954-10.716,1.751-23.683,3.494-13.112,1.76-15.03,2.57-16.712,2.568s-2.405-3.652-1.24-5.173c1.115-1.457,4.255-2.075,10.272-4.268,8.964-3.266,6.075-5.285,21.36-3.366l.482-23.281,14.9,2.824" transform="translate(6097.521 14342.024)" fill="#f8a570"/><path d="M58.781-345.528c-2.124,5.707-6.293,26.637-6.439,29.729s-15.885.083-17.478-.87c0,0,2.448-7.931,1.386-11.259s-5.078-14.746-.194-17.6H58.781" transform="translate(6108.677 14337.216)" fill="#4daee5"/><path d="M50.96-368.84c-3.5,1.475-14.137,6.983-15.885,7.117s-4.3-.134-11.838,3.768-9.77,6.693-12.595,6.693S.369-347.333.01-345c-.143.935,1.217.183,2.82.018,2.4-.248,5.941-2.231,6.48-2.284,1.679-.161-2.717,3.759-1.641,3.759s2.423-1.191,4.755-2.807,1.99-3.172,9.2-4.616c11.039-2.206,12.234-4.872,13.669-5.231s17.8-2.867,17.8-2.867l-2.14-9.811" transform="translate(6086 14321.522)" fill="#f8a570"/><path d="M53.173-372.816c-1.141,3.639-5.078,1.086-11.678,2.978a88.967,88.967,0,0,0-17.024,7.6c-.535.526,1.863,9.988,2.755,10.345.409.163,3.027-.5,5.831-1.158,3.314-.783,6.885-1.564,7.368-.982.892,1.069,2.676,9.988,2.142,15.873s-5.525,12.308-3.744,12.843,16.229,3.389,22.293,1.428a54.375,54.375,0,0,1,7.67-2.142c.714-.179.535-23.364,0-26.576s1.77-13.4-7.491-14.983-8.121-5.227-8.121-5.227" transform="translate(6102.421 14318.846)" fill="#f9a83b"/><path d="M51.686-361.544c1.509-.89,2.1-2.98,1.77-5.276a10.043,10.043,0,0,0-2.493-.77c-9.262-1.588-8.121-5.227-8.121-5.227-.476,1.519-1.448,1.954-2.892,2.09-.46.937-.318,2.148,2.108,4.562,3.656,3.639,8.113,5.51,9.629,4.62" transform="translate(6112.752 14318.846)" fill="#4daee5"/><path d="M41.023-374.838c1.237,2.835-.9,5.187-.023,7.021s7.062,6.521,9.268,5.573,1.026-1.811,1.786-6.753-11.03-5.84-11.03-5.84" transform="translate(6113.454 14317.485)" fill="#f8a570"/><path d="M51.58-367.2l-.011,0a26.081,26.081,0,0,1,.294-3.128,3.041,3.041,0,0,0,.036-.453,3.041,3.041,0,0,1-.036.453c-.158,1.028-.24,2.235-.282,3.132m-10.513-5.59h0c0-.02.009-.04.013-.058,0,.02-.008.038-.011.058" transform="translate(6113.644 14318.823)" fill="#fde0ce"/><path d="M47.354-369.458l-.01,0v-.018l.011,0s0,.011,0,.016" transform="translate(6117.87 14321.094)" fill="#f79736"/><path d="M47.331-368.671c0-.241.01-.506.02-.8l.01,0c-.014.308-.023.58-.031.794h0" transform="translate(6117.862 14321.101)" fill="#459fc0"/><path d="M49.979-364.674c-3.34,0-6.906-4.145-8.818-6.782,0-.02.008-.038.011-.058a4.544,4.544,0,0,0-.246-3.324h0s11.066.841,11.066,5.388a3.039,3.039,0,0,1-.036.453,26.082,26.082,0,0,0-.294,3.128v.018c-.01.29-.016.555-.02.8a3.76,3.76,0,0,1-1.664.382" transform="translate(6113.55 14317.485)" fill="#f79460"/><path d="M51.72-387.034c4.673.473,9.4,4.982,9.057,11.436s-1.473,4.529-1.02,6.679-.566,5.776-5.774,9.4-12.595-5.564-12.595-7.6c0,0-2.236-.212-2.689-1.912s-.566-5.077,2.038-3.841a2.487,2.487,0,0,1-2.291-2.724c.026-2.6,2.064-12.567,13.274-11.436" transform="translate(6111.88 14309.216)" fill="#f8a570"/><path d="M41.922-368.89a5.646,5.646,0,0,0,2.769,2s1.388-6.394,1.118-8.587c0,0,3.831,2.052,5.974,1.693a12,12,0,0,1-1.691-2.652,29.136,29.136,0,0,0,7.039,2.563,7.042,7.042,0,0,0,6.063-1.693c-.387-.533-2.318-1.872-1.929-3.386.63-2.449-2.013-5.773-3.242-6.331-1.873-.85-3.785-.988-5.425-1.939s-5.993-1.5-7.773,1.149a6.27,6.27,0,0,0-4.811,2.3c-1.828,2.4-2.239,7.482-2.267,10.784-.046,5.345,2.4,7.746,5.026,8.542l-.85-4.444" transform="translate(6111.409 14308.619)" fill="#49271b"/><path d="M41.279-375.274s-.079-2.05-.729-2.7-1.9-1-1.849.551-.141,4.895,2.578,5.144a26.729,26.729,0,0,0,2.263,3.3l-1.143-3.7-1.12-2.6" transform="translate(6112.052 14315.004)" fill="#f8a570"/><path d="M49.151-368.991c2.993,1.245,10.428,8.508,10.428,8.508s-1.285,7.946-3.855,9.347l-8.37-3.059,1.8-14.8" transform="translate(6117.876 14321.421)" fill="#f9a83b"/><path d="M55.031-364.89a19.468,19.468,0,0,1-3.5,10.492l1.372.5c2.571-1.4,3.855-9.347,3.855-9.347s-.692-.676-1.732-1.646" transform="translate(6120.692 14324.182)" fill="#4daee5"/><path d="M51.771-358.533l-.587-.214.587.214h0" transform="translate(6120.456 14328.317)" fill="#fde2b5"/><path d="M52.7-353.685l-.587-.214-.3-.109s.05-8.154-2-11.94c0,0,2.74,3.882,3.331,6.646s1.093,3.074,1.093,3.074h0l-.006,0-.017.038-1.515,2.5" transform="translate(6119.531 14323.47)" fill="#f79632"/><path d="M52.908-357.944l-1.372-.5h0l1.372.5a3.2,3.2,0,0,0,.968-.888,3.2,3.2,0,0,1-.968.888m-1.372-.5h0m2.342-.386.01-.013-.01.013m.016-.022.005-.007-.005.007m.016-.02s0,0,0,0v0" transform="translate(6120.692 14328.229)" fill="#b4e6f2"/><path d="M51.535-357.6h0c.008-.009.016-.02.023-.031a.362.362,0,0,1-.023.031m.036-.047a.2.2,0,0,1,.012-.018.2.2,0,0,0-.012.018m.024-.036.024-.029-.024.029m.03-.038.023-.033-.023.033m.023-.033a16.232,16.232,0,0,0,1.4-2.349l.023-.04h0a16.107,16.107,0,0,1-1.426,2.389" transform="translate(6120.692 14327.38)" fill="#ae9c3b"/><path d="M52.908-357.094l-1.372-.5h0c.008-.009.016-.02.023-.031s.008-.011.012-.016a.2.2,0,0,1,.012-.018.109.109,0,0,0,.012-.018c.008-.009.016-.02.024-.029a.018.018,0,0,1,.006-.009l.023-.033h0a16.111,16.111,0,0,0,1.426-2.389c.016.011.546.39,1.531.97a7.739,7.739,0,0,1-.7,1.142s0,0,0,0l-.01.013-.005.007-.006.009a.1.1,0,0,0-.01.013h0a3.194,3.194,0,0,1-.968.888" transform="translate(6120.692 14327.38)" fill="#469ada"/><path d="M52.441-360.1l.017-.038.006,0-.023.04" transform="translate(6121.301 14327.38)" fill="#b18b30"/><path d="M46.574-358.226a5.648,5.648,0,0,1,1.314-.1,4.153,4.153,0,0,1,4.054,4.491A4.7,4.7,0,0,1,46.9-349.4a5.378,5.378,0,0,1-4.363-2.789l2.619-1.521a1.852,1.852,0,0,0,1.648,1.084,1.757,1.757,0,0,0,1.963-1.464c.037-.794-.645-1.359-1.739-1.41a1.813,1.813,0,0,0-1.713.663L43.2-356l.35-6.69,8.123.381-.139,2.967-4.963-.234.008,1.345" transform="translate(6114.635 14325.666)" fill="#4daee5"/><path d="M26.2-367.1a13.837,13.837,0,0,0-1.727,1.02c-.535.526,1.863,9.988,2.755,10.345a7.506,7.506,0,0,0,2.263-.324A75.511,75.511,0,0,1,26.2-367.1" transform="translate(6102.421 14322.692)" fill="#4daee5"/><path d="M50.926-344.853h0m0,0h0" transform="translate(6120.282 14337.669)" fill="#fde2b5"/><path d="M53.646-329.256a80.96,80.96,0,0,1-16.5-2.106.559.559,0,0,1-.383-.618c0-1.836,3.67-7.224,4.126-12.225.068-.747.1-1.544.1-2.365,0-5.657-1.461-12.573-2.24-13.508-.117-.143-.416-.2-.848-.2a38.136,38.136,0,0,0-6.52,1.185c-1.295.306-2.551.609-3.568.834-.321-.758-.63-1.591-.923-2.45,3.9-1.271,9.176-3.125,10.849-3.125.324,0,.513.071.53.228.141,1.367,2.282.654,3.887,10.728a68.973,68.973,0,0,1,0,19.676,63.087,63.087,0,0,0,11.409,1.657,10.162,10.162,0,0,0,2.229-.2c2.683-.622,8.387-1.419,11.581-1.843-.069.915-.154,1.472-.26,1.515h0s0,0,0,0h0a54.355,54.355,0,0,0-7.67,2.142,19.808,19.808,0,0,1-5.791.678" transform="translate(6104.099 14324.891)" fill="#f79632"/><path d="M26.1-360.307h0l-.005,0,.005,0h0m-.005,0-.005,0,.005,0m-.005,0a.006.006,0,0,0-.005,0,.006.006,0,0,1,.005,0m-.006,0s0,0,0,0a0,0,0,0,1,0,0m-.006,0h0" transform="translate(6103.55 14327.26)" fill="#fde2b5"/><path d="M26.686-359.171a.556.556,0,0,1-.2-.025h0l-.005,0h0l-.005,0h0a.006.006,0,0,0-.005,0h0a0,0,0,0,0,0,0s0,0,0,0h0a5.244,5.244,0,0,1-.976-2.028c.677-.2,1.475-.451,2.341-.734.293.859.6,1.691.923,2.45h0a12.747,12.747,0,0,1-2.065.348" transform="translate(6103.158 14326.148)" fill="#429faf"/><path d="M62.921-289.189c-6.529,0-11.894-.953-12.5-2.171a12.2,12.2,0,0,0,1.93.239h0a.171.171,0,0,1,.034,0h.036c.046,0,.092,0,.137,0h.005a.078.078,0,0,1,.023,0h.091a.047.047,0,0,1,.017,0h.187a12.092,12.092,0,0,0,7.8-2.847c.726-.025,1.474-.038,2.237-.038,6.936,0,12.561,1.075,12.561,2.4s-5.624,2.4-12.561,2.4" transform="translate(6119.94 14371.906)" fill="#f8f7f6"/><path d="M44.6-294.668a12.254,12.254,0,0,1,12.2-12.277A12.253,12.253,0,0,1,69-294.668a12.253,12.253,0,0,1-12.2,12.277,12.254,12.254,0,0,1-12.2-12.277" transform="translate(6116.021 14363.188)" fill="#efefed"/><path d="M58.024-302.413l-2.172-.2.01-.1.01-.1,2.084.192c.024.071.046.143.069.214" transform="translate(6123.597 14365.966)" fill="#302e30"/><path d="M55.947-285.708l-1.651-.027v-.1l0-.1,2.953.049a10.5,10.5,0,0,1-1.306.183m-1.84-.007a10.925,10.925,0,0,1-7.416-3.886l.294-1.249-.071-.025-.673-6.235-.009-.013-1.556.386a12.272,12.272,0,0,1,3.973-7.449l.249,3.266,4.9-.049.131.016,4.383-2.666.039-.1-.509-2.655.1-.018.1-.02.518,2.715-.019.049,4.84,3.349-1.841,4.658.037.1,2.276,5.43-.143.187-2.325-5.542-.012-.036H55.966l-.16.08-3.373,5.142-.047.033,1.912,4.4-.19.123m-.323-15.049-4.847.051-.184.116-2.351,3.36.037.049.664,6.162.347.127,4.742.551.079-.056,3.377-5.149.016-.022.035-.018-1.876-5.167-.038,0" transform="translate(6116.075 14363.547)" fill="#302e30"/><path d="M51.922-306.945h0" transform="translate(6120.931 14363.188)" fill="#323133"/><path d="M53.376-306.034h0l-1.914-.874c.238-.013.473-.036.715-.036h.032a12.157,12.157,0,0,1,2.008.185l0,0-.12-.02.1.036-.821.707" transform="translate(6120.643 14363.188)" fill="#302e30"/><path d="M59.188-299.364v0m0-.049v0m0-.04c0-.009,0-.016,0-.025,0,.009,0,.016,0,.025m0-.04v0m0-.038a.151.151,0,0,0,0-.02.151.151,0,0,1,0,.02m0-.038v0m0-.038v0m0-.038v0m0-.038v0m0-.1v0m0-.036v0m0-.036a.038.038,0,0,0,0-.009.038.038,0,0,1,0,.009m0-.038v0m0-.036v0m0-.038h0" transform="translate(6125.833 14367.885)" fill="#e1e2e1"/><path d="M52.1-291.125h0a12.092,12.092,0,0,0,7.8-2.847h0a12.092,12.092,0,0,1-7.8,2.847m-.049,0h0m-.041,0h0m-.038,0h0m-.039,0h0m-.037,0h0m-.038,0h0m-.037,0h0m-.038,0h0m-.142,0h0m-.033,0h0m-.037,0h0" transform="translate(6120.717 14371.922)" fill="#d9dbd9"/><path d="M56.732-282.467h-.187a.049.049,0,0,0-.017,0h-.091a.08.08,0,0,0-.023,0h-.005c-.045,0-.091,0-.137,0h-.036a.176.176,0,0,0-.034,0h0a12.24,12.24,0,0,1-11.5-10.336,11.1,11.1,0,0,0,1.981,3.5l-.259,1.1a12.3,12.3,0,0,0,4.792,4.4l.306.054,2.577-1.675c.316.029.636.042.96.042.3,0,.589-.011.879-.036l4.664.078.046,0,.828,1.811H61.7a12.282,12.282,0,0,0,5.455-4.852v-1.655l.092.045,1.578-3.186.061-.587-1.825,3.681.093.047-3.227.451v-.027l-.085-.2a11.034,11.034,0,0,0,2.186-6.608,11.043,11.043,0,0,0-.5-3.279l1.261.116,1.9,2.454a12.237,12.237,0,0,0-1.989-4.647v1.979l-1.244-.116a11.072,11.072,0,0,0-6.712-6.891l.019-.016a12.26,12.26,0,0,1,10.148,11.485h0c0,.011,0,.02,0,.031v.007c0,.009,0,.02,0,.029v.007c0,.011,0,.02,0,.029a.039.039,0,0,1,0,.009c0,.009,0,.02,0,.029v.007c0,.009,0,.02,0,.029v.007c0,.029,0,.06,0,.091v.011a.151.151,0,0,1,0,.02v.018a.162.162,0,0,1,0,.018v.02s0,.011,0,.018v.038a.151.151,0,0,1,0,.02v.054c0,.009,0,.016,0,.025v.089h0a12.287,12.287,0,0,1-4.4,9.43,12.092,12.092,0,0,1-7.8,2.847m3.857-3.088-3.349-.053a10.992,10.992,0,0,0,6.459-4.029l.031.076v.109l-3.045,3.888-.1.009" transform="translate(6116.088 14363.264)" fill="#d2d5d3"/><path d="M60.341-299.171l-1.9-2.454-1.261-.116c-.023-.071-.045-.143-.069-.214l1.244.116v-1.979a12.237,12.237,0,0,1,1.989,4.647" transform="translate(6124.443 14365.293)" fill="#2b2a2c"/><path d="M61.005-288.793h-.227l-.828-1.811-.046,0-4.664-.078a10.484,10.484,0,0,0,1.306-.183l3.349.053.1-.009,3.045-3.888v-.109l-.031-.076.143-.187.085.2v.027l3.227-.451v1.655a12.281,12.281,0,0,1-5.455,4.852m-10.181-.216-.306-.054a12.3,12.3,0,0,1-4.792-4.4l.259-1.1a10.925,10.925,0,0,0,7.416,3.886l-2.577,1.675m15.729-6.247-.092-.045-.093-.047,1.825-3.681-.061.587-1.578,3.186" transform="translate(6116.781 14368.518)" fill="#2b2a2c"/><path d="M53.138-306.809l-.1-.036.12.02-.019.016" transform="translate(6121.702 14363.256)" fill="#2b2a2c"/><path d="M35.225-330.838c-.159.779-.327,1.506-.485,2.137a29.172,29.172,0,0,0,11.729,2.456,28.546,28.546,0,0,0,5.276-.5c.078-.6.191-1.352.341-2.258a27.339,27.339,0,0,1-16.861-1.836" transform="translate(6109.386 14347.104)" fill="#f9a83b"/><path d="M51.009-323.576l9.531-15.248c-.555-.346-1.169-.734-1.81-1.14l-9.577,15.322c.679.4,1.292.752,1.856,1.066" transform="translate(6119.088 14340.961)" fill="#f9a83b"/><path d="M46.115-338.444a2.49,2.49,0,0,1-.109-.716c.008,0,.022.022.042.071a2.274,2.274,0,0,1,.067.645" transform="translate(6116.964 14341.502)" fill="#469ada"/><path d="M52.134-328.114h0m0,0s0,0,0,0,0,0,0,0m0,0h0m0,0h0m.926-1.519c.193-.323.416-.7.669-1.131h0c-.253.433-.476.808-.669,1.131" transform="translate(6121.094 14347.151)" fill="#b4e6f2"/><path d="M53.088-330.7h0l.094-.158h0c-.031.054-.062.107-.093.158" transform="translate(6121.737 14347.088)" fill="#b0996e"/><path d="M56.459-323.873h0s0,0,0,0c-.042-.018-1.454-.694-3.658-1.948.181.1.357.2.529.3l2.527-4.042,2.673,1.376-.378,1.506-.094.158c-.254.433-.476.808-.669,1.131-.593.993-.9,1.481-.926,1.519h0s0,0,0,0h0v0h0m-4.986-2.719c-1.672-.993-3.654-2.24-5.767-3.721.412-2.124.885-4.442,1.381-6.755.6,1.8,1.47,3.734,2.443,4.239.885.46,2.669,1.379,4.416,2.28l-2.473,3.958" transform="translate(6116.768 14342.91)" fill="#469ada"/><path d="M45.8-329.193l-.228-.158c0-.025.87-7.088.832-9.381a28.07,28.07,0,0,0,.776,2.784c-.5,2.313-.969,4.631-1.381,6.755" transform="translate(6116.677 14341.79)" fill="#469ada"/><path d="M51.009-328.149c-.172-.1-.348-.194-.529-.3q-.624-.355-1.326-.77l2.473-3.958,1.909.982-2.527,4.042" transform="translate(6119.088 14345.533)" fill="#ae9c3b"/></g></g></svg>