<svg height="512pt" viewBox="0 -24 512 512" width="512pt" xmlns="http://www.w3.org/2000/svg"><path d="m506.851562 30h-91.636718v22.1875c0 4.25-3.46875 7.710938-7.734375 7.710938h-251.589844c-4.597656 0-11.890625-1.859376-15.921875-4.054688l-40.542969-22.097656c-1.679687-.914063-2.640625-2.117188-2.640625-3.300782 0-.144531.015625-.296874.042969-.445312h-91.679687c-2.832032 0-5.148438 2.320312-5.148438 5.152344v422.882812c0 2.832032 2.316406 5.152344 5.148438 5.152344h501.703124c2.832032 0 5.148438-2.320312 5.148438-5.152344v-422.882812c0-2.832032-2.316406-5.152344-5.148438-5.152344zm0 0" fill="#e6e9ed"/><path d="m314.410156 363.535156c0 32.617188-26.15625 59.058594-58.417968 59.058594-32.269532 0-58.429688-26.441406-58.429688-59.058594 0-32.621094 26.160156-59.058594 58.429688-59.058594 32.261718 0 58.417968 26.4375 58.417968 59.058594zm0 0" fill="#ffc502"/><g fill="#775436"><path d="m231.113281 362.273438c-4.140625 0-7.5-3.359376-7.5-7.5v-6.082032c0-4.140625 3.359375-7.5 7.5-7.5 4.144531 0 7.5 3.359375 7.5 7.5v6.082032c0 4.140624-3.355469 7.5-7.5 7.5zm0 0"/><path d="m280.859375 362.273438c-4.140625 0-7.5-3.359376-7.5-7.5v-6.082032c0-4.140625 3.359375-7.5 7.5-7.5 4.144531 0 7.5 3.359375 7.5 7.5v6.082032c0 4.140624-3.355469 7.5-7.5 7.5zm0 0"/><path d="m273.113281 390.214844h-34.253906c-4.140625 0-7.5-3.355469-7.5-7.5 0-4.140625 3.359375-7.5 7.5-7.5h34.253906c4.144531 0 7.5 3.359375 7.5 7.5 0 4.144531-3.355469 7.5-7.5 7.5zm0 0"/></g><path d="m167.566406 363.535156c0 32.617188-26.160156 59.058594-58.421875 59.058594-32.269531 0-58.429687-26.441406-58.429687-59.058594 0-32.621094 26.160156-59.058594 58.429687-59.058594 32.261719 0 58.421875 26.4375 58.421875 59.058594zm0 0" fill="#89c947"/><path d="m84.269531 362.273438c-4.140625 0-7.5-3.359376-7.5-7.5v-6.082032c0-4.140625 3.359375-7.5 7.5-7.5 4.144531 0 7.5 3.359375 7.5 7.5v6.082032c0 4.140624-3.355469 7.5-7.5 7.5zm0 0" fill="#368c0e"/><path d="m134.015625 362.273438c-4.144531 0-7.5-3.359376-7.5-7.5v-6.082032c0-4.140625 3.355469-7.5 7.5-7.5s7.5 3.359375 7.5 7.5v6.082032c0 4.140624-3.359375 7.5-7.5 7.5zm0 0" fill="#368c0e"/><path d="m109.144531 401.910156c-14.394531 0-26.105469-10.878906-26.105469-24.253906 0-4.140625 3.359376-7.5 7.5-7.5 4.144532 0 7.5 3.359375 7.5 7.5 0 5.101562 4.984376 9.253906 11.105469 9.253906 6.121094 0 11.101563-4.152344 11.101563-9.253906 0-4.140625 3.355468-7.5 7.5-7.5 4.144531 0 7.5 3.359375 7.5 7.5 0 13.375-11.710938 24.253906-26.101563 24.253906zm0 0" fill="#368c0e"/><path d="m461.28125 363.535156c0 32.617188-26.160156 59.058594-58.425781 59.058594-32.261719 0-58.421875-26.441406-58.421875-59.058594 0-32.621094 26.160156-59.058594 58.421875-59.058594 32.265625 0 58.425781 26.4375 58.425781 59.058594zm0 0" fill="#fb8276"/><path d="m377.984375 362.273438c-4.144531 0-7.5-3.359376-7.5-7.5v-6.082032c0-4.140625 3.355469-7.5 7.5-7.5s7.5 3.359375 7.5 7.5v6.082032c0 4.140624-3.355469 7.5-7.5 7.5zm0 0" fill="#c0272d"/><path d="m427.734375 362.273438c-4.144531 0-7.5-3.359376-7.5-7.5v-6.082032c0-4.140625 3.355469-7.5 7.5-7.5s7.5 3.359375 7.5 7.5v6.082032c0 4.140624-3.355469 7.5-7.5 7.5zm0 0" fill="#c0272d"/><path d="m421.464844 398.605469c-4.144532 0-7.5-3.359375-7.5-7.5 0-5.101563-4.984375-9.25-11.109375-9.25-6.121094 0-11.097657 4.148437-11.097657 9.25 0 4.140625-3.359374 7.5-7.5 7.5-4.144531 0-7.5-3.359375-7.5-7.5 0-13.371094 11.707032-24.25 26.097657-24.25 14.398437 0 26.109375 10.878906 26.109375 24.25 0 4.140625-3.359375 7.5-7.5 7.5zm0 0" fill="#c0272d"/><path d="m88.765625 143.003906c-1.808594 1.820313-4.21875 2.824219-6.789063 2.824219-2.574218 0-4.988281-1.007813-6.796874-2.832031l-9.542969-9.628906c-1.222657-1.230469-1.890625-2.867188-1.882813-4.601563.007813-1.738281.6875-3.367187 1.921875-4.589844 1.226563-1.214843 2.851563-1.882812 4.574219-1.882812 1.746094 0 3.386719.683593 4.617188 1.925781l7.109374 7.167969 27.507813-27.71875c-.554687-.523438-1.296875-.851563-2.113281-.851563h-53.566406c-1.699219 0-3.089844 1.390625-3.089844 3.089844v53.8125c0 1.699219 1.390625 3.089844 3.089844 3.089844h53.566406c1.699218 0 3.089844-1.390625 3.089844-3.089844v-38.582031zm0 0" fill="#fcdb67"/><path d="m81.976562 146.828125c-.003906 0-.003906 0 0 0-2.84375 0-5.507812-1.109375-7.503906-3.128906l-9.546875-9.625c-2.914062-2.941407-2.894531-7.691407.046875-10.605469 2.941406-2.917969 7.6875-2.898438 10.605469.042969l6.398437 6.457031 28.453126-28.671875c2.917968-2.941406 7.664062-2.960937 10.605468-.042969 2.9375 2.917969 2.957032 7.667969.039063 10.605469l-31.601563 31.847656c-1.996094 2.011719-4.660156 3.121094-7.496094 3.121094zm0 0" fill="#ef5050"/><path d="m234.527344 127.65625h-92.058594c-4.140625 0-7.5-3.359375-7.5-7.5 0-4.144531 3.359375-7.5 7.5-7.5h92.058594c4.144531 0 7.5 3.355469 7.5 7.5 0 4.140625-3.355469 7.5-7.5 7.5zm0 0" fill="#9ea7af"/><path d="m194.894531 152.96875h-52.421875c-4.144531 0-7.5-3.355469-7.5-7.5 0-4.140625 3.355469-7.5 7.5-7.5h52.421875c4.140625 0 7.5 3.359375 7.5 7.5 0 4.144531-3.359375 7.5-7.5 7.5zm0 0" fill="#9ea7af"/><path d="m110.460938 257.894531c0 1.703125-1.390626 3.09375-3.089844 3.09375h-53.566406c-1.699219 0-3.089844-1.390625-3.089844-3.09375v-53.808593c0-1.699219 1.390625-3.09375 3.089844-3.09375h53.566406c1.699218 0 3.089844 1.394531 3.089844 3.09375zm0 0" fill="#fcdb67"/><path d="m234.527344 225.835938h-92.058594c-4.140625 0-7.5-3.359376-7.5-7.5 0-4.144532 3.359375-7.5 7.5-7.5h92.058594c4.144531 0 7.5 3.355468 7.5 7.5 0 4.140624-3.355469 7.5-7.5 7.5zm0 0" fill="#9ea7af"/><path d="m194.894531 251.148438h-52.421875c-4.144531 0-7.5-3.355469-7.5-7.5 0-4.140626 3.355469-7.5 7.5-7.5h52.421875c4.140625 0 7.5 3.359374 7.5 7.5 0 4.140624-3.359375 7.5-7.5 7.5zm0 0" fill="#9ea7af"/><path d="m337.21875 159.71875c0 1.699219-1.390625 3.089844-3.089844 3.089844h-53.566406c-1.703125 0-3.09375-1.390625-3.09375-3.089844v-53.8125c0-1.699219 1.390625-3.089844 3.09375-3.089844h53.566406c1.699219 0 3.089844 1.390625 3.089844 3.089844zm0 0" fill="#fcdb67"/><path d="m461.28125 127.65625h-92.054688c-4.144531 0-7.5-3.359375-7.5-7.5 0-4.144531 3.355469-7.5 7.5-7.5h92.054688c4.144531 0 7.5 3.355469 7.5 7.5 0 4.140625-3.355469 7.5-7.5 7.5zm0 0" fill="#9ea7af"/><path d="m421.648438 152.96875h-52.421876c-4.144531 0-7.5-3.355469-7.5-7.5 0-4.140625 3.355469-7.5 7.5-7.5h52.421876c4.140624 0 7.5 3.359375 7.5 7.5 0 4.144531-3.359376 7.5-7.5 7.5zm0 0" fill="#9ea7af"/><path d="m337.21875 257.894531c0 1.703125-1.390625 3.09375-3.089844 3.09375h-53.566406c-1.703125 0-3.09375-1.390625-3.09375-3.09375v-53.808593c0-1.699219 1.390625-3.09375 3.09375-3.09375h53.566406c1.699219 0 3.089844 1.394531 3.089844 3.09375zm0 0" fill="#fcdb67"/><path d="m461.28125 225.835938h-92.054688c-4.144531 0-7.5-3.359376-7.5-7.5 0-4.144532 3.355469-7.5 7.5-7.5h92.054688c4.144531 0 7.5 3.355468 7.5 7.5 0 4.140624-3.355469 7.5-7.5 7.5zm0 0" fill="#9ea7af"/><path d="m421.648438 251.148438h-52.421876c-4.144531 0-7.5-3.355469-7.5-7.5 0-4.140626 3.355469-7.5 7.5-7.5h52.421876c4.140624 0 7.5 3.359374 7.5 7.5 0 4.140624-3.359376 7.5-7.5 7.5zm0 0" fill="#9ea7af"/><path d="m407.480469 0c4.804687 0 8.734375 3.917969 8.734375 8.710938v43.476562c0 4.789062-3.929688 8.710938-8.734375 8.710938h-251.589844c-4.804687 0-12.1875-1.882813-16.402344-4.179688l-40.542969-22.09375c-4.214843-2.300781-4.214843-6.058594 0-8.355469l40.542969-22.089843c4.214844-2.296876 11.597657-4.179688 16.402344-4.179688zm0 0" fill="#ffc502"/><path d="m159.410156 0h-3.519531c-4.804687 0-12.1875 1.882812-16.402344 4.179688l-40.542969 22.089843c-4.214843 2.300781-4.214843 6.058594 0 8.355469l40.542969 22.09375c4.214844 2.296875 11.597657 4.179688 16.402344 4.179688h3.519531zm0 0" fill="#ffd5b3"/><path d="m126.195312 11.421875-27.25 14.847656c-4.214843 2.300781-4.214843 6.058594 0 8.355469l27.25 14.851562zm0 0" fill="#775436"/><path d="m416.214844 52.1875v-43.476562c0-4.792969-3.929688-8.710938-8.734375-8.710938h-41.925781v60.894531h41.925781c4.804687.003907 8.734375-3.917969 8.734375-8.707031zm0 0" fill="#fb8276"/><path d="m159.410156 22.949219h206.144532v15h-206.144532zm0 0" fill="#c6a07d"/></svg>