<svg id="Layer_3" enable-background="new 0 0 64 64" height="512" viewBox="0 0 64 64" width="512" xmlns="http://www.w3.org/2000/svg"><path d="m52 15c1.654 0 3-1.346 3-3s-1.346-3-3-3-3 1.346-3 3 1.346 3 3 3zm0-4c.552 0 1 .449 1 1s-.448 1-1 1-1-.449-1-1 .448-1 1-1z"/><path d="m61.293 23.879-3.879-3.879 1-1-2-2 .636-.636c1.258-1.257 1.95-2.929 1.95-4.708 0-3.67-2.986-6.656-6.657-6.656-1.777 0-3.448.692-4.707 1.95l-.636.635-2-2-1 1-3.879-3.879c-1.085-1.084-2.587-1.706-4.121-1.706s-3.036.622-4.121 1.707l-29.172 29.172c-1.101 1.1-1.707 2.564-1.707 4.121 0 1.558.606 3.021 1.707 4.122l21.167 21.171c1.101 1.101 2.564 1.707 4.126 1.707 1.534 0 3.036-.622 4.121-1.707l29.172-29.172c1.101-1.1 1.707-2.564 1.707-4.121s-.606-3.021-1.707-4.121zm-14.293-13.464 2.05-2.05c.88-.881 2.05-1.365 3.293-1.365 2.568 0 4.657 2.089 4.657 4.657 0 1.245-.484 2.414-1.364 3.293l-2.05 2.05 2 2-4.586 4.586-10.586-10.586 4.586-4.586zm-15 36.171-3.567-3.567 2.582-2.59 3.571 3.571zm-2-15.172 3.594 3.594-2.582 2.59-3.598-3.598zm1.414-1.414 2.586-2.586 3.587 3.587-2.582 2.59zm-5.414 5.414 3.6 3.6-2.582 2.59-3.604-3.604zm10 7.172-3.574-3.574 2.582-2.59 3.578 3.578zm4-4-3.581-3.581 2.582-2.59 3.585 3.585zm4-4-8.586-8.586 4.586-4.586 8.586 8.586zm-10-10-4.586-4.586 4.586-4.586 4.586 4.586zm-6-3.172 4.586 4.586-14.586 14.586-4.586-4.586zm-6 18 3.607 3.607-2.582 2.59-3.611-3.611zm5.021 5.021 3.565 3.565-1.586 1.586-1-1-1 1-2.561-2.561zm.979 6.979 1.586 1.586h-3.172zm4 1.172-1.586-1.586 21-21-17.414-17.414-23.414 23.414 15 15-1.588 1.588-16.584-16.588 28.586-28.586 3.586 3.586-2 2 13.414 13.414 2-2 3.586 3.586zm27.879-21.879-29.172 29.172c-.713.712-1.699 1.121-2.712 1.121-1.008 0-1.994-.409-2.707-1.122l-21.167-21.171c-.723-.722-1.121-1.684-1.121-2.707 0-1.022.398-1.983 1.121-2.707l29.172-29.172c.713-.712 1.699-1.121 2.707-1.121s1.994.409 2.707 1.121l3.879 3.879-1.586 1.586-5-5-31.414 31.414 18.996 19h8.832l27-27-5-5 1.586-1.586 3.879 3.879c.723.723 1.121 1.685 1.121 2.707s-.398 1.984-1.121 2.707z"/><circle cx="45" cy="13" r="1"/><circle cx="51" cy="19" r="1"/></svg>