<?xml version="1.0" encoding="iso-8859-1"?>
<!-- Generator: Adobe Illustrator 19.0.0, SVG Export Plug-In . SVG Version: 6.00 Build 0)  -->
<svg version="1.1" id="Capa_1" xmlns="http://www.w3.org/2000/svg" xmlns:xlink="http://www.w3.org/1999/xlink" x="0px" y="0px"
	 viewBox="0 0 512 512" style="enable-background:new 0 0 512 512;" xml:space="preserve">
<path style="fill:#BA6746;" d="M432.979,333.931l-26.252-69.809l25.666-106.271c3.502-14.5-5.414-29.094-19.914-32.595
	l-37.646-9.092c-14.5-3.502-29.094,5.414-32.595,19.914l-26.587,110.087l-37.437,31.966l-28.02-45.921
	c-6.293-10.312-19.754-13.57-30.065-7.278c-10.312,6.292-13.571,19.753-7.278,30.065l41.384,67.822
	c3.337,5.468,8.903,9.199,15.229,10.207c1.148,0.184,2.299,0.273,3.444,0.273c5.169,0,10.215-1.834,14.203-5.238l62.01-52.947
	c0.736-0.629,1.402-1.308,2.034-2.009l13.409,3.178l25.73,68.425l-7.54,89.245c-1.017,12.037,7.917,22.62,19.954,23.637
	c0.627,0.053,1.248,0.079,1.866,0.079c11.246,0,20.807-8.623,21.771-20.032l7.955-94.165
	C434.576,340.233,434.124,336.974,432.979,333.931z"/>
<path style="fill:#AD5C3B;" d="M298.018,237.722c-9.896,0-18.015-7.918-18.216-17.858l-1.452-71.619
	c-0.199-9.823,7.422-18.035,17.232-18.571l93.426-5.094c10.056-0.546,18.645,7.157,19.193,17.208
	c0.548,10.052-7.156,18.645-17.208,19.193l-75.837,4.135l1.095,54.007c0.204,10.064-7.79,18.39-17.854,18.594
	C298.269,237.721,298.143,237.722,298.018,237.722z"/>
<path style="fill:#6C9BAA;" d="M408.2,141.791c-0.548-10.051-9.135-17.754-19.193-17.208l-65.299,3.56l3.072,36.342l64.211-3.501
	C401.044,160.436,408.749,151.842,408.2,141.791z"/>
<path style="fill:#87AFB9;" d="M406.727,264.123l-90.302-21.166l25.813-106.879c3.502-14.5,18.095-23.416,32.595-19.914
	l37.646,9.092c14.5,3.502,23.416,18.095,19.914,32.595L406.727,264.123z"/>
<path style="fill:#3C5A73;" d="M387.619,337.591l40.366-16.942l-21.257-56.525l0,0l0,0l-0.127-0.338
	c-3.061-0.69-6.143-1.295-9.235-1.856l-80.939-18.972l-0.775,3.209l-35.001,29.886l24.898,36.265l43.572-37.204
	c0.738-0.63,1.42-1.302,2.053-2.005l13.391,3.174L387.619,337.591z"/>
<circle style="fill:#BA6746;" cx="412.508" cy="68.933" r="40.234"/>
<path style="fill:#BA6746;" d="M431.046,219.471c-5.848,0-11.483-2.811-14.976-7.778l-41.044-58.383
	c-5.814-8.269-3.824-19.687,4.447-25.501c8.268-5.813,19.686-3.823,25.501,4.447l33.355,47.444l49.889-15.638
	c9.647-3.023,19.917,2.345,22.94,11.991c3.024,9.646-2.345,19.917-11.991,22.941l-62.647,19.637
	C434.713,219.198,432.869,219.471,431.046,219.471z"/>
<path style="fill:#B4D7DC;" d="M427.985,164.988l-23.011-32.732c-5.813-8.269-17.231-10.26-25.501-4.447
	c-8.27,5.813-10.261,17.231-4.447,25.501l23.433,33.332L427.985,164.988z"/>
<path style="fill:#FFB69E;" d="M223.334,359.561l-26.252-69.809l25.666-106.271c3.502-14.5-5.414-29.094-19.914-32.595
	l-37.646-9.092c-14.5-3.502-29.094,5.414-32.595,19.914l-26.587,110.087l-37.437,31.966l-28.02-45.922
	c-6.293-10.312-19.754-13.57-30.065-7.278c-10.312,6.292-13.571,19.753-7.278,30.065l41.384,67.822
	c3.337,5.468,8.903,9.199,15.229,10.207c1.148,0.184,2.299,0.273,3.444,0.273c5.169,0,10.215-1.834,14.203-5.238l62.01-52.947
	c0.736-0.629,1.402-1.308,2.034-2.009l13.41,3.178l25.732,68.426l-7.54,89.245c-1.017,12.037,7.917,22.62,19.954,23.637
	c0.627,0.053,1.248,0.079,1.866,0.079c11.246,0,20.807-8.623,21.771-20.032l7.955-94.165
	C224.93,365.863,224.478,362.604,223.334,359.561z"/>
<path style="fill:#FFA385;" d="M88.373,263.353c-9.896,0-18.015-7.918-18.216-17.858l-1.452-71.619
	c-0.199-9.823,7.422-18.035,17.232-18.571l93.426-5.094c10.056-0.546,18.645,7.157,19.193,17.208
	c0.548,10.052-7.156,18.645-17.208,19.193l-75.837,4.135l1.095,54.007c0.204,10.064-7.79,18.39-17.854,18.594
	C88.623,263.351,88.497,263.353,88.373,263.353z"/>
<path style="fill:#6C9BAA;" d="M198.554,167.421c-0.548-10.051-9.135-17.754-19.193-17.208l-65.299,3.56l3.072,36.342l64.211-3.501
	C191.399,186.066,199.103,177.473,198.554,167.421z"/>
<path style="fill:#87AFB9;" d="M197.081,289.753l-90.302-21.166l25.813-106.879c3.502-14.5,18.095-23.416,32.595-19.914
	l37.646,9.092c14.5,3.502,23.416,18.095,19.914,32.595L197.081,289.753z"/>
<path style="fill:#3C5A73;" d="M177.973,363.221l40.366-16.942l-21.257-56.525l0,0l0,0l-0.127-0.338
	c-3.061-0.69-6.143-1.295-9.235-1.856l-80.939-18.972l-0.775,3.209l-35.001,29.886l24.898,36.265l43.572-37.204
	c0.738-0.63,1.42-1.302,2.053-2.005l13.391,3.174L177.973,363.221z"/>
<circle style="fill:#FFB69E;" cx="202.863" cy="94.558" r="40.234"/>
<path style="fill:#FFB69E;" d="M221.4,245.102c-5.848,0-11.483-2.811-14.976-7.778l-41.044-58.383
	c-5.814-8.269-3.824-19.687,4.447-25.501c8.268-5.813,19.686-3.823,25.501,4.447l33.355,47.444l49.889-15.638
	c9.647-3.023,19.917,2.345,22.94,11.991c3.024,9.646-2.345,19.917-11.991,22.941l-62.647,19.637
	C225.067,244.828,223.223,245.102,221.4,245.102z"/>
<path style="fill:#B4D7DC;" d="M218.339,190.618l-23.011-32.732c-5.813-8.269-17.231-10.26-25.501-4.447
	c-8.27,5.813-10.261,17.231-4.447,25.501l23.433,33.332L218.339,190.618z"/>
<g>
</g>
<g>
</g>
<g>
</g>
<g>
</g>
<g>
</g>
<g>
</g>
<g>
</g>
<g>
</g>
<g>
</g>
<g>
</g>
<g>
</g>
<g>
</g>
<g>
</g>
<g>
</g>
<g>
</g>
</svg>
