<?xml version="1.0" encoding="iso-8859-1"?>
<!-- Generator: Adobe Illustrator 19.0.0, SVG Export Plug-In . SVG Version: 6.00 Build 0)  -->
<svg version="1.1" id="Capa_1" xmlns="http://www.w3.org/2000/svg" xmlns:xlink="http://www.w3.org/1999/xlink" x="0px" y="0px"
	 viewBox="0 0 512 512" style="enable-background:new 0 0 512 512;" xml:space="preserve">
<path style="fill:#53CEEA;" d="M510.866,257.133c0,101.582-59.431,189.288-145.419,230.233
	c-23.032,10.964-47.956,18.579-74.161,22.199c-11.537,1.602-23.312,2.434-35.286,2.434c-6.543,0-13.035-0.25-19.453-0.739
	c-9.113-0.687-18.08-1.852-26.891-3.464c-22.179-4.078-43.358-11.016-63.134-20.441C60.554,446.399,1.134,358.705,1.134,257.133
	C1.134,116.374,115.241,2.267,256,2.267S510.866,116.374,510.866,257.133z"/>
<path style="fill:#F9CEBB;" d="M407.783,461.89C365.381,493.379,312.868,512,255.997,512s-109.395-18.631-151.796-50.12
	c0.374-75.066,34.35-139.968,83.742-171.551c20.473-13.097,43.577-20.473,68.044-20.473s47.582,7.376,68.054,20.473
	C373.433,321.922,407.408,386.824,407.783,461.89z"/>
<g>
	<path style="fill:#F4B298;" d="M324.041,290.329c-19.318,13.232-42.766,20.119-68.054,20.119c-21.326,0-38.438-4.921-54.864-14.387
		c-32.415,33.507-54.198,95.788-54.198,167.099c0,8.582,0.312,16.852,0.926,24.821c-15.458-7.261-30.074-16.02-43.65-26.1
		c0.52-104.225,65.818-188.851,147.188-191.93c0.114-0.01,0.229-0.01,0.343-0.01c0.947-0.031,1.893-0.073,2.85-0.083
		c-0.312,0.01-0.624,0.031-0.947,0.042c0.791-0.01,1.56-0.042,2.351-0.042C280.454,269.857,303.568,277.232,324.041,290.329z"/>
	<circle style="fill:#F4B298;" cx="408.171" cy="146.917" r="37.081"/>
</g>
<circle style="fill:#D88F7C;" cx="401.679" cy="153.097" r="24.412"/>
<circle style="fill:#EAA48C;" cx="103.809" cy="146.917" r="37.081"/>
<circle style="fill:#D88F7C;" cx="110.3" cy="153.097" r="24.412"/>
<path style="fill:#F9CEBB;" d="M408.295,154.311c0,84.115-68.19,131.156-152.305,131.156s-152.305-47.04-152.305-131.156
	S171.874,2.006,255.99,2.006S408.295,70.195,408.295,154.311z"/>
<path style="fill:#F4B298;" d="M255.995,285.463c-84.118,0-152.31-47.043-152.31-131.152c0-83.649,67.428-151.547,150.894-152.301
	c-59.787,1.058-108.016,68.836-108.016,152.301C146.563,238.42,195.555,285.463,255.995,285.463z"/>
<g>
	<path style="fill:#39B7DD;" d="M340.289,154.692v-27.345c0-7.131-5.781-12.913-12.913-12.913l0,0
		c-7.131,0-12.913,5.781-12.913,12.913v27.345c0,7.131,5.781,12.913,12.913,12.913l0,0
		C334.508,167.605,340.289,161.824,340.289,154.692z"/>
	<path style="fill:#39B7DD;" d="M197.516,154.692v-27.345c0-7.131-5.781-12.913-12.913-12.913l0,0
		c-7.131,0-12.913,5.781-12.913,12.913v27.345c0,7.131,5.781,12.913,12.913,12.913l0,0
		C191.735,167.605,197.516,161.824,197.516,154.692z"/>
</g>
<g>
	<path style="fill:#F4B298;" d="M270.242,142.94h-28.505c-5.079,0-9.195,4.116-9.195,9.195l0,0c0,5.079,4.116,9.195,9.195,9.195
		h28.505c5.079,0,9.195-4.116,9.195-9.195l0,0C279.437,147.058,275.321,142.94,270.242,142.94z"/>
	<path style="fill:#F4B298;" d="M255.99,123.775L255.99,123.775c-5.84,0-10.574,4.734-10.574,10.574v17.787h21.149v-17.787
		C266.564,128.509,261.83,123.775,255.99,123.775z"/>
</g>
<path style="fill:#BA6041;" d="M255.99,2.006c-38.157,17.258-38.778,72.228-4.595,88.522c49.194,23.448,67.126-40.459,67.126-40.459
	s-32.184,21.149-41.379,0c-9.195-21.149,27.978-40.38,49.391-30.764l-0.058-0.05C306.99,2.759,280.89-3.628,255.99,2.006
	L255.99,2.006z"/>
<path style="fill:#A04E38;" d="M269.786,90.528c3.945,1.876,7.688,3.2,11.237,4.028c-8.267,2.17-18.087,1.471-29.627-4.028
	c-34.187-16.294-33.562-71.263,4.598-88.523c9.011-2.041,18.179-2.501,27.135-1.48c-2.924,0.331-5.839,0.828-8.745,1.48
	C236.223,19.265,235.598,74.234,269.786,90.528z"/>
<g>
	<ellipse style="fill:#FCB8D2;" cx="352.017" cy="187.02" rx="21.074" ry="12.818"/>
	<path style="fill:#FCB8D2;" d="M181.033,187.023c0,7.08-9.434,12.818-21.067,12.818c-2.905,0-5.674-0.359-8.184-1.011
		c-7.577-1.931-12.892-6.492-12.892-11.807c0-4.313,3.504-8.138,8.883-10.455c3.439-1.49,7.65-2.363,12.193-2.363
		C171.599,174.205,181.033,179.942,181.033,187.023z"/>
</g>
<path style="fill:#EF9BBE;" d="M151.783,198.829c-7.577-1.931-12.892-6.492-12.892-11.807c0-4.313,3.504-8.138,8.883-10.455
	C148.657,184.384,150,191.804,151.783,198.829z"/>
<path style="fill:#F4B298;" d="M269.064,261.017c-8.548,2.413-17.6,2.413-26.148,0c-2.266-0.64-4.642,0.569-5.475,2.771
	c-0.01,0.029-0.022,0.057-0.032,0.086c-0.937,2.48,0.425,5.261,2.976,5.983c10.201,2.887,21.007,2.887,31.209,0
	c2.551-0.722,3.913-3.503,2.976-5.983c-0.01-0.029-0.022-0.057-0.032-0.086C273.706,261.585,271.331,260.378,269.064,261.017z"/>
<path style="fill:#53506D;" d="M313.805,203.362c0,11.516-5.721,22.002-15.105,29.887c-10.569,8.884-25.788,14.46-42.713,14.46
	c-16.915,0-32.134-5.576-42.703-14.46c-9.383-7.885-15.105-18.371-15.105-29.887c0-24.488,25.882-29.866,57.808-29.866
	c4.328,0,8.53,0.094,12.587,0.333c6.179,0.354,11.994,1.009,17.248,2.101C302.591,179.405,313.805,187.249,313.805,203.362z"/>
<path style="fill:#FF80B0;" d="M298.7,233.249c-10.569,8.884-25.788,14.46-42.713,14.46c-16.915,0-32.134-5.576-42.703-14.46
	c10.569-8.884,25.788-14.46,42.713-14.46C272.912,218.79,288.131,224.366,298.7,233.249z"/>
<path style="fill:#FFFFFF;" d="M285.821,175.931v8.665c0,4.764-3.859,8.624-8.624,8.624c-4.764,0-8.624-3.859-8.624-8.624v-10.767
	C274.753,174.183,280.568,174.838,285.821,175.931z"/>
<path style="fill:#FFC25F;" d="M365.447,487.365c-33.164,15.791-70.27,24.634-109.447,24.634c-39.187,0-76.314-8.842-109.478-24.644
	c-14.241-32.051-14.345-70.041,2.975-103.642c30.334-58.806,102.591-81.9,161.408-51.577
	C367.673,361.42,391.162,429.766,365.447,487.365z"/>
<path style="fill:#EDAC4F;" d="M281.809,321.609c-33.601,7.396-63.779,29.138-80.777,62.104
	c-21.19,41.091-16.311,88.745,8.624,124.083c-22.179-4.078-43.358-11.016-63.134-20.441c-14.241-32.051-14.345-70.041,2.975-103.642
	C174.963,334.331,230.004,310.145,281.809,321.609z"/>
<path style="fill:#FF80B0;" d="M317.667,470.451c-7.396,14.345-16.28,27.411-26.381,39.114c-11.537,1.602-23.312,2.434-35.286,2.434
	c-6.543,0-13.035-0.25-19.453-0.739c18.402-16.103,34.131-35.869,46.022-58.91c20.525-39.801,26.412-83.263,19.64-124.26
	c2.923,1.217,5.826,2.569,8.686,4.047c10.163,5.243,19.255,11.734,27.193,19.183C343.549,390.808,337.328,432.304,317.667,470.451z"
	/>
<path style="fill:#F9CEBB;" d="M420.144,406.547c0,11.443-6.658,22.335-17.809,27.193l-28.94,12.629l-12.213,5.326
	c-15.011,6.554-32.488-0.312-39.041-15.323c-1.685-3.859-2.476-7.885-2.476-11.838c0-11.433,6.647-22.335,17.799-27.203l9.737-4.244
	l31.416-13.7c15.011-6.554,32.498,0.302,39.041,15.323C419.343,398.568,420.144,402.594,420.144,406.547z"/>
<path style="fill:#F4B298;" d="M192.325,424.532c0,3.953-0.801,7.979-2.486,11.838c-6.554,15.011-24.03,21.877-39.041,15.323
	l-41.153-17.955c-11.152-4.858-17.799-15.76-17.799-27.193c0-3.953,0.791-7.979,2.476-11.838
	c6.554-15.022,24.03-21.877,39.041-15.323l41.153,17.945C185.667,402.199,192.325,413.089,192.325,424.532z"/>
<path style="fill:#F9CEBB;" d="M192.325,424.532c0,3.953-0.801,7.979-2.486,11.838c-6.554,15.011-24.03,21.877-39.041,15.323
	c-11.152-4.858-17.799-15.76-17.799-27.203c0-3.953,0.791-7.979,2.476-11.838c6.554-15.011,24.03-21.866,39.041-15.323
	C185.667,402.199,192.325,413.089,192.325,424.532z"/>
<g>
</g>
<g>
</g>
<g>
</g>
<g>
</g>
<g>
</g>
<g>
</g>
<g>
</g>
<g>
</g>
<g>
</g>
<g>
</g>
<g>
</g>
<g>
</g>
<g>
</g>
<g>
</g>
<g>
</g>
</svg>
