<?xml version="1.0" encoding="iso-8859-1"?>
<!-- Generator: Adobe Illustrator 21.0.0, SVG Export Plug-In . SVG Version: 6.00 Build 0)  -->
<svg xmlns="http://www.w3.org/2000/svg" xmlns:xlink="http://www.w3.org/1999/xlink" version="1.1" id="Capa_1" x="0px" y="0px" viewBox="0 0 508.005 508.005" style="enable-background:new 0 0 508.005 508.005;" xml:space="preserve" width="512" height="512">
<g>
	<path d="M467.071,214.012c-1.963-3.648-6.513-5.012-10.159-3.05c-3.648,1.964-5.013,6.512-3.049,10.159   c26.042,48.382,40.282,88.655,39.069,110.494c-1.451,26.109-31.98,56.849-88.287,88.893   c-46.841,26.657-97.934,46.172-115.338,51.446c-12.643,3.832-42.761,6.421-78.6,6.758c-4.142,0.039-7.468,3.429-7.429,7.57   c0.039,4.118,3.389,7.43,7.498,7.43c0.024,0,0.048,0,0.072,0c37.729-0.355,68.686-3.122,82.809-7.402   c21.245-6.439,72.178-26.456,118.406-52.765c61.826-35.185,94.073-69.199,95.845-101.098   C509.681,300.558,486.679,250.44,467.071,214.012z"/>
	<path d="M180.969,478.469c-53.763-1.373-97.973-7.568-118.263-16.573c-26.82-11.901-44.995-42.392-47.431-79.572   c-2.542-38.785,12.675-74.15,38.768-90.096c23.026-14.072,48.001-15.593,74.235-4.518c12.081,5.1,21.741,11.845,27.586,16.473   L135.9,319.711c-3.27,2.543-3.859,7.255-1.315,10.524c2.507,3.224,7.297,3.826,10.524,1.315l27-21   c0.792-0.616,1.423-1.36,1.893-2.179c35.85-30.195,75.67-41.16,118.401-32.564c32.816,6.603,55.234,22.855,55.447,23.013   c2.953,2.181,7.049,1.903,9.682-0.653c2.632-2.557,3.028-6.643,0.935-9.658c-14.972-21.559-14.72-64.47-14.517-98.949   c0.206-34.999-0.141-55.219-9.652-63.782c-3.283-2.955-7.413-4.251-11.935-3.749c-13.97,1.548-23.533-3.267-31.973-7.517   c-9.901-4.987-22.223-11.192-34.726,2.271c-8.949,9.638-23.986,16.378-36.567,16.39c-0.011,0-0.022,0-0.032,0   c-4.471,0-10.594-0.871-14.448-5.006c-5.213-5.594-7.871-28.29-3.293-56.587c3.927-24.274,10.708-36.225,14.06-38.055   c17.132-9.357,75.822-2.136,102.95,12.66c28.172,15.366,78.957,77.933,120.757,148.768c2.107,3.568,6.705,4.754,10.271,2.647   c3.567-2.104,4.753-6.703,2.647-10.27C416.252,126.736,361.416,52.6,325.516,33.018c-14.268-7.783-36.85-14.186-60.405-17.126   c-14.813-1.851-41.905-3.728-56.916,4.468c-13.152,7.182-19.228,33.674-21.679,48.825c-3.915,24.198-4.397,56.844,7.127,69.209   c5.972,6.408,14.772,9.749,25.467,9.779c16.689-0.016,35.796-8.528,47.545-21.183c4.504-4.851,6.513-4.356,16.987,0.918   c9.278,4.673,21.986,11.072,40.376,9.028c0.114-0.013,0.197-0.014,0.243-0.014c0.409,0.345,2.712,2.798,3.888,15.051   c0.961,10.025,0.883,23.369,0.8,37.498c-0.169,28.797-0.355,60.469,6.96,85.257c-10.269-4.917-23.9-10.21-39.924-13.499   c-32.179-6.604-80.138-5.973-128.494,33.055c-6.229-5.183-17.782-13.729-32.888-20.185c-30.669-13.105-61.232-11.265-88.383,5.329   C30.232,289.2,17.537,304.674,9.507,324.18c-7.379,17.926-10.56,38.37-9.2,59.125c2.803,42.763,24.381,78.13,56.315,92.302   c31.703,14.069,97.253,17.176,123.964,17.858c0.065,0.001,0.13,0.002,0.195,0.002c4.053,0,7.39-3.233,7.494-7.309   C188.381,482.018,185.11,478.576,180.969,478.469z"/>
	<path d="M102.962,223.066c2.053,0.997,4.506,0.997,6.559,0c0.552-0.269,13.668-6.696,27.1-17.694   c3.205-2.623,3.676-7.349,1.052-10.554c-2.624-3.205-7.35-3.677-10.554-1.052c-8.257,6.76-16.523,11.67-20.921,14.098   c-16.181-8.755-48.031-31.596-44.574-56.866c2.166-15.832,13.399-18.466,18.128-18.863c8.813-0.742,17.307,3.743,19.333,10.21   c0.98,3.128,3.878,5.257,7.157,5.257c3.278,0,6.177-2.129,7.157-5.257c2.026-6.467,10.52-10.953,19.333-10.21   c4.729,0.398,15.962,3.031,18.128,18.863c0.996,7.283-0.8,14.835-5.337,22.445c-2.121,3.558-0.957,8.161,2.601,10.282   c3.558,2.122,8.161,0.958,10.283-2.601c6.322-10.604,8.784-21.424,7.315-32.16c-2.97-21.713-18.34-30.651-31.733-31.777   c-10.794-0.913-20.97,2.729-27.746,9.264c-6.775-6.535-16.956-10.177-27.747-9.264c-13.393,1.126-28.763,10.065-31.733,31.777   C40.83,192.327,100.423,221.831,102.962,223.066z"/>
</g>















</svg>
