<svg xmlns="http://www.w3.org/2000/svg" xmlns:xlink="http://www.w3.org/1999/xlink" width="231.006" height="370.001" viewBox="0 0 231.006 370.001">
  <defs>
    <radialGradient id="radial-gradient" cx="0.5" cy="0.63" r="0.381" gradientTransform="matrix(-1, 0, 0, -1.227, 1, 1.403)" gradientUnits="objectBoundingBox">
      <stop offset="0" stop-color="#f9ff40"/>
      <stop offset="1" stop-color="#2dcfca"/>
    </radialGradient>
  </defs>
  <g id="buddhist-yoga-pose" transform="translate(-69.499 0.001)">
    <path id="Path_100" data-name="Path 100" d="M260.422,314.065c-3.338-.517-5.858-.875-7.909-1.164a72.81,72.81,0,0,1-15.359-3.428c-2.9-.9-14.259-12.358-14.259-34.775,0-28.879,6.857-54.382,9.8-64.005.078-.251.27-.978.536-1.962.487-1.807,4.062-12.719,4.062-12.719a152.089,152.089,0,0,0,5.247-17.191l.07-.3c1.967-8.54,8.424-39.756,8.882-82.935,0-4.357-3.622-8.148-5.785-10.412-.4-.416-.747-.78-1.009-1.086-2.083-2.422-4.825-5.412-8-8.872-2.092-2.282-4.4-4.8-6.879-7.546-3.972-4.393-8.4-8.412-12.686-12.3-5.269-4.775-10.714-9.713-15.189-15.28-6.688-8.317-12.871-22.874-11.752-34.606a5.521,5.521,0,0,0-1.162-4.309A3.623,3.623,0,0,0,185,.26a3.623,3.623,0,0,0-4.03.916,5.517,5.517,0,0,0-1.161,4.309c1.117,11.732-5.066,26.289-11.752,34.606-4.477,5.567-9.922,10.505-15.191,15.28-4.283,3.885-8.715,7.9-12.685,12.3-2.482,2.75-4.789,5.264-6.88,7.546-3.177,3.46-5.917,6.45-8,8.872-.262.306-.61.67-1.007,1.086-2.163,2.264-5.786,6.055-5.786,10.434.459,43.157,6.916,74.373,8.883,82.913l.069.3a152.433,152.433,0,0,0,5.246,17.191s3.574,10.912,4.061,12.719c.267.984.46,1.711.538,1.962,2.945,9.623,9.8,35.126,9.8,64.005,0,22.418-11.355,33.871-14.257,34.775a72.814,72.814,0,0,1-15.361,3.428c-2.051.289-4.569.647-7.907,1.164C73.4,317.915,69.5,335.874,69.5,343.418a26.8,26.8,0,0,0,5.822,14.649C79.612,363.509,88.158,370,104.516,370a72.309,72.309,0,0,0,7.718-.434c10.887-1.17,21.859-2.928,32.468-4.627,3.854-.617,7.7-1.233,11.555-1.824,5.134-.787,14.387-1.309,27.5-1.549.614-.012,1.041-.021,1.248-.027s.634.016,1.246.027c13.113.24,22.365.762,27.5,1.549,3.852.591,7.7,1.207,11.553,1.824,10.61,1.7,21.583,3.457,32.468,4.627a72.573,72.573,0,0,0,7.718.434c16.361,0,24.909-6.488,29.2-11.933a26.8,26.8,0,0,0,5.82-14.649C300.5,335.874,296.6,317.915,260.422,314.065Zm-56.29-147.029a3.583,3.583,0,0,1-1.567-.362c-1.683-.671-3.841-3.886-4.042-5.134,8.382-5.832,14.045-16.91,14.045-29.625,0-18.777-1.982-34-27.567-34s-27.567,15.223-27.567,34c0,12.715,5.663,23.793,14.044,29.625a10.457,10.457,0,0,1-4.041,5.134,3.574,3.574,0,0,1-1.567.362c-5.387,0-12.139-11.8-13.912-16.492-3.021-7.977-6.792-21.688-7.6-41.7l-.033-.77c-.207-4.215,6.142-14.994,6.983-16.838,1.156-2.539,16.154-25.4,20.608-30.816C173.492,58.508,181.481,47.9,185,43.218c3.52,4.682,11.508,15.29,13.084,17.205,4.457,5.416,19.451,28.277,20.609,30.816.842,1.844,7.191,12.623,6.985,16.838l-.033.77c-.81,20.01-4.579,33.721-7.6,41.7C216.271,155.238,209.521,167.036,204.132,167.036Z" fill="url(#radial-gradient)"/>
  </g>
</svg>
