<svg height="464pt" viewBox="0 0 464 464" width="464pt" xmlns="http://www.w3.org/2000/svg"><path d="m432 0h-288c-17.671875 0-32 14.328125-32 32v400c0 17.671875 14.328125 32 32 32h288c17.671875 0 32-14.328125 32-32v-400c0-17.671875-14.328125-32-32-32zm0 0" fill="#e6e7e8"/><path d="m112 384h-80v-224h-32v256h224v-32zm0 0" fill="#ff9811"/><path d="m32 128h208v256h-208zm0 0" fill="#ffd422"/><path d="m155.601562 199.121094-3.601562-7.121094-11.921875 7.921875c-7.875 5.28125-17.152344 8.097656-26.636719 8.078125h-9.441406v16c.011719 7.777344 2.855469 15.285156 8 21.121094 2.269531 2.628906 4.976562 4.847656 8 6.558594 9.890625 5.761718 22.109375 5.761718 32 0 2.414062-1.398438 4.644531-3.09375 6.640625-5.039063 5.980469-6.019531 9.34375-14.15625 9.359375-22.640625v-16.160156c-5.359375-.578125-10.042969-3.875-12.398438-8.71875zm0 0" fill="#ffdaaa"/><path d="m136 160c-8.660156-.035156-17.09375 2.777344-24 8-10.0625 7.5625-15.988281 19.414062-16 32v8h17.441406c9.484375.019531 18.761719-2.796875 26.636719-8.078125l11.921875-7.921875 3.601562 7.121094c2.355469 4.84375 7.039063 8.140625 12.398438 8.71875.632812.132812 1.277344.1875 1.921875.160156h6.078125v-8c0-22.089844-17.910156-40-40-40zm0 0" fill="#3e3d42"/><path d="m416 0v80l-24-24-24 24v-80zm0 0" fill="#ff5023"/><path d="m163.601562 275.28125-27.601562 20.71875-27.601562-20.71875 11.601562-3.28125v-20.320312c9.890625 5.761718 22.109375 5.761718 32 0v20.320312zm0 0" fill="#ffdaaa"/><path d="m184.800781 281.359375-21.199219-6.078125-27.601562 20.71875-24-18-3.601562-2.71875-21.199219 6.078125c-13.746094 3.933594-23.214844 16.503906-23.199219 30.800781v39.839844h144v-39.839844c.015625-14.296875-9.453125-26.867187-23.199219-30.800781zm0 0" fill="#3d9ae2"/><path d="m152 251.679688v8c-9.890625 5.761718-22.109375 5.761718-32 0v-8c9.890625 5.761718 22.109375 5.761718 32 0zm0 0" fill="#f2cd9d"/><path d="m88 312h16v40h-16zm0 0" fill="#1e81ce"/><path d="m168 312h16v40h-16zm0 0" fill="#1e81ce"/><g fill="#c6c5ca"><path d="m152 40h64v16h-64zm0 0"/><path d="m152 72h64v16h-64zm0 0"/><path d="m280 120h144v16h-144zm0 0"/><path d="m280 168h144v16h-144zm0 0"/><path d="m280 216h144v16h-144zm0 0"/><path d="m280 264h144v16h-144zm0 0"/><path d="m280 312h144v16h-144zm0 0"/><path d="m280 360h144v16h-144zm0 0"/></g></svg>