<svg height="464pt" viewBox="0 0 464.00216 464" width="464pt" xmlns="http://www.w3.org/2000/svg"><path d="m144.003906 0h288c17.671875 0 32 14.328125 32 32v400c0 17.675781-14.328125 32-32 32h-288c-17.675781 0-32-14.324219-32-32v-400c0-17.671875 14.324219-32 32-32zm0 0" fill="#e6e7e8"/><path d="m112.003906 137.042969c-48.476562 6.121093-89.242187 39.296875-105.085937 85.515625-15.84375 46.222656-4 97.429687 30.523437 132.003906l28.320313-28.320312c-25.230469-25.152344-32.792969-63.039063-19.160157-95.949219 13.632813-32.914063 45.777344-54.351563 81.402344-54.292969v-40c-5.351562-.015625-10.699218.332031-16 1.042969zm0 0" fill="#00ccb3"/><path d="m216.003906 264h40c0 70.695312-57.308594 128-128 128-5.347656.003906-10.691406-.316406-16-.957031v-40.480469c25.699219 4.703125 52.164063-2.242188 72.246094-18.957031 20.082031-16.714844 31.710938-41.476563 31.753906-67.605469zm0 0" fill="#ffd422"/><path d="m112.003906 350.5625v40.480469c-28.21875-3.535157-54.453125-16.371094-74.5625-36.480469l28.320313-28.320312c12.585937 12.613281 28.714843 21.09375 46.242187 24.320312zm0 0" fill="#ffd422"/><path d="m376.003906 144c0 8.835938-7.164062 16-16 16-8.839844 0-16-7.164062-16-16s7.160156-16 16-16c8.835938 0 16 7.164062 16 16zm0 0" fill="#ffa733"/><path d="m256.003906 264h-40c.011719-23.34375-9.257812-45.734375-25.761718-62.238281-16.507813-16.507813-38.898438-25.773438-62.238282-25.761719v-40c70.691406 0 128 57.308594 128 128zm0 0" fill="#ff6243"/><path d="m416.003906 0v80l-24-24-24 24v-80zm0 0" fill="#ff6243"/><path d="m152.003906 40h32v16h-32zm0 0" fill="#acabb1"/><path d="m200.003906 40h80v16h-80zm0 0" fill="#c6c5ca"/><path d="m152.003906 72h128v16h-128zm0 0" fill="#c6c5ca"/><path d="m253.65625 173.65625-11.308594-11.3125 24-24c1.5-1.5 3.53125-2.34375 5.65625-2.34375h48v16h-44.691406zm0 0" fill="#ff5023"/><path d="m296.003906 416h-48c-2.125 0-4.15625-.84375-5.65625-2.34375l-24-24 11.308594-11.3125 21.65625 21.65625h44.691406zm0 0" fill="#ffd422"/><path d="m312.003906 400h48v16h-48zm0 0" fill="#ebbf00"/><path d="m312.003906 368h48v16h-48zm0 0" fill="#ebbf00"/><g fill="#c6c5ca"><path d="m312.003906 216h112v16h-112zm0 0"/><path d="m312.003906 248h112v16h-112zm0 0"/><path d="m312.003906 280h112v16h-112zm0 0"/></g></svg>