<svg xmlns="http://www.w3.org/2000/svg" width="348.077" height="347.29" viewBox="0 0 348.077 347.29"><g transform="translate(0 -0.394)"><path d="M340.273,275.083l-53.755-53.761c-10.707-10.664-28.438-10.34-39.518.744l-27.082,27.076c-1.711-.943-3.482-1.928-5.344-2.973-17.1-9.476-40.509-22.464-65.14-47.113-24.7-24.7-37.7-48.144-47.209-65.257-1-1.813-1.964-3.561-2.913-5.221l18.176-18.149,8.936-8.947c11.1-11.1,11.4-28.826.721-39.521L73.39,8.194C62.708-2.486,44.969-2.162,33.872,8.938L18.722,24.175l.414.411A87.607,87.607,0,0,0,6.652,46.606,91.3,91.3,0,0,0,1.1,68.941C-6,127.785,20.89,181.564,93.866,254.541c100.875,100.868,182.167,93.248,185.674,92.876a90.828,90.828,0,0,0,22.4-5.627,87.31,87.31,0,0,0,21.941-12.43l.331.294,15.348-15.029C350.631,303.527,350.95,285.8,340.273,275.083Z" fill="#fff"/></g></svg>