<svg xmlns="http://www.w3.org/2000/svg" width="1163.021" height="1399.359" viewBox="0 0 1163.021 1399.359">
  <g id="Group_365" data-name="Group 365" transform="translate(7731.527 -18890.5)">
    <path id="Path_1687" data-name="Path 1687" d="M18094.053,9038.177c12.338-.484,13.875,7.1,16.809,15.987,2.809,8.476,6.813,18.44-6.111,42.582-18.82,35.191-133.41,101.834-133.41,101.834s140.1,141.919,147.008,148.318c0,0,5.955,8.975,1.633,12.975s-3.648,12.974-5.471,12.974-.2,1.066-3.648,4.177c-3.359,3.111-43.98,8.354-43.98,4.8,0-1.333,3.746-2.844,8.449-4.177,10.371-2.933,17.188-12.085,16.42-22.038h0c2.3-5.865-159.01-109.483-171.783-127.079-12.674-17.595-17.186-30.126-17.186-30.126s68.932-85.745,132.24-133.035c25.313-18.907,28.641-25.962,59.031-27.19Z" transform="translate(-25148.949 10138.326)" fill="#f9b69f"/>
    <path id="Path_1547" data-name="Path 1547" d="M5634,5247l175,34,35-121-191-41Z" transform="translate(-14741.481 18135.535) rotate(-31)" fill="#414242"/>
    <path id="path61" d="M3460.374,6510.377a10.337,10.337,0,0,1,2.767.23l.231-1.614a20.019,20.019,0,0,0-5.994-.461l-.23-.922a2.245,2.245,0,0,0,1.844-2.306,2.309,2.309,0,0,0-2.306-2.3,2.177,2.177,0,0,0-2.305,2.3,2.245,2.245,0,0,0,1.844,2.306l.23.922a25.347,25.347,0,0,0-6.455,1.845l.461,1.614a29.646,29.646,0,0,1,5.764-1.384,26.664,26.664,0,0,1,3.919-.23Z" transform="translate(-10796.197 13777.869)" fill="#fefefe"/>
    <path id="path71" d="M2701.51,6223.257c-321.286,0-581.51-15.2-581.51-34.129S2380.635,6155,2701.51,6155c321.286,0,581.51,15.2,581.51,34.129S3022.386,6223.257,2701.51,6223.257Z" transform="translate(-9851.526 14041.021)" fill="#57706f"/>
    <path id="path81" d="M4242.238,3377.353l.23-.461c5.533-24.668-8.76-31.354-8.76-31.354L4215.5,3186l-44.5,33.2,6.225-2.305,18.443,125.417s-22.594,12.45-10.144,35.734l11.758-7.377s5.071,4.611,1.152,9.914c0,0-4.149-1.153-6.455,4.841,0,0,5.533,9.222,15.215,1.844h0s7.378,6.686,14.524,0c0,0,12.219,5.072,19.366-7.608h0a8.165,8.165,0,0,0,.922-2.075v-.231Z" transform="translate(-11350.974 16330.15)" fill="#f9b69f"/>
    <path id="path85" d="M2122.272,1999.075l-49.106-139.941s-18.9,2.305-32.046-2.075c0,0-13.372-9.452-5.764-14.063,0,0-11.3-3.458-6.225-13.6,0,0-11.3-9.913-2.767-17.06,0,0-9.222-8.991,6.455-14.524s38.5-2.075,38.5-2.075-11.066-25.36-2.536-37.118c7.146-9.683,18.9,37.348,18.9,37.348l80,213.485-45.418-10.144Z" transform="translate(-9698.323 17429.467)" fill="#f9b69f"/>
    <path id="path87" d="M4178.3,3231.956c12.911-6.916,25.821-13.833,38.963-20.288L4214.5,3187l-44.5,33.2,6.225-2.305,2.074,13.833Z" transform="translate(-11350.204 16329.381)" fill="#e79e8a"/>
    <path id="path89" d="M2416.2,2496c-9.914,9.452-20.058,18.444-30.2,27.435l15.446,44.034,45.418,10.144L2416.432,2496Z" transform="translate(-9977.498 16861.074)" fill="#e79e8a"/>
    <path id="polygon91" d="M3124,5731.532l10.6,70.777,28.126.462L3154.893,5726Z" transform="translate(-10545.354 14375.736)" fill="#497173"/>
    <path id="polygon93" d="M3854,5854.225l12.219,70.547h28.126L3884.892,5848Z" transform="translate(-11107.057 14281.862)" fill="#497173"/>
    <path id="path95" d="M3159.5,5771.417,3154.893,5726,3124,5731.763l5.994,39.192c8.761.461,19.6,1.152,29.74.461Z" transform="translate(-10545.354 14375.736)" fill="#3c5c5f"/>
    <path id="path97" d="M3888.581,5879.892,3884.892,5849,3854,5855.225l5.071,29.739C3868.755,5883.12,3878.9,5882.2,3888.581,5879.892Z" transform="translate(-11107.057 14281.094)" fill="#3c5c5f"/>
    <path id="path99" d="M3230.393,3908.6l-59.942-578.67-3.228.231c-23.977-49.567-116.2-4.38-152.16,15.677l-13.372-1.845c-1.844,11.066-44.956,271.583,6.456,554.923,0,0,29.51,9.452,54.178-8.3-20.519-124.033-19.135-331.755-4.842-432.273,20.75,3.458,29.51.461,53.026-1.152,0,0,50.259,405.76,60.633,457.4,31.585,12.68,59.02-5.994,59.02-5.994Z" transform="translate(-10436.879 16236.479)" fill="#1f3e46"/>
    <path id="polygon101" d="M3362.383,3647,3361,3705.558l17.291,1.152-.461,13.833,3.458-.461,3.689-70.085Z" transform="translate(-10727.715 15975.432)" fill="#20464d"/>
    <path id="polygon103" d="M3414.614,1694.818,3413,1798.794l69.625-25.591,2.305-107.2Z" transform="translate(-10767.728 17499.721)" fill="#e79e8a"/>
    <path id="path105" d="M3370.181,918.9c-14.063-3.689-23.747,5.994-29.51,15.677-2.074-35.043-4.38-66.628-4.38-66.628s-12.911-37.348-75.619-31.815l-56.945,5.072s-25.129,171.987-12.91,191.353c10.144,16.138,38.04,38.5,68.241,35.965s85.3-19.135,85.3-49.567c0-6.916-.461-18.213-1.152-31.815,40.115,6.225,52.564-61.556,26.513-68.472Z" transform="translate(-10594.188 18138.695)" fill="#f9b69f"/>
    <path id="path107" d="M3892.363,1244.11c-14.985-4.381-21.44,17.982-22.363,21.441,10.144,4.842,13.141,17.982,7.608,25.36C3901.124,1292.986,3908.271,1248.721,3892.363,1244.11Z" transform="translate(-11119.368 17824.781)" fill="#e79e8a"/>
    <path id="path109" d="M3265.913,652.457l-4.149,20.519h-11.758V602.428s-25.36-14.063-23.285-39.423c0,0-25.36,11.527-50.259,15.216-19.135,3-92.91,12.68-91.526-55.331,0,0,12.218,22.824,28.587,24.668,0,0-39.423-20.98-11.3-59.711,0,0-3.458,20.288,11.3,18.444s62.248-45.648,104.9-31.124,43.574,40.576,43.574,40.576,43.112-.692,45.878,22.132-26.513,100.518-26.513,100.518-15.447,3-15.447,13.6Z" transform="translate(-10515.282 18418.279)" fill="#70483e"/>
    <path id="path111" d="M3505.081,1035.885s33.429-7.147,42.42,7.608c0,0,9.683-14.525-4.15-20.288s-29.51-3.919-36.426-1.614C3500.239,1023.9,3497.011,1034.041,3505.081,1035.885Z" transform="translate(-10834.909 17997.271)" fill="#70483e"/>
    <path id="path113" d="M3258.147,1037.933s-29.049-8.991-38.271,5.072c0,0-5.763-15.447,7.608-18.9,13.372-3.228,26.974-2.305,32.968.231C3266.216,1026.636,3265.063,1037.933,3258.147,1037.933Z" transform="translate(-10618.177 17995.225)" fill="#70483e"/>
    <path id="path115" d="M3610,1156.6c0,7.377,3.688,13.6,8.069,13.6s8.069-5.994,8.069-13.6c0-7.377-3.689-13.6-8.069-13.6S3610,1148.994,3610,1156.6Z" transform="translate(-10919.31 17902.146)" fill="#2d3036"/>
    <path id="path117" d="M3327,1156.6c0,7.377,3.688,13.6,8.069,13.6s8.069-5.994,8.069-13.6c0-7.377-3.689-13.6-8.069-13.6S3327,1148.994,3327,1156.6Z" transform="translate(-10701.555 17902.146)" fill="#2d3036"/>
    <path id="polygon119" d="M3366.281,1144,3340,1213.394l35.273,7.147Z" transform="translate(-10711.557 17901.377)" fill="#e79e8a"/>
    <path id="path121" d="M3365.231,1515.683l72.622-9.683s-7.608,27.2-36.427,31.815S3365,1515.683,3365,1515.683Z" transform="translate(-10730.793 17622.834)" fill="#fefefe"/>
    <path id="path123" d="M2988,2071.66s7.838,209.8,15.908,304.551c0,0,35.042,15.677,106.973,15.216,50.951-.23,65.936-10.835,65.936-10.835l95.446-327.836s-46.34-11.758-123.8-14.524l-37.118,32.507s-8.761-26.743-27.9-32.737a931.142,931.142,0,0,0-95.445,7.839v25.821Z" transform="translate(-10440.709 17213.484)" fill="#ef5036"/>
    <path id="polygon125" d="M4034.109,2381.038,3988,2113.144,4041.948,2103l38.04,257.519Z" transform="translate(-11210.163 17163.469)" fill="#fefefe"/>
    <path id="path127" d="M2550.18,2074l-82.3,137.175-9.914-17.982c-13.141,13.6-25.821,27.665-38.962,41.037,14.063,39.193,29.279,71.93,39.423,68.472,23.977-8.3,103.976-128.875,103.976-128.875L2550.411,2074Z" transform="translate(-10002.89 17185.783)" fill="#fefefe"/>
    <path id="path129" d="M3061.183,3532.421a214.249,214.249,0,0,1-23.516-6.456c-4.38-1.383-5.764,2.075-6.456,6.225-.691,5.533-1.383,7.839,2.536,8.992a209.973,209.973,0,0,0,23.746,7.377C3058.647,3543.257,3059.8,3537.723,3061.183,3532.421Z" transform="translate(-10473.547 16068.801)" fill="#6e6160"/>
    <path id="path131" d="M3302.215,3568.919a513.871,513.871,0,0,1-53.717.461,297.166,297.166,0,0,1-39.654-4.38,68.5,68.5,0,0,1-1.845,16.83,304.754,304.754,0,0,0,40.576,4.611c6.225.23,12.449.461,18.444.461,13.6,0,26.051-.461,37.809-1.614a77.47,77.47,0,0,1-1.844-16.369Z" transform="translate(-10609.22 16038.527)" fill="#6e6160"/>
    <path id="path133" d="M3703.348,3557.467c-.691-4.15-1.152-7.838-5.533-6.455-9.683,3-20.288,4.841-31.815,6.225a128.148,128.148,0,0,0,1.844,16.138,183.863,183.863,0,0,0,33.2-7.377c3-.922,3-4.38,2.075-8.53Z" transform="translate(-10962.399 16049.518)" fill="#6e6160"/>
    <path id="path135" d="M3370.584,3590.9l-25.129-1.614v-13.6l25.129.691ZM3339,3572v20.519l38.041,2.536v-21.9L3339,3572.23Z" transform="translate(-10710.787 16033.142)" fill="#a6a8a8"/>
    <path id="path137" d="M2797.484,5994s-16.139,20.288-40.346,27.435c-24.438,7.147-47.771,14.295-46.157,28.589,0,0,.321,7.074,3.635,8.093,11.991,3.691,46.1-5.348,69.356-5.873s32.646,0,32.646,0,20.325,4.417,27.76-7.551,1.98-40.318,1.98-40.318l-32.046,2.306,2.306-4.842h0Z" transform="translate(-10220.452 14169.522)" fill="#fff"/>
    <path id="path147" d="M3902.875,6036s16.138,20.288,40.346,27.435c24.438,7.147,49.177,21.044,37.37,28.487s-49.951,3.822-84.6,1.287-29.239.688-38.921-12.223-3.072-34.612-3.072-34.612l32.045,2.306-2.305-4.842,18.9-7.607Z" transform="translate(-11107.057 14137.205)" fill="#fff"/>
    <path id="polygon157" d="M3523,2072.737,3533.6,2040l20.288,10.375Z" transform="translate(-10852.367 17211.945)" fill="#d6c2bf"/>
    <path id="polygon159" d="M3467.755,2050l1.383,30.432L3453,2058.3Z" transform="translate(-10798.506 17204.25)" fill="#d6c2bf"/>
    <path id="polygon161" d="M3315,1966.288l23.977,35.734,22.593-32.046L3328.833,1946Z" transform="translate(-10692.321 17284.273)" fill="#eedcd5"/>
    <path id="polygon163" d="M3619.028,1961.21l-33.429,36.2-16.6-34.351L3607.04,1940Z" transform="translate(-10887.762 17288.891)" fill="#eedcd5"/>
    <path id="path167" d="M3620.966,2511l85.533,6.455s-3.92,76.771-51.181,71.469C3597.22,2582.469,3620.966,2511,3620.966,2511Z" transform="translate(-10924.052 16849.531)" fill="#eedcd5"/>
    <path id="path169" d="M3916,2410.187s2.306-35.735,8.3-36.2c5.764-.461,2.306,63.17-4.149,64.322,0,0-1.153-9.222,1.383-27.665Z" transform="translate(-11154.763 16954.955)" fill="#cc6c6c"/>
    <path id="polygon187" d="M4118,3109.9l65.245-18.9,5.071,34.121-60.864,21.671Z" transform="translate(-11310.193 16403.248)" fill="#eedcd5"/>
    <path id="path189" d="M2405.109,2538l16.6,26.052s-24.438,52.795-43.573,64.783L2359,2583.417Z" transform="translate(-9956.723 16828.756)" fill="#eedcd5"/>
    <path id="Path_1052" data-name="Path 1052" d="M5515.313,5016.642c0,9.152-3.328,16.641-6.657,16.641s-6.656-7.489-6.656-16.641,3.328-16.642,6.656-16.642S5515.313,5007.489,5515.313,5016.642Z" transform="translate(-12554.271 14098.596) rotate(3)" fill="#f58334"/>
    <path id="Path_1053" data-name="Path 1053" d="M5504.962,4999.832c-1.664,0-3.328,1.665-4.16,3.329a12.025,12.025,0,0,0-1.664,5.824c0,1.664-.832,4.16-.832,6.656v38.275H5480v-38.275c0-9.152,3.328-16.641,6.656-16.641h18.306Z" transform="translate(-12550.59 14098.956) rotate(3)" fill="#faa836"/>
    <path id="Path_1054" data-name="Path 1054" d="M5508.656,5035.642h-1.664l-1.664,21.633H5502V5019C5502,5028.153,5505.328,5035.642,5508.656,5035.642Z" transform="translate(-12554.104 14095.409) rotate(3)" fill="#f58334"/>
    <path id="Path_1055" data-name="Path 1055" d="M5496.825,4994.32a2.5,2.5,0,1,1,2.5-2.5A2.206,2.206,0,0,1,5496.825,4994.32Zm4.16-6.656a6.355,6.355,0,0,0-4.16-1.664,5.687,5.687,0,0,0-5.825,5.824v4.992h11.649v-4.992A6.355,6.355,0,0,0,5500.985,4987.664Z" transform="translate(-12552.55 14101.04) rotate(3)" fill="#f58334"/>
    <path id="Path_1056" data-name="Path 1056" d="M5537.129,4843.664l5.825,15.809-59.908,100.679-67.4-96.519,4.161-10.816,6.656-5.825-14.145.832-6.656,8.321L5404,4866.962l79.045,104.007,73.221-108.167-4.161-14.977-5.824-5.824Z" transform="translate(-12539.224 14125.955) rotate(3)" fill="#fce625"/>
    <path id="Path_1670" data-name="Path 1670" d="M15272.414,9069.969c-21.795-20.173-12.771-74.2-12.771-74.2s7.12,1.245,19.028,0c9.025-.977,15,10.986,31.421,16.764,9.682,3.408,26.044,14.593,37.8,24.17,33.616,27.395,72.254,61.528,80.633,69.285,11.234,10.4-87.549,154.69-87.549,154.69l-4.512,5.154c4.225-.534,9.123-.711,9.986,1.066,1.057,2.133-9.219,4.443-15.941,5.776l-2.207,2.488,6.434.8s13.156-2.754,13.156,1.244-26.887,6.221-26.887,6.221l-7.105-48.788,24.2-2.844s54.677-96.555,48.534-111.307-92.321-30.257-114.118-50.429Z" transform="translate(-22203.229 10188.515)" fill="#f9b69f"/>
    <path id="Path_1671" data-name="Path 1671" d="M15927.1,12703.265l12.771,157.559s44.359,208.391,44.359,229.362c0,20.884,15.941,275.841,15.941,275.841l-4.225,18.573.865,10.041s29.285-4.621,53.576,0,31.785,0,31.785,0l-59.436-23.282,11.713-310.676L16013.613,12691l-86.613,12.264Z" transform="translate(-22906.598 6815.951)" fill="#6e1d6b"/>
    <path id="Path_1672" data-name="Path 1672" d="M17220.529,12702.775c0-1.154-.381-3.91-.957-7.908,54.73-1.066,53.2-7.021,109.465-1.512-2.689,49.145-.479,107.617-.479,107.617s-20.648,47.9-27.656,59.895c-8.355,14.309-86.227,193.639-86.227,193.639s-82.867,283.572-76.146,303.746,22.564,55.807,22.564,55.807l-46.092-8.531v-18.572l43.5-360.264s61.934-309.875,61.934-323.828Z" transform="translate(-24267.535 6815.907)" fill="#93278f"/>
    <path id="Path_1673" data-name="Path 1673" d="M18174.289,6823.861c-.768-15.907-28.422-24.971-41.289-4.266l4.033,2.844C18147.98,6806.355,18169.006,6810.443,18174.289,6823.861Z" transform="translate(-25210.537 12176.554)" fill="#5c2c55"/>
    <path id="Path_1674" data-name="Path 1674" d="M16317.279,9229.135c23.049-103-51.406-323.543-48.143-324.965,24.391-10.752,44.178-23.169,93.822-23.169,39.176,0,77.969,10.042,77.969,10.042s56.889,54.821,56.889,108.318c0,30.215-14.895,143.307-19.7,229.773-56.27-5.42-101.637-1.066-156.465,0Z" transform="translate(-23366.943 10287.373)" fill="#ef5036"/>
    <path id="Path_1675" data-name="Path 1675" d="M17273.193,8036.956l17.959-84.956,38.885,20.617s12.387,48.254,20.744,62.739C17365.088,8060.506,17359.324,8136.485,17273.193,8036.956Z" transform="translate(-24310.5 11133.816)" fill="#f9b69f"/>
    <path id="Path_1676" data-name="Path 1676" d="M17477.309,8015.184c-18.246-1.155-54.35-24.705-55.309-45.055l3.842-18.129,38.887,20.617s6.049,23.46,12.482,42.566Z" transform="translate(-24445.281 11133.816)" fill="#e79e8a"/>
    <path id="Path_1677" data-name="Path 1677" d="M17188.984,6865.918s32.648,12.8,32.648,37.945,12.965,87.889,0,99.974c-12.961,12-57.035,5.155-76.623-25.682-19.684-30.837-16.42-94.909-10.273-100.6S17176.793,6854.721,17188.984,6865.918Z" transform="translate(-24167.334 12126.767)" fill="#f9b69f"/>
    <path id="Path_1679" data-name="Path 1679" d="M17988.332,7496.548s-11.713-18.573-18.82-12,5.666,43.989,12.771,40.257C17989.389,7521.164,17988.332,7496.548,17988.332,7496.548Z" transform="translate(-25008.736 11561.008)" fill="#fc7575"/>
    <path id="Path_1680" data-name="Path 1680" d="M17218.016,8084a46.414,46.414,0,0,1-31.016,4.8s9.891,10.574,17.381,10.574S17217.92,8084,17217.92,8084Z" transform="translate(-24163.428 11013.548)" fill="#fff"/>
    <path id="Path_1681" data-name="Path 1681" d="M18009.041,7585.97s-8.834-11.019-11.141-5.065c-2.3,6.044,7.494,29.682,11.141,26.3,3.553-3.288,0-21.327,0-21.327Z" transform="translate(-25033.867 11473.542)" fill="#fd5e5a"/>
    <path id="Path_1682" data-name="Path 1682" d="M17256.6,7647.908c3.648,6.754,3.941,8.976,4.9,15.106-1.057.09-2.4.445-9.795,1.067,2.59-.8,5.279-1.688,7.969-2.311-.961-4.532-9.506-23.728-12.674-25.771C17250.648,7637.421,17254.873,7644.62,17256.6,7647.908Z" transform="translate(-24212.67 11421.735)" fill="#70483e"/>
    <path id="Path_1683" data-name="Path 1683" d="M17539,7585.221c0,3.466,2.113,6.221,4.705,6.221s4.705-2.755,4.705-6.221-2.115-6.221-4.705-6.221S17539,7581.755,17539,7585.221Z" transform="translate(-24527.623 11473.669)"/>
    <path id="Path_1684" data-name="Path 1684" d="M17187,7585.221c0,3.466,2.113,6.221,4.705,6.221s4.705-2.755,4.705-6.221-2.113-6.221-4.705-6.221S17187,7581.755,17187,7585.221Z" transform="translate(-24141.818 11473.669)"/>
    <path id="Path_1685" data-name="Path 1685" d="M17552.922,7437.769s-12.291-2.222-18.627,3.643-3.939,9.509-2.309,9.509c1.729,0,2.115-10.131,8.357-9.509C17557.723,7443.012,17558.01,7438.213,17552.922,7437.769Z" transform="translate(-24534.15 11602.727)" fill="#70483e"/>
    <path id="Path_1686" data-name="Path 1686" d="M18382.629,12623.043s-22.66,2.578-22.66-2.488,19.975-1.688,22.18-7.554l1.346,18.219s-23.621,2.31-26.311-.179,25.352-8,25.352-8Z" transform="translate(-25441.25 6887.02)" fill="#fd5e5a"/>
    <path id="Path_1876" data-name="Path 1876" d="M16.656,157.824C.489,144.465,5.995,113.6.954,78.689-9.952,2.113,76.261,0,76.261,0l5.506,15.444s-29.9,11.137-25.636,23.3c0,0,24.538-13.164,47.664-11.743s29.553,27,29.553,27-28.539-16.865-48.742-6.3S67.214,74.608,67.214,74.608,81.991,53.4,99.561,52.261c17.477-1.133,24.06,9.063,24.06,9.063S89.732,61.811,86.1,79.6s-15.449,44.415-25.8,63.387S25.263,164.9,16.656,157.824Z" transform="translate(-7023.974 19142.371) rotate(-177)"/>
    <path id="Path_1877" data-name="Path 1877" d="M32565.1,10128.754c-36.3,1.865-38.551,25.956-46.328,53.683s27.98,50.761,29.9,46.673c0,0,10.293-41,23.828-41.268s51.773-16.575,51.773-16.575c-.379-.712-2.437-13.161-4.258-18.227a30.665,30.665,0,0,0-7.031-11.316C32601.176,10130.26,32586.707,10127.687,32565.1,10128.754Z" transform="translate(-39570.605 8851.048)"/>
    <path id="Path_1878" data-name="Path 1878" d="M17532.557,7437.769s8.314-3.252,13.631,2.612c.293.2,1.367,1.031,0,1.031-1.449,0,2.152-.622-3.082,0C17528.529,7443.012,17528.289,7438.213,17532.557,7437.769Z" transform="translate(-24491.516 11600.727)" fill="#70483e"/>
    <path id="Path_1879" data-name="Path 1879" d="M13.313,16.642c0,9.152-3.328,16.641-6.657,16.641S0,25.794,0,16.642,3.328,0,6.656,0,13.313,7.489,13.313,16.642Z" transform="translate(-6958.135 19288.414) rotate(-9)" fill="#f58334"/>
    <path id="Path_1880" data-name="Path 1880" d="M24.962.832C23.3.832,21.634,2.5,20.8,4.161a12.025,12.025,0,0,0-1.664,5.824c0,1.664-.832,4.16-.832,6.656V54.916H0V16.641C0,7.489,3.328,0,6.656,0H24.962Z" transform="translate(-6977.709 19290.455) rotate(-9)" fill="#faa836"/>
    <path id="Path_1881" data-name="Path 1881" d="M6.656,16.642H4.992L3.328,38.275H0V0C0,9.153,3.328,16.642,6.656,16.642Z" transform="translate(-6955.858 19304.029) rotate(-9)" fill="#f58334"/>
    <path id="Path_1882" data-name="Path 1882" d="M5.825,8.32a2.206,2.206,0,0,1-2.5-2.5,2.206,2.206,0,0,1,2.5-2.5,2.206,2.206,0,0,1,2.5,2.5A2.206,2.206,0,0,1,5.825,8.32Zm4.16-6.656A6.355,6.355,0,0,0,5.825,0,5.687,5.687,0,0,0,0,5.824v4.992H11.649V5.824A6.355,6.355,0,0,0,9.985,1.664Z" transform="translate(-6971.043 19278.342) rotate(-9)" fill="#f58334"/>
    <path id="Path_1883" data-name="Path 1883" d="M128.912,23.874l-.273,30.932-37,65.34L13.59,21.941l4.476-10.767L25.46,5.467,9.511,6.013,2.167,14.225.509,25.042,91.856,131,138.6,51.333l1.914-23.521Z" transform="translate(-7074.194 19171.324) rotate(-9)" fill="#fce625"/>
  </g>
</svg>
