<?xml version="1.0" encoding="UTF-8" standalone="no"?>
<!-- Creator: CorelDRAW X6 -->

<svg
   xmlns:dc="http://purl.org/dc/elements/1.1/"
   xmlns:cc="http://creativecommons.org/ns#"
   xmlns:rdf="http://www.w3.org/1999/02/22-rdf-syntax-ns#"
   xmlns:svg="http://www.w3.org/2000/svg"
   xmlns="http://www.w3.org/2000/svg"
   xmlns:sodipodi="http://sodipodi.sourceforge.net/DTD/sodipodi-0.dtd"
   xmlns:inkscape="http://www.inkscape.org/namespaces/inkscape"
   xml:space="preserve"
   width="6.94444in"
   height="6.94444in"
   version="1.1"
   style="shape-rendering:geometricPrecision; text-rendering:geometricPrecision; image-rendering:optimizeQuality; fill-rule:evenodd; clip-rule:evenodd"
   viewBox="0 0 6944 6944"
   id="svg192"
   sodipodi:docname="386045-PCF9PL-513.svg"
   inkscape:version="0.92.4 (5da689c313, 2019-01-14)"><metadata
   id="metadata196"><rdf:RDF><cc:Work
       rdf:about=""><dc:format>image/svg+xml</dc:format><dc:type
         rdf:resource="http://purl.org/dc/dcmitype/StillImage" /></cc:Work></rdf:RDF></metadata><sodipodi:namedview
   pagecolor="#ffffff"
   bordercolor="#666666"
   borderopacity="1"
   objecttolerance="10"
   gridtolerance="10"
   guidetolerance="10"
   inkscape:pageopacity="0"
   inkscape:pageshadow="2"
   inkscape:window-width="1366"
   inkscape:window-height="715"
   id="namedview194"
   showgrid="false"
   inkscape:zoom="0.70800046"
   inkscape:cx="226.05326"
   inkscape:cy="336.33019"
   inkscape:window-x="-8"
   inkscape:window-y="-8"
   inkscape:window-maximized="1"
   inkscape:current-layer="Layer_x0020_1" />
 <defs
   id="defs4">
  <style
   type="text/css"
   id="style2">
   <![CDATA[
    .fil11 {fill:#1F3E46;fill-rule:nonzero}
    .fil12 {fill:#20464D;fill-rule:nonzero}
    .fil14 {fill:#2D3036;fill-rule:nonzero}
    .fil2 {fill:#379793;fill-rule:nonzero}
    .fil0 {fill:#37A6A0;fill-rule:nonzero}
    .fil10 {fill:#3C5C5F;fill-rule:nonzero}
    .fil9 {fill:#497173;fill-rule:nonzero}
    .fil3 {fill:#4A403F;fill-rule:nonzero}
    .fil15 {fill:#574E4D;fill-rule:nonzero}
    .fil5 {fill:#5E5352;fill-rule:nonzero}
    .fil4 {fill:#6E6160;fill-rule:nonzero}
    .fil13 {fill:#70483E;fill-rule:nonzero}
    .fil19 {fill:#925052;fill-rule:nonzero}
    .fil6 {fill:#A6A8A8;fill-rule:nonzero}
    .fil18 {fill:#CC6C6C;fill-rule:nonzero}
    .fil16 {fill:#D6C2BF;fill-rule:nonzero}
    .fil8 {fill:#E79E8A;fill-rule:nonzero}
    .fil17 {fill:#EEDCD5;fill-rule:nonzero}
    .fil7 {fill:#F9B69F;fill-rule:nonzero}
    .fil1 {fill:#FEFEFE;fill-rule:nonzero}
   ]]>
  </style>
 </defs>
 <g
   id="Layer_x0020_1">
  <metadata
   id="CorelCorpID_0Corel-Layer" />
  
  <path
   class="fil1"
   d="M2367 6637c0,7 1,12 3,17 2,5 5,8 9,11 4,2 8,4 12,4 4,0 8,-1 12,-3 4,-2 6,-6 9,-10 2,-5 3,-10 3,-17 0,-7 -1,-12 -3,-17 -2,-5 -5,-8 -9,-11 -4,-2 -8,-4 -12,-4 -5,0 -9,1 -12,4 -4,3 -6,6 -8,11 -2,5 -3,10 -3,17zm48 36l0 -2c-3,4 -7,7 -10,9 -3,2 -7,4 -10,5 -4,1 -8,2 -12,2 -6,0 -11,-1 -16,-4 -5,-2 -9,-6 -13,-11 -4,-5 -6,-10 -8,-16 -2,-6 -3,-13 -3,-20 0,-15 4,-27 11,-36 7,-9 17,-13 30,-13 7,0 13,1 18,4 5,2 10,6 14,11l0 -36c0,-5 1,-9 3,-11 2,-3 5,-4 9,-4 4,0 7,1 9,4 2,2 3,6 3,10l0 108c0,5 -1,8 -3,11 -2,2 -5,4 -8,4 -3,0 -6,-1 -8,-4 -2,-2 -3,-6 -3,-10z"
   id="path9" />
  <path
   class="fil1"
   d="M2476 6629l45 0c-1,-8 -3,-15 -7,-19 -4,-4 -9,-6 -16,-6 -6,0 -11,2 -15,6 -4,4 -6,11 -7,19zm48 14l-48 0c0,6 1,11 3,15 2,4 5,7 9,10 4,2 8,3 12,3 3,0 6,0 8,-1 2,-1 5,-2 7,-3 2,-1 4,-3 6,-5 2,-2 4,-4 7,-7 1,-1 3,-2 5,-2 3,0 5,1 6,2 2,1 2,3 2,6 0,2 -1,5 -3,8 -2,3 -4,6 -8,9 -4,3 -8,5 -13,7 -5,2 -11,3 -18,3 -16,0 -28,-4 -37,-13 -9,-9 -13,-21 -13,-37 0,-7 1,-14 3,-20 2,-6 5,-12 9,-16 4,-4 9,-8 15,-10 6,-2 13,-4 20,-4 10,0 18,2 25,6 7,4 12,9 15,16 3,6 5,13 5,20 0,6 -2,10 -5,12 -4,2 -9,3 -15,3z"
   id="path11" />
  <path
   class="fil1"
   d="M2636 6654c0,7 -2,13 -5,17 -3,5 -8,9 -15,11 -6,3 -14,4 -24,4 -9,0 -16,-1 -23,-4 -6,-3 -11,-6 -14,-10 -3,-4 -5,-8 -5,-12 0,-3 1,-5 3,-7 2,-2 4,-3 7,-3 3,0 5,1 6,2 1,1 3,3 4,5 3,4 6,8 9,10 4,2 8,3 14,3 5,0 9,-1 12,-3 3,-2 5,-5 5,-8 0,-4 -2,-7 -5,-9 -3,-2 -9,-4 -16,-6 -8,-2 -15,-4 -21,-7 -5,-2 -10,-5 -13,-9 -3,-4 -5,-8 -5,-14 0,-5 1,-10 4,-14 3,-4 7,-8 13,-10 6,-3 13,-4 21,-4 6,0 12,1 17,2 5,1 9,3 13,5 3,2 6,5 8,7 2,3 3,5 3,8 0,3 -1,5 -3,7 -2,2 -5,3 -8,3 -3,0 -5,-1 -6,-2 -2,-1 -4,-4 -6,-6 -2,-2 -4,-4 -7,-6 -3,-1 -6,-2 -10,-2 -4,0 -8,1 -11,3 -3,2 -4,4 -4,7 0,3 1,5 3,6 2,2 5,3 9,4 4,1 9,2 15,4 8,2 14,4 19,7 5,3 9,6 11,9 3,4 4,7 4,12z"
   id="path13" />
  <path
   class="fil1"
   d="M2673 6600l0 71c0,5 -1,9 -3,11 -2,3 -5,4 -9,4 -4,0 -7,-1 -9,-4 -2,-3 -3,-6 -3,-11l0 -70c0,-5 1,-9 3,-11 2,-2 5,-4 9,-4 4,0 7,1 9,4 2,2 4,6 4,10zm-12 -25c-3,0 -6,-1 -9,-3 -2,-2 -4,-5 -4,-9 0,-3 1,-6 4,-9 2,-2 5,-3 9,-3 3,0 6,1 8,3 2,2 4,5 4,9 0,4 -1,7 -4,9 -2,2 -5,3 -9,3z"
   id="path15" />
  <path
   class="fil1"
   d="M2710 6635c0,10 2,17 7,23 4,5 10,8 17,8 4,0 8,-1 12,-3 4,-2 7,-6 9,-10 2,-4 3,-10 3,-16 0,-10 -2,-18 -7,-23 -4,-6 -10,-8 -17,-8 -7,0 -13,3 -17,8 -4,5 -6,13 -6,23zm71 -31l0 71c0,8 -1,15 -3,21 -2,6 -5,11 -8,15 -4,4 -9,7 -15,9 -6,2 -14,3 -23,3 -8,0 -16,-1 -23,-4 -7,-2 -12,-5 -15,-9 -4,-4 -5,-8 -5,-12 0,-3 1,-5 3,-7 2,-2 5,-3 7,-3 4,0 7,2 9,5 1,2 3,3 4,5 1,2 3,3 5,4 2,1 4,2 6,3 2,1 5,1 8,1 6,0 11,-1 15,-3 4,-2 6,-4 7,-7 1,-3 2,-7 2,-10 0,-4 0,-9 1,-18 -4,5 -8,9 -13,12 -5,3 -11,4 -18,4 -8,0 -15,-2 -22,-6 -6,-4 -11,-10 -14,-18 -3,-8 -5,-16 -5,-26 0,-7 1,-14 3,-20 2,-6 5,-11 9,-15 4,-4 8,-7 13,-9 5,-2 10,-3 16,-3 7,0 13,1 18,4 5,3 10,7 14,13l0 -3c0,-4 1,-8 3,-10 2,-2 5,-4 8,-4 5,0 8,2 9,5 2,3 2,8 2,13z"
   id="path17" />
  <path
   class="fil1"
   d="M2820 6600l0 3c4,-6 9,-10 14,-13 5,-3 11,-4 18,-4 6,0 12,1 17,4 5,3 9,7 11,12 2,3 3,6 3,10 0,3 1,8 1,13l0 46c0,5 -1,9 -3,11 -2,3 -5,4 -9,4 -4,0 -7,-1 -9,-4 -2,-3 -3,-6 -3,-11l0 -41c0,-8 -1,-14 -3,-19 -2,-4 -7,-6 -13,-6 -4,0 -8,1 -12,4 -4,3 -6,6 -8,11 -1,4 -2,11 -2,21l0 31c0,5 -1,9 -3,11 -2,2 -5,4 -9,4 -4,0 -6,-1 -9,-4 -2,-3 -3,-6 -3,-11l0 -71c0,-5 1,-8 3,-10 2,-2 5,-3 8,-3 2,0 4,1 6,2 2,1 3,3 4,5 1,2 2,5 2,7z"
   id="path19" />
  <path
   class="fil1"
   d="M2921 6628l45 0c-1,-8 -3,-15 -7,-19 -4,-4 -9,-6 -16,-6 -6,0 -11,2 -15,6 -4,4 -6,11 -7,19zm48 14l-48 0c0,6 1,10 3,15 2,4 5,7 9,10 4,2 8,3 12,3 3,0 6,0 8,-1 2,-1 5,-2 7,-3 2,-1 4,-3 6,-5 2,-2 4,-4 7,-7 1,-1 3,-2 5,-2 3,0 5,1 6,2 2,1 2,3 2,6 0,2 -1,5 -3,8 -2,3 -4,6 -8,9 -4,3 -8,5 -13,7 -5,2 -11,3 -18,3 -16,0 -28,-4 -37,-13 -9,-9 -13,-21 -13,-37 0,-7 1,-14 3,-20 2,-6 5,-12 9,-16 4,-4 9,-8 15,-10 6,-2 13,-4 20,-4 10,0 18,2 25,6 7,4 12,9 15,16 3,6 5,13 5,20 0,6 -2,10 -5,12 -4,2 -9,3 -15,3z"
   id="path21" />
  <path
   class="fil1"
   d="M3021 6635c0,7 1,12 3,17 2,5 5,8 9,11 4,2 8,4 12,4 4,0 8,-1 12,-3 4,-2 6,-6 9,-10 2,-5 3,-10 3,-17 0,-7 -1,-12 -3,-17 -2,-5 -5,-8 -9,-11 -4,-2 -8,-4 -12,-4 -4,0 -9,1 -12,4 -4,3 -6,6 -8,11 -2,5 -3,10 -3,17zm48 36l0 -2c-3,4 -7,7 -10,9 -3,2 -7,4 -10,5 -4,1 -8,2 -12,2 -6,0 -11,-1 -16,-4 -5,-2 -9,-6 -13,-11 -4,-5 -6,-10 -8,-16 -2,-6 -3,-13 -3,-20 0,-15 4,-27 11,-36 7,-9 17,-13 30,-13 7,0 13,1 18,4 5,2 10,6 14,11l0 -36c0,-5 1,-9 3,-11 2,-3 5,-4 9,-4 4,0 7,1 9,4 2,2 3,6 3,10l0 108c0,5 -1,8 -3,11 -2,2 -5,4 -8,4 -3,0 -6,-1 -8,-4 -2,-2 -3,-6 -3,-10z"
   id="path23" />
  <path
   class="fil1"
   d="M3171 6636c0,10 2,17 7,23 4,5 10,8 18,8 6,0 12,-3 16,-8 4,-5 7,-13 7,-23 0,-6 -1,-12 -3,-17 -2,-5 -5,-8 -8,-11 -3,-3 -7,-4 -12,-4 -5,0 -9,1 -13,4 -4,3 -7,6 -9,11 -2,5 -3,11 -3,17zm-1 -73l0 38c5,-5 9,-8 14,-11 5,-3 11,-4 18,-4 8,0 15,2 21,6 6,4 11,9 14,17 3,7 5,16 5,26 0,7 -1,14 -3,20 -2,6 -5,12 -8,16 -4,5 -8,8 -13,11 -5,2 -11,4 -17,4 -4,0 -7,0 -11,-1 -3,-1 -6,-2 -9,-4 -2,-1 -4,-3 -6,-5 -2,-2 -4,-4 -7,-7l0 2c0,5 -1,8 -3,11 -2,2 -5,4 -8,4 -3,0 -6,-1 -8,-4 -2,-2 -3,-6 -3,-10l0 -107c0,-5 1,-9 3,-11 2,-3 5,-4 8,-4 4,0 7,1 9,4 2,2 3,6 3,10z"
   id="path25" />
  <path
   class="fil1"
   d="M3275 6688l2 -6 -30 -76c-2,-4 -3,-8 -3,-10 0,-2 1,-4 2,-6 1,-2 3,-3 4,-4 2,-1 4,-2 6,-2 4,0 6,1 8,3 2,2 3,5 5,10l21 60 20 -56c2,-5 3,-8 4,-11 1,-3 3,-4 4,-5 1,-1 3,-1 6,-1 2,0 4,0 5,1 2,1 3,2 4,4 1,2 1,3 1,5 0,1 -1,3 -1,5 -1,2 -1,4 -2,6l-32 84c-3,7 -5,13 -8,17 -3,4 -6,7 -10,10 -4,2 -10,3 -18,3 -7,0 -13,-1 -16,-2 -4,-2 -5,-4 -5,-9 0,-3 1,-5 3,-7 2,-2 4,-2 8,-2 1,0 3,0 4,1 2,0 3,1 4,1 3,0 5,0 7,-1 2,-1 3,-2 4,-4 1,-2 3,-5 4,-9z"
   id="path27" />
  <path
   class="fil1"
   d="M3630 6587l6 0 0 -7c0,-8 1,-14 3,-18 2,-5 5,-8 10,-10 5,-2 11,-3 19,-3 14,0 22,3 22,11 0,2 -1,4 -2,6 -1,2 -3,2 -5,2 -1,0 -3,0 -5,-1 -2,0 -4,-1 -6,-1 -4,0 -7,1 -9,4 -1,3 -2,6 -2,11l0 6 6 0c9,0 14,3 14,8 0,4 -1,7 -4,8 -2,1 -6,2 -10,2l-6 0 0 65c0,5 -1,9 -3,11 -2,3 -5,4 -9,4 -3,0 -6,-1 -9,-4 -2,-3 -3,-6 -3,-11l0 -65 -7 0c-4,0 -6,-1 -8,-2 -2,-2 -3,-4 -3,-6 0,-6 4,-9 12,-9z"
   id="path29" />
  <path
   class="fil1"
   d="M3711 6649l0 21c0,5 -1,9 -4,11 -2,3 -5,4 -9,4 -4,0 -7,-1 -9,-4 -2,-3 -3,-6 -3,-11l0 -68c0,-11 4,-17 12,-17 4,0 7,1 9,4 2,3 3,6 3,11 3,-5 6,-9 9,-11 3,-3 7,-4 12,-4 5,0 10,1 15,4 5,3 7,6 7,10 0,3 -1,6 -3,7 -2,2 -4,3 -7,3 -1,0 -3,-1 -7,-2 -3,-1 -7,-2 -9,-2 -4,0 -7,1 -9,3 -2,2 -4,5 -5,8 -1,4 -2,8 -3,13 0,5 -1,11 -1,19z"
   id="path31" />
  <path
   class="fil1"
   d="M3776 6626l45 0c-1,-8 -3,-15 -7,-19 -4,-4 -9,-6 -16,-6 -6,0 -11,2 -15,6 -4,4 -6,10 -7,19zm48 14l-48 0c0,6 1,11 3,15 2,4 5,7 9,10 4,2 8,3 12,3 3,0 6,0 8,-1 2,-1 5,-2 7,-3 2,-1 4,-3 6,-5 2,-2 4,-4 7,-7 1,-1 3,-2 5,-2 3,0 5,1 6,2 2,1 2,3 2,6 0,2 -1,5 -3,8 -2,3 -4,6 -8,9 -4,3 -8,5 -13,7 -5,2 -11,3 -18,3 -16,0 -28,-4 -37,-13 -9,-9 -13,-21 -13,-37 0,-7 1,-14 3,-20 2,-6 5,-12 9,-16 4,-4 9,-8 15,-10 6,-2 13,-4 20,-4 10,0 18,2 25,6 7,4 12,9 15,16 3,6 5,13 5,20 0,6 -2,10 -5,12 -4,2 -9,3 -15,3z"
   id="path33" />
  <path
   class="fil1"
   d="M3878 6626l45 0c-1,-8 -3,-15 -7,-19 -4,-4 -9,-6 -16,-6 -6,0 -11,2 -15,6 -4,4 -6,10 -7,19zm48 14l-48 0c0,6 1,11 3,15 2,4 5,7 9,10 4,2 8,3 12,3 3,0 6,0 8,-1 2,-1 5,-2 7,-3 2,-1 4,-3 6,-5 2,-2 4,-4 7,-7 1,-1 3,-2 5,-2 3,0 5,1 6,2 2,1 2,3 2,6 0,2 -1,5 -3,8 -2,3 -4,6 -8,9 -4,3 -8,5 -13,7 -5,2 -11,3 -18,3 -16,0 -28,-4 -37,-13 -9,-9 -13,-21 -13,-37 0,-7 1,-14 3,-20 2,-6 5,-12 9,-16 4,-4 9,-8 15,-10 6,-2 13,-4 20,-4 10,0 18,2 25,6 7,4 12,9 15,16 3,6 5,13 5,20 0,6 -2,10 -5,12 -4,2 -9,3 -15,3z"
   id="path35" />
  <path
   class="fil1"
   d="M4028 6633c0,-6 -1,-12 -3,-17 -2,-5 -5,-8 -8,-11 -3,-2 -7,-4 -12,-4 -7,0 -12,3 -17,8 -5,5 -7,13 -7,24 0,10 2,17 7,23 5,5 10,8 17,8 4,0 8,-1 11,-4 4,-2 6,-6 8,-11 2,-5 3,-11 3,-17zm-48 -36l0 3c5,-6 9,-10 14,-13 5,-3 11,-4 17,-4 8,0 15,2 21,6 6,4 11,10 15,17 4,8 6,16 6,27 0,8 -1,15 -3,21 -2,6 -5,12 -9,16 -4,4 -8,8 -13,10 -5,2 -11,3 -16,3 -7,0 -13,-1 -18,-4 -5,-3 -9,-7 -14,-12l0 37c0,11 -4,16 -12,16 -5,0 -8,-1 -9,-4 -1,-3 -2,-7 -2,-12l0 -106c0,-5 1,-8 3,-10 2,-2 5,-3 8,-3 3,0 6,1 8,4 2,2 3,6 3,10z"
   id="path37" />
  <path
   class="fil1"
   d="M4090 6598l0 71c0,5 -1,9 -3,11 -2,3 -5,4 -9,4 -4,0 -6,-1 -9,-4 -2,-3 -3,-6 -3,-11l0 -70c0,-5 1,-8 3,-11 2,-3 5,-4 9,-4 4,0 7,1 9,4 2,2 4,6 4,10zm-12 -25c-3,0 -6,-1 -9,-3 -2,-2 -4,-5 -4,-9 0,-3 1,-6 4,-9 2,-2 5,-3 9,-3 3,0 6,1 8,3 2,2 4,5 4,9 0,4 -1,7 -4,9 -2,2 -5,3 -9,3z"
   id="path39" />
  <path
   class="fil1"
   d="M4169 6672l-22 -36 -13 13 0 20c0,5 -1,8 -4,11 -2,3 -5,4 -9,4 -4,0 -7,-1 -9,-4 -2,-2 -3,-6 -3,-11l0 -105c0,-5 1,-10 3,-12 2,-3 5,-4 9,-4 4,0 7,1 9,4 2,3 3,6 3,11l0 60 28 -29c3,-4 6,-6 8,-7 2,-1 4,-2 7,-2 3,0 6,1 8,3 2,2 3,4 3,7 0,4 -3,8 -10,14l-13 12 25 40c2,3 3,5 4,7 1,2 1,3 1,4 0,4 -1,7 -3,9 -2,2 -5,3 -8,3 -3,0 -5,-1 -7,-2 -2,-2 -4,-5 -7,-9z"
   id="path41" />
  <path
   class="fil1"
   d="M4222 6684c-4,0 -7,-1 -10,-4 -3,-2 -4,-6 -4,-10 0,-4 1,-7 4,-9 3,-3 6,-4 10,-4 4,0 7,1 10,4 3,3 4,6 4,9 0,4 -1,8 -4,10 -3,2 -6,4 -9,4z"
   id="path43" />
  <path
   class="fil1"
   d="M4345 6653c0,3 -1,6 -3,10 -2,4 -5,7 -8,10 -4,3 -8,6 -14,8 -6,2 -12,3 -19,3 -15,0 -27,-4 -36,-13 -9,-9 -13,-21 -13,-36 0,-10 2,-19 6,-27 4,-8 9,-14 17,-18 7,-4 16,-6 26,-6 6,0 12,1 18,3 5,2 10,4 14,7 4,3 7,6 8,9 2,3 3,6 3,9 0,3 -1,5 -3,7 -2,2 -5,3 -8,3 -2,0 -4,-1 -5,-2 -1,-1 -3,-3 -5,-5 -3,-5 -6,-8 -9,-10 -3,-2 -7,-3 -12,-3 -7,0 -13,3 -18,9 -4,6 -7,13 -7,23 0,5 1,9 2,13 1,4 3,7 5,10 2,3 5,5 8,6 3,1 6,2 10,2 5,0 9,-1 13,-3 4,-2 7,-6 9,-10 1,-3 3,-5 5,-6 2,-2 4,-2 6,-2 3,0 6,1 7,3 2,2 3,5 3,7z"
   id="path45" />
  <path
   class="fil1"
   d="M4426 6633c0,-10 -2,-18 -7,-23 -4,-6 -10,-8 -18,-8 -5,0 -9,1 -13,4 -4,2 -6,6 -8,11 -2,5 -3,11 -3,17 0,6 1,12 3,17 2,5 5,9 8,11 4,3 8,4 13,4 7,0 13,-3 18,-8 4,-6 7,-13 7,-23zm25 0c0,7 -1,14 -3,20 -2,6 -6,12 -10,16 -4,4 -9,8 -15,10 -6,2 -13,4 -20,4 -7,0 -14,-1 -20,-4 -6,-2 -11,-6 -15,-10 -4,-5 -8,-10 -10,-16 -2,-6 -3,-13 -3,-20 0,-7 1,-14 3,-20 2,-6 6,-12 10,-16 4,-4 9,-8 15,-10 6,-2 13,-4 20,-4 7,0 14,1 20,4 6,2 11,6 16,10 4,4 8,10 10,16 2,6 3,13 3,20z"
   id="path47" />
  <path
   class="fil1"
   d="M4544 6635l0 33c0,5 -1,9 -3,12 -2,3 -5,4 -9,4 -4,0 -7,-1 -9,-4 -2,-3 -4,-6 -4,-12l0 -39c0,-6 0,-11 -1,-14 0,-3 -2,-6 -3,-8 -2,-2 -5,-3 -9,-3 -8,0 -13,3 -16,8 -3,5 -4,13 -4,24l0 33c0,5 -1,9 -3,12 -2,3 -5,4 -9,4 -4,0 -7,-1 -9,-4 -2,-3 -4,-7 -4,-12l0 -70c0,-5 1,-8 3,-11 2,-2 5,-4 8,-4 3,0 6,1 8,3 2,2 3,5 3,9l0 2c4,-5 9,-9 14,-11 5,-2 10,-4 16,-4 6,0 11,1 16,4 4,2 8,6 11,11 4,-5 9,-9 13,-11 5,-2 10,-4 16,-4 7,0 13,1 17,4 5,3 8,6 11,11 2,4 3,11 3,21l0 48c0,5 -1,9 -3,12 -2,3 -5,4 -9,4 -4,0 -7,-1 -9,-4 -2,-3 -4,-7 -4,-12l0 -41c0,-5 0,-10 -1,-13 0,-3 -2,-6 -4,-8 -2,-2 -5,-3 -9,-3 -3,0 -6,1 -9,3 -3,2 -5,5 -7,8 -2,4 -3,11 -3,22z"
   id="path49" />
  <polygon
   class="fil1"
   points="3401,6629 3400,6629 "
   id="polygon51" />
  <path
   class="fil1"
   d="M3402 6637l0 0c0,-2 -1,-4 -1,-7 0,2 1,4 1,7z"
   id="path53" />
  <polygon
   class="fil1"
   points="3410,6660 3410,6659 "
   id="polygon55" />
  <polygon
   class="fil1"
   points="3409,6658 3409,6657 "
   id="polygon57" />
  <path
   class="fil1"
   d="M3404 6646c1,4 3,7 4,11 -2,-4 -3,-7 -4,-11l0 0z"
   id="path59" />
  <path
   class="fil1"
   d="M3495 6535c5,0 8,0 12,1l1 -7c0,0 -11,-3 -26,-2l-1 -4c5,-1 8,-5 8,-10 0,-6 -5,-10 -10,-10 -6,0 -10,4 -10,10 0,5 3,9 8,10l1 4c-15,2 -28,8 -28,8l2 7c9,-3 17,-5 25,-6 7,-1 13,-1 17,-1z"
   id="path61" />
  <path
   class="fil1"
   d="M3410 6571l0 0 1 -1 -3 -2 -5 -3c0,0 -8,7 -13,19l-1 -1c-2,-2 -4,-3 -7,-3l0 0c-2,0 -3,-1 -4,-1 1,-1 1,-2 1,-4 0,-3 -3,-6 -6,-6 -3,0 -6,3 -6,6 0,4 3,6 6,6l2 0c2,2 4,3 8,3 2,0 3,0 4,1l2 4 0 0c-4,11 -3,25 -3,25l10 0c0,-5 1,-14 3,-21 5,-14 11,-22 11,-23z"
   id="path63" />
  <path
   class="fil1"
   d="M3583 6543c-4,0 -6,3 -6,6l0 2c-2,2 -3,4 -3,8 0,2 0,3 -1,4l-3 1c-7,-10 -17,-17 -17,-17l-7 8c5,5 11,11 16,19 4,5 8,12 11,19l10 -5c0,0 -4,-11 -11,-21l3 -2c2,-2 3,-4 3,-7 0,-2 1,-3 1,-4 1,1 2,1 4,1 4,0 6,-3 6,-6 0,-4 -3,-6 -6,-6z"
   id="path65" />
  <path
   class="fil1"
   d="M3558 6630c-13,7 -35,15 -64,19 -11,2 -22,2 -32,2 -13,0 -25,-1 -34,-2 -10,-1 -18,-3 -23,-4 1,4 3,7 4,11l0 0 1 1 1 1 0 0c3,5 6,10 10,15 14,15 28,17 28,17l0 0 0 0c0,0 12,4 31,4 18,0 37,-4 54,-11 13,-7 25,-16 31,-25 5,-7 8,-14 10,-22 1,-4 2,-10 1,-17 -4,3 -10,6 -18,10z"
   id="path67" />
  <path
   class="fil1"
   d="M3452 6568c15,0 27,12 27,27 0,15 -12,27 -27,27 -15,0 -27,-12 -27,-27 0,-15 12,-27 27,-27zm78 1c9,0 17,7 17,16 0,9 -7,17 -16,17 -9,0 -17,-7 -17,-17 0,-9 7,-17 16,-17zm-116 7c0,1 -6,9 -11,21 -3,9 -3,23 -3,23l0 0c0,3 0,6 1,10l0 0 0 1c0,2 1,4 1,7 7,2 46,11 90,5 28,-4 49,-12 62,-18 11,-5 17,-10 20,-12 -3,-10 -10,-25 -17,-35 -19,-27 -40,-34 -50,-36 -4,-1 -7,-1 -12,-1 -4,0 -9,0 -17,1 -7,1 -15,3 -24,6 -13,4 -24,11 -33,19l0 0c-1,1 -4,4 -7,8z"
   id="path69" />
  <path
   class="fil2"
   d="M3539 6411c-784,0 -1419,-57 -1419,-128 0,-71 636,-128 1419,-128 784,0 1419,57 1419,128 0,71 -636,128 -1419,128z"
   id="path71"
   style="fill:#57706f;fill-opacity:1" />
  <path
   class="fil3"
   d="M4241 4109l-9 3 9 -3 0 0 -9 3 9 -3c0,0 -1,-4 -1,-10 0,-10 2,-24 14,-40 12,-16 35,-34 81,-47 27,-8 52,-12 73,-12 38,0 66,11 88,31 22,19 37,48 46,84l39 -10c-10,-42 -29,-79 -58,-105 -29,-26 -68,-41 -115,-41 -26,0 -54,5 -85,14 -51,15 -83,38 -101,61 -19,24 -23,48 -23,65 0,13 2,21 3,22l39 -12z"
   id="path73" />
  <path
   class="fil4"
   d="M3842 4159l1028 -145 166 733c0,0 -372,190 -1109,156l-86 -744z"
   id="path75" />
  <path
   class="fil5"
   d="M4074 4535c0,0 579,-44 883,-138l-9 -40c0,0 -268,100 -881,144l7 33z"
   id="path77" />
  <polygon
   class="fil6"
   points="4443,4429 4455,4506 4714,4458 4704,4393 "
   id="polygon79" />
  <path
   class="fil7"
   d="M4480 4016l1 -2c24,-107 -38,-136 -38,-136l-79 -692 -193 144 27 -10 80 544c0,0 -98,54 -44,155l51 -32c0,0 22,20 5,43 0,0 -18,-5 -28,21 0,0 24,40 66,8l0 0c0,0 32,29 63,0 0,0 53,22 84,-33l0 0 0 0 0 0c2,-3 3,-6 4,-9l0 -1z"
   id="path81" />
  <path
   class="fil5"
   d="M3993 4138l-151 21 86 744c78,4 152,5 222,4l-156 -769z"
   id="path83" />
  <path
   class="fil7"
   d="M2453 2806l-213 -607c0,0 -82,10 -139,-9 0,0 -58,-41 -25,-61 0,0 -49,-15 -27,-59 0,0 -49,-43 -12,-74 0,0 -40,-39 28,-63 68,-24 167,-9 167,-9 0,0 -48,-110 -11,-161 31,-42 82,162 82,162l347 926 -197 -44z"
   id="path85" />
  <path
   class="fil8"
   d="M4206 3382c56,-30 112,-60 169,-88l-12 -107 -193 144 27 -10 9 60z"
   id="path87" />
  <path
   class="fil8"
   d="M2517 2496c-43,41 -87,80 -131,119l67 191 197 44 -132 -354z"
   id="path89" />
  <polygon
   class="fil9"
   points="3124,5750 3170,6057 3292,6059 3258,5726 "
   id="polygon91" />
  <polygon
   class="fil9"
   points="3854,5875 3907,6181 4029,6181 3988,5848 "
   id="polygon93" />
  <path
   class="fil10"
   d="M3278 5923l-20 -197 -134 25 26 170c38,2 85,5 129,2z"
   id="path95" />
  <path
   class="fil10"
   d="M4004 5983l-16 -134 -134 27 22 129c42,-8 86,-12 128,-22z"
   id="path97" />
  <path
   class="fil11"
   d="M4056 5914l-260 -2510 -14 1c-104,-215 -504,-19 -660,68l-58 -8c-8,48 -195,1178 28,2407 0,0 128,41 235,-36 -89,-538 -83,-1439 -21,-1875 90,15 128,2 230,-5 0,0 218,1760 263,1984 137,55 256,-26 256,-26z"
   id="path99" />
  <polygon
   class="fil12"
   points="3367,3647 3361,3901 3436,3906 3434,3966 3449,3964 3465,3660 "
   id="polygon101" />
  <polygon
   class="fil8"
   points="3420,1791 3413,2242 3715,2131 3725,1666 "
   id="polygon103" />
  <path
   class="fil7"
   d="M3980 1197c-61,-16 -103,26 -128,68 -9,-152 -19,-289 -19,-289 0,0 -56,-162 -328,-138 -247,22 -247,22 -247,22 0,0 -109,746 -56,830 44,70 165,167 296,156 131,-11 370,-83 370,-215 0,-30 -2,-79 -5,-138 174,27 228,-267 115,-297z"
   id="path105" />
  <path
   class="fil8"
   d="M3967 1246c-65,-19 -93,78 -97,93 44,21 57,78 33,110 102,9 133,-183 64,-203z"
   id="path107" />
  <path
   class="fil13"
   d="M3870 1254l-18 89 -51 0 0 -306c0,0 -110,-61 -101,-171 0,0 -110,50 -218,66 -83,13 -403,55 -397,-240 0,0 53,99 124,107 0,0 -171,-91 -49,-259 0,0 -15,88 49,80 64,-8 270,-198 455,-135 185,63 189,176 189,176 0,0 187,-3 199,96 12,99 -115,436 -115,436 0,0 -67,13 -67,59z"
   id="path109" />
  <path
   class="fil13"
   d="M3521 1091c0,0 145,-31 184,33 0,0 42,-63 -18,-88 -60,-25 -128,-17 -158,-7 -29,10 -43,54 -8,62z"
   id="path111" />
  <path
   class="fil13"
   d="M3390 1091c0,0 -126,-39 -166,22 0,0 -25,-67 33,-82 58,-14 117,-10 143,1 25,10 20,59 -10,59z"
   id="path113" />
  <path
   class="fil14"
   d="M3610 1202c0,32 16,59 35,59 19,0 35,-26 35,-59 0,-32 -16,-59 -35,-59 -19,0 -35,26 -35,59z"
   id="path115" />
  <path
   class="fil14"
   d="M3327 1202c0,32 16,59 35,59 19,0 35,-26 35,-59 0,-32 -16,-59 -35,-59 -19,0 -35,26 -35,59z"
   id="path117" />
  <polygon
   class="fil8"
   points="3454,1144 3340,1445 3493,1476 "
   id="polygon119" />
  <path
   class="fil1"
   d="M3366 1548l315 -42c0,0 -33,118 -158,138 -125,20 -158,-96 -158,-96z"
   id="path121" />
  <path
   class="fil1"
   d="M2988 2184c0,0 34,910 69,1321 0,0 152,68 464,66 221,-1 286,-47 286,-47l414 -1422c0,0 -201,-51 -537,-63l-161 141c0,0 -38,-116 -121,-142 -127,4 -266,14 -414,34l0 110z"
   id="path123" />
  <polygon
   class="fil1"
   points="4188,3309 3988,2147 4222,2103 4387,3220 "
   id="polygon125" />
  <path
   class="fil1"
   d="M2988 2074l-357 595 -43 -78c-57,59 -112,120 -169,178 61,170 127,312 171,297 104,-36 451,-559 451,-559l-52 -433z"
   id="path127" />
  <path
   class="fil4"
   d="M3163 3555c-64,-14 -101,-28 -102,-28 -19,-6 -25,9 -28,27 -3,24 -6,34 11,39 3,1 40,16 103,32 5,-23 10,-47 16,-70z"
   id="path129" />
  <path
   class="fil4"
   d="M3620 3582c-71,5 -149,5 -233,2 -65,-3 -123,-10 -172,-19 1,25 -3,49 -8,73 50,9 109,17 176,20 27,1 54,2 80,2 59,0 113,-2 164,-7 -5,-23 -8,-47 -8,-71z"
   id="path131" />
  <path
   class="fil4"
   d="M3828 3580c-3,-18 -5,-34 -24,-28 -42,13 -88,21 -138,27 1,23 4,47 8,70 51,-7 99,-17 144,-32 13,-4 13,-19 9,-37z"
   id="path133" />
  <path
   class="fil6"
   d="M3476 3654l-109 -7 0 -59 109 3 0 63zm-137 -82l0 89 165 11 0 -95 -165 -4z"
   id="path135" />
  <path
   class="fil4"
   d="M3117 5994c0,0 -70,88 -175,119 -106,31 -247,93 -240,155 0,0 204,52 459,-31l0 26 168 -7 0 -217 -139 10 10 -21 -82 -33z"
   id="path137" />
  <path
   class="fil15"
   d="M3015 6251c-192,49 -298,5 -312,1 -1,5 -2,11 -1,16 0,0 204,52 459,-31l0 26 168 -7 0 -43c-60,4 -162,0 -313,38z"
   id="path139" />
  <path
   class="fil15"
   d="M3061 6053l0 0c4,1 40,16 73,64 2,3 7,4 10,2 3,-2 4,-7 2,-10 -37,-54 -79,-69 -80,-69 -4,-1 -8,1 -9,4 -1,4 1,8 4,9z"
   id="path141" />
  <path
   class="fil15"
   d="M3023 6070l0 0c4,1 40,16 73,64 2,3 7,4 10,2 3,-2 4,-7 2,-10 -37,-54 -79,-69 -80,-69 -4,-1 -8,1 -9,4 -1,4 1,8 4,9z"
   id="path143" />
  <path
   class="fil15"
   d="M2984 6086l0 0c4,1 40,16 73,64 2,3 7,4 10,2 3,-2 4,-7 2,-10 -37,-54 -79,-69 -80,-69 -4,-1 -8,1 -9,4 -1,4 1,8 4,9z"
   id="path145" />
  <path
   class="fil4"
   d="M4066 6036c0,0 70,88 175,119 106,31 247,93 240,155 0,0 -204,52 -459,-31l0 26 -168 -7 0 -217 139 10 -10 -21 82 -33z"
   id="path147" />
  <path
   class="fil15"
   d="M4167 6293c192,49 298,5 312,1 1,5 2,11 1,16 0,0 -204,52 -459,-31l0 26 -168 -7 0 -43c60,4 162,0 313,38z"
   id="path149" />
  <path
   class="fil15"
   d="M4117 6082c-1,0 -43,15 -80,69 -2,3 -1,8 2,10 3,2 8,1 10,-2 18,-25 36,-41 50,-51 7,-5 13,-8 17,-10 2,-1 4,-2 5,-2l1 0 0 0c4,-1 6,-5 4,-9 -1,-4 -5,-6 -9,-4z"
   id="path151" />
  <path
   class="fil15"
   d="M4155 6098c-1,0 -43,15 -80,69 -2,3 -1,8 2,10 3,2 8,1 10,-2 18,-25 36,-41 50,-51 7,-5 13,-8 17,-10 2,-1 4,-2 5,-2l1 0 0 0c4,-1 6,-5 4,-9 -1,-4 -5,-6 -9,-4z"
   id="path153" />
  <path
   class="fil15"
   d="M4193 6115c-1,0 -43,15 -80,69 -2,3 -1,8 2,10 3,2 8,1 10,-2 17,-25 36,-41 50,-51 7,-5 13,-8 17,-10 2,-1 4,-2 5,-2l1 0 0 0c4,-1 6,-5 4,-9 -1,-4 -5,-6 -9,-4z"
   id="path155" />
  <polygon
   class="fil16"
   points="3523,2182 3569,2040 3657,2085 "
   id="polygon157" />
  <polygon
   class="fil16"
   points="3517,2050 3523,2182 3453,2086 "
   id="polygon159" />
  <polygon
   class="fil17"
   points="3315,2034 3419,2189 3517,2050 3375,1946 "
   id="polygon161" />
  <polygon
   class="fil17"
   points="3786,2032 3641,2189 3569,2040 3734,1940 "
   id="polygon163" />
  <path
   class="fil18"
   d="M3594 2091c0,0 -46,9 -105,0l-29 41 29 83 -199 1005 106 136 141 -112 24 -1019 49 -100 -16 -34z"
   id="path165" />
  <path
   class="fil17"
   d="M3637 2511l371 28c0,0 -17,333 -222,310 -252,-28 -149,-338 -149,-338z"
   id="path167" />
  <path
   class="fil18"
   d="M3916 2531c0,0 10,-155 36,-157 25,-2 10,274 -18,279 0,0 -5,-40 6,-120l-24 -2z"
   id="path169" />
  <polygon
   class="fil19"
   points="3469,2159 3604,2113 3610,2125 3582,2183 3488,2215 3488,2214 "
   id="polygon171" />
  <polygon
   class="fil19"
   points="3471,2303 3560,2272 3559,2335 3458,2370 "
   id="polygon173" />
  <polygon
   class="fil19"
   points="3440,2458 3557,2417 3555,2480 3427,2525 "
   id="polygon175" />
  <polygon
   class="fil19"
   points="3409,2612 3553,2563 3552,2626 3396,2679 "
   id="polygon177" />
  <polygon
   class="fil19"
   points="3379,2767 3550,2708 3548,2771 3365,2834 "
   id="polygon179" />
  <polygon
   class="fil19"
   points="3348,2922 3546,2854 3545,2917 3335,2989 "
   id="polygon181" />
  <polygon
   class="fil19"
   points="3317,3077 3543,2999 3541,3062 3304,3144 "
   id="polygon183" />
  <polygon
   class="fil19"
   points="3296,3228 3539,3145 3538,3208 3335,3278 "
   id="polygon185" />
  <polygon
   class="fil17"
   points="4118,3173 4401,3091 4423,3239 4159,3333 "
   id="polygon187" />
  <path
   class="fil17"
   d="M2559 2538l72 113c0,0 -106,229 -189,281l-83 -197 200 -197z"
   id="path189" />
 </g>
</svg>