<svg xmlns="http://www.w3.org/2000/svg" xmlns:xlink="http://www.w3.org/1999/xlink" width="133.706" height="121.407" viewBox="0 0 133.706 121.407"><defs><linearGradient id="a" x1="0.5" x2="0.5" y2="1" gradientUnits="objectBoundingBox"><stop offset="0" stop-color="#f1a119"/><stop offset="0.309" stop-color="#dae30a"/><stop offset="0.665" stop-color="#63cc35"/><stop offset="1" stop-color="#1ce143"/></linearGradient></defs><g transform="translate(254.002 78.067)"><g transform="translate(-254 -96)"><path d="M115.053,275.47l-.01,0,0,.017Z" transform="translate(-75.61 -169.259)" fill="url(#a)"/><path d="M148.018,261.418v.015h.013Z" transform="translate(-97.284 -160.027)" fill="url(#a)"/><path d="M211.249,240.265h-.01v.008Z" transform="translate(-138.835 -146.124)" fill="url(#a)"/><path d="M133,69.679c-.374-.212-.3-.511-.307-.817a5.036,5.036,0,0,0-.052-1.193c-.186-.643-.474-1.257-.674-1.771a3.5,3.5,0,0,1-1.234-.385c-.148-.122.033-.643.063-.983l.186,0c-.1-.167-.733-.292-.075-.528.079-.027.117-.263.119-.4,0-.355-.011-.712-.04-1.066a3.055,3.055,0,0,0-.127-.716c-.173-.506-.411-.992-.564-1.5-.159-.534-.221-1.094-.369-1.632-.209-.765-.457-1.519-.689-2.28-.017-.054-.025-.112-.046-.163-.2-.494-.432-.975-.584-1.481-.171-.575-.257-1.176-.4-1.761-.1-.423-.234-.838-.361-1.255-.209-.665-.432-1.325-.635-1.99a13.692,13.692,0,0,0-.4-1.4c-.288-.675-.743-1.289-.96-1.982a3.4,3.4,0,0,0-.712-1.287,4.879,4.879,0,0,0-2.356-1.662,3.745,3.745,0,0,1-.937-.365,3.9,3.9,0,0,0-2.682-.171,11.5,11.5,0,0,0-2,.605c-.071.021-.186-.012-.219.031-.522.669-.783.092-1.046-.239-.578-.722-1.108-1.483-1.682-2.206-.428-.538-.9-1.041-1.35-1.564-.635-.739-1.232-1.509-1.9-2.219-.724-.775-1.5-1.507-2.261-2.242s-1.557-1.485-2.359-2.2c-.643-.572-1.319-1.106-2.01-1.679a.892.892,0,0,1-.111.145,1.491,1.491,0,0,1-.215.122c-.313-1.144-1.379-1.432-2.146-2.027a4.632,4.632,0,0,0-2.7-1.421c-.05-.214-.092-.393-.136-.577-.181-.043-.411-.025-.5-.127-.309-.362-.564-.458-.848.008a.2.2,0,0,1-.2.027.327.327,0,0,1-.117-.22c-.014-.237-.007-.476-.007-.692a1.9,1.9,0,0,1-.63-.208c-.392-.341-.737-.4-1.106.015-.048.053-.219.083-.251.049-.632-.687-.939.17-1.4.284-.574.143-1.071.667-1.914.324a5.189,5.189,0,0,1,.887-.561,1.263,1.263,0,0,0,.566-1.668,4.405,4.405,0,0,0-1.983-1.085c-.24-.1-.468-.22-.705-.323-.543-.236-1.083-.479-1.636-.693-.271-.1-.58.028-.837-.314-.18-.237-.643-.259-.981-.372-.405-.14-.82-.259-1.221-.415-.461-.179-.895-.436-1.367-.575-.609-.181-1.242-.279-1.864-.414a1.39,1.39,0,0,1-.163-.045c-.551-.194-1.093-.429-1.657-.575a7.877,7.877,0,0,1-1.478-.288,10.363,10.363,0,0,0-2.4-.434c-.3-.053-.589-.194-.892-.235a4.684,4.684,0,0,0-.851.051.287.287,0,0,0-.175-.135c-.772-.129-1.545-.281-2.321-.332-.892-.06-1.791-.008-2.686-.031-.6-.015-1.2-.079-1.8-.116a3.392,3.392,0,0,0-.954-.014,5.625,5.625,0,0,0-1.019.453c-.04-.2-.081-.41-.161-.818-.269.6-.494.478-.7.271a2.417,2.417,0,0,1-.8.233c-.759.057-1.562-.283-2.262.312-.084.07-.339-.051-.51-.1s-.332-.2-.477-.173c-.257.041-.5.256-.746.261a11.051,11.051,0,0,0-2.812.325c-.517.145-1.105.025-1.642.13-.756.149-1.485.489-2.244.573a1.9,1.9,0,0,0-1.389.568,2.378,2.378,0,0,0-.84-.123c-.5.149-.975.412-1.477.581-.761.256-1.535.482-2.309.7-.594.169-1.2.31-1.78.458-.057.182-.114.355-.12.37a6.9,6.9,0,0,0-.91.01c-.163.024-.306.163-.469.222-.4.145-.824.249-1.22.417s-.765.412-1.156.6c-.541.257-1.1.483-1.637.738-.139.064-.243.247-.378.262a4.317,4.317,0,0,0-1.823.875c-.092.061-.184.165-.279.167a1.038,1.038,0,0,0-.97,1.136,4.626,4.626,0,0,1-.579,1.546c-.065-.294-.144-.692.014-.846.389-.378.2-.688.092-1.032-.323.12-.618.208-.893.336-.558.262-.912.841-1.571.979-.206.042-.368.29-.552.444.112.1.229.2.33.306.388.42.777.838,1.161,1.264a4.164,4.164,0,0,1,.271.37c-.355-.21-.7-.436-1.067-.626-.428-.218-.59-.9-1.225-.75a3.078,3.078,0,0,0-1.083.414,23.03,23.03,0,0,1-2,1.421c-.673.393-1.169,1.084-1.829,1.513-.846.55-1.421,1.374-2.27,1.943a17.215,17.215,0,0,0-2.513,2.468c-.242.249-.44.534-.682.783-.2.207-.459.359-.641.579-.776.934-1.528,1.885-2.3,2.825a10.739,10.739,0,0,0-1.479,1.851c-.347.71-.934,1.2-1.312,1.864a12.192,12.192,0,0,0-1.1,1.642c-.225.613-.728.989-.981,1.55-.111.247-.357.478-.359.718s.231.461.363.692c.116.2.235.4.391.671l1.177-.247.4.427a12.49,12.49,0,0,1-1.687.477c-.754.1-.966.224-1.174,1.013-.124-.028-.306-.015-.365-.094-.325-.42-.571-.175-.742.107a8.212,8.212,0,0,0-.459,1.026c.361.149.079.291-.019.406-.216.253-.54.449-.667.734-.405.906-.736,1.844-1.1,2.772-.149.383-.3.763-.451,1.148-.193.5-.391.991-.562,1.5-.145.424-.135.977-.41,1.261a.578.578,0,0,0-.024.92c-.211.244-.478.422-.555.661-.265.822-.481,1.662-.686,2.5-.246,1.015-.487,2.033-.682,3.059-.111.6-.13,1.191-.3,1.8-.26.942-.172,1.962-.363,2.961a44.375,44.375,0,0,0-.419,4.832c0,.032-.036.063-.045.077-.6.155-1.18.3-1.761.453a9.263,9.263,0,0,0-1.2.379,5.712,5.712,0,0,0-1.2.647,6.176,6.176,0,0,0-1.224,1.148,16.879,16.879,0,0,0-.971,1.658c-.179.3-.135,1.152.122,1.2.6.11.421.566.494.921.049.236.116.469.194.789-.343.476-1,.941-.878,1.774.034.236.225.449.284.687.154.6.276,1.212.412,1.82a1.105,1.105,0,0,0,.053.159c.191.495.413.981.567,1.486.161.53.1,1.225.422,1.578.5.545.147,1.223.559,1.785a5.3,5.3,0,0,1,.449,1.793c.1.415.229.826.367,1.231a15.724,15.724,0,0,1,.6,1.716c.1.434.083.862.594.9-.074.228-.231.447-.182.6a4.863,4.863,0,0,0,.545,1.135c.14.215.387.5.591.5.553.013.564.342.551.714a4.085,4.085,0,0,1-.1.58c.159.125.293.23.545.43-.374.029-.559.046-.793.063a2.62,2.62,0,0,0-.025.57,17.87,17.87,0,0,0,.425,1.922,12.113,12.113,0,0,0,.648,1.471,2.8,2.8,0,0,1,.269.536c.108.536-.075,1.093.333,1.624.445.576.674,1.319,1.1,1.914A6.637,6.637,0,0,0,9.5,112.363a8.945,8.945,0,0,0,1.044.641.814.814,0,0,0,.414-1.056,5.16,5.16,0,0,0-.765-.981.791.791,0,0,1-.915-.553c-.173-.428-.259-.893-.449-1.313-.265-.586-.656-1.123-.879-1.722-.3-.81-.5-1.659-.722-2.5-.156-.595-.269-1.2-.416-1.8a.679.679,0,0,0-.188-.271,1.736,1.736,0,0,1-.473-1.348,8.105,8.105,0,0,0-.4-1.916,7.535,7.535,0,0,0-.325-.856,14.326,14.326,0,0,1-.579-1.48c-.187-.691-.275-1.407-.434-2.106a10.3,10.3,0,0,0-.372-1.183c-.187-.511-.428-1.008-.582-1.532-.19-.637-.314-1.292-.476-1.993l-.556.351c.061-.284.092-.455.133-.626a1.88,1.88,0,0,0,.146-.626,8.892,8.892,0,0,0-.319-1.083,11.609,11.609,0,0,0-.39-1.3,7.375,7.375,0,0,1-.62-2.536,9.145,9.145,0,0,1,.274-2.25,4.57,4.57,0,0,1,1-1.809,6.482,6.482,0,0,1,1.466-1.343,4.666,4.666,0,0,1,1.356-.734,18.168,18.168,0,0,1,2.019-.41c.056-.21.1-.382.149-.555.022.056.041.111.063.169a6.082,6.082,0,0,0,.859-.011,5.626,5.626,0,0,0,.579-.22c.2-.051.428-.014.618-.085.477-.175.928-.434,1.411-.578.606-.18,1.239-.276,1.861-.41a1.657,1.657,0,0,0,.225-.076c-.062-.2-.117-.371-.172-.542.188.039.374.082.561.114a1.762,1.762,0,0,0,.689.092c.59-.157,1.163-.382,1.742-.579.445-.149.893-.284,1.332-.447.051-.02.055-.165.08-.253a1.8,1.8,0,0,0-.333-.273c-.271-.137-.471-.812-.844-.12-.25-.194-.989.052-1.261.285-.161.139-.306.847-.721.16-.042-.072-.41.031-.617.084-.222.06-.434.163-.654.24-.25.088-.5.179-.759.247-.192.051-.4.071-.639.111,0-.593-.036-1.122.01-1.646.049-.569.184-1.128.267-1.695a1.453,1.453,0,0,0,.027-.675c-.068-.189-.29-.326-.457-.471-.013-.011-.171.086-.186.149A10.183,10.183,0,0,0,11,72.7c-.051.961-.016,1.929-.016,2.893l-.111-.051-.483.787c-.088-.679-.165-1.285-.25-1.962a.3.3,0,0,0,.14-.173c.123-.635.247-1.274.318-1.915.049-.451-.058-.928.031-1.366.131-.628-.367-1.355.222-1.817-.045-.239-.168-.472-.1-.58a2.369,2.369,0,0,0,.573-1.458,1.543,1.543,0,0,1,.047-.454c.208-.861.422-1.722.632-2.581.107-.438.079-1,.349-1.285.487-.505.226-1.18.616-1.71a5.132,5.132,0,0,0,.436-1.558,10.072,10.072,0,0,1,.41-1.169c.289-.667.62-1.312.906-1.978.255-.595.464-1.207.714-1.8.075-.182.24-.327.319-.506a9.3,9.3,0,0,1,.806-1.847c.32-.436.339-.694.1-.921.288-.289.573-.532.806-.819.179-.222.244-.555.449-.737a8.05,8.05,0,0,0,1.311-2.127c.09-.018.213-.007.25-.06.249-.357.464-.736.712-1.091.573-.818,1.163-1.624,1.737-2.441.257-.363.46-.765.746-1.1.41-.485.9-.9,1.306-1.39.642-.761,1.3-1.5,2-2.211.605-.62,1.456-1.11,1.595-2.1,0-.027.051-.049.077-.074.267.22.256.211.5-.026.184-.179.414-.312.59-.5.344-.37.663-.763.989-1.146-.031-.032-.064-.064-.1-.1l.864-.156c.023-.06.047-.118.072-.178a3.1,3.1,0,0,0-.773-.443,4.765,4.765,0,0,0-1.064-.018c.079-.255.129-.416.18-.581a3.379,3.379,0,0,0,.579.237c.414.088.906-.13,1.226.349.043.065.322.045.428-.025.276-.181.516-.421.775-.628.3-.244.611-.485.923-.718q.921-.687,1.853-1.358c.4-.286.812-.551,1.3-.883v-.508l.432-.18c.265.056.461.163.555.1.648-.4,1.252-.874,1.909-1.254.71-.41,1.466-.735,2.192-1.116.7-.363,1.383-.748,2.11-1.144.019-.21.047-.5.074-.782.048,0,.095-.008.14-.014.08.2.16.391.247.6a1.736,1.736,0,0,0,.4-.064,19.617,19.617,0,0,0,2.206-1c.561-.333,1.53-.2,1.63-1.236.035.185.069.368.12.646.194-.152.333-.332.508-.383.511-.149,1.039-.245,1.558-.37a1,1,0,0,0,.257-.1,3.363,3.363,0,0,1,1.808-.575,1.4,1.4,0,0,0,.449-.052c.677-.194,1.342-.447,2.03-.59.853-.18,1.725-.271,2.6-.4.043-.341.082-.651.119-.961h.178c.057.325.112.651.169,1.006a2.189,2.189,0,0,1,.556-.3c.846-.132,1.695-.286,2.549-.337,1.139-.071,2.284-.094,3.424-.056a1.5,1.5,0,0,0,1.475-.7c.09.269.151.457.227.684h6.564c.208-.288.352-.483.493-.675-.015.3-.027.607-.039.979-.073-.021-.007.01.063.016q1.844.177,3.684.353a1.831,1.831,0,0,1,.278.065c.764.212,1.522.453,2.294.63.716.165,1.449.261,2.173.389a.644.644,0,0,1,.112.021,10.488,10.488,0,0,0,1.716.6,10.655,10.655,0,0,1,2.242.688,24.912,24.912,0,0,0,2.41.718.634.634,0,0,1,.157.059c.326.207.649.419,1.01.653.056-.4.1-.724.144-1.047l.209.007a4.464,4.464,0,0,1,.063.679.606.606,0,0,0,.49.689,7.19,7.19,0,0,1,1.152.423c.561.278,1.093.614,1.643.913q.952.52,1.914,1.021c.265.139.545.254.812.39a7.743,7.743,0,0,1,.821.443A17.829,17.829,0,0,0,98.557,31.4c.724.347,1.185.99,1.885,1.34a7.745,7.745,0,0,1,.864.726c.726.526,1.526.966,2.2,1.556.885.778,1.613,1.737,2.526,2.48.578.471.941,1.358,1.757,1.229A14.1,14.1,0,0,0,108.479,40c.161.235.449.379.632.6,1.023,1.229,2.014,2.486,3.054,3.7a.777.777,0,0,1,.192.987c-.2-.165-.378-.316-.559-.467a1.388,1.388,0,0,1-1.163.7c-.486.051-.689.186-.611.671,0,0,0-.007,0,0,0,.227,0,.451,0,.722l1.96-.416c.017,0,.027-.028.044-.035a14.867,14.867,0,0,1,1.444-.551c.632-.171,1.292-.246,1.929-.4a8.954,8.954,0,0,0,1.108-.411,4.589,4.589,0,0,1,1.419-.549c1.319-.021,2.684-.365,3.951.306a8.677,8.677,0,0,1,1.463.836,4.418,4.418,0,0,1,1.05,1.261c.142.252.017.654.013.989-.4-.359-.62-.724-.917-1.006-.42-.4-.73-.93-1.348-1.1a1.429,1.429,0,0,1-.722-.381c-.374-.455-.634-.227-.939.116-.066-.137-.111-.312-.161-.312a8.459,8.459,0,0,0-2.012.051,14.374,14.374,0,0,1-1.713.567,3.44,3.44,0,0,0-1.526.308,14.408,14.408,0,0,1-2.92,1.045c-.568.178-1.163.276-1.77.416.017.4.046.736.037,1.074,0,.094-.119.183-.185.273-.057-.084-.153-.163-.159-.249-.021-.257-.008-.514-.008-.82a4.924,4.924,0,0,0-.981.086c-.566.17-1.108.419-1.674.606-.459.152-.933.255-1.4.391-.707.212-1.409.438-2.117.652a3.9,3.9,0,0,0-1.279.4c-.593.476-1.344.22-1.97.61a8.742,8.742,0,0,1-2.014.661c-.405.129-.8.3-1.21.4-.639.15-1.29.255-1.937.379a.74.74,0,0,0-.1.043c-.553.2-1.1.419-1.659.59s-1.125.241-1.665.423c-.624.21-1.223.495-1.973.8.165.445.353.95.48,1.3a3.069,3.069,0,0,1,.885.012,4.247,4.247,0,0,0,1.774.573c.4-.024.624.237.751.665a6.727,6.727,0,0,1-2.386-.23,7.448,7.448,0,0,1-1.978-1.12c-.054.167-.111.338-.167.509l-.271-.207V54.011l-1.181.5c.04.349.071.62.113,1.018-.509-.334-.657-.893-1.235-.736-.549.148-1.1.278-1.651.417a.375.375,0,0,0-.052.025c-.495.193-.983.408-1.488.569-.57.179-1.152.308-1.784.473.165.194.269.4.436.5.2.117.48.179.223.44a.612.612,0,0,1-.557-.1c-.236-.617-.409.028-.58.024-.24-.21-.463-.4-.6-.524-.664.207-1.248.43-1.855.571-.526.124-1.123-.075-1.586.357a1.081,1.081,0,0,1-.413.3c-.691.162-1.392.292-2.089.431a1.7,1.7,0,0,0-.382.066c-.478.227-.946.473-1.534.769.24.363.518.787.8,1.209l-.136.118a1.954,1.954,0,0,1-.561-.288c-.468-.505-.8-1.313-1.693-.595-.012.01-.036.008-.054.01a12.609,12.609,0,0,0-1.944.293c-.773.163-1.346.661-2.087.844a16.209,16.209,0,0,1-2.024.626.826.826,0,0,0-.459.235,8,8,0,0,0-.567.759c-.062-.237-.113-.445-.167-.647-.563.143-1.1.263-1.62.416-.632.186-1.257.4-1.88.607a1.621,1.621,0,0,0-.591.288,3.1,3.1,0,0,0-.414.562,3.4,3.4,0,0,0-.9-.169,6.383,6.383,0,0,0-.919.3c-.588.149-1.184.256-1.772.4-.455.113-.906.245-1.346.4-.506.179-.989.425-1.5.585-.553.173-1.126.28-1.671.41-.02.4.1.847-.079,1.058-.414.5-.188,1.032-.257,1.546a1.72,1.72,0,0,1-.207.443,1.46,1.46,0,0,1-.148-.426c-.014-.752-.006-1.507-.006-2.338a5.982,5.982,0,0,0-.643.135c-.545.174-1.079.393-1.629.549s-1.145.245-1.709.4c-.724.2-1.441.438-2.161.658-.072.021-.182,0-.22.04-.445.484-1,.252-1.524.263-.1-.536.206-.725.663-.731.055-.2.1-.357.122-.429.431.057.814.108,1.393.188-.241-.569-.406-.96-.594-1.4-.131.114-.234.265-.368.3-.521.149-1.051.263-1.579.389-.107.025-.216.047-.32.079-.638.2-1.268.416-1.909.6-.541.156-1.105.239-1.639.414-.863.285-1.7.646-2.567.92-.588.186-1.205.273-1.809.408a1.017,1.017,0,0,0-.212.075c-.443.2-.889.4-1.323.614-.294.149-.575.331-.855.508s-.391.594-.873.528c-.148-.02-.349.337-.524.521.045.064.087.132.132.2a7.961,7.961,0,0,1,1.257-.4,8.952,8.952,0,0,1,1.4,0,.98.98,0,0,1-.944.7,8.463,8.463,0,0,0-1.554.371c-.386.1-.773.216-1.149.353a7.04,7.04,0,0,1-1.523.575,3.674,3.674,0,0,0-2.109.938,2.9,2.9,0,0,0-.71-.171c-.092,0-.175.186-.261.3a5.1,5.1,0,0,0-2.409.6,11.131,11.131,0,0,1-1.485.44c-.583.146-1.18.246-1.764.391a9.033,9.033,0,0,0-1.069.347c-.489.188-.959.427-1.456.594-.737.249-1.489.447-2.231.673-.4.122-.779.289-1.183.385-.638.152-1.295.22-1.921.4-.759.218-1.494.517-2.274.793-.009.09-.026.267-.057.575-.323-.565-.722-.449-1.079-.319a10.879,10.879,0,0,1-1.393.595,11.536,11.536,0,0,0-2.11.657c-.506.207-.844.438-.848.833a6.153,6.153,0,0,0-.755.605c-.132.146-.16.384-.269.559a5.084,5.084,0,0,0-.624,2.235,3.786,3.786,0,0,0,.31,2.114,10.976,10.976,0,0,1,.481,1.557c.167.513.387,1.014.526,1.532.175.651.29,1.321.434,1.983.01.054.057.1.074.153.186.528.344,1.068.562,1.586.267.637.09,1.52,1.007,1.8a.824.824,0,0,0-.13,1.185,1.06,1.06,0,0,1,.135.347c.132.551.233,1.106.386,1.647.208.722.453,1.434.685,2.152.023.073.043.146.066.217.2.657.422,1.309.592,1.975.106.4.214.776.674.9a2.921,2.921,0,0,0,.5,2.043c.147-.127.29-.25.434-.372.051.027.1.054.156.079-.06.33-.107.664-.188.985-.041.163-.235.324-.212.459a11.94,11.94,0,0,0,.357,1.415,2.723,2.723,0,0,0,.44,1.129c.849.837,1.491,1.862,2.8,2.252a5.146,5.146,0,0,0,2.684.121,1.962,1.962,0,0,1,1.6.1c-.007.169.049.405-.039.484-.2.179-.135.741-.665.5a2.361,2.361,0,0,0-.808-.246c-.816-.044-1.634-.034-2.451-.059a1.351,1.351,0,0,1-.431-.1c-.23-.092-.45-.2-.672-.3-.036.064-.074.13-.111.192l.271.319c-.109.461-.194.831-.314,1.342l1.36-.209a1.4,1.4,0,0,0,.594.175c.906-.113,1.807-.271,2.71-.43.074-.013.136-.109.2-.167a.808.808,0,0,1,1.062.075,18.817,18.817,0,0,1,1.778,2.452,10.9,10.9,0,0,0,1.47,1.749c.318.367.509.908,1,.824a4.058,4.058,0,0,0,.445.914c.7.787,1.428,1.553,2.169,2.3.633.641,1.3,1.246,1.953,1.86.6.564,1.217,1.115,1.825,1.672a12.4,12.4,0,0,0,1.058.95c.728.53,1.532.96,2.225,1.528a21.978,21.978,0,0,0,3.041,2.089,2.2,2.2,0,0,0,2.335-.085c.045-.032.136,0,.211.01a3.689,3.689,0,0,0,1.345,2.515c.034-.714.06-1.277.088-1.841.062-.007.125-.017.188-.021a2.5,2.5,0,0,1,.086.407c.019.418.006.837.043,1.252a.55.55,0,0,0,.227.382c.728.43,1.468.839,2.213,1.24a11.407,11.407,0,0,0,1.085.509c.6.249,1.222.467,1.825.718.139.058.231.234.37.284.573.217,1.156.4,1.753.609.043-.163.094-.361.19-.724.111.25.2.349.184.424-.128.568.37.605.669.726a15.524,15.524,0,0,0,1.524.43c.11.032.222.054.336.083a2.78,2.78,0,0,1,.6.211,1.083,1.083,0,0,1,.192.086,1.056,1.056,0,0,0,.764.257,1.261,1.261,0,0,0,.25.114,5.275,5.275,0,0,0,.727.173c.824.249,1.615.507,2.417.68.09.019.182.023.271.039.169.05.335.109.506.146.907.186,1.831.273,2.749.405.075.012.145.041.218.058a7.668,7.668,0,0,0,.95.23q.324.038.43-.125c.107.012.216.021.323.034a1.263,1.263,0,0,1,.412.163c.018.008.052.008.073.019a1.487,1.487,0,0,0,.579.232c1.815.146,3.632.25,5.448.367a2.4,2.4,0,0,0,.624,0,4.4,4.4,0,0,0,.534-.159c.263,0,.528-.008.791-.008.15.071.3.146.447.221.039-.077.075-.154.114-.23h0c.126,0,.252,0,.38-.008,0,.008,0,.021,0,.025.565.526,1.035-.459,1.484.059.507-.132.981-.255,1.426-.374a1.729,1.729,0,0,0,.524.142,8.1,8.1,0,0,0,2.051-.255,19.557,19.557,0,0,1,3.108-.434,2.619,2.619,0,0,0,.292-.073c0-.023.006-.046.008-.071.144-.015.288-.027.43-.046a.925.925,0,0,0,.163-.046l.347-.1a.007.007,0,0,1,0,0c.5-.069.993-.227,1.494-.327.7-.14,1.4-.259,2.106-.393a1.371,1.371,0,0,0,.157-.059c.549-.2,1.093-.409,1.651-.586.482-.154,1-.227,1.463-.42.066-.027.125-.071.19-.1l.056-.013c.4-.108.789-.249,1.175-.392.518-.192,1.021-.42,1.54-.6.457-.163.945-.253,1.392-.443.635-.269,1.236-.622,1.87-.9s1.332-.472,1.968-.77c.574-.269,1.093-.657,1.659-.945s1.186-.48,1.728-.8c1.05-.626,2.066-1.3,3.087-1.977s2.041-1.373,3.06-2.066c.664-.449,1.2-1.054,1.872-1.5a17.094,17.094,0,0,0,1.855-1.574c.858-.755,1.743-1.484,2.555-2.285.651-.645,1.15-1.451,1.828-2.058a29.82,29.82,0,0,0,3.049-3.488,9.486,9.486,0,0,0,.973-1.208c.094-.163.7-.4.136-.7a3.234,3.234,0,0,0,1.716-2.993c.2.175.33.279.44.378.614-1.016,1.2-1.989,1.807-2.989-.2-.061-.407-.127-.543-.169.33-.4.639-.735.891-1.108.073-.11.01-.344-.048-.5a4.748,4.748,0,0,0-.334-.6l.2-.134c.261.257.52.516.827.818.225-.651.4-1.173.557-1.618a9.675,9.675,0,0,0,.584-.891c.271-.536.5-1.092.753-1.636.309-.67.632-1.336.937-2.008a8.567,8.567,0,0,0,.347-.883c.154-.472.265-.962.434-1.428.294-.814.653-1.605.922-2.427.259-.789.338-1.62.662-2.407a10.082,10.082,0,0,0,.4-2.06c.021-.113.023-.23.05-.338.2-.755.434-1.5.593-2.263a14.815,14.815,0,0,1,.292-2.2,12.833,12.833,0,0,0,.392-3.048,8.816,8.816,0,0,0,.015-1.427,3.029,3.029,0,0,0-.215-.7,4.668,4.668,0,0,0,.221-1.211c.027-.447.009-.895.009-1.326,1.327-.189,2.548-.238,4.419-2.61a1.136,1.136,0,0,1-.1-1.477c.132.149.257.3.451.519-.046-.532.05-.779.528-.987.39-.171.626-.722.9-1.122a1.2,1.2,0,0,0,.29-.656,17.475,17.475,0,0,0-.271-1.789C133.357,70.54,133.512,69.967,133,69.679ZM13.8,52.41c.4-.77.722-.864,1.269-.509C14.629,52.076,14.215,52.243,13.8,52.41ZM18.588,46.5a1.179,1.179,0,0,1,.634,1.036C18.633,47.383,18.492,47.177,18.588,46.5ZM36.78,29.7v-.857l.184-.007c.014.285.03.571.045.856C36.931,29.7,36.854,29.7,36.78,29.7Zm2.586-1.693s-.193,0-.193,0c-.008-.306-.008-.609-.008-1.019.148.137.22.173.22.21C39.389,27.468,39.381,27.74,39.366,28.011Zm26.748-6.748c-.4-.557-.326-.977.072-1.094C66.166,20.5,66.143,20.823,66.114,21.263Zm.386-1.381c-.008.094-.186.169-.3.253a10.092,10.092,0,0,1-.005-1.077c.009-.1.2-.184.312-.273A10.849,10.849,0,0,1,66.5,19.883Zm6.5,1.252c.3-.274.463-.771,1.027-.6C73.915,21.125,73.752,21.216,73.005,21.135ZM95,27.516l1.273-.538c.023.068.05.137.075.2A.988.988,0,0,1,95,27.516ZM6.233,90.529a4.068,4.068,0,0,1,.019-.9c.028-.109.255-.188.406-.226.051-.013.22.2.2.221C6.7,89.887,6.521,90.125,6.233,90.529Zm1.246-2.613.759.242c-.148.188-.3.376-.554.7C7.6,88.5,7.562,88.3,7.479,87.917Zm.427,15.2v-1.022c.255.029.434.052.695.081C8.429,102.589,8.405,103.015,7.906,103.113ZM125.259,49.969a3.248,3.248,0,0,1,.785,2.639c-.161-.135-.434-.245-.493-.427a16.151,16.151,0,0,1-.409-1.776C125.119,50.283,125.209,50.142,125.259,49.969Zm-.267,18.921c-.232-.126-.459-.257-.678-.4-.075-.049-.115-.149-.173-.227.073-.045.142-.122.219-.129a3.657,3.657,0,0,1,2.027.432c.107.053.107.429.058.634-.027.12-.242.2-.34.274C125.677,69.253,125.33,69.076,124.992,68.89Zm.87,7.437c-.48.1-.7-.056-.668-.56C125.693,75.629,125.85,75.861,125.862,76.328Zm-1.7-10.968c0-.377-.007-.754.008-1.131a.226.226,0,0,1,.167-.151c.062.006.171.1.167.16-.017.377-.054.752-.088,1.129Zm.48-11.142c.137.114.3.242.568.464h-1.169C124.324,54.46,124.472,54.346,124.639,54.218Zm-1.778-4.163.138,0v.917l-.138,0ZM123.3,54.2c.137.114.3.246.6.485h-1.375c-.009-.035-.019-.066-.027-.1C122.759,54.464,123.02,54.337,123.3,54.2Zm.056,19.041a10.943,10.943,0,0,0-.43,1.055c-.545-.779.236-1.355.228-2.038C123.46,72.4,123.521,72.932,123.355,73.244Zm-2.02-19.839c.029.365.054.673.071.852-.672-.066-1.281-.124-1.891-.188-.152-.016-.3-.057-.611-.12C119.745,53.512,120.6,54.111,121.335,53.406Zm-.046,3.093v1.442c-.48-.416.175-1.132-.714-1.25.05-.047.1-.1.148-.143Zm-16.722-2.127-.992.058C103.719,54,103.985,53.944,104.567,54.372Zm-2.555.306c.208-.3.424-.6.707-1,.108.323.169.511.244.734l.576.041c-.113.6-.674.17-.977.427.1.224.207.469.324.74-.662-.2-1.252-.357-1.822-.564-.188-.068-.328-.269-.493-.41A1.157,1.157,0,0,1,102.012,54.678Zm-1.419-1.009h-1.8C98.953,53.369,99.982,53.316,100.593,53.668ZM99.053,51.7c0,.071,0,.138.007.209h-.937c0-.053,0-.107-.008-.161C98.427,51.739,98.742,51.721,99.053,51.7Zm-2.258,1.38h.148v.921h-.148Zm-2.3,4.053a5.164,5.164,0,0,1,2.423.506c.163.026.328.043.488.081.1.024.2.122.3.11.6-.073.921.382,1.277.714a1.253,1.253,0,0,0,1.379.217,4.637,4.637,0,0,1,.651-.25c.528-.192,1.068-.357,1.584-.581a.8.8,0,0,1,.973.489c.2.654.434,1.3.637,1.95.05.16.014.343.058.508a6.174,6.174,0,0,0,.253.65c-.526.739-1.53.763-2.338,1.261-.014.135-.037.344-.061.551l-.167.02c-.048-.206-.094-.41-.15-.65l-1.246.416c.115.277.232.569.351.862.014-.028.034-.056.048-.084l1.121.771c.054-.057.137-.151.234-.253a.905.905,0,0,0,1.273.055c.6-.408,1.2.008,1.4.677.171.579.144,1.268.649,1.721a.8.8,0,0,0,.461.218,2.077,2.077,0,0,1,1.62.647.267.267,0,0,0,.2.069c.637-.1,1.064.355,1.584.57a6.055,6.055,0,0,0,1.7.4c-.127-.355-.259-.707-.378-1.062-.127-.377-.252-.754-.35-1.138-.15-.583-.246-1.181-.417-1.756-.161-.536-.39-1.052-.591-1.578a1.559,1.559,0,0,1-.069-.214c-.127-.59-.217-1.19-.386-1.767-.146-.509-.4-.985-.574-1.488-.156-.451-.271-.914-.407-1.374l-.538-1.82c.705-.4,1.734-.291,2.4-1.033a1.794,1.794,0,0,0,1.926-.538c.449.022.858.167,1.09.024a3.517,3.517,0,0,1,1.812-.261c.228-.014.459,0,.687,0a4.345,4.345,0,0,1,2.311.63c.311.186.718.214,1.027.4a3.919,3.919,0,0,1,.914.8c.564.667,1.111,1.348,1.613,2.062a11.557,11.557,0,0,1,.468,1.078c.344.62.165,1.466.921,1.944.159.1-.017.727-.1,1.095a4.1,4.1,0,0,1,.173.946,7.154,7.154,0,0,0-.13,2.133c.161.538-.077.8-.215,1.171a3.516,3.516,0,0,1-.363.729c-.317.481-.662.947-1,1.419q-.495.4-.991.8c-.459.372-.8.892-1.49.959-.34.035-.643.381-.99.516-.505.2-1.035.325-1.555.489-.622.2-1.24.41-1.862.6a10.268,10.268,0,0,1-1.261.349c-.286.049-.664-.592-.772-1.045a3.7,3.7,0,0,0-.666-1.825,2.881,2.881,0,0,0-.941-.5c-.355-.156-.735-.261-1.085-.425-.415-.193-.818-.419-1.217-.646a2.555,2.555,0,0,1-.378-.339c-.092.128-.179.25-.271.376-.315-.267-.584-.524-.881-.746-.58-.431-.783-.386-1,.315-.1.331-.284.357-.559.429-.662.171-1.307.416-1.964.62a4.847,4.847,0,0,1-.578.1v.907l.605.115c.037.188.015.451.134.571.267.269.557.736,1,.149.073-.1.326-.06.495-.074.52-.047.52-.045.426-.681h-1.123c.276-.272.44-.434.647-.64.228.408.478.552.706-.239.092.408.134.594.208.936a6.388,6.388,0,0,1,.714-.285c.186-.051.5-.121.57-.034.382.474.651.386.9-.234.046.043.088.086.134.128.025.449.05.9.075,1.342-.242.065-.42.11-.589.155.252.852.5,1.68.758,2.564a1.941,1.941,0,0,1-1.613.823,5.628,5.628,0,0,0-1.43.545.427.427,0,0,1-.1.041c-.568.133-1.146.237-1.706.406-.543.165-1.066.394-1.6.6-.034.012-.071.029-.1.04-.42.121-.841.233-1.256.363a.705.705,0,0,1-.906-.33,7.51,7.51,0,0,1-.409-1.179c-.213-.646-.43-1.289-.641-1.935-.123-.378-.249-.754-.347-1.139-.146-.567-.246-1.142-.4-1.7-.1-.363-.274-.71-.411-1.061a2.1,2.1,0,0,1-.227-.629,7.168,7.168,0,0,0-.65-2.338c-.192-.5-.259-1.043-.417-1.556-.192-.622-.42-1.234-.63-1.85-.017-.054-.021-.111-.036-.165-.19-.654-.409-1.3-.551-1.968a.651.651,0,0,1,.3-.558c.816-.194,1.467-.855,2.4-.761a3.507,3.507,0,0,0,1.25-.406c.01-.147.021-.329.033-.5a8.079,8.079,0,0,1-2.187-.475c-.541-.289-1.24-.008-1.653-.575-.025-.036-.208.045-.319.071-.085.019-.207.083-.252.049a3.768,3.768,0,0,1-.407-.387A2.28,2.28,0,0,1,94.49,57.138Zm27.8,11.329c-.032.02-.1-.027-.278-.083.165-.117.249-.168.323-.235.117-.1.228-.216.342-.325.021.115.1.279.054.336A1.71,1.71,0,0,1,122.289,68.466Zm.059,5.981c0,.61,0,1.224-.013,1.836a1.528,1.528,0,0,1-.284.036c.029-.626.063-1.248.1-1.872C122.214,74.449,122.28,74.447,122.348,74.447Zm-.311,1.913v1.656A1.378,1.378,0,0,1,122.036,76.36Zm-.937-6.175c-.017-.329-.036-.656-.054-.985C121.431,69.369,121.506,69.757,121.1,70.185ZM119,78a1.584,1.584,0,0,1-.332.146c-.23-.165-.469-.326-.693-.5-.027-.021.013-.194.032-.2a1.3,1.3,0,0,1,.534,0,1.386,1.386,0,0,1,.426.357C119.006,77.845,119.027,77.98,119,78Zm-2.776-2.6v.81l-.946.466-.622-.863c-.046.027-.165.1-.288.182-.057-.03-.115-.063-.175-.092.132-.3.255-.6.4-.889.017-.035.19-.043.2-.018C115.132,75.622,115.762,75.214,116.222,75.4Zm-4.815-.367c-.568-.075-.993-.306-1.029-.958-.691-.26-.72-.322-.568-1.547.138.151.219.235.29.324a13.292,13.292,0,0,0,.9,1.081C111.319,74.256,111.588,74.554,111.407,75.037Zm.436.145a2.553,2.553,0,0,1,.777.543,5.188,5.188,0,0,1,.493,1.026A1.958,1.958,0,0,1,111.678,76a3.416,3.416,0,0,1-.255-.932A1.442,1.442,0,0,1,111.843,75.182Zm1.613,2.569c.09-.291.2-.583-.249-.736-.044-.014-.046-.151-.064-.241.3-.071.595-.143.97-.231-.046-.061.023,0,.015.023-.2.593-.39,1.189-.626,1.766-.029.071-.34.094-.474.035a3.87,3.87,0,0,1-.66-.536Zm-4.182-2.341v1.252h-.157V75.41C109.171,75.412,109.224,75.412,109.274,75.41ZM101.465,81.1c-.25.025-.443.046-.726.073.067-.273.113-.457.178-.724C101.115,80.687,101.252,80.849,101.465,81.1Zm-6.2-12.791c-.142.167-.284.335-.52.616V67.757C94.962,67.991,95.112,68.15,95.264,68.313ZM93.71,71.26c.061,0,.121.007.181.008v.9c-.058,0-.119,0-.181,0ZM85.8,60.662l.146-.013c.1.393.2.784.328,1.267-.1.024-.276.064-.474.112C85.8,61.527,85.8,61.094,85.8,60.662Zm.25,2.333c.457-.124.908-.265,1.355-.415.188-.062.363-.169.551-.233.336-.111.67-.224,1.014-.3.361-.081.71-.2.914.336a9.991,9.991,0,0,1,.691,2.24,8.375,8.375,0,0,0,.586,1.534,11.784,11.784,0,0,1,.372,1.242c.148.607.23,1.232.407,1.827a13.764,13.764,0,0,0,.582,1.421.663.663,0,0,1,.029.11c.134.6.232,1.216.407,1.807.159.53.413,1.031.6,1.552.144.406.265.823.369,1.242.144.585.255,1.18.407,1.761.048.184.221.333.276.514.159.532-.169.928-.908,1.12-.578.15-1.158.293-1.8.456.107.76.215,1.53.322,2.3a1.082,1.082,0,0,1-.284-.315c-.146-.363-.238-.75-.38-1.113a.479.479,0,0,0-.269-.23c-.4-.147-.808-.261-1.2-.412-.1-.036-.226-.179-.217-.263.071-.677-.509-.981-.831-1.411-.384-.514-.42-.8.087-1.192-.2-.351-.392-.7-.595-1.053.524-.494-.081-.85-.238-1.207a4.777,4.777,0,0,0-.929-1.195,1.986,1.986,0,0,0-.607-.3c.453-.476.516-.9-.025-1.37-.2-.174-.253-.529-.369-.8.048-.049.1-.1.148-.149l.853.322a1.45,1.45,0,0,0-.032-.288c-.066-.21-.154-.41-.232-.616-.107-.282-.136-.64-.332-.834-.486-.487-.313-1.083-.382-1.639-.023-.194.023-.4-.278-.3a9.624,9.624,0,0,0-.457-2.191,4.37,4.37,0,0,1-.292-1.614,1.943,1.943,0,0,0-.29-.6c.269-.053.549-.367.691.167C85.772,62.966,85.964,63.017,86.054,62.994Zm6.51,18.747a4.55,4.55,0,0,1-.025.768c-.1-.064-.271-.119-.282-.2a5.449,5.449,0,0,1-.01-.764C92.363,81.611,92.553,81.663,92.564,81.741Zm-1.555,3.55a7.017,7.017,0,0,1-.778-1.261c-.244-.536,0-.826.674-.777a1.536,1.536,0,0,0,.555,1.382c.77.856.582,1.307-.073,2a.923.923,0,0,1-.136.092c-.123.077-.244.157-.365.236.027-.219-.027-.518.1-.649A.678.678,0,0,0,91.009,85.291Zm-3.427-1.369a.983.983,0,0,1,.2.142c.68.768,1.357,1.536,2.027,2.317.046.054.031.165.037.255h-1.33c-.146-.509-.265-1.019-.447-1.507-.073-.194-.3-.326-.43-.505a1.2,1.2,0,0,1-.207-.447C87.423,84.105,87.53,84.005,87.582,83.922Zm-.219-1.031a.9.9,0,0,1-.265-.121c-.251-.228-.551-.451-.163-.906a8.913,8.913,0,0,1,.507.739C87.475,82.661,87.392,82.793,87.362,82.891Zm-2.339,2.726c0-.117.117-.232.181-.347.071.11.207.23.2.334a.983.983,0,0,0,.6,1.127c-.161.451-.288.806-.411,1.144C84.868,87.265,85.029,86.418,85.023,85.617ZM84.8,70.449a1.662,1.662,0,0,1-.282-1.917c.255.637.5,1.261.791,1.987C85.15,70.5,84.9,70.549,84.8,70.449Zm.34-2.98c-.167-.47-.313-.885-.461-1.3l.157-.1c.125.1.252.206.386.315l.3-.222c.208.35.4.671.584.992h0C85.9,67.738,85.417,67.273,85.135,67.469Zm-1.4-8.925,1.594.1c.09.329.207.743.355,1.293-.325-.274-.57-.475-.724-.6-.3.077-.616.257-.741.167C83.94,59.307,83.447,59.136,83.737,58.544Zm-.269,6.516c.192.163.38.325.609.522-.113.081-.23.2-.257.182a2.623,2.623,0,0,1-.5-.417C83.295,65.317,83.416,65.158,83.468,65.06Zm.171,1.793c0,.293,0,.583-.011.876,0,0-.156,0-.238,0v-.877C83.472,66.857,83.555,66.855,83.639,66.853Zm-6.16-4.707A.317.317,0,0,1,77.67,62c.031-.011.142.09.137.13-.09.71.428,1.185.666,1.766.008.019-.036.059-.077.119l-.447-.337A1.735,1.735,0,0,1,77.48,62.147ZM74.134,60.88a4.414,4.414,0,0,1,.716.492,1.776,1.776,0,0,1,.528.793,1.177,1.177,0,0,0,1.021.953c-.125.63-.144.626-.653.287a1.415,1.415,0,0,0-.524-.1c-.18-.574-.338-1.075-.486-1.545a3.887,3.887,0,0,1-.816-.5c-.13-.129-.107-.414-.155-.63C73.89,60.711,74.011,60.8,74.134,60.88Zm-1,5.948c.637-.142,1.309-.263,1.964-.438.747-.2,1.484-.438,2.216-.685s1.444-.519,2.206-.8c.032-.235.075-.553.117-.871.509.718.505.7,1.39.5a.709.709,0,0,1,.53.271,1.865,1.865,0,0,1,.392.738c.15.6.234,1.22.361,1.829a6.367,6.367,0,0,0,.257.707,1.674,1.674,0,0,1-1.286.812,7.131,7.131,0,0,0-1.5.588,4.557,4.557,0,0,1-.868.118,3.21,3.21,0,0,0,.4,2.217c.357-.086.71-.153,1.048-.263.092-.03.144-.178.211-.281.315-.013.637-.019.954-.049a.924.924,0,0,0,.411-.129c.507-.343.92-.154,1.075.436.144.538.39,1.052.574,1.582.058.175.054.374.1.555.063.279.142.554.236.921a2.857,2.857,0,0,1-1.8.8,8.859,8.859,0,0,0-1.457.457c-.052.288-.242.665.19.968.059.041.05.175.071.267.13.594.238,1.2.4,1.782.2.743.445,1.476.67,2.21.079.259.3.662.21.756a2.018,2.018,0,0,1-1.246.755,18.293,18.293,0,0,0-1.843.568,10.234,10.234,0,0,1-1.515.13c-.3-1.068-.555-2.016-.824-2.964-.219-.771-.43-1.547-.68-2.309-.161-.487-.405-.946-.579-1.428a13.358,13.358,0,0,1-.392-1.313c-.148-.581-.236-1.177-.407-1.752s-.43-1.105-.609-1.668c-.159-.5-.238-1.026-.39-1.528-.167-.549-.378-1.085-.566-1.629a6.132,6.132,0,0,1-.367-1.19C72.759,67.3,73,67.065,73.132,66.828Zm7.428,4.415c-.3-.271-.8-.421-.6-1.068A1.064,1.064,0,0,1,80.561,71.243Zm-5.12,10.245c-.445.1-.718.027-.685-.447,0-.066.261-.179.274-.167C75.171,81.058,75.294,81.259,75.441,81.488ZM65.452,66.18c.019.524.013,1.05.013,1.575-.09,0-.178.007-.267.011-.006-.558-.01-1.115-.016-1.676C65.281,66.121,65.45,66.146,65.452,66.18Zm-.291-1.727c0,.538,0,1.075.006,1.613-.121-.076-.329-.149-.331-.233-.03-.6-.016-1.2-.013-1.8C65.156,63.989,65.158,64.222,65.16,64.453Zm-.514-1.5c.053.019.109.036.162.055v1.015H63.656C64.067,63.582,64.355,63.267,64.646,62.953ZM64.6,69.484a6.742,6.742,0,0,0,1.065-.343c.452-.13.913-.229,1.362-.368.129-.041.229-.173.336-.258a1.988,1.988,0,0,1,.94,1.506,13.863,13.863,0,0,0,.667,2.349c.218.724.449,1.444.667,2.168.233.775.44,1.56.69,2.329.184.56.433,1.1.631,1.652.125.351.234.712.328,1.073.144.566.246,1.142.409,1.7s.39,1.115.572,1.676a12.071,12.071,0,0,1,.42,1.486c.079.432-.278.737-.728.845-.712.175-1.409.417-2.112.63-.4.117-.8.255-1.206.349-.455.107-.555-.3-.73-.574a1.7,1.7,0,0,1-.1-.493c-.206.175-.322.276-.56.484-.508-2.471-1-4.85-1.5-7.317l-.487.461a16.24,16.24,0,0,1-.414-1.872,2.431,2.431,0,0,0-.59-1.338,1.042,1.042,0,0,1-.024-.964.849.849,0,0,0,.024-1.052,1.233,1.233,0,0,1-.129-.3c-.214-.653-.4-1.32-.646-1.96A1.227,1.227,0,0,1,64.6,69.484ZM69.594,88.03c.107.785.213,1.57.343,2.521-.3-.234-.6-.347-.632-.513-.173-.806-.28-1.626-.393-2.442-.01-.077.094-.173.148-.259.072.082.184.155.213.249C69.328,87.777,69.237,88.063,69.594,88.03Zm.288.119c-.025-.069-.175-.09-.276-.127,0-.263-.017-.526,0-.787a.313.313,0,0,1,.133-.211.208.208,0,0,1,.2.044c.142.265.265.538.385.812.171.388.331.778.5,1.164.048.113.159.221.153.324a5.761,5.761,0,0,1-.13.716,3.73,3.73,0,0,1-.529-.685C70.134,89,70.04,88.562,69.882,88.148ZM61.5,67.817a1.365,1.365,0,0,1,.31,1.684c-.135-.565-.267-1.131-.4-1.695A.185.185,0,0,1,61.5,67.817Zm-.453-1.159c.489.384.331.777.341,1.12-.119-.082-.3-.149-.325-.253A4.186,4.186,0,0,1,61.045,66.659Zm-1.022-1.742a.779.779,0,0,1,.22-.5c.168-.138.231-.077.694.437l-.579.552h0C59.952,65.45,60,65.139,60.023,64.917Zm.416,1.47c-.028-.319-.053-.64-.079-.958C60.76,65.5,60.837,65.829,60.439,66.388Zm-2.086-2.4c.249.231.426.4.74.69-.344.02-.518.028-.74.04Zm-2,1.369c.135.175.2.272.279.359s.172.187.26.278c-.113.036-.247.129-.333.094a.6.6,0,0,1-.3-.3C56.226,65.7,56.306,65.562,56.353,65.352Zm-4.535,6.456c.255.269.426.449.672.707l-.672.118Zm-1.059-2.2c.012-.045.125-.09.186-.081a.214.214,0,0,1,.139.141c.016.189.006.379.006.569l.126.058c-.147.273-.282.551-.447.814-.045.07-.173.09-.263.133-.041-.094-.131-.2-.114-.283C50.5,70.506,50.626,70.055,50.758,69.608Zm.853,3.724c.585-.18,1.207-.24,1.795-.413.513-.149,1-.382,1.505-.579.053-.021.107-.034.163-.051.7-.222,1.4-.463,2.107-.663a11.669,11.669,0,0,1,1.766-.39c.7-.082.938.231,1.079.94a10.145,10.145,0,0,0,.614,1.951,1.076,1.076,0,0,1-.9,1.6,9.785,9.785,0,0,0-1.4.458c.023.294-.225.712.282.953.024.011.035.066.041.1.116.585.194,1.18.355,1.753.149.532.391,1.038.577,1.563.141.392.28.789.385,1.192.147.582.243,1.175.4,1.755.125.469.3.926.47,1.421.669.108.7.167.336.818A.425.425,0,0,0,61.1,86a5.868,5.868,0,0,0,.421,1.286c.338.6.3.814-.329,1.14a6.788,6.788,0,0,1-2.192.68c-.406.059-.793.249-1.2.322a3.109,3.109,0,0,1-.71-.025c-.291-.785-.588-1.494-.81-2.225-.182-.6-.242-1.232-.415-1.833-.149-.511-.4-.993-.577-1.5-.141-.392-.263-.789-.367-1.194-.147-.568-.245-1.148-.412-1.711-.157-.526-.385-1.027-.56-1.547a2.816,2.816,0,0,1-.117-.665c-.079-1-.548-1.22-1.426-.726a2.982,2.982,0,0,1-.921.162q-.058.866-.118,1.735c-.088-.016-.178-.034-.265-.053v-.611c0-.465.116-.922-.351-1.312-.225-.188-.243-.62-.361-.94-.2-.556-.451-1.1-.6-1.67a6.8,6.8,0,0,1-.1-1.256C50.379,73.795,50.984,73.521,51.611,73.332Zm3.426,21.535c-.051-.05-.129-.113-.126-.165.019-.246.062-.491.1-.774,1.091,1.127,1.426,2.039,1.034,3.085-.08-.3-.135-.493-.192-.707-.212-.019-.432-.036-.639-.052-.022-.063-.051-.121-.043-.127C55.842,95.625,55.432,95.247,55.037,94.867Zm-.5.876c-.062.036-.123.067-.186.1-.175-.259-.669-.372-.341-.962C54.211,95.213,54.372,95.481,54.534,95.743Zm-5.6-24.979a5.975,5.975,0,0,1,.427,1.081,1,1,0,0,1-.029.377c-.456.13-.6-.047-.624-.466a8.947,8.947,0,0,0-.246-1.192C48.612,70.621,48.866,70.64,48.937,70.764Zm-.622,2.5c0,.656,0,1.313-.008,1.966,0,.037-.116.106-.169.1s-.143-.087-.145-.137c-.011-.642-.007-1.285-.007-1.926C48.1,73.271,48.205,73.271,48.315,73.269ZM47.293,76.12h1.03v.159H47.271C47.279,76.225,47.287,76.172,47.293,76.12ZM41.21,74.689c.047,0,.092,0,.139,0l.526.945c-.225-.056-.553-.047-.637-.186C41.125,75.255,41.21,74.947,41.21,74.689Zm-.316-2.028c-.062.211-.124.423-.227.775-.192-.449-.32-.744-.449-1.041.492-.4.985-.8,1.491-1.209C42.031,72.088,41.785,72.51,40.894,72.661Zm2,3.2c-.571.328-.908.244-1-.219.159-.059.319-.114.544-.2Zm-.036-8.046v.963l-.611.1c-.113.25.022.754-.534.637-.078-.017-.2-.13-.2-.2A2.535,2.535,0,0,1,42.854,67.811Zm-6.322,1.695a12.985,12.985,0,0,1,2.926-1.3c.647-.188,1.318-.3,2.039-.468a1.376,1.376,0,0,1-1.028,1.116c-.626.147-1.225.4-1.847.567-.649.178-1.308.316-1.968.455-.088.019-.2-.059-.3-.094C36.417,69.69,36.448,69.553,36.532,69.506Zm-.4,8.566c.585-.139,1.148-.378,1.721-.575.07-.023.143-.051.216-.068.508-.126,1.026-.227,1.524-.385a5.881,5.881,0,0,0,.877-.455c.017-.084.062-.289.107-.494l.1,0c.049.184.1.367.167.613a3.286,3.286,0,0,1,.842-.292c.775-.045,1.556-.043,2.331-.022.222.006.436.173.663.2a2.243,2.243,0,0,0,.595-.09c.107-.02.215-.036.323-.056-.124.655.579.583.836.918a15.585,15.585,0,0,0,1.451,1.464.679.679,0,0,1,.094.2,7.661,7.661,0,0,1,.44,3.035,3.625,3.625,0,0,1-.846,2.348c-.453.618.088.835.267,1.064.63.81,1.374,1.532,2.062,2.3.591.655,1.174,1.317,1.743,1.991a3.2,3.2,0,0,1,.492.772c.231.545-.092.9-.661.985a16.185,16.185,0,0,0-1.829.528,12.323,12.323,0,0,1-1.808.44c-.551.063-.816.3-.849.831-.023.415-.047.826-.071,1.242l-.207.007c-.028-.188-.067-.376-.084-.566-.028-.3.13-.653-.286-.833-.043-.021-.028-.24.008-.351.025-.077.141-.123.2-.192.556-.606.554-.841.024-1.428-.459-.511-.907-1.031-1.364-1.545-.5-.557-1-1.115-1.5-1.67l-.222.108c.085.246.168.493.258.735a2.122,2.122,0,0,1,.12.255c.137.584.233,1.181.4,1.758a12.356,12.356,0,0,0,.579,1.492.812.812,0,0,1-.569,1.225,13.3,13.3,0,0,0-1.446.572c-.018.008-.03.025-.047.032-.6.136-1.2.3-1.813.4-.51.086-.748-.21-.879-.693-.164-.609-.423-1.2-.6-1.8-.167-.559-.261-1.142-.426-1.7-.169-.58-.4-1.139-.579-1.713a7.587,7.587,0,0,1-.408-1.471,2.011,2.011,0,0,0-.555-1.263,3.029,3.029,0,0,1-.385-.87c.2-.226.426-.559-.053-.9-.053-.038-.047-.18-.049-.274a4.925,4.925,0,0,0-.661-2.066,4.791,4.791,0,0,1-.293-1.088c-.156-.714-.314-1.425-.431-2.146C35.614,78.262,35.816,78.147,36.132,78.072ZM52.053,94.195c-.375-.146-.43-1.127-.1-1.684A2.206,2.206,0,0,1,52.053,94.195Zm-2.637,2.016c-.11-.134-.071-.388-.1-.609.543-.112.812.019.8.572a1.448,1.448,0,0,0,.235,1.033c.184.249.067.722.081,1.093.043-.036.088-.073.131-.11.314.2.628.4.942.593-.031.063-.062.121-.094.179-.361.034-.683.142-1.044-.213-.193-.19-.691-.059-.83-.468-.055-.167-.136-.4-.065-.521A1.207,1.207,0,0,0,49.416,96.211Zm-1.778.035-.265.059c-.133-.374-.278-.745-.385-1.129-.024-.081.1-.2.149-.3.065.092.137.179.193.276a2.291,2.291,0,0,1,.25.49A3.728,3.728,0,0,1,47.638,96.246Zm-1.1,2.511v1.058l-.145,0V98.749C46.443,98.753,46.492,98.757,46.541,98.757Zm-8.07.276c-.022-.123-.043-.25-.071-.415l.722.161ZM33.914,72.29c0-.288-.008-.779.007-1.271a2,2,0,0,1,.117-.451c.1.076.206.162.316.229a4.556,4.556,0,0,1,.7.41,2.281,2.281,0,0,1,.347.553c-.049.05-.1.1-.148.146l-.532-.14a4.832,4.832,0,0,1-1.237,2.275,5.979,5.979,0,0,0-.567.683c-.385.465-.844.314-1.346.206C32.335,74.066,33.057,73.254,33.914,72.29Zm.988,15.8c-.36-.516-.326-.868.1-1.081C34.963,87.4,34.937,87.691,34.9,88.088Zm.064,1.643-.19,0c-.169-.313-.34-.622-.591-1.083.342.1.667.108.71.223A2.966,2.966,0,0,1,34.966,89.73Zm-.457-3.153c-.575-.34-.532-.324-.271-.906a9.1,9.1,0,0,0,.395-1.411c.045-.167.077-.34.116-.513l.216.037C34.895,84.725,35.322,85.73,34.508,86.577Zm-5.155-7.9A19.893,19.893,0,0,1,31.5,76.238a1.473,1.473,0,0,1,.554-.461c.386-.15.508.092.35.4l-3.149,3.385A.926.926,0,0,1,29.353,78.679ZM25.76,74.041c-.222.245-.382.421-.641.707-.036-.436-.067-.764-.094-1.088C25.256,73.78,25.484,73.9,25.76,74.041Zm.157,1.615c.025.049.051.1.076.145-.5.628-.5.628-1.047.383C25.315,75.986,25.615,75.822,25.917,75.657Zm-.047,4.238-.483-.94.139-.071C26.083,79.344,26.083,79.344,25.87,79.895Zm-2.828-1.988c.033-.045.065-.092.1-.137a2.084,2.084,0,0,0,.532.191,1.053,1.053,0,0,0,.638-.1c.325-.227.561-.619,1.034-.392-.406.647-.8,1.28-1.242,1.977-.056-.2-.11-.4-.206-.759-.3.13-.557.243-.891.389.018-.206-.027-.55.06-.585C23.525,78.292,23.237,78.108,23.042,77.907ZM24,81.8a6.963,6.963,0,0,0,1.481-.553c.528-.171,1.077-.284,1.615-.423a12.614,12.614,0,0,0,1.529-.422c.143-.056.184-.376.484-.822.054.192.106.386.118.426l2.225-.352c.143.664.306,1.434.479,2.2.1.459.261.91.331,1.373.064.42-.137.624-.6.71a16.784,16.784,0,0,0-1.611.549,10.586,10.586,0,0,1-1.2.215c.239.347.568.635.042,1.008-.1.069.153.637.257,1.021.326-.2.5-.309.679-.422a.725.725,0,0,0,1.02.251,2.741,2.741,0,0,1,.581-.242c.155-.052.344-.034.473-.117a.636.636,0,0,1,1.015.376c.233.9.47,1.793.726,2.684.032.113.19.19.269.265l-.82,1.137a.991.991,0,0,0-1.377.027.9.9,0,0,1-.44.077c-.705.063-.969.486-.7,1.152a6.094,6.094,0,0,1,.289.551,2.853,2.853,0,0,1,.053.6c.716.1,1.021-.175,1-.827a5.774,5.774,0,0,1,.047-.68h.192c.047.405.094.814.141,1.2.73-.223,1.421-.434,2.109-.647a.709.709,0,0,1,.86.424,6.433,6.433,0,0,1,.4,1.348c.135.543.269,1.087.365,1.638.086.5-.1.737-.675.768a4.951,4.951,0,0,0-1.278.428c-.208.071-.414.14-.622.208-.673.213-1.348.43-2.024.639-.42.13-.84.261-1.266.372-.545.142-1.109.223-1.637.411a.838.838,0,0,0-.414.566c-.083.413.169.883-.32,1.227-.088.063.073.48.143.866-.023.125-.065.4-.126.678-.084.392-.25.71-.716.726-.01-.653-.186-1.327.3-1.916.068-.083.082-.338.03-.371-.493-.309-.12-.6-.058-.935.077-.422.375-.968-.22-1.315-.036-.021-.055-.1-.053-.153a3.183,3.183,0,0,0-.278-1.509,12.047,12.047,0,0,1-.5-2.079c-.2.121-.422.188-.524.338a8.633,8.633,0,0,1-.793,1.273c-.178.179-.626.092-.953.125,0-.073-.033-.2-.012-.209.652-.276.609-1.077,1.086-1.444a1.678,1.678,0,0,0,.63-1.407,1.292,1.292,0,0,0-.652-1.156c.34-.3.426-.618.051-.954a.313.313,0,0,1-.068-.152c-.139-.622-.242-1.261-.424-1.872a14.219,14.219,0,0,0-.57-1.4,1.012,1.012,0,0,1-.052-.161c-.131-.611-.227-1.234-.4-1.833-.151-.52-.414-1.01-.59-1.526-.117-.344-.167-.712-.265-1.144C22.886,82.031,23.327,81.851,24,81.8Zm5.83,4.49c-.077-.47.217-.726.549-.985A.7.7,0,0,1,29.828,86.293Zm-2.738,17.49c-.461-.1-.628-.4-.393-.735.139-.2-.065-.618.391-.605Q27.088,103.113,27.09,103.783Zm1.173-.3c-.174.292-.262.635-.437.687-.257.075-.691.161-.716-.363C27.434,103.712,27.759,103.62,28.263,103.478Zm-3.421-1.486c.286.179.575.363.739.468-.113.622-.207,1.143-.3,1.665l-.129.015c-.073-.194-.146-.39-.259-.689-.137.257-.224.424-.326.611-.135-.083-.333-.137-.38-.252-.083-.209-.179-.516-.086-.674a5.946,5.946,0,0,1,.779-.9C24.867,102.16,24.854,102.076,24.842,101.993ZM22.621,78.8l.064.116c-.179.147-.359.3-.651.541-.045-.265-.075-.443-.112-.653C22.185,78.8,22.4,78.8,22.621,78.8ZM13.85,77.349c.179.194.357.389.618.671l-.7.1c-.016-.274-.032-.487-.045-.7ZM9.272,90.169c.111-.023.222-.044.239-.048.139.5.259.919.377,1.34l-.238.06Q9.459,90.848,9.272,90.169ZM10.4,107.254c-.17-.307-.341-.609-.577-1.027C10.571,106.376,10.691,106.588,10.4,107.254Zm.242-8.605a.866.866,0,0,1,.064-.3.823.823,0,0,1,.263.127c.22.236.426.486.671.777A.824.824,0,0,1,10.646,98.649ZM11.74,109.2v-1.194C12.527,108.6,12.527,108.609,11.74,109.2Zm1.523-7.147c-.462.271.031.943-.573,1.169-.338.125-.377.851-1.039.513-.173-1.259,1.123-1.49,1.513-2.346.065.017.129.037.191.054C13.33,101.656,13.375,101.993,13.262,102.055Zm1.791-1.837c-.5-.221-.86-.877-1.625-.568.129-.837-.534-1.188-.953-1.711a10.911,10.911,0,0,1-.819-1.419c-.111-.19-.2-.459-.374-.534-.383-.163-.286-.465-.342-.747-.182-.948-.457-1.883-.559-2.835a9.434,9.434,0,0,1,.141-2.016c.062-.547.157-1.091.257-1.634a1.52,1.52,0,0,1,.2-.49A16.228,16.228,0,0,1,12,86.588a5.9,5.9,0,0,1,2.867-2.366c.487-.785,1.371-.445,2.007-.728a5.014,5.014,0,0,1,1.97-.261c.19-.01.37-.19.683-.363a5.145,5.145,0,0,1-.074.611c-.06.244-.261.516-.206.72a7.83,7.83,0,0,0,.543,1.194,1.081,1.081,0,0,1,.077.267c.049.271-.035.551.3.77.139.092.117.6.006.849-.087.2-.406.322-.648.411a2.382,2.382,0,0,1-.653.044c-.02.334-.039.639-.067,1.123a4.246,4.246,0,0,0-.325-.447,1.044,1.044,0,0,0-1.642.029,3.734,3.734,0,0,0-1.321,3.2,6.508,6.508,0,0,0,.516,2.041,6.1,6.1,0,0,0,1.073,1.707,7.074,7.074,0,0,0,1.462.96c.85.491,1.477-.087,2.191-.136.253-.019.471-.486.716-.764a3.612,3.612,0,0,0,.639.107c.544,0,.752.236.889.766a9.7,9.7,0,0,0,.593,1.327,1.656,1.656,0,0,1,.055.42c.064.48.129.96.22,1.636-.306.167-.8.436-1.285.7a3.223,3.223,0,0,1-.645.334c-.883.232-1.774.426-2.657.651a3.913,3.913,0,0,0-.6.274,1.831,1.831,0,0,0-2.317-.374A6.344,6.344,0,0,0,15.053,100.218Zm1.964-8.833c-.338.144-.485.075-.507-.338-.015-.3,0-.6,0-.906.052.008.1.021.155.029C16.777,90.568,16.895,90.97,17.017,91.386Zm5.941,15.474h0c.424.292-.029.5-.111.73-.043.119-.249.175-.379.263C22.26,107.438,22.377,107.2,22.958,106.86Zm0-.017a.868.868,0,0,1,.584-.971C23.688,106.446,23.392,106.906,22.962,106.843Zm-2.7-3.655c-.244.271-.4.447-.642.716v-.745C19.821,103.17,20,103.178,20.264,103.188Zm-4.053,1.388a10.629,10.629,0,0,1,1.156.685c.109.079.064.363.09.555q-.168-.1-.338-.2a5.144,5.144,0,0,1-.716-.461,2.367,2.367,0,0,1-.351-.538C16.106,104.6,16.16,104.589,16.211,104.576Zm1.261,5.105c-.212.545-.451,1.079-.7,1.607-.025.054-.19.042-.3.059a6.354,6.354,0,0,1-.353-2.181c.038-.311.072-.582.517-.478a5.656,5.656,0,0,0-.173.847,4.643,4.643,0,0,0,.086.793l.153-.006c.153-.411.3-.822.465-1.229.028-.066.129-.154.186-.148a.24.24,0,0,1,.163.173A1.388,1.388,0,0,1,17.472,109.682Zm1.4,1.136c-.512.347-.773.25-1-.367,1.24-.4,2.445-.791,3.678-1.192.054-.211.11-.424.165-.641l.139,0c.067.194.135.39.2.586l.156.131c.047-.114.065-.292.15-.336a3.033,3.033,0,0,0,1.188-1l.171.651c.577-.175,1.154-.35,1.729-.534.1-.032.188-.144.291-.163.855-.127,1.709-.249,2.566-.355a2.45,2.45,0,0,1,.518.046c-.02.121-.018.188-.032.192-.567.159-1.144.288-1.7.476-.5.167-.971.4-1.464.589a11.207,11.207,0,0,1-1.185.361c-.588.15-1.192.242-1.771.42a8.883,8.883,0,0,0-1.135.522,1.261,1.261,0,0,1-.259.108c-.681.13-1.367.25-2.049.38A.925.925,0,0,0,18.867,110.817Zm1.123,3.224c.346.328.653.618,1.053,1C20.195,115.131,19.872,114.8,19.99,114.041Zm2.833,3.74c-.111-.092-.1-.328-.145-.5.045,0,.092-.01.137-.016.173.142.347.284.656.534C23.155,117.8,22.927,117.867,22.824,117.782Zm14.165,11.1c-.014.108-.186.194-.294.288,0-.463-.013-.926.008-1.386,0-.11.124-.219.19-.33.056.1.157.2.157.307A6.9,6.9,0,0,1,36.989,128.879Zm12.529,6.762c-.381-.53.25-.626.355-.981C50.146,135.13,50.146,135.13,49.518,135.642Zm9.722.664-.145.019a3.229,3.229,0,0,0-.12-.436,3.491,3.491,0,0,0-.271-.443c.22-.025.361-.039.538-.058C59.24,135.721,59.24,136.013,59.24,136.305Zm8.244,2.3c-.064,0-.126,0-.19-.006v-1.484c.064,0,.126,0,.19,0Zm-7.14-1.63c-.037.054-.263.059-.271.037-.155-.417-.291-.839-.447-1.313C60.213,135.834,60.6,136.606,60.343,136.973Zm-.652.359.646.2c-.145.161-.283.315-.449.5a.28.28,0,0,0-.157.058C59.717,137.806,59.707,137.591,59.691,137.332Zm39.581-8.263c-.589-1.052-.589-1.052-.242-1.258.156.409.307.806.455,1.2C99.412,129.03,99.343,129.05,99.272,129.069Zm4.694-5.829c-.023-.294-.044-.589-.066-.929C104.36,122.511,104.387,122.735,103.966,123.24Zm1.388,1.129a2.1,2.1,0,0,1-.405-.342c-.039-.052.061-.207.1-.315a1.046,1.046,0,0,1,.236.167,1.883,1.883,0,0,1,.19.319Zm13.829-20.515c-.19-.4-.789-.526-.488-1.093A.815.815,0,0,1,119.183,103.854Zm1.284.993a.412.412,0,0,1-.468-.476c0-.079.107-.154.163-.234.186.167.372.338.6.549C120.628,104.762,120.548,104.843,120.467,104.848Zm2.348-14.877a.992.992,0,0,0-.146,1.494.52.52,0,0,1,.05.455,15.593,15.593,0,0,1-.795,1.542.981.981,0,0,0,0,1.209,1.514,1.514,0,0,1,.127.526l-.137.05c-.113-.129-.228-.263-.474-.545-.158.595-.263,1.063-.407,1.517-.148.48-.334.952-.5,1.423-.038.1-.09.2-.125.3-.148.449-.279.9-.445,1.346-.2.526-.421,1.041-.634,1.561-.123.3-.179.693-.4.877-.386.319-.213.68-.24,1.029h0c-.236.265-.611.509-.664.808-.127.753-.887,1.252-.772,2.075,0,.037,0,.1-.019.11a3.4,3.4,0,0,0-1.061,1.48c-.154.3-.263.622-.374.885-.313.334-.622.659-.956,1.019.161.125.279.221.513.4-1.223,0-1.269,1.077-1.782,1.672a37.85,37.85,0,0,0-2.325,2.995,27.277,27.277,0,0,1-2.413,2.735c-1.083,1.181-2.16,2.369-3.306,3.485a10.254,10.254,0,0,1-1.131,1.1c-.486.342-.877.777-1.346,1.123-.678.5-1.384.964-2.07,1.457-.278.2-.518.449-.793.651-.622.459-1.257.9-1.88,1.357-.553.4-1.088.833-1.647,1.227a6.4,6.4,0,0,1-.785.415c-.945.487-1.9.954-2.834,1.459-.764.411-1.5.87-2.258,1.288a2.061,2.061,0,0,1-.57.121c-.036.171-.075.349-.132.62-.6-.808-.989.208-1.613,0,.186.71.606,1.321.171,2.2a6.228,6.228,0,0,1-.5-.964,1.033,1.033,0,0,0-1.323-.47,12.457,12.457,0,0,1-1.3.605c-.538.221-1.09.415-1.636.622a.665.665,0,0,1-.108.032c-.668.136-1.342.244-2,.411s-1.3.422-1.968.6a5.036,5.036,0,0,1-.872.094c-.107.278-.2.528-.313.806.451.526.411.729-.29,1.156l-.543-1.651c-.478.092-.983-.184-1.44.325-.148.167-.65,0-.985.025-1.271.108-2.54.225-3.807.365-.144.015-.269.2-.4.3a1.67,1.67,0,0,0-1.582-.211c-.092.059-.183.178-.271.175-1.05-.037-2.1-.1-3.145-.152-.4-.021-.8-.083-1.205-.094-1.086-.025-2.174.007-3.255-.063a14.5,14.5,0,0,1-3.11-.4c-.649-.19-1.284-.181-1.917-.307-.765-.146-1.509-.4-2.26-.605a1,1,0,0,0-.114-.021c-.716-.13-1.44-.221-2.142-.4-.526-.14-1.015-.413-1.533-.595-.429-.15-.871-.265-1.312-.382-.928-.25-1.874-.44-2.778-.753A15.534,15.534,0,0,1,44.84,131a9.6,9.6,0,0,0-.944-.376c-.415-.154-.832-.3-1.285-.467-.075.278-.135.5-.193.714l-.162-.007a2.43,2.43,0,0,1-.071-.507c.036-.534-.284-.707-.728-.816a3.219,3.219,0,0,1-.665-.307c-.479-.246-.968-.48-1.43-.756s-.87-.618-1.328-.887a2.391,2.391,0,0,0-.966-.39c-.479-.039-.759-.179-.737-.707-.314-.036-.595-.064-.909-.1-.051-.188-.107-.38-.171-.607-.273-.023-.553-.048-.837-.071-.308-.853-.377-.879-1.27-.954a.873.873,0,0,1-.518-.422,1.41,1.41,0,0,0-.788-.722c-.159-.048-.244-.338-.389-.559l-.506-.084c-.047-.19-.092-.372-.139-.564-.526-.225-1.574.234-1.341-.935-.48-.179-.926-.342-1.371-.513a1.875,1.875,0,0,1-.3-.173,2.535,2.535,0,0,1,.349-.182,2.583,2.583,0,0,1,.388-.054c-.425-.461-.782-.881-1.175-1.267-.752-.741-1.588-1.4-2.265-2.206a2.047,2.047,0,0,0-2.046-.9c-.027-.6-.049-1.1-.075-1.653-.478-.044-.688-.33-.714-.812-.008-.148-.2-.282-.307-.424-.424-.574-.846-1.152-1.311-1.782.291-.083.436-.33.675.079a12.882,12.882,0,0,0,1.225,1.536,1.62,1.62,0,0,0-.64-1.979c.629-.179,1.187-.322,1.729-.5.5-.167.987-.382,1.482-.566a1.962,1.962,0,0,1,.329-.079c.6-.13,1.206-.232,1.8-.395.72-.2,1.426-.443,2.137-.665q1.113-.344,2.227-.685c.828-.249,1.674-.447,2.484-.743a11.953,11.953,0,0,1,1.682-.622,1.935,1.935,0,0,1,1.968.868c.323.355.581.841,1.148.91a.146.146,0,0,1,.1.054,5.339,5.339,0,0,0,1.936,1.757,7.1,7.1,0,0,0,1.788,1.277,8.187,8.187,0,0,1,1.3.889c.694.409,1.424.755,2.129,1.144.329.182.639.392.95.6s.9-.121.94-.551a5.485,5.485,0,0,0,0-.551c-.651-.415-1.209-.793-1.786-1.131-.481-.284-1.009-.493-1.477-.8a18.635,18.635,0,0,1-2.676-1.92c-.855-.8-1.843-1.449-2.763-2.17a3.93,3.93,0,0,1-.823-.758c-.064-.092.193-.411.28-.584l.667.292c.135-.361.27-.724.452-1.207.341.591.649.705,1.032.305a.4.4,0,0,1,.2-.09c.607-.136,1.227-.236,1.821-.415.485-.146.938-.4,1.415-.576a12.686,12.686,0,0,1,1.246-.38c.583-.15,1.185-.242,1.756-.424a9.333,9.333,0,0,0,1.213-.586c.051.037.164.113.235.163l1.925-.649v-.943a6.5,6.5,0,0,0-2.36.591,8.252,8.252,0,0,1-.977.178c-.056.282-.113.582-.173.879H47.1c-.051-.188-.1-.376-.172-.622a2.655,2.655,0,0,0-.319.13c-.092.054-.16.175-.254.2-.622.138-1.254.223-1.868.388-.583.154-1.146.384-1.719.58-.035.012-.068.034-.1.042-.6.136-1.206.238-1.791.413-.522.153-1.014.405-1.529.579-.247.083-.525.069-.782.136-.487.121-.975.249-1.452.407-.508.169-1,.388-1.511.559q-1.022.344-2.058.641c-.532.15-1.081.249-1.613.405-.6.175-1.191.409-1.8.58a8.173,8.173,0,0,1-1.049.146c.057-.217.053-.426.13-.461a4.031,4.031,0,0,1,1.379-.653,8.327,8.327,0,0,0,1.769-.568,1.278,1.278,0,0,1,.275-.067,2.516,2.516,0,0,0,1.758-.674.241.241,0,0,1,.1-.036c.687-.117,1.382-.192,2.055-.363a16.287,16.287,0,0,0,1.56-.566c.37-.136.739-.282,1.118-.386.53-.148,1.075-.244,1.6-.4.6-.178,1.184-.4,1.778-.6.4-.132.79-.267,1.192-.372.6-.15,1.2-.263,1.8-.413a7.863,7.863,0,0,0,1.231-.388c.109-.046.147-.313.172-.489.035-.246.028-.5.039-.743.065,0,.126,0,.191-.008.036.3.074.595.13,1.05l1-.361c.069-.025.137-.05.208-.071.647-.213,1.293-.426,1.942-.626a1.624,1.624,0,0,1,.451-.052c.552-.019.762-.359.813-.848.019-.188-.014-.382,0-.57.126-1.357.243-2.717.406-4.072.019-.152.3-.276.465-.411l.157.129v1.29l.641.112c.007.04.014.079.02.119l-.65.223c.114.4.227.806.342,1.211-.047.025-.092.05-.139.077-.126-.1-.253-.207-.334-.274-.184.242-.378.468-.532.72a.524.524,0,0,0-.029.39c.16.495.346.977.523,1.469a4.455,4.455,0,0,1,1.661-.63,11.462,11.462,0,0,0,1.983-.6c.538-.161,1.093-.271,1.631-.432.594-.179,1.177-.394,1.77-.586.451-.144.908-.275,1.363-.411.671-.2,1.342-.407,2.013-.609a5.292,5.292,0,0,1,1.308-.376,1.677,1.677,0,0,0,1.289-.75c.261.411.536.506.84.1a.18.18,0,0,1,.092-.056c.577-.132,1.158-.244,1.728-.395.4-.108.785-.267,1.225-.421.038.743-.237,1.083-.789,1.123a4.919,4.919,0,0,0-2.056.635.466.466,0,0,1-.109.029l-2.082.447c-.041.155-.09.33-.15.557-.38-.257-.747-.461-1.1-.01-.036.046-.141.042-.216.061-.609.129-1.224.232-1.827.392-.783.207-1.56.436-2.325.7a13.669,13.669,0,0,0-1.307.6.472.472,0,0,1-.1.044c-.609.119-1.226.2-1.823.365-.526.146-1.021.4-1.542.572a7.157,7.157,0,0,1-1.014.163c.064.307.072.847.2.876a3.594,3.594,0,0,0,1.2-.071c.057,0,.1-.131.157-.146.583-.142,1.171-.261,1.752-.409.457-.119.906-.271,1.357-.409.674-.2,1.351-.4,2.018-.624.553-.19,1.092-.417,1.637-.624a.973.973,0,0,1,.162-.046c.55-.119,1.105-.217,1.65-.363a21,21,0,0,0,2.407-.714A11.742,11.742,0,0,1,68,97.254a12.527,12.527,0,0,0,1.473-.582c.575-.183,1.169-.3,1.8-.452,0-.355.3-.777-.238-1.044-.025-.01-.031-.067-.039-.1-.121-.657-.234-1.315-.37-1.968-.042-.208-.173-.4-.206-.607a2.292,2.292,0,0,1-.013-.87c.023-.088.4-.107.61-.11a.334.334,0,0,1,.253.185c.154.449.274.906.415,1.361.117.372.244.745.392,1.108.017.036.213,0,.332-.007-.112-.315.134-.236.3-.292.49-.167.966-.38,1.455-.559a5.272,5.272,0,0,1,1.217-.39,2.935,2.935,0,0,0,1.889-.695.225.225,0,0,1,.1-.042c.705-.121,1.417-.208,2.112-.372a15.521,15.521,0,0,0,1.536-.522,2.5,2.5,0,0,1,.311-.127c.589-.136,1.19-.228,1.766-.4s1.1-.434,1.665-.614c.5-.161,1.019-.24,1.519-.388.551-.163,1.092-.365,1.636-.549a1.113,1.113,0,0,1,.376-.112c.5.016.948-.027.924-.7.3.146.564.271.824.4l.163-.132c-.109-.662-.215-1.319-.326-1.978.219.2.509.372.622.622.378.831.931.992,1.824.511a.728.728,0,0,1,.148-.077c.633-.136,1.271-.234,1.889-.409.488-.14.95-.374,1.428-.561a.854.854,0,0,1,.326-.075,2.8,2.8,0,0,0,1.735-.62c.052-.039.142-.031.217-.044.722-.137,1.455-.246,2.168-.421.787-.2,1.561-.449,2.338-.685.724-.217,1.451-.432,2.164-.677.551-.192,1.079-.451,1.634-.634.455-.155.937-.23,1.4-.369.672-.2,1.328-.445,2-.639.521-.152,1.062-.232,1.578-.394s1.008-.418,1.526-.584a3.054,3.054,0,0,1,.893-.119c.4-.006.455-.244.476-.557a2.113,2.113,0,0,1,.119-.435c.048.15.094.305.14.457.015.052.025.107.064.278.236-.1.453-.192.664-.288.048-.021.081-.083.132-.092.6-.133,1.217-.232,1.814-.4.53-.15,1.033-.393,1.559-.564.488-.161.985-.293,1.484-.415a6.368,6.368,0,0,1,.791-.083c-.123-.2-.207-.339-.378-.618.311.056.591.026.662.134.305.465.428.1.532-.028.119.194.238.387.357.577,0,.438-.541.365-1.056.388-.056.192-.108.367-.175.584-.372-.384-.7-.322-1.119-.062a4.869,4.869,0,0,1-1.24.426c-.507.142-1.025.238-1.526.388-.576.173-1.139.388-1.709.584-.069.023-.14.059-.213.075-.584.131-1.177.238-1.755.4a8.729,8.729,0,0,0-2.142.712,4.139,4.139,0,0,1-1.125.3c-.511.154-1.006.363-1.507.553a1.415,1.415,0,0,1-.213.077c-.6.138-1.217.238-1.809.417-.507.15-.987.388-1.482.587a.825.825,0,0,1-.269.087,5.548,5.548,0,0,0-2.06.6,16.154,16.154,0,0,1-1.574.411c-.6.182-1.183.43-1.784.607-.63.183-1.275.317-1.962.488-.042.167-.094.371-.165.668-.35-.409-.678-.645-1-.092-.012.021-.069.019-.107.025-.666.125-1.344.2-1.995.384-.57.154-1.106.421-1.662.626-.117.044-.279-.012-.384.044a4.939,4.939,0,0,0-.586.411c.161.207.3.561.484.584A2.688,2.688,0,0,0,93,89.539c.054-.016.1-.062.15-.073.7-.144,1.4-.284,2.133-.432.046-.169.1-.363.158-.593.215.048.428.678.622.031a.167.167,0,0,1,.144-.058c.86.317,1.547-.336,2.342-.424a11.781,11.781,0,0,0,2.356-.664c.919-.309,1.82-.664,2.726-1,.083-.029.152-.1.232-.129a1.082,1.082,0,0,1,.505-.142.462.462,0,0,1,.25.367c-.061.482.146.987-.267,1.449a2.9,2.9,0,0,0-.378,1.111c-.146.511-.232,1.041-.421,1.534-.271.7-.611,1.384-.924,2.075-.125.274-.255.545-.378.818a22.27,22.27,0,0,1-1.134,2.44,1.826,1.826,0,0,0-.271.747c.662,0,.714-.641.977-1.019a13.4,13.4,0,0,0,.958-1.774c.173-.359.267-.755.43-1.121.188-.43.426-.841.614-1.271a8.745,8.745,0,0,0,.38-1.056c.148-.5.249-1.018.4-1.517.18-.6.393-1.183.589-1.776.029-.085.046-.178.073-.263.121-.38.244-.76.363-1.142.11.014.221.031.33.048-.023.422-.027.841-.081,1.259a3.755,3.755,0,0,1-.223.657c-.217.639-.428,1.273-.645,1.907-.125.372-.246.743-.378,1.112-.363,1.025-.682,2.077-1.114,3.07-.351.806-.962,1.507-1.23,2.329-.169.518-.726.992-.42,1.64h-.493c-.213.309-.35.526-.507.735-.516.691-.52.929.021,1.536a5.572,5.572,0,0,0,.5.438c.378-.622.758-1.248,1.083-1.782-.14-.288-.238-.495-.336-.7.691.144.879,0,1.092-.641a5.912,5.912,0,0,1,.568-.977c.161-.284.307-.579.455-.866.323-.633.662-1.259.962-1.906.173-.372.261-.78.415-1.161.175-.426.386-.839.578-1.257.029-.066.05-.137.075-.208.219-.668.453-1.33.649-2,.067-.232-.007-.505.064-.737.19-.635.426-1.257.63-1.887.044-.14,0-.315.052-.449.111-.269.2-.641.409-.76a6.985,6.985,0,0,1,1.334-.42c.7-.215,1.386-.438,2.083-.649.463-.138.937-.251,1.4-.393.672-.2,1.34-.421,2.01-.63.394-.125.787-.253,1.188-.359.526-.137,1.064-.238,1.584-.4.582-.175,1.148-.421,1.731-.605.523-.161,1.064-.263,1.592-.409.242-.067.465-.19.707-.255a6.573,6.573,0,0,1,.7-.1c0,1.2.064,2.346-.037,3.473-.034.38-.307.751-.311,1.207s.286.605.716.931c0-.706-.042-1.267.01-1.82.056-.607.232-1.2.29-1.807.054-.549.025-1.1.031-1.655,0-.19,0-.378,0-.6l.768-.073c-.123.685-.284,1.292-.33,1.906-.071.908-.073,1.822-.067,2.732,0,.123.211.244.332.374-.768.438-.933,1.2-.4,1.707-.409.33-.409.33,0,.689C122.729,88.447,122.671,88.868,122.815,89.971Zm1.129-.664-.532-.5c.271,0,.486-.063.568.017s.073.3.1.465C124.034,89.292,123.988,89.3,123.944,89.307Zm1.373-6.059c-.054-.061-.161-.123-.159-.182.015-.263.059-.524.094-.785.059,0,.121,0,.182,0,.027.251.071.5.073.75C125.508,83.1,125.384,83.179,125.317,83.248Zm2.916-5.478c-.029-.041-.061-.078-.088-.119-.267.178-.547.337-.8.536-.171.137-.267.378-.536.1-.061-.062-.326.068-.33.068-.57-.465-1.064-.859-1.54-1.271-.084-.073-.092-.231-.134-.349h-.728c.046-.269.079-.47.113-.669.046-.017.094-.033.137-.049l.495.7a1.211,1.211,0,0,1,.332.017c.42.141.835.3,1.34.479.017.053.069.229.123.4l1.933-.567C128.4,77.392,128.317,77.582,128.233,77.77Zm.29-11.365c.071-.249.127-.449.183-.649.2.179.409.361.735.649Zm.261,7.654c-.332-.808-.2-1.088.564-1.034C129.147,73.385,128.987,73.684,128.784,74.058Zm.724-2.866c-.059,0-.119,0-.18,0V69.279l.18,0Zm3.1,1.318c-.175.043-.35.088-.6.147.138.43.265.825.4,1.234-.793.157-1.085-.086-1.077-.791,0-.38,0-.761.009-1.141a5.9,5.9,0,0,0-.635-2.592,4.86,4.86,0,0,1-.186-1.011c-.163.389-.257.616-.35.844-.186-.175-.374-.349-.48-.447.21-.434.417-.808.564-1.206a.455.455,0,0,0-.217-.381c-.411-.156-.45-.449-.42-.822a6.588,6.588,0,0,0-.682-2.9c-.039-.106-.178-.171-.148-.3-.044-.167-.086-.334-.132-.5-.015-.054-.055-.1-.064-.152-.119-.588-.2-1.185-.365-1.76-.152-.53-.411-1.028-.58-1.554a6.013,6.013,0,0,1-.146-.93l-.639-.12a1.267,1.267,0,0,0,.171-1.267c-.261-1.011-1.1-1.87-.851-3.014a.48.48,0,0,1,.064-.118c.361-.033.549.09.651.492.146.569.4,1.105.6,1.663.136.393.263.791.365,1.195.15.59.24,1.194.42,1.773a10.839,10.839,0,0,0,.528,1.142,2.2,2.2,0,0,1,.1.428c.136.681.23,1.377.415,2.043a4.672,4.672,0,0,0,.693,1.724c.388.469.171.93.3,1.37.167.562.39,1.107.586,1.66.025.071.04.146.061.218.223.74.469,1.475.67,2.221a15.064,15.064,0,0,1,.376,1.766c.063.438-.11.975.75.926A1.784,1.784,0,0,0,132.612,72.51Z" transform="translate(0)" fill="url(#a)"/><path d="M224.616,84.5a2.686,2.686,0,0,1-1.019.457c-.724.169-1.467.267-2.2.4-.048.008-.086.062-.155.118.1.131.188.251.278.374-.015.055-.027.108-.042.165a4.57,4.57,0,0,1-1.125-.09c-.532-.178-.958.151-1.438.19a3.472,3.472,0,0,0-.71.261c-.1.034-.234-.016-.336.021-.568.2-1.123.438-1.7.614-.543.165-1.114.235-1.655.406-.474.152-.908.438-1.384.569a.992.992,0,0,1-1.146-.206A20.2,20.2,0,0,0,210.3,86.3c-.491-.43-.971-.877-1.467-1.3a8.887,8.887,0,0,0-.906-.69c-.453-.3-.941-.536-1.388-.838-.559-.378-1.064-.844-1.647-1.178-.76-.434-1.574-.769-2.361-1.154-.269-.133-.528-.29-.8-.425-.591-.3-1.19-.585-1.782-.885-.183-.092-.4-.338-.524-.293-.651.236-1.022-.38-1.536-.528-.394-.115-.584-.247-.753.007a10.753,10.753,0,0,0-1.6-.858,16.08,16.08,0,0,0-2.048-.419c-.057-.01-.113-.026-.167-.041-.637-.2-1.269-.428-1.916-.579a14.546,14.546,0,0,0-1.975-.334c-1.081-.1-2.162-.16-3.246-.3a43.059,43.059,0,0,0-4.736-.073c-.461-.008-.782.075-.765.573l-1.252.512c-.024-.341-.035-.525-.057-.869l-3.467.487c.086.271.141.477.218.673s.175.393.31.688a1.57,1.57,0,0,1,.555-.243c.44-.008.75-.726,1.281-.149.092-.462.216-.821.818-.581l-.367.594c.844-.049,1.6-.081,2.355-.141.233-.02.457-.137.692-.161,1.984-.21,3.933.261,5.906.3a6.419,6.419,0,0,1,1.14.071c.9.178,1.78.419,2.676.6.8.163,1.609.278,2.415.414a.315.315,0,0,1,.108.028c.476.323.943.5,1.421-.2.05.341.079.549.111.757.526.145,1.029.276,1.528.427a9.821,9.821,0,0,1,1.117.393c.365.163.7.4,1.066.56.649.278,1.319.5,1.962.782.572.253,1.117.563,1.718.871.184.129.411.306.659.451s.516.22.737.378c.43.3.821.663,1.248.968.835.592,1.691,1.154,2.528,1.748a14.128,14.128,0,0,1,1.281,1.02c.344.308.589.754.971.985.426.257.188.42.061.74-.624-.5-1.207-.936-1.762-1.411-.347-.3-.564-.8-1.152-.645.019.107.008.245.073.306.5.47,1.021.916,1.52,1.389a.4.4,0,0,1,.039.329,9.212,9.212,0,0,1-1.016.361,3.825,3.825,0,0,1-.611.079c.159.208.261.344.363.479a3.739,3.739,0,0,0-.553.151c-.35.157-.576-.263-1.021-.092a24.106,24.106,0,0,1-3.072.785,1.335,1.335,0,0,0-.157.053c-.5.2-.985.438-1.5.59-.572.169-1.171.261-1.755.387a.965.965,0,0,0-.156.057c-.536.2-1.064.428-1.611.589-.566.164-1.156.237-1.722.4-.668.2-1.323.436-1.978.678-.2.075-.505.2-.532.339a4.3,4.3,0,0,0,.036,1.035c.447-.1,1.033.043,1.033-.746.459.436.457.434.992.107a.7.7,0,0,1,.211-.072l1.812-.4a.787.787,0,0,0,.211-.075,3.156,3.156,0,0,1,1.693-.581,1.28,1.28,0,0,0,.447-.073c.595-.2,1.177-.423,1.774-.6a15.784,15.784,0,0,0,1.588-.411,5.119,5.119,0,0,1,2.066-.637.613.613,0,0,0,.223-.045l2.265-.788c.029-.112.075-.306.146-.595.282.155.518.4.73.379a2.663,2.663,0,0,0,1.138-.349,5.368,5.368,0,0,1,2.122-.7,22.841,22.841,0,0,0,2.669-.683c.017,0,.029-.022.046-.028.551-.2,1.1-.414,1.653-.594.464-.15.942-.249,1.409-.387.7-.21,1.4-.427,2.09-.658.432-.143.858-.314,1.34-.492.029.011.2.139.309.1.494-.182.96-.458,1.463-.609.607-.181,1.242-.267,1.864-.4a1.412,1.412,0,0,0,.257-.126l-.68-.336c.34-.207.63-.384.922-.566A.683.683,0,0,0,224.616,84.5Z" transform="translate(-115.616 -38.418)" fill="url(#a)"/><path d="M228.262,130.572v-.016l-.011,0Z" transform="translate(-150.016 -74.02)" fill="url(#a)"/><path d="M321.035,100.316v0l0,0Z" transform="translate(-210.995 -54.142)" fill="url(#a)"/><path d="M54.5,124.191a1.385,1.385,0,0,0,.169-.019l2.032-.65c.054-.017.114-.012.167-.033a6.962,6.962,0,0,1,1.676-.593,4.8,4.8,0,0,0,1.96-.737c.162-.09.3-.269.468-.3.911-.145,1.825-.255,2.606-.359.182-.545.31-.938.459-1.385-.412.071-.816.137-1.252.212-.059-.31-.208-.658.175-.974.079-.065.03-.323-.015-.475a.316.316,0,0,0-.291-.081.817.817,0,0,0-.255.326.789.789,0,0,0-.025.282,2.476,2.476,0,0,1-.979,1.735c0-.511-.161-1.05.035-1.257.4-.426.233-.687-.084-1.05l.59-.126c.169-.669.3-1.3.492-1.909.171-.531.43-1.034.634-1.556.152-.384.246-.794.424-1.164.278-.577.624-1.12.9-1.7s.508-1.175.769-1.758a4.635,4.635,0,0,1,.387-.74,15.6,15.6,0,0,0,1.552-2.257,18.308,18.308,0,0,1,1.624-2.192,4.986,4.986,0,0,1,1.419-1.624c.477-.308.742-.925,1.158-1.349.756-.769,1.55-1.5,2.337-2.24.472-.445.94-.891,1.44-1.3.6-.492,1.22-.958,1.851-1.411s1.263-.867,1.9-1.287c.42-.276.848-.536,1.283-.79.467-.274.94-.528,1.411-.793-.024-.073-.047-.148-.069-.22a11.677,11.677,0,0,1-1.622-.015,2.183,2.183,0,0,0-1.637.569q-.792.565-1.59,1.12c-.618.43-1.248.844-1.854,1.289-.324.238-.611.522-.917.785-.622.534-1.257,1.051-1.862,1.605-.655.6-1.295,1.218-1.923,1.848-.5.5-.992,1.007-1.442,1.55-.464.558-.87,1.16-1.319,1.77.035.051.118.178.155.231-.347.249-.813.4-.889.669a5.325,5.325,0,0,1-1.174,1.862,25.668,25.668,0,0,0-1.62,2.712,14.538,14.538,0,0,0-.783,1.491c-.318.635-.645,1.268-.928,1.919-.178.411-.271.856-.423,1.278-.2.562-.426,1.118-.644,1.676a.635.635,0,0,1-.115.241.553.553,0,0,0-.141.748,2.055,2.055,0,0,0-.373.605,11.925,11.925,0,0,0-.343,1.257c-.135.6-.244,1.216-.355,1.782-.42.077-.744.131-1.069.2s-.673.153-1.007.247c-.423.118-.846.239-1.263.381-.573.194-1.138.406-1.706.613a3.2,3.2,0,0,0-1,.4.924.924,0,0,1-.714.25c-1.083-.017-1.752.51-1.831,1.4a2.542,2.542,0,0,0,1.473-.258A8.531,8.531,0,0,1,54.5,124.191Z" transform="translate(-33.565 -50.249)" fill="url(#a)"/><path d="M51.043,183.407h-.016v0l.014.011Z" transform="translate(-33.538 -108.755)" fill="url(#a)"/><path d="M228.259,130.574l-.011-.012,0,.005Z" transform="translate(-150.013 -74.024)" fill="url(#a)"/><path d="M173.795,128.4a4.129,4.129,0,0,1-.691.293c-.616.084-1.114.552-1.8.449-.322-.049-.687.2-1.033.3-.411.129-.824.25-1.236.38-.643.206-1.28.43-1.93.62-.525.154-1.067.257-1.592.407-.4.115-.8.267-1.189.41-.483.175-.958.387-1.452.526-.615.172-1.25.28-1.872.435-.384.1-.765.222-1.139.357-.516.186-1.011.432-1.535.584-.594.172-1.22.233-1.812.412-.738.224-1.456.519-2.243.808-.014.062-.055.224-.068.276a4.2,4.2,0,0,0-1.107-.041c-.693.165-1.364.424-2.043.644-.069.021-.136.049-.206.072-.594.2-1.19.4-1.782.6a7.732,7.732,0,0,0-.9.337.378.378,0,0,0-.014.351,9.4,9.4,0,0,0,.756.581c.615-.2,1.2-.419,1.791-.588.557-.159,1.156-.2,1.691-.412a5.493,5.493,0,0,1,2.327-.648.506.506,0,0,0,.169-.019,22.448,22.448,0,0,1,2.663-.95,14.649,14.649,0,0,0,2.368-.692,23.059,23.059,0,0,1,2.612-.746c.072-.019.143-.04.213-.065.591-.2,1.17-.436,1.77-.589.65-.164,1.321-.252,1.984-.374a.506.506,0,0,0,.1-.043c.453-.2.9-.408,1.36-.594s.906-.338,1.39-.516c-.112-.135-.208-.255-.294-.357.2-.22.359-.4.593-.649.046.35.079.578.113.841.755-.141,1.467-.274,2.177-.408a.771.771,0,0,0,.1-.047c.513-.2,1.013-.445,1.54-.6.584-.171,1.2-.257,1.787-.4.085-.022.146-.152.217-.236a2.553,2.553,0,0,0-.432-.237C174.692,128.735,174.361,128.213,173.795,128.4Z" transform="translate(-97.346 -72.578)" fill="url(#a)"/><path d="M93.353,47.2c-.549.284-1.046.667-1.584.974-.478.273-1.006.465-1.468.765-.8.514-1.562,1.081-2.335,1.632-.64.456-1.287.9-1.9,1.384-.359.282-.614.786-1.006.918a3.467,3.467,0,0,0-1.154.8c-.844.712-1.7,1.409-2.527,2.141a.974.974,0,0,0-.422,1.037,1.914,1.914,0,0,0,.114.235,1.2,1.2,0,0,0,.263-.137c.846-.756,1.68-1.528,2.535-2.274a8.326,8.326,0,0,0,1.4-1.148,2.871,2.871,0,0,1,1.172-.993A15.512,15.512,0,0,0,88.416,51.2c.81-.56,1.613-1.131,2.435-1.676.4-.263.835-.464,1.244-.714a7.185,7.185,0,0,1,1.852-1.062,3.406,3.406,0,0,0,.691-.361,19.345,19.345,0,0,1,1.737-.917.853.853,0,0,0,.62-1.03c-.451.233-.846.453-1.256.648C94.946,46.463,94.131,46.8,93.353,47.2Z" transform="translate(-53.183 -18.078)" fill="url(#a)"/><path d="M36.939,124.266c.169-.565.289-1.118.5-1.635.274-.669.624-1.308.93-1.964.357-.763.7-1.53,1.049-2.295.122-.271.355-.554.336-.817-.054-.777.756-1.089.861-1.765a1.189,1.189,0,0,1,.184-.338c-.2-.014-.494-.118-.579-.026a5.128,5.128,0,0,0-.757,1.058c-.265.494-.461,1.026-.7,1.537-.1.22-.25.419-.348.639-.154.342-.275.7-.428,1.038-.192.434-.416.853-.6,1.29-.162.378-.278.775-.431,1.158-.3.739-.635,1.467-.909,2.216-.175.477-.261.985-.4,1.477-.111.4-.231.8-.357,1.189-.2.63-.461,1.248-.613,1.89-.178.749-.261,1.524-.393,2.285a1.843,1.843,0,0,1-.112.255c-.078.224-.154.453-.241.716.714-.03,1.014-.3,1.049-.844a6.257,6.257,0,0,1,.1-1.02c.168-.7.388-1.385.577-2.078.164-.607.3-1.222.48-1.823.155-.506.373-.991.54-1.493.021-.067-.081-.175-.13-.263s-.1-.167-.146-.251a2.108,2.108,0,0,1,.283-.12A1.75,1.75,0,0,1,36.939,124.266Z" transform="translate(-22.302 -64.051)" fill="url(#a)"/><path d="M152.07,80.567c-.838.6-1.894.457-2.8,1.137a.481.481,0,0,1-.6.494c-.135-.012-.284.128-.427.2a3.08,3.08,0,0,0,.351.616.521.521,0,0,0,.433.13,4.4,4.4,0,0,0,.77-.31,18.167,18.167,0,0,1,2.088-.942c.781-.244,1.581-.422,2.36-.7a17.19,17.19,0,0,1,2.366-.41,1.48,1.48,0,0,0,.757-.451c.235-.267.021-.879-.289-.868a9.792,9.792,0,0,0-1.691.235c-.555.118-1.093.315-1.648.454A5.148,5.148,0,0,0,152.07,80.567Z" transform="translate(-97.433 -40.435)" fill="url(#a)"/><path d="M228.218,35.014c.66.133,1.321.247,1.985.372a1.261,1.261,0,0,1,.165.045c.5.2,1,.424,1.521.589s1.071.256,1.6.4a7.751,7.751,0,0,1,.962.345c.432.189.848.413,1.279.6.322.141.66.239.985.376.463.2.912.424,1.381.6.522.2,1.061.363,1.7.579-.019-.377-.027-.556-.037-.746a2.769,2.769,0,0,1-.58-.122c-.44-.2-.86-.435-1.3-.63-.344-.151-.716-.235-1.058-.391-.365-.168-.695-.427-1.066-.57-.463-.18-.962-.274-1.438-.424-.445-.139-.879-.3-1.319-.459a14.482,14.482,0,0,0-1.507-.53c-.691-.165-1.4-.249-2.108-.367-.056-.008-.129-.014-.158-.05-.43-.5-1.1-.337-1.635-.592a5.682,5.682,0,0,0-1.5-.252c-.215.433.246.72.484.829A7.67,7.67,0,0,0,228.218,35.014Z" transform="translate(-148.557 -10.424)" fill="url(#a)"/><path d="M60.383,81.14c-.474.517-1.024.973-1.455,1.519-.543.688-.99,1.45-1.5,2.166-.652.922-1.336,1.824-1.981,2.752-.368.528-.674,1.1-1.037,1.629-.175.255-.494.44-.211.81.282-.137.557-.267.786-.378.338-.56.642-1.109.987-1.631.366-.549.778-1.067,1.154-1.607.413-.592.768-1.229,1.219-1.786.822-1.016,1.7-1.99,2.556-2.979.469-.538.943-1.071,1.407-1.613.388-.456.977-.846.534-1.639-.638.665-1.268,1.306-1.876,1.968C60.747,80.588,60.6,80.9,60.383,81.14Z" transform="translate(-35.55 -39.728)" fill="url(#a)"/><path d="M271.174,51.083c.724.384,1.471.737,2.166,1.169.576.359,1.081.834,1.636,1.229.824.588,1.682,1.124,2.49,1.732.534.4,1,.9,1.5,1.334a1.359,1.359,0,0,0,1.632.23l-1.344-1.086c-.741-.6-1.461-1.228-2.231-1.791-.584-.43-1.283-.714-1.835-1.178A3.437,3.437,0,0,0,273.16,51.7c-.046-.175-.085-.34-.1-.424-.643-.374-1.194-.688-1.741-1.008a3.684,3.684,0,0,0-.668-.4c-.547-.182-1.027-.712-1.757-.361.085.178.121.408.249.483C269.8,50.376,270.493,50.722,271.174,51.083Z" transform="translate(-176.725 -20.672)" fill="url(#a)"/><path d="M212.943,86.165c-.659-.271-1.334-.5-1.993-.773-.42-.173-.81-.432-1.235-.581-.509-.178-1.046-.275-1.565-.415-.4-.111-.808-.229-1.207-.361-.593-.2-1.173-.445-1.778-.6-.451-.116-.906-.122-1.378-.285a13.007,13.007,0,0,0-2.692-.419,21.372,21.372,0,0,1-2.474-.251,15.675,15.675,0,0,0-3.439-.061c.008.6.375.761.966.5a1.171,1.171,0,0,1,.579-.115c.38.042.752.166,1.135.221,1.125.165,2.264-.166,3.41.293.724.291,1.609.071,2.417.377a14.383,14.383,0,0,0,2.237.425,4.314,4.314,0,0,1,1.307.377c.806.47,1.784.395,2.576.919a5.708,5.708,0,0,0,1.269.42,3.043,3.043,0,0,1,.818.361,2.677,2.677,0,0,0,1.757.628C213.594,86.418,213.252,86.294,212.943,86.165Z" transform="translate(-128.281 -42.339)" fill="url(#a)"/><path d="M171.715,31.548c1.195-.072,2.4-.047,3.595-.083a5.638,5.638,0,0,0,.867-.158,3.169,3.169,0,0,0,.614.135c.222-.53.538-.145.81-.107a5.444,5.444,0,0,0,.6.122c.7.024,1.411,0,2.111.047a1.149,1.149,0,0,0,1.166-.63c-1.546-.116-3-.227-4.461-.332a1,1,0,0,0-.218.058c-.2.045-.4.086-.594.129-.01-.043-.024-.086-.034-.129a1.452,1.452,0,0,1-.5.188,40.87,40.87,0,0,0-6.318.428,5.559,5.559,0,0,0-1.206.447c.017.068.033.137.049.2a3.3,3.3,0,0,0,.516.024C169.719,31.779,170.713,31.61,171.715,31.548Z" transform="translate(-110.515 -8.287)" fill="url(#a)"/><path d="M139.638,33.834c-.632.141-1.235.414-1.864.583s-1.248.276-1.872.41a.539.539,0,0,0-.111.024c-.473.2-.932.436-1.417.594-.518.171-1.062.261-1.59.406a8.556,8.556,0,0,0-1.122.381c-.82.355-1.631.737-2.488,1.128v.646c.412-.178.726-.283,1.009-.443a3.865,3.865,0,0,1,2.013-.74.9.9,0,0,0,.323-.085c.528-.2,1.046-.427,1.58-.608.459-.157.938-.257,1.4-.391.722-.21,1.443-.428,2.165-.64.09-.025.188-.021.278-.049.63-.2,1.248-.453,1.892-.6.751-.173,1.526-.259,2.334-.389-.019-.227-.036-.419-.053-.637C141.243,33.563,140.431,33.655,139.638,33.834Z" transform="translate(-84.899 -10.181)" fill="url(#a)"/><path d="M131.845,154.281c.256,0,.478.063.538-.011.4-.477,1.057-.149,1.524-.565a3.323,3.323,0,0,1,1.383-.412c.6-.143,1.2-.267,1.8-.4.355-.076.407-.318.279-.594a5.9,5.9,0,0,0-.447-.677,29.917,29.917,0,0,1-4.546,1.346C132.195,153.424,132.037,153.813,131.845,154.281Z" transform="translate(-86.655 -87.868)" fill="url(#a)"/><path d="M103.8,116.383c.658-.742,1.365-1.441,2.064-2.143.891-.9,1.795-1.79,2.693-2.681-.234.009-.534-.062-.674.059a23.58,23.58,0,0,0-1.769,1.713c-1.009,1.081-2.024,2.165-2.967,3.3-.432.522-1.079.915-1.177,1.676.149-.04.346-.043.425-.138C102.879,117.584,103.3,116.946,103.8,116.383Z" transform="translate(-67.02 -61.525)" fill="url(#a)"/><path d="M121.192,111.552l-.009.008h.021Z" transform="translate(-79.647 -61.53)" fill="url(#a)"/><path d="M249.092,95.407l-.021,0,.01.015h.013v-.013Z" transform="translate(-163.7 -50.916)" fill="url(#a)"/><path d="M253.826,97.783c-.509-.367-1.043-.7-1.586-1.025s-1.14-.622-1.707-.939c-.438-.243-.831-.624-1.4-.457.013.1,0,.257.054.287.474.26.96.5,1.449.739a7.273,7.273,0,0,1,.839.393c.436.293.829.654,1.261.953.71.489,1.484.9,2.137,1.45a1.011,1.011,0,0,0,.745.284c-.033-.123-.036-.286-.112-.353C254.957,98.657,254.4,98.2,253.826,97.783Z" transform="translate(-163.74 -50.862)" fill="url(#a)"/><path d="M268.057,107.417l0,.016h.012l0-.014Z" transform="translate(-176.178 -58.812)" fill="url(#a)"/><path d="M137.082,95.093c.1.011.233.068.308.025.741-.427,1.453-.908,2.215-1.3.839-.432,1.72-.783,2.582-1.169,0-.059,0-.114,0-.171a2.358,2.358,0,0,0-.887.019c-.583.259-1.114.638-1.686.925-.78.394-1.588.734-2.364,1.137C137.135,94.622,137.138,94.911,137.082,95.093Z" transform="translate(-90.097 -48.971)" fill="url(#a)"/><path d="M216.412,33.085c.505.09,1,.237,1.555.374v-.749c-1.252-.05-2.438-.717-3.726-.275a.864.864,0,0,0,.983.569A5.84,5.84,0,0,1,216.412,33.085Z" transform="translate(-140.808 -9.432)" fill="url(#a)"/><path d="M123.952,103.416c.325-.259.7-.457,1.043-.693a1.084,1.084,0,0,0,.186-.222c-.1-.043-.235-.147-.31-.117a2.691,2.691,0,0,0-.524.323c-.653.457-1.306.912-1.954,1.377a7.392,7.392,0,0,1-.96.694c-.367.18-.453.393-.314.74a5.819,5.819,0,0,0,.889-.483C122.672,104.512,123.294,103.942,123.952,103.416Z" transform="translate(-79.563 -55.5)" fill="url(#a)"/><path d="M121.208,111.534l.012.01,0-.017Z" transform="translate(-79.664 -61.513)" fill="url(#a)"/><path d="M320.023,89.524c-.244-.34-.451-.21-.641-.088-.061.039.012.4.11.549.274.417.611.791.889,1.207a1.01,1.01,0,0,0,1.323.511c-.008-.073.007-.163-.033-.208C321.121,90.838,320.52,90.218,320.023,89.524Z" transform="translate(-209.896 -46.909)" fill="url(#a)"/><path d="M326.208,96.293v.012l0,0v0l.017-.017Z" transform="translate(-214.397 -51.498)" fill="url(#a)"/><path d="M92.2,149.616l0,0v0l0,0Z" transform="translate(-60.594 -86.544)" fill="url(#a)"/><path d="M87.7,150c-.178.367-.316.752-.477,1.129-.181.423-.4.833-.543,1.269a9.022,9.022,0,0,0-.22,1.12c.3.079.443-.09.528-.419.12-.466.271-.923.424-1.378a7.485,7.485,0,0,1,.339-.849c.216-.457.449-.9.675-1.356C87.937,149.3,87.837,149.708,87.7,150Z" transform="translate(-56.823 -86.442)" fill="url(#a)"/><path d="M97.489,132.675c.218-.41.731-.741.483-1.324a3.381,3.381,0,0,0-.6.525c-.353.5-.663,1.022-.977,1.543-.261.432-.661.832-.4,1.411.1-.063.224-.105.282-.193C96.695,133.994,97.13,133.355,97.489,132.675Z" transform="translate(-63.039 -74.542)" fill="url(#a)"/><path d="M101.927,131.288l.007-.019-.02,0,0,.026.012-.009Z" transform="translate(-66.983 -74.488)" fill="url(#a)"/><path d="M96.136,141.528l-.006-.021-.009.006h0l0,.009.017.006Z" transform="translate(-63.173 -81.217)" fill="url(#a)"/><path d="M92.618,142.5c.158-.347.281-.71.415-1.069-.09-.026-.216-.081-.238-.055A12.675,12.675,0,0,0,92,142.481c-.222.37-.39.769-.577,1.145.084.178.173.375.265.569a.968.968,0,0,0,.187-.192C92.131,143.5,92.385,143.008,92.618,142.5Z" transform="translate(-60.089 -81.126)" fill="url(#a)"/><path d="M190.127,82.314c-.406.094-.8.184-1.248.289-.292-.251-.6-.133-.705.4.511,0,1.017-.014,1.524.005C190.146,83.022,190.265,82.827,190.127,82.314Z" transform="translate(-123.675 -42.313)" fill="url(#a)"/><path d="M144.4,88.6c-.092-.169-.589-.12-.9-.169-.015.079-.031.159-.047.238l.776.288c-.434.113-.722.19-1.075.284.348.2.618.351.887.505A.77.77,0,0,0,144.4,88.6Z" transform="translate(-94.085 -46.334)" fill="url(#a)"/><path d="M165.244,86.375c-.692.114-1.381.259-2.064.413-.043.01-.051.173-.073.276l2.533-.391C165.52,86.483,165.371,86.357,165.244,86.375Z" transform="translate(-107.201 -44.981)" fill="url(#a)"/><rect width="0.014" height="0.015" transform="translate(55.885 42.085)" fill="url(#a)"/><path d="M155.076,89.888a2.048,2.048,0,0,0,1.708-.459c.006-.01,0-.028,0-.043A1.816,1.816,0,0,0,155.076,89.888Z" transform="translate(-101.923 -46.946)" fill="url(#a)"/><path d="M160.08,89.4l.011-.017-.025,0h0V89.4Z" transform="translate(-105.202 -46.962)" fill="url(#a)"/><path d="M183.88,83.555c0-.053-.08-.143-.128-.143-.523-.011-1.049-.006-1.575-.006,0,.109,0,.217,0,.325.536,0,1.071,0,1.607-.008C183.819,83.722,183.885,83.61,183.88,83.555Z" transform="translate(-119.733 -43.03)" fill="url(#a)"/><path d="M134,100.342c-.037.284-.061.451-.085.616l.121.129c.206-.2.413-.391.618-.589Z" transform="translate(-88.015 -54.162)" fill="url(#a)"/><path d="M161.133,88.43a4.609,4.609,0,0,0-.77.024c-.09.017-.152.19-.225.3a4.29,4.29,0,0,0,.764-.028C160.994,88.713,161.056,88.542,161.133,88.43Z" transform="translate(-105.25 -46.33)" fill="url(#a)"/><path d="M211.247,240.265l-.008.008.008.009Z" transform="translate(-138.835 -146.124)" fill="url(#a)"/><path d="M211.646,232.408c.666-.113,1.321-.276,1.977-.435a9.845,9.845,0,0,0,1.1-.322c.495-.188.966-.447,1.471-.6.586-.175,1.2-.259,1.795-.411.42-.108.827-.267,1.232-.411.541-.194,1.071-.43,1.622-.586s1.144-.232,1.713-.374c.4-.1.791-.236,1.184-.372.582-.2,1.156-.434,1.745-.609.543-.163,1.106-.238,1.645-.405.707-.221,1.4-.493,2.152-.76-.019-.267-.041-.572-.077-1.023-.562.171-1.021.33-1.492.449-.578.148-1.185.215-1.745.415a5.482,5.482,0,0,1-2.049.647.312.312,0,0,0-.111.019c-.7.223-1.4.453-2.106.666-.495.15-1,.25-1.492.409-.65.213-1.284.468-1.951.712-.027.127-.063.307-.088.413a1.923,1.923,0,0,0-.672-.161,14.518,14.518,0,0,0-1.809.417c-.545.163-1.056.43-1.6.6a8.348,8.348,0,0,0-1.691.443.9.9,0,0,1-1.267-.152c-.023.278-.042.555-.067.831C211.021,232.232,211.218,232.479,211.646,232.408Z" transform="translate(-138.712 -136.814)" fill="url(#a)"/><path d="M168.063,305.814a.526.526,0,0,1-.265-.075c-.538-.434-1.136-.2-1.75-.259,0,.367-.017.651.008.933.013.131.079.342.169.372a7.433,7.433,0,0,0,1.351.347c.505.066,1.021.036,1.535.066a.706.706,0,0,1,.391.127,1.4,1.4,0,0,0,1.491,0c.227.088.408.171.6.228a2.764,2.764,0,0,0,.64.14,3.7,3.7,0,0,0,.656-.067c.123-.013.316-.088.363-.036.419.478.822.315,1.186.05.74.407,1.488.121,2.247.208V306.61c-1.37-.142-2.7-.294-4.035-.418C171.121,306.056,169.591,305.943,168.063,305.814Z" transform="translate(-109.13 -188.977)" fill="url(#a)"/><rect width="0.023" height="0.017" transform="translate(87.436 111.694)" fill="url(#a)"/><path d="M204.8,304.894c-.165.036-.342.011-.509.04-.488.092-.97.2-1.455.3a10.314,10.314,0,0,1-1.421.294c-.967.06-1.94.048-2.907.077-.409.013-.648.351-.464.618.158.23.316.461.466.684.887,0,1.8-.031,2.707.008.607.029,1.014-.075.956-.8,0-.058.061-.121.169-.323.1.347.159.557.219.766h.555c.05-.342.094-.622.144-.954.269.359.48.636.607.812l2.68-.637v-1.229a4.376,4.376,0,0,0-.595.05C205.564,304.687,205.184,304.808,204.8,304.894Z" transform="translate(-130.121 -188.377)" fill="url(#a)"/><path d="M256.074,294.448l.021.015.007-.023-.019,0Z" transform="translate(-168.302 -181.729)" fill="url(#a)"/><path d="M239.984,292.261a3.845,3.845,0,0,1-.027-.745,1.925,1.925,0,0,0-.633.1c-.534.282-1.037.628-1.567.918-.342.188-.728.3-1.069.488a5.231,5.231,0,0,1-1.9.9.7.7,0,0,0-.261.084,6.337,6.337,0,0,1-.914.555c-.486.184-1,.284-1.547.43.169.34.317.643.467.946.017.054.034.111.048.163.958-.3,1.916-.609,2.809-.893-.071-.351-.13-.63-.184-.91a1.131,1.131,0,0,1,.609.4c.217.378.352.279.449-.046a1.537,1.537,0,0,0-.037-.449,1.462,1.462,0,0,1,.039-.261c.084.017.194.006.244.054.179.176.338.37.482.53.349-.23.643-.459.966-.635.564-.3,1.152-.538,1.711-.845a4.092,4.092,0,0,0,.624-.528C240.176,292.441,240,292.37,239.984,292.261Z" transform="translate(-152.521 -179.808)" fill="url(#a)"/><path d="M347.148,225.448c-.169.589-.34,1.085-.451,1.595-.163.745-.25,1.507-.426,2.252-.183.77-.434,1.528-.655,2.29-.023.075-.044.146-.071.217-.19.455-.407.906-.57,1.369s-.248.924-.39,1.381a7.665,7.665,0,0,1-.376,1.01c-.171.359-.4.691-.58,1.048a5.4,5.4,0,0,0-.34.86c-.023.079.083.2.134.3.059.119.119.232.182.349.494-.058.461-.572.62-.847a13.612,13.612,0,0,0,.768-2.049c.125-.351.263-.7.384-1.046.079-.23.142-.465.246-.8.271-.029.311-.351.372-.739a10.152,10.152,0,0,1,.426-1.532c.179-.566.423-1.115.57-1.691.171-.68.265-1.384.392-2.079.007-.037,0-.085.027-.108.5-.532.207-1.169.317-1.816C347.444,225.424,347.248,225.44,347.148,225.448Z" transform="translate(-225.621 -136.359)" fill="url(#a)"/><path d="M344.183,262.508h.021l-.01-.019-.009,0Z" transform="translate(-226.21 -160.731)" fill="url(#a)"/><path d="M324.272,273c.1.167.2.33.3.49.094,0,.232.04.267,0,.482-.612.969-1.221,1.417-1.86.34-.482.616-1.008.939-1.5.357-.549.747-1.077,1.1-1.626.244-.378.447-.783.666-1.179.251-.453.509-.9.735-1.369a13.077,13.077,0,0,1,.775-1.655,2.808,2.808,0,0,0,.63-1.749h-.565A52.6,52.6,0,0,1,324.272,273Z" transform="translate(-213.124 -160.767)" fill="url(#a)"/><path d="M89.544,317.887c-.6-.359-1.206-.707-1.768-1.117-.7-.509-1.314-1.135-2.035-1.607-.843-.553-1.477-1.352-2.381-1.849a7.491,7.491,0,0,1-1.483-1.471c-.377-.39-.787-.643-1.134-.5.077.2.11.526.291.7.816.762,1.673,1.479,2.521,2.206.874.751,1.735,1.52,2.638,2.233a22.762,22.762,0,0,0,2.015,1.394,6,6,0,0,0,1.85,1.086A.871.871,0,0,0,89.544,317.887Z" transform="translate(-53.069 -192.813)" fill="url(#a)"/><path d="M107.92,333.642l0,.016.009-.015Z" transform="translate(-70.929 -207.495)" fill="url(#a)"/><path d="M267.7,256.559c-.213.3-.372.528-.543.748-.211.271-.438.53-.649.8q-.971,1.243-1.933,2.5c-.282.365-.559.735-.841,1.1a1.1,1.1,0,0,0-.359.131c-.565.522-1.114,1.064-1.678,1.591-.369.338-.749.664-1.127.993s-.764.693-1.177.993c-.576.422-1.185.793-1.776,1.192-.63.424-1.273.837-1.882,1.288a4.069,4.069,0,0,0-.574.634.513.513,0,0,1,.4.768.972.972,0,0,0-.061.244c.6.057.912-.495,1.4-.666.63-.223.733-.739.818-1.307.083.146.079.309.154.417a.345.345,0,0,0,.319.108,5.033,5.033,0,0,0,.614-.434c-.05-.09-.125-.221-.2-.347.194-.155.357-.284.541-.428.246.6.351.123.582-.027a7.041,7.041,0,0,0,1.728-1.426c.274-.344.522-.778,1.108-.749.142,0,.3-.334.449-.522.192-.234.334-.606.574-.682.522-.169.522-.5.484-.917-.019-.2-.025-.413-.036-.622.186.207.372.413.611.685.288-.365.611-.768.933-1.175-.037-.037-.079-.077-.117-.117.183-.023.369-.039.474-.054a3,3,0,0,1,.547-.822c.372-.263.332-.457-.023-.774a1.2,1.2,0,0,0,1.309-.662c.108-.178.271-.323.363-.507.144-.288.415-.655.334-.881A4.716,4.716,0,0,0,267.7,256.559Z" transform="translate(-167.7 -156.833)" fill="url(#a)"/><path d="M141.067,349.492l.011-.013h-.011Z" transform="translate(-92.716 -217.903)" fill="url(#a)"/><path d="M121.608,339.044c-.512-.161-1.043-.274-1.564-.411a.545.545,0,0,1-.143-.079,9.235,9.235,0,0,0-.93-.559c-.594-.269-1.218-.474-1.809-.748-.663-.309-1.313-.651-1.953-1-.31-.167-.579-.418-.891-.58-.4-.2-.819-.353-1.33-.568.053.394-.214.659.265.85.692.274,1.332.678,2,1.016.7.355,1.4.693,2.1,1.04.263.129.524.267.789.4.4.2.788.409,1.194.589a9.57,9.57,0,0,0,1.507.595c.585.14,1.086.645,1.755.445V339.5A9.094,9.094,0,0,0,121.608,339.044Z" transform="translate(-74.243 -208.451)" fill="url(#a)"/><path d="M309.54,295.291a6.435,6.435,0,0,0-.739.572c-.156.167-.229.42-.39.584-.616.637-1.248,1.256-1.876,1.878-1.017,1.014-2.041,2.016-3.037,3.047a3.84,3.84,0,0,0-.478.816l.2.192a2.441,2.441,0,0,0,.545-.279c.658-.586,1.319-1.169,1.935-1.795.966-.977,1.905-1.98,2.841-2.987a11.325,11.325,0,0,0,1.313-1.561c.265-.415.918-.639.743-1.3C309.9,294.372,309.732,294.527,309.54,295.291Z" transform="translate(-199.157 -181.727)" fill="url(#a)"/><rect width="0.015" height="0.013" transform="translate(111.434 112.72)" fill="url(#a)"/><path d="M152.671,301.6c-.339-.115-.679-.228-.959-.324-.173.564-.3.971-.409,1.328l.975.319c.314-.036.487-.052.661-.071.043.614.528.47.9.528.389.063.808.226,1.014-.509.108.413.169.643.257.979a3.437,3.437,0,0,1,.239-.319,2.789,2.789,0,0,1,.263-.2c.069.28.12.5.173.718.057-.008.118-.012.175-.017v-1.542c-.724-.173-1.421-.323-2.109-.507C153.45,301.883,153.063,301.733,152.671,301.6Z" transform="translate(-99.443 -186.224)" fill="url(#a)"/><path d="M170.283,303.107c1.7.14,3.412.219,5.115.347a1.037,1.037,0,0,0,1.05-.538c-.171-.027-.293-.052-.416-.065-1.855-.163-3.732.213-5.579-.33-.773-.225-1.628.025-2.439-.338a6.563,6.563,0,0,0-1.789-.253v.365c.648.169,1.244.355,1.853.476A19.091,19.091,0,0,0,170.283,303.107Z" transform="translate(-109.25 -186.652)" fill="url(#a)"/><path d="M260.79,337.026a11.583,11.583,0,0,0,1.457-.536c.6-.267,1.183-.564,1.759-.87a8.268,8.268,0,0,1,1.622-.822,7.516,7.516,0,0,0,1.745-1.088v-.622l-7.147,3.736A.69.69,0,0,0,260.79,337.026Z" transform="translate(-171.031 -207.131)" fill="url(#a)"/><path d="M142.915,294.473c.4.142.818.23,1.206.395.7.3,1.362.682,2.068.952.723.276,1.48.468,2.227.674a1.607,1.607,0,0,0,.52-.019c.02-.077.039-.152.057-.228-.337-.131-.669-.275-1.01-.392-.464-.154-.944-.263-1.4-.43s-.914-.405-1.387-.57c-.455-.161-.936-.246-1.393-.4a6.934,6.934,0,0,1-.954-.443c-.557-.284-1.071-.718-1.765-.507a5.01,5.01,0,0,0,.686.491A9.516,9.516,0,0,0,142.915,294.473Z" transform="translate(-92.724 -181.077)" fill="url(#a)"/><path d="M141.027,293.6l-.02-.013-.01.017A.154.154,0,0,1,141.027,293.6Z" transform="translate(-92.67 -181.169)" fill="url(#a)"/><path d="M262.235,283.619a.175.175,0,0,1-.023.012.107.107,0,0,0,.036,0Z" transform="translate(-172.336 -174.618)" fill="url(#a)"/><rect width="0.017" height="0.014" transform="translate(82.293 113.063)" fill="url(#a)"/><path d="M243.369,286.362c.716-.39,1.461-.72,2.166-1.127a15.252,15.252,0,0,0,1.3-.937c.286-.209.572-.422.856-.63a3.958,3.958,0,0,0-.822.159,6.331,6.331,0,0,0-.764.455c-.488.276-.993.518-1.474.806-.877.522-1.722,1.093-2.615,1.582-.57.313-1.2.505-1.8.772-.06.027-.066.173-.1.274a10.814,10.814,0,0,0,1.649-.426C242.336,287.049,242.828,286.655,243.369,286.362Z" transform="translate(-157.82 -174.65)" fill="url(#a)"/><path d="M224.485,302.866a.671.671,0,0,0-.292.956.724.724,0,0,0,.6.3,5.119,5.119,0,0,0,1.1-.328c.336-.114.668-.249.944-.352-.182-.388-.3-.653-.476-1.025A16.649,16.649,0,0,0,224.485,302.866Z" transform="translate(-147.295 -186.973)" fill="url(#a)"/><path d="M284.6,326.653c-.672.359-1.269.85-1.924,1.244-.576.35-.67.543-.445,1.239a4.911,4.911,0,0,1,.614-.618,7.414,7.414,0,0,1,.758-.342,4.5,4.5,0,0,0,.47-.319c.589-.394,1.177-.785,1.766-1.177-.029-.075-.058-.15-.085-.226A3.742,3.742,0,0,0,284.6,326.653Z" transform="translate(-185.422 -202.771)" fill="url(#a)"/><path d="M129.023,286.432c-.01,0-.021,0-.033-.006a.215.215,0,0,1,.016.023Z" transform="translate(-84.778 -176.463)" fill="url(#a)"/><path d="M115.053,275.478l-.013.013h.01Z" transform="translate(-75.61 -169.267)" fill="url(#a)"/><path d="M115.068,275.733c.624.509,1.259,1,1.891,1.5a22.083,22.083,0,0,1,2.176,1.749c.255.255.464.18.691.232a6.409,6.409,0,0,0-.825-.977c-.832-.678-1.695-1.325-2.576-1.943-.433-.307-.667-.968-1.369-.82C115.052,275.566,115.023,275.7,115.068,275.733Z" transform="translate(-75.612 -169.251)" fill="url(#a)"/><path d="M279.833,258.682c.434-.459.843-.948,1.25-1.436.609-.73,1.219-1.461,1.8-2.216.09-.117.014-.359.017-.543-.086,0-.211-.036-.253.008-.244.267-.482.543-.7.833-.551.728-1.073,1.48-1.636,2.2-.347.443-.743.849-1.117,1.273.033.063.066.128.1.19A2.025,2.025,0,0,0,279.833,258.682Z" transform="translate(-183.493 -155.462)" fill="url(#a)"/><path d="M268.1,278.443l-.023.009-.01.023.023-.01Z" transform="translate(-176.186 -171.216)" fill="url(#a)"/><path d="M270.094,270.494c.6-.586,1.169-1.2,1.751-1.8-.048-.073-.092-.148-.14-.221a2.591,2.591,0,0,0-.468.278c-.9.828-1.807,1.661-2.686,2.511a2.824,2.824,0,0,0-.386.635,2.788,2.788,0,0,0,.659-.288A15.542,15.542,0,0,0,270.094,270.494Z" transform="translate(-176.249 -164.661)" fill="url(#a)"/><path d="M129.055,286.444l-.017.017h.03Z" transform="translate(-84.81 -176.475)" fill="url(#a)"/><path d="M140.988,293.565l-.021-.008.011.025Z" transform="translate(-92.65 -181.149)" fill="url(#a)"/><path d="M131.135,287.907a6.423,6.423,0,0,0,2.052,1c-.135-.693-.816-.735-1.274-1.037s-.957-.545-1.426-.837a2.07,2.07,0,0,0-1.361-.543,2.648,2.648,0,0,0,.536.635C130.13,287.417,130.678,287.594,131.135,287.907Z" transform="translate(-84.868 -176.498)" fill="url(#a)"/><path d="M221.728,298.875c.509-.121.971-.468,1.48-.551a1,1,0,0,0,.9-.635,1.64,1.64,0,0,0-.511.008c-.793.294-1.57.655-2.377.906a20.075,20.075,0,0,1-1.987.409c-.059.012-.111.071-.209.132.094.073.154.157.2.148C220.066,299.166,220.907,299.066,221.728,298.875Z" transform="translate(-143.954 -183.854)" fill="url(#a)"/><path d="M209.367,302.577a1.935,1.935,0,0,0-.474-.05,5,5,0,0,1-1.365.3,9.617,9.617,0,0,0-2.3.455c-.013,0-.017.066-.026.1A8.226,8.226,0,0,0,209.367,302.577Z" transform="translate(-134.867 -187.041)" fill="url(#a)"/><path d="M264.125,278.534a3.2,3.2,0,0,0-.662.249,7.422,7.422,0,0,1-1.012.726c-.438.179-.44.418-.3.758.557-.424,1.123-.841,1.668-1.282A1.865,1.865,0,0,0,264.125,278.534Z" transform="translate(-172.241 -171.276)" fill="url(#a)"/><path d="M262.272,283.595l.015.013-.007-.019Z" transform="translate(-172.376 -174.598)" fill="url(#a)"/><path d="M150.089,260.514V259.47c-.229.029-.562.031-.569.075-.069.5-.428.213-.656.276-.273.073-.677-.15-.782.319.408.044.814.088,1.277.136C149.567,259.789,149.793,260.332,150.089,260.514Z" transform="translate(-97.326 -158.746)" fill="url(#a)"/><path d="M148.018,261.424l.013.013.007-.01Z" transform="translate(-97.284 -160.031)" fill="url(#a)"/><path d="M107.918,333.662l.018-.011-.006,0Z" transform="translate(-70.929 -207.498)" fill="url(#a)"/><path d="M108.739,332.729c-.2-.376-.323-.269-.5,0-.053.08-.175.111-.271.161.425.34.85.68,1.273,1.023.047-.037.094-.075.144-.11-.018-.307-.035-.616-.05-.879C109.077,332.846,108.8,332.846,108.739,332.729Z" transform="translate(-70.959 -206.735)" fill="url(#a)"/><path d="M299.142,318.315c.628.43.968.017,1.323-.342-.148-.165-.3-.328-.5-.547C299.683,317.735,299.424,318.015,299.142,318.315Z" transform="translate(-196.608 -196.837)" fill="url(#a)"/><path d="M294.1,247.367c0,.01,0,.023,0,.036a.111.111,0,0,1,.017-.017l-.008-.01.008.008a.111.111,0,0,0,.008-.025c-.01,0-.015.01-.027.008Z" transform="translate(-193.294 -150.787)" fill="url(#a)"/><path d="M237.631,295.564a.08.08,0,0,0-.013-.04c-.424.115-.847.225-1.264.359-.029.01-.044.256,0,.29C236.571,296.321,237.558,295.839,237.631,295.564Z" transform="translate(-155.324 -182.442)" fill="url(#a)"/><path d="M141.239,296.346c-.053.029-.107.063-.16.1.025.313.049.626.074.939.054.014.107.033.161.046.139-.175.408-.376.383-.521C141.658,296.7,141.4,296.53,141.239,296.346Z" transform="translate(-92.724 -182.983)" fill="url(#a)"/><path d="M265.447,225.683a.254.254,0,0,0-.188-.142.238.238,0,0,0-.163.169c-.021.257-.01.516-.01.824.25-.021.428-.038.649-.055C265.618,226.15,265.545,225.912,265.447,225.683Z" transform="translate(-174.223 -136.447)" fill="url(#a)"/><path d="M289.673,249.448c.747.161.916-.088.845-.593a1.438,1.438,0,0,0,.319-.121c.455-.319.372-.793.353-1.248a1.442,1.442,0,0,0-.678,1.327C290.27,249,290.024,249.185,289.673,249.448Z" transform="translate(-190.385 -150.87)" fill="url(#a)"/><path d="M77.134,308.331l.353-.025c-.015-.054-.029-.108-.045-.158C77.34,308.2,77.238,308.268,77.134,308.331Z" transform="translate(-50.697 -190.739)" fill="url(#a)"/><path d="M78.335,309.178c.033,0,.063,0,.094,0v-.626c-.1.008-.178.013-.265.021C78.22,308.771,78.277,308.974,78.335,309.178Z" transform="translate(-51.374 -191.002)" fill="url(#a)"/><path d="M331.46,139.792c.129.434.23.876.376,1.3.063.184.246.327.294.51.146.543.223,1.1.386,1.639.173.573.423,1.12.614,1.688.152.468.263.949.405,1.455a2.866,2.866,0,0,0,.589-.388c.367-.44.91-.868,1.006-1.372a5.945,5.945,0,0,0-.526-3.6,8.26,8.26,0,0,0-.77-1.722A3.135,3.135,0,0,0,332.041,138a2.7,2.7,0,0,0-.973.178,7.641,7.641,0,0,0,.119.816C331.253,139.264,331.379,139.523,331.46,139.792Zm1.44.114.15-.02c.036.317.071.631.108.948l-.259.025C332.9,140.541,332.9,140.224,332.9,139.906Z" transform="translate(-217.591 -78.9)" fill="url(#a)"/><path d="M121.979,203.439c.053-.184.107-.367.165-.547.01-.029.045-.052.1-.115.118.1.231.2.344.3.59-.267.512-.762.53-1.225a1.5,1.5,0,0,0-.934-1.421c-.734-.271-1.2.046-1.1.8a9.484,9.484,0,0,0,.4,1.7C121.549,203.132,121.808,203.271,121.979,203.439Z" transform="translate(-79.576 -119.88)" fill="url(#a)"/></g></g></svg>