<svg xmlns="http://www.w3.org/2000/svg" width="47.2" height="47.2" viewBox="0 0 47.2 47.2"><circle cx="23.6" cy="23.6" r="23.6" transform="translate(0 0)" fill="#4cf0cc"/><path d="M188.8,172.1l12.135,12.135a23.585,23.585,0,0,0,17.5-22.781v-.67L208.9,152Z" transform="translate(-171.23 -137.855)" fill="#0bc49b"/><g transform="translate(7.929 11.651)"><path d="M101.467,209.911a2.787,2.787,0,0,1,0,3.871l-2.159,2.159a2.787,2.787,0,0,1-3.871,0l-9.455-9.529a2.787,2.787,0,0,1,0-3.871l2.159-2.159a2.787,2.787,0,0,1,3.871,0Z" transform="translate(-85.2 -192.676)" fill="#fff"/><path d="M181.56,125.982a2.787,2.787,0,0,1,3.871,0l2.159,2.159a2.787,2.787,0,0,1,0,3.871l-16.379,16.3a2.787,2.787,0,0,1-3.871,0l-2.159-2.159a2.787,2.787,0,0,1,0-3.871Z" transform="translate(-157.03 -125.2)" fill="#fff"/></g></svg>