<svg id="Filled_Outline" height="512" viewBox="0 0 64 64" width="512" xmlns="http://www.w3.org/2000/svg" data-name="Filled Outline"><path d="m47.827 38.046-8.185-3.093a3.977 3.977 0 0 1 -1.325-.81 7.568 7.568 0 0 1 -6.317 2.857 7.568 7.568 0 0 1 -6.317-2.857 3.977 3.977 0 0 1 -1.325.81l-8.185 3.093a8 8 0 0 0 -5.173 7.483v16.471h42v-16.471a8 8 0 0 0 -5.173-7.483z" fill="#00acc0"/><path d="m32 39c2.791 0 5.193-3.169 6.317-4.857a3.994 3.994 0 0 1 -1.317-2.952v-4.191h-10v4.191a3.994 3.994 0 0 1 -1.317 2.952c1.124 1.688 3.526 4.857 6.317 4.857z" fill="#f4cda5"/><path d="m26.358 34.953a4 4 0 0 0 2.642-3.762v-4.191h-2v4.191a3.99 3.99 0 0 1 -1.328 2.961l.507.869z" fill="#fadcb4"/><path d="m14 45.529a7.906 7.906 0 0 1 5-7.529l-1.827.046c-3.113 1.176-6.173 4.626-6.173 9.954v14h3z" fill="#25c6da"/><rect fill="#f4cda5" height="6" rx="3" width="26" x="19" y="16"/><path d="m42 14v6.2c0 5.94-6.67 10.8-10 10.8-1.66 0-4.16-1.22-6.25-3.17a10.853 10.853 0 0 1 -3.75-7.63v-6.2c10-1 14-6 14-6a14.934 14.934 0 0 0 6 6z" fill="#fadcb4"/><path d="m24 20v-5.269c-.64.106-1.3.2-2 .269v5.2a10.853 10.853 0 0 0 3.75 7.63c2.09 1.95 4.59 3.17 6.25 3.17a11.106 11.106 0 0 1 -8-11z" fill="#f9e5cf"/><path d="m27 21c-1.1 0-2-.673-2-1.5s.9-1.5 2-1.5 2 .673 2 1.5-.9 1.5-2 1.5z" fill="#754c24"/><path d="m37 21c-1.1 0-2-.673-2-1.5s.9-1.5 2-1.5 2 .673 2 1.5-.9 1.5-2 1.5z" fill="#754c24"/><path d="m32 3c-6.075 0-11 4.029-11 9v2a4 4 0 0 0 4 4h14a4 4 0 0 0 4-4v-2c0-4.971-4.925-9-11-9z" fill="#424242"/><circle cx="32" cy="54" fill="#757575" r="3"/><path d="m11 53h8v9h-8z" fill="#f4cda5"/><path d="m45 53h8v9h-8z" fill="#f4cda5"/><path d="m12 54h2v8h-2z" fill="#fadcb4"/><path d="m48.181 37.11-8.2-3.1a3.008 3.008 0 0 1 -1.981-2.819v-1.829a13.469 13.469 0 0 0 4.556-6.362h.444a3.99 3.99 0 0 0 1-7.855v-3.145c0-5.514-5.383-10-12-10s-12 4.486-12 10v3.142a3.992 3.992 0 0 0 1 7.858h.444a13.469 13.469 0 0 0 4.556 6.362v1.829a3.013 3.013 0 0 1 -2 2.827l-8.181 3.092a9.045 9.045 0 0 0 -5.819 8.419v16.471h2v-8h5.008a7.961 7.961 0 0 0 1.992 5.373v2.627h2v-3a1 1 0 0 0 -.257-.669c-3.828-4.254-.156-8.486 0-8.662a1 1 0 0 0 .257-.669v-3h-2v2.633a9.437 9.437 0 0 0 -1.7 3.367h-5.3v-6.471a7.035 7.035 0 0 1 4.526-6.548l5.487-2.073 8.393 13.428a4 4 0 0 0 1.594 7.664 3.959 3.959 0 0 0 2-.556v4.556h2v-8a4 4 0 0 0 -2.406-3.664l8.393-13.428 5.487 2.073a7.035 7.035 0 0 1 4.526 6.548v6.471h-5.3a9.437 9.437 0 0 0 -1.7-3.367v-2.633h-2v3a1 1 0 0 0 .257.669c.159.177 3.853 4.38 0 8.662a1 1 0 0 0 -.257.669v3h2v-2.627a7.961 7.961 0 0 0 1.992-5.373h5.008v8h2v-16.471a9.045 9.045 0 0 0 -5.819-8.419zm-23.181-20.11a3.006 3.006 0 0 1 -2.829-2h19.658a3.006 3.006 0 0 1 -2.829 2zm20 2a2 2 0 0 1 -2 2h-.054c.023-.265.054-.529.054-.8v-3.2a2 2 0 0 1 2 2zm-23-7c0-4.411 4.486-8 10-8s10 3.589 10 8v1h-20zm-1 9a2 2 0 0 1 0-4v3.2c0 .271.031.535.054.8zm2-.8v-1.624a4.95 4.95 0 0 0 2 .424h.278a1.978 1.978 0 0 0 -.278 1 2 2 0 0 0 4 0 1.978 1.978 0 0 0 -.278-1h6.556a1.978 1.978 0 0 0 -.278 1 2 2 0 0 0 4 0 1.978 1.978 0 0 0 -.278-1h.278a4.95 4.95 0 0 0 2-.424v1.624c0 5.264-6.037 9.8-9 9.8s-9-4.536-9-9.8zm9 11.8a8.777 8.777 0 0 0 4-1.293v.484a5 5 0 0 0 .981 2.959c-.101 2.135-2.288 3.85-4.981 3.85s-4.881-1.716-4.981-3.851a4.99 4.99 0 0 0 .981-2.958v-.484a8.777 8.777 0 0 0 4 1.293zm0 24a2 2 0 1 1 2-2 2 2 0 0 1 -2 2zm0-6.887-8.079-12.926.776-.293a4.952 4.952 0 0 0 .574-.259 6.933 6.933 0 0 0 6.729 4.365 6.932 6.932 0 0 0 6.729-4.365 4.794 4.794 0 0 0 .56.254l.79.3z"/><path d="m35.626 25.779-1.252-1.558a4.021 4.021 0 0 1 -4.748 0l-1.252 1.558a5.971 5.971 0 0 0 7.252 0z"/></svg>