<svg xmlns="http://www.w3.org/2000/svg" xmlns:xlink="http://www.w3.org/1999/xlink" width="510.531" height="399.444" viewBox="0 0 510.531 399.444"><defs><clipPath id="a"><path d="M480.137-210.811l58.712-58.712v1.7l-56.973,56.973q-.868.028-1.739.035" transform="translate(-480.137 269.523)"/></clipPath><clipPath id="b"><path d="M480.137-210.811h58.712v-58.712H480.137Z" transform="translate(-480.137 269.523)"/></clipPath><linearGradient id="c" x1="-8.166" y1="4.585" x2="-8.163" y2="4.585" gradientUnits="objectBoundingBox"><stop offset="0" stop-color="#dcd7f5"/><stop offset="1" stop-color="#e9f3fe"/></linearGradient><clipPath id="d"><path d="M473.6-211.087q-.774-.07-1.545-.159l66.8-66.8v1.7L473.6-211.087" transform="translate(-472.051 278.045)"/></clipPath><linearGradient id="e" x1="-7.067" y1="4.153" x2="-7.065" y2="4.153" xlink:href="#c"/><clipPath id="f"><path d="M519.46-316.861c.232-.669.528-1.453.9-2.341l6.195-6.2c.144.141.289.279.432.421s.28.288.42.432l-7.643,7.643-.305.041" transform="translate(-519.46 325.398)"/></clipPath><linearGradient id="g" x1="-65.357" y1="38.115" x2="-65.341" y2="38.115" gradientUnits="objectBoundingBox"><stop offset="0" stop-color="#eedff4"/><stop offset="1" stop-color="#fdfdfd"/></linearGradient><clipPath id="h"><path d="M432.838-229.974c-.143-.141-.288-.279-.431-.421s-.28-.288-.421-.431l62.431-62.431q.23.62.477,1.227l-62.056,62.056m86.485-86.485c.043-.128.089-.263.137-.4l.305-.041-.443.443" transform="translate(-431.986 316.902)"/></clipPath><linearGradient id="i" x1="-4.921" y1="3.646" x2="-4.92" y2="3.646" xlink:href="#c"/><clipPath id="j"><path d="M489.351-211.5l49.5-49.5v1.7l-47.464,47.464c-.677.12-1.355.232-2.035.331" transform="translate(-489.351 261.002)"/></clipPath><linearGradient id="k" x1="-9.886" y1="5.273" x2="-9.883" y2="5.273" xlink:href="#c"/><clipPath id="l"><path d="M466.174-212.186c-.467-.1-.935-.2-1.4-.3l74.076-74.076v1.7l-72.676,72.674" transform="translate(-464.774 286.565)"/></clipPath><linearGradient id="m" x1="-6.274" y1="3.853" x2="-6.272" y2="3.853" xlink:href="#c"/><clipPath id="n"><path d="M517.172-222.283,535.1-240.21a67.226,67.226,0,0,1-8.111,9.815,67.258,67.258,0,0,1-9.816,8.112" transform="translate(-517.172 240.21)"/></clipPath><linearGradient id="o" x1="-28.849" y1="13.4" x2="-28.842" y2="13.4" xlink:href="#c"/><clipPath id="p"><path d="M459.414-213.946q-.642-.2-1.281-.423l80.717-80.717v1.7l-79.436,79.436" transform="translate(-458.132 295.086)"/></clipPath><linearGradient id="q" x1="-5.676" y1="3.637" x2="-5.674" y2="3.637" xlink:href="#c"/><clipPath id="r"><path d="M527.779-318.1l2.888-2.888q.394.462.777.928l-1.6,1.6q-1.02.184-2.061.357" transform="translate(-527.779 320.987)"/></clipPath><linearGradient id="s" x1="-143.992" y1="111.146" x2="-143.956" y2="111.146" xlink:href="#g"/><clipPath id="t"><path d="M437.324-225.939c-.312-.256-.62-.515-.928-.777l60.689-60.689q.3.554.613,1.092l-60.375,60.375M523.8-312.418q-.584-.248-1.215-.491l5.191-5.191q1.04-.174,2.061-.357l-6.037,6.039" transform="translate(-436.396 318.457)"/></clipPath><linearGradient id="u" x1="-4.67" y1="3.442" x2="-4.669" y2="3.442" xlink:href="#c"/><clipPath id="v"><path d="M442.2-222.3q-.506-.344-1.009-.7l59.186-59.187c.108.148.216.3.324.44a5.542,5.542,0,0,0,.1.837L442.2-222.3m87.158-87.16c-.139-.093-.283-.188-.435-.285l-.563-.421,6.025-6.025c.236.333.468.671.7,1.008l-5.724,5.724" transform="translate(-441.194 316.188)"/></clipPath><linearGradient id="w" x1="-4.699" y1="3.368" x2="-4.698" y2="3.368" xlink:href="#c"/><clipPath id="x"><path d="M447.486-219.059q-.548-.3-1.089-.615l57.72-57.72.973.729-57.6,57.605m85.024-85.024a7.335,7.335,0,0,0-.019-1.685l5.219-5.219q.312.542.615,1.089l-5.815,5.815" transform="translate(-446.396 310.987)"/></clipPath><linearGradient id="y" x1="-4.856" y1="3.383" x2="-4.854" y2="3.383" xlink:href="#c"/><clipPath id="z"><path d="M453.207-216.259q-.592-.256-1.18-.525l59.184-59.182a23.171,23.171,0,0,0,4.631-2.927l-62.635,62.635m70.18-70.181q.456-.556.908-1.135a58.567,58.567,0,0,0,3.475-4.952l11.08-11.08v1.7l-15.463,15.463" transform="translate(-452.027 303.607)"/></clipPath><linearGradient id="aa" x1="-5.206" y1="3.476" x2="-5.205" y2="3.476" xlink:href="#c"/><clipPath id="ab"><path d="M500.469-214.1l38.38-38.38v1.7l-35.761,35.761q-1.3.486-2.619.915" transform="translate(-500.469 252.482)"/></clipPath><linearGradient id="ac" x1="-13.04" y1="6.578" x2="-13.036" y2="6.578" xlink:href="#c"/><clipPath id="ad"><path d="M479.3-312.223l23.215-23.213c-.827,1.335-1.636,2.708-2.416,4.12l-18.836,18.835c-.652.085-1.311.171-1.963.259" transform="translate(-479.299 335.436)"/></clipPath><linearGradient id="ae" x1="-20.646" y1="14.45" x2="-20.641" y2="14.45" xlink:href="#g"/><clipPath id="af"><path d="M418.8-250.015q-.268-.588-.525-1.18L479.3-312.223c.652-.088,1.311-.173,1.963-.259L418.8-250.015" transform="translate(-418.271 312.482)"/></clipPath><linearGradient id="ag" x1="-6.64" y1="5.002" x2="-6.638" y2="5.002" xlink:href="#c"/><clipPath id="ah"><path d="M489.019-313.422l5.595-5.595q-.406,1.222-.755,2.459l-2.917,2.917q-.96.108-1.923.219" transform="translate(-489.019 319.017)"/></clipPath><linearGradient id="ai" x1="-87.408" y1="57.022" x2="-87.384" y2="57.022" xlink:href="#g"/><clipPath id="aj"><path d="M421.686-244.385c-.208-.361-.415-.724-.615-1.089l67.948-67.948q.962-.112,1.923-.219l-69.256,69.256" transform="translate(-421.071 313.641)"/></clipPath><linearGradient id="ak" x1="-6.026" y1="4.529" x2="-6.025" y2="4.529" xlink:href="#c"/><clipPath id="al"><path d="M425-239.183c-.236-.333-.467-.671-.7-1.008l67.973-67.972c-.053.605-.093,1.215-.117,1.821L425-239.183" transform="translate(-424.308 308.163)"/></clipPath><linearGradient id="am" x1="-6.242" y1="4.467" x2="-6.24" y2="4.467" xlink:href="#c"/><clipPath id="an"><path d="M428.727-234.385q-.392-.462-.776-.928l64.64-64.64q.124.718.276,1.428l-64.14,64.14" transform="translate(-427.951 299.953)"/></clipPath><linearGradient id="ao" x1="-6.592" y1="4.575" x2="-6.59" y2="4.575" xlink:href="#c"/><clipPath id="ap"><path d="M413.515-287.339c.1-.68.212-1.357.331-2.035l54.164-54.164c.677-.119,1.355-.232,2.035-.331l-56.529,56.529" transform="translate(-413.515 343.868)"/></clipPath><linearGradient id="aq" x1="-7.315" y1="6.083" x2="-7.313" y2="6.083" xlink:href="#g"/><clipPath id="ar"><path d="M424.295-315.161a67.178,67.178,0,0,1,8.112-9.816,67.251,67.251,0,0,1,9.815-8.112l-17.927,17.928" transform="translate(-424.295 333.089)"/></clipPath><linearGradient id="as" x1="-23.668" y1="18.579" x2="-23.661" y2="18.579" xlink:href="#g"/><clipPath id="at"><path d="M469.283-310.727l30.7-30.7q.642.2,1.281.423l-29.944,29.944c-.683.108-1.357.219-2.036.332" transform="translate(-469.283 341.426)"/></clipPath><linearGradient id="au" x1="-14.674" y1="11.122" x2="-14.67" y2="11.122" xlink:href="#g"/><clipPath id="av"><path d="M416.379-256.121c-.144-.425-.287-.853-.421-1.281l53.325-53.325c.679-.113,1.353-.224,2.036-.332l-54.94,54.939" transform="translate(-415.958 311.059)"/></clipPath><linearGradient id="aw" x1="-7.514" y1="5.662" x2="-7.511" y2="5.662" xlink:href="#c"/><clipPath id="ax"><path d="M433.384-300.391l44.133-44.135q.87-.028,1.739-.035l-42.737,42.739q-1.592.688-3.135,1.431" transform="translate(-433.384 344.56)"/></clipPath><linearGradient id="ay" x1="-9.448" y1="7.801" x2="-9.445" y2="7.801" xlink:href="#g"/><clipPath id="az"><path d="M412.823-278.127q.006-.868.035-1.739l20.527-20.525q1.54-.742,3.135-1.431l-23.7,23.695" transform="translate(-412.823 301.822)"/></clipPath><linearGradient id="ba" x1="-17.422" y1="12.738" x2="-17.416" y2="12.738" xlink:href="#c"/><clipPath id="bb"><path d="M416.112-298.458q.43-1.318.915-2.619l39.28-39.279q1.3-.486,2.619-.915l-42.813,42.812" transform="translate(-416.112 341.27)"/></clipPath><linearGradient id="bc" x1="-9.719" y1="7.971" x2="-9.716" y2="7.971" xlink:href="#g"/><clipPath id="bd"><path d="M458.744-308.71l34.476-34.476q.7.144,1.4.3L460.91-309.171c-.725.151-1.445.3-2.165.461" transform="translate(-458.744 343.186)"/></clipPath><linearGradient id="be" x1="-12.786" y1="9.954" x2="-12.783" y2="9.954" xlink:href="#g"/><clipPath id="bf"><path d="M414.5-262.762q-.16-.7-.3-1.4l44.547-44.547c.72-.157,1.44-.311,2.165-.461L414.5-262.762" transform="translate(-414.198 309.171)"/></clipPath><linearGradient id="bg" x1="-8.867" y1="6.662" x2="-8.864" y2="6.662" xlink:href="#c"/><clipPath id="bh"><path d="M447.238-305.725l38.561-38.56c.515.047,1.031.1,1.544.159l-37.688,37.689q-1.218.346-2.417.712" transform="translate(-447.238 344.284)"/></clipPath><linearGradient id="bi" x1="-11.152" y1="8.929" x2="-11.148" y2="8.929" xlink:href="#g"/><clipPath id="bj"><path d="M413.258-270.039q-.088-.772-.16-1.545l34.14-34.14q1.2-.366,2.417-.712l-36.4,36.4" transform="translate(-413.098 306.437)"/></clipPath><linearGradient id="bk" x1="-11.3" y1="8.419" x2="-11.296" y2="8.419" xlink:href="#c"/><clipPath id="bl"><path d="M664-229.863h-2.608l-35.477-35.477-19.952-19.952h113.47l-19.387,19.384h0L664-229.863m56.567-56.563H604.829l-37.3-37.3v-21.008a3.466,3.466,0,0,0,2.5.828c3.9,0,10.687-3.524,17.216-9.259a44.837,44.837,0,0,0,10.023-11.961h139.29v-1.133H597.815c1.057-2.425,1.208-4.392.225-5.511h0l-.06-.065-3.759-4.119a3.125,3.125,0,0,0-2.227-.944c-5.777-3.968-14.184-7.715-22.755-7.715q-.856,0-1.711.051V-410.92a16.445,16.445,0,0,1,16.445-16.445h160.7a16.445,16.445,0,0,1,16.444,16.445v83.942l-24.587,24.585H592.088v1.133H735.4l-14.835,14.833M592.088-318.359v1.133H736.562v-1.133H592.088m0-15.967v1.133H736.562v-1.133H592.088m0-15.967v1.133H736.562v-1.133H592.088m0-31.933v1.133H736.562v-1.133H592.088m0-15.967v1.133H736.562v-1.133H592.088" transform="translate(-567.529 427.366)"/></clipPath><linearGradient id="bm" x1="-2.932" y1="2.164" x2="-2.931" y2="2.164" gradientUnits="objectBoundingBox"><stop offset="0" stop-color="#cac7c2"/><stop offset="0.477" stop-color="#fbfbfb"/><stop offset="1" stop-color="#fbfbfb"/></linearGradient><clipPath id="bn"><path d="M592.088-397.059H736.562v-1.133H592.088Z" transform="translate(-592.088 398.192)"/></clipPath><linearGradient id="bo" x1="-4.098" y1="351.347" x2="-4.097" y2="351.347" gradientUnits="objectBoundingBox"><stop offset="0" stop-color="#b2b1af"/><stop offset="1" stop-color="#dddfe2"/></linearGradient><clipPath id="bp"><path d="M592.088-381.092H736.562v-1.133H592.088Z" transform="translate(-592.088 382.226)"/></clipPath><linearGradient id="bq" x1="-4.098" y1="337.259" x2="-4.097" y2="337.259" xlink:href="#bo"/><clipPath id="br"><path d="M736.562-365.126H597.272q.3-.582.543-1.133H736.562v1.133" transform="translate(-597.272 366.259)"/></clipPath><linearGradient id="bs" x1="-4.288" y1="323.171" x2="-4.287" y2="323.171" xlink:href="#bo"/><clipPath id="bt"><path d="M592.088-349.159H736.562v-1.133H592.088Z" transform="translate(-592.088 350.292)"/></clipPath><linearGradient id="bu" x1="-4.098" y1="309.082" x2="-4.097" y2="309.082" xlink:href="#bo"/><clipPath id="bv"><path d="M592.088-333.193H736.562v-1.133H592.088Z" transform="translate(-592.088 334.326)"/></clipPath><linearGradient id="bw" x1="-4.098" y1="294.994" x2="-4.097" y2="294.994" xlink:href="#bo"/><clipPath id="bx"><path d="M592.088-317.226H736.562v-1.133H592.088Z" transform="translate(-592.088 318.359)"/></clipPath><linearGradient id="by" x1="-4.098" y1="280.906" x2="-4.097" y2="280.906" xlink:href="#bo"/><clipPath id="bz"><path d="M735.4-301.259H592.088v-1.133H736.534l-1.133,1.133" transform="translate(-592.088 302.393)"/></clipPath><linearGradient id="ca" x1="-4.099" y1="266.818" x2="-4.098" y2="266.818" xlink:href="#bo"/><clipPath id="cb"><path d="M719.433-285.293H605.962l-1.133-1.133H720.566l-1.133,1.133" transform="translate(-604.829 286.426)"/></clipPath><linearGradient id="cc" x1="-5.226" y1="252.729" x2="-5.225" y2="252.729" xlink:href="#bo"/><clipPath id="cd"><path d="M661.392-229.863h0l-35.477-35.477h0l35.477,35.477" transform="translate(-625.914 265.341)"/></clipPath><linearGradient id="ce" x1="-17.643" y1="7.479" x2="-17.639" y2="7.479" gradientUnits="objectBoundingBox"><stop offset="0" stop-color="#b7b4af"/><stop offset="1" stop-color="#e3e3e2"/></linearGradient><clipPath id="cf"><path d="M506.073-275.971l-.1-.1a1.656,1.656,0,0,1-.371-.495,2.346,2.346,0,0,1-.337-.785,7.052,7.052,0,0,1-.227-2.283,14.044,14.044,0,0,1,.5-2.921,26.291,26.291,0,0,1,1.133-3.3,33.06,33.06,0,0,1,1.664-3.517c.644-1.184,1.352-2.384,2.131-3.565s1.62-2.332,2.5-3.492c.881-1.1,1.807-2.2,2.765-3.26s1.948-2.021,2.939-2.935a33.009,33.009,0,0,1,3.007-2.469A26.356,26.356,0,0,1,524.6-307a13.954,13.954,0,0,1,2.713-1.192,7.961,7.961,0,0,1,2.013-.344c.087,0,.173,0,.256.009a2.353,2.353,0,0,1,.84.135,1.682,1.682,0,0,1,.573.24l.119.079a3.007,3.007,0,0,0-1.476-.344c-3.731,0-10.337,4.94-16.161,12.4-6.7,8.585-9.907,17.367-7.408,20.04" transform="translate(-505.031 308.533)"/></clipPath><linearGradient id="cg" x1="-19.359" y1="9.475" x2="-19.354" y2="9.475" gradientUnits="objectBoundingBox"><stop offset="0" stop-color="#a60006"/><stop offset="0.489" stop-color="#ea1721"/><stop offset="1" stop-color="#a60006"/></linearGradient><clipPath id="ch"><path d="M506.347-275.721h0m0,0-.273-.251c-2.5-2.673.709-11.455,7.408-20.04,5.824-7.463,12.431-12.4,16.161-12.4a3.007,3.007,0,0,1,1.476.344l.311.205-.461-.219a1.555,1.555,0,0,0-.577-.149,1.74,1.74,0,0,0-.437-.047c-.116,0-.237.005-.365.016a6.631,6.631,0,0,0-2.1.541,19.145,19.145,0,0,0-2.5,1.369,25.564,25.564,0,0,0-2.715,2.024c-.929.765-1.849,1.647-2.8,2.556s-1.859,1.924-2.791,2.945c-.909,1.024-1.8,2.109-2.685,3.235-.849,1.092-1.695,2.235-2.472,3.372s-1.519,2.284-2.179,3.423-1.284,2.248-1.8,3.336a25.356,25.356,0,0,0-1.3,3.127,19.149,19.149,0,0,0-.723,2.755,6.656,6.656,0,0,0-.013,2.171,2.56,2.56,0,0,0,.223.767,1.583,1.583,0,0,0,.287.527l.325.4" transform="translate(-505.228 308.414)"/></clipPath><linearGradient id="ci" x1="-19.283" y1="9.434" x2="-19.277" y2="9.434" xlink:href="#cg"/><clipPath id="cj"><path d="M567.185-345.159c-.025-.035-.053-.073-.084-.113a1.66,1.66,0,0,1-.272-.556,2.346,2.346,0,0,1-.185-.835,7.037,7.037,0,0,1,.2-2.285,14,14,0,0,1,1.033-2.777,26.312,26.312,0,0,1,1.729-3.035A33.028,33.028,0,0,1,571.9-357.9c.855-1.044,1.773-2.092,2.759-3.107s2.035-2,3.1-2.957c1.089-.935,2.191-1.831,3.333-2.695,1.132-.848,2.291-1.623,3.435-2.336a32.995,32.995,0,0,1,3.413-1.865,26.545,26.545,0,0,1,3.233-1.324,14.011,14.011,0,0,1,2.888-.665c.355-.028.695-.045,1.013-.045a4.943,4.943,0,0,1,1.279.14,2.3,2.3,0,0,1,.8.289,1.658,1.658,0,0,1,.52.343l.1.1a3.612,3.612,0,0,0-2.359-.7c-3.9,0-10.687,3.523-17.216,9.257-8.183,7.188-12.971,15.216-11.013,18.309" transform="translate(-566.613 372.899)"/></clipPath><linearGradient id="ck" x1="-18.184" y1="13.443" x2="-18.18" y2="13.443" xlink:href="#cg"/><clipPath id="cl"><path d="M567.408-344.863h0m0,0-.223-.3c-1.957-3.093,2.831-11.121,11.013-18.309,6.529-5.735,13.312-9.257,17.216-9.257a3.612,3.612,0,0,1,2.359.7l.267.259-.412-.3a1.6,1.6,0,0,0-.54-.255,2.534,2.534,0,0,0-.781-.18,3.609,3.609,0,0,0-.565-.041,8.948,8.948,0,0,0-1.6.183,19.079,19.079,0,0,0-2.708.88A25.459,25.459,0,0,0,588.387-370c-1.056.579-2.124,1.272-3.225,1.989s-2.185,1.544-3.291,2.373c-1.081.833-2.173,1.744-3.232,2.671s-2.087,1.884-3.067,2.86-1.917,1.96-2.777,2.956-1.68,1.969-2.389,2.943a25.308,25.308,0,0,0-1.863,2.828,19.061,19.061,0,0,0-1.223,2.573,6.667,6.667,0,0,0-.419,2.131,2.578,2.578,0,0,0,.076.793,1.6,1.6,0,0,0,.184.572c.16.292.247.448.247.448" transform="translate(-566.748 372.726)"/></clipPath><linearGradient id="cm" x1="-18.112" y1="13.377" x2="-18.108" y2="13.377" xlink:href="#cg"/></defs><g transform="translate(-399.467 -165.998)"><path d="M848.443-205.113a6.223,6.223,0,0,1-6.223,6.223A6.223,6.223,0,0,1,836-205.113a6.222,6.222,0,0,1,6.223-6.221,6.222,6.222,0,0,1,6.223,6.221" transform="translate(0 666.665)" fill="#cfe5ff"/><path d="M910-429.094c-49.107-42.755-121.04-71.573-191.333-71.573-139.412,0-205.141,59.972-170.666,112,73.333,110.666-100.444,44-138.666,109.333-35.861,61.3,31.3,145.72,116.67,178.112H657.437A142.4,142.4,0,0,0,704-136.667c82.841-94.274,156.142-81.034,206-91.2V-429.093" transform="translate(0 666.665)" fill="#50ace9"/><g transform="translate(480.137 397.142)"><g clip-path="url(#a)"><g clip-path="url(#b)"><path d="M480.132-210.8v-.267h.133v-.133h.133v-.133h.133v-.133h.133v-.133h.133v-.133h.133v-.133h.133V-212h.133v-.133h.133v-.133h.133v-.133h.133v-.133h.133v-.133h.133v-.133H482v-.133h.133v-.133h.133v-.133h.133v-.133h.133v-.133h.133v-.133h.133v-.133h.133v-.133h.133V-214h.133v-.133h.133v-.133h.133v-.133h.133v-.133h.133v-.133h.133v-.133H484v-.133h.133v-.133h.133v-.133h.133v-.133h.133v-.133h.133v-.133h.133v-.133h.133v-.133h.133V-216h.133v-.133h.133v-.133h.133v-.133h.133v-.133h.133v-.133h.133v-.133H486v-.133h.133v-.133h.133v-.133h.133v-.133h.133v-.133h.133v-.133h.133v-.133h.133v-.133h.133V-218h.133v-.133h.133v-.133h.133v-.133h.133v-.133h.133v-.133h.133v-.133H488v-.133h.133v-.133h.133v-.133h.133v-.133h.133v-.133h.133v-.133h.133v-.133h.133v-.133h.133V-220h.133v-.133h.133v-.133h.133v-.133h.133v-.133h.133v-.133h.133v-.133H490v-.133h.133v-.133h.133v-.133h.133v-.133h.133v-.133h.133v-.133h.133v-.133h.133v-.133h.133V-222h.133v-.133h.133v-.133h.133v-.133h.133v-.133h.133v-.133h.133v-.133H492v-.133h.133v-.133h.133v-.133h.133v-.133h.133v-.133h.133v-.133h.133v-.133h.133v-.133h.133V-224h.133v-.133h.133v-.133h.133v-.133h.133v-.133h.133v-.133h.133v-.133H494v-.133h.133v-.133h.133v-.133h.133v-.133h.133v-.133h.133v-.133h.133v-.133h.133v-.133h.133V-226h.133v-.133h.133v-.133h.133v-.133h.133v-.133h.133v-.133h.133v-.133H496v-.133h.133v-.133h.133v-.133h.133v-.133h.133v-.133h.133v-.133h.133v-.133h.133v-.133h.133V-228h.133v-.133h.133v-.133h.133v-.133h.133v-.133h.133v-.133h.133v-.133H498v-.133h.133v-.133h.133v-.133h.133v-.133h.133v-.133h.133v-.133h.133v-.133h.133v-.133h.133V-230h.133v-.133h.133v-.133h.133v-.133h.133v-.133h.133v-.133h.133v-.133H500v-.133h.133v-.133h.133v-.133h.133v-.133h.133v-.133h.133v-.133h.133v-.133h.133v-.133h.133V-232h.133v-.133h.133v-.133h.133v-.133h.133v-.133h.133v-.133h.133v-.133H502v-.133h.133v-.133h.133v-.133h.133v-.133h.133v-.133h.133v-.133h.133v-.133h.133v-.133h.133V-234h.133v-.133h.133v-.133h.133v-.133h.133v-.133h.133v-.133h.133v-.133H504v-.133h.133v-.133h.133v-.133h.133v-.133h.133v-.133h.133v-.133h.133v-.133h.133v-.133h.133V-236h.133v-.133h.133v-.133h.133v-.133h.133v-.133h.133v-.133h.133v-.133H506v-.133h.133v-.133h.133v-.133h.133v-.133h.133v-.133h.133v-.133h.133v-.133h.133v-.133h.133V-238h.133v-.133h.133v-.133h.133v-.133h.133v-.133h.133v-.133h.133v-.133H508v-.133h.133v-.133h.133v-.133h.133v-.133h.133v-.133h.133v-.133h.133v-.133h.133v-.133h.133V-240h.133v-.133h.133v-.133h.133v-.133h.133v-.133h.133v-.133h.133v-.133H510v-.133h.133v-.133h.133v-.133h.133v-.133h.133v-.133h.133v-.133h.133v-.133h.133v-.133h.133V-242h.133v-.133h.133v-.133h.133v-.133h.133v-.133h.133v-.133h.133v-.133H512v-.133h.133v-.133h.133v-.133h.133v-.133h.133v-.133h.133v-.133h.133v-.133h.133v-.133h.133V-244h.133v-.133h.133v-.133h.133v-.133h.133v-.133h.133v-.133h.133v-.133H514v-.133h.133v-.133h.133v-.133h.133v-.133h.133v-.133h.133v-.133h.133v-.133h.133v-.133h.133V-246h.133v-.133h.133v-.133h.133v-.133h.133v-.133h.133v-.133h.133v-.133H516v-.133h.133v-.133h.133v-.133h.133v-.133h.133v-.133h.133v-.133h.133v-.133h.133v-.133h.133V-248h.133v-.133h.133v-.133h.133v-.133h.133v-.133h.133v-.133h.133v-.133H518v-.133h.133v-.133h.133v-.133h.133v-.133h.133v-.133h.133v-.133h.133v-.133h.133v-.133h.133V-250h.133v-.133h.133v-.133h.133v-.133h.133v-.133h.133v-.133h.133v-.133H520v-.133h.133v-.133h.133v-.133h.133v-.133h.133v-.133h.133v-.133h.133v-.133h.133v-.133h.133V-252h.133v-.133h.133v-.133h.133v-.133h.133v-.133h.133v-.133h.133v-.133H522v-.133h.133v-.133h.133v-.133h.133v-.133h.133v-.133h.133v-.133h.133v-.133h.133v-.133h.133V-254h.133v-.133h.133v-.133h.133v-.133h.133v-.133h.133v-.133h.133v-.133H524v-.133h.133v-.133h.133v-.133h.133v-.133h.133v-.133h.133v-.133h.133v-.133h.133v-.133h.133V-256h.133v-.133h.133v-.133h.133v-.133h.133v-.133h.133v-.133h.133v-.133H526v-.133h.133v-.133h.133v-.133h.133v-.133h.133v-.133h.133v-.133h.133v-.133h.133v-.133h.133V-258h.133v-.133h.133v-.133h.133v-.133h.133v-.133h.133v-.133h.133v-.133H528v-.133h.133v-.133h.133v-.133h.133v-.133h.133v-.133h.133v-.133h.133v-.133h.133v-.133h.133V-260h.133v-.133h.133v-.133h.133v-.133h.133v-.133h.133v-.133h.133v-.133H530v-.133h.133v-.133h.133v-.133h.133v-.133h.133v-.133h.133v-.133h.133v-.133h.133v-.133h.133V-262h.133v-.133h.133v-.133h.133v-.133h.133v-.133h.133v-.133h.133v-.133H532v-.133h.133v-.133h.133v-.133h.133v-.133h.133v-.133h.133v-.133h.133v-.133h.133v-.133h.133V-264h.133v-.133h.133v-.133h.133v-.133h.133v-.133h.133v-.133h.133v-.133H534v-.133h.133v-.133h.133v-.133h.133v-.133h.133v-.133h.133v-.133h.133v-.133h.133v-.133h.133V-266h.133v-.133h.133v-.133h.133v-.133h.133v-.133h.133v-.133h.133v-.133H536v-.133h.133v-.133h.133v-.133h.133v-.133h.133v-.133h.133v-.133h.133v-.133h.133v-.133h.133V-268h.133v-.133h.133v-.133h.133v-.133h.133v-.133h.133v-.133h.133v-.133H538v-.133h.133v-.133h.133v-.133h.133v-.133h.133v-.133h.133v-.133h.267v1.867H538.8v.133h-.133v.133h-.133v.133H538.4v.133h-.133v.133h-.133v.133H538v.133h-.133v.133h-.133v.133H537.6v.133h-.133v.133h-.133v.133H537.2V-266h-.133v.133h-.133v.133H536.8v.133h-.133v.133h-.133v.133H536.4v.133h-.133v.133h-.133v.133H536v.133h-.133v.133h-.133v.133H535.6v.133h-.133v.133h-.133v.133H535.2V-264h-.133v.133h-.133v.133H534.8v.133h-.133v.133h-.133v.133H534.4v.133h-.133v.133h-.133v.133H534v.133h-.133v.133h-.133v.133H533.6v.133h-.133v.133h-.133v.133H533.2V-262h-.133v.133h-.133v.133H532.8v.133h-.133v.133h-.133v.133H532.4v.133h-.133v.133h-.133v.133H532v.133h-.133v.133h-.133v.133H531.6v.133h-.133v.133h-.133v.133H531.2V-260h-.133v.133h-.133v.133H530.8v.133h-.133v.133h-.133v.133H530.4v.133h-.133v.133h-.133v.133H530v.133h-.133v.133h-.133v.133H529.6v.133h-.133v.133h-.133v.133H529.2V-258h-.133v.133h-.133v.133H528.8v.133h-.133v.133h-.133v.133H528.4v.133h-.133v.133h-.133v.133H528v.133h-.133v.133h-.133v.133H527.6v.133h-.133v.133h-.133v.133H527.2V-256h-.133v.133h-.133v.133H526.8v.133h-.133v.133h-.133v.133H526.4v.133h-.133v.133h-.133v.133H526v.133h-.133v.133h-.133v.133H525.6v.133h-.133v.133h-.133v.133H525.2V-254h-.133v.133h-.133v.133H524.8v.133h-.133v.133h-.133v.133H524.4v.133h-.133v.133h-.133v.133H524v.133h-.133v.133h-.133v.133H523.6v.133h-.133v.133h-.133v.133H523.2V-252h-.133v.133h-.133v.133H522.8v.133h-.133v.133h-.133v.133H522.4v.133h-.133v.133h-.133v.133H522v.133h-.133v.133h-.133v.133H521.6v.133h-.133v.133h-.133v.133H521.2V-250h-.133v.133h-.133v.133H520.8v.133h-.133v.133h-.133v.133H520.4v.133h-.133v.133h-.133v.133H520v.133h-.133v.133h-.133v.133H519.6v.133h-.133v.133h-.133v.133H519.2V-248h-.133v.133h-.133v.133H518.8v.133h-.133v.133h-.133v.133H518.4v.133h-.133v.133h-.133v.133H518v.133h-.133v.133h-.133v.133H517.6v.133h-.133v.133h-.133v.133H517.2V-246h-.133v.133h-.133v.133H516.8v.133h-.133v.133h-.133v.133H516.4v.133h-.133v.133h-.133v.133H516v.133h-.133v.133h-.133v.133H515.6v.133h-.133v.133h-.133v.133H515.2V-244h-.133v.133h-.133v.133H514.8v.133h-.133v.133h-.133v.133H514.4v.133h-.133v.133h-.133v.133H514v.133h-.133v.133h-.133v.133H513.6v.133h-.133v.133h-.133v.133H513.2V-242h-.133v.133h-.133v.133H512.8v.133h-.133v.133h-.133v.133H512.4v.133h-.133v.133h-.133v.133H512v.133h-.133v.133h-.133v.133H511.6v.133h-.133v.133h-.133v.133H511.2V-240h-.133v.133h-.133v.133H510.8v.133h-.133v.133h-.133v.133H510.4v.133h-.133v.133h-.133v.133H510v.133h-.133v.133h-.133v.133H509.6v.133h-.133v.133h-.133v.133H509.2V-238h-.133v.133h-.133v.133H508.8v.133h-.133v.133h-.133v.133H508.4v.133h-.133v.133h-.133v.133H508v.133h-.133v.133h-.133v.133H507.6v.133h-.133v.133h-.133v.133H507.2V-236h-.133v.133h-.133v.133H506.8v.133h-.133v.133h-.133v.133H506.4v.133h-.133v.133h-.133v.133H506v.133h-.133v.133h-.133v.133H505.6v.133h-.133v.133h-.133v.133H505.2V-234h-.133v.133h-.133v.133H504.8v.133h-.133v.133h-.133v.133H504.4v.133h-.133v.133h-.133v.133H504v.133h-.133v.133h-.133v.133H503.6v.133h-.133v.133h-.133v.133H503.2V-232h-.133v.133h-.133v.133H502.8v.133h-.133v.133h-.133v.133H502.4v.133h-.133v.133h-.133v.133H502v.133h-.133v.133h-.133v.133H501.6v.133h-.133v.133h-.133v.133H501.2V-230h-.133v.133h-.133v.133H500.8v.133h-.133v.133h-.133v.133H500.4v.133h-.133v.133h-.133v.133H500v.133h-.133v.133h-.133v.133H499.6v.133h-.133v.133h-.133v.133H499.2V-228h-.133v.133h-.133v.133H498.8v.133h-.133v.133h-.133v.133H498.4v.133h-.133v.133h-.133v.133H498v.133h-.133v.133h-.133v.133H497.6v.133h-.133v.133h-.133v.133H497.2V-226h-.133v.133h-.133v.133H496.8v.133h-.133v.133h-.133v.133H496.4v.133h-.133v.133h-.133v.133H496v.133h-.133v.133h-.133v.133H495.6v.133h-.133v.133h-.133v.133H495.2V-224h-.133v.133h-.133v.133H494.8v.133h-.133v.133h-.133v.133H494.4v.133h-.133v.133h-.133v.133H494v.133h-.133v.133h-.133v.133H493.6v.133h-.133v.133h-.133v.133H493.2V-222h-.133v.133h-.133v.133H492.8v.133h-.133v.133h-.133v.133H492.4v.133h-.133v.133h-.133v.133H492v.133h-.133v.133h-.133v.133H491.6v.133h-.133v.133h-.133v.133H491.2V-220h-.133v.133h-.133v.133H490.8v.133h-.133v.133h-.133v.133H490.4v.133h-.133v.133h-.133v.133H490v.133h-.133v.133h-.133v.133H489.6v.133h-.133v.133h-.133v.133H489.2V-218h-.133v.133h-.133v.133H488.8v.133h-.133v.133h-.133v.133H488.4v.133h-.133v.133h-.133v.133H488v.133h-.133v.133h-.133v.133H487.6v.133h-.133v.133h-.133v.133H487.2V-216h-.133v.133h-.133v.133H486.8v.133h-.133v.133h-.133v.133H486.4v.133h-.133v.133h-.133v.133H486v.133h-.133v.133h-.133v.133H485.6v.133h-.133v.133h-.133v.133H485.2V-214h-.133v.133h-.133v.133H484.8v.133h-.133v.133h-.133v.133H484.4v.133h-.133v.133h-.133v.133H484v.133h-.133v.133h-.133v.133H483.6v.133h-.133v.133h-.133v.133H483.2V-212h-.133v.133h-.133v.133H482.8v.133h-.133v.133h-.133v.133H482.4v.133h-.133v.133h-.133v.133H482v.133" transform="translate(-480.137 269.523)" fill="url(#c)"/></g></g></g><g transform="translate(472.051 388.62)"><g clip-path="url(#d)"><path d="M473.6-211.087q-.774-.07-1.545-.159l66.8-66.8v1.7L473.6-211.087" transform="translate(-472.051 278.045)" fill="url(#e)"/></g></g><g transform="translate(519.46 341.267)"><g clip-path="url(#f)"><path d="M519.46-316.861c.232-.669.528-1.453.9-2.341l6.195-6.2c.144.141.289.279.432.421s.28.288.42.432l-7.643,7.643-.305.041" transform="translate(-519.46 325.398)" fill="url(#g)"/></g></g><g transform="translate(431.986 349.763)"><g clip-path="url(#h)"><path d="M432.838-229.974c-.143-.141-.288-.279-.431-.421s-.28-.288-.421-.431l62.431-62.431q.23.62.477,1.227l-62.056,62.056m86.485-86.485c.043-.128.089-.263.137-.4l.305-.041-.443.443" transform="translate(-431.986 316.902)" fill="url(#i)"/></g></g><g transform="translate(489.351 405.663)"><g clip-path="url(#j)"><path d="M489.351-211.5l49.5-49.5v1.7l-47.464,47.464c-.677.12-1.355.232-2.035.331" transform="translate(-489.351 261.002)" fill="url(#k)"/></g></g><g transform="translate(464.774 380.1)"><g clip-path="url(#l)"><path d="M466.174-212.186c-.467-.1-.935-.2-1.4-.3l74.076-74.076v1.7l-72.676,72.674" transform="translate(-464.774 286.565)" fill="url(#m)"/></g></g><g transform="translate(517.172 426.455)"><g clip-path="url(#n)"><path d="M517.172-222.283,535.1-240.21a67.226,67.226,0,0,1-8.111,9.815,67.258,67.258,0,0,1-9.816,8.112" transform="translate(-517.172 240.21)" fill="url(#o)"/></g></g><g transform="translate(458.132 371.579)"><g clip-path="url(#p)"><path d="M459.414-213.946q-.642-.2-1.281-.423l80.717-80.717v1.7l-79.436,79.436" transform="translate(-458.132 295.086)" fill="url(#q)"/></g></g><g transform="translate(527.779 345.678)"><g clip-path="url(#r)"><path d="M527.779-318.1l2.888-2.888q.394.462.777.928l-1.6,1.6q-1.02.184-2.061.357" transform="translate(-527.779 320.987)" fill="url(#s)"/></g></g><g transform="translate(436.396 348.208)"><g clip-path="url(#t)"><path d="M437.324-225.939c-.312-.256-.62-.515-.928-.777l60.689-60.689q.3.554.613,1.092l-60.375,60.375M523.8-312.418q-.584-.248-1.215-.491l5.191-5.191q1.04-.174,2.061-.357l-6.037,6.039" transform="translate(-436.396 318.457)" fill="url(#u)"/></g></g><g transform="translate(441.194 350.477)"><g clip-path="url(#v)"><path d="M442.2-222.3q-.506-.344-1.009-.7l59.186-59.187c.108.148.216.3.324.44a5.542,5.542,0,0,0,.1.837L442.2-222.3m87.158-87.16c-.139-.093-.283-.188-.435-.285l-.563-.421,6.025-6.025c.236.333.468.671.7,1.008l-5.724,5.724" transform="translate(-441.194 316.188)" fill="url(#w)"/></g></g><g transform="translate(446.396 355.678)"><g clip-path="url(#x)"><path d="M447.486-219.059q-.548-.3-1.089-.615l57.72-57.72.973.729-57.6,57.605m85.024-85.024a7.335,7.335,0,0,0-.019-1.685l5.219-5.219q.312.542.615,1.089l-5.815,5.815" transform="translate(-446.396 310.987)" fill="url(#y)"/></g></g><g transform="translate(452.027 363.058)"><g clip-path="url(#z)"><path d="M453.207-216.259q-.592-.256-1.18-.525l59.184-59.182a23.171,23.171,0,0,0,4.631-2.927l-62.635,62.635m70.18-70.181q.456-.556.908-1.135a58.567,58.567,0,0,0,3.475-4.952l11.08-11.08v1.7l-15.463,15.463" transform="translate(-452.027 303.607)" fill="url(#aa)"/></g></g><g transform="translate(500.469 414.183)"><g clip-path="url(#ab)"><path d="M500.469-214.1l38.38-38.38v1.7l-35.761,35.761q-1.3.486-2.619.915" transform="translate(-500.469 252.482)" fill="url(#ac)"/></g></g><g transform="translate(479.299 331.229)"><g clip-path="url(#ad)"><path d="M479.3-312.223l23.215-23.213c-.827,1.335-1.636,2.708-2.416,4.12l-18.836,18.835c-.652.085-1.311.171-1.963.259" transform="translate(-479.299 335.436)" fill="url(#ae)"/></g></g><g transform="translate(418.271 354.183)"><g clip-path="url(#af)"><path d="M418.8-250.015q-.268-.588-.525-1.18L479.3-312.223c.652-.088,1.311-.173,1.963-.259L418.8-250.015" transform="translate(-418.271 312.482)" fill="url(#ag)"/></g></g><g transform="translate(489.019 347.649)"><g clip-path="url(#ah)"><path d="M489.019-313.422l5.595-5.595q-.406,1.222-.755,2.459l-2.917,2.917q-.96.108-1.923.219" transform="translate(-489.019 319.017)" fill="url(#ai)"/></g></g><g transform="translate(421.071 353.025)"><g clip-path="url(#aj)"><path d="M421.686-244.385c-.208-.361-.415-.724-.615-1.089l67.948-67.948q.962-.112,1.923-.219l-69.256,69.256" transform="translate(-421.071 313.641)" fill="url(#ak)"/></g></g><g transform="translate(424.308 358.502)"><g clip-path="url(#al)"><path d="M425-239.183c-.236-.333-.467-.671-.7-1.008l67.973-67.972c-.053.605-.093,1.215-.117,1.821L425-239.183" transform="translate(-424.308 308.163)" fill="url(#am)"/></g></g><g transform="translate(427.951 366.712)"><g clip-path="url(#an)"><path d="M428.727-234.385q-.392-.462-.776-.928l64.64-64.64q.124.718.276,1.428l-64.14,64.14" transform="translate(-427.951 299.953)" fill="url(#ao)"/></g></g><g transform="translate(413.515 322.797)"><g clip-path="url(#ap)"><path d="M413.515-287.339c.1-.68.212-1.357.331-2.035l54.164-54.164c.677-.119,1.355-.232,2.035-.331l-56.529,56.529" transform="translate(-413.515 343.868)" fill="url(#aq)"/></g></g><g transform="translate(424.295 333.577)"><g clip-path="url(#ar)"><path d="M424.295-315.161a67.178,67.178,0,0,1,8.112-9.816,67.251,67.251,0,0,1,9.815-8.112l-17.927,17.928" transform="translate(-424.295 333.089)" fill="url(#as)"/></g></g><g transform="translate(469.283 325.239)"><g clip-path="url(#at)"><path d="M469.283-310.727l30.7-30.7q.642.2,1.281.423l-29.944,29.944c-.683.108-1.357.219-2.036.332" transform="translate(-469.283 341.426)" fill="url(#au)"/></g></g><g transform="translate(415.958 355.606)"><g clip-path="url(#av)"><path d="M416.379-256.121c-.144-.425-.287-.853-.421-1.281l53.325-53.325c.679-.113,1.353-.224,2.036-.332l-54.94,54.939" transform="translate(-415.958 311.059)" fill="url(#aw)"/></g></g><g transform="translate(433.384 322.105)"><g clip-path="url(#ax)"><path d="M433.384-300.391l44.133-44.135q.87-.028,1.739-.035l-42.737,42.739q-1.592.688-3.135,1.431" transform="translate(-433.384 344.56)" fill="url(#ay)"/></g></g><g transform="translate(412.823 364.843)"><g clip-path="url(#az)"><path d="M412.823-278.127q.006-.868.035-1.739l20.527-20.525q1.54-.742,3.135-1.431l-23.7,23.695" transform="translate(-412.823 301.822)" fill="url(#ba)"/></g></g><g transform="translate(416.112 325.395)"><g clip-path="url(#bb)"><path d="M416.112-298.458q.43-1.318.915-2.619l39.28-39.279q1.3-.486,2.619-.915l-42.813,42.812" transform="translate(-416.112 341.27)" fill="url(#bc)"/></g></g><g transform="translate(458.744 323.479)"><g clip-path="url(#bd)"><path d="M458.744-308.71l34.476-34.476q.7.144,1.4.3L460.91-309.171c-.725.151-1.445.3-2.165.461" transform="translate(-458.744 343.186)" fill="url(#be)"/></g></g><g transform="translate(414.198 357.494)"><g clip-path="url(#bf)"><path d="M414.5-262.762q-.16-.7-.3-1.4l44.547-44.547c.72-.157,1.44-.311,2.165-.461L414.5-262.762" transform="translate(-414.198 309.171)" fill="url(#bg)"/></g></g><g transform="translate(447.238 322.381)"><g clip-path="url(#bh)"><path d="M447.238-305.725l38.561-38.56c.515.047,1.031.1,1.544.159l-37.688,37.689q-1.218.346-2.417.712" transform="translate(-447.238 344.284)" fill="url(#bi)"/></g></g><g transform="translate(413.098 360.228)"><g clip-path="url(#bj)"><path d="M413.258-270.039q-.088-.772-.16-1.545l34.14-34.14q1.2-.366,2.417-.712l-36.4,36.4" transform="translate(-413.098 306.437)" fill="url(#bk)"/></g></g><path d="M488-345.334A15.333,15.333,0,0,1,472.665-330a15.334,15.334,0,0,1-15.333-15.333,15.333,15.333,0,0,1,15.333-15.333A15.332,15.332,0,0,1,488-345.334" transform="translate(0 666.665)" fill="#cfe5ff"/><path d="M433.332-128.668a8,8,0,0,1-8,8,8,8,0,0,1-8-8,8,8,0,0,1,8-8,8,8,0,0,1,8,8" transform="translate(0 666.665)" fill="#cfe5ff"/><path d="M545.976-314.978c-2.74-.733-7.04-7.632-10.588-7.945s-7.843,3.867-11.467,1.233-3.959-13.952-8.107-16.211-7.247.273-8.835-2.391.473-11.737-3.24-14.94-6.753-2.137-7.488-4.936,1.479-7.232-1.517-11.423-4.137-9.549.34-7.052,8.477,5.655,12.983,4.651,3.687,6.705,6.891,8.529,7.964-1.261,10.555.371,2.8,10.343,4.976,11.165,10.836-5.215,14.895-3.525-.908,12.681,3.435,14.325,9.628,3.724,9.628,3.724l-12.46,24.424" transform="translate(0 666.665)" fill="#b8e3c2"/><path d="M501.668-368.315s4.888,16.137,48.691,44.188l2.783-4.523s-35.384-15.389-51.473-39.665" transform="translate(0 666.665)" fill="#9ecdbb"/><path d="M497.7-286.313a14.934,14.934,0,0,0-3.9,4.049c-3.425,5.041-5.659,12.692-5.673,19.88.005,4.476.876,8.792,3.075,12.149a12.542,12.542,0,0,0,4.351,4.111,13.951,13.951,0,0,0,6.423,1.688c.259.009.515.013.769.013A17.088,17.088,0,0,0,514.3-248.5a11.5,11.5,0,0,0,4.143-8.26,6.768,6.768,0,0,0-.569-2.785,5.674,5.674,0,0,0-1.791-2.237,8.89,8.89,0,0,0-5.367-1.895,10.1,10.1,0,0,0-5.947,2.145,22.058,22.058,0,0,0-6.523,8.5,26.983,26.983,0,0,0-2.577,11.051,15.55,15.55,0,0,0,1.544,7.092,10.773,10.773,0,0,0,5.231,5,11.654,11.654,0,0,0,4.876,1.065,17.964,17.964,0,0,0,8.848-2.785,70.445,70.445,0,0,0,8.691-6.253,133.263,133.263,0,0,1,12.587-9.548c4.336-2.707,8.78-4.532,13.4-4.529a20.191,20.191,0,0,1,11.681,4.008l1.519-2.192a22.881,22.881,0,0,0-13.2-4.483c-5.341,0-10.256,2.091-14.813,4.933a135.35,135.35,0,0,0-12.851,9.735,67.98,67.98,0,0,1-8.347,6.019,15.386,15.386,0,0,1-7.517,2.429,9,9,0,0,1-3.773-.825,8.1,8.1,0,0,1-3.96-3.788,12.928,12.928,0,0,1-1.251-5.877,25.071,25.071,0,0,1,3.964-12.913,16.916,16.916,0,0,1,4.047-4.487,7.467,7.467,0,0,1,4.369-1.628,6.219,6.219,0,0,1,3.772,1.365,3,3,0,0,1,.953,1.193,4.1,4.1,0,0,1,.335,1.692,8.893,8.893,0,0,1-3.249,6.268,14.419,14.419,0,0,1-9.785,3.4c-.223,0-.449,0-.677-.012a11.269,11.269,0,0,1-5.209-1.349,10.717,10.717,0,0,1-4.6-5.485,22.438,22.438,0,0,1-1.465-8.448,37.207,37.207,0,0,1,2.5-13.113A26.413,26.413,0,0,1,496-280.758a12.337,12.337,0,0,1,3.173-3.336l-1.479-2.219" transform="translate(0 666.665)" fill="#d8171c"/><path d="M716.368-180.133c-10.513,0-19.036-2.076-19.036-4.636s8.523-4.635,19.036-4.635,19.036,2.075,19.036,4.635-8.523,4.636-19.036,4.636" transform="translate(0 666.665)" fill="#d2e1f4"/><path d="M607.848-161.876c-10.513,0-19.036-2.075-19.036-4.635s8.523-4.636,19.036-4.636,19.036,2.076,19.036,4.636-8.523,4.635-19.036,4.635" transform="translate(0 666.665)" fill="#d2e1f4"/><path d="M778.458-194.978a14.3,14.3,0,0,0,6.153-2.985c2.529.26,5.248.469,8.115.621a76.578,76.578,0,0,1-14.268,2.364" transform="translate(0 666.665)" fill="#e4eaf3"/><path d="M549.58-195.124a76.483,76.483,0,0,1-15.232-3l-33.661-10.269h38.176c0,.025,0,.052,0,.079a14.348,14.348,0,0,0,10.715,13.189" transform="translate(0 666.665)" fill="#d2e1f4"/><path d="M831.091-208.013q-1.056-.2-2.2-.379h3.564l-1.363.379" transform="translate(0 666.665)" fill="#e4eaf3"/><path d="M816.194-390.831c-4.311-.375-10.552-.233-19.375,1.283a17.085,17.085,0,0,0-11.7,8.005c-4.543,7.509-11.569,19.412-13.049,23.577,0,0-12.5-1.948-19.547-6.233l-3.117,6.233s7.185,4.976,28.329,11.9a103.353,103.353,0,0,0,9.632-18.7s-.7,5.116,1.7,14.164c1.9,7.157-2.556,35.093-2.556,35.093l46-1.648-3.78-27.78,5.579-7.172a9.234,9.234,0,0,0,1.815-7.159,76.675,76.675,0,0,0-7.807-23.683,15.315,15.315,0,0,0-12.117-7.883" transform="translate(0 666.665)" fill="#d85c1c"/><path d="M824.334-356.832l-1.7-11.757s-2.265,15.44-3.257,17.28l4.957-5.523" transform="translate(0 666.665)" fill="#b14800"/><path d="M807.041-341.747c-2.343.819-8.375,2.74-7.819,3.961.32.705,4.576-.969,5.045-.393.356.433-1.159,2.692-3.88,4.124-2.112,1.112-3.579.88-3.667,1.889-.112,1.277,6.129,1.147,7.724.948a8.9,8.9,0,0,0,4.22-1.781,28.883,28.883,0,0,0,2.855-2.941,24.234,24.234,0,0,1,3.892-2.976l-3.108-5.047s-3.915,1.744-5.263,2.216" transform="translate(0 666.665)" fill="#e7d1ad"/><path d="M800.666-398.706l.979,11.2s6.06,5.181,11.337-.668l-2.932-13.537-9.384,3.008" transform="translate(0 666.665)" fill="#e0bd82"/><path d="M817.114-428.67a17.33,17.33,0,0,1,5.127,12.823c0,8.651-10.221,20.857-19.585,20.857-8.255,0-14.945-8.484-14.945-18.948,0-8.02,3.977-14.791,9.483-17.639,7.785-4.028,16.156-.773,19.921,2.907" transform="translate(0 666.665)" fill="#e7cb9e"/><path d="M797.469-410.327s-.087.348-.227.84a13.63,13.63,0,0,0-.411,1.753,2.239,2.239,0,0,0,.031.847,1.014,1.014,0,0,0,.388.575l.271.177.245.1c.139.057.223.1.223.1a2.068,2.068,0,0,1-.243.028,1.4,1.4,0,0,1-.671-.072,1.634,1.634,0,0,1-.424-.241,1.374,1.374,0,0,1-.336-.452,1.579,1.579,0,0,1-.148-.567,2.961,2.961,0,0,1,0-.575,4.51,4.51,0,0,1,.733-1.831,3.813,3.813,0,0,1,.565-.681" transform="translate(0 666.665)" fill="#e0b695"/><path d="M793.171-408.459c0,.833-.937,1.511-2.093,1.511s-2.092-.677-2.092-1.511.937-1.512,2.092-1.512,2.093.677,2.093,1.512" transform="translate(0 666.665)" fill="#e0ab82"/><path d="M809.062-408.388c0,.925-1.137,1.676-2.54,1.676s-2.541-.751-2.541-1.676,1.139-1.676,2.541-1.676,2.54.749,2.54,1.676" transform="translate(0 666.665)" fill="#e0ab82"/><path d="M803.654-197.061c-3.8,0-7.472-.1-10.928-.281.309-.083.617-.165.927-.252l37.439-10.419a48.29,48.29,0,0,1,5.139,1.216,6.219,6.219,0,0,0-.232,1.684,6.2,6.2,0,0,0,1.691,4.264c-5.935,2.236-18.943,3.788-34.034,3.788" transform="translate(0 666.665)" fill="#e4eaf3"/><path d="M837.689-200.849A6.2,6.2,0,0,1,836-205.113a6.217,6.217,0,0,1,.232-1.684c3.112.949,4.889,2.049,4.889,3.22,0,.975-1.228,1.9-3.431,2.728" transform="translate(0 666.665)" fill="#bad3f4"/><path d="M828.89-208.391H802.662c1.559-.58,3.119-1.137,4.663-1.669a160.041,160.041,0,0,1,21.565,1.669" transform="translate(0 666.665)" fill="#e4eaf3"/><path d="M802.662-208.391h-7.08c.089-.521.187-1.048.292-1.56,2.511-.092,5.112-.14,7.78-.14q1.858,0,3.671.031c-1.544.532-3.1,1.089-4.663,1.669" transform="translate(0 666.665)" fill="#d2e1f4"/><path d="M792.726-197.342c-2.867-.152-5.585-.361-8.115-.621a14.381,14.381,0,0,0,3.56-4.4q2.884-1.332,5.736-2.544c.021.895.019,1.707.019,1.707l.956-.229s.088-.813.247-1.993q3.8-1.584,7.533-2.971H828.89q1.146.18,2.2.379l-37.439,10.419c-.309.087-.617.169-.927.252" transform="translate(0 666.665)" fill="#cdd8e9"/><path d="M788.171-202.361q.11-.208.212-.42c.192-.045.371-.091.531-.135,2.233-.613,4.448-4.311,4.751-4.311h.009a7.352,7.352,0,0,1,.233,2.32q-2.854,1.214-5.736,2.544m6.957-3.06c.116-.853.268-1.9.453-2.971h7.08q-3.74,1.39-7.533,2.971" transform="translate(0 666.665)" fill="#bdcfe9"/><path d="M830.629-215.858s2.161.444,1.848,3.7a76.133,76.133,0,0,0-.195,7.652l-.917.355s-.515-3.916-.788-3.956-2.092,3.939-4.245,4.855-7.584,2.655-9.129,1.072c-1.691-1.732,2.085-3.307,4.02-4.451s9.407-9.231,9.407-9.231" transform="translate(0 666.665)" fill="#393939"/><path d="M822.9-226.333s2.265,8.948,1.164,12.793-4.051,7.127-4.36,7.893,4.052.263,5.6-1.079,5.653-8.3,5.4-9.236a62.5,62.5,0,0,1-.665-11.812l-7.135,1.44" transform="translate(0 666.665)" fill="#e7cb9e"/><path d="M794.763-214.9s2.081.729,1.335,3.919a76.09,76.09,0,0,0-1.216,7.557l-.956.229s.013-3.949-.252-4.027-2.5,3.689-4.76,4.309-7.968,1.552-9.288-.224c-1.444-1.943,2.509-3,4.58-3.873s10.557-7.891,10.557-7.891" transform="translate(0 666.665)" fill="#393939"/><path d="M788.5-226.317s1.049,9.171-.556,12.833-4.968,6.521-5.377,7.24,3.981.8,5.691-.32,6.713-7.471,6.585-8.431a62.745,62.745,0,0,1,.921-11.8l-7.264.473" transform="translate(0 666.665)" fill="#e7cb9e"/><path d="M786.509-315.507s-3.892,38.977-4.433,51.969c-.479,11.481,4.885,47.059,4.885,47.059l9.273-.8s1.1-34.1,3.729-45.468c2.005-8.657,8.019-34.628,8.019-34.628s3.091,24.656,4.12,32.875c1.464,11.676,9.253,47.837,9.253,47.837l10.948-.476s-2.912-36.493-2.749-48.657c.171-12.839,2.951-51.355,2.951-51.355l-46,1.648" transform="translate(0 666.665)" fill="#2638a3"/><path d="M786.509-315.507s-3.892,38.977-4.433,51.969c-.479,11.481,4.885,47.059,4.885,47.059l9.273-.8s1.1-34.1,3.729-45.468c2.005-8.657,8.019-34.628,8.019-34.628s-5.337-6.485-7-18.647l-14.469.519" transform="translate(0 666.665)" fill="#12259a"/><path d="M823.539-414.883s-2.052,6.343-12.047.592a74.712,74.712,0,0,1-16.332-12.687s-3.26,8.391-8.388,11.756a46.556,46.556,0,0,1,1.249-8.88c1.071-3.384,4.105-10.4,14.636-10.827,24-.964,20.881,20.045,20.881,20.045" transform="translate(0 666.665)" fill="#424242"/><path d="M821.934-419.451a7.7,7.7,0,0,0,3.391-9.3c-2.141-6.259-10.441-9.643-14.725-4.06" transform="translate(0 666.665)" fill="#424242"/><path d="M801.521-414.291c0,.747.389,1.353.869,1.353s.869-.607.869-1.353-.389-1.353-.869-1.353-.869.605-.869,1.353" transform="translate(0 666.665)" fill="#424242"/><path d="M792.473-413.782c0,.747.408,1.352.909,1.352s.909-.605.909-1.352-.407-1.355-.909-1.355-.909.607-.909,1.355" transform="translate(0 666.665)" fill="#424242"/><path d="M802.427-403.972s-4.283,2.023-7.7.313c-.072,1.807,4.339,5.324,7.7-.313" transform="translate(0 666.665)" fill="#e5f1ff"/><path d="M815.277-409.591c-1.139,3.505.135,6.987,2.843,7.777s5.827-1.409,6.965-4.915-.133-6.985-2.843-7.776-5.827,1.409-6.965,4.913" transform="translate(0 666.665)"/><path d="M818.115-404.514l-.005.008a12.739,12.739,0,0,1-2.951,2.831,14.272,14.272,0,0,1-8.372,2.62,17.576,17.576,0,0,1-3.212-.305.667.667,0,0,0-.777.533.667.667,0,0,0,.533.777,18.915,18.915,0,0,0,3.456.328,15.6,15.6,0,0,0,9.337-3.005,13.68,13.68,0,0,0,3.1-3.043.667.667,0,0,0-.181-.925.667.667,0,0,0-.925.181" transform="translate(0 666.665)"/><path d="M803.687-399.707a1,1,0,0,0-1.167.807,1,1,0,0,0,.807,1.165,1,1,0,0,0,1.167-.805,1,1,0,0,0-.807-1.167" transform="translate(0 666.665)"/><path d="M823.221-410.412c0-.019.139-1.275.139-3.24,0-3.561-.439-9.456-3-14.567a17,17,0,0,0-5.7-6.639,18.041,18.041,0,0,0-10.113-2.832h-.151a20.908,20.908,0,0,0-9.019,2.019,13.606,13.606,0,0,0-7.292,8.571.665.665,0,0,0,.452.827.667.667,0,0,0,.828-.452,12.261,12.261,0,0,1,6.6-7.751,19.618,19.618,0,0,1,8.428-1.88h.14a16.714,16.714,0,0,1,9.383,2.607,17.545,17.545,0,0,1,6.713,9.848,36.383,36.383,0,0,1,1.4,10.249c0,.952-.033,1.731-.067,2.268-.016.269-.032.479-.044.619s-.02.208-.02.208a.666.666,0,0,0,.591.735.666.666,0,0,0,.735-.589" transform="translate(0 666.665)"/><path d="M782.3-362.406l.013-.013L681.168-418.363a34.8,34.8,0,0,0-33.684,0L546.315-362.406l.013.013a14.338,14.338,0,0,0-7.479,12.593V-209a14.34,14.34,0,0,0,14.34,14.34H775.461A14.34,14.34,0,0,0,789.8-209V-349.8a14.337,14.337,0,0,0-7.5-12.607" transform="translate(0 666.665)" fill="#d49500"/><path d="M680.976-423.78c1.152-2.591,8.64-5.759,9.5-9.215s-2.592-8.351.576-11.519,14.4-1.728,17.277-5.472.864-7.2,3.744-8.351,11.519,2.3,15.263-.864,3.168-6.336,6.048-6.624,6.911,2.592,11.519.288,10.079-2.591,6.912,1.44-6.912,7.488-6.624,12.095-7.2,2.592-9.5,5.472,0,8.064-2.016,10.367-10.656,1.152-11.808,3.168,3.456,11.519,1.152,15.263-12.383-2.88-14.687,1.152-5.183,8.927-5.183,8.927L680.976-423.78" transform="translate(0 666.665)" fill="#b8e3c2"/><path d="M740.586-459.2s-16.7,2.3-51.259,41.18l4.031,3.456s20.735-32.541,47.228-44.636" transform="translate(0 666.665)" fill="#9ecdbb"/><g transform="translate(567.529 239.299)"><g clip-path="url(#bl)"><path d="M664-229.863h-2.608l-35.477-35.477-19.952-19.952h113.47l-19.387,19.384h0L664-229.863m56.567-56.563H604.829l-37.3-37.3v-21.008a3.466,3.466,0,0,0,2.5.828c3.9,0,10.687-3.524,17.216-9.259a44.837,44.837,0,0,0,10.023-11.961h139.29v-1.133H597.815c1.057-2.425,1.208-4.392.225-5.511h0l-.06-.065-3.759-4.119a3.125,3.125,0,0,0-2.227-.944c-5.777-3.968-14.184-7.715-22.755-7.715q-.856,0-1.711.051V-410.92a16.445,16.445,0,0,1,16.445-16.445h160.7a16.445,16.445,0,0,1,16.444,16.445v83.942l-24.587,24.585H592.088v1.133H735.4l-14.835,14.833M592.088-318.359v1.133H736.562v-1.133H592.088m0-15.967v1.133H736.562v-1.133H592.088m0-15.967v1.133H736.562v-1.133H592.088m0-31.933v1.133H736.562v-1.133H592.088m0-15.967v1.133H736.562v-1.133H592.088" transform="translate(-567.529 427.366)" fill="url(#bm)"/></g></g><g transform="translate(592.088 268.473)"><g clip-path="url(#bn)"><path d="M592.088-397.059H736.562v-1.133H592.088Z" transform="translate(-592.088 398.192)" fill="url(#bo)"/></g></g><g transform="translate(592.088 284.439)"><g clip-path="url(#bp)"><path d="M592.088-381.092H736.562v-1.133H592.088Z" transform="translate(-592.088 382.226)" fill="url(#bq)"/></g></g><g transform="translate(597.272 300.406)"><g clip-path="url(#br)"><path d="M736.562-365.126H597.272q.3-.582.543-1.133H736.562v1.133" transform="translate(-597.272 366.259)" fill="url(#bs)"/></g></g><g transform="translate(592.088 316.373)"><g clip-path="url(#bt)"><path d="M592.088-349.159H736.562v-1.133H592.088Z" transform="translate(-592.088 350.292)" fill="url(#bu)"/></g></g><g transform="translate(592.088 332.339)"><g clip-path="url(#bv)"><path d="M592.088-333.193H736.562v-1.133H592.088Z" transform="translate(-592.088 334.326)" fill="url(#bw)"/></g></g><g transform="translate(592.088 348.306)"><g clip-path="url(#bx)"><path d="M592.088-317.226H736.562v-1.133H592.088Z" transform="translate(-592.088 318.359)" fill="url(#by)"/></g></g><g transform="translate(592.088 364.272)"><g clip-path="url(#bz)"><path d="M735.4-301.259H592.088v-1.133H736.534l-1.133,1.133" transform="translate(-592.088 302.393)" fill="url(#ca)"/></g></g><g transform="translate(604.829 380.239)"><g clip-path="url(#cb)"><path d="M719.433-285.293H605.962l-1.133-1.133H720.566l-1.133,1.133" transform="translate(-604.829 286.426)" fill="url(#cc)"/></g></g><path d="M768.746-334.6,663.11-228.974a.586.586,0,0,1-.829,0L556.653-334.6a25.175,25.175,0,0,0-17.8-7.375V-209a14.34,14.34,0,0,0,14.34,14.34H775.461A14.34,14.34,0,0,0,789.8-209V-341.977h-3.252a25.176,25.176,0,0,0-17.8,7.373" transform="translate(0 666.665)" fill="#ffb700"/><path d="M553.189-194.665h0a14.282,14.282,0,0,1-9.22-3.357,14.282,14.282,0,0,0,9.22,3.357" transform="translate(0 666.665)" fill="#c08700"/><path d="M538.849-209.094l-.013-4.964.013-.008v4.972" transform="translate(0 666.665)" fill="#d4dde6"/><g transform="translate(625.914 401.324)"><g clip-path="url(#cd)"><path d="M661.392-229.863h0l-35.477-35.477h0l35.477,35.477" transform="translate(-625.914 265.341)" fill="url(#ce)"/></g></g><path d="M775.461-194.665H553.189a14.282,14.282,0,0,1-9.22-3.357A14.308,14.308,0,0,1,538.849-209v-5.061l87.065-51.275,35.477,35.477.889.889a.584.584,0,0,0,.415.172.583.583,0,0,0,.415-.172h0l.889-.889,36.047-36.045L789.8-213.522V-209a14.268,14.268,0,0,1-1.629,6.644,14.379,14.379,0,0,1-3.56,4.4,14.281,14.281,0,0,1-9.151,3.3" transform="translate(0 666.665)" fill="#e7a600"/><path d="M789.8-209v-4.26L681.168-273.35a34.8,34.8,0,0,0-33.685,0L538.849-213.265V-209a14.34,14.34,0,0,0,14.34,14.34H775.461A14.34,14.34,0,0,0,789.8-209" transform="translate(0 666.665)" fill="#ffc400"/><path d="M734.63-211.65c0,2.661.425-1.7,8.64-1.7,6.239,0,.567,16.289-9.348,16.856a2.878,2.878,0,0,0-1.7,3.4c.425,2.692,17.989-3.54,17.989-18.129,0-9.773-15.581-7.791-15.581-.425" transform="translate(0 666.665)" fill="#fefefe"/><path d="M692.62-221.321s1.152,37.9,25.02,37.9c21.585,0,24.032-37.9,24.032-37.9H692.62" transform="translate(0 666.665)" fill="#fefefe"/><path d="M699.953-217.085a24.96,24.96,0,0,1-5.279-1.089c.943,9.195,5.167,34.875,22.965,34.757a17.658,17.658,0,0,0,3.325-.34c-15.848-2.861-19.967-24.117-21.012-33.328" transform="translate(0 666.665)" fill="#eaf4ff"/><path d="M741.672-221.321c0,2.157-10.981,3.905-24.527,3.905s-24.525-1.748-24.525-3.905,10.981-3.905,24.525-3.905,24.527,1.748,24.527,3.905" transform="translate(0 666.665)" fill="#eaf4ff"/><path d="M739.038-221.321c0,1.693-9.8,3.067-21.893,3.067s-21.892-1.373-21.892-3.067,9.8-3.067,21.892-3.067,21.893,1.373,21.893,3.067" transform="translate(0 666.665)" fill="#fefefe"/><path d="M700.177-219.385a108.559,108.559,0,0,0,16.968,1.131,108.565,108.565,0,0,0,16.969-1.131,108.587,108.587,0,0,0-16.969-1.129,108.584,108.584,0,0,0-16.968,1.129" transform="translate(0 666.665)" fill="#606060"/><path d="M567.02-384.527c-22.469,1.763-44.305,24.139-48.541,28.7-4.353,4.451-25.651,27.34-26.328,49.867-.4,13.152,8.673,25.967,14.2,30.239l25.392-31.892s-4.1-4.081-13.057-6.588c0,0,2.216-11.447,15.952-25.86,12.96-13.6,25.432-17.569,25.432-17.569C563-348.8,567.275-344.9,567.275-344.9l30.632-26.9c-4.533-5.311-17.769-13.752-30.887-12.724" transform="translate(0 666.665)" fill="#d8171c"/><path d="M531.429-307.865l-4.533-3.4c-2.985-2.329-11.02,2.977-17.947,11.853s-10.12,17.961-7.135,20.291l4.532,3.4,25.083-32.144" transform="translate(0 666.665)" fill="#a60006"/><path d="M524.295-287.575c-6.927,8.877-14.961,14.184-17.948,11.855s.209-11.415,7.135-20.291,14.961-14.184,17.948-11.853-.209,11.413-7.135,20.289" transform="translate(0 666.665)" fill="#a60006"/><g transform="translate(505.031 358.133)"><g clip-path="url(#cf)"><path d="M506.073-275.971l-.1-.1a1.656,1.656,0,0,1-.371-.495,2.346,2.346,0,0,1-.337-.785,7.052,7.052,0,0,1-.227-2.283,14.044,14.044,0,0,1,.5-2.921,26.291,26.291,0,0,1,1.133-3.3,33.06,33.06,0,0,1,1.664-3.517c.644-1.184,1.352-2.384,2.131-3.565s1.62-2.332,2.5-3.492c.881-1.1,1.807-2.2,2.765-3.26s1.948-2.021,2.939-2.935a33.009,33.009,0,0,1,3.007-2.469A26.356,26.356,0,0,1,524.6-307a13.954,13.954,0,0,1,2.713-1.192,7.961,7.961,0,0,1,2.013-.344c.087,0,.173,0,.256.009a2.353,2.353,0,0,1,.84.135,1.682,1.682,0,0,1,.573.24l.119.079a3.007,3.007,0,0,0-1.476-.344c-3.731,0-10.337,4.94-16.161,12.4-6.7,8.585-9.907,17.367-7.408,20.04" transform="translate(-505.031 308.533)" fill="url(#cg)"/></g></g><g transform="translate(505.228 358.251)"><g clip-path="url(#ch)"><path d="M506.347-275.721h0m0,0-.273-.251c-2.5-2.673.709-11.455,7.408-20.04,5.824-7.463,12.431-12.4,16.161-12.4a3.007,3.007,0,0,1,1.476.344l.311.205-.461-.219a1.555,1.555,0,0,0-.577-.149,1.74,1.74,0,0,0-.437-.047c-.116,0-.237.005-.365.016a6.631,6.631,0,0,0-2.1.541,19.145,19.145,0,0,0-2.5,1.369,25.564,25.564,0,0,0-2.715,2.024c-.929.765-1.849,1.647-2.8,2.556s-1.859,1.924-2.791,2.945c-.909,1.024-1.8,2.109-2.685,3.235-.849,1.092-1.695,2.235-2.472,3.372s-1.519,2.284-2.179,3.423-1.284,2.248-1.8,3.336a25.356,25.356,0,0,0-1.3,3.127,19.149,19.149,0,0,0-.723,2.755,6.656,6.656,0,0,0-.013,2.171,2.56,2.56,0,0,0,.223.767,1.583,1.583,0,0,0,.287.527l.325.4" transform="translate(-505.228 308.414)" fill="url(#ci)"/></g></g><path d="M598.04-371.77l-3.819-4.184c-2.5-2.845-11.384.871-19.843,8.3s-13.289,15.76-10.791,18.605l3.82,4.184L598.04-371.77" transform="translate(0 666.665)" fill="#a60006"/><path d="M587.249-353.164c-8.459,7.431-17.343,11.147-19.841,8.3s2.332-11.175,10.791-18.605,17.343-11.147,19.841-8.3-2.332,11.176-10.791,18.605" transform="translate(0 666.665)" fill="#a60006"/><g transform="translate(566.613 293.766)"><g clip-path="url(#cj)"><path d="M567.185-345.159c-.025-.035-.053-.073-.084-.113a1.66,1.66,0,0,1-.272-.556,2.346,2.346,0,0,1-.185-.835,7.037,7.037,0,0,1,.2-2.285,14,14,0,0,1,1.033-2.777,26.312,26.312,0,0,1,1.729-3.035A33.028,33.028,0,0,1,571.9-357.9c.855-1.044,1.773-2.092,2.759-3.107s2.035-2,3.1-2.957c1.089-.935,2.191-1.831,3.333-2.695,1.132-.848,2.291-1.623,3.435-2.336a32.995,32.995,0,0,1,3.413-1.865,26.545,26.545,0,0,1,3.233-1.324,14.011,14.011,0,0,1,2.888-.665c.355-.028.695-.045,1.013-.045a4.943,4.943,0,0,1,1.279.14,2.3,2.3,0,0,1,.8.289,1.658,1.658,0,0,1,.52.343l.1.1a3.612,3.612,0,0,0-2.359-.7c-3.9,0-10.687,3.523-17.216,9.257-8.183,7.188-12.971,15.216-11.013,18.309" transform="translate(-566.613 372.899)" fill="url(#ck)"/></g></g><g transform="translate(566.748 293.939)"><g clip-path="url(#cl)"><path d="M567.408-344.863h0m0,0-.223-.3c-1.957-3.093,2.831-11.121,11.013-18.309,6.529-5.735,13.312-9.257,17.216-9.257a3.612,3.612,0,0,1,2.359.7l.267.259-.412-.3a1.6,1.6,0,0,0-.54-.255,2.534,2.534,0,0,0-.781-.18,3.609,3.609,0,0,0-.565-.041,8.948,8.948,0,0,0-1.6.183,19.079,19.079,0,0,0-2.708.88A25.459,25.459,0,0,0,588.387-370c-1.056.579-2.124,1.272-3.225,1.989s-2.185,1.544-3.291,2.373c-1.081.833-2.173,1.744-3.232,2.671s-2.087,1.884-3.067,2.86-1.917,1.96-2.777,2.956-1.68,1.969-2.389,2.943a25.308,25.308,0,0,0-1.863,2.828,19.061,19.061,0,0,0-1.223,2.573,6.667,6.667,0,0,0-.419,2.131,2.578,2.578,0,0,0,.076.793,1.6,1.6,0,0,0,.184.572c.16.292.247.448.247.448" transform="translate(-566.748 372.726)" fill="url(#cm)"/></g></g><path d="M495.4-317.362s15.108-41.927,57.412-61.756c0,0-33.805,15.485-57.412,61.756" transform="translate(0 666.665)" fill="#ffa1a1"/><path d="M559.8-358.942s-12.051,1.407-29.649,17.407c-12.464,11.331-18.319,27.195-18.319,27.195a14.154,14.154,0,0,1,4.929-.167c13.389-34.205,43.113-43.984,43.039-44.435h0" transform="translate(0 666.665)" fill="#a60006"/><path d="M534.667-418.908a7.617,7.617,0,0,0-1,.443,4.837,4.837,0,0,0-1.845,1.785,7.922,7.922,0,0,0-1.032,2.708,10.055,10.055,0,0,0-.081,3.173,9.1,9.1,0,0,0,1,3.159q1.118,2.11,2.541,1.356a3.017,3.017,0,0,0,.8-.628,2.949,2.949,0,0,0,.579-1.015,5.006,5.006,0,0,0,.251-1.469,9.872,9.872,0,0,0-.171-2.011Zm5.984,3.969a16.177,16.177,0,0,0,.615,2.377,3.694,3.694,0,0,0,.716,1.295,1.2,1.2,0,0,0,.84.421,1.949,1.949,0,0,0,.975-.267,2.714,2.714,0,0,0,1.28-1.663,7.653,7.653,0,0,0,.28-2.823,15.843,15.843,0,0,0-.695-3.585A22.526,22.526,0,0,0,543-423.15,14.476,14.476,0,0,0,540.148-427a9.341,9.341,0,0,0-3.465-2.1,8.782,8.782,0,0,0-3.963-.324,13.081,13.081,0,0,0-4.321,1.469,13.574,13.574,0,0,0-4.847,4.215,15.049,15.049,0,0,0-2.468,5.849,19.354,19.354,0,0,0-.041,6.825,23.135,23.135,0,0,0,2.459,7.131,18.345,18.345,0,0,0,3.631,4.909,11.979,11.979,0,0,0,4.333,2.653,10.841,10.841,0,0,0,4.819.473,14.659,14.659,0,0,0,5.105-1.679,26.793,26.793,0,0,0,2.965-1.807,25.337,25.337,0,0,0,2.235-1.773,15.193,15.193,0,0,0,1.559-1.605,9.22,9.22,0,0,0,.916-1.295,3.716,3.716,0,0,1,.907-.949,1.75,1.75,0,0,1,.829-.321,1.325,1.325,0,0,1,.741.149,3.05,3.05,0,0,1,.631.444l1.489,1.591a23.5,23.5,0,0,1-1.747,2.72,24.286,24.286,0,0,1-2.295,2.656,25.224,25.224,0,0,1-2.908,2.5,28.414,28.414,0,0,1-3.564,2.228,19.715,19.715,0,0,1-7.159,2.3,15.828,15.828,0,0,1-6.724-.683,16.614,16.614,0,0,1-5.909-3.495,21.979,21.979,0,0,1-4.688-6.155,24.965,24.965,0,0,1-2.237-5.881,25.725,25.725,0,0,1-.724-6.051,24.318,24.318,0,0,1,.729-5.913,22.621,22.621,0,0,1,2.119-5.428A20.966,20.966,0,0,1,522-428.974a19.114,19.114,0,0,1,4.713-3.5,16.1,16.1,0,0,1,5.863-1.831,14.714,14.714,0,0,1,5.849.528,14.979,14.979,0,0,1,5.265,2.867,16.934,16.934,0,0,1,4.127,5.2,19.484,19.484,0,0,1,2.032,5.828,16.383,16.383,0,0,1,.059,5.6,12.6,12.6,0,0,1-1.827,4.759,9.591,9.591,0,0,1-3.62,3.316,6.155,6.155,0,0,1-1.341.52,3.933,3.933,0,0,1-1.4.108,4.078,4.078,0,0,1-1.369-.391,4.325,4.325,0,0,1-1.277-.968,10.267,10.267,0,0,1-1.776,3.689A8.638,8.638,0,0,1,534.583-401a5.467,5.467,0,0,1-2.352.689,4.731,4.731,0,0,1-2.136-.4,5.837,5.837,0,0,1-1.843-1.315,9.159,9.159,0,0,1-1.491-2.091,13.447,13.447,0,0,1-1.159-3.073,14.4,14.4,0,0,1-.425-3.433,15.1,15.1,0,0,1,.42-3.559,13.191,13.191,0,0,1,1.387-3.483,14.32,14.32,0,0,1,2.48-3.167,15.9,15.9,0,0,1,3.677-2.625q.964-.51,1.757-.844a13.757,13.757,0,0,1,1.52-.541,11.519,11.519,0,0,1,1.392-.312c.443-.069.912-.116,1.408-.144l1.432,10.351" transform="translate(0 666.665)" fill="#fed638"/><path d="M613.391-444.666a4.725,4.725,0,0,1-4.725,4.725,4.724,4.724,0,0,1-4.725-4.725,4.725,4.725,0,0,1,4.725-4.725,4.726,4.726,0,0,1,4.725,4.725" transform="translate(0 666.665)" fill="#ffb700"/><path d="M509.695-215.333a2.362,2.362,0,0,1-2.363,2.363,2.362,2.362,0,0,1-2.363-2.363,2.362,2.362,0,0,1,2.363-2.363,2.362,2.362,0,0,1,2.363,2.363" transform="translate(0 666.665)" fill="#ffb700"/><path d="M861.827-443.01a6.519,6.519,0,0,1-6.519,6.519,6.518,6.518,0,0,1-6.517-6.519,6.517,6.517,0,0,1,6.517-6.517,6.519,6.519,0,0,1,6.519,6.517" transform="translate(0 666.665)" fill="#c3f0ce"/><path d="M640.37-196.132a30.8,30.8,0,0,1-30.8,30.8,30.8,30.8,0,0,1-30.8-30.8,30.8,30.8,0,0,1,30.8-30.8,30.8,30.8,0,0,1,30.8,30.8" transform="translate(0 666.665)" fill="#50ace9"/><path d="M611.712-176.174c-2.439-2.22,9-21.316,7.5-27.535-1.093-4.528-19.321-1.553-19.509-.221,0,0,5.253-.667,6.191,1.776s-6.191,17.1-7.5,22.649,4.877,7.328,9,7.328c4.877,0,12.756-3.331,12.568-4.885s-5.815,3.109-8.253.888Zm2.627-32.668a6.966,6.966,0,0,0,6.967-6.967,6.966,6.966,0,0,0-6.967-6.965,6.967,6.967,0,0,0-6.967,6.965,6.967,6.967,0,0,0,6.967,6.967" transform="translate(0 666.665)" fill="#f7fbfc"/><path d="M784.533-440.306v-.663a9,9,0,0,0-9-9h-9.865a9,9,0,0,0-8.995,9v.663a8.994,8.994,0,0,0,8.995,8.995h9.865l.351-.017a9.833,9.833,0,0,0,8.055,4.557,7.916,7.916,0,0,1-4-5.693,8.99,8.99,0,0,0,4.595-7.841" transform="translate(0 666.665)" fill="#ffb700"/><path d="M766.737-440.575a1.508,1.508,0,0,1-1.509,1.508,1.507,1.507,0,0,1-1.508-1.508,1.509,1.509,0,0,1,1.508-1.509,1.51,1.51,0,0,1,1.509,1.509" transform="translate(0 666.665)" fill="#fefefe"/><path d="M772.223-440.575a1.508,1.508,0,0,1-1.509,1.508,1.507,1.507,0,0,1-1.508-1.508,1.509,1.509,0,0,1,1.508-1.509,1.51,1.51,0,0,1,1.509,1.509" transform="translate(0 666.665)" fill="#fefefe"/><path d="M777.71-440.575a1.508,1.508,0,0,1-1.509,1.508,1.509,1.509,0,0,1-1.509-1.508,1.51,1.51,0,0,1,1.509-1.509,1.51,1.51,0,0,1,1.509,1.509" transform="translate(0 666.665)" fill="#fefefe"/></g></svg>