<svg xmlns="http://www.w3.org/2000/svg" width="511.627" height="401.988" viewBox="0 0 511.627 401.988"><g transform="translate(0 -54.82)"><path d="M49.106,178.729q9.708,6.851,58.528,40.685t74.8,52.1q2.854,2,12.131,8.71t15.416,10.852q6.14,4.137,14.849,9.277a86.139,86.139,0,0,0,16.418,7.7,45.236,45.236,0,0,0,14.275,2.569h.575a45.275,45.275,0,0,0,14.277-2.569,86.224,86.224,0,0,0,16.416-7.7q8.706-5.143,14.845-9.277t15.417-10.852q9.276-6.715,12.135-8.71,26.262-18.268,133.615-92.79a135.629,135.629,0,0,0,34.827-35.116q14-20.549,13.993-43.1a43.757,43.757,0,0,0-13.565-32.264Q484.5,54.818,465.944,54.82H45.679q-21.982,0-33.832,14.844T0,106.779q0,17.986,15.7,38.974T49.106,178.729Z" fill="#fff"/><path d="M483.072,209.275q-93.636,63.377-142.177,98.5-16.273,11.986-26.409,18.7t-26.98,13.7q-16.842,7-31.4,6.995h-.578q-14.561,0-31.4-6.995t-26.98-13.7q-10.133-6.705-26.407-18.7-38.546-28.263-141.9-98.5A151.23,151.23,0,0,1,0,184.437V411.122a43.977,43.977,0,0,0,13.418,32.265,43.98,43.98,0,0,0,32.264,13.422H465.948a45.819,45.819,0,0,0,45.679-45.687V184.437A157.438,157.438,0,0,1,483.072,209.275Z" fill="#fff"/></g></svg>