<svg xmlns="http://www.w3.org/2000/svg" xmlns:xlink="http://www.w3.org/1999/xlink" width="151" height="151" viewBox="0 0 151 151"><defs><linearGradient id="a" x1="0.5" x2="0.5" y2="1" gradientUnits="objectBoundingBox"><stop offset="0" stop-color="#f1a119"/><stop offset="0.309" stop-color="#dae30a"/><stop offset="0.665" stop-color="#63cc35"/><stop offset="1" stop-color="#1ce143"/></linearGradient></defs><g transform="translate(0 0)"><path d="M149.043,81.067c-1.934-6.436-6.076-11.3-9.187-14.528-.456-.49-.907-.974-1.347-1.459a27.871,27.871,0,0,1-7.768-19.968,89.646,89.646,0,0,1,2.207-20.654,47.459,47.459,0,0,0,1.368-10.328c0-7.659-6.743-14.13-14.725-14.13s-14.723,6.471-14.723,14.13a47.461,47.461,0,0,0,1.368,10.328,89.651,89.651,0,0,1,2.207,20.654,27.677,27.677,0,0,1-5.237,16.868A27.545,27.545,0,0,1,97.97,45.111a89.646,89.646,0,0,1,2.207-20.654,47.478,47.478,0,0,0,1.368-10.328C101.545,6.471,94.8,0,86.822,0S72.1,6.471,72.1,14.13a47.462,47.462,0,0,0,1.368,10.328,89.65,89.65,0,0,1,2.207,20.654A27.869,27.869,0,0,1,67.9,65.078c-.439.485-.889.968-1.344,1.456-.889.956-1.8,1.936-2.7,3A43.334,43.334,0,0,0,3.612,125.019a2.212,2.212,0,1,0,4.053-1.772,38.958,38.958,0,1,1,5,8.369,2.212,2.212,0,0,0-3.485,2.725A43.295,43.295,0,0,0,66.8,144.07c1.1,3.34,1.835,5.426,1.844,5.452A2.212,2.212,0,0,0,70.734,151h64.945a2.212,2.212,0,0,0,2.086-1.478C138.306,147.987,151,111.739,151,95.46a47.482,47.482,0,0,0-1.957-14.394ZM112.867,45.111a93.539,93.539,0,0,0-2.3-21.56,43.421,43.421,0,0,1-1.274-9.422c0-5.17,4.813-9.706,10.3-9.706s10.3,4.536,10.3,9.706a43.421,43.421,0,0,1-1.274,9.422,93.536,93.536,0,0,0-2.3,21.56,32.248,32.248,0,0,0,8.275,22.219H107.822c-.247-.267-1.393-1.5-1.719-1.858A32.326,32.326,0,0,0,112.867,45.111ZM67.687,71.868l.1-.114h8.957a2.212,2.212,0,0,0,0-4.424H71.82a32.247,32.247,0,0,0,8.275-22.219,93.54,93.54,0,0,0-2.3-21.56A43.421,43.421,0,0,1,76.52,14.13c0-5.17,4.814-9.706,10.3-9.706s10.3,4.536,10.3,9.706a43.421,43.421,0,0,1-1.274,9.422,93.535,93.535,0,0,0-2.3,21.56,32.233,32.233,0,0,0,8.278,22.219H87.068a2.212,2.212,0,0,0,0,4.424h18.79a29.625,29.625,0,0,1,5.012,7.492H75.99a43.676,43.676,0,0,0-8.3-7.377Zm2.876,69.471a43.255,43.255,0,0,0,8.809-57.67h33.072a45.356,45.356,0,0,1,1.36,11.79c0,13.742-10.071,44.073-12.474,51.116H72.311c-.4-1.169-1.01-2.98-1.747-5.237Zm63.539,5.237h-28.1c3.114-9.21,12.222-37.326,12.222-51.116A51.389,51.389,0,0,0,117,83.67h8.464a2.212,2.212,0,1,0,0-4.424h-9.807a30.845,30.845,0,0,0-4.1-7.493h27.071a29.619,29.619,0,0,1,5.021,7.493H135.8a2.212,2.212,0,0,0,0,4.424h9.428a45.439,45.439,0,0,1,1.352,11.79C146.576,109.2,136.505,139.534,134.1,146.576Z" transform="translate(0 0)" fill="url(#a)"/><path d="M109.3,252.541a7.276,7.276,0,1,0,7.277,7.277A7.285,7.285,0,0,0,109.3,252.541Zm0,10.129a2.853,2.853,0,1,1,2.853-2.852A2.856,2.856,0,0,1,109.3,262.67Z" transform="translate(-71.936 -178.061)" fill="url(#a)"/><path d="M53.744,304.47a7.276,7.276,0,1,0-7.277-7.276A7.285,7.285,0,0,0,53.744,304.47Zm0-10.129a2.853,2.853,0,1,1-2.853,2.853A2.856,2.856,0,0,1,53.744,294.341Z" transform="translate(-32.763 -204.414)" fill="url(#a)"/><path d="M103.037,323.458a7.277,7.277,0,1,0,7.277-7.277A7.285,7.285,0,0,0,103.037,323.458Zm10.129,0a2.853,2.853,0,1,1-2.853-2.853A2.856,2.856,0,0,1,113.166,323.458Z" transform="translate(-72.649 -222.932)" fill="url(#a)"/></g></svg>