<svg id="Capa_1" enable-background="new 0 0 512 512" height="512" viewBox="0 0 512 512" width="512" xmlns="http://www.w3.org/2000/svg"><g><g><path d="m505.366 274.875c-6.559-21.823-20.601-38.318-31.151-49.26-1.546-1.661-3.075-3.303-4.566-4.948-12.263-13.547-26.34-33.485-26.34-67.707 0-34.262 4.149-54.095 7.482-70.031 2.489-11.897 4.638-22.172 4.638-35.019.001-25.97-22.864-47.91-49.929-47.91-27.06 0-49.92 21.94-49.92 47.91 0 12.847 2.149 23.121 4.638 35.019 3.333 15.937 7.482 35.77 7.482 70.031 0 27.052-8.975 45.059-17.757 57.194-9.425-13.008-17.753-30.871-17.753-57.194 0-34.262 4.149-54.095 7.482-70.031 2.488-11.897 4.638-22.172 4.638-35.019 0-25.97-22.86-47.91-49.92-47.91-27.065 0-49.93 21.94-49.93 47.91 0 12.847 2.149 23.121 4.638 35.019 3.333 15.937 7.482 35.77 7.482 70.031 0 34.222-14.077 54.16-26.337 67.703-1.49 1.644-3.015 3.281-4.558 4.938-3.016 3.24-6.104 6.564-9.171 10.165-20.73-11.203-44.441-17.57-69.612-17.57-81.002-.001-146.902 65.9-146.902 146.902 0 20.44 4.12 40.226 12.246 58.808 1.66 3.795 6.082 5.526 9.876 3.867 3.795-1.66 5.526-6.082 3.867-9.877-7.292-16.675-10.989-34.439-10.989-52.798 0-72.731 59.171-131.902 131.902-131.902s131.902 59.171 131.902 131.902-59.17 131.902-131.902 131.902c-40.869 0-78.765-18.489-103.972-50.727-2.551-3.262-7.265-3.84-10.528-1.288s-3.84 7.265-1.289 10.528c28.07 35.898 70.273 56.487 115.789 56.487 29.32 0 56.657-8.639 79.611-23.498 3.738 11.324 6.221 18.397 6.251 18.485 1.056 3.003 3.893 5.013 7.076 5.013h220.21c3.182 0 6.018-2.008 7.074-5.01 1.833-5.205 44.876-128.113 44.876-183.31 0-20.121-2.574-35.945-6.634-48.805zm-122.666-121.915c0-35.813-4.325-56.489-7.8-73.103-2.414-11.538-4.32-20.652-4.32-31.947 0-17.531 16.318-32.91 34.92-32.91 18.608 0 34.93 15.379 34.93 32.91 0 11.295-1.906 20.409-4.32 31.947-3.475 16.613-7.8 37.289-7.8 73.103 0 37.615 15.412 60.805 28.059 75.337h-90.775c-.836-.905-4.723-5.097-5.827-6.3 15.407-20.119 22.933-42.765 22.933-69.037zm-153.192 90.725c.112-.128.224-.26.336-.388h30.37c4.142 0 7.5-3.357 7.5-7.5s-3.358-7.5-7.5-7.5h-16.693c12.645-14.529 28.059-37.719 28.059-75.337 0-35.813-4.325-56.489-7.8-73.103-2.414-11.538-4.32-20.652-4.32-31.947 0-17.531 16.322-32.91 34.93-32.91 18.602 0 34.92 15.379 34.92 32.91 0 11.295-1.906 20.409-4.32 31.947-3.475 16.613-7.8 37.289-7.8 73.103 0 37.627 15.417 60.811 28.067 75.337h-50.034c-4.142 0-7.5 3.357-7.5 7.5s3.358 7.5 7.5 7.5h63.712c6.248 7.09 12.251 14.968 16.994 25.403h-118.269c-8.267-9.486-17.73-17.902-28.152-25.015zm9.753 235.558c33.249-26.955 54.544-68.107 54.544-114.146 0-30.085-9.096-58.082-24.675-81.397l112.139.003c3.097 11.523 4.611 24.663 4.611 39.977 0 46.596-34.147 149.441-42.297 173.32h-98.397c-1.354-3.964-3.426-10.104-5.925-17.757zm215.442 17.757h-95.265c10.559-31.227 41.443-126.562 41.443-173.32 0-14.978-1.368-28.154-4.149-39.977h28.698c4.142 0 7.5-3.357 7.5-7.5s-3.358-7.5-7.5-7.5h-33.252c-3.876-10.21-8.735-18.395-13.913-25.406h91.789c6.28 7.118 12.282 14.986 17.024 25.406h-26.63c-4.142 0-7.5 3.357-7.5 7.5s3.358 7.5 7.5 7.5h31.969c2.867 10.705 4.584 23.684 4.584 39.977-.001 46.595-34.148 149.441-42.298 173.32z"/><path d="m126.699 252.541c-13.604 0-24.673 11.068-24.673 24.673s11.068 24.672 24.673 24.672 24.673-11.067 24.673-24.672-11.068-24.673-24.673-24.673zm0 34.345c-5.333 0-9.673-4.339-9.673-9.672 0-5.334 4.339-9.673 9.673-9.673s9.673 4.339 9.673 9.673c0 5.333-4.339 9.672-9.673 9.672z"/><path d="m71.14 339.262c13.604 0 24.673-11.067 24.673-24.672s-11.068-24.673-24.673-24.673-24.673 11.068-24.673 24.673 11.069 24.672 24.673 24.672zm0-34.345c5.333 0 9.673 4.339 9.673 9.673 0 5.333-4.339 9.672-9.673 9.672s-9.673-4.339-9.673-9.672c0-5.334 4.34-9.673 9.673-9.673z"/><path d="m103.037 340.854c0 13.604 11.068 24.673 24.673 24.673s24.673-11.068 24.673-24.673-11.068-24.673-24.673-24.673-24.673 11.068-24.673 24.673zm34.345 0c0 5.334-4.339 9.673-9.673 9.673s-9.673-4.339-9.673-9.673 4.339-9.673 9.673-9.673 9.673 4.339 9.673 9.673z"/></g></g></svg>