<svg xmlns="http://www.w3.org/2000/svg" xmlns:xlink="http://www.w3.org/1999/xlink" width="539.992" height="464.581" viewBox="0 0 539.992 464.581"><defs><linearGradient id="a" x1="0.5" x2="0.5" y2="1" gradientUnits="objectBoundingBox"><stop offset="0" stop-color="#f1a119"/><stop offset="0.309" stop-color="#dae30a"/><stop offset="0.665" stop-color="#63cc35"/><stop offset="1" stop-color="#1ce143"/></linearGradient></defs><g transform="translate(0 163.821)"><g transform="translate(0 0)"><path d="M119.453,0A119.453,119.453,0,1,0,238.907,119.453,119.453,119.453,0,0,0,119.453,0Zm7.584,38.807,30.713-16.512a105.037,105.037,0,0,1,43.137,31.8L193.6,87.87,170.17,99.352,127.063,67.944ZM81.409,22.2l30.713,16.574V67.965L69.046,99.373,45.5,87.86,38.179,53.878A104.861,104.861,0,0,1,81.409,22.2ZM33.3,178.5a103.832,103.832,0,0,1-17.851-48.888l25.281-27.459,23.057,11.271L81.151,162.74,66.472,180.328Zm112.76,41.912a102.6,102.6,0,0,1-58.527-1.462L78.139,189.71l14.978-17.99h52.75l14.705,17.408ZM172.2,179.824,157.787,162.73l17.6-49.305,22.948-11.245,25.132,27.443a103.538,103.538,0,0,1-14.108,42.869Z" transform="translate(0 0)" fill="#f87e48"/></g></g><g transform="translate(64.123 0)"><g transform="translate(0 0)"><path d="M428.861,35.741C402.189,9.07,364.572-3.349,322.949.78a188.067,188.067,0,0,0-113.131,55.7q-4.176,4.176-8.1,8.583a62.461,62.461,0,1,0-61.158,88.035,63.211,63.211,0,0,0,16.291-1.03,151.418,151.418,0,0,0-1.056,59.212h-.124c-.2,18.67-4.217,70.632-20.292,86.707L102.773,330.59a16.384,16.384,0,0,0-16.09,4.186L35.951,385.487a6.94,6.94,0,1,0,9.815,9.815l50.726-50.727a2.543,2.543,0,0,1,3.6,0l19.941,19.952a2.574,2.574,0,0,1,0,3.6L38.16,450a2.574,2.574,0,0,1-3.6,0L14.625,430.046a2.574,2.574,0,0,1,0-3.6L23,418.075a6.941,6.941,0,1,0-9.819-9.814l-8.367,8.367a16.43,16.43,0,0,0,0,23.232L24.747,459.78a16.445,16.445,0,0,0,23.232,0l81.867-81.867a16.435,16.435,0,0,0,4.181-16.09L166.64,329.21c16.049-16.049,68.032-20.081,86.707-20.292v-.1a140.1,140.1,0,0,0,14.329,1.915q6.065.515,12.192.515a169.742,169.742,0,0,0,71.7-16.574,6.961,6.961,0,0,0,3.285-9.489h0a6.92,6.92,0,0,0-9.062-3.136,152.571,152.571,0,0,1-76.975,14.865A109.882,109.882,0,0,1,198.913,265.7c-28.885-28.864-38.7-73.145-26.558-118.861a62.471,62.471,0,0,0,34.091-65.905,193.093,193.093,0,0,1,13.191-14.638,174.17,174.17,0,0,1,104.681-51.7c37.412-3.707,71.054,7.291,94.739,30.965,49.259,49.269,39.955,138.72-20.729,199.41a191.689,191.689,0,0,1-23.906,20.3,6.941,6.941,0,0,0,8.135,11.214,205.553,205.553,0,0,0,25.569-21.718,188.056,188.056,0,0,0,55.7-113.11C467.951,100.035,455.532,62.417,428.861,35.741ZM110.44,125.1A48.337,48.337,0,0,1,96.6,96.637a48.621,48.621,0,0,1,42.308,42.37,48.209,48.209,0,0,1-28.468-13.9Zm95.769,164.547a119.046,119.046,0,0,0,13.356,7.862q-2.43.3-4.938.659-11.394,1.627-20.863,3.923ZM189.1,275.5q2.919,2.919,6.014,5.612l-69.427,69.422L114.07,338.911l69.417-69.417q2.688,3.094,5.6,6.019Zm-14.149-17.11-12.46,12.46q2.291-9.469,3.923-20.863.366-2.574.669-5.025a119.868,119.868,0,0,0,7.867,13.428Zm4.2-133.288a48.219,48.219,0,0,1-26.321,13.562A62.45,62.45,0,0,0,96.909,82.73a48.4,48.4,0,0,1,39.857-39.852,62.461,62.461,0,0,0,55.911,55.932A48.3,48.3,0,0,1,179.151,125.1ZM164.554,71a48.049,48.049,0,0,1-13.866-28.427,48.43,48.43,0,0,1,42.3,42.3A48.039,48.039,0,0,1,164.554,71Z" transform="translate(-0.001 -0.003)" fill="#51cf13"/></g><g transform="translate(187.043 33.698)"><g transform="translate(0 0)"><path d="M424.121,63.007c-19.4-19.4-47.369-28.375-78.777-25.265a154.337,154.337,0,0,0-92.628,45.99,154.337,154.337,0,0,0-45.99,92.628c-3.089,31.408,5.865,59.366,25.266,78.778A92.412,92.412,0,0,0,298.726,281q5.921,0,12.043-.6a154.342,154.342,0,0,0,92.628-45.99,154.341,154.341,0,0,0,45.99-92.628C452.5,110.382,443.522,82.408,424.121,63.007ZM418.972,77.98A73.9,73.9,0,0,1,432.683,104.5L412.567,84.38ZM263.188,159.069l27.526-27.526,27.526,27.526L290.714,186.6ZM280.9,196.414,253.354,223.94l-27.526-27.526,27.531-27.531Zm19.633-74.689L328.054,94.2l27.526,27.526L328.059,149.25Zm27.526,47.164,27.526,27.526L328.059,223.94l-27.526-27.526Zm9.819-9.819L365.4,131.549l27.526,27.526L365.4,186.595Zm37.339-37.339L402.748,94.2l27.526,27.526-27.531,27.531Zm33.926-53.548-6.4,6.395L382.667,54.5a73.893,73.893,0,0,1,26.475,13.67ZM365.4,56.854,392.929,84.38,365.4,111.911,337.872,84.385Zm-18.68-5.3q2.371-.232,4.706-.36L328.054,74.571l-14.8-14.8a124.738,124.738,0,0,1,33.468-8.218ZM299.8,65.942l18.443,18.443-27.521,27.521-23.17-23.17A152.536,152.536,0,0,1,299.8,65.942ZM257.746,98.565l23.17,23.17L253.354,149.25l-18.443-18.443a152.568,152.568,0,0,1,22.83-32.242Zm-37.19,79.164a124.755,124.755,0,0,1,8.238-33.468l14.8,14.8L220.221,182.43c.052-1.55.18-3.12.33-4.7Zm16.61,62.425a73.934,73.934,0,0,1-13.706-26.506l20.106,20.106Zm9.819,9.819,6.4-6.4,20.106,20.106a73.916,73.916,0,0,1-26.516-13.706Zm43.74,11.327L263.2,233.774l27.531-27.531,27.526,27.526Zm18.685,5.3q-2.374.237-4.716.36l23.376-23.376,14.8,14.8a124.7,124.7,0,0,1-33.467,8.2Zm46.916-14.386-18.443-18.443,27.526-27.526,23.17,23.17A152.54,152.54,0,0,1,356.331,252.2Zm42.066-32.623-23.17-23.17L402.743,168.9l18.443,18.443a152.594,152.594,0,0,1-22.8,32.227Zm37.19-79.164a124.755,124.755,0,0,1-8.238,33.468l-14.8-14.8,23.381-23.381q-.123,2.317-.355,4.691Z" transform="translate(-206.128 -37.138)" fill="url(#a)"/></g></g></g><path d="M5.051,193.025l102.977,37.726a23.314,23.314,0,0,0,8.3,1.545,22.99,22.99,0,0,0,7.991-1.431l102.9-37.4a7.672,7.672,0,0,0,5.082-7.3V170.453a7.522,7.522,0,0,0-5.375-7.111l-57.667-19.535L139.312,10.859C138.54.031,121.775,0,116.158,0S93.781.031,92.988,10.859L63.12,143.653,5.5,162.884a7.672,7.672,0,0,0-5.484,7.167c0,.051,0,.1,0,.149v15.586A7.651,7.651,0,0,0,5.03,193.02Zm116.591,30.558a15.446,15.446,0,0,1-10.91-.082L7.754,185.833v-7.3L108,215.248a23.314,23.314,0,0,0,8.3,1.545,23.025,23.025,0,0,0,7.99-1.431l90.353-32.835.154-.051,9.747-3.548v7.25ZM72.8,135.889a118.717,118.717,0,0,0,43.359,6.735,118.748,118.748,0,0,0,43.359-6.735l6.92,30.775c-.577,3.568-17.64,11.425-50.284,11.425-32.546,0-49.6-7.816-50.217-11.662Zm8.13-36.181a113.177,113.177,0,0,0,35.228,4.824,113.182,113.182,0,0,0,35.234-4.824l6.405,28.473a106.226,106.226,0,0,1-41.634,6.694,106.03,106.03,0,0,1-41.613-6.693Zm9.525-42.318a96.149,96.149,0,0,0,25.688,3.089,96.155,96.155,0,0,0,25.688-3.089l7.816,34.729a104.043,104.043,0,0,1-33.468,4.67,103.976,103.976,0,0,1-33.5-4.67ZM98.8,20.4a41.984,41.984,0,0,0,17.388,2.822A41.963,41.963,0,0,0,133.551,20.4l6.621,29.421a88.164,88.164,0,0,1-24,2.9,88.159,88.159,0,0,1-24-2.9ZM116.158,7.723c10.7,0,15.488,1.936,15.488,3.872s-4.788,3.872-15.488,3.872S100.67,13.531,100.67,11.6,105.489,7.723,116.158,7.723ZM61.148,152.406,58.676,163.4c0,.057-.072.1-.1.16a8.609,8.609,0,0,0-.515,2.883c0,.16.057.3.067.458a2.261,2.261,0,0,0,.051.386c1.272,12.7,30.589,18.536,57.95,18.536s56.684-5.808,57.95-18.536c.026-.129.036-.252.051-.386a3.725,3.725,0,0,0,.067-.453,8.563,8.563,0,0,0-.515-2.883c0-.057-.067-.1-.093-.154l-2.43-10.771L224.5,170.659,121.626,208.1a15.447,15.447,0,0,1-10.91-.082L7.862,170.257Zm0,0" transform="translate(307.691 232.08)" fill="#f1a219"/></svg>