<svg id="_x33_0" enable-background="new 0 0 64 64" height="512" viewBox="0 0 64 64" width="512" xmlns="http://www.w3.org/2000/svg"><g><path d="m20 29c2.226 0 4.194-1.418 4.897-3.53l.051-.154-1.897-.633-.051.155c-.431 1.293-1.637 2.162-3 2.162s-2.569-.869-3-2.163l-.051-.154-1.897.633.051.153c.703 2.113 2.671 3.531 4.897 3.531z"/><path d="m32 52c2.226 0 4.194-1.418 4.897-3.53l.051-.154-1.897-.633-.051.155c-.431 1.293-1.637 2.162-3 2.162s-2.569-.869-3-2.163l-.051-.154-1.897.633.051.153c.703 2.113 2.671 3.531 4.897 3.531z"/><path d="m49.051 23.684-.051.154c-.431 1.293-1.637 2.162-3 2.162s-2.569-.869-3-2.163l-.051-.154-1.897.633.051.153c.703 2.113 2.671 3.531 4.897 3.531s4.194-1.418 4.897-3.53l.051-.154z"/><path d="m61.239 39.056c-.62-.931-1.38-1.743-2.239-2.419v-19.466c0-6.711-5.46-12.171-12.171-12.171-1.953 0-3.797.71-5.237 2.009-3.056.137-5.714 1.81-7.236 4.258-.505-1.364-1.292-2.618-2.352-3.677l-1.024-1.024c-.198-3.102-2.778-5.566-5.93-5.566h-5.219c-3.831 0-7.442 1.981-9.507 5.193l-.202.081c-3.111 1.245-5.122 4.214-5.122 7.566 0 .876.141 1.744.418 2.577l1.606 4.816c.123 2.095 1.85 3.767 3.976 3.767h.059c.3 2.696 1.793 5.037 3.941 6.478v3.72l-5.367 1.193c-2.05.456-3.919 1.481-5.404 2.966-2.083 2.082-3.229 4.851-3.229 7.795v15.848h62v-18.129c0-2.076-.609-4.087-1.761-5.815zm-.239 5.815v5.129h-4v-4h-2v15h-7.406c-1.998-3.526-5.604-5.759-9.649-5.977 1.279-.95 2.32-2.194 3.028-3.636l.149.149c.944.944 2.199 1.464 3.535 1.464h4.73l-1.299-3.897c-.611-1.832-2.041-3.213-3.803-3.797l.089-.268c.416-1.245.626-2.541.626-3.853 0-1.174-.176-2.307-.488-3.382.481.126.978.197 1.488.197 1.557 0 3.021-.606 4.121-1.707l.24-.24 3.208.401c2.449.306 4.638 1.659 6.006 3.712.932 1.398 1.425 3.025 1.425 4.705zm-41.963-4.42c-.014.244-.037.486-.037.734 0 .045.005.09.005.136l-3.313 1.325-1.315-5.261 1.304-.29zm2.567 6.549h.396c0 .795.103 1.565.279 2.307l-.815.815c-.558.558-1.331.878-2.121.878h-1.956l.422-1.265c.545-1.636 2.07-2.735 3.795-2.735zm.396-3.229v1.229h-.279l-.198-.594c-.347-1.041-.523-2.124-.523-3.221 0-5.616 4.569-10.185 10.185-10.185h1.63c5.616 0 10.185 4.569 10.185 10.185 0 1.097-.176 2.18-.522 3.22l-.199.595h-.279v-.319c0-2.58-2.014-4.769-4.585-4.983l-5.538-.461c-1.052-.089-1.877-.985-1.877-2.041 0-.883.563-1.663 1.4-1.942l.917-.306-.633-1.897-.916.306c-1.656.552-2.768 2.094-2.768 3.839 0 .111.005.222.014.331l-1.662.475c-2.562.732-4.352 3.105-4.352 5.769zm7-24.771c1.103 0 2 .897 2 2s-.897 2-2 2zm-.059 6h.059c2.104 0 3.815-1.638 3.97-3.704l.03-.06v7.773c-.062-.001-.123-.009-.185-.009h-1.63c-1.522 0-2.974.293-4.319.805 1.125-1.328 1.873-2.985 2.075-4.805zm17.059 5c-3.86 0-7-3.14-7-7v-3.261c0-2.164 1.138-4.111 2.976-5.181.463.786 1.08 1.484 1.824 2.042 1.204.903 2.695 1.4 4.2 1.4h3c1.103 0 2 .897 2 2v3c0 3.86-3.14 7-7 7zm0 2c.802 0 1.577-.116 2.317-.314l.597 2.985-.207.207c-1.446 1.446-3.968 1.446-5.414 0l-.183-.183c-.008-.012-.015-.025-.022-.037l.595-2.973c.74.199 1.515.315 2.317.315zm-4 15h.396c1.725 0 3.25 1.099 3.795 2.735l.422 1.265h-1.956c-.79 0-1.563-.32-2.121-.878l-.815-.815c.176-.742.279-1.512.279-2.307zm-18-3.229c0-1.776 1.193-3.358 2.901-3.846l1.772-.506c.667 1.004 1.768 1.705 3.037 1.811l5.538.461c1.544.128 2.752 1.442 2.752 2.99v2.319c0 4.411-3.589 8-8 8s-8-3.589-8-8zm13.292 13.229c3.178 0 6.072 1.506 7.909 4h-26.402c1.837-2.494 4.731-4 7.909-4zm4.708-48h.414l.293-.293c1.101-1.101 2.564-1.707 4.122-1.707 5.608 0 10.171 4.563 10.171 10.171v18.226c-.994-.47-2.066-.788-3.183-.928l-2.978-.373-.63-3.148c2.847-1.512 4.791-4.506 4.791-7.948v-3c0-2.206-1.794-4-4-4h-3c-1.075 0-2.141-.355-3-1-1.252-.939-2-2.434-2-4h-2c0 .575.072 1.144.21 1.692-2.584 1.384-4.21 4.061-4.21 7.047v3.261c0 3.442 1.944 6.436 4.791 7.949l-.332 1.659c-1.72-1.734-3.959-2.946-6.459-3.401v-13.207c0-3.86 3.14-7 7-7zm-12.743 2.157c.612-.611 1.067-1.335 1.362-2.121 1.534 1.551 2.381 3.603 2.381 5.786 0 1.271-.3 2.543-.869 3.679l-.013.025c-.733-.922-1.851-1.526-3.118-1.526h-.807l-2.877-1.151c-.799-.319-1.316-1.082-1.316-1.943 0-1.051.855-1.906 1.906-1.906.821 0 1.548.523 1.808 1.303l.338 1.013 1.897-.633-.338-1.013c-.15-.448-.381-.849-.664-1.203zm-18.392-3.026.819-.328.173-.289c1.671-2.784 4.726-4.514 7.974-4.514h5.219c2.178 0 3.95 1.772 3.95 3.95 0 1.055-.411 2.047-1.157 2.793l-.53.53c-.441-.171-.913-.273-1.407-.273-1.921 0-3.513 1.397-3.837 3.226l-2.497.713c-2.463.704-5.01 1.061-7.572 1.061-.551 0-1-.449-1-1s.449-1 1-1h1v-2h-1c-1.654 0-3 1.346-3 3 0 1.302.839 2.402 2 2.816v.184c-1.127 0-2.143.473-2.871 1.226l-.814-2.441c-.209-.629-.315-1.284-.315-1.945 0-2.529 1.517-4.77 3.865-5.709zm-1.865 12.869c0-1.103.897-2 2-2v4c-1.103 0-2-.897-2-2zm4 3v-7.035c2.41-.082 4.801-.44 7.121-1.103l2.115-.604c.382 1.096 1.212 1.998 2.337 2.448l2.427.971v5.323c0 3.86-3.14 7-7 7s-7-3.14-7-7zm7 9c.874 0 1.717-.131 2.517-.365-1.456 1.476-2.529 3.324-3.084 5.383l-2.433-2.432v-3.111c.94.334 1.947.525 3 .525zm-14.357 7.771c1.216-1.216 2.745-2.055 4.423-2.428l2.357-.524 1.884 7.535 4.902-1.961c.102.555.236 1.106.416 1.645l.089.268c-1.762.584-3.192 1.965-3.803 3.797l-1.298 3.897h4.73c1.335 0 2.591-.52 3.535-1.464l.149-.149c.708 1.442 1.75 2.686 3.028 3.636-4.046.218-7.651 2.451-9.649 5.977h-7.406v-14h-2v4h-4v-3.848c0-2.41.938-4.676 2.643-6.381zm-2.643 12.229h4v8h-4zm54 8v-9h4v9z"/></g></svg>