<svg id="Layer_1" enable-background="new 0 0 256 256" height="512" viewBox="0 0 256 256" width="512" xmlns="http://www.w3.org/2000/svg"><g><g><path d="m248 168.906h-240v-25.202c0-2.761 2.239-5 5-5h230c2.761 0 5 2.239 5 5z" fill="#a4c9ff"/></g><g><path d="m70.703 65.904c.797-14.987 12.004-30.678 27.317-37.015s29.63-1.207 34.552 11.414z" fill="#6bdddd"/></g><g><path d="m70.703 67.904c-.408 0-.812-.125-1.155-.367-.561-.397-.878-1.053-.842-1.739.849-15.963 12.855-32.263 28.55-38.757 8.565-3.544 17.223-3.814 24.378-.762 5.978 2.551 10.404 7.149 12.801 13.297.396 1.014-.093 2.158-1.099 2.575l-61.868 25.601c-.246.102-.506.152-.765.152zm40.235-39.734c-3.898 0-8.024.858-12.153 2.567-13.277 5.494-23.664 18.613-25.746 32.036l56.876-23.536c-2.108-4.228-5.482-7.415-9.851-9.279-2.797-1.193-5.883-1.788-9.126-1.788z" fill="#3762cc"/></g><g><path d="m65.839 20.266c-10.093-13.144-25.057-15.861-35.629-7.391l9.451 12.308 10.878-5.338-5.039 12.941 25.49 33.194c6.802-13.377 4.942-32.57-5.151-45.714z" fill="#6bdddd"/></g><g><path d="m70.989 67.981c-.618 0-1.205-.286-1.586-.782l-25.49-33.194c-.426-.555-.531-1.292-.277-1.944l3.178-8.16-6.271 3.077c-.854.419-1.888.178-2.467-.577l-9.452-12.308c-.663-.863-.514-2.099.336-2.779 5.15-4.126 11.284-5.896 17.735-5.115 7.723.934 15.085 5.497 20.731 12.849 10.344 13.471 12.593 33.591 5.347 47.84-.311.612-.915 1.021-1.599 1.085-.062.005-.124.008-.185.008zm-23.217-35.519 22.76 29.639c4.908-12.667 2.472-29.221-6.28-40.617-4.985-6.493-11.392-10.511-18.038-11.314-4.712-.571-9.231.503-13.171 3.11l7.207 9.386 9.408-4.617c.739-.364 1.626-.235 2.234.322.607.558.81 1.431.511 2.199z" fill="#3762cc"/></g><g><path d="m47.788 174.841-11.708-3.137c-1.681-.451-2.654-2.21-2.147-3.884l32.288-106.615 10.714 2.871-25.345 108.475c-.398 1.703-2.12 2.74-3.802 2.29z" fill="#ffea92"/></g><g><path d="m33.932 167.82 4.988-16.471 16.585 4.444-3.915 16.758c-.398 1.703-2.12 2.74-3.802 2.29l-11.708-3.137c-1.682-.451-2.655-2.211-2.148-3.884z" fill="#6bdddd"/></g><g><path d="m70.703 65.904c-1.985-14.303-14.231-24.227-29.75-22.982-15.52 1.246-29.143 13.246-32.953 28.015z" fill="#6bdddd"/></g><g><path d="m107.958 60.877c12.818 8.839 18.615 26.042 14.531 40.737l-12.002-8.276 1.543-14.294-8.958 9.182-32.37-22.321c8.872-11.395 24.439-13.867 37.256-5.028z" fill="#6bdddd"/></g><g><path d="m59.077 140.506-15.606-4.181 5.915-19.531 14.334 3.84z" fill="#6bdddd"/></g><g><path d="m67.291 105.348-13.355-3.578 5.915-19.531 12.083 3.237z" fill="#6bdddd"/></g><g><path d="m48.593 176.948c-.44 0-.884-.058-1.322-.176l-11.708-3.137c-1.338-.358-2.447-1.224-3.121-2.437-.677-1.217-.827-2.624-.423-3.958l32.288-106.615c.313-1.033 1.389-1.629 2.432-1.352l10.714 2.871c1.042.279 1.676 1.335 1.43 2.387l-25.345 108.475c-.318 1.359-1.151 2.501-2.346 3.217-.801.48-1.693.725-2.599.725zm18.981-113.31-31.728 104.761c-.118.39.006.704.091.856.083.149.279.415.661.517l11.708 3.137c.381.102.684-.029.83-.118.149-.089.414-.298.506-.696l24.904-106.589z" fill="#3762cc"/></g><g><path d="m8 72.937c-.588 0-1.149-.259-1.531-.713-.416-.495-.567-1.161-.406-1.787 4.08-15.811 18.685-28.22 34.729-29.508 16.316-1.306 29.724 9.079 31.892 24.7.076.545-.077 1.098-.421 1.527s-.851.698-1.399.742l-62.704 5.032c-.054.005-.107.007-.16.007zm35.511-28.117c-.791 0-1.59.032-2.398.097-13.463 1.08-25.801 10.901-30.345 23.791l57.578-4.621c-2.559-11.537-12.536-19.267-24.835-19.267z" fill="#3762cc"/></g><g><path d="m122.489 103.614c-.4 0-.797-.12-1.135-.354l-12.002-8.276c-.604-.417-.932-1.131-.853-1.861l.922-8.541-4.917 5.04c-.682.698-1.765.802-2.567.25l-32.37-22.321c-.453-.313-.758-.798-.841-1.342-.084-.544.06-1.099.398-1.533 9.688-12.444 26.499-14.734 39.969-5.445 13.251 9.137 19.695 27.188 15.322 42.919-.173.623-.637 1.124-1.245 1.344-.22.08-.451.12-.681.12zm-9.885-11.247 8.603 5.933c2.51-13.435-3.264-28.109-14.383-35.776-11.055-7.623-24.672-6.286-33.17 2.986l29.167 20.112 7.78-7.974c.596-.612 1.512-.775 2.284-.413.771.363 1.228 1.176 1.136 2.024z" fill="#3762cc"/></g><g><path d="m59.087 57.57c-1.307 4.877 1.587 9.89 6.464 11.196l.525.141c4.877 1.307 9.89-1.587 11.196-6.464 1.307-4.877-1.587-9.89-6.464-11.196l-.525-.141c-4.877-1.307-9.889 1.587-11.196 6.464z" fill="#eaa97d"/></g><g><path d="m68.44 71.22c-.952 0-1.919-.123-2.881-.381l-.525-.141c-2.875-.77-5.277-2.614-6.766-5.191-1.488-2.578-1.883-5.58-1.113-8.455 1.59-5.934 7.711-9.473 13.646-7.878l.525.14c2.875.771 5.278 2.614 6.766 5.191 1.488 2.578 1.883 5.58 1.113 8.455-1.332 4.973-5.846 8.26-10.765 8.26zm-.521-18.426c-3.153 0-6.046 2.107-6.9 5.294-.494 1.843-.24 3.767.714 5.419s2.494 2.833 4.336 3.328l.525.141c3.801 1.018 7.728-1.247 8.748-5.05.494-1.843.24-3.767-.714-5.419s-2.494-2.833-4.336-3.328l-.525-.14c-.618-.166-1.238-.245-1.848-.245zm-8.832 4.776h.01z" fill="#3762cc"/></g><g><path d="m63.519 69.876c-1.525 5.69 1.852 11.538 7.542 13.063l.613.164c5.69 1.525 11.538-1.852 13.063-7.542 1.525-5.69-1.852-11.538-7.542-13.063l-.613-.164c-5.69-1.524-11.539 1.852-13.063 7.542z" fill="#eaa97d"/></g><g><path d="m74.454 85.471c-1.1 0-2.207-.145-3.298-.437l-.612-.164c-6.747-1.808-10.764-8.767-8.957-15.512 1.808-6.746 8.77-10.764 15.512-8.956l.614.165c3.267.875 5.998 2.971 7.69 5.901 1.691 2.93 2.141 6.343 1.265 9.611-.875 3.268-2.971 5.999-5.901 7.69-1.952 1.127-4.118 1.702-6.313 1.702zm-9.004-15.077c-1.236 4.615 1.513 9.376 6.128 10.613l.612.164c2.236.6 4.572.292 6.576-.866 2.004-1.157 3.438-3.026 4.038-5.261.599-2.236.292-4.571-.866-6.576-1.157-2.004-3.026-3.438-5.262-4.038l-.614-.165c-4.616-1.237-9.375 1.513-10.612 6.129z" fill="#3762cc"/></g><g><path d="m243 247.977h-230c-2.761 0-5-2.239-5-5v-74.07h240v74.07c0 2.761-2.239 5-5 5z" fill="#eaa97d"/></g><g><path d="m8 166.688h240v5h-240z" fill="#e0ebfc"/></g><g><path d="m204.595 206.443h-113.19c-1.104 0-2-.896-2-2v-71.333c0-1.104.896-2 2-2h113.19c1.104 0 2 .896 2 2v71.333c0 1.105-.896 2-2 2zm-111.19-4h109.19v-67.333h-109.19z" fill="#3762cc"/></g><g><path d="m223.105 215.025c-.286 0-.573-.062-.841-.186l-18.511-8.582c-.707-.328-1.159-1.036-1.159-1.814v-71.333c0-.485.177-.954.497-1.319l18.511-21.096c.549-.626 1.429-.846 2.208-.553s1.295 1.039 1.295 1.872v101.01c0 .683-.348 1.318-.923 1.686-.327.209-.701.315-1.077.315zm-16.51-11.859 14.511 6.727v-92.567l-14.511 16.538z" fill="#3762cc"/></g><g><path d="m204.595 135.111h-113.19c-.576 0-1.124-.248-1.503-.681l-18.51-21.096c-.518-.59-.643-1.429-.318-2.144.324-.715 1.037-1.175 1.822-1.175h150.211c.785 0 1.498.459 1.822 1.175.324.715.2 1.554-.318 2.144l-18.511 21.096c-.382.433-.93.681-1.505.681zm-112.284-4h111.378l15.001-17.096h-141.38z" fill="#3762cc"/></g><g><path d="m72.895 215.025c-.375 0-.75-.106-1.077-.314-.575-.367-.923-1.003-.923-1.686v-101.01c0-.833.516-1.578 1.295-1.872.78-.293 1.66-.073 2.208.553l18.51 21.096c.32.365.497.833.497 1.319v71.333c0 .779-.452 1.487-1.159 1.814l-18.51 8.582c-.268.123-.555.185-.841.185zm2-97.698v92.566l14.51-6.727v-69.302z" fill="#3762cc"/></g><g><path d="m188.415 135.111h-80.83c-.689 0-1.329-.354-1.695-.938l-13.219-21.096c-.386-.617-.407-1.394-.055-2.031.353-.636 1.022-1.031 1.75-1.031h107.268c.728 0 1.397.395 1.75 1.031.352.637.331 1.414-.055 2.031l-13.219 21.096c-.366.583-1.006.938-1.695.938zm-79.723-4h78.616l10.712-17.096h-100.041z" fill="#3762cc"/></g><g><path d="m172.249 135.111h-48.498c-.833 0-1.579-.517-1.872-1.296l-7.931-21.096c-.231-.614-.146-1.303.228-1.842s.988-.861 1.645-.861h64.36c.656 0 1.271.322 1.645.861s.458 1.228.228 1.842l-7.931 21.096c-.295.779-1.041 1.296-1.874 1.296zm-47.113-4h45.729l6.427-17.096h-58.583z" fill="#3762cc"/></g><g><path d="m156.083 135.111h-16.166c-1.008 0-1.859-.751-1.984-1.751l-2.644-21.096c-.071-.569.105-1.142.485-1.572.379-.43.926-.677 1.5-.677h21.453c.574 0 1.12.247 1.5.677s.556 1.002.485 1.572l-2.644 21.096c-.126 1-.977 1.751-1.985 1.751zm-14.401-4h12.636l2.143-17.096h-16.921z" fill="#3762cc"/></g><g><path d="m107.563 206.443c-1.104 0-2-.896-2-2v-71.333c0-1.104.896-2 2-2s2 .896 2 2v71.333c0 1.105-.896 2-2 2z" fill="#3762cc"/></g><g><path d="m123.72 206.443c-1.104 0-2-.896-2-2v-71.333c0-1.104.896-2 2-2s2 .896 2 2v71.333c0 1.105-.895 2-2 2z" fill="#3762cc"/></g><g><path d="m139.963 206.443c-1.104 0-2-.896-2-2v-71.333c0-1.104.896-2 2-2s2 .896 2 2v71.333c0 1.105-.895 2-2 2z" fill="#3762cc"/></g><g><path d="m156.122 206.443c-1.104 0-2-.896-2-2v-71.333c0-1.104.896-2 2-2s2 .896 2 2v71.333c0 1.105-.896 2-2 2z" fill="#3762cc"/></g><g><path d="m172.279 206.443c-1.104 0-2-.896-2-2v-71.333c0-1.104.896-2 2-2s2 .896 2 2v71.333c0 1.105-.895 2-2 2z" fill="#3762cc"/></g><g><path d="m188.437 206.443c-1.104 0-2-.896-2-2v-71.333c0-1.104.896-2 2-2s2 .896 2 2v71.333c0 1.105-.895 2-2 2z" fill="#3762cc"/></g><g><path d="m188.437 206.443c-1.104 0-2-.896-2-2v-71.333c0-1.104.896-2 2-2s2 .896 2 2v71.333c0 1.105-.895 2-2 2z" fill="#3762cc"/></g><g><path d="m204.595 206.443c-1.104 0-2-.896-2-2v-71.333c0-1.104.896-2 2-2s2 .896 2 2v71.333c0 1.105-.896 2-2 2z" fill="#3762cc"/></g><g><path d="m204.595 151.269h-113.191c-1.104 0-2-.896-2-2s.896-2 2-2h113.19c1.104 0 2 .896 2 2s-.895 2-1.999 2z" fill="#3762cc"/></g><g><path d="m204.595 151.269h-113.191c-1.104 0-2-.896-2-2s.896-2 2-2h113.19c1.104 0 2 .896 2 2s-.895 2-1.999 2z" fill="#3762cc"/></g><g><path d="m204.595 167.426h-113.191c-1.104 0-2-.896-2-2s.896-2 2-2h113.19c1.104 0 2 .896 2 2s-.895 2-1.999 2z" fill="#3762cc"/></g><g><path d="m204.595 183.584h-113.191c-1.104 0-2-.896-2-2s.896-2 2-2h113.19c1.104 0 2 .896 2 2s-.895 2-1.999 2z" fill="#3762cc"/></g><g><path d="m204.595 199.742h-113.191c-1.104 0-2-.896-2-2s.896-2 2-2h113.19c1.104 0 2 .896 2 2s-.895 2-1.999 2z" fill="#3762cc"/></g><g><path d="m72.895 187.403c-.456 0-.902-.156-1.262-.448-.467-.38-.738-.95-.738-1.552v-45.41c0-.697.362-1.343.957-1.707s1.335-.39 1.955-.073l18.51 9.484c.668.342 1.088 1.029 1.088 1.78v32.068c0 .947-.665 1.765-1.592 1.958l-18.51 3.857c-.136.03-.273.043-.408.043zm2-44.137v39.678l14.51-3.023v-29.221z" fill="#3762cc"/></g><g><path d="m72.895 207.07c-.8 0-1.555-.483-1.863-1.273-.402-1.029.106-2.188 1.135-2.59l18.51-7.23c1.026-.401 2.188.106 2.59 1.135s-.106 2.188-1.135 2.59l-18.51 7.23c-.239.093-.485.138-.727.138z" fill="#3762cc"/></g><g><path d="m91.404 167.426h-18.51c-1.104 0-2-.896-2-2s.896-2 2-2h18.51c1.104 0 2 .896 2 2s-.895 2-2 2z" fill="#3762cc"/></g><g><path d="m223.105 187.403c-.136 0-.272-.014-.408-.042l-18.51-3.857c-.927-.193-1.592-1.011-1.592-1.958v-32.068c0-.75.42-1.438 1.088-1.78l18.51-9.484c.621-.318 1.36-.29 1.955.073s.957 1.01.957 1.707v45.41c0 .602-.271 1.172-.738 1.552-.36.292-.806.447-1.262.447zm-16.51-7.483 14.51 3.023v-39.678l-14.51 7.435z" fill="#3762cc"/></g><g><path d="m223.105 207.07c-.242 0-.488-.044-.727-.138l-18.51-7.23c-1.029-.402-1.537-1.562-1.135-2.59.401-1.029 1.563-1.538 2.59-1.135l18.51 7.23c1.029.402 1.537 1.562 1.135 2.59-.308.79-1.063 1.273-1.863 1.273z" fill="#3762cc"/></g><g><path d="m223.105 167.426h-18.51c-1.104 0-2-.896-2-2s.896-2 2-2h18.51c1.104 0 2 .896 2 2s-.895 2-2 2z" fill="#3762cc"/></g><g><path d="m213.851 210.734c-1.104 0-2-.896-2-2v-84.172h-127.702v84.172c0 1.104-.896 2-2 2s-2-.896-2-2v-86.172c0-1.104.896-2 2-2h131.701c1.104 0 2 .896 2 2v86.172c.001 1.105-.895 2-1.999 2z" fill="#3762cc"/></g><g><path d="m62.186 110.585v100.052c0 1.319 1.069 2.388 2.388 2.388h8.32v-96.004c0-2.765 2.241-5.006 5.006-5.006h140.2c2.765 0 5.006 2.241 5.006 5.006v96.004h8.32c1.319 0 2.388-1.069 2.388-2.388v-100.052c0-5.529-4.482-10.012-10.012-10.012h-151.604c-5.53 0-10.012 4.482-10.012 10.012z" fill="#a4c9ff"/></g><g><path d="m231.426 215.025h-8.32c-1.104 0-2-.896-2-2v-96.004c0-1.657-1.349-3.006-3.006-3.006h-140.2c-1.657 0-3.006 1.349-3.006 3.006v96.004c0 1.104-.896 2-2 2h-8.32c-2.419 0-4.388-1.969-4.388-4.388v-100.053c0-6.623 5.389-12.012 12.012-12.012h151.604c6.623 0 12.012 5.389 12.012 12.012v100.052c0 2.42-1.969 4.389-4.388 4.389zm-6.321-4h6.32c.214 0 .388-.174.388-.388v-100.053c0-4.417-3.594-8.012-8.012-8.012h-151.603c-4.417 0-8.012 3.594-8.012 8.012v100.052c0 .214.174.388.388.388h6.32v-94.004c0-3.863 3.143-7.006 7.006-7.006h140.2c3.863 0 7.006 3.143 7.006 7.006v94.005z" fill="#3762cc"/></g><g><circle cx="148" cy="198.806" fill="#e0ebfc" r="39.17"/></g><g><path d="m108.83 198.843 11.149-8.1-4.484-13.8c-4.208 6.244-6.665 13.767-6.665 21.864z" fill="#4671c6"/></g><g><path d="m135.183 161.784 12.817 9.312 12.817-9.312c-4.016-1.39-8.328-2.148-12.817-2.148s-8.801.757-12.817 2.148z" fill="#4671c6"/></g><g><path d="m131.022 223.314-13.963-.488c4.474 5.755 10.517 10.229 17.488 12.779z" fill="#4671c6"/></g><g><path d="m161.456 235.604c6.97-2.55 13.012-7.024 17.485-12.779l-13.961.488z" fill="#4671c6"/></g><g><path d="m175.942 190.742 11.227 8.157c.001 0 0 0 .001-.001.019-8.166-2.462-15.751-6.719-22.034z" fill="#4671c6"/></g><g><path d="m148 183.5-15.522 11.277 5.929 18.248h19.186l5.929-18.248z" fill="#4671c6"/></g><g><path d="m157.593 215.025h-19.187c-.867 0-1.634-.558-1.902-1.382l-5.929-18.248c-.268-.824.026-1.727.727-2.236l15.522-11.277c.701-.509 1.65-.509 2.352 0l15.522 11.277c.701.509.994 1.412.727 2.236l-5.929 18.248c-.268.824-1.036 1.382-1.903 1.382zm-17.733-4h16.28l5.031-15.483-13.171-9.57-13.171 9.569z" fill="#3762cc"/></g><g><path d="m148 239.977c-22.702 0-41.17-18.469-41.17-41.17 0-22.702 18.469-41.17 41.17-41.17s41.17 18.469 41.17 41.17-18.468 41.17-41.17 41.17zm0-78.341c-20.496 0-37.17 16.675-37.17 37.17s16.675 37.17 37.17 37.17 37.17-16.674 37.17-37.17-16.674-37.17-37.17-37.17z" fill="#3762cc"/></g><g><path d="m186.96 200.748c-.408 0-.819-.124-1.174-.382l-11.019-8.005c-.701-.509-.994-1.412-.727-2.236l4.386-13.498c.342-1.05 1.471-1.623 2.521-1.284 1.05.342 1.625 1.47 1.284 2.521l-3.937 12.115 9.844 7.151c.894.649 1.091 1.9.442 2.794-.392.538-1.002.824-1.62.824z" fill="#3762cc"/></g><g><path d="m163.521 196.778c-.843 0-1.627-.537-1.902-1.382-.341-1.051.234-2.179 1.284-2.521l12.42-4.035c1.053-.339 2.179.233 2.521 1.284s-.234 2.179-1.284 2.521l-12.42 4.035c-.205.066-.413.098-.619.098z" fill="#3762cc"/></g><g><path d="m161.521 237.38c-.183 0-.368-.025-.552-.078-1.062-.304-1.676-1.412-1.371-2.474l3.46-12.066c.239-.833.987-1.417 1.853-1.448l13.625-.476c1.098-.018 2.03.825 2.069 1.929.038 1.104-.825 2.03-1.929 2.069l-12.173.425-3.06 10.669c-.252.878-1.052 1.45-1.922 1.45z" fill="#3762cc"/></g><g><path d="m164.982 225.313c-.622 0-1.235-.29-1.626-.833l-7.387-10.288c-.645-.897-.439-2.147.458-2.791.896-.645 2.146-.439 2.791.458l7.387 10.288c.645.897.439 2.147-.458 2.791-.353.253-.761.375-1.165.375z" fill="#3762cc"/></g><g><path d="m131.023 225.313c-.024 0-.047 0-.071-.001l-13.725-.479c-1.104-.039-1.967-.965-1.929-2.069.039-1.104.958-1.966 2.069-1.929l13.724.479c1.104.039 1.968.964 1.93 2.068-.038 1.081-.925 1.931-1.998 1.931z" fill="#3762cc"/></g><g><path d="m134.35 236.923c-.87 0-1.67-.572-1.921-1.449l-3.329-11.609c-.169-.588-.059-1.221.297-1.717l7.385-10.289c.645-.898 1.894-1.102 2.791-.459.897.645 1.103 1.894.459 2.791l-6.82 9.502 3.062 10.679c.305 1.062-.31 2.169-1.371 2.474-.185.052-.371.077-.553.077z" fill="#3762cc"/></g><g><path d="m109.14 200.619c-.618 0-1.228-.286-1.62-.825-.649-.894-.451-2.144.442-2.793l9.666-7.022-3.92-12.063c-.341-1.051.234-2.179 1.284-2.521 1.051-.339 2.179.233 2.521 1.284l4.369 13.445c.268.824-.026 1.727-.727 2.236l-10.841 7.876c-.355.259-.767.383-1.174.383z" fill="#3762cc"/></g><g><path d="m132.479 196.778c-.204 0-.411-.031-.615-.097l-12.499-4.035c-1.051-.339-1.628-1.466-1.289-2.518.34-1.051 1.467-1.627 2.518-1.289l12.499 4.035c1.051.339 1.628 1.466 1.289 2.518-.274.847-1.059 1.386-1.903 1.386z" fill="#3762cc"/></g><g><path d="m148 173.096c-.413 0-.825-.127-1.176-.382l-12.607-9.16c-.894-.649-1.091-1.9-.442-2.794.65-.893 1.901-1.09 2.794-.442l11.431 8.306 11.404-8.286c.894-.649 2.145-.451 2.793.442.649.894.452 2.144-.442 2.793l-12.58 9.14c-.35.256-.762.383-1.175.383z" fill="#3762cc"/></g><g><path d="m148 185.5c-1.104 0-2-.896-2-2v-12.404c0-1.104.896-2 2-2s2 .896 2 2v12.404c0 1.104-.896 2-2 2z" fill="#3762cc"/></g></g></svg>