<svg xmlns="http://www.w3.org/2000/svg" xmlns:xlink="http://www.w3.org/1999/xlink" width="1001" height="1001" viewBox="0 0 1001 1001"><defs><clipPath id="a"><path d="M146.772,798.856C242.53,1019.5,534.983,1070,731.84,1020.364c38.65-9.746,313.182-83.972,373.192-344.3,42.127-182.75-41.495-370.318-182.984-469.5C724.016,67.749,466.014,139.5,317.718,264.35,183.517,377.33,60.482,600.027,146.772,798.856Z"/></clipPath></defs><g transform="translate(-604 -87)"><g transform="translate(604 87)" fill="#6dacf6" stroke="#707070" stroke-width="1"><rect width="1001" height="1001" stroke="none"/><rect x="0.5" y="0.5" width="1000" height="1000" fill="none"/></g><g transform="translate(487.96 3.119)"><g clip-path="url(#a)"><path d="M546.454,344.163c-1.067,0-2.122.052-3.182.081A117.483,117.483,0,0,0,334.949,300.91a150.332,150.332,0,1,0,3.526,277.355,102.435,102.435,0,0,0,158.934-9.856,117.487,117.487,0,1,0,49.045-224.246Z" fill="#fff"/></g><g clip-path="url(#a)"><path d="M793.769,524.272c.844,0,1.677-.041,2.515-.064A92.846,92.846,0,0,0,960.92,558.455a118.806,118.806,0,1,0-2.786-219.189,80.953,80.953,0,0,0-125.6,7.789,92.848,92.848,0,1,0-38.762,177.217Z" fill="#fff"/></g><g clip-path="url(#a)"><path d="M160.7,989.064s190.4-485.234,288.239-511.38c87.228-23.31,321.643,321.643,321.643,321.643s99.706-150.8,168.59-212.912a37.489,37.489,0,0,1,55.463,5.914c43.115,59.567,141.6,205.177,223.56,396.736H160.7Z" fill="#ffbe55"/></g><g clip-path="url(#a)"><path d="M160.7,989.064s190.4-485.234,288.239-511.38c87.228-23.31,321.643,321.643,321.643,321.643s99.706-150.8,168.59-212.912a37.489,37.489,0,0,1,55.463,5.914c43.115,59.567,141.6,205.177,223.56,396.736H160.7Z" fill="#282828" opacity="0.25"/></g><g clip-path="url(#a)"><path d="M375.85,815.778,304.476,1046.95h85.473Z" fill="#ffbe55"/></g><g clip-path="url(#a)"><path d="M1171.91,1046.95c-55.032-42.991-101.936-78.175-136.692-103.837-125.071-92.346-300.347-214.6-436.25-224.663a283.952,283.952,0,0,0-37.693-.233c-34.495,2.226-116.356,7.508-166.508,68.6-81.751,99.592-7.955,253.512-4.815,260.128Z" fill="#ffbe55"/></g><g clip-path="url(#a)"><path d="M1171.91,1046.95c-55.032-42.991-101.936-78.175-136.692-103.837-125.071-92.346-300.347-214.6-436.25-224.663a283.952,283.952,0,0,0-37.693-.233c-34.495,2.226-116.356,7.508-166.508,68.6-81.751,99.592-7.955,253.512-4.815,260.128Z" fill="#fff" opacity="0.5"/></g><g clip-path="url(#a)"><path d="M478.016,867.092l171.8,179.858H749.5L524.841,867.092Z" fill="#0b4870" opacity="0.5"/></g><g clip-path="url(#a)"><path d="M607.754,867.092,843.088,1046.95h99.683L654.579,867.092Z" fill="#0b4870" opacity="0.5"/></g><g clip-path="url(#a)"><path d="M649.813,766.986l301.93,222.078s80.371-19.262,144.92,0L662.486,766.986Z" fill="#0b4870" opacity="0.5"/></g><g clip-path="url(#a)"><path d="M649.813,766.986V321.532h12.672V766.986a8.226,8.226,0,0,1-6.889,3.38A7.989,7.989,0,0,1,649.813,766.986Z" fill="#0b4870"/></g><g clip-path="url(#a)"><path d="M577.431,488.581a85.841,85.841,0,0,0,6.422-10.548c4.485-8.721,11.4-22.158,5.977-30.381a12.914,12.914,0,0,0-5.713-4.624c-.234.73-.6,1.858-1.045,3.233-6.733,20.664-9.31,25.2-8.576,32.464A28.213,28.213,0,0,0,577.431,488.581Z" fill="#0b4870"/><path d="M576.249,479.407c-4.346,15.575-25.318,16.349-25.318,16.349" fill="#efb68f"/><path d="M553.3,502.944s-25.777,8.8-31.095,12.183c0,0,35.147,37.055,86.533-1.3-4.09-2.528-4.82-2.627-10.365-5.051-7.155-3.128-17.257-7.346-22.939-8.7Z" fill="#efb68f"/><path d="M552.188,495.66l1.636,10.687,22.425-.884,3.541-27.779h-5.374Z" fill="#efb68f"/><path d="M585.445,471.211a11.152,11.152,0,0,1-5.656,6.472c-7.772,3.86-9.578-6.01-6.222-10.5C577.561,461.83,587.816,463.791,585.445,471.211Z" fill="#efb68f"/><path d="M548.987,504.929s13.675,16.986,34.109-2.406c3.378.277,7.013,2.164,11.473,3.419a62.994,62.994,0,0,1,14.172,5.936l-2.7,123.1H529.684l-8.208-119.432c3.1-1.725,6.729-4.628,10.881-6.207A83.16,83.16,0,0,1,548.987,504.929Z" fill="#ffdc35"/><path d="M610.842,674.165c-5.577,8.242-11.239,10.833-14.788,11.794-1.095.3-4.592.384-11.579.687-5.383.233-10.985.356-16.88.343q-5.113-.012-10.036-.154c-10.384-.295-15.577-.386-17.6-.905-3.72-.956-10.255-3.826-16.541-14.388q3.031-18.279,6.062-36.559h76.507Z" fill="#0b4870"/><path d="M628.776,853.359l-6.06-37.581-14.962,2.036,6.027,37.538Z" fill="#ffbe55"/><path d="M611.4,852.215,608.741,864h46.825v-.344a7.037,7.037,0,0,0-4.011-6.353l-21.731-8.671a2.078,2.078,0,0,0-2.382.272c-2.808,2.964-5.893,7.792-14.466,2.554A1.076,1.076,0,0,0,611.4,852.215Z" fill="#0b4870"/><rect width="46.825" height="3.092" transform="translate(608.741 863.999)" fill="#ffbe55"/><path d="M588.193,747.445l30.463-4.026-8.384-74.306a18.685,18.685,0,0,0-21.015-16.428h0a34.674,34.674,0,0,0-21.663,21.424Q577.894,710.776,588.193,747.445Z" fill="#0b4870"/><path d="M604.533,838.641l25.632-3.388L615.909,717.879a16.513,16.513,0,0,0-18.556-14.371h0a16.513,16.513,0,0,0-14.134,19.033Z" fill="#0b4870"/><path d="M505.845,853.359l6.059-37.581,14.962,2.036-6.027,37.538Z" fill="#ffbe55"/><path d="M545.753,747.445l-29.788-4.026,7.709-74.306a18.684,18.684,0,0,1,21.014-16.428h0a19,19,0,0,1,5.085,1.466,21.514,21.514,0,0,1,7.683,6.215c3.3,4.551,3.419,10.128,3.09,14.577C559.744,685.783,554.589,712.467,545.753,747.445Z" fill="#0b4870"/><path d="M530.088,838.641l-25.632-3.388,14.256-117.374a16.513,16.513,0,0,1,18.556-14.371h0A16.513,16.513,0,0,1,551.4,722.541Z" fill="#0b4870"/><path d="M601.279,628.124a5.224,5.224,0,0,1,3.295-.236h0a3.124,3.124,0,0,1,4.853-.468l1.019,1.012a4.067,4.067,0,0,1,.4,5.133l-.064.09a33.75,33.75,0,0,1-6.4,10.042c-5.738,6.153-10.976,6.032-12.549,3.9-1.486-2.016,4.943-9.65,7.3-12.516l-3.639,1.172a1.045,1.045,0,0,1-1.222-.5,1.34,1.34,0,0,1,.129-1.535l2.856-3.283A9.34,9.34,0,0,1,601.279,628.124Z" fill="#efb68f"/><path d="M606.21,626.642l29.758-50.171c2.6-4.322,8.018-5.085,11.5-1.621h0a9.325,9.325,0,0,1,.7,12.057l-36.62,44.8Z" fill="#efb68f"/><path d="M615.069,520.089c7.422,10.013,17.506,20.516,32.266,48.1,1.563,2.922,4.435,8.457,2.964,13.95a12.069,12.069,0,0,1-3.18,5.406,16.756,16.756,0,0,1-6.483-2.407,19.9,19.9,0,0,1-6.231-6.346L594.277,530.4c-3.691-4.8-3.154-12.037,1.173-15.807C599.478,511.084,611.7,515.55,615.069,520.089Z" fill="#efb68f"/><path d="M585.511,504.1a61.646,61.646,0,0,1,17.373,4.762c19.441,8.578,28.912,25.014,32.26,31.655q-8.824,11.184-17.65,22.369a134.572,134.572,0,0,1-11.341-11.017c-7.335-8.013-13.7-14.969-17.52-25.339A54.648,54.648,0,0,1,585.511,504.1Z" fill="#ffbe55"/><path d="M533.623,628.124a5.165,5.165,0,0,0-3.276-.236h0a3.1,3.1,0,0,0-4.825-.468l-1.013,1.012a4.086,4.086,0,0,0-.4,5.133l.063.09a33.8,33.8,0,0,0,6.366,10.042c5.705,6.153,10.913,6.032,12.476,3.9,1.477-2.016-4.915-9.65-7.256-12.516l3.618,1.172a1.037,1.037,0,0,0,1.215-.5,1.348,1.348,0,0,0-.128-1.535l-2.84-3.283A9.27,9.27,0,0,0,533.623,628.124Z" fill="#efb68f"/><path d="M528.721,626.642l-29.585-50.171c-2.587-4.322-7.972-5.085-11.433-1.621h0a9.366,9.366,0,0,0-.692,12.057l36.408,44.8Z" fill="#efb68f"/><path d="M519.914,520.089c-7.379,10.013-17.4,20.516-32.079,48.1-1.554,2.922-4.409,8.457-2.947,13.95a12.088,12.088,0,0,0,3.162,5.406,16.591,16.591,0,0,0,6.445-2.407,19.856,19.856,0,0,0,6.2-6.346l39.9-48.394c3.67-4.8,3.136-12.037-1.167-15.807C535.414,511.083,523.259,515.55,519.914,520.089Z" fill="#efb68f"/><path d="M549.336,504.1a61.071,61.071,0,0,0-17.373,4.762c-18.944,8.391-28.245,24.281-31.57,30.779l17.951,25.514a125.384,125.384,0,0,0,10.045-10.369c6.428-7.448,13.7-15.869,17.826-28.256A63.352,63.352,0,0,0,549.336,504.1Z" fill="#ffbe55"/><path d="M522.181,852.215,524.841,864H478.016v-.344a7.037,7.037,0,0,1,4.011-6.353l21.731-8.671a2.078,2.078,0,0,1,2.382.272c2.808,2.964,5.892,7.792,14.466,2.554A1.076,1.076,0,0,1,522.181,852.215Z" fill="#0b4870"/><rect width="46.825" height="3.092" transform="translate(524.841 867.092) rotate(180)" fill="#ffbe55"/><path d="M552.188,495.66a7.159,7.159,0,0,0,3.891,3.038c5.558,1.491,11.9-6.442,14.446-9.631a40.783,40.783,0,0,0,5.723-9.66C575.035,481.371,573.438,483.529,552.188,495.66Z" fill="#e0a882"/><path d="M579.509,443.015c-8.389-10.267-27.059-12.114-36.327-4.021-4.206,3.672-5.342,8.4-7.018,15.379-.512,2.133-4.116,18.114,3.851,32.834,3.083,5.7,5.762,7.255,7.631,7.908,3.768,1.315,7.363-.019,10.681-1.17a30.9,30.9,0,0,0,12.344-8.173C577.868,478.17,590.542,456.519,579.509,443.015Z" fill="#efb68f"/><path d="M568.227,449.03s12.383,4.812,6.728,20.637l4.214.572s.9-6.265,6.407-5.324c0,0,4.455-22.007-6.772-27.359Z" fill="#0b4870"/><path d="M568.227,449.03s-14.5-9.8-26.472-3.872a11.97,11.97,0,0,1-6.531-4.009c-2.955-3.684-3.307-9.121-.964-13.937a41.266,41.266,0,0,0,5.155,1.573,26.953,26.953,0,0,0,9.227.378c4.032-.323,11.549-.924,16.853.2,3.493.744,8.224,2.706,13.309,8.188a7.8,7.8,0,1,1-10.577,11.474Z" fill="#0b4870"/><path d="M541.755,445.159s-4.006,5.229-6.349,16.351c0,0,1.052-17.364,5.006-18.242S541.755,445.159,541.755,445.159Z" fill="#0b4870"/></g><g clip-path="url(#a)"><path d="M871.754,426.973a226.91,226.91,0,0,0-65.008-2.646c-39.276,4.134-54.8,16.453-88.257,17.693-16.906.626-41.536-1.46-72.02-15.046V299.73c20.384,10.953,46.847,20.466,76.844,17.917,25.756-2.188,37.29-11.839,67.181-17.917,20.216-4.11,47.385-6.293,81.26,0Z" fill="#ffdc35"/></g><g clip-path="url(#a)"><path d="M760.8,332.126l11.965,24.245,26.756,3.887L780.163,379.13l4.571,26.647L760.8,393.2l-23.93,12.581,4.57-26.647-19.36-18.872,26.755-3.887Z" fill="#fff"/></g></g></g></svg>