<svg xmlns="http://www.w3.org/2000/svg" width="448.001" height="496.001" viewBox="0 0 448.001 496.001">
  <g id="guru" transform="translate(0 0)">
    <path id="Path_101" data-name="Path 101" d="M448,436a60,60,0,0,1-60,60H108a60,60,0,0,1,0-120h18.09a35.987,35.987,0,0,0,29.95,16H339.96a36.007,36.007,0,0,0,29.95-16H388A60,60,0,0,1,448,436Z" fill="#ffe4cc"/>
    <path id="Path_102" data-name="Path 102" d="M388,496H376V436L264,464l-.87-2.62A31.273,31.273,0,0,0,233.47,440c-11.853,0-17.61,5.423-33.47,16l-80-20v60H108a60,60,0,0,1,0-120h18.09a35.987,35.987,0,0,0,29.95,16H339.96a36.007,36.007,0,0,0,29.95-16c18.741,0,40.418-2.512,60.52,17.57C467.867,431.043,441.636,496,388,496Z" fill="#7db1ef"/>
    <path id="Path_103" data-name="Path 103" d="M369.91,376a36.006,36.006,0,0,1-29.95,16H156.04a36,36,0,0,1-29.95-16c-2.47.009-21.52.078-21.85.12A60,60,0,0,0,108,496h12V480H108c-39.407,0-58.539-47.716-31.11-75.11C86.308,395.46,97.319,392,110.08,392A35.907,35.907,0,0,0,140,408H336a35.981,35.981,0,0,0,35.76-31.88c-3.123-.2-5.663-.12-1.85-.12Z" fill="#5ca4f9"/>
    <g id="Group_5" data-name="Group 5">
      <path id="Path_104" data-name="Path 104" fill="#f9cfac"/>
      <path id="Path_105" data-name="Path 105" d="M208,480c-12.813,0-18.251-16.312-8-24L167.428,469.03C160.194,471.924,159.676,480,160,480a37.878,37.878,0,0,1-36.421-27.472L120,440v56H376V480Z" fill="#f9cfac"/>
      <path id="Path_106" data-name="Path 106" d="M376,355.961A36.076,36.076,0,0,1,339.96,392H156.04a36.052,36.052,0,0,1-35.18-43.86l10.31-46.43a119.682,119.682,0,0,1,233.66,0c11.09,49.907,11.17,48.906,11.17,54.25Z" fill="#f9cfac"/>
    </g>
    <path id="Path_107" data-name="Path 107" d="M375.14,348.141l-10.31-46.43a119.382,119.382,0,0,0-29.34-55.69,119.728,119.728,0,0,0-40.18-23.46,9.727,9.727,0,0,1-2.36,2.2c-.825-.351-3.275-1.3-5.86-2.2-9.1,12.553-69.076,12.352-78.17.01-2.11.72-4.2,1.51-6.26,2.35a119.6,119.6,0,0,0-55.49,76.79c-11.214,50.454-10.646,47.548-10.94,50.26A36.036,36.036,0,0,0,172.04,384c198.7,0,185.071.48,191.92-1.18,9.166-7.724,14.141-21.38,11.18-34.68Z" fill="#ffe4cc"/>
    <path id="Path_108" data-name="Path 108" d="M276,372a27.887,27.887,0,0,1-8.43,20H240a8,8,0,0,1,8-8,12,12,0,0,0,0-24,8,8,0,0,1-8-8C240,335.932,276,344.818,276,372Z" fill="#f9cfac"/>
    <path id="Path_109" data-name="Path 109" d="M305.78,288,320,352h-6.06A81.938,81.938,0,0,1,256,328H240a81.968,81.968,0,0,1-57.94,24H168l7.73-34.78c14.88-2.626,19.993-3.429,25.03-4.64a123.971,123.971,0,0,0,92.71-95.61A119.7,119.7,0,0,1,360.91,288Z" fill="#7db1ef"/>
    <path id="Path_110" data-name="Path 110" d="M360.91,288h-3.13a119.768,119.768,0,0,0-66.05-63.73q.99-3.615,1.74-7.3A119.707,119.707,0,0,1,360.91,288Z" fill="#5ca4f9"/>
    <path id="Path_111" data-name="Path 111" d="M336,352H320c-12.664-57.023-9.477-42.684-14.22-64H320Z" fill="#f9cfac"/>
    <path id="Path_112" data-name="Path 112" d="M320,143.741c-3.914,7.789-7.218,11.711-16.5,24.26h-1.82a56.019,56.019,0,0,1-107.36,0H192.5l-9.32-12.6c-32.88-44.47-9.2-105.12,40.82-119.99V24c0-21.309,25.887-32.019,40.97-16.97,8.318,8.337,7.03,16.894,7.03,28.38C317.77,49.021,341.48,100.951,320,143.741Z" fill="#f9cfac"/>
    <path id="Path_113" data-name="Path 113" d="M304,112v24c0,30.874-25.256,56.919-56.13,56.849A39.784,39.784,0,0,1,208,152.823C208,119.594,234.235,96,264,96h23.977A16.024,16.024,0,0,1,304,112Z" fill="#ffe4cc"/>
    <path id="Path_114" data-name="Path 114" d="M248,0a32.036,32.036,0,0,0-32,32V48h64V32A32.037,32.037,0,0,0,248,0Z" fill="#797a7a"/>
    <path id="Path_115" data-name="Path 115" d="M312.82,155.4,303.5,168h-1.82c3.127-10.5,2.32-14.718,2.32-56a55.968,55.968,0,0,0-2.32-16h-4.74A14.465,14.465,0,0,1,284,88a14.471,14.471,0,0,0-12.94-8H224.94A14.465,14.465,0,0,0,212,88a14.471,14.471,0,0,1-12.94,8h-4.74c-3.127,10.5-2.32,14.718-2.32,56a55.968,55.968,0,0,0,2.32,16H192.5l-9.32-12.6c-32.88-44.47-9.2-105.12,40.82-119.99a85.99,85.99,0,0,1,48,0C322.02,50.281,345.7,110.931,312.82,155.4Z" fill="#6d6d6d"/>
    <path id="Path_116" data-name="Path 116" d="M388,496H376V480h20a52.012,52.012,0,0,0,51.86-48.08A59.994,59.994,0,0,1,388,496Z" fill="#5ca4f9"/>
    <path id="Path_117" data-name="Path 117" d="M321,352c-7.24,0-10.45.1-15.77-.47a81.958,81.958,0,0,1-44.11-18.82,20.251,20.251,0,0,0-16.62-4.46c-10.3,1.635-11.268,9.283-31.08,17.51C195.7,353.107,182.357,352,168,352l7.73-34.78,16.65-2.93-1.8,4.84a5.738,5.738,0,0,0,5.11,7.72,81.608,81.608,0,0,0,17.73-5.09c19.618-8.146,20.844-15.886,31.08-17.51a20.211,20.211,0,0,1,16.62,4.46C275.753,321.033,294.056,328,315,328Z" fill="#5ca4f9"/>
    <path id="Path_118" data-name="Path 118" d="M199.81,281.741l-7.22,32.51-16.86,2.97,8.46-38.96a8,8,0,0,1,15.62,3.48Z" fill="#f9cfac"/>
  </g>
</svg>
