<svg height="512" viewBox="0 0 58 59" width="512" xmlns="http://www.w3.org/2000/svg"><g id="Page-1" fill="none" fill-rule="evenodd"><g id="029---Namaste" fill-rule="nonzero"><path id="Shape" d="m16 43.49c-7.02597988-5.5381639-9.7719469-14.9194996-6.84112991-23.372071 2.93081701-8.4525715 10.89486521-14.1203515 19.84112991-14.1203515s16.9103129 5.66778 19.8411299 14.1203515c2.930817 8.4525714.18485 17.8339071-6.8411299 23.372071z" fill="#f0c419"/><path id="Shape" d="m29 32.17v16.83c0 3-2 6-5 6-.99 0-6.83 3.89-7 4h-17v-4c6.99-3.98 16-6 16-7v-5l.85-12.24c.1180447-2.3352489.7208261-4.6203694 1.77-6.71l4.7-12.39c.6239497-1.2403496 2.0174991-1.89048879 3.3688481-1.5716846 1.3513491.3188042 2.3073745 1.5232444 2.3111519 2.9116846.0014252.0734724-.0019152.1469599-.01.22-.0456139.313605-.1226688.6218243-.23.92-.71 2.21-2.84 7.74-3.54 12.86-.1.71-.17 1.43-.2 2.12v.05c.0217783-.0112372.0455723-.0180355.07-.02.4681906-.14981.9656764-.1841194 1.45-.1 1.4647076.3113157 2.4989842 1.6230812 2.46 3.12z" fill="#f9c795"/><path id="Shape" d="m27.17 32.17v16.83c0 3-2 6-5 6-.99 0-6.83 3.89-7 4h-15.17v-4c6.99-3.98 16-6 16-7v-5l.85-12.24c.1180447-2.3352489.7208261-4.6203694 1.77-6.71l4.7-12.39c.3578987-.7209639.9930086-1.2658594 1.76-1.51.1487617.0418364.292847.0988003.43.17 1.017742.5052041 1.6610301 1.5437655 1.66 2.68.0014252.0734724-.0019152.1469599-.01.22-.0456139.313605-.1226688.6218243-.23.92-.71 2.21-2.84 7.74-3.54 12.86-.1.73-.17 1.46-.2 2.17.0217783-.0112372.0455723-.0180355.07-.02.4681906-.14981.9656764-.1841194 1.45-.1.1045682.0174812.2080662.0408517.31.07.02.01.05.02.07.03 1.2697851.455725 2.1069198 1.6711802 2.08 3.02z" fill="#fdd7ad"/><path id="Shape" d="m25.02 29.17c.0217783-.0112372.0455723-.0180355.07-.02-.161687.0716833-.3103698.1696788-.44.29-.4136114.3768875-.6495317.9104302-.65 1.47v12c0 .5522847-.4477153 1-1 1s-1-.4477153-1-1v-12c.001929-1.123898.4775339-2.1949168 1.31-2.95.5348288-.4916462 1.196348-.8241375 1.91-.96-.1.73-.17 1.46-.2 2.17z" fill="#f9c795"/><path id="Shape" d="m58 55v4h-17c-.17-.11-6.01-4-7-4-3 0-5-3-5-6v-16.83c-.0535608-.9691495.3650757-1.9043262 1.12359-2.5099462.7585143-.6056201 1.7631652-.8068378 2.69641-.5400538.06.02.11.03.16.05.0016261-.0303454-.0017524-.0607516-.01-.09-.03-.68-.09-1.38-.19-2.08-.7-5.12-2.83-10.65-3.54-12.86-.1073312-.2981757-.1843861-.606395-.23-.92-.0080848-.0730401-.0114252-.1465276-.01-.22-.0010301-1.1362345.642258-2.1747959 1.66-2.68.6797049-.33677026 1.4605372-.40807915 2.19-.2.797453.2368127 1.4604306.7947283 1.83 1.54l4.7 12.39c1.0491739 2.0896306 1.6519553 4.3747511 1.77 6.71l.85 12.24v5c0 1 9.01 3.02 16 7z" fill="#f9c795"/><path id="Shape" d="m58 55v4h-15.33c-.17-.11-6.01-4-7-4-3 0-5-3-5-6v-16.83c-.0267921-1.3772464.8438618-2.6123602 2.15-3.05.0511361-.008635.1013542-.0220265.15-.04l.16-.03c.5087123-.0881112 1.0314158-.0468451 1.52.12-.03-.71-.1-1.44-.2-2.17-.7-5.12-2.83-10.65-3.54-12.86-.1073312-.2981757-.1843861-.606395-.23-.92-.0080848-.0730401-.0114252-.1465276-.01-.22-.0010301-1.1362345.642258-2.1747959 1.66-2.68.165462-.085562.3398475-.1526333.52-.2.797453.2368127 1.4604306.7947283 1.83 1.54l4.7 12.39c1.0491739 2.0896306 1.6519553 4.3747511 1.77 6.71l.85 12.24v5c0 1 9.01 3.02 16 7z" fill="#fdd7ad"/><path id="Shape" d="m36 30.91v12c0 .5522847-.4477153 1-1 1s-1-.4477153-1-1v-12c.0055028-.6109927-.2712538-1.1903365-.75-1.57-.0829084-.0672174-.1735508-.1242885-.27-.17-.03-.71-.1-1.44-.2-2.17.6247821.1175995 1.2116231.3852814 1.71.78.9578618.7556282 1.5147532 1.9099792 1.51 3.13z" fill="#f9c795"/><g fill="#f3d55b"><path id="Shape" d="m29 3c-.5522847 0-1-.44771525-1-1v-1c0-.55228475.4477153-1 1-1s1 .44771525 1 1v1c0 .55228475-.4477153 1-1 1z"/><path id="Shape" d="m16.5 6.349c-.3576137.00034843-.6881932-.19029718-.867-.5l-.5-.866c-.2716903-.47785996-.1067416-1.08542045.3693057-1.36027453s1.0846885-.11393908 1.3626943.36027453l.5.866c.1785415.30924248.1786393.6902222.0002566.99955632-.1783827.30933411-.5081742.50007763-.8652566.50044368z"/><path id="Shape" d="m7.349 15.5c-.17558875.0003718-.34812995-.0458692-.5-.134l-.867-.5c-.47421361-.2780058-.63512861-.886647-.36027453-1.3626943s.88241457-.640996 1.36027453-.3693057l.867.5c.39194126.2263139.58302085.6876562.46588095 1.1248223s-.51329289.7411578-.96588095.7411777z"/><path id="Shape" d="m4 28h-1c-.55228475 0-1-.4477153-1-1s.44771525-1 1-1h1c.55228475 0 1 .4477153 1 1s-.44771525 1-1 1z"/><path id="Shape" d="m6.484 41c-.45258806-.0000199-.84874105-.3040116-.96588095-.7411777s.07393969-.8985084.46588095-1.1248223l.867-.5c.30957042-.1814844.69264947-.1831833 1.00381742-.0044519.31116795.1787315.50271357.5104885.50192468.8693336-.00078888.3588451-.19379132.6897567-.5057421.8671183l-.867.5c-.15187005.0881308-.32441125.1343718-.5.134z"/><path id="Shape" d="m51.516 41c-.1755887.0003718-.3481299-.0458692-.5-.134l-.867-.5c-.3119508-.1773616-.5049532-.5082732-.5057421-.8671183s.1907567-.6906021.5019247-.8693336c.3111679-.1787314.694247-.1770325 1.0038174.0044519l.867.5c.3919413.2263139.5830208.6876562.4658809 1.1248223-.1171398.4371661-.5132928.7411578-.9658809.7411777z"/><path id="Shape" d="m55 28h-1c-.5522847 0-1-.4477153-1-1s.4477153-1 1-1h1c.5522847 0 1 .4477153 1 1s-.4477153 1-1 1z"/><path id="Shape" d="m50.651 15.5c-.4525881-.0000199-.8487411-.3040116-.9658809-.7411777-.1171399-.4371661.0739396-.8985084.4658809-1.1248223l.867-.5c.47786-.2716903 1.0854205-.1067416 1.3602745.3693057.2748541.4760473.1139391 1.0846885-.3602745 1.3626943l-.867.5c-.1518701.0881308-.3244113.1343718-.5.134z"/><path id="Shape" d="m41.5 6.349c-.3570824-.00036605-.6868739-.19110957-.8652566-.50044368-.1783827-.30933412-.1782849-.69031384.0002566-.99955632l.5-.866c.2780058-.47421361.886647-.63512861 1.3626943-.36027453s.640996.88241457.3693057 1.36027453l-.5.866c-.1788068.30970282-.5093863.50034843-.867.5z"/></g></g></g></svg>