<svg id="Layer_1" height="512" viewBox="0 0 128 128" width="512" xmlns="http://www.w3.org/2000/svg" data-name="Layer 1"><path d="m111.19 76.5c-19.27 25.61-47.19 45-47.19 45s-27.92-19.39-47.19-45-16.32-70 18.44-70c12.38 0 21.62 6.75 28.75 15.5 7.12-8.75 16.37-15.5 28.75-15.5 34.76 0 37.71 44.39 18.44 70z" fill="#ff4945"/><path d="m70 78.25a1.75 1.75 0 0 1 -1.656-1.185l-10.024-29.374-6.782 29.209a1.749 1.749 0 0 1 -1.672 1.354h-.033a1.75 1.75 0 0 1 -1.688-1.291l-5.523-20.3-3.084 5.672a1.751 1.751 0 0 1 -1.538.915h-13.808a1.75 1.75 0 1 1 0-3.5h12.767l4.669-8.586a1.75 1.75 0 0 1 3.226.376l4.844 17.8 6.6-28.4a1.75 1.75 0 0 1 3.361-.169l10.021 29.372 6.782-29.205a1.75 1.75 0 0 1 3.393-.063l5.523 20.3 3.084-5.675a1.751 1.751 0 0 1 1.538-.917h13.808a1.75 1.75 0 0 1 0 3.5h-12.767l-4.669 8.586a1.75 1.75 0 0 1 -3.226-.376l-4.846-17.801-6.6 28.408a1.75 1.75 0 0 1 -1.617 1.352c-.024-.002-.054-.002-.083-.002z" fill="#d7e4ef"/></svg>