<svg height="512pt" viewBox="-7 0 511 512" width="512pt" xmlns="http://www.w3.org/2000/svg"><g fill-rule="evenodd"><path d="m189.414062 213.585938c21.402344-13.113282 35.777344-36.582032 36.152344-63.433594.007813-.363282.007813-.722656.007813-1.082032 0-33.835937-22.222657-62.472656-52.867188-72.128906-30.644531 9.65625-52.867187 38.292969-52.867187 72.128906 0 27.300782 14.472656 51.21875 36.164062 64.515626 10.371094 6.355468 13.601563 13.179687 14.429688 22.898437h4.546875c.828125-9.71875 4.058593-16.542969 14.433593-22.898437zm0 0" fill="#f4ab38"/><path d="m149.964844 236.484375h25.015625v34.625h-25.015625zm0 0" fill="#b941d6"/><path d="m174.980469 295.480469v-24.371094h-25.015625v24.371094c0 5.636719 4.613281 10.25 10.246094 10.25h4.519531c5.636719 0 10.25-4.613281 10.25-10.25zm0 0" fill="#b941d6"/><path d="m357.902344 455.320312c27.09375 0 45.921875 2.214844 60.125 2.089844 2.226562-1.785156 4.953125-2.628906 8.375-2.089844 2.878906 0 5.664062.027344 8.359375.070313 7.882812-2.316406 14.175781-6.984375 20.292969-15.792969 10.777343-15.527344 1.441406-49.945312 4.933593-74.519531 1.003907-7.082031 26.886719-17.839844 26.886719-25.542969 0-11.777344-26.066406-51.363281-21.769531-61.707031 27.46875-66.144531-43.257813-133.820313-115.953125-150.367187-19.882813 4.296874-38.472656 12.082031-55.082032 22.691406-.375 26.851562-14.753906 50.316406-36.15625 63.429687-10.375 6.359375-13.601562 13.179688-14.433593 22.902344v58.996094c0 5.636719-4.613281 10.25-10.246094 10.25h-17.089844c3.40625 46.089843 25.25 87.050781 58.183594 115.535156 12.441406 10.753906-12.929687 62.101563-18.847656 80.730469h74.246093c12.359376.003906 6.855469-50.023438 28.175782-46.675782zm0 0" fill="#afce2e"/></g><path d="m408.132812 212.84375c-2.453124 0-4.90625-.898438-6.835937-2.703125-.15625-.144531-.316406-.300781-.46875-.453125-3.90625-3.90625-3.90625-10.238281 0-14.144531 3.902344-3.902344 10.234375-3.902344 14.140625 0 4.03125 3.773437 4.238281 10.105469.460938 14.136719-1.964844 2.097656-4.628907 3.164062-7.296876 3.164062zm-19.105468-15.449219c-1.933594 0-3.886719-.558593-5.605469-1.730469-4.941406-3.351562-10.203125-6.460937-15.226563-8.988281-28.464843-14.324219-58.472656-17.25-86.777343-8.457031-5.277344 1.636719-10.878907-1.3125-12.515625-6.585938-1.640625-5.273437 1.308594-10.875 6.582031-12.515624 33.351563-10.355469 68.519531-7.003907 101.703125 9.695312 5.867188 2.953125 11.742188 6.417969 17.464844 10.304688 4.570312 3.105468 5.761718 9.324218 2.660156 13.894531-1.9375 2.847656-5.082031 4.382812-8.285156 4.382812zm0 0"/><path d="m329.726562 512h-142.746093c-3.191407 0-6.1875-1.523438-8.070313-4.097656-1.882812-2.574219-2.425781-5.890625-1.460937-8.929688 1.464843-4.609375 3.886719-10.707031 6.691406-17.765625 4.1875-10.550781 8.9375-22.507812 12.03125-33.273437 3.976563-13.816406 3.050781-18.445313 2.734375-19.433594-35.988281-31.296875-57.730469-74.617188-61.238281-122.03125-.40625-5.507812 3.730469-10.304688 9.234375-10.710938 5.507812-.398437 10.304687 3.730469 10.710937 9.234376 3.125 42.269531 22.570313 80.875 54.753907 108.710937 13.890624 12.007813 4.765624 38.609375-9.640626 74.882813-.464843 1.167968-.914062 2.308593-1.355468 3.414062h125.175781c1.050781-2.820312 2.171875-7.917969 2.96875-11.542969 1.589844-7.21875 3.390625-15.398437 6.738281-21.910156 6.597656-12.820313 16.480469-13.914063 22.320313-13.226563 15.207031.019532 28.035156.730469 38.375 1.308594 31.332031 1.738282 39.9375 1.597656 49.890625-12.734375 4.597656-6.628906 3.738281-22.550781 2.980468-36.597656-.609374-11.320313-1.242187-23.03125.265626-33.625 1.097656-7.726563 8.527343-12.828125 17.136718-18.742187 2.84375-1.949219 7.285156-5 9.351563-6.972657-1.21875-4.507812-5.816407-14.15625-8.996094-20.824219-9.816406-20.589843-15.632813-33.691406-11.710937-43.140624 12.046874-29.007813 1.25-55.0625-9.929688-71.8125-26.085938-39.078126-81.6875-68.546876-129.335938-68.546876-30.476562 0-60.09375 8.628907-85.652343 24.945313-4.65625 2.972656-10.839844 1.605469-13.8125-3.046875-2.972657-4.652344-1.605469-10.835938 3.046875-13.808594 28.78125-18.378906 62.121094-28.089844 96.417968-28.089844 54.625 0 116.015626 32.570313 145.96875 77.441407 19.480469 29.179687 23.746094 61.074219 12.050782 89.898437.121094 4.710938 6.910156 18.953125 11.011718 27.554688 6.96875 14.621094 11.242188 23.941406 11.242188 31.007812 0 9.292969-8.902344 15.40625-18.328125 21.882813-2.742187 1.878906-7.109375 4.878906-8.855469 6.597656-.964844 8.375-.421875 18.445313.105469 28.203125 1.019531 18.933594 1.984375 36.816406-6.527344 49.078125-16.738281 24.109375-35.816406 23.050781-67.425781 21.296875-10.777344-.597656-22.992188-1.277344-37.941406-1.277344-.519532 0-1.039063-.039062-1.550782-.121094-.390624-.058593-.554687-.03125-.554687-.03125-2.773437 1.527344-5.558594 14.1875-6.746094 19.589844-1.222656 5.546875-2.371093 10.785156-4.136719 15.140625-4.058593 10.003907-10.5 12.105469-15.1875 12.105469zm0 0"/><path d="m174.980469 246.484375s0 0-.003907 0l-25.015624-.007813-25.007813.007813h-.003906c-5.191407 0-9.523438-3.976563-9.964844-9.148437-.5625-6.640626-2.160156-10.609376-9.691406-15.226563-25.632813-15.703125-40.9375-43.011719-40.9375-73.042969 0-47.207031 38.402343-85.609375 85.609375-85.609375 47.203125 0 85.609375 38.402344 85.609375 85.609375 0 30.03125-15.304688 57.339844-40.9375 73.042969-7.53125 4.617187-9.125 8.585937-9.691407 15.226563-.441406 5.171874-4.769531 9.148437-9.964843 9.148437zm-25.019531-20.007813 16.695312.007813c2.636719-9.023437 8.1875-15.699219 17.527344-21.425781 19.65625-12.039063 31.390625-32.972656 31.390625-55.992188 0-36.175781-29.433594-65.609375-65.609375-65.609375-36.179688 0-65.609375 29.433594-65.609375 65.609375 0 23.019532 11.734375 43.949219 31.386719 55.992188 9.34375 5.726562 14.894531 12.402344 17.53125 21.425781zm0 0"/><path d="m185.351562 176.1875c-1.835937 0-3.699218-.507812-5.363281-1.570312-4.660156-2.96875-6.027343-9.148438-3.058593-13.808594 1.566406-2.457032 5.136718-11.917969 2.773437-20.660156-1.488281-5.523438-5.117187-9.707032-11.085937-12.789063-4.910157-2.53125-6.835938-8.5625-4.304688-13.46875 2.53125-4.910156 8.5625-6.835937 13.472656-4.304687 10.9375 5.640624 18.277344 14.40625 21.230469 25.351562 3.953125 14.660156-.957031 29.933594-5.222656 36.625-1.90625 2.992188-5.136719 4.625-8.441407 4.625zm0 0"/><path d="m149.964844 48.507812c-5.523438 0-10-4.480468-10-10v-28.507812c0-5.523438 4.476562-10 10-10 5.523437 0 10 4.476562 10 10v28.507812c0 5.519532-4.476563 10-10 10zm0 0"/><path d="m39.007812 159.464844h-28.507812c-5.523438 0-10-4.476563-10-10 0-5.519532 4.476562-10 10-10h28.507812c5.523438 0 10 4.480468 10 10 0 5.523437-4.476562 10-10 10zm0 0"/><path d="m94.492188 63.363281c-3.457032 0-6.816407-1.792969-8.671876-5l-14.25-24.679687c-2.761718-4.78125-1.121093-10.898438 3.660157-13.660156 4.78125-2.757813 10.898437-1.121094 13.660156 3.660156l14.25 24.679687c2.761719 4.78125 1.125 10.898438-3.660156 13.660157-1.574219.910156-3.292969 1.339843-4.988281 1.339843zm0 0"/><path d="m53.851562 103.984375c-1.695312 0-3.414062-.429687-4.988281-1.339844l-24.679687-14.25c-4.785156-2.761719-6.421875-8.878906-3.660156-13.660156 2.757812-4.78125 8.875-6.421875 13.660156-3.660156l24.679687 14.25c4.78125 2.761719 6.421875 8.878906 3.660157 13.660156-1.851563 3.207031-5.214844 5-8.671876 5zm0 0"/><path d="m246.078125 103.984375c-3.457031 0-6.816406-1.792969-8.667969-5-2.761718-4.78125-1.125-10.898437 3.660156-13.660156l24.679688-14.25c4.78125-2.761719 10.898438-1.125 13.660156 3.660156 2.761719 4.78125 1.121094 10.898437-3.660156 13.660156l-24.679688 14.25c-1.578124.910157-3.296874 1.339844-4.992187 1.339844zm0 0"/><path d="m29.191406 229.195312c-3.457031 0-6.816406-1.792968-8.671875-5-2.757812-4.785156-1.121093-10.898437 3.664063-13.660156l24.6875-14.25c4.78125-2.757812 10.898437-1.121094 13.65625 3.660156 2.761718 4.785157 1.125 10.902344-3.660156 13.660157l-24.6875 14.25c-1.574219.910156-3.292969 1.339843-4.988282 1.339843zm0 0"/><path d="m80.222656 280.253906c-1.695312 0-3.414062-.433594-4.992187-1.34375-4.78125-2.761718-6.421875-8.878906-3.660157-13.660156l12.195313-21.121094c2.761719-4.78125 8.878906-6.421875 13.660156-3.660156s6.421875 8.875 3.660157 13.660156l-12.195313 21.121094c-1.851563 3.210938-5.210937 5.003906-8.667969 5.003906zm0 0"/><path d="m205.441406 63.363281c-1.699218 0-3.417968-.429687-4.992187-1.339843-4.78125-2.761719-6.421875-8.878907-3.660157-13.660157l14.25-24.679687c2.761719-4.78125 8.875-6.421875 13.660157-3.660156 4.785156 2.761718 6.421875 8.878906 3.660156 13.660156l-14.25 24.679687c-1.851563 3.207031-5.214844 5-8.667969 5zm0 0"/><path d="m174.980469 281.109375h-50.03125c-5.519531 0-10-4.480469-10-10v-34.625c0-5.519531 4.480469-10 10-10h50.03125c5.519531 0 10 4.480469 10 10v34.625c0 5.523437-4.480469 10-10 10zm-40.03125-20h30.03125v-14.625h-30.03125zm0 0"/><path d="m164.730469 315.730469h-29.535157c-11.164062 0-20.246093-9.082031-20.246093-20.25v-24.371094c0-5.523437 4.480469-10 10-10 5.523437 0 10 4.476563 10 10v24.371094c0 .113281.136719.25.246093.25h29.535157c.113281 0 .25-.136719.25-.25v-24.371094c0-5.523437 4.476562-10 10-10 5.519531 0 10 4.476563 10 10v24.371094c0 11.167969-9.085938 20.25-20.25 20.25zm0 0"/></svg>