<svg height="480pt" viewBox="-8 0 480 480.00039" width="480pt" xmlns="http://www.w3.org/2000/svg"><path d="m0 96h80v64h-80zm0 0" fill="#ffd782"/><path d="m0 40 32 24 24-24 24 24v32h-80zm0 0" fill="#394d5c"/><path d="m0 192h80v96h-80zm0 0" fill="#7cb8eb"/><path d="m0 288h80v32h-80zm0 0" fill="#cdeef6"/><path d="m280 88c0 26.511719-21.488281 48-48 48-26.507812 0-48-21.488281-48-48 0-26.507812 21.492188-48 48-48 26.511719 0 48 21.492188 48 48zm0 0" fill="#e97424"/><path d="m264 88h-16c0-8.835938-7.164062-16-16-16v-16c17.671875 0 32 14.328125 32 32zm0 0" fill="#f9bb4b"/><path d="m232 176c-19.050781.054688-37.59375-6.128906-52.800781-17.601562l9.601562-12.796876c12.441407 9.386719 27.613281 14.445313 43.199219 14.398438zm0 0" fill="#87cee9"/><path d="m283.417969 37.601562c-13.503907-13.871093-32.058594-21.664062-51.417969-21.601562-4.835938 0-9.660156.484375-14.398438 1.441406l-3.203124-15.679687c5.796874-1.171875 11.691406-1.761719 17.601562-1.761719 23.65625-.0703125 46.332031 9.457031 62.839844 26.398438zm0 0" fill="#87cee9"/><path d="m56 192h80v32h-80c-8.835938 0-16-7.164062-16-16s7.164062-16 16-16zm0 0" fill="#f9bb4b"/><path d="m184 208c0 8.835938-7.164062 16-16 16s-16-7.164062-16-16 7.164062-16 16-16 16 7.164062 16 16zm0 0" fill="#ffd782"/><path d="m416 184h-80v-96h80zm0 0" fill="#ffd782"/><path d="m416 120h-80v-32h80zm0 0" fill="#394d5c"/><path d="m416 312h-80v-96h80zm0 0" fill="#e33e5c"/><path d="m416 344h-80v-32h80zm0 0" fill="#cdeef6"/><path d="m360 248h-80v-32h80c8.835938 0 16 7.164062 16 16s-7.164062 16-16 16zm0 0" fill="#f9bb4b"/><path d="m264 232c0 8.835938-7.164062 16-16 16s-16-7.164062-16-16 7.164062-16 16-16 16 7.164062 16 16zm0 0" fill="#ffd782"/><path d="m16 320h48v96h-48zm0 0" fill="#ffd782"/><path d="m16 416h72v32h-72zm0 0" fill="#394d5c"/><path d="m400 440h-48v-96h48zm0 0" fill="#ffd782"/><path d="m400 472h-72v-32h72zm0 0" fill="#394d5c"/><path d="m416 88c26.511719 0 48 21.492188 48 48v32c-26.507812 0-48-21.488281-48-48zm0 0" fill="#5a6470"/><g fill="#ebb562"><path d="m128 464h16v16h-16zm0 0"/><path d="m176 448h16v16h-16zm0 0"/><path d="m248 464h16v16h-16zm0 0"/></g></svg>