<svg xmlns="http://www.w3.org/2000/svg" xmlns:xlink="http://www.w3.org/1999/xlink" width="62" height="62" viewBox="0 0 62 62"><defs><linearGradient id="a" x1="0.5" x2="0.5" y2="1" gradientUnits="objectBoundingBox"><stop offset="0" stop-color="#f1a119"/><stop offset="0.309" stop-color="#dae30a"/><stop offset="0.665" stop-color="#63cc35"/><stop offset="1" stop-color="#1ce143"/></linearGradient></defs><g transform="translate(-1 -1)"><path d="M57.626,50.769A5.987,5.987,0,0,0,55,40.09V39a5.006,5.006,0,0,0-5-5H33V30.356a3.1,3.1,0,0,0,4.989-2.367,3.113,3.113,0,0,0,3-3,3.113,3.113,0,0,0,3-3,3.115,3.115,0,0,0,2.1-5.317l-.208-.208A9.48,9.48,0,0,0,32,3.6,9.476,9.476,0,0,0,18.625,17.023a3.1,3.1,0,0,0,2.386,4.966,3.113,3.113,0,0,0,3,3,3.113,3.113,0,0,0,3,3A3.072,3.072,0,0,0,31,30.86V34H14a5.006,5.006,0,0,0-5,5v1.09A5.987,5.987,0,0,0,6.374,50.769,9.01,9.01,0,0,0,1,59v4H19V59a9.01,9.01,0,0,0-5.374-8.231A5.987,5.987,0,0,0,11,40.09V39a3,3,0,0,1,3-3H31v4.09a5.987,5.987,0,0,0-2.626,10.679A9.01,9.01,0,0,0,23,59v4H41V59a9.01,9.01,0,0,0-5.374-8.231A5.987,5.987,0,0,0,33,40.09V36H50a3,3,0,0,1,3,3v1.09a5.987,5.987,0,0,0-2.626,10.679A9.01,9.01,0,0,0,45,59v4H63V59a9.01,9.01,0,0,0-5.374-8.231ZM38.515,3A7.477,7.477,0,0,1,44.45,15.035l-4.6-4.6a8.076,8.076,0,0,0,.856-.73L39.294,8.293A5.793,5.793,0,0,1,35.171,10H33.586l-1.707,1.707a1,1,0,0,1-.708.293H27.414a.414.414,0,0,1-.293-.707l6.1-6.1A7.439,7.439,0,0,1,38.515,3ZM25.485,3a7.428,7.428,0,0,1,5.091,2.009l-4.87,4.87A2.415,2.415,0,0,0,27.414,14h3.757a2.982,2.982,0,0,0,2.122-.879L34.414,12h.757a7.818,7.818,0,0,0,2.869-.546l6.632,6.632a1.121,1.121,0,0,1-1.586,1.586l-2.379-2.379-1.414,1.414,2.379,2.379a1.121,1.121,0,0,1-1.586,1.586l-2.379-2.379-1.414,1.414,2.379,2.379a1.121,1.121,0,0,1-1.586,1.586l-2.379-2.379-1.414,1.414,2.379,2.379a1.121,1.121,0,0,1-1.586,1.586l-.334-.334a3.111,3.111,0,0,0-2.763-4.327,3.113,3.113,0,0,0-3-3,3.113,3.113,0,0,0-3-3A3.119,3.119,0,0,0,21.879,15a3.085,3.085,0,0,0-1.838.611A7.477,7.477,0,0,1,25.485,3ZM20,18.879a1.117,1.117,0,0,1,.328-.793l.758-.758a1.121,1.121,0,0,1,1.586,1.586l-.758.758A1.121,1.121,0,0,1,20,18.879Zm3,3a1.117,1.117,0,0,1,.328-.793l.758-.758a1.121,1.121,0,0,1,1.586,1.586l-.758.758A1.121,1.121,0,0,1,23,21.879Zm3,3a1.117,1.117,0,0,1,.328-.793l.758-.758a1.121,1.121,0,0,1,1.586,1.586l-.758.758A1.121,1.121,0,0,1,26,24.879ZM30.121,29a1.121,1.121,0,0,1-.793-1.914l.758-.758a1.121,1.121,0,0,1,1.586,1.586l-.758.758A1.117,1.117,0,0,1,30.121,29ZM17,59v2H15V57H13v4H7V57H5v4H3V59a7,7,0,0,1,14,0ZM14,46a4,4,0,1,1-4-4A4,4,0,0,1,14,46ZM39,59v2H37V57H35v4H29V57H27v4H25V59a7,7,0,0,1,14,0ZM36,46a4,4,0,1,1-4-4A4,4,0,0,1,36,46Zm14,0a4,4,0,1,1,4,4A4,4,0,0,1,50,46ZM61,61H59V57H57v4H51V57H49v4H47V59a7,7,0,0,1,14,0Z" fill="url(#a)"/><path d="M38,38h2v2H38Z" fill="url(#a)"/><path d="M42,38h2v2H42Z" fill="url(#a)"/><path d="M46,38h2v2H46Z" fill="url(#a)"/><path d="M16,38h2v2H16Z" fill="url(#a)"/><path d="M20,38h2v2H20Z" fill="url(#a)"/><path d="M24,38h2v2H24Z" fill="url(#a)"/></g></svg>