<svg xmlns="http://www.w3.org/2000/svg" width="512" height="338.36" viewBox="0 0 512 338.36"><g transform="translate(0 -26.256)"><g transform="translate(0 26.256)"><path d="M479.18,91.9H32.821a32.821,32.821,0,1,1,0-65.641H479.18a32.821,32.821,0,0,1,0,65.641Z" transform="translate(0 -26.256)" fill="#fff"/><path d="M295.385,288.821H32.821a32.821,32.821,0,0,1,0-65.642H295.385a32.821,32.821,0,0,1,0,65.642Z" transform="translate(0 -86.957)" fill="#fff"/></g><path d="M479.18,288.821H426.667a32.821,32.821,0,0,1,0-65.642H479.18a32.821,32.821,0,0,1,0,65.642Z" transform="translate(0 -60.564)" fill="#fff"/><path d="M479.18,485.744H32.821a32.821,32.821,0,1,1,0-65.642H479.18a32.821,32.821,0,0,1,0,65.642Z" transform="translate(0 -121.128)" fill="#fff"/></g></svg>