<svg xmlns="http://www.w3.org/2000/svg" xmlns:xlink="http://www.w3.org/1999/xlink" width="62" height="62" viewBox="0 0 62 62"><defs><linearGradient id="a" x1="0.5" x2="0.5" y2="1" gradientUnits="objectBoundingBox"><stop offset="0" stop-color="#f1a119"/><stop offset="0.309" stop-color="#dae30a"/><stop offset="0.665" stop-color="#63cc35"/><stop offset="1" stop-color="#1ce143"/></linearGradient></defs><g transform="translate(-1 -1)"><path d="M16,29a3,3,0,1,0-3-3A3,3,0,0,0,16,29Zm0-4a1,1,0,1,1-1,1A1,1,0,0,1,16,25Z" fill="url(#a)"/><path d="M16,21a3,3,0,1,0-3-3A3,3,0,0,0,16,21Zm0-4a1,1,0,1,1-1,1A1,1,0,0,1,16,17Z" fill="url(#a)"/><path d="M16,13a3,3,0,1,0-3-3A3,3,0,0,0,16,13Zm0-4a1,1,0,1,1-1,1A1,1,0,0,1,16,9Z" fill="url(#a)"/><path d="M27,57H39v2H27Z" fill="url(#a)"/><path d="M37,53h2v2H37Z" fill="url(#a)"/><path d="M27,53h8v2H27Z" fill="url(#a)"/><path d="M27,49H39v2H27Z" fill="url(#a)"/><path d="M31,45h8v2H31Z" fill="url(#a)"/><path d="M27,45h2v2H27Z" fill="url(#a)"/><path d="M27,41h2v2H27Z" fill="url(#a)"/><path d="M31,41h8v2H31Z" fill="url(#a)"/><path d="M40,27A13,13,0,1,0,27,14,13.015,13.015,0,0,0,40,27ZM40,3A11,11,0,1,1,29,14,11.013,11.013,0,0,1,40,3Z" fill="url(#a)"/><path d="M34,6.382V21.618L49.236,14Zm2,3.236L44.764,14,36,18.382Z" fill="url(#a)"/><path d="M63,47.777V40.222l-2.8-.713c-.119-.318-.253-.639-.4-.956l1.479-2.489-5.342-5.342L53.446,32.2c-.317-.147-.638-.281-.956-.4L51.777,29H44.222l-.713,2.8c-.318.119-.639.253-.956.4l-2.489-1.479L38,32.787V31.414a2.414,2.414,0,0,0-4.121-1.707L26.586,37H23.618L25,34.236V1H7V34.236L8.382,37H6a5.006,5.006,0,0,0-5,5V58a5.006,5.006,0,0,0,5,5H38a5.006,5.006,0,0,0,5-5V55.985c.17.072.34.15.51.214l.713,2.8h7.555l.713-2.8c.318-.119.639-.253.956-.4l2.489,1.479,5.342-5.342L59.8,49.446c.147-.317.281-.638.4-.956Zm-49.342-.223a2.619,2.619,0,0,0,4.684,0L20.618,43H23V57H7V43h4.382Zm2.9-.9a.64.64,0,0,1-1.1,0L9.342,34.448,12,33.119l4,2,4-2,2.654,1.329ZM23,3V32.381l-3-1.5-4,2-4-2-3,1.5V3ZM41,58a3,3,0,0,1-3,3H6a3,3,0,0,1-3-3V42a3,3,0,0,1,3-3H9.382l1,2H5V59H25V41H21.618l1-2h4.8l7.879-7.879a.43.43,0,0,1,.707.293V39h2a3,3,0,0,1,3,3Zm1.446-18.24A7,7,0,1,1,43,48.884V42A4.947,4.947,0,0,0,42.446,39.76ZM58.764,51.621l-3.143,3.143-2.1-1.246-.493.255a11.016,11.016,0,0,1-1.685.705l-.528.168L50.223,57H45.778l-.6-2.354-.528-.168A10.826,10.826,0,0,1,43,53.788v-2.32a8.993,8.993,0,1,0-1.842-13.311A4.949,4.949,0,0,0,38,37V35.615l2.379-2.379,2.1,1.246.493-.255a11.016,11.016,0,0,1,1.685-.705l.528-.168.6-2.354h4.445l.6,2.354.528.168a11.016,11.016,0,0,1,1.685.705l.493.255,2.1-1.246,3.143,3.143-1.246,2.1.255.493a11.016,11.016,0,0,1,.705,1.685l.168.528,2.354.6v4.445l-2.354.6-.168.528a11.016,11.016,0,0,1-.705,1.685l-.255.493Z" fill="url(#a)"/></g></svg>