<svg height="512pt" viewBox="0 -23 512 511" width="512pt" xmlns="http://www.w3.org/2000/svg"><path d="m499.5 29.609375h-27.5c-4.144531 0-7.5 3.355469-7.5 7.5 0 4.140625 3.355469 7.5 7.5 7.5h25v405.289063h-387c-4.144531 0-7.5 3.355468-7.5 7.5 0 4.140624 3.355469 7.5 7.5 7.5h389.5c6.894531 0 12.5-5.609376 12.5-12.5v-410.289063c0-6.894531-5.605469-12.5-12.5-12.5zm0 0"/><path d="m74 449.898438h-59v-405.289063h80.566406c1.128906 1.382813 2.605469 2.597656 4.394532 3.570313l39.355468 21.4375c5.195313 2.832031 13.582032 4.96875 19.507813 4.96875h244.21875c8.808593 0 15.980469-7.15625 15.980469-15.953126v-14.023437h17.976562c4.144531 0 7.5-3.359375 7.5-7.5 0-4.144531-3.355469-7.5-7.5-7.5h-17.976562v-13.160156c0-8.792969-7.167969-15.949219-15.980469-15.949219h-244.21875c-5.925781 0-14.3125 2.136719-19.507813 4.96875l-39.359375 21.433594c-1.402343.765625-2.617187 1.679687-3.621093 2.707031h-83.835938c-6.894531 0-12.5 5.605469-12.5 12.5v410.289063c0 6.890624 5.605469 12.5 12.5 12.5h61.5c4.144531 0 7.5-3.359376 7.5-7.5 0-4.140626-3.355469-7.5-7.5-7.5zm295.84375-434.398438h33.199219c.523437 0 .980469.445312.980469.949219v42.183593c0 .507813-.457032.953126-.980469.953126h-33.199219zm-200.101562 0h185.101562v14.542969h-185.101562zm0 29.542969h185.101562v14.542969h-185.101562zm-32.242188-21.507813 8.992188-4.894531c2.003906-1.09375 5.273437-2.117187 8.25-2.683594v43.171875c-2.976563-.566406-6.246094-1.59375-8.253907-2.683594l-8.988281-4.894531zm-15 8.171875v11.671875l-10.714844-5.835937zm0 0"/><path d="m255.992188 425.515625c28.320312 0 52.972656-18.332031 61.34375-45.617187 1.214843-3.957032-1.011719-8.152344-4.96875-9.367188-3.964844-1.214844-8.15625 1.007812-9.371094 4.96875-6.425782 20.941406-25.3125 35.015625-47.003906 35.015625-27.140626 0-49.21875-22.339844-49.21875-49.800781 0-27.460938 22.078124-49.800782 49.21875-49.800782 20.847656 0 39.503906 13.359376 46.425781 33.246094 1.359375 3.914063 5.636719 5.984375 9.546875 4.617188 3.914062-1.359375 5.980468-5.632813 4.621094-9.546875-9.019532-25.910157-33.367188-43.316407-60.59375-43.316407-35.410157 0-64.21875 29.066407-64.21875 64.800782 0 35.730468 28.808593 64.800781 64.21875 64.800781zm0 0"/><path d="m239.34375 352.210938v-5.898438c0-4.144531-3.355469-7.5-7.5-7.5s-7.5 3.355469-7.5 7.5v5.898438c0 4.144531 3.355469 7.5 7.5 7.5 4.140625 0 7.5-3.359376 7.5-7.5zm0 0"/><path d="m287.632812 352.210938v-5.898438c0-4.144531-3.355468-7.5-7.5-7.5-4.144531 0-7.5 3.355469-7.5 7.5v5.898438c0 4.144531 3.355469 7.5 7.5 7.5 4.140626 0 7.5-3.359376 7.5-7.5zm0 0"/><path d="m239.363281 386.820312h33.25c4.144531 0 7.5-3.355468 7.5-7.5 0-4.140624-3.355469-7.5-7.5-7.5h-33.25c-4.144531 0-7.5 3.359376-7.5 7.5 0 4.144532 3.355469 7.5 7.5 7.5zm0 0"/><path d="m113.445312 425.515625c35.40625 0 64.210938-29.070313 64.210938-64.800781 0-35.734375-28.804688-64.804688-64.210938-64.804688-35.410156 0-64.214843 29.070313-64.214843 64.804688 0 35.730468 28.804687 64.800781 64.214843 64.800781zm0-114.605469c27.136719 0 49.210938 22.34375 49.210938 49.804688 0 27.457031-22.074219 49.800781-49.210938 49.800781-27.136718 0-49.214843-22.34375-49.214843-49.800781 0-27.460938 22.078125-49.804688 49.214843-49.804688zm0 0"/><path d="m89.300781 359.710938c4.144531 0 7.5-3.355469 7.5-7.5v-5.898438c0-4.144531-3.355469-7.5-7.5-7.5-4.140625 0-7.5 3.355469-7.5 7.5v5.898438c0 4.140624 3.359375 7.5 7.5 7.5zm0 0"/><path d="m137.589844 359.710938c4.140625 0 7.5-3.355469 7.5-7.5v-5.898438c0-4.144531-3.359375-7.5-7.5-7.5-4.144532 0-7.5 3.355469-7.5 7.5v5.898438c0 4.140624 3.355468 7.5 7.5 7.5zm0 0"/><path d="m87.890625 374.414062c0 13.097657 11.464844 23.753907 25.558594 23.753907 14.089843 0 25.554687-10.65625 25.554687-23.753907 0-4.140624-3.355468-7.5-7.5-7.5-4.144531 0-7.5 3.359376-7.5 7.5 0 4.828126-4.734375 8.753907-10.554687 8.753907-5.824219 0-10.558594-3.925781-10.558594-8.753907 0-4.140624-3.359375-7.5-7.5-7.5-4.144531 0-7.5 3.359376-7.5 7.5zm0 0"/><path d="m398.554688 425.515625c35.410156 0 64.214843-29.070313 64.214843-64.800781 0-35.734375-28.804687-64.804688-64.214843-64.804688-35.40625 0-64.210938 29.070313-64.210938 64.804688 0 35.730468 28.804688 64.800781 64.210938 64.800781zm0-114.605469c27.136718 0 49.214843 22.34375 49.214843 49.804688 0 27.457031-22.078125 49.800781-49.214843 49.800781-27.132813 0-49.210938-22.34375-49.210938-49.800781 0-27.460938 22.078125-49.804688 49.210938-49.804688zm0 0"/><path d="m374.410156 359.710938c4.144532 0 7.5-3.355469 7.5-7.5v-5.898438c0-4.144531-3.355468-7.5-7.5-7.5-4.140625 0-7.5 3.355469-7.5 7.5v5.898438c0 4.140624 3.359375 7.5 7.5 7.5zm0 0"/><path d="m422.703125 359.710938c4.144531 0 7.5-3.355469 7.5-7.5v-5.898438c0-4.144531-3.355469-7.5-7.5-7.5s-7.5 3.355469-7.5 7.5v5.898438c0 4.140624 3.355469 7.5 7.5 7.5zm0 0"/><path d="m373 387.460938c0 4.144531 3.355469 7.5 7.5 7.5 4.140625 0 7.5-3.355469 7.5-7.5 0-4.824219 4.734375-8.75 10.554688-8.75 5.824218 0 10.5625 3.925781 10.5625 8.75 0 4.144531 3.355468 7.5 7.5 7.5 4.144531 0 7.5-3.355469 7.5-7.5 0-13.097657-11.46875-23.75-25.5625-23.75-14.089844 0-25.554688 10.652343-25.554688 23.75zm0 0"/><path d="m59.730469 173.460938h51.996093c5.789063 0 10.5-4.707032 10.5-10.5v-43.292969l2.957032-2.976563c2.917968-2.941406 2.902344-7.6875-.039063-10.605468-1.511719-1.5-3.5-2.222657-5.472656-2.171876-1.925781-2.234374-4.769531-3.65625-7.945313-3.65625h-51.996093c-5.792969 0-10.5 4.707032-10.5 10.5v52.207032c0 5.789062 4.707031 10.496094 10.5 10.496094zm4.5-58.207032h41.238281l-18.394531 18.527344-6.058594-6.105469c-2.914063-2.9375-7.664063-2.960937-10.605469-.042969-2.9375 2.917969-2.960937 7.667969-.042968 10.609376l9.265624 9.335937c1.980469 2 4.621094 3.101563 7.4375 3.101563h.003907c2.816406 0 5.453125-1.097657 7.433593-3.09375l12.71875-12.808594v23.683594h-42.996093zm0 0"/><path d="m145.796875 132.078125h89.359375c4.144531 0 7.5-3.355469 7.5-7.5s-3.355469-7.5-7.5-7.5h-89.359375c-4.144531 0-7.5 3.355469-7.5 7.5 0 4.140625 3.355469 7.5 7.5 7.5zm0 0"/><path d="m145.796875 156.640625h50.886719c4.144531 0 7.5-3.359375 7.5-7.5 0-4.144531-3.355469-7.5-7.5-7.5h-50.886719c-4.144531 0-7.5 3.355469-7.5 7.5 0 4.140625 3.355469 7.5 7.5 7.5zm0 0"/><path d="m49.230469 258.21875c0 5.789062 4.707031 10.5 10.5 10.5h51.996093c5.789063 0 10.5-4.710938 10.5-10.5v-52.207031c0-5.789063-4.710937-10.5-10.5-10.5h-51.996093c-5.792969 0-10.5 4.710937-10.5 10.5zm15-47.707031h42.996093v43.203125h-42.996093zm0 0"/><path d="m145.796875 227.335938h89.359375c4.144531 0 7.5-3.359376 7.5-7.5 0-4.144532-3.355469-7.5-7.5-7.5h-89.359375c-4.144531 0-7.5 3.355468-7.5 7.5 0 4.140624 3.355469 7.5 7.5 7.5zm0 0"/><path d="m204.183594 244.394531c0-4.144531-3.355469-7.5-7.5-7.5h-50.886719c-4.144531 0-7.5 3.355469-7.5 7.5 0 4.140625 3.355469 7.5 7.5 7.5h50.886719c4.140625 0 7.5-3.359375 7.5-7.5zm0 0"/><path d="m279.84375 173.460938h51.996094c5.789062 0 10.5-4.707032 10.5-10.5v-52.207032c0-5.789062-4.710938-10.5-10.5-10.5h-51.996094c-5.792969 0-10.5 4.710938-10.5 10.5v52.207032c0 5.792968 4.707031 10.5 10.5 10.5zm4.5-58.207032h42.996094v43.207032h-42.996094zm0 0"/><path d="m358.40625 124.578125c0 4.144531 3.359375 7.5 7.5 7.5h89.363281c4.140625 0 7.5-3.355469 7.5-7.5s-3.359375-7.5-7.5-7.5h-89.363281c-4.140625 0-7.5 3.355469-7.5 7.5zm0 0"/><path d="m365.90625 156.640625h50.890625c4.140625 0 7.5-3.359375 7.5-7.5 0-4.144531-3.359375-7.5-7.5-7.5h-50.890625c-4.140625 0-7.5 3.355469-7.5 7.5 0 4.140625 3.359375 7.5 7.5 7.5zm0 0"/><path d="m342.339844 258.21875v-52.207031c0-5.789063-4.710938-10.5-10.5-10.5h-51.996094c-5.792969 0-10.5 4.710937-10.5 10.5v52.207031c0 5.789062 4.707031 10.5 10.5 10.5h51.996094c5.789062 0 10.5-4.710938 10.5-10.5zm-15-4.5h-42.996094v-43.207031h42.996094zm0 0"/><path d="m455.269531 212.335938h-89.359375c-4.144531 0-7.5 3.355468-7.5 7.5 0 4.140624 3.355469 7.5 7.5 7.5h89.359375c4.144531 0 7.5-3.359376 7.5-7.5 0-4.144532-3.359375-7.5-7.5-7.5zm0 0"/><path d="m416.796875 251.894531c4.140625 0 7.5-3.359375 7.5-7.5 0-4.144531-3.359375-7.5-7.5-7.5h-50.890625c-4.140625 0-7.5 3.355469-7.5 7.5 0 4.140625 3.359375 7.5 7.5 7.5zm0 0"/></svg>