<svg xmlns="http://www.w3.org/2000/svg" width="635" height="566" viewBox="0 0 635 566">
  <g id="school-children-INDIA" transform="translate(-67 -73)">
    <text id="School_children_in_INDIA_need_to_be_more_active" data-name="School children in INDIA need
 to be more active" transform="translate(371 113)" fill="#ffbe0a" font-size="43" font-family="Rubik-Regular, Rubik"><tspan x="-293.067" y="0">School children in INDIA need</tspan><tspan x="-178.042" y="51" xml:space="preserve"> to be more active</tspan></text>
    <g id="Group_7" data-name="Group 7" transform="translate(0 -117)">
      <path id="Rectangle_16" data-name="Rectangle 16" d="M0,0H635a0,0,0,0,1,0,0V0a99,99,0,0,1-99,99H0a0,0,0,0,1,0,0V0A0,0,0,0,1,0,0Z" transform="translate(67 541)" fill="#e89d1d"/>
      <text id="_2_out_of_5_kids_are_underweight" data-name="2 out of 5 kids 
are underweight" transform="translate(533 584)" fill="#fff" font-size="26" font-family="Rubik-Regular, Rubik"><tspan x="-87.711" y="0">2 out of 5 kids </tspan><tspan x="-99.086" y="31">are underweight</tspan></text>
      <g id="standing-up-man-" transform="translate(97.541 558)">
        <g id="Group_1" data-name="Group 1">
          <circle id="Ellipse_1" data-name="Ellipse 1" cx="4.507" cy="4.507" r="4.507" transform="translate(22.179 0)" fill="#fff"/>
          <path id="Path_1" data-name="Path 1" d="M28.256,11.163a8.205,8.205,0,0,0-3.447.042c-7.493.878-9.926,9.551-9.239,16.164.3,2.859,4.805,2.889,4.5,0-.25-2.41-.143-6.047,1.138-8.632v9.425c0,.111.011.215.016.322,0,.051-.015.094-.015.146,0,7.479-.013,14.955-.322,22.428-.137,3.322,5.014,3.309,5.15,0,.242-5.857.3-11.717.317-17.578a5.96,5.96,0,0,0,.732,0c.015,5.861.074,11.721.314,17.576.137,3.309,5.288,3.322,5.15,0-.309-7.473-.32-14.949-.32-22.428a2.822,2.822,0,0,0-.078-.646c-.007-3.247-.131-6.5-.093-9.742,1.534,2.6,1.674,6.558,1.408,9.125-.3,2.887,4.206,2.858,4.5,0C38.678,20.617,36.128,11.719,28.256,11.163Z" fill="#fff"/>
        </g>
      </g>
      <g id="standing-up-man--2" data-name="standing-up-man-" transform="translate(124.541 558)">
        <g id="Group_1-2" data-name="Group 1">
          <circle id="Ellipse_1-2" data-name="Ellipse 1" cx="4.507" cy="4.507" r="4.507" transform="translate(22.179 0)" fill="#fff"/>
          <path id="Path_1-2" data-name="Path 1" d="M28.256,11.163a8.205,8.205,0,0,0-3.447.042c-7.493.878-9.926,9.551-9.239,16.164.3,2.859,4.805,2.889,4.5,0-.25-2.41-.143-6.047,1.138-8.632v9.425c0,.111.011.215.016.322,0,.051-.015.094-.015.146,0,7.479-.013,14.955-.322,22.428-.137,3.322,5.014,3.309,5.15,0,.242-5.857.3-11.717.317-17.578a5.96,5.96,0,0,0,.732,0c.015,5.861.074,11.721.314,17.576.137,3.309,5.288,3.322,5.15,0-.309-7.473-.32-14.949-.32-22.428a2.822,2.822,0,0,0-.078-.646c-.007-3.247-.131-6.5-.093-9.742,1.534,2.6,1.674,6.558,1.408,9.125-.3,2.887,4.206,2.858,4.5,0C38.678,20.617,36.128,11.719,28.256,11.163Z" fill="#fff"/>
        </g>
      </g>
      <g id="standing-up-man--3" data-name="standing-up-man-" transform="translate(178.541 558)">
        <g id="Group_1-3" data-name="Group 1">
          <circle id="Ellipse_1-3" data-name="Ellipse 1" cx="4.507" cy="4.507" r="4.507" transform="translate(22.179 0)" fill="#fff"/>
          <path id="Path_1-3" data-name="Path 1" d="M28.256,11.163a8.205,8.205,0,0,0-3.447.042c-7.493.878-9.926,9.551-9.239,16.164.3,2.859,4.805,2.889,4.5,0-.25-2.41-.143-6.047,1.138-8.632v9.425c0,.111.011.215.016.322,0,.051-.015.094-.015.146,0,7.479-.013,14.955-.322,22.428-.137,3.322,5.014,3.309,5.15,0,.242-5.857.3-11.717.317-17.578a5.96,5.96,0,0,0,.732,0c.015,5.861.074,11.721.314,17.576.137,3.309,5.288,3.322,5.15,0-.309-7.473-.32-14.949-.32-22.428a2.822,2.822,0,0,0-.078-.646c-.007-3.247-.131-6.5-.093-9.742,1.534,2.6,1.674,6.558,1.408,9.125-.3,2.887,4.206,2.858,4.5,0C38.678,20.617,36.128,11.719,28.256,11.163Z" fill="#fff"/>
        </g>
      </g>
      <g id="standing-up-man--4" data-name="standing-up-man-" transform="translate(157.208 558)">
        <g id="Group_1-4" data-name="Group 1" transform="translate(15.459 0)">
          <circle id="Ellipse_1-4" data-name="Ellipse 1" cx="4.507" cy="4.507" r="4.507" transform="translate(3.923)" fill="#010002"/>
          <path id="Path_1-4" data-name="Path 1" d="M25.051,11.163a4.651,4.651,0,0,0-2.584.042c-5.617.878-7.44,9.551-6.925,16.164.223,2.859,3.6,2.889,3.376,0a22.494,22.494,0,0,1,.853-8.632v9.425c0,.111.008.215.012.322,0,.051-.011.094-.011.146,0,7.479-.01,14.955-.241,22.428-.1,3.322,3.758,3.309,3.86,0,.181-5.857.227-11.717.238-17.578a3.351,3.351,0,0,0,.549,0c.011,5.861.055,11.721.235,17.576.1,3.309,3.964,3.322,3.86,0-.232-7.473-.24-14.949-.24-22.428a3.724,3.724,0,0,0-.058-.646c-.005-3.247-.1-6.5-.07-9.742,1.15,2.6,1.255,6.558,1.055,9.125-.226,2.887,3.153,2.858,3.376,0C32.863,20.617,30.952,11.719,25.051,11.163Z" transform="translate(-15.459 0)" fill="#010002"/>
        </g>
      </g>
      <g id="standing-up-man--5" data-name="standing-up-man-" transform="translate(213.208 557)">
        <g id="Group_1-5" data-name="Group 1" transform="translate(15.459 0)">
          <circle id="Ellipse_1-5" data-name="Ellipse 1" cx="4.507" cy="4.507" r="4.507" transform="translate(2.935)" fill="#010002"/>
          <path id="Path_1-5" data-name="Path 1" d="M23.92,11.163a3.64,3.64,0,0,0-2.279.042c-4.954.878-6.563,9.551-6.109,16.164.2,2.859,3.177,2.889,2.978,0a25.37,25.37,0,0,1,.752-8.632v9.425c0,.111.007.215.011.322,0,.051-.01.094-.01.146,0,7.479-.009,14.955-.213,22.428-.091,3.322,3.315,3.309,3.405,0,.16-5.857.2-11.717.21-17.578a2.608,2.608,0,0,0,.484,0c.01,5.861.049,11.721.208,17.576.091,3.309,3.5,3.322,3.405,0-.2-7.473-.212-14.949-.212-22.428a4.208,4.208,0,0,0-.052-.646c0-3.247-.087-6.5-.061-9.742,1.014,2.6,1.107,6.558.931,9.125-.2,2.887,2.781,2.858,2.978,0C30.811,20.617,29.125,11.719,23.92,11.163Z" transform="translate(-15.459 0)" fill="#010002"/>
        </g>
      </g>
    </g>
    <g id="Group_9" data-name="Group 9" transform="translate(0 -10)">
      <path id="Rectangle_14" data-name="Rectangle 14" d="M0,0H635a0,0,0,0,1,0,0V0a99,99,0,0,1-99,99H0a0,0,0,0,1,0,0V0A0,0,0,0,1,0,0Z" transform="translate(67 318)" fill="#e89d1d"/>
      <text id="_1_out_of_4_kids_is_overweight" data-name="1 out of 4 kids
 is overweight" transform="translate(525 361)" fill="#fff" font-size="29" font-family="Rubik-Regular, Rubik"><tspan x="-92.336" y="0">1 out of 4 kids</tspan><tspan x="-93.22" y="34" xml:space="preserve"> is overweight</tspan></text>
      <g id="standing-up-man--6" data-name="standing-up-man-" transform="translate(102.541 338)">
        <g id="Group_1-6" data-name="Group 1">
          <circle id="Ellipse_1-6" data-name="Ellipse 1" cx="4.507" cy="4.507" r="4.507" transform="translate(22.179 0)" fill="#010002"/>
          <path id="Path_1-6" data-name="Path 1" d="M28.256,11.163a8.205,8.205,0,0,0-3.447.042c-7.493.878-9.926,9.551-9.239,16.164.3,2.859,4.805,2.889,4.5,0-.25-2.41-.143-6.047,1.138-8.632v9.425c0,.111.011.215.016.322,0,.051-.015.094-.015.146,0,7.479-.013,14.955-.322,22.428-.137,3.322,5.014,3.309,5.15,0,.242-5.857.3-11.717.317-17.578a5.96,5.96,0,0,0,.732,0c.015,5.861.074,11.721.314,17.576.137,3.309,5.288,3.322,5.15,0-.309-7.473-.32-14.949-.32-22.428a2.822,2.822,0,0,0-.078-.646c-.007-3.247-.131-6.5-.093-9.742,1.534,2.6,1.674,6.558,1.408,9.125-.3,2.887,4.206,2.858,4.5,0C38.678,20.617,36.128,11.719,28.256,11.163Z" fill="#010002"/>
        </g>
      </g>
      <g id="standing-up-man--7" data-name="standing-up-man-" transform="translate(169.541 338)">
        <g id="Group_1-7" data-name="Group 1">
          <circle id="Ellipse_1-7" data-name="Ellipse 1" cx="4.507" cy="4.507" r="4.507" transform="translate(22.179 0)" fill="#010002"/>
          <path id="Path_1-7" data-name="Path 1" d="M28.256,11.163a8.205,8.205,0,0,0-3.447.042c-7.493.878-9.926,9.551-9.239,16.164.3,2.859,4.805,2.889,4.5,0-.25-2.41-.143-6.047,1.138-8.632v9.425c0,.111.011.215.016.322,0,.051-.015.094-.015.146,0,7.479-.013,14.955-.322,22.428-.137,3.322,5.014,3.309,5.15,0,.242-5.857.3-11.717.317-17.578a5.96,5.96,0,0,0,.732,0c.015,5.861.074,11.721.314,17.576.137,3.309,5.288,3.322,5.15,0-.309-7.473-.32-14.949-.32-22.428a2.822,2.822,0,0,0-.078-.646c-.007-3.247-.131-6.5-.093-9.742,1.534,2.6,1.674,6.558,1.408,9.125-.3,2.887,4.206,2.858,4.5,0C38.678,20.617,36.128,11.719,28.256,11.163Z" fill="#010002"/>
        </g>
      </g>
      <g id="standing-up-man--8" data-name="standing-up-man-" transform="translate(204.541 338)">
        <g id="Group_1-8" data-name="Group 1">
          <circle id="Ellipse_1-8" data-name="Ellipse 1" cx="4.507" cy="4.507" r="4.507" transform="translate(22.179 0)" fill="#010002"/>
          <path id="Path_1-8" data-name="Path 1" d="M28.256,11.163a8.205,8.205,0,0,0-3.447.042c-7.493.878-9.926,9.551-9.239,16.164.3,2.859,4.805,2.889,4.5,0-.25-2.41-.143-6.047,1.138-8.632v9.425c0,.111.011.215.016.322,0,.051-.015.094-.015.146,0,7.479-.013,14.955-.322,22.428-.137,3.322,5.014,3.309,5.15,0,.242-5.857.3-11.717.317-17.578a5.96,5.96,0,0,0,.732,0c.015,5.861.074,11.721.314,17.576.137,3.309,5.288,3.322,5.15,0-.309-7.473-.32-14.949-.32-22.428a2.822,2.822,0,0,0-.078-.646c-.007-3.247-.131-6.5-.093-9.742,1.534,2.6,1.674,6.558,1.408,9.125-.3,2.887,4.206,2.858,4.5,0C38.678,20.617,36.128,11.719,28.256,11.163Z" fill="#010002"/>
        </g>
      </g>
      <g id="standing-up-man--9" data-name="standing-up-man-" transform="translate(127.541 338)">
        <g id="Group_1-9" data-name="Group 1" transform="translate(15.459 0)">
          <circle id="Ellipse_1-9" data-name="Ellipse 1" cx="4.507" cy="4.507" r="4.507" transform="translate(12.992)" fill="#fff"/>
          <path id="Path_1-9" data-name="Path 1" d="M35.442,11.163a19.873,19.873,0,0,0-5.383.042c-11.7.878-15.5,9.551-14.427,16.164.465,2.859,7.5,2.889,7.033,0-.39-2.41-.223-6.047,1.777-8.632v9.425c0,.111.017.215.025.322,0,.051-.023.094-.023.146,0,7.479-.02,14.955-.5,22.428-.214,3.322,7.829,3.309,8.042,0,.378-5.857.473-11.717.5-17.578.381.016.762.016,1.143,0,.023,5.861.116,11.721.49,17.576.214,3.309,8.257,3.322,8.042,0-.483-7.473-.5-14.949-.5-22.428a1.873,1.873,0,0,0-.122-.646c-.011-3.247-.2-6.5-.145-9.742,2.4,2.6,2.614,6.558,2.2,9.125-.472,2.887,6.568,2.858,7.033,0C51.716,20.617,47.734,11.719,35.442,11.163Z" transform="translate(-15.459 0)" fill="#fff"/>
        </g>
      </g>
    </g>
    <g id="Group_10" data-name="Group 10">
      <path id="Rectangle_17" data-name="Rectangle 17" d="M0,0H635a0,0,0,0,1,0,0V0a99,99,0,0,1-99,99H0a0,0,0,0,1,0,0V0A0,0,0,0,1,0,0Z" transform="translate(67 192)" fill="#e89d1d"/>
      <text id="_2_out_of_3_kids_are_inactive_" data-name="2 out of 3 kids 
are inactive " transform="translate(522 235)" fill="#fff" font-size="27" font-family="Rubik-Regular, Rubik"><tspan x="-91.165" y="0">2 out of 3 kids </tspan><tspan x="-76.019" y="32">are inactive </tspan></text>
      <g id="standing-up-man--10" data-name="standing-up-man-" transform="translate(98.541 215)">
        <g id="Group_1-10" data-name="Group 1">
          <circle id="Ellipse_1-10" data-name="Ellipse 1" cx="4.507" cy="4.507" r="4.507" transform="translate(22.179 0)" fill="#010002"/>
          <path id="Path_1-10" data-name="Path 1" d="M28.256,11.163a8.205,8.205,0,0,0-3.447.042c-7.493.878-9.926,9.551-9.239,16.164.3,2.859,4.805,2.889,4.5,0-.25-2.41-.143-6.047,1.138-8.632v9.425c0,.111.011.215.016.322,0,.051-.015.094-.015.146,0,7.479-.013,14.955-.322,22.428-.137,3.322,5.014,3.309,5.15,0,.242-5.857.3-11.717.317-17.578a5.96,5.96,0,0,0,.732,0c.015,5.861.074,11.721.314,17.576.137,3.309,5.288,3.322,5.15,0-.309-7.473-.32-14.949-.32-22.428a2.822,2.822,0,0,0-.078-.646c-.007-3.247-.131-6.5-.093-9.742,1.534,2.6,1.674,6.558,1.408,9.125-.3,2.887,4.206,2.858,4.5,0C38.678,20.617,36.128,11.719,28.256,11.163Z" fill="#010002"/>
        </g>
      </g>
      <g id="standing-up-man--11" data-name="standing-up-man-" transform="translate(132.541 215)">
        <g id="Group_1-11" data-name="Group 1">
          <circle id="Ellipse_1-11" data-name="Ellipse 1" cx="4.507" cy="4.507" r="4.507" transform="translate(22.179 0)" fill="#010002"/>
          <path id="Path_1-11" data-name="Path 1" d="M28.256,11.163a8.205,8.205,0,0,0-3.447.042c-7.493.878-9.926,9.551-9.239,16.164.3,2.859,4.805,2.889,4.5,0-.25-2.41-.143-6.047,1.138-8.632v9.425c0,.111.011.215.016.322,0,.051-.015.094-.015.146,0,7.479-.013,14.955-.322,22.428-.137,3.322,5.014,3.309,5.15,0,.242-5.857.3-11.717.317-17.578a5.96,5.96,0,0,0,.732,0c.015,5.861.074,11.721.314,17.576.137,3.309,5.288,3.322,5.15,0-.309-7.473-.32-14.949-.32-22.428a2.822,2.822,0,0,0-.078-.646c-.007-3.247-.131-6.5-.093-9.742,1.534,2.6,1.674,6.558,1.408,9.125-.3,2.887,4.206,2.858,4.5,0C38.678,20.617,36.128,11.719,28.256,11.163Z" fill="#010002"/>
        </g>
      </g>
      <g id="running" transform="translate(163.6 195.25)">
        <g id="Group_3" data-name="Group 3" transform="translate(16 25.726)">
          <path id="Path_5" data-name="Path 5" d="M163.775,46.5a2.969,2.969,0,0,0-3.744.371l-8.161,8.161a2.967,2.967,0,1,0,4.2,4.2l6.441-6.441,4.609,3.32,6.3-2.93Z" transform="translate(-137.645 -46.005)" fill="#fff"/>
          <path id="Path_6" data-name="Path 6" d="M36.16,242.289l-19.29,19.29a2.967,2.967,0,0,0,4.2,4.2l17.192-17.192Z" transform="translate(-16 -222.872)" fill="#fff"/>
        </g>
        <g id="Group_4" data-name="Group 4" transform="translate(33.806 23.5)">
          <path id="Path_7" data-name="Path 7" d="M224.292,122.441h-9v-5.935a2.97,2.97,0,0,0-5.067-2.1l-11.87,11.87a2.967,2.967,0,0,0,0,4.2l6.8,6.8-8.289,8.289a2.967,2.967,0,0,0,4.2,4.2l10.387-10.387a2.967,2.967,0,0,0,0-4.2l-6.8-6.8,4.707-4.707v1.739a2.968,2.968,0,0,0,2.968,2.968h11.97a2.968,2.968,0,1,0,0-5.935Z" transform="translate(-196 -104.634)" fill="#fff"/>
          <ellipse id="Ellipse_2" data-name="Ellipse 2" cx="5" cy="4" rx="5" ry="4" transform="translate(18.594 0.25)" fill="#fff"/>
        </g>
      </g>
    </g>
    <g id="Group_8" data-name="Group 8" transform="translate(0 115)">
      <path id="Rectangle_15" data-name="Rectangle 15" d="M0,0H635a0,0,0,0,1,0,0V0a99,99,0,0,1-99,99H0a0,0,0,0,1,0,0V0A0,0,0,0,1,0,0Z" transform="translate(67 425)" fill="#e89d1d"/>
      <text id="only_1_kids_are_sports_fit" data-name="only 1% kids are 
sports fit" transform="translate(524 467)" fill="#fff" font-size="33" font-family="Rubik-Regular, Rubik"><tspan x="-122.711" y="0">only 1% kids are </tspan><tspan x="-67.716" y="39">sports fit</tspan></text>
      <text id="_1_" data-name="1%" transform="translate(157 498)" fill="#fff" font-size="77" font-family="Rubik-Regular, Rubik"><tspan x="-45.584" y="0">1%</tspan></text>
    </g>
  </g>
</svg>
