<?xml version="1.0" encoding="iso-8859-1"?>
<!-- Generator: Adobe Illustrator 19.0.0, SVG Export Plug-In . SVG Version: 6.00 Build 0)  -->
<svg version="1.1" id="Capa_1" xmlns="http://www.w3.org/2000/svg" xmlns:xlink="http://www.w3.org/1999/xlink" x="0px" y="0px"
	 viewBox="0 0 512 512" style="enable-background:new 0 0 512 512;" xml:space="preserve">
<path style="fill:#FFF573;" d="M507.651,260.349c0,138.1-111.746,251.65-251.65,251.65c-139.541,0-251.65-113.208-251.65-251.65
	C4.35,121.366,117.017,8.699,256,8.699C395.242,8.699,507.651,121.604,507.651,260.349z"/>
<path style="fill:#A5E17D;" d="M421.599,449.862C377.481,488.491,319.651,512,256,512c-60.999,0-116.758-21.635-160.203-57.551
	l25.228-29.402c1.574-1.823,3.863-2.879,6.276-2.879H394.02c2.413,0,4.702,1.056,6.276,2.879L421.599,449.862z"/>
<ellipse style="fill:#82CD64;" cx="257.657" cy="490.418" rx="79.434" ry="15.323"/>
<path style="fill:#FF9B69;" d="M261.828,123.564v-12.257h-21.607v12.47c-1.569,1.049-2.32,0.414-11.884,0.605
	c4.026,9.349,12.724,19.564,23.315,19.564c14.901,0,22.059-19.563,22.059-19.563C264.696,124.133,263.539,124.969,261.828,123.564z"
	/>
<path style="fill:#FFAF82;" d="M195.494,110.679c-3.14-16.775-8.442-36.641-11.195-46.908c-0.672-2.505,0.568-5.12,2.928-6.195
	l47.416-26.663c1.56-0.846,2.534-7.13,2.545-8.904l2.268-12.921c1.004-5.141,3.727-8.426,6.385-9.045
	c1.117-0.26,2.125,0.721,1.879,1.841v17.577v12.043c0.212,2.032-0.855,3.837-2.473,5.033c-1.926,1.424-3.408,0.271-4.62,1.299
	L209.95,63.845c-1.894,1.291-2.779,3.623-2.213,5.844c2.623,10.313,6.309,25.424,8.495,37.111L195.494,110.679z"/>
<path style="fill:#FF9B69;" d="M247.715,31.505c0.302,2.917-2.243,5.964-5.186,5.842c-0.209,0.02-1.089-0.202-1.904,0.488
	l-30.68,26.013c-1.895,1.284-2.776,3.614-2.206,5.841c2.62,10.315,6.307,25.425,8.492,37.107l-7.539,1.408
	c-2.164-12.5-5.023-30.075-7.167-38.515c-0.57-2.227,0.311-4.557,2.206-5.841c38.999-33.361,39.453-32.714,40.1-36.144
	c1.736-28.842,1.505-27.546,2.009-27.662c1.118-0.259,2.123,0.725,1.874,1.843V31.505z"/>
<path style="fill:#FFAF82;" d="M306.35,110.679c3.14-16.775,8.441-36.641,11.195-46.908c0.672-2.505-0.568-5.12-2.928-6.195
	l-47.416-26.663c-1.56-0.846-2.534-7.13-2.545-8.904l-2.268-12.921c-1.004-5.141-3.727-8.426-6.385-9.045
	c-1.117-0.26-2.125,0.721-1.879,1.841v17.577v12.043c-0.306,2.926,2.25,5.956,5.178,5.842c0.206,0.02,1.108-0.196,1.915,0.489
	l30.675,26.008c1.893,1.291,2.779,3.623,2.213,5.844c-2.624,10.313-6.309,25.424-8.495,37.111L306.35,110.679z"/>
<path style="fill:#FF9B69;" d="M254.129,31.505c-0.21,2.027,0.851,3.833,2.468,5.031c0.781,0.579,1.748,0.851,2.719,0.811
	c1.522-0.622,1.784,0.645,32.583,26.501c1.895,1.284,2.775,3.614,2.206,5.841c-2.62,10.315-6.307,25.425-8.492,37.107l7.539,1.408
	c2.164-12.5,5.023-30.075,7.167-38.515c0.57-2.227-0.311-4.557-2.206-5.841c-38.999-33.361-39.453-32.714-40.1-36.144
	c-1.736-28.842-1.505-27.546-2.009-27.662c-1.118-0.259-2.123,0.725-1.874,1.843V31.505z"/>
<path style="fill:#FFAF82;" d="M283.11,483.785c1.266,5.005,5.575,9.412,8.399,11.538c1.628,1.628,0.475,4.412-1.828,4.412h-28.02
	c-1.731,0-4.066-1.097-3.96-3.106l0.443-8.404c-0.864-1.342-1.081-3-0.592-4.52l4.02-13.545h17.516L283.11,483.785z"/>
<path style="fill:#FF9B69;" d="M289.685,499.738h-28.029c-1.731,0-4.062-1.097-3.956-3.112l0.443-8.407
	c-0.865-1.34-1.076-2.996-0.59-4.514l2.827-9.515c-0.01,0.063-0.01,0.137-0.01,0.201c0,11.224,9.103,20.328,20.338,20.328
	c2.901,0,5.655-0.612,8.155-1.709c0.939,0.928,1.847,1.709,2.648,2.31C293.135,496.954,291.986,499.738,289.685,499.738z"/>
<path style="fill:#FFAF82;" d="M256.341,414.945l-1.948,1.001c-1.538,0.791-3.369-0.326-3.369-2.056v-6.761l-7.648-16.615
	l-12.659-11.867l6.066-15.295l15.824,5.01l10.285,1.055l-2.371,39.121C260.356,411.263,258.767,413.697,256.341,414.945z"/>
<path style="fill:#FF9B69;" d="M259.643,407.394c0,1.593-0.074,3.155-0.232,4.695c-0.728,1.202-1.782,2.195-3.07,2.858l-1.951,1.003
	c-1.53,0.791-3.365-0.327-3.365-2.057v-6.762l-7.648-16.615l-12.659-11.867l3.397-8.566
	C248.408,371.729,259.643,387.805,259.643,407.394z"/>
<rect x="219.452" y="232.667" style="fill:#FFAF82;" width="72.018" height="25.247"/>
<path style="fill:#736E6E;" d="M291.202,250.528h-71.373c-1.584,0-3.063,0.791-3.943,2.109l-49.657,74.413
	c-3.326,3.477-4.822,8.1-4.095,12.662c0.727,4.562,3.603,8.609,7.879,11.082l68.405,39.8c0.69,0.401,1.575,0.112,1.894-0.619
	l10.271-23.489c0.256-0.584,0.062-1.267-0.461-1.631l-43.116-30.008c-0.67-0.466-0.765-1.42-0.201-2.01l36.21-37.838
	c1.588-1.659,3.785-2.597,6.082-2.597l0,0c4.351,0,7.991,3.312,8.382,7.645c1.767,19.538,3.279,47.317,1.762,77.65l-2.743,97.188
	c-0.023,0.816,0.603,1.504,1.417,1.559l24.785,1.666c0.818,0.055,1.533-0.55,1.614-1.366l9.502-95.553l0.098-0.677l0.035-0.682
	c2.921-57.777,3.63-104.365-0.961-127.843C292.824,251.137,292.069,250.528,291.202,250.528z"/>
<path style="fill:#50A5AF;" d="M312.298,96.563l-12.645,42.969c-3.335,9.559-7.622,18.269-7.457,27.797l1.243,74.048
	c0.021,1.533-1.201,2.796-2.724,2.817l-77.166,1.139c-1.025-0.021-1.854-0.839-1.895-1.864l-1.367-34.476l-1.698-42.969
	c-0.12-8.734-4.504-16.628-7.457-25.187l-11.413-44.356c-0.497-1.916,0.684-3.853,2.61-4.298l19.211-4.433
	c1.874-0.28,3.635,0.942,4.039,2.786l5.437,25.756c0.777,3.563,3.935,6.11,7.581,6.11c0.104,0.039,3.972-0.1,4.909,3.925
	c1.781,7.571,8.585,13.215,16.705,13.215c8.109,0,14.913-5.644,16.684-13.215c0.539-2.268,2.486-3.925,4.816-3.925h0.104
	c3.656,0,6.804-2.548,7.581-6.11l7.198-25.756c0.404-1.843,2.164-3.065,4.039-2.786l19.087,4.401
	C311.697,92.607,312.878,94.627,312.298,96.563z"/>
<path style="fill:#FFC396;" d="M282.92,93.371c-1.132,3.72-4.458,7.063-7.832,6.032c-3.444-1.046-4.247-5.735-3.146-9.373
	c1.212-3.975,4.615-7.008,7.834-6.032C282.807,84.92,284.215,89.116,282.92,93.371z"/>
<path style="fill:#FFAF82;" d="M278.399,83.821c-0.002,0.022-1.575,15.711-1.579,15.732c-3.799,0.433-6.521-4.093-4.877-9.524
	C273.046,86.41,275.748,83.915,278.399,83.821z"/>
<path style="fill:#FF9B69;" d="M281.056,92.803c-0.748,2.457-2.944,4.665-5.172,3.983c-2.283-0.694-2.801-3.798-2.078-6.189
	c0.765-2.51,2.972-4.651,5.173-3.983C280.982,87.223,281.912,89.994,281.056,92.803z"/>
<ellipse transform="matrix(0.2911 0.9567 -0.9567 0.2911 248.9453 -151.2679)" style="fill:#FFC396;" cx="226.544" cy="92.347" rx="8.051" ry="5.737"/>
<path style="fill:#FFAF82;" d="M229.099,99.971c-3.335,1.252-6.85-2.045-8.043-5.961c-1.712-5.629,1.361-10.794,5.87-9.302
	c-2.883,1.05-4.198,5.148-2.933,9.302C224.907,97.013,226.925,99.243,229.099,99.971z"/>
<ellipse transform="matrix(0.2911 0.9567 -0.9567 0.2911 248.9453 -151.2679)" style="fill:#FF9B69;" cx="226.544" cy="92.347" rx="5.113" ry="3.643"/>
<path style="fill:#FFC396;" d="M276.806,83.307l-1.585,13.712c0,8.617-11.185,15.617-18.331,19.211
	c-1.191,0.59-2.454,0.994-3.739,1.191c-0.01,0-0.01,0-0.021,0c-0.176,0.031-0.352,0.052-0.539,0.072
	c-0.217,0.021-0.425,0.041-0.642,0.052c-2.289,0.135-4.609-0.362-6.701-1.471c-6.794-3.645-17.109-10.564-17.109-19.056
	l-1.595-13.712c0-9.032,4.818-17.128,12.334-21.251c5.606-2.937,9.538-2.423,15.887-2.434
	C266.895,59.622,276.806,70.279,276.806,83.307z"/>
<g>
	<path style="fill:#FFAF82;" d="M252.427,59.622c-0.29,0.031-0.642,0.031-1.036,0.031C251.733,59.633,252.075,59.622,252.427,59.622
		z"/>
	<path style="fill:#FFAF82;" d="M253.131,117.421c-0.176,0.031-0.352,0.052-0.539,0.072c-0.217,0.021-0.425,0.041-0.642,0.052
		c-2.289,0.135-4.609-0.362-6.701-1.471c-6.794-3.645-17.109-10.564-17.109-19.056l-1.595-13.712
		c0-9.032,4.818-17.128,12.334-21.251c4.448-2.33,7.583-2.517,12.511-2.403c-6.897,0.342-12.987,4.132-16.808,9.808
		c-0.228,2.382,0.507,5.157-1.616,8.855l-2.454,6.09l1.471,12.614c0,8.492,10.315,15.41,17.109,19.056
		C250.366,116.758,251.744,117.204,253.131,117.421z"/>
</g>
<path style="fill:#B9783D;" d="M236.314,63.383c-4.901,3.309-5.066,4.263-4.987,8.881c0.037,2.121-0.503,4.213-1.557,6.054
	l-2.581,6.392c-0.225,0.556-1.004,0.592-1.27,0.056c-0.877-1.764-1.459-4.486-1.459-6.086v-8.566
	C224.461,63.934,231.131,60.141,236.314,63.383z"/>
<g>
	<path style="fill:#AA6432;" d="M227.247,70.114v8.566c0,1.08,0.265,2.674,0.708,4.138l-0.764,1.891
		c-0.224,0.555-1.004,0.593-1.27,0.056c-0.877-1.763-1.46-4.486-1.46-6.085v-8.566c0-5.152,4.636-8.644,9.18-7.786
		C230.164,62.983,227.247,66.027,227.247,70.114z"/>
	<path style="fill:#AA6432;" d="M266.717,63.391c5.139,3.475,6.388,4.241,6.62,9.457c0.08,1.792,0.418,3.563,1.027,5.249l1.927,6.7
		c0.182,0.635,1.066,0.658,1.289,0.036c0.68-1.884,0.976-4.647,0.976-6.153v-8.556c0-4.118-3.144-7.639-7.254-7.903
		C268.695,62.053,266.665,63.356,266.717,63.391z"/>
	<path style="fill:#AA6432;" d="M278.556,66.778v2.068c0,0.653-4.352,3.229-5.236,2.798c-0.008-0.004-0.018-0.008-0.026-0.014
		c-0.014-0.006-0.028-0.017-0.042-0.03c-0.06-0.054-0.119-0.107-0.181-0.161c-7.255-6.359-21.618-4.026-30.291-2.632
		c-0.01,0.002-0.022,0.002-0.032,0.004c-2.344,0.376-4.269,0.684-5.524,0.728c-4.963,0.179-9.793-3.097-13.505-7.236
		c-0.754-0.839-1.462-1.714-2.113-2.604c-0.956-1.302-1.797-2.634-2.495-3.927l-0.702-1.302c-0.507-0.941,0.224-2.07,1.289-1.992
		c0,0,3.008,0.956,6.856,1.469c0,0,2.427,0.354,8.452,0.02c5.733-0.754,13.187-2.681,19.274-2.422
		c7.415,0.318,14.051,2.046,18.504,5.132c2.497,1.726,4.307,3.881,5.18,6.45C278.351,64.262,278.556,65.481,278.556,66.778z"/>
</g>
<g>
	<path style="fill:#965028;" d="M239.716,69.282c-0.99,0.139-1.833,0.235-2.493,0.258c-7.443,0.269-14.589-7.236-18.112-13.767
		l-0.702-1.302c-0.507-0.941,0.224-2.07,1.289-1.992c0,0,1.579,0.503,3.917,0.976c-0.094,0.32-0.07,0.68,0.111,1.016
		C223.805,54.583,229.946,67.187,239.716,69.282z"/>
	<path style="fill:#965028;" d="M274.313,70.001c-0.168,0.518-0.647,1.954-1.06,1.599c-7.204-6.426-20.925-4.326-30.474-2.792
		c-0.01,0.002-0.022,0.002-0.032,0.004c-0.453-0.248,22.198-5.827,30.027-2.284C274.095,67.126,274.759,68.623,274.313,70.001z"/>
</g>
<path style="fill:#5A5555;" d="M283.859,477.679c-0.3,0.29-0.715,0.466-1.16,0.435l-23.457-1.574l-0.052-0.052
	c-0.559,0-1.098-0.041-1.636-0.124c-0.083-0.031-0.176-0.062-0.249-0.104c-0.031-0.01-0.052-0.021-0.073-0.041
	c-0.062-0.031-0.114-0.072-0.155-0.114c-0.073-0.052-0.145-0.114-0.197-0.186c-0.062-0.062-0.114-0.145-0.166-0.217
	c-0.041-0.072-0.083-0.135-0.104-0.207c-0.041-0.093-0.062-0.186-0.083-0.28c-0.021-0.104-0.031-0.217-0.031-0.331l2.744-97.185
	c1.522-30.334,0.01-58.11-1.761-77.652c-0.197-2.164-1.201-4.08-2.703-5.447c-1.502-1.367-3.5-2.196-5.675-2.196
	c-2.299,0-4.495,0.932-6.09,2.599l-36.206,37.832c-0.559,0.59-0.466,1.543,0.197,2.009l43.124,30.013
	c0.518,0.362,0.715,1.046,0.456,1.626l-10.274,23.488c-0.321,0.735-1.201,1.025-1.895,0.621l-0.507-0.3l0.124-6.39
	c0.135-6.659-2.817-13.008-8.005-17.192l-30.189-24.338c-5.406-3.573-6.4-11.092-2.123-15.949l44.553-45.806
	c10.191-11.547,28.418,8.751,28.232,19.719c0,0,0.135,121.874-0.839,167.65C269.608,470.772,274.932,474.562,283.859,477.679z"/>
<g>
	<path style="fill:#4B969B;" d="M298.451,89.552c-8.492,27.186-36.382,81.142-62.138,62.687
		c-19.221-13.764-28.925-42.523-33.524-62.47l8.751-2.02c1.875-0.28,3.635,0.942,4.039,2.786l5.437,25.756
		c0.777,3.563,3.935,6.11,7.581,6.11h0.104c2.33,0,4.277,1.657,4.805,3.925c1.781,7.571,8.585,13.215,16.705,13.215
		c8.109,0,14.913-5.644,16.684-13.215c0.539-2.268,2.486-3.925,4.816-3.925h0.104c3.656,0,6.804-2.548,7.581-6.11l7.198-25.756
		c0.404-1.843,2.164-3.065,4.039-2.786L298.451,89.552z"/>
	<path style="fill:#4B969B;" d="M294.578,153.555c-17.782,27.952-53.159,54.775-84.084,60.637l0.357,9.009
		c14.822-2.052,45.813-7.198,55.857-15.554c13.37-11.133,14.716,1.553,6.794,8.285c-7.426,6.307-30.405,14.893-62.469,11.889
		l0.62,15.649c0.041,1.025,0.87,1.843,1.895,1.864l77.166-1.139c1.522-0.021,2.744-1.284,2.724-2.817l-1.243-74.048
		C292.113,162.606,293.128,158.081,294.578,153.555z"/>
</g>
<path style="fill:#FF9B69;" d="M252.117,109.386c-1.245,0-2.493-0.149-3.723-0.451c-0.946-0.232-1.523-1.187-1.292-2.132
	c0.232-0.946,1.187-1.523,2.132-1.292c3.243,0.795,6.659,0.216,9.619-1.631c0.826-0.516,1.913-0.264,2.429,0.561
	c0.516,0.825,0.264,1.914-0.562,2.429C258.058,108.53,255.096,109.386,252.117,109.386z"/>
<g>
	<circle style="fill:#BA6746;" cx="239.316" cy="86.487" r="3.409"/>
	<circle style="fill:#BA6746;" cx="265.538" cy="86.487" r="3.409"/>
</g>
<g>
</g>
<g>
</g>
<g>
</g>
<g>
</g>
<g>
</g>
<g>
</g>
<g>
</g>
<g>
</g>
<g>
</g>
<g>
</g>
<g>
</g>
<g>
</g>
<g>
</g>
<g>
</g>
<g>
</g>
</svg>
