<?xml version="1.0" encoding="iso-8859-1"?>
<!-- Generator: Adobe Illustrator 19.0.0, SVG Export Plug-In . SVG Version: 6.00 Build 0)  -->
<svg version="1.1" id="Capa_1" xmlns="http://www.w3.org/2000/svg" xmlns:xlink="http://www.w3.org/1999/xlink" x="0px" y="0px"
	 viewBox="0 0 512.002 512.002" style="enable-background:new 0 0 512.002 512.002;" xml:space="preserve">
<g>
	<g>
		<path d="M509.866,153.61l-64-85.333c-2.01-2.688-5.177-4.271-8.531-4.271H74.668c-3.354,0-6.521,1.583-8.531,4.271l-64,85.333
			c-3.042,4.042-2.813,9.677,0.542,13.458l245.333,277.323c2.021,2.292,4.938,3.604,7.99,3.604s5.969-1.313,7.99-3.604
			l245.333-277.323C512.678,163.287,512.907,157.652,509.866,153.61z M65.938,132.548c-13.574,19.354-19.693,35.688-21.661,49.354
			l-19.859-22.448l55.583-74.115h51.306C105.472,95.5,81.432,110.453,65.938,132.548z M256.001,421.235l-51.217-57.896
			c1.301,0.008,2.458,0.031,3.832,0.031c28.697,0,72.668-2.1,109.608-12.471L256.001,421.235z M363.043,295.871
			c-7.279,26.766-57.576,39.647-109.365,44.185c-5.249-19.63-21.328-62.716-61.677-62.716c-24.883,0-39.147,11.04-46.346,19.16
			l-38.059-43.021c9.447,1.669,19.793,2.527,30.957,2.527c0.042,0,0.083,0,0.125,0c164.125-0.25,211.708,17.052,222.719,31.458
			C363.459,290.152,363.938,292.589,363.043,295.871z M440.528,212.647c-23.241-41.868-89.513-41.974-184.527-41.974
			c-64,0-64-21.615-64-32c0-24.219,11.115-53.125,64.042-53.333h1.583c85.135,0.333,104.802,54.438,105.583,56.688
			c1.448,4.365,5.531,7.313,10.125,7.313h64c5.896,0,10.667-4.771,10.667-10.667v-31.999l39.583,52.78L440.528,212.647z"/>
	</g>
</g>
<g>
</g>
<g>
</g>
<g>
</g>
<g>
</g>
<g>
</g>
<g>
</g>
<g>
</g>
<g>
</g>
<g>
</g>
<g>
</g>
<g>
</g>
<g>
</g>
<g>
</g>
<g>
</g>
<g>
</g>
</svg>
