<svg xmlns="http://www.w3.org/2000/svg" width="512" height="511.949" viewBox="0 0 512 511.949">
  <g id="surface1" transform="translate(0)">
    <path id="Path_106" data-name="Path 106" d="M199.961,447.895A236.009,236.009,0,0,0,246,508.125a15,15,0,0,0,20.012,0,236.077,236.077,0,0,0,46.027-60.23C290.023,439.137,271,427.121,256,415.742,241,427.121,221.977,439.137,199.961,447.895Zm0,0" fill="#ff207c"/>
    <path id="Path_107" data-name="Path 107" d="M477.039,317.992c-2.789,3.16-5.656,6.235-8.609,9.188-29.473,29.468-68.586,50.543-116.262,62.636a365.407,365.407,0,0,1-66.457,10.25c23.441,15.664,55.234,30.743,90.777,30.743,72.414,0,129.278-62.579,131.664-65.243a15,15,0,0,0,0-20.007A225.437,225.437,0,0,0,477.039,317.992Zm0,0" fill="#27e64b"/>
    <path id="Path_108" data-name="Path 108" d="M159.836,389.82C112.16,377.727,73.043,356.652,43.57,327.18q-4.436-4.43-8.613-9.188A225.765,225.765,0,0,0,3.848,345.559a15,15,0,0,0,0,20.011c2.387,2.664,59.25,65.239,131.66,65.239,35.547,0,67.336-15.079,90.781-30.743A365.621,365.621,0,0,1,159.836,389.82Zm0,0" fill="#27e64b"/>
    <path id="Path_109" data-name="Path 109" d="M246,366.738a14.991,14.991,0,0,0,20.012,0c3.68-3.293,90.133-81.851,90.133-181.457S269.688,7.121,266.008,3.824a15,15,0,0,0-20.012,0c-3.683,3.3-90.137,81.855-90.137,181.457S242.316,363.445,246,366.738Zm0,0" fill="#0570f0"/>
    <path id="Path_110" data-name="Path 110" d="M415.445,77.117c-7.273-25.184-15.1-41.664-15.6-42.688a15,15,0,0,0-18.489-7.66c-1.07.379-18.254,6.488-41.2,19.152a314.112,314.112,0,0,1,25.133,45.863A315.619,315.619,0,0,1,415.445,77.117Zm0,0" fill="#ffdc35"/>
    <path id="Path_111" data-name="Path 111" d="M171.84,45.922c-22.942-12.664-40.125-18.774-41.2-19.152a15,15,0,0,0-18.489,7.656c-.492,1.027-8.324,17.508-15.6,42.691a315.268,315.268,0,0,1,50.152,14.664A314.479,314.479,0,0,1,171.84,45.922Zm0,0" fill="#ffdc35"/>
    <path id="Path_112" data-name="Path 112" d="M386.137,185.281c0,26.426-5.223,53.543-15.532,80.59A308.472,308.472,0,0,1,337.27,328.98a372.084,372.084,0,0,1-30.5,38.958c41.3-5.34,98.914-20.438,140.449-61.969,70.429-70.43,64.847-187.114,64.574-192.047a15,15,0,0,0-14.148-14.149c-.676-.035-3.981-.2-9.348-.2-19.43,0-65.879,2.157-112.445,20.289A220.342,220.342,0,0,1,386.137,185.281Zm0,0" fill="#0570f0"/>
    <path id="Path_113" data-name="Path 113" d="M205.234,367.941a372.48,372.48,0,0,1-30.5-38.961A308.5,308.5,0,0,1,141.4,265.871c-10.305-27.047-15.532-54.164-15.532-80.59a220.22,220.22,0,0,1,10.289-65.422C89.586,101.727,43.141,99.57,23.711,99.57c-5.375,0-8.68.164-9.355.2A15,15,0,0,0,.207,113.922c-.273,4.933-5.855,121.617,64.574,192.047C106.32,347.5,163.934,362.6,205.234,367.941Zm0,0" fill="#0570f0"/>
  </g>
</svg>
