<svg xmlns="http://www.w3.org/2000/svg" width="531" height="531" viewBox="0 0 531 531"><g transform="translate(-1177 -385)"><rect width="531" height="531" transform="translate(1177 385)" fill="#0570f0"/><g transform="translate(1187 380.184)"><path d="M205.93,332.215V507.1a252.857,252.857,0,0,1-37.742-10.562q-10.582-3.855-20.711-8.609-3.445-1.617-6.855-3.355-8.742-4.418-17.082-9.488a256.747,256.747,0,0,1-101.574-115.2V332.215a69.391,69.391,0,0,1,51.4-67.02c1.086-.293,2.172-.566,3.281-.793a67.011,67.011,0,0,1,9.027-1.34c1.871-.145,3.762-.23,5.672-.23h45.191a68.978,68.978,0,0,1,14.715,1.57c.27.051.543.113.813.176.8.18,1.6.375,2.383.586a.556.556,0,0,0,.063.02,69.458,69.458,0,0,1,51.422,67.031Zm0,0" fill="#0570f0"/><path d="M205.93,332.215V507.1a252.857,252.857,0,0,1-37.742-10.562q-10.582-3.855-20.711-8.609-3.445-1.617-6.855-3.355-8.742-4.418-17.082-9.488a257.343,257.343,0,0,1-71.8-64.75V332.215a69.391,69.391,0,0,1,51.4-67.02c1.09-.293,2.176-.566,3.281-.793a67.2,67.2,0,0,1,9.027-1.34c1.871-.145,3.762-.23,5.676-.23h15.41a68.978,68.978,0,0,1,14.715,1.57c.27.051.543.113.813.176.8.18,1.6.375,2.383.586a.556.556,0,0,0,.063.02,69.458,69.458,0,0,1,51.422,67.031Zm0,0" fill="#66baed"/><path d="M154.68,264.4l-.164.785-20.758,96.543a20.193,20.193,0,0,1-19.641,16.012h-.352a20.19,20.19,0,0,1-19.641-16.012L73.368,265.191,73.2,264.4Zm0,0" fill="#f2f0ec"/><path d="M113.941,291.238,82.7,308.6l-9.5-44.2,19.41-11.43" fill="#d8d5d0"/><path d="M113.941,291.238,145.179,308.6l9.5-44.2-19.41-11.43" fill="#d8d5d0"/><path d="M20.676,246.109V141.468a93.273,93.273,0,1,1,186.547,0V246.109" fill="#cc7a3b"/><path d="M59.043,145.555c0,37.012,21.676,79.832,33.578,100.555H20.672V141.469A93.215,93.215,0,0,1,113.266,48.2c-28.676.715-54.223,46.723-54.223,97.355Zm0,0" fill="#a35418"/><path d="M138.7,236.1v30.383a24.754,24.754,0,0,1-49.508,0V236.1Zm0,0" fill="#eab599"/><path d="M138.7,264.563v1.926a24.75,24.75,0,0,1-17.434,23.645,24.744,24.744,0,0,1-17.23-20.422q2.479.152,4.984.152a85.514,85.514,0,0,0,29.68-5.3Zm0,0" fill="#f6caae"/><path d="M46.043,186.316a23.021,23.021,0,1,1-19.336-22.723,23.021,23.021,0,0,1,19.336,22.723Zm0,0" fill="#f6caae"/><path d="M46.043,186.316a23.021,23.021,0,0,1-19.336,22.727,86.055,86.055,0,0,1,0-45.449,23.017,23.017,0,0,1,19.336,22.723Zm0,0" fill="#eab599"/><path d="M31.25,186.316a8.229,8.229,0,1,1-8.23-8.227A8.229,8.229,0,0,1,31.25,186.316Zm0,0" fill="#eab599"/><path d="M173.059,156.922v79.133A85.326,85.326,0,0,1,127.7,258.629l-.422.07a84.579,84.579,0,0,1-13.328,1.035A85.65,85.65,0,0,1,28.3,174.086V141.469a86.312,86.312,0,0,1,.875-12.3c20.379,14.656,49.6,13.207,68.215-4.387a48.509,48.509,0,0,0,12.871-20.113,56.523,56.523,0,0,0,17.68,35.285,63.214,63.214,0,0,0,45.121,16.969Zm0,0" fill="#eab599"/><path d="M173.059,156.922v79.133A85.326,85.326,0,0,1,127.7,258.629l-.422.07a85.664,85.664,0,0,1-72.3-84.613V141.469q0-1.3.047-2.59a53.671,53.671,0,0,0,42.371-14.1,48.5,48.5,0,0,0,12.871-20.109,56.524,56.524,0,0,0,17.68,35.285,63.214,63.214,0,0,0,45.121,16.969Zm0,0" fill="#f6caae"/><path d="M159.949,166.852a14.227,14.227,0,1,0-28.453,0" fill="#eab599"/><path d="M96.41,166.852a14.225,14.225,0,1,0-28.449,0" fill="#eab599"/><path d="M91.9,172.906a9.717,9.717,0,1,1-9.719-9.715A9.719,9.719,0,0,1,91.9,172.906Zm0,0" fill="#3d4159"/><path d="M155.438,172.906a9.715,9.715,0,1,1-9.715-9.715A9.716,9.716,0,0,1,155.438,172.906Zm0,0" fill="#3d4159"/><path d="M123.672,197.371H104.238a4.191,4.191,0,1,1,0-8.383h19.434a4.191,4.191,0,0,1,0,8.383Zm0,0" fill="#eab599"/><path d="M113.953,223.891A43.26,43.26,0,0,1,93.07,218.5a3.809,3.809,0,1,1,3.672-6.676,35.547,35.547,0,0,0,34.422,0,3.809,3.809,0,1,1,3.672,6.676,43.26,43.26,0,0,1-20.883,5.395Zm0,0" fill="#eab599"/><path d="M89.922,171.191a4.164,4.164,0,1,1-4.164-4.164A4.165,4.165,0,0,1,89.922,171.191Zm0,0" fill="#fff"/><path d="M153.934,171.191a4.162,4.162,0,1,1-4.16-4.164A4.162,4.162,0,0,1,153.934,171.191Zm0,0" fill="#fff"/><path d="M172.25,196.574A10.67,10.67,0,1,1,161.578,185.9,10.67,10.67,0,0,1,172.25,196.574Zm0,0" fill="#eab599"/><path d="M76.988,196.574A10.668,10.668,0,1,1,66.32,185.9,10.667,10.667,0,0,1,76.988,196.574Zm0,0" fill="#eab599"/><path d="M489.023,330.105v32.047A257.016,257.016,0,0,1,364.511,487.937a255.489,255.489,0,0,1-67.793,20.832.792.792,0,0,1-.168.023V330.1a72.576,72.576,0,0,1,66.656-72.34c1.965-.168,3.938-.238,5.934-.238h47.273A72.477,72.477,0,0,1,489.023,330.1Zm0,0" fill="#bfd5de"/><path d="M489.023,330.105v32.047A257.016,257.016,0,0,1,364.511,487.937,253.364,253.364,0,0,1,333.624,500v-169.9a72.593,72.593,0,0,1,72.6-72.578h10.2a72.585,72.585,0,0,1,72.6,72.578Zm0,0" fill="#eee"/><path d="M321.734,177.465a24.068,24.068,0,1,1-20.227-23.777,24.085,24.085,0,0,1,20.227,23.777Zm0,0" fill="#d3a489"/><path d="M412.273,283.711l-19.488,31.258L373.3,283.711" fill="#f74f4f"/><path d="M419,403.266l-26.219,33.086-26.223-33.086,26.227-96.43Zm0,0" fill="#ff207c"/><path d="M321.734,177.465a24.085,24.085,0,0,1-20.227,23.777,90.065,90.065,0,0,1,0-47.555A24.091,24.091,0,0,1,321.734,177.465Zm0,0" fill="#bf8e75"/><path d="M306.258,177.465a8.607,8.607,0,1,1-8.609-8.605A8.611,8.611,0,0,1,306.258,177.465Zm0,0" fill="#bf8e75"/><path d="M392.777,287.238,360.1,305.4l-9.941-46.246,20.3-11.961" fill="#bfd5de"/><path d="M392.777,287.238,425.461,305.4l9.941-46.246L415.093,247.2" fill="#bfd5de"/><path d="M463.828,177.465a24.068,24.068,0,1,0,20.227-23.777,24.085,24.085,0,0,0-20.227,23.777Zm0,0" fill="#d3a489"/><path d="M463.828,177.465a24.085,24.085,0,0,0,20.227,23.777,90.065,90.065,0,0,0,0-47.555A24.091,24.091,0,0,0,463.828,177.465Zm0,0" fill="#bf8e75"/><path d="M496.523,177.465a8.609,8.609,0,1,1-8.609-8.605A8.611,8.611,0,0,1,496.523,177.465Zm0,0" fill="#bf8e75"/><path d="M482.4,164.664a89.621,89.621,0,0,1-75.234,88.457,88.526,88.526,0,0,1-14.383,1.156,89.608,89.608,0,0,1-89.613-89.613c0-23.418,8.133-58.574,22.84-74.539,16.375-17.777,40.7-15.078,66.773-15.078a88.56,88.56,0,0,1,14.383,1.16A89.618,89.618,0,0,1,482.4,164.664Zm0,0" fill="#bf8e75"/><path d="M418.684,229.559v31.785a25.9,25.9,0,0,1-51.8,0V229.559Zm0,0" fill="#bf8e75"/><path d="M418.684,259.328v2.016a25.894,25.894,0,0,1-18.242,24.738,25.887,25.887,0,0,1-18.027-21.367q2.6.158,5.219.16a89.037,89.037,0,0,0,14.383-1.156,88.116,88.116,0,0,0,16.668-4.391Zm0,0" fill="#d3a489"/><path d="M482.4,164.664a89.621,89.621,0,0,1-75.234,88.457,89.623,89.623,0,0,1,0-176.918,89.646,89.646,0,0,1,74.793,79.523c.293,2.941.441,5.926.441,8.938Zm0,0" fill="#d3a489"/><path d="M392.785,208.8a45.263,45.263,0,0,1-21.848-5.641,3.985,3.985,0,1,1,3.84-6.984,37.219,37.219,0,0,0,36.016,0,3.985,3.985,0,0,1,3.84,6.984,45.285,45.285,0,0,1-21.848,5.641Zm0,0" fill="#bf8e75"/><path d="M373.7,159.449a10.166,10.166,0,1,1-10.168-10.168A10.165,10.165,0,0,1,373.7,159.449Zm0,0" fill="#3d4159"/><path d="M432.2,159.449a10.166,10.166,0,1,1-10.164-10.168A10.164,10.164,0,0,1,432.2,159.449Zm0,0" fill="#3d4159"/><path d="M371.625,157.652a4.355,4.355,0,1,1-4.355-4.355A4.358,4.358,0,0,1,371.625,157.652Zm0,0" fill="#fff"/><path d="M430.625,157.652a4.355,4.355,0,1,1-4.355-4.355A4.358,4.358,0,0,1,430.625,157.652Zm0,0" fill="#fff"/><path d="M402.949,185.043H382.617a4.385,4.385,0,1,1,0-8.77h20.332a4.385,4.385,0,1,1,0,8.77Zm0,0" fill="#bf8e75"/><path d="M422.289,327.727h39.066v11.957H422.289Zm0,0" fill="#bfd5de"/><path d="M387.539,49.449a54.312,54.312,0,0,1,50.324,51.473l.258,5.184h15.617l8.41,55.93,20.371-6.3-2.734-54.8a54.315,54.315,0,0,0-54.453-51.617Zm0,0" fill="#2a2f4f"/><path d="M478.059,27.816A55.356,55.356,0,1,1,399.774,106.1Zm0,0" fill="#3d4159"/><path d="M399.773,106.1H331.836l-8.414,55.934-20.371-6.3,2.73-54.809a54.322,54.322,0,0,1,54.457-51.617l98.121.371,12.973,23.348" fill="#3d4159"/><path d="M398.027,49.449A54.312,54.312,0,0,0,347.7,100.922l-.258,5.184H331.832l-8.414,55.93-20.371-6.3,2.734-54.8a54.315,54.315,0,0,1,54.453-51.617Zm0,0" fill="#2a2f4f"/><path d="M364.512,468.742v19.2a256.672,256.672,0,0,1-217.035-.012V468.742a81.872,81.872,0,0,1,60.645-79.078c1.277-.344,2.563-.66,3.867-.941a80.932,80.932,0,0,1,10.648-1.566c2.215-.18,4.441-.273,6.7-.273h53.309a82.052,82.052,0,0,1,17.367,1.84c.324.063.648.137.961.211.941.219,1.879.449,2.809.7a.412.412,0,0,1,.074.02,81.942,81.942,0,0,1,60.656,79.09Zm0,0" fill="#3d4159"/><path d="M304.055,388.723l-.2.93-26.109,121.43q-2.027.17-4.066.313c-1.914.125-3.836.238-5.77.324Q261.987,512,256,512q-6.146,0-12.2-.293-2.742-.123-5.488-.324c-1.367-.094-2.727-.187-4.086-.3l-26.1-121.418-.2-.941Zm0,0" fill="#66baed"/><path d="M277.969,416.422l-21.977,35.242L234.02,416.422" fill="#3d4159"/><path d="M273.68,511.395c-1.914.125-3.836.238-5.77.324Q261.987,512,256,512q-6.146,0-12.2-.293-2.742-.123-5.488-.324L256,442.493Zm0,0" fill="#3d4159"/><path d="M255.988,420.395l-36.855,20.48-11.211-52.145,22.9-13.488" fill="#0570f0"/><path d="M255.988,420.395l36.852,20.48,11.211-52.145-22.9-13.488" fill="#2ba1cf"/><path d="M305.445,459.1h11.691L296.718,508.77a254.409,254.409,0,0,1-28.809,2.949l35.871-122.086.273-.91,25.215,8.234Zm0,0" fill="#2a2f4f"/><path d="M243.8,511.707a253.59,253.59,0,0,1-28.828-2.988L194.57,459.1h11.691L182.43,396.957l25.223-8.234.273.91Zm0,0" fill="#2a2f4f"/><path d="M285.2,355.352v35.84a29.207,29.207,0,0,1-58.414,0v-35.84Zm0,0" fill="#eab599"/><path d="M285.2,388.922V391.2a29.209,29.209,0,0,1-20.57,27.9A29.2,29.2,0,0,1,244.3,395q2.93.182,5.883.18a100.7,100.7,0,0,0,35.02-6.254Zm0,0" fill="#f6caae"/><path d="M175.875,296.609a27.167,27.167,0,0,1-22.812,26.813,27.476,27.476,0,0,1-4.348.348,27.162,27.162,0,1,1,27.16-27.16Zm0,0" fill="#f6caae"/><path d="M175.875,296.609a27.167,27.167,0,0,1-22.812,26.813,101.606,101.606,0,0,1,0-53.625A27.167,27.167,0,0,1,175.875,296.609Zm0,0" fill="#eab599"/><path d="M158.422,296.609a9.707,9.707,0,1,1-9.707-9.707A9.709,9.709,0,0,1,158.422,296.609Zm0,0" fill="#eab599"/><path d="M336.105,296.609A27.169,27.169,0,1,0,358.918,269.8a27.167,27.167,0,0,0-22.812,26.813Zm0,0" fill="#f6caae"/><path d="M336.105,296.609a27.167,27.167,0,0,0,22.813,26.813,101.606,101.606,0,0,0,0-53.625A27.167,27.167,0,0,0,336.105,296.609Zm0,0" fill="#eab599"/><path d="M357.047,243.7v38.48a101.056,101.056,0,0,1-84.84,99.746l-.492.082a99.287,99.287,0,0,1-15.727,1.223A101.047,101.047,0,0,1,154.941,282.179V243.695A100.992,100.992,0,0,1,255.988,142.636H256A100.983,100.983,0,0,1,357.047,243.695Zm0,0" fill="#eab599"/><path d="M372.973,296.609a9.707,9.707,0,1,1-9.707-9.707A9.707,9.707,0,0,1,372.973,296.609Zm0,0" fill="#eab599"/><path d="M357.043,243.7v38.48a101.056,101.056,0,0,1-84.836,99.746l-.5.082a101.068,101.068,0,0,1-85.3-99.828V243.7a101.074,101.074,0,0,1,85.324-99.836A101.07,101.07,0,0,1,357.043,243.7Zm0,0" fill="#f6caae"/><path d="M234.469,276.289a11.463,11.463,0,1,1-11.461-11.461A11.464,11.464,0,0,1,234.469,276.289Zm0,0" fill="#3d4159"/><path d="M300.441,276.289a11.465,11.465,0,1,1-11.465-11.461A11.465,11.465,0,0,1,300.441,276.289Zm0,0" fill="#3d4159"/><path d="M232.133,274.27a4.912,4.912,0,1,1-4.914-4.914A4.912,4.912,0,0,1,232.133,274.27Zm0,0" fill="#fff"/><path d="M298.664,274.27a4.912,4.912,0,1,1-4.91-4.914A4.911,4.911,0,0,1,298.664,274.27Zm0,0" fill="#fff"/><path d="M267.457,300.66h-22.93a4.945,4.945,0,0,1,0-9.891h22.93a4.945,4.945,0,0,1,0,9.891Zm0,0" fill="#eab599"/><path d="M255.992,331.945a51.05,51.05,0,0,1-24.637-6.363,4.5,4.5,0,0,1,4.332-7.879,41.931,41.931,0,0,0,40.609,0,4.5,4.5,0,0,1,4.332,7.879,51.061,51.061,0,0,1-24.637,6.363Zm0,0" fill="#eab599"/><path d="M357.047,208.773v39.418H338.238V217.32L202.472,192.093l-28.727-5.34v61.438H154.937V208.769a81.353,81.353,0,0,1,81.352-81.359H275.7c1.07,0,2.141.02,3.211.074a81.34,81.34,0,0,1,78.141,81.289Zm0,0" fill="#2a2f4f"/><path d="M357.047,208.773v39.418H338.238V217.32L202.472,192.093a81.362,81.362,0,0,1,76.434-64.609,81.34,81.34,0,0,1,78.141,81.289Zm0,0" fill="#3d4159"/></g></g></svg>