<svg id="Capa_1" enable-background="new 0 0 512 512" height="512" viewBox="0 0 512 512" width="512" xmlns="http://www.w3.org/2000/svg"><path d="m376 271h-240c-57.99 0-105 47.01-105 105v60l5 5h95v66l5 5h240l5-5v-66h95l5-5v-60c0-57.99-47.01-105-105-105z" fill="#ee3616"/><path d="m376 271h-120v241h120l5-5v-66h95l5-5v-60c0-57.99-47.01-105-105-105z" fill="#cb0010"/><path d="m271 326v42.92c-9.584-3.891-20.399-3.898-30 0v-42.92z" fill="#fe9022"/><path d="m271 326v42.92c-4.79-1.95-9.9-2.92-15-2.92v-40z" fill="#fd6328"/><path d="m256 361c-24.813 0-45 20.187-45 45 0 31.032 30.814 52.772 60 42.42v17.58c0 8.284 6.716 15 15 15s15-6.716 15-15v-60c0-24.813-20.187-45-45-45z" fill="#fcbe29"/><path d="m301 406v60c0 8.28-6.72 15-15 15s-15-6.72-15-15v-17.58c-5 1.78-10.06 2.61-15 2.61v-90.03c5.26 0 10.31.91 15 2.58 17.46 6.18 30 22.87 30 42.42z" fill="#fe9022"/><path d="m256 421c-8.271 0-15-6.729-15-15s6.729-15 15-15 15 6.729 15 15-6.729 15-15 15z" fill="#fed941"/><path d="m271 406c0 8.27-6.73 15-15 15v-30c8.27 0 15 6.73 15 15z" fill="#fcbe29"/><path d="m31 436v61c0 8.284 6.716 15 15 15h90v-76z" fill="#fecec0"/><path d="m376 436v76h90c8.284 0 15-6.716 15-15v-61z" fill="#feb99e"/><path d="m315.96 245.98c-35.538 26.696-84.357 26.715-119.92 0-.03.33-.04.68-.04 1.02v38.83c0 24.91 20.26 45.17 45.17 45.17h29.66c24.91 0 45.17-20.26 45.17-45.17v-38.83c0-.34-.01-.69-.04-1.02z" fill="#feb99e"/><path d="m315.96 245.98c-17.77 13.35-38.86 20.03-59.96 20.03v64.99h15c24.83-.09 45-20.32 45-45.17v-38.83c0-.34-.01-.69-.04-1.02z" fill="#f99b82"/><path d="m151 99.47v66.53c0 57.9 47.1 105 105 105s105-47.1 105-105v-66.53z" fill="#fecec0"/><path d="m256 99.47v171.53c22.29 0 42.99-6.99 60-18.89 27.19-18.98 45-50.5 45-86.11v-66.53z" fill="#feb99e"/><path d="m361 93.333h-210v-18.333c0-41.421 33.579-75 75-75h60c41.421 0 75 33.579 75 75z" fill="#30d9f6"/><path d="m286 0h-30v93.33h105v-18.33c0-41.42-33.58-75-75-75z" fill="#19c0ef"/><path d="m360.99 105.47c-.02-.36-.01-7.68 0-14.47h-209.98v14.47c0 2.87.65 5.83 2.5 8.56l40.71 60c3.95 5.82 11.65 8.38 18.65 6.2 51.32-15.96 82.7.77 91.33.77 5.39 0 10.57-2.54 13.58-6.97l40.71-60c1.85-2.73 2.62-5.7 2.5-8.56z" fill="#19c0ef"/><path d="m360.99 93.33v-2.33h-104.99v82.33c25.98-.05 42.34 7.67 48.2 7.67 5.39 0 10.57-2.54 13.58-6.97l40.71-60c1.81-2.68 2.36-4.6 2.51-8.75.09-2.74.01-6.44-.01-11.95z" fill="#159be1"/></svg>