<?xml version="1.0" encoding="iso-8859-1"?>
<!-- Generator: Adobe Illustrator 19.0.0, SVG Export Plug-In . SVG Version: 6.00 Build 0)  -->
<svg version="1.1" id="Layer_1" xmlns="http://www.w3.org/2000/svg" xmlns:xlink="http://www.w3.org/1999/xlink" x="0px" y="0px"
	 viewBox="0 0 512 512" style="enable-background:new 0 0 512 512;" xml:space="preserve">
<path style="fill:#4DA6FF;" d="M422.957,512H89.043C39.945,512,0,472.055,0,422.957V89.043C0,39.945,39.945,0,89.043,0h333.913
	C472.055,0,512,39.945,512,89.043v333.913C512,472.055,472.055,512,422.957,512z"/>
<path style="fill:#4596E6;" d="M422.957,512C472.055,512,512,472.055,512,422.957V89.043C512,39.945,472.055,0,422.957,0H256v512
	H422.957z"/>
<path style="fill:#E6EEFF;" d="M339.478,439.652H239.304c-64.442,0-116.87-52.428-116.87-116.87V122.435
	c0-27.618,22.469-50.087,50.087-50.087s50.087,22.469,50.087,50.087v50.087h116.87c27.618,0,50.087,22.469,50.087,50.087
	s-22.469,50.087-50.087,50.087h-116.87v50.087c0,9.206,7.49,16.696,16.696,16.696h100.174c27.618,0,50.087,22.469,50.087,50.087
	C389.565,417.183,367.096,439.652,339.478,439.652z"/>
<g>
	<path style="fill:#DAE2F2;" d="M389.565,389.565c0-27.618-22.469-50.087-50.087-50.087H256v100.174h83.478
		C367.096,439.652,389.565,417.183,389.565,389.565z"/>
	<path style="fill:#DAE2F2;" d="M339.478,172.522H256v100.174h83.478c27.618,0,50.087-22.469,50.087-50.087
		S367.096,172.522,339.478,172.522z"/>
</g>
<g>
</g>
<g>
</g>
<g>
</g>
<g>
</g>
<g>
</g>
<g>
</g>
<g>
</g>
<g>
</g>
<g>
</g>
<g>
</g>
<g>
</g>
<g>
</g>
<g>
</g>
<g>
</g>
<g>
</g>
</svg>
