<?xml version="1.0" encoding="UTF-8" standalone="no"?>
<!-- Generator: Adobe Illustrator 16.0.0, SVG Export Plug-In . SVG Version: 6.00 Build 0)  -->

<svg
   xmlns:dc="http://purl.org/dc/elements/1.1/"
   xmlns:cc="http://creativecommons.org/ns#"
   xmlns:rdf="http://www.w3.org/1999/02/22-rdf-syntax-ns#"
   xmlns:svg="http://www.w3.org/2000/svg"
   xmlns="http://www.w3.org/2000/svg"
   xmlns:sodipodi="http://sodipodi.sourceforge.net/DTD/sodipodi-0.dtd"
   xmlns:inkscape="http://www.inkscape.org/namespaces/inkscape"
   version="1.1"
   id="Capa_1"
   x="0px"
   y="0px"
   width="461.55px"
   height="461.55px"
   viewBox="0 0 461.55 461.55"
   style="enable-background:new 0 0 461.55 461.55;"
   xml:space="preserve"
   sodipodi:docname="volume-off-indicator.svg"
   inkscape:version="0.92.4 (5da689c313, 2019-01-14)"><metadata
   id="metadata42"><rdf:RDF><cc:Work
       rdf:about=""><dc:format>image/svg+xml</dc:format><dc:type
         rdf:resource="http://purl.org/dc/dcmitype/StillImage" /></cc:Work></rdf:RDF></metadata><defs
   id="defs40" /><sodipodi:namedview
   pagecolor="#ffffff"
   bordercolor="#666666"
   borderopacity="1"
   objecttolerance="10"
   gridtolerance="10"
   guidetolerance="10"
   inkscape:pageopacity="0"
   inkscape:pageshadow="2"
   inkscape:window-width="1366"
   inkscape:window-height="715"
   id="namedview38"
   showgrid="false"
   inkscape:zoom="0.51132056"
   inkscape:cx="25.424364"
   inkscape:cy="230.77499"
   inkscape:window-x="-8"
   inkscape:window-y="-8"
   inkscape:window-maximized="1"
   inkscape:current-layer="Capa_1" />
<g
   id="g5"
   style="fill:#ffffff;fill-opacity:1">
	<g
   id="volume-off"
   style="fill:#ffffff;fill-opacity:1">
		<path
   d="M345.525,229.5c0-45.9-25.5-84.15-63.75-102v56.1l63.75,63.75C345.525,239.7,345.525,234.6,345.525,229.5z M409.275,229.5    c0,22.95-5.1,45.9-12.75,66.3l38.25,38.25c17.85-30.6,25.5-68.85,25.5-107.1c0-109.65-76.5-201.45-178.5-224.4V56.1    C355.725,81.6,409.275,147.9,409.275,229.5z M34.425,0L1.275,33.15L121.125,153H1.275v153h102l127.5,127.5V262.65L340.425,372.3    c-17.851,12.75-35.7,22.95-58.65,30.601v53.55c35.7-7.65,66.3-22.95,94.35-45.9l51,51l33.15-33.149l-229.5-229.5L34.425,0z     M230.775,25.5l-53.55,53.55l53.55,53.55V25.5z"
   id="path2"
   style="fill:#ffffff;fill-opacity:1" />
	</g>
</g>
<g
   id="g7">
</g>
<g
   id="g9">
</g>
<g
   id="g11">
</g>
<g
   id="g13">
</g>
<g
   id="g15">
</g>
<g
   id="g17">
</g>
<g
   id="g19">
</g>
<g
   id="g21">
</g>
<g
   id="g23">
</g>
<g
   id="g25">
</g>
<g
   id="g27">
</g>
<g
   id="g29">
</g>
<g
   id="g31">
</g>
<g
   id="g33">
</g>
<g
   id="g35">
</g>
</svg>