<svg xmlns="http://www.w3.org/2000/svg" xmlns:xlink="http://www.w3.org/1999/xlink" width="3219.556" height="3256.999" viewBox="0 0 3219.556 3256.999"><defs><radialGradient id="a" cx="0.444" cy="0.055" r="0.598" gradientTransform="matrix(0.043, 0.999, -5.581, 0.239, 0.731, -0.402)" gradientUnits="objectBoundingBox"><stop offset="0" stop-color="#50ace9"/><stop offset="1" stop-color="#fed638"/></radialGradient></defs><g transform="translate(-0.333 -1894.001)"><text transform="translate(1686 2084)" fill="#fed638" font-size="100" font-family="Lato-Black, Lato" font-weight="800" letter-spacing="0.013em"><tspan x="-426.45" y="0">GAMES </tspan><tspan y="0" fill="#50ace9">&amp; SPORTS</tspan></text><g transform="translate(1468.816 2906.639)"><path d="M222.718-1278.963c-14.958,1.994-30.823,7.887-42.155,15.593-5.983,4.08-17.769,15.684-22.211,21.939a100.246,100.246,0,0,0-13.326,27.287c-1.813,6.346-2.085,9.066-1.994,23.48,0,15.049.272,16.953,2.538,24.477,3.445,11.423,7.524,19.672,13.961,28.1,5.621,7.434,23.661,25.837,25.293,25.837a2.032,2.032,0,0,0,1.541-1.45c.453-1.088,1.269-.635,3.717,2.448,6.165,7.252,7.887,11.151,7.978,17.859l.181,6.074-5.621.272-5.621.272-4.261,7.887c-9.61,17.678-14.777,23.843-38.348,45.51-12.148,11.151-15.955,16.5-23.571,33.815-9.338,21.123-19.219,36.988-43.7,70.44L64.795-912.35l-6.437,18.131c-10.607,29.735-10.7,31.276-1.36,47.957,30.551,55.119,48.773,76.423,97.093,113.411,7.524,5.8,9.338,7.524,8.975,9.066-.272,1-1.541,5.439-2.81,9.791-3.264,11.6-3.717,20.035-1.9,40.977,1.813,21.395,1.451,35.9-1.179,45.691-1.994,7.253-1.9,8.25.635,8.25,1.45,0,1.813,1.9,3.173,17.859,6.981,80.14,9.519,107.518,10.153,108.153.453.363,7.8,1.269,16.227,1.994l15.412,1.179.635,9.972c.363,5.439.453,14.414.181,19.944-.453,9.338-3.354,29.463-4.9,33.543-.635,1.722-.635,1.722-1.722-.272-.544-1.088-1.632-1.994-2.266-1.994-1.451,0-7.706,19.038-11.151,33.543-2.176,9.338-2.448,12.148-2.448,27.2,0,13.87.544,20.307,2.9,37.169,5.349,38.348,6.527,54.847,6.527,91.019,0,20.216-.181,23.3-1.269,22.392-1.632-1.36-1.722-1.36-8.068,15.321-11.151,29.1-12.239,44.15-4.17,55.844,9.156,13.417,35.356,20.307,87.846,23.027,10.244.544,25.928,1.541,34.9,2.357,29.282,2.357,40.523,1.36,53.4-4.9,13.145-6.346,20.851-15.23,20.4-23.389l-.272-4.261,6.709-2.9c14.958-6.346,22.483-11.332,26.381-17.587,4.352-6.8,3.173-11.967-3.626-15.412-1.9-1-10.7-3.626-19.672-5.983-18.856-4.8-30.46-9.247-44.331-16.953-10.425-5.711-40.614-25.2-41.611-26.834-.272-.544-1.813-1.179-3.264-1.541-2.538-.544-2.72-.816-2.266-3.9,1.269-8.975,17.769-168.53,18.131-175.42s.907-8.884,3.989-15.412c1.994-4.08,5.893-15.23,8.794-24.658,2.81-9.519,5.439-17.859,5.893-18.675.453-1,2.538-1.632,6.437-1.994,6.255-.635,14.868-3.173,22.392-6.709,5.258-2.538,20.035-12.057,21.667-14.142.816-.907.544-5.621-1.179-19.31-4.9-39.617-11.332-92.651-11.332-93.285,0-.272,1.179-1,2.72-1.451,2.448-.907,2.72-1.36,2.81-5.167a37.536,37.536,0,0,1,.725-6.618l.544-2.357,10.425,4.533c14.958,6.437,27.106,10.244,38.529,12.239,41.611,7.162,84.038-15.774,104.345-56.479,6.89-13.87,9.519-24.568,9.881-40.342a183.171,183.171,0,0,1,1.36-18.4,59.272,59.272,0,0,0,.725-11.876c-.363-6.618,2.176-2.538-34.721-55.391-54.394-78.055-69.986-97.909-82.588-105.252-3.445-2.085-4.08-2.72-3.626-4.533s-.816-3.536-8.25-10.969c-12.148-12.148-17.5-20.67-36.172-57.567-9.338-18.584-18.766-35.809-23.027-42.246-14.686-22.211-31.548-34.812-58.111-43.606-6.89-2.266-7.162-2.81-7.162-13.689v-6.165l10.244-3.354c17.315-5.8,24.568-10.426,28.647-18.4,2.085-4.079,8.794-28.013,10.063-35.99,1.9-11.695.453-18.675-5.8-27.922l-3.9-5.8,2.72-10.335c4.623-18.041,3.536-34.087-3.9-53.125q-16.862-43.787-79.777-45.147C235.409-1279.688,226.253-1279.507,222.718-1278.963Zm-62.1,402.785c0,5.439,2.72,18.947,5.621,28.194,3.082,9.7,12.239,28.466,21.395,43.787,3.082,5.167,5.621,9.791,5.621,10.335,0,.907-12.692,22.483-13.236,22.483-.091,0-2.9-3.354-6.074-7.524-11.6-14.868-23.661-34.9-38.8-64.638-9.882-19.4-13.326-28.1-11.785-29.644.544-.544,5.258,1.451,12.239,5.167,6.346,3.264,11.876,5.983,12.329,5.983s3.173-3.9,5.983-8.612,5.439-8.612,5.893-8.612S160.618-877.9,160.618-876.178Zm229.451,33.089c11.151,12.6,20.307,23.208,20.307,23.389,0,.272-3.264,1.632-7.253,3.082-9.428,3.445-18.766,7.978-24.84,12.057a51.7,51.7,0,0,1-5.077,3.264c-.091,0-.453-8.068-.725-17.95-.363-13.689-1-20.851-2.81-30.823-2.72-14.958-2.81-16.771-1.088-16.318C369.308-866.206,379.009-855.78,390.069-843.089ZM265.6-754.427a27.241,27.241,0,0,1-5.439,0c-1.632-.181-.544-.363,2.448-.363S266.958-754.608,265.6-754.427Zm5.349.816a1.837,1.837,0,0,1-1.722.091c-.725-.272-.453-.544.544-.544C270.765-754.155,271.309-753.883,270.947-753.611Z" transform="translate(-50.189 1279.575)" fill="url(#a)"/></g><g transform="translate(1506.891 2321)"><g transform="translate(42.608 317.296)"><text transform="translate(106.501 56.704)" fill="#757575" font-size="58" font-family="Lato-Regular, Lato" letter-spacing="0.013em"><tspan x="-106.865" y="0">Football</tspan></text></g><g transform="translate(0)"><circle cx="143.5" cy="143.5" r="143.5" transform="translate(0.109 13)" fill="#ef8318"/><g transform="translate(8.901 104.278)"><path d="M111.376,298.584,15.6,411.8a1.758,1.758,0,0,0,2.478,2.479l113.209-95.764A109.378,109.378,0,0,1,111.376,298.584Z" transform="translate(-15.188 -227.869)" fill="#ffd00d"/><path d="M107.942,249.941,45.416,323.858a1.759,1.759,0,0,0,2.478,2.479l68.792-58.192A108.063,108.063,0,0,1,107.942,249.941Z" transform="translate(-27.528 -207.735)" fill="#ffd00d"/><path d="M192.825,346.263l-57.409,67.868a1.758,1.758,0,0,0,2.477,2.479l73.222-61.938A108.025,108.025,0,0,1,192.825,346.263Z" transform="translate(-64.781 -247.604)" fill="#ffd00d"/><path d="M280.055,369.812a108.632,108.632,0,0,1-19.076-1.681l-45.563,53.863a1.758,1.758,0,0,0,2.477,2.479l64.655-54.692C281.72,369.8,280.889,369.812,280.055,369.812Z" transform="translate(-97.895 -256.656)" fill="#ffd00d"/><path d="M102.93,182.658c0-1.586.042-3.162.109-4.732l-53.6,63.361a1.758,1.758,0,0,0,2.478,2.478l52.321-44.258A108.814,108.814,0,0,1,102.93,182.658Z" transform="translate(-29.194 -177.926)" fill="#ffd00d"/></g><circle cx="109" cy="109" r="109" transform="translate(82.109)" fill="#eef6ff"/><g transform="translate(82.051 7.523)"><path d="M152.608,228.039l19.253,3.049a108.493,108.493,0,0,1-14.278-53.968q0-2.8.142-5.572l-2.21-7-15.407,7.85h0c-.067,1.566-.108,3.14-.108,4.723a108.518,108.518,0,0,0,12.608,50.919Z" transform="translate(-140 -75.633)" fill="#d9eafc"/><path d="M239.128,17.778l-6.8-4.942a109.1,109.1,0,0,0-36.31,23.526L198.841,54.2A109.521,109.521,0,0,1,239.128,17.778Z" transform="translate(-163.186 -12.836)" fill="#d9eafc"/><path d="M258.409,352.977h0a108.745,108.745,0,0,0,38.986,7.187q4.44,0,8.791-.353A108.365,108.365,0,0,1,256.893,343.4Z" transform="translate(-188.385 -149.666)" fill="#d9eafc"/></g><path d="M342.665,96.176l15.312,7.8a108.653,108.653,0,0,0-32.214-72.445l-3.58,22.6-51.1-33.626L288.957,7.523a109.412,109.412,0,0,0-79.741,0L227.092,20.51,176.509,53.8l-3.6-22.747a108.659,108.659,0,0,0-32.721,73.239l15.407-7.851,21.248,67.318-24.155-3.826a109.377,109.377,0,0,0,57.417,50.9l-2.544-16.056h82.969l-2.549,16.093A109.379,109.379,0,0,0,345.453,160l-24.139,3.823Zm-28.449,68.769-14.789,2.343-24.915-24.915,12.209-37.578,34.155-19.719,15.978,8.141Zm6.862-103.837-2.863,18.078L285.356,98.157,252.3,74.143V34.154l13.22-9.6ZM232.652,24.55l13.22,9.6V74.142l-32.923,23.92-32.391-18.7-2.944-18.594ZM161.4,93.477l16.33-8.321,33.651,19.428,12.161,37.424-25.159,25.159-14.447-2.287Zm45.137,94.869-2.767-17.47,24.662-24.661h40.828l25,25-2.714,17.133H206.538Z" transform="translate(-58.025)" fill="#1a2b63"/></g></g><g transform="translate(474.318 3015.426)"><text transform="translate(141.682 393.574)" fill="#757575" font-size="55" font-family="Lato-Regular, Lato" letter-spacing="0.013em"><tspan x="-90.2" y="0">Cricket</tspan></text><g transform="translate(0)"><path d="M287.38,143.69A143.543,143.543,0,0,1,145.754,287.362c-.686.012-1.378.017-2.064.017q-4.275,0-8.492-.252a142.957,142.957,0,0,1-47.072-10.885q-5.393-2.261-10.557-4.95A143.676,143.676,0,0,1,48.092,36.416,143.69,143.69,0,0,1,287.38,143.69Z" fill="#f4a14e"/><g transform="translate(0 112.02)"><path d="M0,231.246a144.052,144.052,0,0,1,3.5-31.67H44.573a10.557,10.557,0,1,1,0,21.114H10.557A10.557,10.557,0,0,0,0,231.246Z" transform="translate(0 -199.576)" fill="#f9af6b"/><path d="M71.552,277.113A10.558,10.558,0,0,1,61,287.67H3.5A144.052,144.052,0,0,1,0,256a10.558,10.558,0,0,0,10.557,10.557H60.995a10.553,10.553,0,0,1,10.557,10.557Z" transform="translate(0 -224.33)" fill="#f9af6b"/></g><path d="M332.762,143.69a145.133,145.133,0,0,1-1.877,23.29,143.875,143.875,0,0,1-76.918,104.946c-87.5-29.459-150.522-112.172-150.522-209.6a222.68,222.68,0,0,1,2.944-36.163A143.652,143.652,0,0,1,332.762,143.69Z" transform="translate(-45.382 0)" fill="#4bc999"/><path d="M63.678,49.031V268.384a144.094,144.094,0,0,1-28.151-34.2V49.031a9.326,9.326,0,0,1,9.325-9.325h9.5A9.326,9.326,0,0,1,63.678,49.031Z" transform="translate(-15.586 -17.419)" fill="#c69a6a"/><g transform="translate(89.933 6.421)"><path d="M361.792,87.549H211.234a10.557,10.557,0,0,1,0-21.114h32.093a10.557,10.557,0,1,0,0-21.114h-8.956a10.557,10.557,0,0,1,0-21.114h29.647a10.553,10.553,0,0,0,10.557-10.551,10.24,10.24,0,0,0-.24-2.217A144.072,144.072,0,0,1,361.792,87.549Z" transform="translate(-177.975 -11.439)" fill="#5bd3a2"/><path d="M434.9,297.492a143.043,143.043,0,0,1-27.16,63.335H376.929a10.557,10.557,0,0,1,0-21.114h2.933a10.557,10.557,0,1,0,0-21.114H351.088a10.554,10.554,0,1,1,0-21.108H434.9Z" transform="translate(-239.328 -136.933)" fill="#5bd3a2"/><path d="M281.623,198.367h0a10.556,10.556,0,0,0-10.556-10.556H170.782a10.556,10.556,0,0,0-10.556,10.556h0a10.556,10.556,0,0,0,10.556,10.556H187.5a10.556,10.556,0,0,1,10.556,10.556h0a10.556,10.556,0,0,0,10.556,10.556h83.572a10.556,10.556,0,0,0,10.556-10.556h0a10.556,10.556,0,0,0-10.556-10.556h0A10.556,10.556,0,0,1,281.623,198.367Z" transform="translate(-160.226 -88.815)" fill="#5bd3a2"/></g><path d="M54.881,39.735a9.311,9.311,0,0,0-8.8,9.3v200.6A143.665,143.665,0,0,1,35.527,234.18V49.031a9.326,9.326,0,0,1,9.325-9.325h9.5C54.535,39.706,54.705,39.723,54.881,39.735Z" transform="translate(-15.586 -17.419)" fill="#b58657"/><path d="M166.349,49.031v250.7a141.49,141.49,0,0,1-17.595-6.064q-5.393-2.261-10.557-4.95V49.031a9.326,9.326,0,0,1,9.325-9.325h9.5A9.326,9.326,0,0,1,166.349,49.031Z" transform="translate(-60.629 -17.419)" fill="#c69a6a"/><path d="M157.553,39.735a9.311,9.311,0,0,0-8.8,9.3v244.63q-5.393-2.261-10.557-4.95V49.031a9.326,9.326,0,0,1,9.325-9.325h9.5C157.2,39.706,157.377,39.723,157.553,39.735Z" transform="translate(-60.629 -17.419)" fill="#b58657"/><path d="M269.021,49.031V303.462a143.756,143.756,0,0,1-17.595,1.32c-.686.012-1.378.017-2.064.017q-4.275,0-8.492-.252V49.031a9.326,9.326,0,0,1,9.325-9.325h9.5A9.326,9.326,0,0,1,269.021,49.031Z" transform="translate(-105.672 -17.419)" fill="#c69a6a"/><path d="M260.224,39.735a9.311,9.311,0,0,0-8.8,9.3V304.782c-.687.012-1.379.017-2.065.017q-4.275,0-8.492-.252V49.031a9.326,9.326,0,0,1,9.325-9.325h9.5C259.872,39.706,260.048,39.723,260.224,39.735Z" transform="translate(-105.672 -17.419)" fill="#b58657"/><g transform="translate(36.949 32.416)"><path d="M70.325,122.657h0a4.5,4.5,0,0,1-4.5-4.5V62.248a4.5,4.5,0,0,1,4.5-4.5h0a4.5,4.5,0,0,1,4.5,4.5V118.16A4.5,4.5,0,0,1,70.325,122.657Z" transform="translate(-65.829 -57.752)" fill="#d3aa81"/><path d="M174.257,122.657h0a4.5,4.5,0,0,1-4.5-4.5V62.248a4.5,4.5,0,0,1,4.5-4.5h0a4.5,4.5,0,0,1,4.5,4.5V118.16A4.5,4.5,0,0,1,174.257,122.657Z" transform="translate(-111.425 -57.752)" fill="#d3aa81"/><path d="M274.566,122.657h0a4.5,4.5,0,0,1-4.5-4.5V62.248a4.5,4.5,0,0,1,4.5-4.5h0a4.5,4.5,0,0,1,4.5,4.5V118.16A4.5,4.5,0,0,1,274.566,122.657Z" transform="translate(-155.432 -57.752)" fill="#d3aa81"/></g><path d="M317.214,21.606,261.45,77.364a15.561,15.561,0,0,0,0,22.029l-16.58,16.58-5.39,5.4-7,7-5.39,5.4L119.919,240.924a12.082,12.082,0,0,1-17.09,0L79.991,218.092a12.087,12.087,0,0,1,0-17.09l3.367-3.367,10.17-10.17L120.5,160.493l10.064-10.064,56.6-56.6,5.4-5.39,7-7,5.39-5.39,16.58-16.58a15.585,15.585,0,0,0,22.035,0L299.314,3.7a12.659,12.659,0,1,1,17.9,17.906Z" transform="translate(-33.541)" fill="#ffd15c"/><g transform="translate(153.619 76.05)"><path d="M341.087,175.414l-5.39,5.4-39.928-39.928,5.389-5.39Z" transform="translate(-283.376 -135.492)" fill="#ff525d"/><path d="M319.008,197.493l-5.389,5.4L273.69,162.96l5.4-5.389Z" transform="translate(-273.69 -145.178)" fill="#ff525d"/></g><path d="M134.312,305.208a26.282,26.282,0,0,1-45.558,17.87l10.17-10.17L125.9,285.936A26.189,26.189,0,0,1,134.312,305.208Z" transform="translate(-38.937 -125.443)" fill="#edbb4c"/><path d="M142.931,277.536v.246a26.164,26.164,0,1,1,0-.246Z" transform="translate(-39.638 -110.334)" fill="#ef4152"/><path d="M150.953,277.536a22.216,22.216,0,1,1-37.16-23.694,26.3,26.3,0,0,1,37.16,23.694Z" transform="translate(-47.66 -110.334)" fill="#ff525d"/><path d="M430.6,21.606,374.838,77.364a15.561,15.561,0,0,0,0,22.029L334.91,59.47a15.585,15.585,0,0,0,22.035,0L412.7,3.7a12.659,12.659,0,1,1,17.9,17.905Z" transform="translate(-146.929)" fill="#b58657"/><path d="M261.454,228.984h0a7.917,7.917,0,0,0-11.2,0L194.9,284.345a7.917,7.917,0,0,0,0,11.2h0a7.917,7.917,0,0,0,11.2,0l55.361-55.361A7.918,7.918,0,0,0,261.454,228.984Z" transform="translate(-84.486 -99.441)" fill="#ffdc8d"/><g transform="translate(74.3 146.239)"><circle cx="5.572" cy="5.572" r="5.572" transform="translate(8.102 5.527)" fill="#ff6e7c"/><circle cx="4.266" cy="4.266" r="4.266" fill="#ff6e7c"/></g><path d="M173.345,14.419H155.112a12.3,12.3,0,0,0-22.022,0h-35.1a12.3,12.3,0,0,0-22.023,0H57.74a5.6,5.6,0,0,0,0,11.2H76.076a12.307,12.307,0,0,0,21.817,0h35.3a12.307,12.307,0,0,0,21.817,0h18.336a5.6,5.6,0,1,0,0-11.2Z" transform="translate(-22.874 -3.333)" fill="#c69a6a"/><path d="M173.345,26.1H155.01a12.307,12.307,0,0,1-21.817,0h-35.3a12.307,12.307,0,0,1-21.817,0H57.74a5.587,5.587,0,0,1-4.5-2.282,5.593,5.593,0,0,0,4.5,8.919H76.076a12.307,12.307,0,0,0,21.817,0h35.3a12.307,12.307,0,0,0,21.817,0h18.336a5.593,5.593,0,0,0,4.5-8.919A5.588,5.588,0,0,1,173.345,26.1Z" transform="translate(-22.874 -10.448)" fill="#b58657"/><g transform="translate(62.067 8.153)"><circle cx="4.535" cy="4.535" r="4.535" fill="#d3aa81"/><circle cx="4.535" cy="4.535" r="4.535" transform="translate(57.927)" fill="#d3aa81"/></g></g></g><g transform="translate(783.455 2465.143)"><text transform="translate(146.545 373.857)" fill="#757575" font-size="59" font-family="Lato-Regular, Lato" letter-spacing="0.013em"><tspan x="-137.883" y="0">Basketball</tspan></text><g transform="translate(0)"><path d="M202.124,276.575l-.047.434H17.67A9.7,9.7,0,0,1,8,267.34v-9.67A9.7,9.7,0,0,1,17.67,248H146.232c1.015,1.209,2.127,2.37,3.289,3.529a87.178,87.178,0,0,0,52.557,25.046Zm0,0" transform="translate(-3.165 -98.115)" fill="#ccd1d9"/><path d="M374.06,95.03A87.03,87.03,0,1,1,287.03,8,87.031,87.031,0,0,1,374.06,95.03Zm0,0" transform="translate(-79.125 -3.165)" fill="#ff826e"/><path d="M299.77,91.865A91.865,91.865,0,1,0,133.142,145.05H14.5A14.524,14.524,0,0,0,0,159.555v9.67a14.524,14.524,0,0,0,14.5,14.5H16.71A181.416,181.416,0,0,1,48.35,286.261v13.509h9.67V286.261c0-1.306-.047-2.6-.073-3.907l14.578,14.583,29.01-29.01,29.01,29.01,29.01-29.01,29.01,29.01,14.578-14.578c-.026,1.3-.073,2.6-.073,3.9v13.509h9.67V286.261a181.647,181.647,0,0,1,33.052-104.717l5.827-8.9A91.94,91.94,0,0,0,299.77,91.865ZM207.9,174.06c-.711,0-1.4-.087-2.1-.106,6.048-20.041-1.8-45.434-20.591-64.233-1.527-1.523-3.114-2.953-4.729-4.337A231.95,231.95,0,0,1,196.3,87.089l66.122,66.122A81.755,81.755,0,0,1,207.9,174.06ZM218.5,210.83a190,190,0,0,0-10.815,33.531L195.4,232.08l22.173-22.173Zm-29.933,14.413L166.392,203.07l19.34-19.34H191.4l19.34,19.34ZM43.515,209.907,65.688,232.08,53.407,244.361A190.006,190.006,0,0,0,42.592,210.83Zm6.837-6.837,19.34-19.34h5.666L94.7,203.07,72.525,225.243Zm38.68-19.34h25.006l-12.5,12.5Zm12.5,26.177,22.173,22.173-22.173,22.173L79.362,232.08Zm6.837-6.837,19.34-19.34h5.666l19.34,19.34-22.173,22.173ZM189.455,80.252a242.412,242.412,0,0,0-16.672,19.281c-14.885-9.975-32-14.3-46.874-11.589a81.73,81.73,0,0,1,20.646-50.588ZM167.02,107.288a243.128,243.128,0,0,0-21.96,37.443A81.79,81.79,0,0,1,126,97.753c12.659-2.925,27.733.718,41.015,9.535Zm7.692,5.869c1.249,1.088,2.477,2.214,3.662,3.4,16.941,16.941,23.847,39.643,17.579,56.53a81.847,81.847,0,0,1-43.692-20.905,233.948,233.948,0,0,1,22.452-39.029Zm-27.66,70.573h25.006l-12.5,12.5Zm12.5,26.177,22.173,22.173-22.173,22.173L137.382,232.08Zm43.579-129.65a230.151,230.151,0,0,1,18.922-16.3A84.209,84.209,0,0,0,230.6,74.01c14.462,14.46,33.231,22.607,50.343,22.607A49.909,49.909,0,0,0,289.9,95.8a81.72,81.72,0,0,1-20.646,50.579Zm86.666,5.72c-16.448,3.8-37.006-3.444-52.368-18.8a74.893,74.893,0,0,1-7.609-8.945,233.836,233.836,0,0,1,38.4-22A81.755,81.755,0,0,1,289.8,85.977ZM219.857,10.643a81.819,81.819,0,0,1,40.918,18.381,243.7,243.7,0,0,0-36.114,21.009c-7.165-13.374-9.127-27.759-4.8-39.391ZM210,9.776c-4.249,14.075-1.634,30.764,6.818,45.987a241.536,241.536,0,0,0-20.53,17.652l-42.9-42.9A81.755,81.755,0,0,1,207.9,9.67c.711,0,1.393.087,2.1.106ZM9.669,169.225v-9.67A4.841,4.841,0,0,1,14.5,154.72h126.59a92.237,92.237,0,0,0,26.031,19.34H14.5a4.841,4.841,0,0,1-4.835-4.835Zm46.348,14.5L38.3,201.441a192.751,192.751,0,0,0-9.965-17.711Zm16.507,99.533L57.11,267.849c-.382-4.028-.876-8.036-1.509-12.014l16.922-16.918L94.7,261.09Zm58.02,0L108.371,261.09l22.173-22.173,22.173,22.173Zm58.02,0L166.391,261.09l22.173-22.173,16.922,16.918c-.633,3.978-1.126,7.987-1.509,12.014Zm34.223-81.822L204.92,183.574c1,.035,1.978.156,2.984.156a91.473,91.473,0,0,0,27.636-4.264,193.4,193.4,0,0,0-12.753,21.975Zm0,0" transform="translate(0)" fill="#1e1713"/></g></g><g transform="translate(458 3643.673)"><text transform="translate(159 408.327)" fill="#757575" font-size="62" font-family="Lato-Regular, Lato" letter-spacing="0.013em"><tspan x="-87.451" y="0">Rugby</tspan></text><g transform="translate(0)"><path d="M320.469,244.078a244.215,244.215,0,0,1-9.331,67.061,244.21,244.21,0,0,1-67.06,9.331C109.278,320.469,0,211.192,0,76.391A244.239,244.239,0,0,1,9.331,9.331,244.258,244.258,0,0,1,76.391,0C211.192,0,320.469,109.278,320.469,244.078Z" transform="translate(0 0)" fill="#a56247"/><path d="M77.5,66.582A244.267,244.267,0,0,1,86.636.215Q81.54,0,76.392,0A244.242,244.242,0,0,0,9.331,9.331,244.238,244.238,0,0,0,0,76.391c0,134.8,109.278,244.078,244.078,244.078a244.215,244.215,0,0,0,67.061-9.331c.066-.23.126-.463.192-.694C181.282,305.074,77.5,197.95,77.5,66.582Z" transform="translate(0 0)" fill="#8c4d37"/><g transform="translate(1.74 1.739)"><path d="M141.073,9.424A413.88,413.88,0,0,1,82.564,82.563Q80.9,84.23,79.209,85.879A412.811,412.811,0,0,1,9.425,141.072,241.5,241.5,0,0,1,2.78,106.683,326.848,326.848,0,0,0,60.5,60.5Q70.975,50.018,80.2,39.057A317.251,317.251,0,0,0,106.683,2.779,241.4,241.4,0,0,1,141.073,9.424Z" transform="translate(-2.78 -2.779)" fill="#eaeae4"/><path d="M426.567,322.664a326.627,326.627,0,0,0-57.724,46.187A337.221,337.221,0,0,0,340.027,401.6c-6.337,8.228-12.138,16.573-17.37,24.964a242.481,242.481,0,0,1-34.388-6.645c6.756-10.818,14.238-21.583,22.433-32.191a427.368,427.368,0,0,1,36.082-40.948,413.871,413.871,0,0,1,73.139-58.509A242.454,242.454,0,0,1,426.567,322.664Z" transform="translate(-109.576 -109.579)" fill="#eaeae4"/></g><g transform="translate(1.74 38.018)"><path d="M78.535,89.3q0,9.212.673,18.26A412.81,412.81,0,0,1,9.425,162.753,241.5,241.5,0,0,1,2.78,128.365,326.848,326.848,0,0,0,60.5,82.178Q70.975,71.7,80.2,60.739A245.226,245.226,0,0,0,78.535,89.3Z" transform="translate(-2.78 -60.739)" fill="#b3b3b3"/><path d="M340.027,461.046c-6.337,8.228-12.138,16.573-17.37,24.964a242.477,242.477,0,0,1-34.388-6.645c6.756-10.818,14.238-21.583,22.433-32.191A242.024,242.024,0,0,0,340.027,461.046Z" transform="translate(-109.576 -205.298)" fill="#b3b3b3"/></g><path d="M157.8,171.7,266.328,280.229a7.622,7.622,0,0,0,10.779,0h0a7.622,7.622,0,0,0,0-10.779L168.577,160.919a7.622,7.622,0,0,0-10.779,0h0A7.621,7.621,0,0,0,157.8,171.7Z" transform="translate(-58.194 -59.362)" fill="#4d4d4d"/><g transform="translate(92.124 94.077)"><path d="M152.087,197.864a4.905,4.905,0,0,1-3.468-8.374l37.751-37.751a4.9,4.9,0,0,1,6.936,6.936l-37.751,37.751A4.888,4.888,0,0,1,152.087,197.864Z" transform="translate(-147.182 -150.302)" fill="#723a2a"/><path d="M290.615,336.393a4.905,4.905,0,0,1-3.469-8.374L324.9,290.269a4.905,4.905,0,1,1,6.937,6.936l-37.752,37.751A4.886,4.886,0,0,1,290.615,336.393Z" transform="translate(-199.003 -202.124)" fill="#723a2a"/><path d="M244.439,290.217a4.905,4.905,0,0,1-3.468-8.374l37.751-37.751a4.905,4.905,0,1,1,6.937,6.936L247.908,288.78A4.887,4.887,0,0,1,244.439,290.217Z" transform="translate(-181.73 -184.85)" fill="#723a2a"/><path d="M198.263,244.04a4.905,4.905,0,0,1-3.468-8.373l37.751-37.751a4.905,4.905,0,0,1,6.937,6.936L201.732,242.6A4.887,4.887,0,0,1,198.263,244.04Z" transform="translate(-164.456 -167.576)" fill="#723a2a"/></g><g transform="translate(28.41 132.209)"><path d="M264.633,467.079a4.9,4.9,0,1,1,4.865-4.3A4.945,4.945,0,0,1,264.633,467.079Z" transform="translate(-125.573 -303.28)" fill="#a56247"/><path d="M50.284,242.96a4.9,4.9,0,1,1,4.837-4.095A4.939,4.939,0,0,1,50.284,242.96Z" transform="translate(-45.39 -219.441)" fill="#a56247"/><path d="M64.021,275.871a4.9,4.9,0,1,1,4.828-4.064A4.948,4.948,0,0,1,64.021,275.871Z" transform="translate(-50.526 -231.751)" fill="#a56247"/><path d="M79.693,221.009a4.9,4.9,0,1,1,4.721-3.594A4.949,4.949,0,0,1,79.693,221.009Z" transform="translate(-56.388 -211.225)" fill="#a56247"/></g></g></g><g transform="translate(799.773 4305.462)"><text transform="translate(121.227 331.538)" fill="#757575" font-size="47" font-family="Lato-Regular, Lato" letter-spacing="0.013em"><tspan x="-103.588" y="0">Volleyball</tspan></text><g transform="translate(0)"><path d="M237.85,375.805l-6.811-88.517,13.089-34.327,40.7,35.957-11.872,55.414Z" transform="translate(-121.382 -132.899)" fill="#fadc60"/><path d="M129.225,290.774l-64.05-51.482L.934,224.2a122.315,122.315,0,0,0,4.039,49.609l30.476,41.15,67.475,27.5,22.453-9.73A194.1,194.1,0,0,0,129.225,290.774Z" transform="translate(0 -117.788)" fill="#efedee"/><path d="M123.78,178.531,86.067,111.29H22.293A120.841,120.841,0,0,0,1.968,164.879c56.489,61.877,120.116,66.263,128.291,66.575A237.251,237.251,0,0,0,123.78,178.531Z" transform="translate(-1.034 -58.469)" fill="#57d0e6"/><path d="M238.926,28.013A121.046,121.046,0,0,0,192.918,6.491h-27.3l-62.1,24.056L83.96,77.222a190.009,190.009,0,0,0,34.06,24.893L157.3,90.933l78.232-43.761,3.4-19.157Z" transform="translate(-44.11 -3.41)" fill="#efedee"/><path d="M276.635,51.839h0c-81.655,16.409-116.356,66.942-120.908,74.1A230.253,230.253,0,0,0,204.56,147.3l21.249,1.442L311.043,92.49A122.043,122.043,0,0,0,276.635,51.839Z" transform="translate(-81.813 -27.235)" fill="#f2c42c"/><path d="M433.4,142.084a134.376,134.376,0,0,1,23.528-4.6A121.591,121.591,0,0,1,444.271,269.4Z" transform="translate(-227.695 -72.233)" fill="#efedee"/><g transform="translate(21.26)"><path d="M365.094,147.172a176.913,176.913,0,0,0-40.417,17.671l-21.289,33.982,22.629,112.845a121.761,121.761,0,0,0,46.944-33.547s0,0,0-.01q1.533-1.782,3-3.623C393.639,212.3,373.044,162.887,365.094,147.172Z" transform="translate(-180.652 -77.32)" fill="#50bfd4"/><path d="M172.34,3.08C97.462,15.2,66.786,67.588,63.383,73.812a139.825,139.825,0,0,1-18.59-20.991A121.711,121.711,0,0,1,172.34,3.08Z" transform="translate(-44.793)" fill="#50bfd4"/></g><path d="M130.881,387.644a139.4,139.4,0,0,1-8.909,27.963,121.577,121.577,0,0,1-111.5-86.887C60.785,388.206,126.422,387.746,130.881,387.644Z" transform="translate(-5.504 -172.701)" fill="#f2c42c"/><path d="M294.205,184.4a215.344,215.344,0,0,0-42.539,32.54,237.223,237.223,0,0,1,6.479,52.924,194.108,194.108,0,0,1-3.848,41.957,139.4,139.4,0,0,1-8.909,27.963q2.509.1,5.037.1a121.152,121.152,0,0,0,45.12-8.654v0C324.716,249.584,296.161,188.431,294.205,184.4Z" transform="translate(-128.92 -96.88)" fill="#fadc60"/></g></g><g transform="translate(1496.919 4507.625)"><text transform="translate(146.081 360.375)" fill="#757575" font-size="57" font-family="Lato-Regular, Lato" letter-spacing="0.013em"><tspan x="-95.788" y="0">Hockey</tspan></text><g transform="translate(0)"><path d="M292.847,0l-43.468,74.31-30.831,53.46-27.933,48.408-33.3,57.73-.872,1.5-31.093,22.277a40.9,40.9,0,0,1-5.555.382H11.067A10.25,10.25,0,0,1,.932,247.706V218.3a10.247,10.247,0,0,1,10.135-10.356H113.508A47.514,47.514,0,0,0,154.6,183.926l12.936-22.415L202.613,100.7l30.831-53.436,14.024-24.314Z" transform="translate(-0.932 0)" fill="#4477c1"/><path d="M235.089,407.815l-.872,1.5L203.124,431.6a40.9,40.9,0,0,1-5.555.382H186.932c-2.669-2.389-4.175-5.1-4.175-7.967,0-9.652,17.046-17.47,38.069-17.47A78.031,78.031,0,0,1,235.089,407.815Z" transform="translate(-78.711 -173.907)" fill="#3266a5"/><path d="M291.732,441.621v22.8c0,9.645-17.041,17.47-38.066,17.47-2.6,0-5.134-.12-7.59-.346-17.385-1.619-30.471-8.672-30.471-17.123v-22.8h76.127Z" transform="translate(-92.763 -188.913)" fill="#455256"/><path d="M246.075,441.621v39.927c-17.385-1.619-30.471-8.672-30.471-17.123v-22.8Z" transform="translate(-92.762 -188.913)" fill="#333f42"/><ellipse cx="38.065" cy="17.47" rx="38.065" ry="17.47" transform="translate(122.84 235.241)" fill="#616d70"/><path d="M121.176,363.39l-6.125,50.131H50.692L44.566,363.39" transform="translate(-19.597 -155.448)" fill="#eaeae4"/><g transform="translate(21.053 207.947)"><path d="M53.02,413.526H43.989L37.724,363.4h9.025Z" transform="translate(-37.724 -363.398)" fill="#d6d6d2"/><path d="M92.413,363.4l-6.128,50.128H77.26L83.388,363.4Z" transform="translate(-54.636 -363.398)" fill="#d6d6d2"/></g><path d="M417.387,0,373.923,74.308l-30.833,53.46-27.933,48.408-23.079-14.669,35.08-60.807,30.827-53.436L384.927.555Z" transform="translate(-125.476)" fill="#efbc4b"/><g transform="translate(67.723 207.947)"><path d="M134.427,413.526H125.4L119.281,363.4h9.025Z" transform="translate(-119.281 -363.398)" fill="#d6d6d2"/><path d="M175.008,363.4l-6.122,50.128h-9.024l6.122-50.128Z" transform="translate(-136.64 -363.398)" fill="#d6d6d2"/></g></g></g><g transform="translate(2219.019 4287.331)"><text transform="translate(146.981 384.669)" fill="#757575" font-size="57" font-family="Lato-Regular, Lato" letter-spacing="0.013em"><tspan x="-140.648" y="0">Badminton</tspan></text><g transform="translate(0 0)"><path d="M296.555,148.277q0,5.583-.412,11.057a147.593,147.593,0,0,1-35.078,85.2c-.139.163-.279.327-.418.484q-3.277,3.813-6.815,7.39c-1.265,1.283-2.554,2.548-3.867,3.776q-3.513,3.322-7.244,6.4-5.465,4.521-11.348,8.516a147.574,147.574,0,0,1-83.1,25.455c-.993,0-1.979-.012-2.966-.03h-.006A148.16,148.16,0,0,1,.9,164.649q-.8-7.254-.884-14.707C.006,149.385,0,148.834,0,148.277a148.2,148.2,0,0,1,7.565-46.892q1.08-3.25,2.312-6.44,1.371-3.559,2.929-7.033Q14,85.235,15.3,82.6q.89-1.816,1.846-3.6c.236-.466.484-.932.744-1.392.133-.26.279-.521.423-.781A146.86,146.86,0,0,1,26.823,63.2q1.553-2.224,3.19-4.388A148.074,148.074,0,0,1,40.737,46.194q1.843-1.943,3.758-3.825A149.219,149.219,0,0,1,56.938,31.463q2.134-1.671,4.321-3.256a147.164,147.164,0,0,1,14.217-9.133l.708-.4c.224-.127.448-.248.666-.369q1.761-.971,3.546-1.888,2.705-1.4,5.483-2.687,5.983-2.778,12.243-5.036A148.448,148.448,0,0,1,282.1,84.343q2.5,5.193,4.582,10.6a147.84,147.84,0,0,1,9.829,49.682C296.543,145.844,296.555,147.055,296.555,148.277Z" fill="#4bc999"/><path d="M293.853,94.946H17.053a148.344,148.344,0,0,1,276.8,0Z" transform="translate(-7.176 0)" fill="#34abe0"/><g transform="translate(0.012 115.209)"><path d="M131.528,305.154a7.357,7.357,0,0,1-5.2,12.558h-.72a7.356,7.356,0,0,0-7.359,7.354,7.353,7.353,0,0,1-7.353,7.353H20.471a147.308,147.308,0,0,1-7.6-14.707H27.334a7.356,7.356,0,0,0,0-14.712h-6.24a7.354,7.354,0,1,1,0-14.707H41.75a7.356,7.356,0,0,0,0-14.712H.9Q.1,266.327.02,258.874H109.164a7.356,7.356,0,0,1,7.359,7.354,7.353,7.353,0,0,0,7.353,7.353h2.451a7.356,7.356,0,0,1,0,14.712H112.844a7.353,7.353,0,1,0,0,14.707h13.484A7.322,7.322,0,0,1,131.528,305.154Z" transform="translate(-0.02 -224.141)" fill="#5bd3a2"/><path d="M322.6,456.365a147.574,147.574,0,0,1-83.1,25.455c-.993,0-1.979-.012-2.966-.03h-.006a7.353,7.353,0,0,1,5.623-12.092H244.2a7.356,7.356,0,0,0,0-14.712h-20.05a7.353,7.353,0,1,1,0-14.707h61.98a7.353,7.353,0,0,1,7.353,7.353,7.355,7.355,0,0,0,7.359,7.354H318.31A7.349,7.349,0,0,1,322.6,456.365Z" transform="translate(-91.238 -300.474)" fill="#5bd3a2"/><path d="M437.992,231.976q0,5.583-.412,11.057H393.327a7.356,7.356,0,0,1-7.354-7.354,7.353,7.353,0,0,0-7.353-7.353H343.476a7.356,7.356,0,0,1,0-14.712h23.7a7.356,7.356,0,0,0,7.354-7.354,7.355,7.355,0,0,1,7.359-7.353h52.4a147.19,147.19,0,0,1,2.578,14.707h-8.812a7.357,7.357,0,0,0,0,14.713h9.889C437.98,229.543,437.992,230.753,437.992,231.976Z" transform="translate(-141.449 -198.907)" fill="#5bd3a2"/></g><g transform="translate(62.886 26.899)"><path d="M193.152,68.505h0a7.355,7.355,0,0,1,7.355-7.355h23.7a7.355,7.355,0,0,0,7.355-7.355h0a7.355,7.355,0,0,0-7.355-7.355h-69.87a7.355,7.355,0,0,0-7.355,7.355h0a7.355,7.355,0,0,1-7.355,7.355h-23.7a7.355,7.355,0,0,0-7.355,7.355h0a7.355,7.355,0,0,0,7.355,7.355H151.07a7.355,7.355,0,0,1,7.355,7.355h0a7.355,7.355,0,0,0,7.355,7.355h69.87A7.355,7.355,0,0,0,243,83.215h0a7.355,7.355,0,0,0-7.355-7.355H200.507A7.355,7.355,0,0,1,193.152,68.505Z" transform="translate(-108.573 -46.441)" fill="#78caef"/><path d="M437.7,116.228H427a7.356,7.356,0,0,1-7.354-7.354,7.354,7.354,0,0,0-7.354-7.354H377.152a7.357,7.357,0,0,1,0-14.713h23.7a7.356,7.356,0,0,0,7.354-7.354,7.3,7.3,0,0,1,.986-3.68A148.415,148.415,0,0,1,437.7,116.228Z" transform="translate(-218.494 -58.784)" fill="#78caef"/></g><path d="M387.211,339.911h0a7.355,7.355,0,0,0-7.355-7.355H309.986a7.355,7.355,0,0,0-7.355,7.355h0a7.355,7.355,0,0,0,7.355,7.355h11.645a7.355,7.355,0,0,1,7.355,7.355h0a7.355,7.355,0,0,0,7.355,7.355h58.225a7.355,7.355,0,0,0,7.355-7.355h0a7.355,7.355,0,0,0-7.355-7.355h0A7.355,7.355,0,0,1,387.211,339.911Z" transform="translate(-127.345 -139.937)" fill="#5bd3a2"/><g transform="translate(7.637 9.305)"><path d="M152.964,209.236a2.679,2.679,0,0,1-3.789,0L23.167,83.228a2.679,2.679,0,0,1,3.789-3.789L152.964,205.447A2.679,2.679,0,0,1,152.964,209.236Z" transform="translate(-17.055 -42.402)" fill="#f9eed7"/><path d="M230.282,126.372a2.679,2.679,0,0,1-3.789,0L120.759,20.639a2.679,2.679,0,0,1,3.789-3.789L230.282,122.583A2.679,2.679,0,0,1,230.282,126.372Z" transform="translate(-58.121 -16.065)" fill="#f9eed7"/><path d="M123.494,233.161a2.679,2.679,0,0,1-3.789,0L13.971,127.427a2.679,2.679,0,0,1,3.789-3.789L123.494,229.372A2.68,2.68,0,0,1,123.494,233.161Z" transform="translate(-13.186 -61)" fill="#f9eed7"/><path d="M206.358,155.842a2.679,2.679,0,0,1-3.789,0L76.561,29.834a2.679,2.679,0,0,1,3.789-3.789L206.358,152.053A2.679,2.679,0,0,1,206.358,155.842Z" transform="translate(-39.523 -19.934)" fill="#f9eed7"/><path d="M181.137,184.016a2.679,2.679,0,0,1-3.789,0L40.54,47.208a2.679,2.679,0,0,1,3.789-3.789L181.137,180.227A2.679,2.679,0,0,1,181.137,184.016Z" transform="translate(-24.366 -27.245)" fill="#f9eed7"/><path d="M149.3,52.968,50.091,152.176a2.679,2.679,0,0,1-3.789-3.789L145.51,49.179a2.68,2.68,0,1,1,3.789,3.79Z" transform="translate(-26.79 -29.669)" fill="#f9eed7"/><path d="M227.855,142.75l-87.983,87.984a2.679,2.679,0,0,1-3.789-3.789l87.983-87.983a2.679,2.679,0,0,1,3.79,3.789Z" transform="translate(-64.569 -67.448)" fill="#f9eed7"/><path d="M121.067,35.961,33.084,123.944a2.679,2.679,0,1,1-3.789-3.789l87.983-87.983a2.68,2.68,0,0,1,3.789,3.79Z" transform="translate(-19.634 -22.512)" fill="#f9eed7"/><path d="M93.506,26.3,23.421,96.384A2.679,2.679,0,0,1,19.632,92.6L89.717,22.51a2.68,2.68,0,0,1,3.79,3.79Z" transform="translate(-15.568 -18.446)" fill="#f9eed7"/><path d="M250.521,183.314,180.436,253.4a2.679,2.679,0,0,1-3.789-3.789l70.085-70.085a2.679,2.679,0,0,1,3.789,3.789Z" transform="translate(-81.638 -84.517)" fill="#f9eed7"/><path d="M202.693,106.362,103.485,205.57a2.679,2.679,0,1,1-3.789-3.789L198.9,102.573a2.68,2.68,0,1,1,3.789,3.79Z" transform="translate(-49.258 -52.136)" fill="#f9eed7"/><path d="M175.952,79.945,77.066,178.831a2.679,2.679,0,0,1-3.789-3.789l98.886-98.886a2.679,2.679,0,0,1,3.789,3.789Z" transform="translate(-38.141 -41.02)" fill="#f9eed7"/></g><path d="M310.233,310.663l-4.511,4.511a4.824,4.824,0,0,1-6.744.076l-4.149-3.968a115.82,115.82,0,0,0-65.48-30.989l-14.408-1.765,1.173-9.575,14.408,1.765a125.622,125.622,0,0,1,57.272,22.286,124.6,124.6,0,0,1-23.324-61.682l-.729-7.687a4.859,4.859,0,0,1-.021-.543l4.868.083,4.757-.451.729,7.689a114.971,114.971,0,0,0,36.041,73.314,4.821,4.821,0,0,1,.119,6.935Z" transform="translate(-90.445 -93.721)" fill="#ffd15c"/><path d="M409.96,394.639c-.139.163-.279.327-.418.484q-3.277,3.813-6.815,7.39c-1.265,1.283-2.554,2.548-3.867,3.776q-3.513,3.322-7.244,6.4L356.2,377.27a8.032,8.032,0,0,1-1.822-8.558,7.929,7.929,0,0,1,1.822-2.82l6.821-6.821a8.044,8.044,0,0,1,11.378,0l11.2,11.209Z" transform="translate(-148.895 -150.103)" fill="#279fc9"/><path d="M414.914,394.639c-.139.163-.279.327-.418.484q-3.277,3.813-6.815,7.39c-1.265,1.283-2.554,2.548-3.867,3.776L369.1,371.574l-1.125-1.125a8.045,8.045,0,1,1,11.378-11.378l11.2,11.209Z" transform="translate(-153.849 -150.103)" fill="#34abe0"/><path d="M186.209,110.2c-3.7-23.84-16.371-47.606-35.69-66.925C135.552,28.309,117.91,17.33,99.638,11.423A104.662,104.662,0,0,0,83.6,7.586C58.926,3.761,37.071,9.922,22.056,24.937S.88,61.807,4.711,86.476a104.982,104.982,0,0,0,4.37,17.636c6.016,17.7,16.788,34.757,31.32,49.288,19.318,19.313,43.079,31.991,66.918,35.69a83.433,83.433,0,0,0,28.9-.309,65.315,65.315,0,0,0,18.737-6.663A60.38,60.38,0,0,0,178.7,158.811a64.51,64.51,0,0,0,6.675-17.218A82.155,82.155,0,0,0,186.209,110.2Zm-25.746,49.355c-.587.672-1.2,1.319-1.834,1.955s-1.283,1.246-1.955,1.834a46.584,46.584,0,0,1-14.586,8.758,50.335,50.335,0,0,1-5.768,1.816,64.691,64.691,0,0,1-21.866,1.483c-.3-.03-.6-.054-.9-.091-1.325-.139-2.663-.309-4.013-.521-.865-.133-1.731-.284-2.6-.448q-.7-.127-1.4-.272a92.852,92.852,0,0,1-15.306-4.539c-1.785-.69-3.564-1.446-5.326-2.251a109.928,109.928,0,0,1-15.009-8.34c-1.513-.986-3-2.027-4.478-3.1A122.932,122.932,0,0,1,52.717,145.2q-1.053-1-2.088-2.034c-.575-.575-1.15-1.162-1.707-1.749a122.839,122.839,0,0,1-10.676-12.667q-1.625-2.206-3.123-4.461a111.354,111.354,0,0,1-8.4-14.949q-1.216-2.642-2.269-5.308a93.089,93.089,0,0,1-4.727-15.79c-.06-.272-.115-.551-.163-.829-.212-1.053-.393-2.1-.557-3.153q-.2-1.271-.345-2.524c-.042-.3-.079-.6-.109-.9-.06-.509-.109-1-.158-1.507a64.83,64.83,0,0,1,1.489-21.86,51.606,51.606,0,0,1,1.809-5.768A46.8,46.8,0,0,1,30.45,37.12c.593-.672,1.2-1.319,1.84-1.955s1.283-1.246,1.955-1.834A46.6,46.6,0,0,1,48.83,24.568,51.486,51.486,0,0,1,54.6,22.758a64.691,64.691,0,0,1,21.866-1.483q.618.055,1.235.127c.085.006.176.018.266.03,1.126.121,2.264.279,3.413.454,1.053.163,2.1.345,3.153.557.279.049.563.1.841.163a93.719,93.719,0,0,1,15.784,4.727q2.669,1.053,5.3,2.269A111.094,111.094,0,0,1,121.413,38q2.251,1.5,4.46,3.117A124.521,124.521,0,0,1,138.541,51.8c.587.563,1.174,1.138,1.749,1.713.69.69,1.368,1.38,2.034,2.082a123.548,123.548,0,0,1,10.634,12.715q1.616,2.215,3.1,4.478a108.706,108.706,0,0,1,8.34,15.009q1.216,2.642,2.257,5.326a93.048,93.048,0,0,1,4.539,15.312c.1.46.188.926.272,1.386.163.865.314,1.731.448,2.6.212,1.35.381,2.687.521,4.013.03.309.06.611.091.914a64.8,64.8,0,0,1-1.489,21.854,51.334,51.334,0,0,1-1.809,5.774A46.709,46.709,0,0,1,160.463,159.555Z" transform="translate(-1.515 -2.726)" fill="#ffd15c"/><path d="M425.454,403.747q-3.277,3.813-6.815,7.39a5.79,5.79,0,0,1-2.754-1.543l-22.538-22.532a5.771,5.771,0,1,1,8.165-8.158l22.532,22.532A5.668,5.668,0,0,1,425.454,403.747Z" transform="translate(-164.807 -158.726)" fill="#78caef"/><path d="M229.43,127.038l-10.335,10.335a22.852,22.852,0,0,0-3.629,4.725l0,0a22.693,22.693,0,0,0,35.717,27.363l10.335-10.335Z" transform="translate(-89.395 -53.457)" fill="#ef4152"/><path d="M231.625,127.038,221.29,137.373a22.852,22.852,0,0,0-3.629,4.725l0,0a22.691,22.691,0,0,0,38.713,14.952l2.632-2.632Z" transform="translate(-91.59 -53.457)" fill="#ff525d"/><rect width="45.388" height="82.235" transform="translate(198.183 15.432) rotate(45)" fill="#ffd15c"/><path d="M241.767,73.58,271.5,5.842a9.764,9.764,0,0,1,15.844-2.979l57.231,57.231A9.763,9.763,0,0,1,341.6,75.938l-67.737,29.737" transform="translate(-101.734 -0.001)" fill="#f9eed7"/><circle cx="6.657" cy="6.657" r="6.657" transform="translate(136.905 82.769)" fill="#ff6e7c"/><path d="M349.187,82.052l-66.6,50.03,8.454,8.119,67.738-29.737a9.764,9.764,0,0,0,2.979-15.844Z" transform="translate(-118.909 -34.527)" fill="#e8dbc4"/><path d="M290.1,31.8h0a5.448,5.448,0,0,1,2.775,7.186L276.452,76.064a5.448,5.448,0,0,1-7.186,2.775h0a5.447,5.447,0,0,1-2.775-7.186l16.419-37.076A5.447,5.447,0,0,1,290.1,31.8Z" transform="translate(-111.941 -13.185)" fill="#fcf8f2"/></g></g><g transform="translate(2461.415 3696.518)"><text transform="translate(159.585 331.482)" fill="#757575" font-size="62" font-family="Lato-Regular, Lato" letter-spacing="0.013em"><tspan x="-142.848" y="0">Swimming</tspan></text><g transform="translate(0 0)"><path d="M323.7,115.945l-14.71-14.71a29.133,29.133,0,0,0-41.2,0,29.133,29.133,0,0,1-41.2,0,29.133,29.133,0,0,0-41.2,0,29.133,29.133,0,0,1-41.2,0,29.133,29.133,0,0,0-41.2,0,29.133,29.133,0,0,1-41.2,0,29.133,29.133,0,0,0-41.2,0l-14.71,14.71A20.1,20.1,0,0,0,0,130.165V231.634a49.309,49.309,0,0,0,49.307,49.31h230.97a49.31,49.31,0,0,0,49.307-49.31V130.165a20.1,20.1,0,0,0-5.889-14.22Zm0,0" transform="translate(0 -33.028)" fill="#a3defe"/><path d="M108.192,97.109a29.185,29.185,0,0,0-5.2,4.126,29.133,29.133,0,0,1-41.2,0,29.133,29.133,0,0,0-41.2,0l-14.71,14.71A20.1,20.1,0,0,0,0,130.165V231.636a49.308,49.308,0,0,0,49.307,49.307H166.034c-54.588-37.982-65.79-123.883-57.842-183.835Zm0,0" transform="translate(0 -33.028)" fill="#7acefa"/><path d="M149.874,134.627a13.506,13.506,0,0,1-10.209-2.409c-22.032-16.045-36.72-48.694-38.329-85.2A13.545,13.545,0,1,1,128.4,45.825c1.237,28.04,11.919,53.356,27.212,64.495a13.544,13.544,0,0,1-5.738,24.308Zm0,0" transform="translate(-36.099 -11.712)" fill="#ffbf9e"/><path d="M204.564,275.038A74.025,74.025,0,1,0,99.876,170.351c-28.91,28.907-20.252,67.123,8.655,96.03s67.123,37.567,96.033,8.658Zm0,0" transform="translate(-29.23 -52.967)" fill="#ffd4be"/><path d="M99.876,182.352c-28.91,28.907-20.252,67.123,8.655,96.03s67.123,37.567,96.033,8.658Zm0,0" transform="translate(-29.23 -64.968)" fill="#e26e7e"/><path d="M337.776,146.4c-34.155,34.155-85.874,30.5-120.029-3.656s-37.811-85.874-3.656-120.029S297.4-5.213,331.55,28.94s40.381,83.306,6.226,117.459Zm0,0" transform="translate(-67.775 0)" fill="#ffd4be"/><path d="M272.567,175.907c-60.706-39.951-59.338-115.2-43.858-158.75a81.888,81.888,0,0,0-14.617,11.672c-34.155,34.152-30.5,85.871,3.659,120.026,15.7,15.7,35.108,24.949,54.817,27.051Zm0,0" transform="translate(-67.775 -6.112)" fill="#ffbf9e"/><path d="M236.465,67.532c-8.464-8.464-20.79-9.862-27.529-3.121s-5.343,19.063,3.121,27.527,20.79,9.862,27.529,3.123S244.929,76,236.465,67.532Zm0,0" transform="translate(-72.92 -21.428)" fill="#eda1ab"/><path d="M365.5,196.572c-8.464-8.464-20.79-9.859-27.529-3.121s-5.343,19.065,3.121,27.529,20.79,9.859,27.529,3.121S373.968,205.036,365.5,196.572Zm0,0" transform="translate(-118.894 -67.403)" fill="#eda1ab"/><g transform="translate(148.293 0.003)"><path d="M265.222,84.7a4.829,4.829,0,0,1-3.415-8.243l5.411-5.411a4.828,4.828,0,0,1,6.829,6.827l-5.414,5.411a4.812,4.812,0,0,1-3.412,1.416Zm0,0" transform="translate(-241.065 -24.812)" fill="#4e5660"/><path d="M366.513,185.992a4.829,4.829,0,0,1-3.412-8.243l5.411-5.411a4.828,4.828,0,0,1,6.827,6.829l-5.411,5.411A4.815,4.815,0,0,1,366.513,185.992Zm0,0" transform="translate(-277.154 -60.9)" fill="#4e5660"/><path d="M318.2,142.591A20.935,20.935,0,0,1,297.3,120.2a4.828,4.828,0,0,1,9.633.664A11.281,11.281,0,0,0,318.98,132.91a4.828,4.828,0,0,1,.661,9.633c-.48.033-.963.048-1.441.048Zm0,0" transform="translate(-254.198 -41.228)" fill="#4e5660"/><path d="M345.85,28.944c-33.5-33.5-81.428-40.129-115.482-8.137,12.874,5.044,31.673,8.26,55.843,5.788L348.2,88.583c-2.472,24.17.744,42.966,5.786,55.843,31.992-34.054,25.369-81.981-8.134-115.482Zm0,0" transform="translate(-230.368 -0.004)" fill="#4e5660"/></g><path d="M239.173,29.788c1.139-4.431,2.424-8.66,3.83-12.62a81.258,81.258,0,0,0-12.635,9.754,83.716,83.716,0,0,0,8.806,2.867Zm0,0" transform="translate(-82.075 -6.116)" fill="#383c43"/><path d="M281.8,2.258c12.246,23.093,31.258,43.946,48.186,60.877s37.783,35.94,60.877,48.188c7.174-28.024-3.088-58.78-26.687-82.379S309.819-4.916,281.8,2.258Zm0,0" transform="translate(-100.398 -0.002)" fill="#e26e7e"/><path d="M314.131,258.872,301.5,246.242a25.015,25.015,0,0,0-35.377,0,25.015,25.015,0,0,1-35.377,0,25.015,25.015,0,0,0-35.377,0,25.015,25.015,0,0,1-35.377,0,25.015,25.015,0,0,0-35.377,0,25.015,25.015,0,0,1-35.377,0,25.015,25.015,0,0,0-35.377,0L41.229,258.872a17.268,17.268,0,0,0-5.057,12.211v29.083a32.868,32.868,0,0,0,32.87,32.87H286.32a32.868,32.868,0,0,0,32.867-32.87V271.083A17.268,17.268,0,0,0,314.131,258.872Zm0,0" transform="translate(-12.887 -85.12)" fill="#a3defe"/><path d="M125.563,245.341q-.483.438-.95.9a25.015,25.015,0,0,1-35.377,0,25.015,25.015,0,0,0-35.377,0l-12.63,12.631a17.27,17.27,0,0,0-5.057,12.213v29.083a32.867,32.867,0,0,0,32.867,32.867H178.922c-28.374-19.744-45.025-52.433-53.358-87.694Zm0,0" transform="translate(-12.887 -85.12)" fill="#7acefa"/><path d="M424.621,276.615a29.082,29.082,0,0,1-20.7-8.572,4.829,4.829,0,0,1,6.83-6.829,19.614,19.614,0,0,0,27.735,0,4.828,4.828,0,0,1,6.827,6.829,29.076,29.076,0,0,1-20.695,8.572Zm0,0" transform="translate(-143.406 -92.561)" fill="#7acefa"/><path d="M47.621,180.872a23.2,23.2,0,0,1-16.513-6.84,4.827,4.827,0,1,1,6.827-6.827,13.7,13.7,0,0,0,19.372,0,4.827,4.827,0,0,1,6.827,6.827,23.2,23.2,0,0,1-16.513,6.84Zm0,0" transform="translate(-10.579 -59.068)" fill="#a3defe"/><path d="M300.9,341.619a29.164,29.164,0,0,1-20.695-8.56,4.827,4.827,0,0,1,6.827-6.827,19.634,19.634,0,0,0,27.735,0,4.828,4.828,0,0,1,6.829,6.827,29.17,29.17,0,0,1-20.7,8.56Zm0,0" transform="translate(-99.329 -115.726)" fill="#7acefa"/><path d="M125.251,318.053a29.175,29.175,0,0,1-20.695-8.559,4.827,4.827,0,1,1,6.827-6.827,19.634,19.634,0,0,0,27.735,0,4.827,4.827,0,1,1,6.827,6.827,29.175,29.175,0,0,1-20.695,8.559Zm0,0" transform="translate(-36.747 -107.33)" fill="#a3defe"/></g></g><g transform="translate(2511.361 2973.851)"><text transform="translate(144.639 361.149)" fill="#757575" font-size="64" font-family="Lato-Regular, Lato" letter-spacing="0.013em"><tspan x="-106.72" y="0">Skating</tspan></text><g transform="translate(-0.361 0.149)"><ellipse cx="140" cy="139.5" rx="140" ry="139.5" fill="#2979a2"/><g transform="translate(5.253 53.735)"><path d="M276.925,110.555A139.283,139.283,0,0,1,244.667,199.9l-211.959,3.56A138.777,138.777,0,0,1,2.22,147.138a29.745,29.745,0,0,1,8.911-6.334c14.655-7.207,18.52.633,33.2-6.574,14.655-7.207,10.789-15.048,25.444-22.255,14.677-7.207,18.52.633,33.175-6.574s10.811-15.048,25.466-22.255,18.5.633,33.153-6.574,10.811-15.048,25.466-22.255,18.52.633,33.175-6.574S231,32.7,245.65,25.488c.612-.306,1.2-.568,1.791-.808A139.143,139.143,0,0,1,276.925,110.555Z" transform="translate(-2.22 -24.68)" fill="#65c7cf"/></g><g transform="translate(12.067 138.805)"><path d="M273.209,66.6A139.8,139.8,0,0,1,5.34,120.435c19.612-.983,92.078-6.639,150.675-37.805C198.6,59.981,244.577,61.925,273.209,66.6Z" transform="translate(-5.34 -63.631)" fill="#b99ac8"/></g><g transform="translate(67.643 53.984)"><g transform="translate(64.365)"><path d="M89.109,45.464a13.371,13.371,0,0,0-9.428-11.455c.013-.192.057-.376.057-.572a8.642,8.642,0,1,0-14.969,5.849,13.346,13.346,0,0,0,7.919,20.49c-.039.459-.07.922-.07,1.391a15.742,15.742,0,1,0,16.491-15.7Z" transform="translate(-57.659 -24.794)" fill="#173842"/><g transform="translate(0.018 3.665)"><path d="M60.266,26.472A9.017,9.017,0,0,0,66.6,30.054l1.618-3.582Z" transform="translate(-60.266 -26.472)" fill="#3578b7"/></g><g transform="translate(0 3.665)"><path d="M60.276,26.472s-.607,12.988,5.292,13.62h2.66v4.72l7.633-.031V26.472Z" transform="translate(-60.258 -26.472)" fill="#fff"/></g><g transform="translate(0.018 3.665)"><path d="M60.266,26.472s3.5,4.547,8.819,3.333c0,0-3.874-1.286-3.7-3.333Z" transform="translate(-60.266 -26.472)" fill="#173842"/></g><path d="M69.376,26.479v-.007H62.61a15.691,15.691,0,0,0,6.268,2.962c.522,2.608,1.832,6.266,5.143,8.109l4.333-11Z" transform="translate(-57.473 -22.807)" fill="#173842"/></g><g transform="translate(67.908 12.833)"><path d="M61.88,30.67l4.259.727S63.527,35.859,61.88,30.67Z" transform="translate(-61.88 -30.67)" fill="#fb571e"/></g><g transform="translate(0 18.907)"><path d="M42.367,39.33S41.288,32.372,39.8,33.6s-.6,3.752-.6,3.752S33.386,32.09,31.126,35.7s7.526,9.562,7.526,9.562L42.6,48.206l3.846-6.139Z" transform="translate(-30.787 -33.451)" fill="#173842"/></g><g transform="translate(139.718 18.913)"><path d="M101.705,45.261l-3.931,2.948L94.76,41.5l3.232-2.184s1.092-6.945,2.577-5.722.59,3.735.59,3.735,5.809-5.242,8.081-1.638S101.705,45.261,101.705,45.261Z" transform="translate(-94.76 -33.454)" fill="#173842"/></g></g><g transform="translate(120.351 75.728)"><path d="M144.945,46.675s-15.921,19.241-45.013,9.217c-1.594-.546-3.232-1.179-4.914-1.922l7.579,48.179H54.92c.852-11.466,3.6-25.422,6.508-37.652.917-3.866,1.835-7.557,2.708-10.92C67,42.547,69.4,34.75,69.4,34.75l12.252.262H88.27a10.228,10.228,0,0,1,3.342.568,10.356,10.356,0,0,1,3.079,1.682,54.414,54.414,0,0,0,5.242,3.669c7.666,4.783,19.9,9.85,32.149,4.324l9.85-5.285Z" transform="translate(-54.92 -34.75)" fill="#b99ac8"/></g><g transform="translate(105.783 235.403)"><path d="M70.151,107.861H68.867v1.586a2.129,2.129,0,0,1-2.129,2.129H63.119a2.129,2.129,0,0,1-2.129-2.129v-1.586H59.646v1.769a1.946,1.946,0,0,1-1.946,1.946H55.007a1.946,1.946,0,0,1-1.946-1.946v-1.769H51.733a8.171,8.171,0,0,1-.686,2.282,8.448,8.448,0,0,1-2.8,3.3H78.1S71.669,111.382,70.151,107.861Z" transform="translate(-48.25 -107.861)" fill="#ede8ee"/></g><g transform="translate(143.062 133.831)"><g transform="translate(59.091)"><path d="M94.863,70.739l.983.826,1.022-1.214a2.129,2.129,0,0,1,3-.258l2.769,2.33a2.129,2.129,0,0,1,.258,3l-1.022,1.214,1.026.865,1.138-1.354a1.946,1.946,0,0,1,2.743-.236l2.06,1.734a1.946,1.946,0,0,1,.236,2.743l-1.138,1.354,1.016.856a8.174,8.174,0,0,1,1.994-1.3,8.445,8.445,0,0,1,4.265-.723q-11.42-9.609-22.838-19.219S95.968,67.07,94.863,70.739Z" transform="translate(-92.375 -61.354)" fill="#ede8ee"/></g><g transform="translate(0 9.293)"><path d="M96.275,91.214c-6.9-3.641-16.546-14.561-16.546-14.561a7.818,7.818,0,0,0,0-11.045H67.9L65.319,81.022s26.785,34.217,40.345,21.113A180.377,180.377,0,0,0,122.433,83.59L115.993,78.7C110.308,84.793,100.905,93.658,96.275,91.214Z" transform="translate(-65.319 -65.609)" fill="#0e2a30"/><path d="M94.092,71.407l-1.533,2.171C93.564,72.2,94.09,71.411,94.092,71.407Z" transform="translate(-33.066 -58.744)" fill="#0e2a30"/><path d="M99.449,65.651,88.5,78.613l.044.033,6.441,4.894.1.076,2.278-3.224L98.9,78.222l2.267-3.208s8.408,2.595,10.558,3.6,2.446-.579,2.446-.579Z" transform="translate(-37.871 -65.559)" fill="#455e77"/></g></g><g transform="translate(143.093 221.871)"><path d="M110.848,121.872H66.425a1.092,1.092,0,1,1,0-2.184h44.421A12.469,12.469,0,0,0,123.3,107.232a5.575,5.575,0,0,1,5.567-5.567h27.466a1.092,1.092,0,1,1,0,2.184H128.868a3.387,3.387,0,0,0-3.383,3.383A14.654,14.654,0,0,1,110.848,121.872Z" transform="translate(-65.333 -101.665)" fill="#ede8ee"/></g><path d="M87.089,18.66a3,3,0,0,0-3,3c0,.017,0,.033,0,.05-3.416-.483-16.917,4.174-16.917,4.174l.031.022a10.5,10.5,0,0,0-7.026,9.885H81.232a10.448,10.448,0,0,0-.4-2.719c0-.026.02-.035.015-.063-.3-2.169,3.2-6.7,4.014-9.348a3,3,0,1,0,2.228-5Z" transform="translate(71.656 21.927)" fill="#b99ac8"/><g transform="translate(126.859 90.361)"><path d="M71.878,41.45S65.872,54.641,57.9,56.563c.917-3.866,1.835-7.557,2.708-10.92Z" transform="translate(-57.9 -41.45)" fill="#a080b2"/></g><g transform="translate(77.952 75.719)"><path d="M88.627,37.061c-2.287,4.707-10.837,15.22-39.93,6.1l-10.706-4.5-2.483,6.8s15.694,16,33.474,14.958c18.59-1.085,26.859-8.5,29.421-11.031,2.254-2.226.439-14.141-6.008-14.631A3.936,3.936,0,0,0,88.627,37.061Z" transform="translate(-35.507 -34.746)" fill="#b99ac8"/></g><g transform="translate(157.042 76.558)"><path d="M80.041,40.481v14.96c-1.594-.546-3.232-1.179-4.914-1.922L71.72,35.13A10.355,10.355,0,0,1,74.8,36.812,54.416,54.416,0,0,0,80.041,40.481Z" transform="translate(-71.72 -35.13)" fill="#a080b2"/></g><g transform="translate(181.936 57.057)"><g transform="translate(21.058 7.343)"><circle cx="3.671" cy="3.671" r="3.671" fill="#fff"/></g><g transform="translate(44.602)"><circle cx="3.671" cy="3.671" r="3.671" fill="#fff"/></g><g transform="translate(13.718 59.265)"><circle cx="3.671" cy="3.671" r="3.671" fill="#fff"/></g><g transform="translate(73.149 37.635)"><circle cx="3.671" cy="3.671" r="3.671" fill="#fff"/></g><g transform="translate(34.075 29.941)"><circle cx="3.671" cy="3.671" r="3.671" fill="#fff"/></g><g transform="translate(0 29.941)"><circle cx="1.835" cy="1.835" r="1.835" fill="#ede8ee"/></g><g transform="translate(29.499 48.717)"><circle cx="1.835" cy="1.835" r="1.835" fill="#fff"/></g><g transform="translate(64.699 13.017)"><circle cx="1.835" cy="1.835" r="1.835" fill="#ede8ee"/></g></g><g transform="translate(28.249 119.616)"><g transform="translate(21.056 7.343)"><circle cx="3.671" cy="3.671" r="3.671" fill="#fff"/></g><g transform="translate(44.6)"><circle cx="3.671" cy="3.671" r="3.671" fill="#fff"/></g><g transform="translate(13.716 59.263)"><circle cx="3.671" cy="3.671" r="3.671" fill="#fff"/></g><g transform="translate(73.147 37.635)"><circle cx="3.671" cy="3.671" r="3.671" fill="#fff"/></g><g transform="translate(34.073 29.938)"><circle cx="3.671" cy="3.671" r="3.671" fill="#fff"/></g><g transform="translate(0 29.941)"><circle cx="1.835" cy="1.835" r="1.835" fill="#ede8ee"/></g><g transform="translate(29.497 48.714)"><circle cx="1.835" cy="1.835" r="1.835" fill="#fff"/></g><g transform="translate(64.697 13.017)"><circle cx="1.835" cy="1.835" r="1.835" fill="#ede8ee"/></g></g><g transform="translate(138.362 72.891)"><path d="M104.845,34.3v-.854H63.167v3.1h9.249v3.429h32.428v-.854h-3.822v-.566h3.822v-.852h-3.822v-.566h3.822v-.854h-3.822v-.566h3.822v-.854h-3.822V34.3Z" transform="translate(-63.167 -33.451)" fill="#828ac4"/></g><g transform="translate(108.313 143.126)"><g transform="translate(10.675)"><path d="M89.4,65.61H60.656C52.918,80.477,53.99,121.779,55,141.319l8.026-.4v.186C65.321,99.312,78.37,81.02,78.37,81.02,91.809,77.382,89.4,65.61,89.4,65.61Z" transform="translate(-54.296 -65.61)" fill="#173842"/></g><g transform="translate(0 75.309)"><path d="M60.784,100.492l-.234.011.887,10.5s-8.1,3.429-10.4,4.043-1.5,2.018-1.5,2.018H68.778l.031-16.782v-.186Z" transform="translate(-49.408 -100.092)" fill="#455e77"/></g></g></g></g><g transform="translate(2230.403 2464.938)"><text transform="translate(138.597 384.062)" fill="#757575" font-size="77" font-family="Lato-Regular, Lato" letter-spacing="0.013em"><tspan x="-83.237" y="0">Yoga</tspan></text><g transform="translate(0 0)"><path d="M392.4,334.291A138.25,138.25,0,1,1,254.15,196.042,138.245,138.245,0,0,1,392.4,334.291Z" transform="translate(-115.9 -196.042)" fill="#ffeb64"/><path d="M27.983,105.731c24.683-6.42-13.389-66.9,34.563-66.872s13.5,61.034,34.429,67.577c-19.907,10.417-54.464,8.193-68.991-.7Z" transform="translate(77.098 -38.835)" fill="#673325"/><path d="M131.67,39.063c-9.648.148-19.612,4.361-21.955,12.431-3.662,15.64,2.822,34.168,10.759,45.436.276,16.062-15.046,22.836-24.717,26.68-14.315,6.607-17.291,13.592-17.448,29.806-.1,10.013-6.03,27.28-8.2,35.783-4.2,16.478-9.489,15.907-17.151,29.8C41.777,239.268,37.99,256.828,24,272.423c-2.778-1.371-4.5-.024-6.761,1.672a74.362,74.362,0,0,0-9.195,8.395,4.719,4.719,0,0,1-3.164,1.056c.274,1.3.6,1.772,1.454,1.454,2.6-1.021,5.651-4.165,6.543-3.635-.4,5.932-8.508,14.243-12,21.16-1.647,3.3-.751,3.794.736,3.04-1.866,3.015-.351,3.818,1.486.91-.047,1.721.49,1.906,1.779.334,3.266-4.38,6.673-9.012,10.178-13.086-2.872,5.075-8.548,12.384-7.27,13.086,2.055.315,4.379-4.843,5.83-6.9,4.452-6.745,8.518-10.711,12.344-17.088L28.148,277c15.126-15.668,31.094-32.491,41.437-49.435C77.921,213.912,80.449,207,83.939,193.651c3.374-12.911,8.806-35.147,15.452-46.777,17.542,7,42.73,7.413,59.614-4.362,8.861,11.39,14.149,37.068,17.688,51.661,2.991,12.333,7.35,20.135,13.457,31.19,12.314,22.289,26.233,35.593,41.555,50.914.571,3.429,2.417,6.933,3.891,9.5,5.518,7.273,8.335,11.035,13.8,18.484a16.7,16.7,0,0,0,2.665,2.813c1.726-1.939-5.4-9.486-7.27-13.355,3.885,4.315,7.264,8.353,10.9,13.086.968,1.221,2.545.54,1.705-1.175,1.64,2.717,2.408-.1,1.117-2.106,1.236.969,1.558.091.812-1.808A67.712,67.712,0,0,0,254.242,293c-2.615-3.828-8.665-10.494-7.27-11.632.985-.9,3.362,1.756,5.089,2.908,2.006,1.248,3.291.6,3.635-.727a5.453,5.453,0,0,1-3.446-1.467c-2.992-3.1-5.864-4.936-8.912-7.983-2.431-1.967-4.1-2.367-6.906-1.817-14.662-14.712-20.44-39.077-29.929-54.588-7.854-12.837-10.173-12.4-15.293-26.44-3.226-8.847-8.633-28.251-8.883-37.836-.459-17.565-4.615-25.57-20.1-30.523-14.361-4.317-20.156-12.252-22.117-25.746,11-12.233,13.878-32,11.632-46.234-1.087-8.081-10.417-12-20.065-11.85Z" transform="translate(8.364 -38.347)" fill="#d39a59"/><path d="M86.141,63.845A8.545,8.545,0,0,0,80.9,66.58C87.712,79.136,90.332,86.812,90.9,95.462c1.228,12.848,5.121,26.049,5.5,30.725.934,24.589.323,43.3-12.649,67.943-23.382,6.266-45.633,16.184-66.879,27.7-1.191,3.909-7.42,10.566-12.944,18.609,10.817,24.47,87.965-2.894,120.624-8.448,29.556,2.387,110.87,41.9,115.118,12.7-4.938-6.431-9.434-12.856-13.772-18.511-21.087-14.649-45.16-23.894-69.16-32.561-12.394-25.578-22.44-35.527-15.52-67.719.833-4.342,6.83-16.945,6.581-30.69-.12-9.966,3.459-17.7,9.231-30.133a7.137,7.137,0,0,0-4.98-1.808C149,78.565,131.587,85.687,117.416,85.59S93.409,78.5,86.137,63.843Z" transform="translate(18.035 21.116)" fill="#ffa433"/><path d="M44.738,116.251c5.762-4.108,11.629-9.25,18.173-9.45l8,.727c3.349-.212,6.219-1.247,8.723-1.808,3.047-.361,5.634,1.174,5.816,3.989-6.374,1.508-10.622,2.837-16.719,4.361a13.069,13.069,0,0,0-5.088,2.908,171.48,171.48,0,0,1-18.9-.727Z" transform="translate(118.252 125.266)" fill="#d39a59"/><path d="M61.787,104.94c-3.563-2.384-13.993,6.047-21.892,7.626-2.648.418-5.109-1.508-8-1.454-3.615.151-6.577,2.207-9.45,4.361-3.959-.46-7.9.56-8,3.635,1.7,1.854,5.087.479,9.379.811,10.135.567,17.814,3.614,26.825,4.848,10.743,1.463,18.945-.119,28.493,3.063h.727a22.416,22.416,0,0,0,1.454-10.9c-18.784-2.151-13.649-6.3-19.542-11.988Z" transform="translate(43.864 122.441)" fill="#d39a59"/><path d="M33.356,111.24c10.608.16,21.4.06,31.723,2.207C80.421,117,91.97,119.9,106.509,124.014c9.958,2.685,15.644,4.2,22.964,6.482,10.042,3.1,13.5,3.61,23.862,3.766,4.438.1,7.018-.487,10.5-.4-3.01,2.058-7.093,3.086-10.714,3.577-8.186.484-17.317-1.414-25.3-3.008-5.42-.8-13.815-3.637-22.194-6.126-12.433-3.7-28.241-8.695-44.188-12.712-10.056-2.147-24.071-3.57-28.084-4.352Z" transform="translate(90.295 138.952)" fill="#ff8d00"/><path d="M33.8,108.117c11.481,1.688,20.337,2.861,31.261,2.861a42.02,42.02,0,0,0,6.542-.727c2.422-.242,4.232-.8,7.269-.727a238.461,238.461,0,0,1,30.531,2.181c12.45,1.954,22.864,3.26,34.892,7.269-11.348-1.976-22.755-3.533-34.165-5.089-10.677-1.5-21.94-.52-31.257-.727-5.97-.236-11.318-.423-18.173-.727-9.064-.519-18.5-1.725-26.9-4.315Z" transform="translate(91.388 131.281)" fill="#ff8d00"/><path d="M30.655,125.993c8.137-.156,17.888-1.64,25.979-2.573,9.96-1.265,20.948-3.722,31.406-5.578l32.04-5.572c-9.935,2.467-21.8,5.242-31.738,7.665-10.471,2.311-17.353,4.08-31.418,6.935-8.326,1.565-17.69,2.982-26.361,3-8.572-.024-22.243-.106-26.518-9.271,7.932,5.994,17.562,5.343,26.609,5.393Z" transform="translate(18.303 141.48)" fill="#ff8d00"/><path d="M43.278,48.2c-7.409,4.331-4.074,10.592-3.155,17.99C40.134,54.9,39.1,54.388,43.278,48.2Z" transform="translate(103.119 -15.903)" fill="#bb783f"/><path d="M36.555,55.141c1.891-.382,3-1.294,4.774-.1,2.676-1.241,3.028-.209,5.519.4-5.007,3.029-6.036,3.379-10.293-.3Z" transform="translate(98.152 -0.546)" fill="#d37465"/><path d="M35.633,81.306C32.2,62.188,37.377,55.714,54.7,56.064S76.429,72.385,72.813,81.02C85.4,65.221,80.589,39.047,54.5,38.857S27.633,64.151,35.633,81.3Z" transform="translate(84.922 -38.842)" fill="#673325"/><path d="M33.427,48.755C37.1,51.1,39.38,51.5,44.507,51.181,39.21,53.513,35.377,52.5,33.427,48.755Z" transform="translate(90.47 -14.528)"/><path d="M56.178,32.422c0,.24-.345.435-.77.435s-.77-.195-.77-.435.345-.435.77-.435S56.178,32.182,56.178,32.422Z" transform="translate(82.282 17.132)" fill="#bb783f"/><path d="M56.178,32.422c0,.24-.345.435-.77.435s-.77-.195-.77-.435.345-.435.77-.435S56.178,32.182,56.178,32.422Z" transform="translate(85.832 17.132)" fill="#bb783f"/><path d="M50.4,48.755C46.73,51.1,44.452,51.5,39.325,51.181,44.621,53.513,48.455,52.5,50.4,48.755Z" transform="translate(104.957 -14.528)"/><path d="M35.094,55.957c5.346,7.952,7.639,7.612,9.475,7.677s6.379-.7,8.324-7.513c-7.275,6.181-12.622,3.291-17.8-.164Z" transform="translate(94.564 3.162)" fill="#bb783f"/><path d="M27.092,101.269a21.371,21.371,0,0,1,9.921,6.125C35.265,103.208,32.5,100.417,27.092,101.269Z" transform="translate(74.909 114.084)" fill="#ff8d00"/><path d="M54.411,101.015c-4.045-.142-7.054,2.1-8.8,7.246C48.468,105.062,51.33,102.17,54.411,101.015Z" transform="translate(120.399 113.82)" fill="#ff8d00"/></g></g><path d="M9040,5814s4.25,183.513,0,446c-9.985,616.648-262.007,1671.76-2126.667,1840H9040Z" transform="translate(-5822 -2949)" fill="#fed638"/><path d="M6914.853,7774.337s-3.42-157.369,0-382.462c8.034-528.8,210.813-1433.6,1711.132-1577.874H6914.853Z" transform="translate(-6913 -3920)" fill="#50ace9"/></g></svg>