<svg xmlns="http://www.w3.org/2000/svg" xmlns:xlink="http://www.w3.org/1999/xlink" width="1778" height="790.038" viewBox="0 0 1778 790.038"><defs><linearGradient id="a" x1="0.5" x2="0.5" y2="1" gradientUnits="objectBoundingBox"><stop offset="0" stop-color="#d835c2"/><stop offset="1" stop-color="#b9ae14"/></linearGradient></defs><g transform="translate(-50 -254)"><g transform="translate(50 254)"><g fill="#fcfbfb" stroke="#7dddfb" stroke-width="10"><rect width="349" height="300" rx="40" stroke="none"/><rect x="5" y="5" width="339" height="290" rx="35" fill="none"/></g><text transform="translate(175 84)" fill="#16dae1" font-size="40" font-family="OpenSans-Bold, Open Sans" font-weight="700"><tspan x="-89.883" y="0">2 to 5 yrs</tspan></text><text transform="translate(59 134)" font-size="30" font-family="OpenSans-Regular, Open Sans"><tspan x="11.46" y="32">Movement and </tspan><tspan x="36.545" y="73">motor skills</tspan></text></g><g transform="translate(406.622 254)"><g transform="translate(0.378)" fill="#fcfbfb" stroke="#c97dfb" stroke-width="10"><rect width="349" height="300" rx="40" stroke="none"/><rect x="5" y="5" width="339" height="290" rx="35" fill="none"/></g><text transform="translate(181.378 78)" fill="#c97dfb" font-size="40" font-family="OpenSans-Bold, Open Sans" font-weight="700"><tspan x="-89.883" y="0">6 to 7 yrs</tspan></text><text transform="translate(58.378 117)" font-size="30" font-family="OpenSans-Regular, Open Sans"><tspan x="40.596" y="32">Experience </tspan><tspan x="12.178" y="73">multiple sports </tspan><tspan x="56.57" y="114">&amp; games</tspan></text></g><g transform="translate(764.245 254)"><g transform="translate(-0.245)" fill="#fcfbfb" stroke="#8780e3" stroke-width="10"><rect width="350" height="300" rx="40" stroke="none"/><rect x="5" y="5" width="340" height="290" rx="35" fill="none"/></g><text transform="translate(183.755 83)" fill="#8780e3" font-size="40" font-family="OpenSans-Bold, Open Sans" font-weight="700"><tspan x="-101.299" y="0">8 to 10 yrs</tspan></text><text transform="translate(58.755 118)" font-size="30" font-family="OpenSans-Regular, Open Sans"><tspan x="18.074" y="32">Sports basic &amp; </tspan><tspan x="9.336" y="73">identity specific </tspan><tspan x="73.518" y="114">sports</tspan></text></g><g transform="translate(1121.867 254)"><g transform="translate(0.133)" fill="#fcfbfb" stroke="#72f272" stroke-width="10"><rect width="349" height="300" rx="40" stroke="none"/><rect x="5" y="5" width="339" height="290" rx="35" fill="none"/></g><text transform="translate(74.133 90)" fill="#72f272" font-size="40" font-family="OpenSans-Bold, Open Sans" font-weight="700"><tspan x="0" y="0">11 to 13 yrs</tspan></text><text transform="translate(59.133 134)" font-size="30" font-family="OpenSans-Regular, Open Sans"><tspan x="40.171" y="32">Specialized </tspan><tspan x="17.905" y="73">specific sports</tspan></text></g><g transform="translate(1478.867 254)"><g transform="translate(0.133)" fill="#fcfbfb" stroke="#f2f241" stroke-width="10"><rect width="349" height="300" rx="40" stroke="none"/><rect x="5" y="5" width="339" height="290" rx="35" fill="none"/></g><text transform="translate(189.133 88)" fill="#f2f241" font-size="40" font-family="OpenSans-Bold, Open Sans" font-weight="700"><tspan x="-112.715" y="0">14 to 18 yrs</tspan></text><text transform="translate(59.133 134)" font-size="30" font-family="OpenSans-Regular, Open Sans"><tspan x="13.174" y="32">Advanced level </tspan><tspan x="73.518" y="73">sports</tspan></text></g><g transform="translate(705.761 1690.09)"><path d="M499.307-1102.242c-2.983,1.575-5.594,5.345-7.376,10.691-1.285,3.771-.994,4.517.332.912,2.362-6.34,4.061-8.66,8.039-11.105C502.7-1103.278,501.959-1103.65,499.307-1102.242Z" transform="translate(-286.879)"/><path d="M559.215-1100.436a38.426,38.426,0,0,0-23.661,11.478,35.9,35.9,0,0,0-9.116,16.036c-1.285,4.724-1.285,14.71,0,19.31a37.757,37.757,0,0,0,18.978,22.915,55.372,55.372,0,0,0,6.63,2.569c3.356,1.036,4.31,1.119,10.732,1.16,6.34.042,7.334-.041,9.945-.953,10.4-3.481,19.641-11.437,23.826-20.47,1.077-2.279,3.315-10.774,3.315-12.473a2.234,2.234,0,0,0-.829-1.367,2.943,2.943,0,0,1-.829-2.279c0-1.285.166-1.575.829-1.575,1.036,0,1.036-.7,0-5.76a38.33,38.33,0,0,0-7.252-15.083c-1.865-2.238-2.528-2.818-3.191-2.652-1.036.29-4.475-2.4-4.475-3.481,0-.87-1.367-1.906-5.18-3.771a31.227,31.227,0,0,0-12.058-3.646c-2.238-.207-4.185-.373-4.31-.332C562.447-1100.809,560.956-1100.643,559.215-1100.436Z" transform="translate(-307.007 -1.35)" fill="#eccc2e" stroke="#9f9f9f" stroke-width="4.1"/><path d="M726-1096.608a6.058,6.058,0,0,0,1.7,1.948c1.823,1.657,3.273,4.227,4.765,8.412.622,1.823.953,2.362.953,1.616.041-1.74-1.575-6.216-3.149-8.536C728.362-1096.028,726-1097.934,726-1096.608Z" transform="translate(-424.44 -3.562)"/><path d="M518.83-1082.8a16.491,16.491,0,0,0-4.641,9.365c-.29,3.025.249,2.445,1.2-1.285.87-3.481,2.072-5.428,5.014-8.246,1.658-1.533,1.948-2.03,1.367-2.03C521.316-1085,519.99-1084.005,518.83-1082.8Z" transform="translate(-300.352 -10.612)"/><path d="M703-1083.793a12.975,12.975,0,0,0,1.533,2.155,26.506,26.506,0,0,1,4.641,10.608c.29,2.321.331,2.445.663,1.326.994-3.481-3.937-14.3-6.464-14.3C703.166-1084,703-1083.917,703-1083.793Z" transform="translate(-410.971 -11.197)"/><path d="M45.539-822.519a.753.753,0,0,0-.539.58c0,.249.207.29.414.166.787-.456,2.859.249,4.972,1.7s2.776,1.285,1.2-.29C49.972-821.981,46.865-823.1,45.539-822.519Z" transform="translate(-25.628 -164.237)"/><path d="M3.875-817.55c-1.326,1.616-1.367,2.818-.041,6.92,1.077,3.439.912,4.268-.87,4.268a1.579,1.579,0,0,0-1.243.5c-.331.5,0,.746,3.564,2.776,1.367.787,2.486,1.7,2.486,1.989,0,.787-2.486,1.782-4.392,1.782-2.32,0-1.533.912,1.948,2.155,4.227,1.492,6.754,1.782,9.075.994,1.74-.58,1.906-.58,2.735.207l.87.829.249-.829a1.068,1.068,0,0,1,1.077-.87c.7,0,.87.249.87,1.409,0,2.03.331,2.693,1.74,3.4,1.533.787,2.4,2.818,2.4,5.635,0,2.776,1.285,5.428,3.149,6.589a7.941,7.941,0,0,1,2.611,3.232,17.444,17.444,0,0,0,3.066,4.061,29.338,29.338,0,0,1,3.729,4.558c2.4,3.688,3.771,4.931,6.506,5.843a5.7,5.7,0,0,1,2.486,1.367c1.45,3.025,2.03,3.937,3.149,4.807a7.736,7.736,0,0,0,2.818,1.243c1.326.207,1.492.124,1.492-.621a1.56,1.56,0,0,1,.414-1.119c.622-.373,3.315,1.74,3.9,3.066.29.7.7,1.036,1.2.953.5-.124.7.124.7.829a2.416,2.416,0,0,1-.456,1.45c-.87.87,1.036,5.055,3.439,7.624,1.492,1.575,5.594,3.356,8.37,3.646,3.025.29,3.564.953,2.569,3.025-.58,1.2-1.16,1.657-3.025,2.362-4.1,1.575-9.531,6.3-9.116,7.956a2.184,2.184,0,0,1-.622,1.7C58.7-721.457,58.075-718.1,57.7-707.7c-.124,3.978-.373,8.66-.58,10.359-.58,5.3-3.812,11.975-8.246,17.072-1.16,1.326-1.74,2.4-1.74,3.149,0,.87-.58,1.782-2.072,3.315a10.825,10.825,0,0,0-2.072,2.611c0,2.652,3.232,7,7.044,9.448,1.243.787,2.072,1.616,2.072,2.072,0,.787-.29,1.16-5.843,7.956-3.315,4.061-4.392,5.843-5.47,9.241a52.835,52.835,0,0,0-1.533,11.851c0,4.558-4.6,15.042-9.323,21.34-2.569,3.356-3.232,4.89-1.533,3.356,1.533-1.367,1.782-.746.622,1.575a12.694,12.694,0,0,1-3.646,4.227c-3.191,2.569-6.174,6.8-10.815,15.166C6.61-570.418,4.289-565.238,2.093-556.827c-1.036,3.812-1.036,4.227-.5,6.423a10.263,10.263,0,0,0,4.724,6.381,5.225,5.225,0,0,1,1.616,1.492c.124.249-.539,1.409-1.409,2.528a16.531,16.531,0,0,0-2.072,3.149c-1.16,3.149.166,6.879,4.061,11.188a14.234,14.234,0,0,1,3.812,6.63c1.616,4.848,3.025,7.127,5.76,9.116,4.6,3.4,9.116,4.061,13.509,1.948,2.818-1.326,5.884-4.392,6.257-6.257.373-1.7,1.036-2.2,2.4-1.658a12.558,12.558,0,0,0,7-.207c3.066-1.492,5.428-2.942,5.718-3.522a22.573,22.573,0,0,0,1.036-7.252,2.767,2.767,0,0,0-1.285-1.533,1.609,1.609,0,0,1-1.036-1.782,11.778,11.778,0,0,0-.622-3.108c-.87-2.528-.787-3.978.29-4.724a3.477,3.477,0,0,1,1.575-.663,9.4,9.4,0,0,0,2.942-2.2c2.983-2.818,3.232-3.812,3.481-15.125.207-8.785.746-13.011,2.486-18.812.787-2.652.787-2.859,0-2.569-.414.166-.622,0-.622-.58,0-1.533.746-2.735,3.274-5.387,3.191-3.315,5.18-6.671,8.7-14.71,3.646-8.287,5.3-11.188,8.578-15.125A78.8,78.8,0,0,0,91.929-628.8c3.481-6.879,5.345-11.727,5.345-13.84,0-1.616-.041-1.658-1.533-1.782l-1.533-.124,1.7-1.119c3.066-2.03,4.972-6.547,5.18-12.348l.124-3.522,1.533-.746a3.664,3.664,0,0,0,2.155-2.693c1.906-5.884,2.445-17.114,1.243-27.1-.332-3.025-.663-8.412-.746-11.934-.041-5.967-.166-6.63-1.2-9.116-.622-1.492-1.2-2.859-1.243-3.066s1.367-.87,3.149-1.533c4.807-1.7,12.721-6.92,12.721-8.412,0-.787,1.409-1.906,2.4-1.906.539,0,2.072-1.119,3.854-2.776,5.055-4.765,8.122-9.323,11.105-16.533,1.7-4.1,2.611-5.345,4.475-6.34a11.259,11.259,0,0,0,2.445-2.735,18.079,18.079,0,0,1,5.014-4.807c3.522-2.569,5.718-5.138,5.3-6.216a3.8,3.8,0,0,0-1.45-1.284c-1.16-.663-1.2-.787-.953-2.818.29-2.445-1.243-7.666-2.445-8.329a3.741,3.741,0,0,1-1.16-1.823c-.5-1.45-.7-1.616-2.362-1.45-.663.041-1.077-.29-1.45-1.119-.663-1.45-1.077-1.782-2.4-1.782a2.832,2.832,0,0,1-1.906-1.119c-.787-.995-1.036-1.077-2.072-.746a4.669,4.669,0,0,0-2.238,2.321c-.58,1.036-1.409,2.528-1.865,3.315s-1.077,2.155-1.45,3.025a4.282,4.282,0,0,1-1.036,1.782c-.249.083-.829-.787-1.326-1.948-.787-1.823-1.036-2.072-2.155-2.072-1.616,0-1.865.456-2.113,4.144-.207,2.445-.5,3.439-1.285,4.517-.87,1.16-.994,1.865-1.119,5.47-.166,3.812-.249,4.185-1.077,4.475-1.077.456-4.1,3.646-4.972,5.3-.787,1.575-8.909,8.826-9.821,8.826-.5,0-.787-.373-.87-1.16-.083-.87-.539-1.285-1.865-1.948-2.486-1.16-2.4-2.2.207-2.362l1.948-.124.124-2.072a6.045,6.045,0,0,1,.746-2.735,3.1,3.1,0,0,0,.5-2.155,9.434,9.434,0,0,1,.87-3.564c.87-1.823.912-2.2.456-3.315-.373-.994-.912-1.367-2.238-1.74-2.983-.787-3.771-1.326-3.688-2.61.124-1.575-2.2-5.553-3.771-6.464a19.722,19.722,0,0,1-4.807-3.937c-3.191-3.688-3.564-3.937-5.677-3.937a25.121,25.121,0,0,1-5.553-1.036c-3.315-.953-7.417-1.326-8.826-.787-1.367.539-.124.912,2.155.7,1.823-.166,2.238-.124,1.906.29-.332.29-2.362.539-5.926.622-5.221.083-5.594.166-8.039,1.409-2.818,1.45-10.484,8-11.478,9.821-1.036,1.865-1.782,2.113-4.019,1.284a13.579,13.579,0,0,0-2.693-.7c-1.036,0-5.8-4.807-7.169-7.252-1.533-2.693-3.812-5.138-5.511-5.884a5.3,5.3,0,0,1-2.2-1.989,4.1,4.1,0,0,0-1.616-1.657,2.372,2.372,0,0,1-1.16-1.45,17.326,17.326,0,0,0-2.113-3.315,9.679,9.679,0,0,1-1.906-3.646c-.456-2.486-.58-2.776-1.989-4.227a11.7,11.7,0,0,0-7.376-3.315c-1.657,0-2.32-.29-4.351-1.823a29.967,29.967,0,0,1-3.812-3.273c-1.243-1.285-1.409-1.657-1.243-3.439C5.947-818.958,5.366-819.29,3.875-817.55Zm2.03,5.926c0,.622-.166,1.16-.373,1.2-.58.207-1.243-1.16-.953-1.906C4.994-813.406,5.905-812.909,5.905-811.624Zm4.309,13.8a.292.292,0,0,1-.083.414c-.331.373-1.948-.249-1.948-.7C8.184-798.488,9.717-798.24,10.215-797.825Zm21.05,20.138c-.124.332-.249.207-.249-.249-.041-.456.083-.7.207-.539A.839.839,0,0,1,31.265-777.687Zm76.7,8.951c.083.29-.124.5-.5.5a.654.654,0,0,1-.663-.663C106.8-769.607,107.716-769.482,107.965-768.736Zm-21.879,3.854c0,.414-.166.787-.373.787-.414,0-.87-1.492-.58-1.823C85.548-766.333,86.086-765.712,86.086-764.883Zm-.29,3.066c-.207.539-.953.912-.953.456,0-.622.58-1.45.87-1.285A.713.713,0,0,1,85.8-761.816Zm21.009,1.243c0,.331-.166.622-.414.622-.207,0-.414-.29-.414-.622s.207-.622.414-.622C106.639-761.195,106.8-760.9,106.8-760.573Zm16.368.622a1.467,1.467,0,0,1,.041,1.119c-.207.5-.373.539-.87.124a1.833,1.833,0,0,1-.622-1.077C121.722-760.449,122.8-760.573,123.173-759.952Zm-17.611,1.036c-.787.746-3.315,1.326-3.315.7,0-.456,1.823-1.243,3.108-1.285C106.059-759.537,106.1-759.455,105.562-758.916Zm-46.824,3.481c.5.953-.124,1.533-.7.746-.912-1.119-.994-1.533-.373-1.533A1.606,1.606,0,0,1,58.738-755.435Zm45.954,4.848c.083.083,0,.456-.124.87-.29.7-.332.7-.87,0a1.444,1.444,0,0,0-1.285-.622.837.837,0,0,1-.912-.414c-.124-.414.207-.5,1.409-.249A9.251,9.251,0,0,1,104.692-750.587ZM81.942-746.65c0,.787-1.7,2.859-2.32,2.859-.953,0-1.16-1.16-.414-2.279C79.912-747.106,81.942-747.562,81.942-746.65Zm-4.144,3.9c-.29.373-.622.539-.746.414-.124-.083.041-.456.332-.829s.622-.539.746-.414C78.255-743.5,78.089-743.128,77.8-742.755Zm20.47,5.138c.373.622-2.4,2.113-3.854,2.113-1.16,0-1.326-.124-1.2-.953.083-.663.5-.995,1.575-1.16C97.067-738.032,98.02-738.032,98.269-737.617ZM72-732.645c0,.373-8.785,7.086-9.282,7.086-.829,0,.041-1.409,1.906-3.108C67.854-731.567,72-733.8,72-732.645Zm39.78,10.815c0,.456-4.558,2.611-4.89,2.321-.083-.124.912-.746,2.238-1.45C111.984-722.41,111.777-722.368,111.777-721.83ZM54.76-541.122c-.746.829-1.823,1.077-1.823.414,0-.5,1.782-1.657,2.2-1.409C55.34-541.992,55.174-541.536,54.76-541.122Zm-18.4-.7a6.477,6.477,0,0,0,.249.829c.207.5,0,.663-.787.663-1.16,0-1.74-.58-1.326-1.243C34.745-541.992,36.362-542.2,36.362-541.826Zm-6.589.87c0,.207-.373.456-.87.539-.829.124-1.119-.332-.539-.912C28.779-541.7,29.773-541.453,29.773-540.956Z" transform="translate(0 -166.596)" fill="url(#a)"/><path d="M38-810.474c0,.249.331.456.746.456,1.326,0,4.144,2.362,5.1,4.227.5.994.994,1.533,1.077,1.284.414-1.2-3.646-5.925-5.055-5.925a4.78,4.78,0,0,1-1.2-.249C38.29-810.805,38-810.722,38-810.474Z" transform="translate(-21.528 -171.227)"/><path d="M971.225-802.955a3.8,3.8,0,0,1-1.906,1.036c-1.243,0-1.74,1.492-1.575,4.6.166,2.942-.207,3.564-1.326,2.238-.746-.912-1.2-.787-1.492.414-.331,1.285-1.243,1.326-2.486.166a4.68,4.68,0,0,0-2.942-.994,23.513,23.513,0,0,1-3.149-.414,1.785,1.785,0,0,0-1.989.456,13.027,13.027,0,0,1-2.611,1.616c-2.155,1.036-2.4,2.528-.912,5.511,1.077,2.113.912,2.984-.58,2.984a2.517,2.517,0,0,0-1.45.829c-.746.829-.746.87.746,2.4,1.948,1.989,2.942,4.392,3.812,8.95,1.077,5.8,1.865,7.293,4.931,9.24l1.575,1.036-.29,2.2c-.331,2.735.539,4.682,3.564,7.749,1.45,1.45,1.989,2.32,1.823,2.859a29.973,29.973,0,0,0,1.326,6.423c1.2,4.475,1.865,6.091,2.9,7.417a15.4,15.4,0,0,1,1.823,2.693,59.534,59.534,0,0,0,5.884,10.608c4.434,6.754,6.754,8.95,15.953,15.042a75.736,75.736,0,0,1,7.127,5.055c0,.539-1.285,1.616-1.865,1.616-.912,0-2.155,2.445-3.978,7.707-1.119,3.315-1.616,5.3-1.45,6.091a2.606,2.606,0,0,1-.539,2.238c-2.528,3.149-3.937,13.757-3.937,28.923,0,8.453.083,10.359.746,12.638a20.584,20.584,0,0,1,.7,5.055,54.79,54.79,0,0,0,1.782,12.141,12.237,12.237,0,0,0,7.873,8.495l1.616.5-.29,3.232c-.331,4.019.58,9.075,1.989,11.147a20.037,20.037,0,0,1,1.906,5.221,50.642,50.642,0,0,0,6.837,14.793c1.948,2.652,2.859,2.818,7.21,1.326a21.793,21.793,0,0,0,4.061-1.74.922.922,0,0,1,.953-.29,1.039,1.039,0,0,1-.29,1.782c-.622.373-.622.58,0,3.191a16.2,16.2,0,0,0,5.014,8.329c1.409,1.2,1.906,1.409,3.025,1.2a2.016,2.016,0,0,1,1.948.414c.7.746.912,2.072.249,1.657-.953-.58-.29.7,1.326,2.569a78.312,78.312,0,0,1,7.873,11.934c1.616,3.149,3.646,9.116,3.646,10.649a1.575,1.575,0,0,1-.621,1.409c-1.823.7-3.4,5.925-2.2,7.127.415.414.415.7,0,1.326-.87,1.45-.58,2.776.995,4.268l1.533,1.409-.539,2.155a10.718,10.718,0,0,0-.29,3.481c.332,2.072-1.989,6.381-3.771,6.961a4.035,4.035,0,0,0-1.865,1.285,14.628,14.628,0,0,1-3.688,2.445c-3.522,1.782-5.3,3.646-5.3,5.635a2.084,2.084,0,0,1-1.077,1.989c-1.077.7-1.119.787-.829,3.854a14.575,14.575,0,0,1-.207,4.682c-.456,1.409-.373,1.74.58,3.4,1.45,2.445,3.149,3.232,7.044,3.232a24.9,24.9,0,0,0,4.227-.29c1.74-.414,4.475-1.823,4.89-2.486.166-.331.953-.58,1.74-.58a17.482,17.482,0,0,0,4.434-1.119c3.232-1.16,8.329-4.765,11.271-8,1.409-1.533,1.782-1.7,2.942-1.533,1.74.29,4.144-.829,6.008-2.776a5.041,5.041,0,0,0,1.657-3.688l.207-2.155,1.865-.332c5.346-.995,7.956-2.569,9.7-5.8l.746-1.45-1.285-1.865a5.987,5.987,0,0,1-1.284-3.937c0-2.238-1.2-4.351-2.279-3.978-.7.29-1.575-1.285-1.243-2.279a4.113,4.113,0,0,0-.373-2.155,27.96,27.96,0,0,1-1.077-4.641c-.456-3.066-.414-3.315.331-4.144a9.846,9.846,0,0,0,2.155-4.185,4.738,4.738,0,0,0-1.077-1.865,2.729,2.729,0,0,1-.787-2.818,3.18,3.18,0,0,0-.829-2.984c-1.243-1.74-1.782-2.113-2.983-2.113-1.16,0-1.285-.249-2.2-4.061-2.445-10.069-7.707-20.3-13.923-27.017a16.877,16.877,0,0,1-2.113-2.942c-.414-.829-1.243-2.445-1.865-3.605-1.492-2.735-1.492-4.351-.083-5.76l1.119-1.119-.787-1.45a19.024,19.024,0,0,0-2.072-2.942c-2.031-2.279-3.688-5.594-5.511-11.022-1.823-5.3-1.989-6.713-1.2-8.163a4.05,4.05,0,0,0,.539-1.7c0-1.16,2.072-2.611,2.818-1.989.622.539,1.409-.083,2.321-1.906.58-1.119.456-1.658-1.657-6.423a58,58,0,0,1-2.652-7.542c-1.367-5.387-3.108-17.279-3.108-21.506a12.376,12.376,0,0,0-.663-4.931c-.663-1.326-.622-1.575.166-4.061,1.865-5.718,4.268-17.942,3.937-20.014a3.055,3.055,0,0,1,.249-2.072c.539-.622,1.243-7.5,1.285-12.141,0-2.569-.124-3.108-1.036-4.185-1.2-1.409-1.285-1.989-.414-2.445.5-.29.5-.663.041-2.693a21.722,21.722,0,0,0-1.74-4.641c-1.16-2.2-1.16-2.238-.456-3.812.87-1.906.5-3.605-1.16-5.843-1.243-1.575-1.119-2.611.29-2.611a5.926,5.926,0,0,0,2.155-.622,6.8,6.8,0,0,1,1.865-.663c.663-.041,2.735-1.285,5.76-3.481.953-.7,2.486-1.782,3.4-2.4a7.176,7.176,0,0,0,2.362-2.693,6.015,6.015,0,0,1,1.492-2.2c1.7-1.367,2.4-12.39,1.077-16.906a17.368,17.368,0,0,1-.787-3.688,12.507,12.507,0,0,0-1.243-3.688,14.689,14.689,0,0,1-1.243-3.4c0-1.575-7.583-7.749-10.111-8.2a8.654,8.654,0,0,1-2.32-.87,3.323,3.323,0,0,0-1.948-.539,3.943,3.943,0,0,1-1.782-.373,13.893,13.893,0,0,0-2.818-.829,32.646,32.646,0,0,1-3.729-.995c-2.776-1.036-8,0-9.489,1.823a4.587,4.587,0,0,1-2.486,1.45c-3.729.7-8.08,3.812-8.66,6.216a5.892,5.892,0,0,1-.746,1.823,19.754,19.754,0,0,0-1.492,2.693,5.48,5.48,0,0,1-2.9,3.025,8.068,8.068,0,0,0-2.2,1.575,1.444,1.444,0,0,1-2.238.166c-.373-.373-.787-.331-1.575.207-.994.621-1.077.953-.953,2.445a12.355,12.355,0,0,0,.5,2.4c.166.373-.041.995-.58,1.616-1.16,1.326-1.036,2.32.622,4.972a9.752,9.752,0,0,1,1.45,3.066,4.863,4.863,0,0,1-1.492,2.238c-1.409,1.367-1.492,1.367-2.279.663a2.519,2.519,0,0,1-.787-1.492,6.012,6.012,0,0,0-1.782-3.564,3.914,3.914,0,0,1-.953-2.155c-.249-3.646-6.671-9.9-10.608-10.318a12.22,12.22,0,0,1-1.782-2.32c-1.823-2.735-3.4-3.937-5.18-3.937-1.16,0-1.285-.083-.953-.953a9.617,9.617,0,0,0-.539-5.8c-.622-1.326-.622-1.7-.166-2.569.87-1.616-.414-8.495-2.279-12.348a23.586,23.586,0,0,1-1.906-6.091,14.508,14.508,0,0,0-.912-3.646C974.333-804.322,972.427-804.073,971.225-802.955Zm1.616,3.066c-.166.7-.456,1.2-.663,1.036-.414-.249-.5-2.362-.083-2.776C972.675-802.209,973.131-801.131,972.841-799.888ZM966-791.974a.415.415,0,0,1-.414.414.446.446,0,0,1-.414-.414.415.415,0,0,1,.414-.414A.391.391,0,0,1,966-791.974Zm-10.359,21.8c0,.331-.166.5-.414.373a.889.889,0,0,1-.414-.663.409.409,0,0,1,.414-.373C955.479-770.841,955.645-770.551,955.645-770.178Zm16.989,2.942a3.639,3.639,0,0,1-1.74,1.782c-.5,0-.414-.995.166-1.575C971.6-767.567,972.634-767.692,972.634-767.236Zm-9.531,4.517c0,.373-.29.58-.7.5-1.036-.207-1.16-1.16-.166-1.16C962.731-763.382,963.1-763.134,963.1-762.719ZM985.48-753.4c.29.456.373.953.249,1.077-.331.373-1.492-.7-1.492-1.367C984.236-754.556,984.982-754.39,985.48-753.4Zm33.771,20.1c.995.663,1.409,1.823.663,1.823a4.6,4.6,0,0,1-1.45-.87C1016.64-733.8,1017.262-734.583,1019.251-733.3Zm24.655,3.274c.7.87.29,1.2-.746.663a2.2,2.2,0,0,0-1.492-.207c-.663.249-.912-.29-.373-.787A2.292,2.292,0,0,1,1043.906-730.025Zm-25.691,2.9c-.539.58-1.077.953-1.16.829-.124-.124.207-.663.746-1.243s1.077-.953,1.16-.829C1019.085-728.243,1018.754-727.7,1018.215-727.125Zm21.133-.746c0,.622-1.409,1.782-2.155,1.782-.663,0-.622-.166.373-1.036C1038.726-728.119,1039.348-728.409,1039.348-727.87Zm5.8,1.367c0,.663-.166,1.243-.414,1.243-.207,0-.415-.58-.415-1.243,0-.7.207-1.243.415-1.243C1044.983-727.746,1045.149-727.207,1045.149-726.5Zm1.036,6.8c.911,1.409,1.409,3.356.995,4.019-.249.414-.5.124-.995-.995-.746-1.823-1.243-4.019-.87-4.019C1045.439-720.7,1045.854-720.246,1046.185-719.707ZM990.2-664.264c-.249,8.495-.58,12.8-1.036,12.514-.912-.539-.041-18.4.912-18.4A34.909,34.909,0,0,1,990.2-664.264Zm53.62,3.025v2.072l-.373-1.658a16.7,16.7,0,0,1-.29-3.108c0-1.326.042-1.367.332-.414A14.168,14.168,0,0,1,1043.823-661.239Zm1.574,12.514c.166,1.2.125,1.782-.207,1.782-.539,0-.787-1.036-.995-4.972l-.166-3.108.539,2.279C1044.859-651.5,1045.232-649.678,1045.4-648.725Zm-1.492,28.3c0,.414-2.528,1.243-2.9.953-.331-.29,1.326-1.367,2.155-1.367C1043.574-620.838,1043.906-620.672,1043.906-620.424Zm10.359,21.506c0,.539-.912,1.2-2.2,1.492-1.492.373-1.492-.414.041-1.2C1053.4-599.332,1054.265-599.456,1054.265-598.918Zm-43.343,12.183c1.782,3.149,2.238,4.268,1.575,3.854a25.3,25.3,0,0,1-3.605-6.008C1008.394-590.547,1009.389-589.512,1010.922-586.735Zm39.407,9.489c2.528,2.942,2.528,3.605.042,1.16a15.1,15.1,0,0,1-2.321-2.569C1048.05-579.4,1048.92-578.862,1050.329-577.246Zm-2.652,33.564c.539,1.906.332,2.942-.456,2.155a7.975,7.975,0,0,1-.663-2.652C1046.227-546.956,1046.89-546.624,1047.677-543.682Zm14.462,3.646a.415.415,0,0,1-.414.414.446.446,0,0,1-.414-.414.415.415,0,0,1,.414-.414A.391.391,0,0,1,1062.138-540.036Zm15.332,2.984c0,.414-.207.746-.414.746-.58,0-1.326-2.03-.995-2.569C1076.434-539.455,1077.47-538.088,1077.47-537.052Zm4.765,15.207c-.414,1.119-1.16-.207-.829-1.492l.29-1.16.373.995A2.676,2.676,0,0,1,1082.236-521.845Zm1.782,4.1c.124.787-.042.953-.622.829a1.326,1.326,0,0,1-.87-1.077c-.124-.787.041-.953.622-.829A1.327,1.327,0,0,1,1084.017-517.742Zm-10.691,2.113a.788.788,0,0,1-.414.663c-.207.124-.414-.042-.414-.373,0-.373.207-.663.414-.663A.383.383,0,0,1,1073.326-515.629Zm9.116,1.285c0,.5-1.657,1.367-1.989,1.036-.166-.166.083-.539.5-.87C1081.9-514.842,1082.443-514.925,1082.443-514.344Zm-51.8,14.172c0,1.45-.415,2.445-.87,2.155-.414-.249-.5-2.652-.124-3.688C1030.025-502.659,1030.646-501.706,1030.646-500.173Zm.207,6.091c.29.5-.5.994-1.036.663-.456-.29-.166-1.036.414-1.036A.913.913,0,0,1,1030.853-494.082Z" transform="translate(-554.636 -175.182)" fill="url(#a)"/><path d="M58.763-36.88c-.414,1.119-.414,1.119-4.144.166-2.362-.622-3.564-.456-4.227.539-.58.87-.622.87-3.066.207-3.108-.87-2.859-.87-3.9.207-.787.829-.953.87-2.859.373-1.823-.456-2.113-.414-3.481.373s-1.74.87-3.605.456C30.917-35.1,31-35.1,31-34.6c0,.456,2.238,1.036,5.345,1.45,1.823.207,2.279.124,2.735-.5.5-.663.7-.663,2.569-.166,3.688,1.036,4.268,1.077,4.268.083,0-1.077,1.367-1.16,3.605-.249a8.663,8.663,0,0,0,2.693.622c1.036,0,1.2-.166,1.077-.953-.166-1.2.994-1.367,3.854-.539,3.025.912,4.1.87,4.1-.166,0-.994.29-1.036,3.854-.166,2.445.622,2.942.622,3.937.124,1.575-.787,11.685-1.036,13.053-.29.953.5,3.191-.29,3.191-1.16,0-.663-.083-.7-4.144-.58a22.543,22.543,0,0,1-5.1-.456c-1.492-.373-2.113-.373-2.486,0-.58.58-2.859.58-4.931-.041a3.12,3.12,0,0,0-3.025.249c-1.285.7-1.492.7-3.356.083C59.633-38.123,59.218-38.081,58.763-36.88Z" transform="translate(-17.429 -623.848)"/><path d="M1140.646-18.355A55.623,55.623,0,0,0,1149.223-14c1.16.331,2.031-.083,1.2-.622a.767.767,0,0,1,.332-1.45,11.3,11.3,0,0,1,2.776.787c3.9,1.45,4.061,1.492,3.564.539a5.037,5.037,0,0,1-.456-1.077c0-.58,1.948-.124,5.428,1.2,4.392,1.7,5.511,1.823,5.138.663-.414-1.367.5-1.367,3.273-.083,3.066,1.492,3.4,1.533,3.9.622.332-.622.829-.539,4.392.87a24.319,24.319,0,0,0,4.144,1.409,7.535,7.535,0,0,0,.622-1.077c.456-.912.746-.953,5.055-.953,3.481,0,4.558-.124,4.392-.539-.083-.331-1.285-.5-3.854-.539a34.565,34.565,0,0,1-5.552-.5c-2.528-.622-2.486-.663-2.486.58,0,1.036-.083,1.077-1.326.829a11.959,11.959,0,0,1-3.481-1.7c-2.4-1.657-3.025-1.782-4.019-.622-.912,1.119-1.409,1.036-3.605-.414-2.32-1.533-3.315-1.616-3.315-.207,0,1.575-.87,1.657-3.812.373-3.356-1.409-5.345-1.657-6.588-.87-.912.58-1.2.58-3.439-.373-3.108-1.243-3.564-1.243-3.564.041,0,1.409-.7,1.326-4.144-.414C1140.853-19.018,1139.2-19.432,1140.646-18.355Z" transform="translate(-666.956 -634.915)"/></g></g></svg>