<svg xmlns="http://www.w3.org/2000/svg" width="1464" height="376" viewBox="0 0 1464 376"><g transform="translate(-162 -263)"><g transform="translate(162 263)" fill="#fff" stroke="#ee9db8" stroke-width="50"><rect width="1464" height="376" rx="188" stroke="none"/><rect x="25" y="25" width="1414" height="326" rx="163" fill="none"/></g><g transform="translate(211 310)" fill="#ff2e84" stroke="#707070" stroke-width="1"><rect width="1366" height="279" rx="139.5" stroke="none"/><rect x="0.5" y="0.5" width="1365" height="278" rx="139" fill="none"/></g><text transform="translate(261 485)" fill="#fff" font-size="101" font-family="InkFree, Ink Free"><tspan x="0" y="0" xml:space="preserve">Kinder blossom  level 1~2</tspan></text><g transform="translate(1357.059 357.999)"><path d="M117.314,296.03a6.409,6.409,0,1,1-6.409-6.409A6.409,6.409,0,0,1,117.314,296.03Zm0,0" transform="translate(-66.983 -186.543)"/><path d="M312.868,296.03a6.409,6.409,0,1,1-6.409-6.409A6.409,6.409,0,0,1,312.868,296.03Zm0,0" transform="translate(-192.939 -186.543)"/><path d="M204.787,331.526a10.221,10.221,0,0,0,8.138-4,2.673,2.673,0,1,0-4.229-3.27,4.938,4.938,0,0,1-7.817,0,2.673,2.673,0,0,0-4.228,3.271,10.223,10.223,0,0,0,8.136,3.994Zm0,0" transform="translate(-125.98 -208.185)"/><path d="M146.451,257.9V251.33a2.673,2.673,0,1,0-5.345,0V257.9a2.673,2.673,0,0,0,5.345,0Zm0,0" transform="translate(-90.563 -160.158)"/><path d="M289.779,257.9V251.33a2.673,2.673,0,1,0-5.345,0V257.9a2.673,2.673,0,0,0,5.345,0Zm0,0" transform="translate(-182.88 -160.158)"/><path d="M143.036,71.643v-.592A64.42,64.42,0,0,0,90.8,7.878,21.05,21.05,0,0,0,76.93.143,20.39,20.39,0,0,0,57.9,8.705a18.3,18.3,0,0,0-1.1,1.885,64.42,64.42,0,0,0-42.393,60.46v.592a15.846,15.846,0,0,0,0,31.454v0a47.1,47.1,0,0,0,8.679,27.353,2.673,2.673,0,1,0,4.364-3.088,41.771,41.771,0,0,1-7.7-24.265V71.051A59.049,59.049,0,0,1,54.959,17.09a21.39,21.39,0,0,0,3.373,14.1A2.673,2.673,0,0,0,62.827,28.3a16.321,16.321,0,0,1-2.4-11.849,12.01,12.01,0,0,1,1.907-4.763A14.932,14.932,0,0,1,76.281,5.446,15.3,15.3,0,0,1,89.273,16.453a45.526,45.526,0,0,1,1.044,7.453c.167,1.931.341,3.927.667,5.853.759,4.488,2.547,7.881,4.457,11.443-7.535,1.086-17.322-1.045-24.453-5.339a2.673,2.673,0,1,0-2.757,4.579A46.446,46.446,0,0,0,91.29,46.831a34.28,34.28,0,0,0,5.225-.385,5.168,5.168,0,0,0,3.756-7.549c-1.817-3.387-3.387-6.312-4.016-10.031-.289-1.711-.446-3.515-.613-5.423a50.007,50.007,0,0,0-1.2-8.354c-.085-.323-.181-.641-.282-.956a59.075,59.075,0,0,1,43.531,56.917V74.2l0,28.9a41.894,41.894,0,0,1-41.461,41.967h-.064c-.1,0-.2,0-.3,0H61.577c-.1,0-.2,0-.292,0h-.067a41.294,41.294,0,0,1-25.69-9.131,2.673,2.673,0,0,0-3.339,4.175,47.5,47.5,0,0,0,8.184,5.272,59.631,59.631,0,0,0-19.864,23.36,83.764,83.764,0,0,0-3.976,9.976,2.671,2.671,0,0,0,2.54,3.5H138.367a2.673,2.673,0,0,0,2.541-3.5,84.077,84.077,0,0,0-3.58-9.128A60.221,60.221,0,0,0,117,145.423,47.422,47.422,0,0,0,143.033,103.1V103.1a15.846,15.846,0,0,0,0-31.453ZM14.407,97.7a10.508,10.508,0,0,1,0-20.652Zm77.406,52.722a14.056,14.056,0,0,1-12.084,6.859H77.713a14.073,14.073,0,0,1-12.078-6.859Zm40.663,21.415c.758,1.64,1.465,3.327,2.116,5.044H22.848c.755-1.992,1.588-3.945,2.487-5.838a54.4,54.4,0,0,1,20.385-22.794c.2-.122.4-.236.592-.355a46.844,46.844,0,0,0,13.366,2.486c.142.348.291.694.446,1.033a19.412,19.412,0,0,0,17.588,11.214h2.016a19.39,19.39,0,0,0,17.463-10.95c.2-.424.391-.859.571-1.3a47.047,47.047,0,0,0,13.287-2.458,54.985,54.985,0,0,1,21.426,23.916ZM143.035,97.7V77.044a10.508,10.508,0,0,1,0,20.652Zm0,0" transform="translate(0 0)"/></g></g></svg>