<svg xmlns="http://www.w3.org/2000/svg" width="1464" height="376" viewBox="0 0 1464 376"><g transform="translate(-162 -827)"><g transform="translate(0 564)"><g transform="translate(162 263)" fill="#fff" stroke="#e5d8a5" stroke-width="50"><rect width="1464" height="376" rx="188" stroke="none"/><rect x="25" y="25" width="1414" height="326" rx="163" fill="none"/></g><g transform="translate(211 310)" fill="#fed638" stroke="#707070" stroke-width="1"><rect width="1366" height="279" rx="139.5" stroke="none"/><rect x="0.5" y="0.5" width="1365" height="278" rx="139" fill="none"/></g><text transform="translate(261 485)" fill="#fff" font-size="87" font-family="HoboStd, Hobo Std"><tspan x="0" y="0">PRIME CHAMP LEVEL 1-2</tspan></text></g><g transform="translate(1318 903.51)"><g transform="translate(120.042 90.407)"><path d="M374.975,222.167a2.579,2.579,0,0,0-3.358,1.42,9.41,9.41,0,0,1-17.435,0,2.578,2.578,0,0,0-4.782,1.93,14.569,14.569,0,0,0,27,0A2.578,2.578,0,0,0,374.975,222.167Z" transform="translate(-349.212 -221.977)"/></g><g transform="translate(116.333 72.934)"><path d="M341,171.145a2.578,2.578,0,0,0-2.578,2.578v1.43a2.578,2.578,0,0,0,5.156,0v-1.43A2.578,2.578,0,0,0,341,171.145Z" transform="translate(-338.423 -171.145)"/></g><g transform="translate(145.967 72.934)"><path d="M427.209,171.145a2.578,2.578,0,0,0-2.578,2.578v1.43a2.578,2.578,0,0,0,5.156,0v-1.43A2.578,2.578,0,0,0,427.209,171.145Z" transform="translate(-424.631 -171.145)"/></g><g transform="translate(31.627 90.407)"><path d="M117.77,222.167a2.578,2.578,0,0,0-3.358,1.42,9.41,9.41,0,0,1-17.435,0A2.578,2.578,0,1,0,92.2,225.52a14.569,14.569,0,0,0,27,0A2.578,2.578,0,0,0,117.77,222.167Z" transform="translate(-92.007 -221.977)"/></g><g transform="translate(27.919 72.934)"><path d="M83.8,171.145a2.578,2.578,0,0,0-2.578,2.578v1.43a2.578,2.578,0,0,0,5.156,0v-1.43A2.578,2.578,0,0,0,83.8,171.145Z" transform="translate(-81.218 -171.145)"/></g><g transform="translate(57.553 72.934)"><path d="M170,171.145a2.578,2.578,0,0,0-2.578,2.578v1.43a2.578,2.578,0,0,0,5.156,0v-1.43A2.578,2.578,0,0,0,170,171.145Z" transform="translate(-167.426 -171.145)"/></g><g transform="translate(0 21.49)"><path d="M173.422,58.584A2.578,2.578,0,0,0,176,56.006V48.852a18.449,18.449,0,0,0-18.428-18.428h-3.466l-.421-.973a13.2,13.2,0,0,0-12.122-7.961h-17.1A33.044,33.044,0,0,0,91.454,54.5v52.642a13.855,13.855,0,0,0,13.839,13.839h14.747v3.64H59V119.7a32.206,32.206,0,0,0,18.227-25,9.5,9.5,0,0,0,9.482-9.492v-3.27a9.448,9.448,0,0,0-2.216-6.085l5.933-23.484a2.578,2.578,0,0,0-5-1.263L79.932,72.844a9.437,9.437,0,0,0-2.44-.395v-8.7a2.578,2.578,0,0,0-3.334-2.465c-14.128,4.334-26.511,4.105-35.808-.664a25.2,25.2,0,0,1-9.876-8.537,2.578,2.578,0,0,0-4.827,1.262c0,6.386-1.363,7.77-8.1,8.225a2.578,2.578,0,0,0-2.4,2.572V72.45a9.439,9.439,0,0,0-2.7.474,83.932,83.932,0,0,1-2.021-8.972c-.4-3.226-.123-12.845.018-16.279,0-.035,0-.07,0-.106a7.664,7.664,0,0,1,7.656-7.655H20a2.579,2.579,0,0,0,1.823-.755l9.222-9.223A7.7,7.7,0,0,1,38.237,27.9l32.428,7.713a22.572,22.572,0,0,0,19.284-4.3.258.258,0,0,1,.411.263L88.408,39.3a2.578,2.578,0,0,0,5,1.263L95.36,32.84a5.414,5.414,0,0,0-8.622-5.559A17.417,17.417,0,0,1,71.859,30.6L39.432,22.884a12.892,12.892,0,0,0-12.029,3.4l-8.467,8.468H16.094A12.827,12.827,0,0,0,3.282,47.512c-.04,1-.5,12.862.02,17.075a99.6,99.6,0,0,0,2.647,11.5,9.446,9.446,0,0,0-2.025,5.852v3.27A9.5,9.5,0,0,0,13.4,94.7a32.146,32.146,0,0,0,18.227,25v4.923H26.259a21.053,21.053,0,0,0-4.64.516,7.3,7.3,0,0,0-6.336-3.69H9a9.015,9.015,0,0,0-9,9v14.026a9.015,9.015,0,0,0,5.246,8.179v27.483a2.578,2.578,0,0,0,2.578,2.578H82.806a2.578,2.578,0,0,0,2.578-2.578V145.632a20.966,20.966,0,0,0-7.249-15.857h41.906v1.286c0,7.436,11.161,13.87,12.433,14.579a2.577,2.577,0,0,0,2.51,0c1.272-.709,12.429-7.143,12.429-14.579v-1.286h5.369a15.875,15.875,0,0,1,15.857,15.857v31.927h-7.226V160.286a2.578,2.578,0,1,0-5.156,0v17.273H111.2V147.907a2.578,2.578,0,0,0-2.578-2.578H93.156a2.578,2.578,0,0,0,0,5.156h12.887v29.652a2.578,2.578,0,0,0,2.578,2.578h62.6a2.578,2.578,0,0,0,2.578-2.578V145.632a21.037,21.037,0,0,0-21.013-21.013h-5.369v-3.64h14.75A13.853,13.853,0,0,0,176,107.139V68.178a2.578,2.578,0,0,0-5.156,0v5.835a9.424,9.424,0,0,0-4.941-1.564V60.019a28.7,28.7,0,0,0-5.156-16.468A2.578,2.578,0,0,0,157,43.03a63.7,63.7,0,0,1-40.306,14.407,63.713,63.713,0,0,1-12.045-1.142,2.578,2.578,0,0,0-3.063,2.4c-.022.419-.032.853-.032,1.325v12.43a9.43,9.43,0,0,0-4.938,1.564V54.5a27.883,27.883,0,0,1,27.851-27.851h17.1a8.047,8.047,0,0,1,7.389,4.853l1.093,2.527a2.579,2.579,0,0,0,2.366,1.554h5.16a13.287,13.287,0,0,1,13.272,13.272v7.153A2.577,2.577,0,0,0,173.422,58.584Zm-155.09,33.4a2.578,2.578,0,0,0-2.575-2.445H13.412A4.339,4.339,0,0,1,9.08,85.207v-3.27A4.338,4.338,0,0,1,13.412,77.6h2.3A2.578,2.578,0,0,0,18.3,75.023V66.467c5.373-.767,8.4-2.86,9.711-6.94a33.37,33.37,0,0,0,7.656,5.506c12.038,6.338,26.054,4.919,36.675,2.129v7.861A2.578,2.578,0,0,0,74.914,77.6h2.3a4.34,4.34,0,0,1,4.335,4.336v3.27a4.34,4.34,0,0,1-4.335,4.336H74.869a2.578,2.578,0,0,0-2.575,2.444,27.052,27.052,0,0,1-16.856,23.644l-.048.021a27.123,27.123,0,0,1-20.146,0c-.048-.021-.1-.04-.148-.058A26.991,26.991,0,0,1,18.332,91.988Zm35.51,29.61v9.462a8.529,8.529,0,0,1-17.057,0V121.6a32.227,32.227,0,0,0,17.057,0ZM5.156,144.475V130.449A3.853,3.853,0,0,1,9,126.6h6.279a2.145,2.145,0,0,1,2.143,2.143V146.18a2.146,2.146,0,0,1-2.143,2.143H9A3.853,3.853,0,0,1,5.156,144.475Zm75.072,1.157v31.927H73V160.286a2.578,2.578,0,1,0-5.156,0v17.273H22.784V160.286a2.578,2.578,0,1,0-5.156,0v17.273H10.4V153.48h4.881a7.308,7.308,0,0,0,7.3-7.3V130.205a15.887,15.887,0,0,1,3.676-.431h5.369v1.286a13.685,13.685,0,1,0,27.369,0v-1.286H64.37A15.875,15.875,0,0,1,80.228,145.632Zm62.03-14.572c0,2.858-4.64,6.9-8.528,9.33-3.892-2.435-8.532-6.472-8.532-9.33V121.6a32.234,32.234,0,0,0,17.06,0Zm28.586-37.928v14.007h0a8.691,8.691,0,0,1-8.68,8.683h-8.493q1.161-.919,2.246-1.949A32.049,32.049,0,0,0,165.639,94.7,9.43,9.43,0,0,0,170.844,93.132ZM101.827,77.6h2.3a2.578,2.578,0,0,0,2.578-2.578V61.872a69.276,69.276,0,0,0,9.984.722,68.892,68.892,0,0,0,41.26-13.759,23.574,23.574,0,0,1,2.8,11.185v15a2.578,2.578,0,0,0,2.578,2.578h2.3a4.339,4.339,0,0,1,4.332,4.336v3.27a4.338,4.338,0,0,1-4.332,4.336h-2.345a2.578,2.578,0,0,0-2.575,2.444A27.046,27.046,0,0,1,143.9,115.613c-.046.018-.091.037-.135.058a27.133,27.133,0,0,1-20.1-.017c-.05-.022-.1-.041-.152-.06a26.99,26.99,0,0,1-16.76-23.605,2.578,2.578,0,0,0-2.575-2.445h-2.345a4.34,4.34,0,0,1-4.335-4.336V81.937h0A4.34,4.34,0,0,1,101.827,77.6Zm-.011,17.1a32.082,32.082,0,0,0,11.964,21.122h-8.486a8.693,8.693,0,0,1-8.683-8.683V93.132A9.434,9.434,0,0,0,101.816,94.7Z" transform="translate(0 -21.49)"/></g></g></g></svg>