<svg xmlns="http://www.w3.org/2000/svg" width="1464" height="376" viewBox="0 0 1464 376"><g transform="translate(-1830 -495)"><g transform="translate(1668 -332)"><g transform="translate(0 564)"><g transform="translate(162 263)" fill="#fff" stroke="#a5d3eb" stroke-width="50"><rect width="1464" height="376" rx="188" stroke="none"/><rect x="25" y="25" width="1414" height="326" rx="163" fill="none"/></g><g transform="translate(211 310)" fill="#38bafe" stroke="#707070" stroke-width="1"><rect width="1366" height="279" rx="139.5" stroke="none"/><rect x="0.5" y="0.5" width="1365" height="278" rx="139" fill="none"/></g><text transform="translate(301 485)" fill="#fff" font-size="84" font-family="ComicSansMS-Bold, Comic Sans MS" font-weight="700"><tspan x="0" y="0">SEN CHAMP LEVEL 1-2 </tspan></text></g></g><g transform="translate(2967.024 581.685)"><g transform="translate(0 1.452)"><path d="M115.631,139.137c-1.063-1.519-1.974-3.538-2.2-7.642,5.8,1.259,19.9,3.723,14.087-3.621a16.268,16.268,0,0,1-3.062-12.245c17.28-25.519,44.261-76.323,5.379-100.588C73.672-20.008,56.95,23.809,56.95,23.809c-43.9,48.11-13.893,79.844,4.844,93.168a14.23,14.23,0,0,1-3.087,10.9c-6.108,7.717,9.778,4.6,14.907,3.441a16.146,16.146,0,0,1-1.373,6.375C47.315,142.744,6.437,155.051,0,183.3H182.976C172.505,157.444,139.073,144.947,115.631,139.137ZM73.138,109.213c-.509-.506-1.013-1.017-1.513-1.526-2.541-2.575-4.961-5.14-7.1-7.5-.5-2.814.091-3.982,2.768-1.67,9.277,8,10.653,3.05,10.653,3.05C72.787,92.8,68.319,63.453,84.815,53.16S103.37,30.669,103.37,30.669c23.181,11.558,21.6,46.556,16.9,71.959-1.538,1.641-3.176,3.35-4.862,5.059-.5.509-1,1.02-1.512,1.526s-1.031,1.018-1.546,1.524c-7.669,7.514-15.584,14.23-18.837,14.23s-11.165-6.716-18.834-14.23C74.169,110.231,73.651,109.726,73.138,109.213ZM93.522,168.3c-15.2,0-27.574-7.01-27.574-15.628,0-2.792,1.385-5.558,4-8.008l.338-.316a20.2,20.2,0,0,1,2.133-1.647l.457-.465a14.263,14.263,0,0,0,2.942-5.25c1.083-3.634,1.355-9.625-.368-21.263,6.766,6.373,14.111,12.293,18.063,12.293s11.3-5.92,18.064-12.293c-1.918,12.96-1.354,18.913.069,22.464a15.84,15.84,0,0,0,2.628,4.208l.336.313a20.49,20.49,0,0,1,2.156,1.667l.319.294c2.617,2.452,4,5.219,4,8.01C121.094,161.294,108.725,168.3,93.522,168.3Z" transform="translate(0 -1.452)"/></g></g></g></svg>